<svg width="15" height="14" viewBox="0 0 15 14" fill="none" xmlns="http://www.w3.org/2000/svg">
<path d="M7.90039 2.95996C7.10927 2.95996 6.33591 3.19456 5.67811 3.63409C5.02031 4.07361 4.50762 4.69833 4.20487 5.42923C3.90212 6.16013 3.82291 6.9644 3.97725 7.74033C4.13159 8.51625 4.51255 9.22898 5.07196 9.78839C5.63137 10.3478 6.3441 10.7288 7.12003 10.8831C7.89595 11.0374 8.70022 10.9582 9.43112 10.6555C10.162 10.3527 10.7867 9.84004 11.2263 9.18224C11.6658 8.52445 11.9004 7.75109 11.9004 6.95996C11.9004 5.89909 11.479 4.88168 10.7288 4.13154C9.97868 3.38139 8.96126 2.95996 7.90039 2.95996Z" fill="#5F38F9"/>
<path d="M7.90338 2.008C7.95841 2.008 8.01289 1.99716 8.06372 1.97611C8.11456 1.95505 8.16075 1.92419 8.19966 1.88528C8.23857 1.84637 8.26942 1.80018 8.29048 1.74934C8.31154 1.69851 8.32239 1.64402 8.32239 1.589V0.419C8.32239 0.307874 8.27824 0.2013 8.19966 0.122722C8.12108 0.0441445 8.01451 0 7.90338 0C7.79226 0 7.68568 0.0441445 7.6071 0.122722C7.52852 0.2013 7.48438 0.307874 7.48438 0.419V1.589C7.48437 1.64402 7.49522 1.69851 7.51628 1.74934C7.53734 1.80018 7.56819 1.84637 7.6071 1.88528C7.68568 1.96386 7.79226 2.008 7.90338 2.008Z" fill="#5F38F9"/>
<path d="M7.90338 11.9028C7.79226 11.9028 7.68568 11.947 7.6071 12.0255C7.52852 12.1041 7.48438 12.2107 7.48438 12.3218V13.4918C7.48437 13.6029 7.52852 13.7095 7.6071 13.7881C7.68568 13.8667 7.79226 13.9108 7.90338 13.9108C8.01451 13.9108 8.12108 13.8667 8.19966 13.7881C8.27824 13.7095 8.32239 13.6029 8.32239 13.4918V12.3218C8.32239 12.2107 8.27824 12.1041 8.19966 12.0255C8.12108 11.947 8.01451 11.9028 7.90338 11.9028Z" fill="#5F38F9"/>
<path d="M11.9912 3.45687L12.8182 2.62988C12.8571 2.59094 12.888 2.54471 12.9091 2.49384C12.9302 2.44296 12.941 2.38844 12.941 2.33337C12.941 2.27831 12.9302 2.22379 12.9091 2.17291C12.888 2.12204 12.8571 2.07581 12.8182 2.03687C12.7793 1.99794 12.733 1.96705 12.6822 1.94598C12.6313 1.9249 12.5768 1.91406 12.5217 1.91406C12.4666 1.91406 12.4121 1.9249 12.3612 1.94598C12.3104 1.96705 12.2641 1.99794 12.2252 2.03687L11.3982 2.86388C11.3196 2.94251 11.2754 3.04917 11.2754 3.16038C11.2754 3.27159 11.3196 3.37823 11.3982 3.45687C11.4768 3.53551 11.5835 3.57969 11.6947 3.57969C11.8059 3.57969 11.9125 3.53551 11.9912 3.45687Z" fill="#5F38F9"/>
<path d="M3.80919 10.4539L2.98219 11.2809C2.90355 11.3595 2.85937 11.4662 2.85938 11.5774C2.85938 11.6886 2.90355 11.7952 2.98219 11.8739C3.06082 11.9525 3.16748 11.9967 3.27869 11.9967C3.3899 11.9967 3.49655 11.9525 3.57519 11.8739L4.40218 11.0469C4.48082 10.9682 4.525 10.8616 4.525 10.7504C4.525 10.6392 4.48082 10.5325 4.40218 10.4539C4.32355 10.3753 4.2169 10.3311 4.10569 10.3311C3.99448 10.3311 3.88783 10.3753 3.80919 10.4539Z" fill="#5F38F9"/>
<path d="M14.4366 6.53711H13.2667C13.1555 6.53711 13.0489 6.58126 12.9704 6.65984C12.8918 6.73841 12.8477 6.84497 12.8477 6.9561C12.8477 7.06723 12.8918 7.1738 12.9704 7.25238C13.0489 7.33096 13.1555 7.37511 13.2667 7.37511H14.4366C14.5478 7.37511 14.6544 7.33096 14.7329 7.25238C14.8115 7.1738 14.8557 7.06723 14.8557 6.9561C14.8557 6.84497 14.8115 6.73841 14.7329 6.65984C14.6544 6.58126 14.5478 6.53711 14.4366 6.53711Z" fill="#5F38F9"/>
<path d="M2.53431 6.53711H1.36431C1.25319 6.53711 1.14661 6.58126 1.06803 6.65984C0.989457 6.73841 0.945313 6.84497 0.945312 6.9561C0.945312 7.06723 0.989457 7.1738 1.06803 7.25238C1.14661 7.33096 1.25319 7.37511 1.36431 7.37511H2.53431C2.64544 7.37511 2.75201 7.33096 2.83059 7.25238C2.90917 7.1738 2.95331 7.06723 2.95331 6.9561C2.95331 6.84497 2.90917 6.73841 2.83059 6.65984C2.75201 6.58126 2.64544 6.53711 2.53431 6.53711Z" fill="#5F38F9"/>
<path d="M11.9912 10.4539C11.9125 10.3753 11.8059 10.3311 11.6947 10.3311C11.5835 10.3311 11.4768 10.3753 11.3982 10.4539C11.3196 10.5325 11.2754 10.6392 11.2754 10.7504C11.2754 10.8616 11.3196 10.9682 11.3982 11.0469L12.2252 11.8739C12.3038 11.9525 12.4105 11.9967 12.5217 11.9967C12.6329 11.9967 12.7396 11.9525 12.8182 11.8739C12.8968 11.7952 12.941 11.6886 12.941 11.5774C12.941 11.4662 12.8968 11.3595 12.8182 11.2809L11.9912 10.4539Z" fill="#5F38F9"/>
<path d="M3.80919 3.45687C3.88783 3.53551 3.99448 3.57969 4.10569 3.57969C4.2169 3.57969 4.32355 3.53551 4.40218 3.45687C4.48082 3.37823 4.525 3.27159 4.525 3.16038C4.525 3.04917 4.48082 2.94251 4.40218 2.86388L3.57519 2.03687C3.49655 1.95824 3.3899 1.91406 3.27869 1.91406C3.16748 1.91406 3.06082 1.95824 2.98219 2.03687C2.90355 2.11551 2.85938 2.22216 2.85938 2.33337C2.85937 2.44458 2.90355 2.55124 2.98219 2.62988L3.80919 3.45687Z" fill="#5F38F9"/>
</svg>
