<svg width="14" height="11" viewBox="0 0 14 11" fill="none" xmlns="http://www.w3.org/2000/svg">
<path d="M11.3004 5.98096H10.3594C10.4576 6.25044 10.5077 6.53512 10.5074 6.82196V10.377C10.5075 10.4965 10.4872 10.6152 10.4474 10.7279H12.0024C12.2818 10.7277 12.5498 10.6166 12.7474 10.4189C12.945 10.2213 13.0561 9.95341 13.0564 9.67395V7.73596C13.0556 7.27058 12.8703 6.8245 12.5411 6.49551C12.212 6.16653 11.7658 5.98149 11.3004 5.98096Z" fill="#5F38F9"/>
<path d="M3.44058 6.82193C3.44024 6.53509 3.49033 6.25045 3.58858 5.98096H2.64858C2.18302 5.98149 1.73668 6.16665 1.40748 6.49585C1.07828 6.82505 0.893107 7.27138 0.892578 7.73694L0.892578 9.67496C0.892843 9.95441 1.00397 10.2223 1.20158 10.42C1.39919 10.6176 1.66712 10.7287 1.94658 10.7289H3.50158C3.4617 10.6162 3.44141 10.4975 3.44158 10.3779L3.44058 6.82193Z" fill="#5F38F9"/>
<path d="M8.04958 5.06592H5.89857C5.43302 5.06645 4.98669 5.25163 4.65749 5.58083C4.32829 5.91003 4.14311 6.35636 4.14258 6.82191V10.3769C4.14258 10.47 4.17955 10.5593 4.24538 10.6251C4.3112 10.6909 4.40049 10.7279 4.49358 10.7279H9.45358C9.54667 10.7279 9.63594 10.6909 9.70177 10.6251C9.76759 10.5593 9.80458 10.47 9.80458 10.3769V6.82191C9.80405 6.35653 9.61901 5.91035 9.29002 5.58118C8.96104 5.25201 8.51496 5.06671 8.04958 5.06592Z" fill="#5F38F9"/>
<path d="M6.97523 0.410156C6.5578 0.410354 6.1498 0.534306 5.8028 0.766342C5.4558 0.998378 5.18539 1.32808 5.02573 1.71377C4.86608 2.09947 4.82436 2.52383 4.90585 2.93324C4.98733 3.34264 5.18836 3.71869 5.48353 4.01386C5.7787 4.30903 6.15476 4.51006 6.56416 4.59155C6.97356 4.67303 7.39791 4.63131 7.78361 4.47166C8.1693 4.312 8.49901 4.04159 8.73104 3.69459C8.96308 3.34759 9.08703 2.93959 9.08723 2.52216C9.0867 1.96218 8.86402 1.42529 8.46806 1.02933C8.07209 0.633369 7.5352 0.410686 6.97523 0.410156Z" fill="#5F38F9"/>
<path d="M3.26645 2.37793C2.95444 2.37813 2.64949 2.47082 2.39014 2.64429C2.13079 2.81776 1.92869 3.06422 1.80938 3.35252C1.69007 3.64082 1.6589 3.95801 1.71982 4.26402C1.78074 4.57003 1.93101 4.85111 2.15164 5.07174C2.37227 5.29237 2.65335 5.44264 2.95936 5.50356C3.26536 5.56447 3.58257 5.53331 3.87087 5.414C4.15917 5.29469 4.40563 5.09258 4.5791 4.83324C4.75256 4.57389 4.84526 4.26894 4.84546 3.95692C4.84493 3.53831 4.6784 3.13699 4.38239 2.84099C4.08639 2.54498 3.68507 2.37846 3.26645 2.37793Z" fill="#5F38F9"/>
<path d="M10.6825 2.37793C10.3702 2.37793 10.0649 2.47053 9.80527 2.64404C9.5456 2.81754 9.34324 3.06414 9.22373 3.35267C9.10421 3.64119 9.07293 3.95868 9.13385 4.26498C9.19478 4.57127 9.34518 4.85262 9.56601 5.07345C9.78684 5.29428 10.0682 5.44466 10.3745 5.50558C10.6808 5.56651 10.9983 5.53524 11.2868 5.41573C11.5753 5.29622 11.8219 5.09384 11.9954 4.83418C12.1689 4.57451 12.2615 4.26922 12.2615 3.95692C12.261 3.53831 12.0945 3.13699 11.7985 2.84099C11.5025 2.54498 11.1011 2.37846 10.6825 2.37793Z" fill="#5F38F9"/>
</svg>
