<svg width="16" height="16" viewBox="0 0 16 16" fill="none" xmlns="http://www.w3.org/2000/svg">
<path d="M6.66659 13.3347H9.33327C9.33327 14.0013 8.85543 14.668 7.99993 14.668C7.14443 14.668 6.66659 14.0013 6.66659 13.3347ZM3.01327 10.655C3.10167 10.6549 3.18642 10.6198 3.24896 10.5573L10.7157 3.09054C10.7491 3.05719 10.775 3.01715 10.7917 2.97307C10.8084 2.92898 10.8156 2.88185 10.8128 2.83479C10.8099 2.78773 10.7971 2.7418 10.7753 2.70003C10.7534 2.65827 10.7229 2.62162 10.6858 2.59251C9.92062 1.98984 8.97394 1.66398 7.99993 1.66801C5.61062 1.66801 3.66659 3.60879 3.66659 5.99485V7.74797C3.66753 8.29151 3.52024 8.82501 3.24056 9.29107L2.72715 10.1511C2.69696 10.2017 2.68072 10.2593 2.68009 10.3182C2.67945 10.3771 2.69443 10.4351 2.72351 10.4864C2.75259 10.5376 2.79473 10.5802 2.84563 10.6098C2.89653 10.6394 2.95438 10.655 3.01327 10.655ZM13.8046 2.19666C13.7427 2.13475 13.6692 2.08563 13.5884 2.05212C13.5075 2.01861 13.4208 2.00136 13.3333 2.00136C13.2457 2.00136 13.159 2.01861 13.0781 2.05212C12.9973 2.08563 12.9238 2.13475 12.8619 2.19666L2.19524 12.8633C2.07023 12.9883 2 13.1579 2 13.3347C2 13.5115 2.07023 13.681 2.19524 13.806C2.32026 13.931 2.48981 14.0013 2.6666 14.0013C2.8434 14.0013 3.01295 13.931 3.13796 13.806L4.60931 12.3347H12.4667C12.679 12.3346 12.8875 12.2781 13.0708 12.171C13.2541 12.0639 13.4057 11.91 13.5101 11.7252C13.6144 11.5403 13.6678 11.331 13.6648 11.1187C13.6617 10.9065 13.6024 10.6988 13.4928 10.517L12.7587 9.28976C12.4795 8.82411 12.3324 8.29118 12.3333 7.74822V5.9951C12.3321 5.58623 12.2725 5.17962 12.1562 4.78763L13.8045 3.13938C13.8664 3.0775 13.9155 3.00402 13.9491 2.92315C13.9826 2.84228 13.9998 2.75559 13.9999 2.66805C13.9999 2.5805 13.9826 2.49381 13.9491 2.41293C13.9156 2.33205 13.8665 2.25856 13.8046 2.19666Z" fill="#6D7580"/>
</svg>
