<svg width="14" height="14" viewBox="0 0 14 14" fill="none" xmlns="http://www.w3.org/2000/svg">
<path d="M10.0806 7.58398C9.47443 7.58398 8.88184 7.76374 8.37781 8.10052C7.87377 8.43731 7.48091 8.91602 7.24893 9.47607C7.01695 10.0361 6.95626 10.6524 7.07452 11.2469C7.19279 11.8415 7.48468 12.3876 7.91333 12.8163C8.34198 13.2449 8.88811 13.5368 9.48266 13.6551C10.0772 13.7734 10.6935 13.7127 11.2535 13.4807C11.8136 13.2487 12.2923 12.8558 12.6291 12.3518C12.9659 11.8478 13.1456 11.2552 13.1456 10.649C13.1456 9.8361 12.8227 9.05649 12.2479 8.48169C11.6731 7.90689 10.8935 7.58398 10.0806 7.58398ZM11.2296 11.032H10.0806C9.97905 11.032 9.88164 10.9916 9.80981 10.9198C9.73799 10.848 9.69763 10.7506 9.69763 10.649V9.49997C9.69763 9.39839 9.73799 9.30098 9.80981 9.22916C9.88164 9.15733 9.97905 9.11697 10.0806 9.11697C10.1822 9.11697 10.2796 9.15733 10.3514 9.22916C10.4233 9.30098 10.4636 9.39839 10.4636 9.49997V10.266H11.2296C11.3312 10.266 11.4286 10.3063 11.5005 10.3782C11.5723 10.45 11.6126 10.5474 11.6126 10.649C11.6126 10.7506 11.5723 10.848 11.5005 10.9198C11.4286 10.9916 11.3312 11.032 11.2296 11.032Z" fill="#5F38F9"/>
<path d="M6.05136 1.23717C5.95316 1.05777 5.80851 0.908091 5.63257 0.80382C5.45663 0.69955 5.25588 0.644531 5.05136 0.644531C4.84684 0.644531 4.64609 0.69955 4.47015 0.80382C4.29421 0.908091 4.14956 1.05777 4.05136 1.23717L0.218359 8.12517C0.120065 8.29471 0.0683177 8.48721 0.0683594 8.68317C0.0688882 8.98774 0.190113 9.27969 0.405478 9.49506C0.620843 9.71042 0.912788 9.83164 1.21736 9.83217H6.27536C6.4243 9.11246 6.77676 8.45065 7.29084 7.9254C7.80493 7.40015 8.45901 7.03355 9.17536 6.86917L6.05136 1.23717ZM5.05136 7.53717C4.97561 7.53717 4.90156 7.51471 4.83858 7.47263C4.77559 7.43054 4.7265 7.37073 4.69751 7.30074C4.66853 7.23076 4.66094 7.15375 4.67572 7.07945C4.6905 7.00516 4.72697 6.93692 4.78054 6.88335C4.8341 6.82979 4.90235 6.79331 4.97664 6.77853C5.05093 6.76376 5.12794 6.77134 5.19793 6.80033C5.26791 6.82932 5.32773 6.87841 5.36981 6.94139C5.4119 7.00437 5.43436 7.07842 5.43436 7.15417C5.43436 7.20464 5.42439 7.25461 5.40501 7.30121C5.38564 7.3478 5.35725 7.39011 5.32148 7.42571C5.2857 7.4613 5.24324 7.48947 5.19654 7.5086C5.14984 7.52773 5.09982 7.53744 5.04936 7.53717H5.05136ZM5.43436 5.62117C5.43436 5.72275 5.39401 5.82017 5.32218 5.892C5.25035 5.96382 5.15294 6.00417 5.05136 6.00417C4.94978 6.00417 4.85236 5.96382 4.78054 5.892C4.70871 5.82017 4.66836 5.72275 4.66836 5.62117V4.08517C4.66836 3.9836 4.70871 3.88618 4.78054 3.81435C4.85236 3.74253 4.94978 3.70217 5.05136 3.70217C5.15294 3.70217 5.25035 3.74253 5.32218 3.81435C5.39401 3.88618 5.43436 3.9836 5.43436 4.08517V5.62117Z" fill="#5F38F9"/>
</svg>
