<svg width="17" height="16" viewBox="0 0 17 16" fill="none" xmlns="http://www.w3.org/2000/svg">
<path d="M11.5466 0.001C11.6528 0.0604172 11.7533 0.129724 11.8466 0.208C13.2779 1.634 14.7076 3.06167 16.1356 4.491C16.4266 4.783 16.4186 5.014 16.0986 5.272C15.894 5.44808 15.643 5.5613 15.3756 5.59803C15.1083 5.63475 14.836 5.59342 14.5916 5.479C14.5126 5.447 14.4686 5.444 14.4076 5.515C13.1136 7.02567 11.8192 8.535 10.5246 10.043C10.5101 10.0615 10.4967 10.0809 10.4846 10.101C10.7128 10.3587 10.8684 10.6724 10.9356 11.01C11.002 11.3284 10.9864 11.6584 10.8901 11.9691C10.7939 12.2798 10.6203 12.5609 10.3856 12.786C10.344 12.8297 10.2936 12.864 10.2376 12.8865C10.1816 12.909 10.1214 12.9192 10.0612 12.9163C10.0009 12.9135 9.94201 12.8977 9.88841 12.87C9.83481 12.8423 9.78779 12.8035 9.75056 12.756C8.9639 11.972 8.17923 11.1873 7.39656 10.402C7.35554 10.3554 7.31747 10.3063 7.28256 10.255C7.21556 10.318 7.17056 10.355 7.12756 10.402C5.82056 11.694 4.56056 13.035 3.17056 14.242C2.53056 14.799 1.87056 15.33 1.21256 15.868C1.14501 15.9391 1.05468 15.9842 0.957289 15.9955C0.859899 16.0068 0.761621 15.9837 0.679562 15.93C0.607483 15.8824 0.55275 15.8127 0.523549 15.7314C0.494348 15.6502 0.492248 15.5616 0.517562 15.479C0.5505 15.3918 0.598197 15.311 0.658562 15.24C1.80815 13.7723 3.05141 12.3804 4.38056 11.073C4.95756 10.509 5.51756 9.936 6.09456 9.362C6.13804 9.32532 6.18417 9.2919 6.23256 9.262L6.24256 9.198C6.1908 9.17215 6.14187 9.14098 6.09656 9.105L3.61956 6.628C3.56009 6.58656 3.51175 6.53109 3.47882 6.46651C3.44589 6.40194 3.42939 6.33024 3.43077 6.25776C3.43215 6.18528 3.45138 6.11427 3.48675 6.05099C3.52213 5.98772 3.57255 5.93414 3.63356 5.895C3.97302 5.58086 4.41346 5.39818 4.87561 5.37985C5.33776 5.36152 5.79128 5.50873 6.15456 5.795L6.25456 5.872C7.8059 4.53867 9.35423 3.21 10.8996 1.886C10.8416 1.71177 10.7945 1.53409 10.7586 1.354C10.7255 1.13035 10.747 0.902018 10.8214 0.688514C10.8957 0.47501 11.0207 0.28269 11.1856 0.128C11.2495 0.0775923 11.3189 0.0346473 11.3926 0L11.5466 0.001Z" fill="#2F70F2"/>
</svg>
