<svg width="16" height="16" viewBox="0 0 16 16" fill="none" xmlns="http://www.w3.org/2000/svg">
<path d="M11.0466 0.001C11.1528 0.0604172 11.2533 0.129724 11.3466 0.208C12.7779 1.634 14.2076 3.06167 15.6356 4.491C15.9266 4.783 15.9186 5.014 15.5986 5.272C15.394 5.44808 15.143 5.5613 14.8756 5.59803C14.6083 5.63475 14.336 5.59342 14.0916 5.479C14.0126 5.447 13.9686 5.444 13.9076 5.515C12.6136 7.02567 11.3192 8.535 10.0246 10.043C10.0101 10.0615 9.99673 10.0809 9.98456 10.101C10.2128 10.3587 10.3684 10.6724 10.4356 11.01C10.502 11.3284 10.4864 11.6584 10.3901 11.9691C10.2939 12.2798 10.1203 12.5609 9.88556 12.786C9.84402 12.8297 9.79355 12.864 9.73758 12.8865C9.68161 12.909 9.62145 12.9192 9.5612 12.9163C9.50095 12.9135 9.44201 12.8977 9.38841 12.87C9.33481 12.8423 9.28779 12.8035 9.25056 12.756C8.4639 11.972 7.67923 11.1873 6.89656 10.402C6.85554 10.3554 6.81747 10.3063 6.78256 10.255C6.71556 10.318 6.67056 10.355 6.62756 10.402C5.32056 11.694 4.06056 13.035 2.67056 14.242C2.03056 14.799 1.37056 15.33 0.712562 15.868C0.645011 15.9391 0.554678 15.9842 0.457289 15.9955C0.359899 16.0068 0.261621 15.9837 0.179562 15.93C0.107483 15.8824 0.0527505 15.8127 0.0235494 15.7314C-0.00565171 15.6502 -0.00775218 15.5616 0.0175621 15.479C0.0505005 15.3918 0.0981968 15.311 0.158562 15.24C1.30815 13.7723 2.55141 12.3804 3.88056 11.073C4.45756 10.509 5.01756 9.936 5.59456 9.362C5.63804 9.32532 5.68417 9.2919 5.73256 9.262L5.74256 9.198C5.6908 9.17215 5.64187 9.14098 5.59656 9.105L3.11956 6.628C3.06009 6.58656 3.01175 6.53109 2.97882 6.46651C2.94589 6.40194 2.92939 6.33024 2.93077 6.25776C2.93215 6.18528 2.95138 6.11427 2.98675 6.05099C3.02213 5.98772 3.07255 5.93414 3.13356 5.895C3.47302 5.58086 3.91346 5.39818 4.37561 5.37985C4.83776 5.36152 5.29128 5.50873 5.65456 5.795L5.75456 5.872C7.3059 4.53867 8.85423 3.21 10.3996 1.886C10.3416 1.71177 10.2945 1.53409 10.2586 1.354C10.2255 1.13035 10.247 0.902018 10.3214 0.688514C10.3957 0.47501 10.5207 0.28269 10.6856 0.128C10.7495 0.0775923 10.8189 0.0346473 10.8926 0L11.0466 0.001Z" fill="#6D7580"/>
</svg>
