<svg width="8" height="16" viewBox="0 0 8 16" fill="none" xmlns="http://www.w3.org/2000/svg">
<path d="M7.90023 8.42812C7.89023 8.40112 6.89122 5.66712 6.45122 4.38612C6.16722 3.56012 5.69123 3.14111 5.03623 3.14111H2.91422C2.25922 3.14111 1.78322 3.56012 1.49922 4.38612C1.05922 5.66612 0.0602197 8.40012 0.0502197 8.42812C0.000541465 8.57903 0.0114953 8.74334 0.0807678 8.88631C0.15004 9.02929 0.2722 9.13973 0.42142 9.19427C0.57064 9.24882 0.735224 9.2432 0.880374 9.1786C1.02552 9.114 1.13987 8.99549 1.19922 8.84811C1.20722 8.82511 1.89223 6.94811 2.38123 5.57111C2.42484 5.71294 2.51281 5.83702 2.63222 5.92511V6.82511L1.57922 9.47911C1.56575 9.51318 1.55975 9.54973 1.56162 9.58632C1.56349 9.6229 1.57318 9.65866 1.59005 9.69118C1.60693 9.72369 1.63058 9.75221 1.65942 9.7748C1.68826 9.79738 1.72161 9.81352 1.75722 9.82211L2.34822 9.96811V14.8791C2.34822 15.0739 2.42561 15.2607 2.56336 15.3985C2.7011 15.5362 2.88792 15.6136 3.08272 15.6136C3.27752 15.6136 3.46434 15.5362 3.60208 15.3985C3.73983 15.2607 3.81722 15.0739 3.81722 14.8791V10.3151C3.92268 10.3245 4.02876 10.3245 4.13422 10.3151V14.8791C4.13422 15.0739 4.21161 15.2607 4.34935 15.3985C4.4871 15.5362 4.67391 15.6136 4.86872 15.6136C5.06352 15.6136 5.25035 15.5362 5.38809 15.3985C5.52584 15.2607 5.60323 15.0739 5.60323 14.8791V9.96711L6.19422 9.82211C6.22983 9.81352 6.26319 9.79738 6.29203 9.7748C6.32086 9.75221 6.34452 9.72369 6.36139 9.69118C6.37827 9.65866 6.38797 9.6229 6.38983 9.58632C6.3917 9.54973 6.3857 9.51318 6.37223 9.47911L5.32022 6.82511V5.92511C5.43963 5.83702 5.5276 5.71294 5.57122 5.57111C6.06022 6.95111 6.74522 8.82611 6.75322 8.84811C6.80892 9.00061 6.92292 9.12474 7.07013 9.19319C7.21735 9.26164 7.38573 9.26881 7.53823 9.21311C7.69073 9.15742 7.81485 9.04343 7.8833 8.89621C7.95175 8.74899 7.95891 8.58062 7.90322 8.42812H7.90023Z" fill="#5F38F9"/>
<path d="M3.97372 2.695C4.71212 2.695 5.31072 2.0964 5.31072 1.358C5.31072 0.619591 4.71212 0.0209961 3.97372 0.0209961C3.23531 0.0209961 2.63672 0.619591 2.63672 1.358C2.63672 2.0964 3.23531 2.695 3.97372 2.695Z" fill="#5F38F9"/>
</svg>
