<svg width="16" height="16" viewBox="0 0 14 16" fill="none" xmlns="http://www.w3.org/2000/svg">
<path d="M6.99947 0.667969C5.67339 0.667969 4.40162 1.19475 3.46394 2.13243C2.52626 3.07012 1.99947 4.34189 1.99947 5.66797V9.56797L0.892805 11.2346C0.760159 11.4392 0.684921 11.6756 0.674963 11.9191C0.665006 12.1627 0.720696 12.4045 0.836204 12.6191C0.951713 12.8338 1.1228 13.0134 1.33155 13.1393C1.5403 13.2652 1.77905 13.3327 2.02281 13.3346H11.9761C12.2215 13.3338 12.462 13.2667 12.6723 13.1403C12.8825 13.0139 13.0547 12.833 13.1705 12.6167C13.2864 12.4004 13.3415 12.1569 13.3302 11.9118C13.3188 11.6667 13.2414 11.4293 13.1061 11.2246L11.9995 9.56797V5.66797C11.9995 4.34189 11.4727 3.07012 10.535 2.13243C9.59732 1.19475 8.32555 0.667969 6.99947 0.667969Z" fill="#6D7580"/>
<path d="M6.99857 15.3333C7.41177 15.3329 7.81468 15.2044 8.15192 14.9657C8.48916 14.7269 8.74417 14.3896 8.8819 14H5.11523C5.25297 14.3896 5.50798 14.7269 5.84522 14.9657C6.18246 15.2044 6.58537 15.3329 6.99857 15.3333Z" fill="#6D7580"/>
</svg>
