<svg width="16" height="16" viewBox="0 0 16 16" fill="none" xmlns="http://www.w3.org/2000/svg">
<g clip-path="url(#clip0_87_7418)">
<path fill-rule="evenodd" clip-rule="evenodd" d="M11.3466 0.208C11.2533 0.129724 11.1528 0.0604172 11.0466 0.001L10.8926 0C10.8189 0.0346473 10.7495 0.0775923 10.6856 0.128C10.5207 0.28269 10.3957 0.47501 10.3214 0.688514C10.247 0.902018 10.2255 1.13035 10.2586 1.354C10.2945 1.53409 10.3416 1.71177 10.3996 1.886C9.0015 3.08382 7.60098 4.28546 6.19801 5.49092L10.3597 9.65261C11.5426 8.27452 12.7252 6.89532 13.9076 5.515C13.9686 5.444 14.0126 5.447 14.0916 5.479C14.336 5.59342 14.6083 5.63475 14.8756 5.59803C15.143 5.5613 15.394 5.44808 15.5986 5.272C15.9186 5.014 15.9266 4.783 15.6356 4.491C14.2076 3.06167 12.7779 1.634 11.3466 0.208ZM10.4618 11.1689L4.68517 5.3923C4.58304 5.37998 4.47954 5.37573 4.37561 5.37985C3.91346 5.39818 3.47302 5.58086 3.13356 5.895C3.07255 5.93414 3.02213 5.98772 2.98675 6.05099C2.95138 6.11427 2.93215 6.18528 2.93077 6.25776C2.92939 6.33024 2.94589 6.40194 2.97882 6.46651C3.01175 6.53109 3.06009 6.58656 3.11956 6.628L5.59656 9.105C5.64187 9.14098 5.6908 9.17215 5.74256 9.198L5.73256 9.262C5.68417 9.2919 5.63804 9.32532 5.59456 9.362C5.37446 9.58096 5.15683 9.79977 4.93979 10.018C4.58785 10.3718 4.23746 10.7241 3.88056 11.073C2.55141 12.3804 1.30815 13.7723 0.158562 15.24C0.0981968 15.311 0.0505005 15.3918 0.0175621 15.479C-0.00775218 15.5616 -0.00565171 15.6502 0.0235494 15.7314C0.0527505 15.8127 0.107483 15.8824 0.179562 15.93C0.261621 15.9837 0.359899 16.0068 0.457289 15.9955C0.554678 15.9842 0.645011 15.9391 0.712562 15.868C0.824058 15.7768 0.935612 15.6859 1.04712 15.595C1.59366 15.1493 2.13901 14.7046 2.67056 14.242C3.6899 13.3569 4.63933 12.3997 5.58865 11.4426C5.93385 11.0945 6.27903 10.7465 6.62756 10.402C6.65613 10.3708 6.68558 10.344 6.72178 10.311C6.74007 10.2944 6.76008 10.2761 6.78256 10.255C6.81747 10.3063 6.85554 10.3554 6.89656 10.402C7.67923 11.1873 8.4639 11.972 9.25056 12.756C9.28779 12.8035 9.33481 12.8423 9.38841 12.87C9.44201 12.8977 9.50095 12.9135 9.5612 12.9163C9.62145 12.9192 9.68161 12.909 9.73758 12.8865C9.79355 12.864 9.84402 12.8297 9.88556 12.786C10.1203 12.5609 10.2939 12.2798 10.3901 11.9691C10.4704 11.7099 10.4946 11.4371 10.4618 11.1689Z" fill="#6D7580"/>
<path d="M2 1L15 14" stroke="#6D7580" stroke-linecap="round"/>
</g>
<defs>
<clipPath id="clip0_87_7418">
<rect width="15.8465" height="15.9983" fill="white"/>
</clipPath>
</defs>
</svg>
