<svg width="12" height="10" viewBox="0 0 12 10" fill="none" xmlns="http://www.w3.org/2000/svg">
<path d="M9.94126 4.48327L8.46126 4.85227C8.4298 4.86018 8.39673 4.85882 8.36603 4.84835C8.33533 4.83788 8.30832 4.81875 8.28826 4.79327L6.66726 2.76627C6.57225 2.65606 6.4546 2.56764 6.32233 2.50703C6.19005 2.44641 6.04626 2.41504 5.90076 2.41504C5.75526 2.41504 5.61146 2.44641 5.47919 2.50703C5.34691 2.56764 5.22926 2.65606 5.13426 2.76627L3.51226 4.79827C3.49153 4.82318 3.46426 4.84181 3.43352 4.85205C3.40278 4.8623 3.36978 4.86376 3.33826 4.85627L1.86126 4.48327C1.74519 4.45444 1.62365 4.4561 1.50842 4.48808C1.39319 4.52006 1.28817 4.58127 1.20356 4.66579C1.11895 4.7503 1.05761 4.85524 1.02549 4.97043C0.993378 5.08563 0.991575 5.20717 1.02026 5.32327L1.94626 9.02327C1.99884 9.2359 2.12121 9.42476 2.29379 9.55964C2.46638 9.69452 2.67922 9.76763 2.89826 9.76727H8.90526C9.1243 9.76763 9.33713 9.69452 9.50972 9.55964C9.68231 9.42476 9.80468 9.2359 9.85726 9.02327L10.7833 5.32327C10.8122 5.20713 10.8107 5.08547 10.7787 4.97013C10.7466 4.85479 10.6853 4.74971 10.6006 4.66512C10.5159 4.58053 10.4108 4.51932 10.2954 4.48745C10.18 4.45558 10.0574 4.45414 9.94126 4.48327Z" fill="#5F38F9"/>
<path d="M0.896937 4.05511C1.34484 4.05511 1.70794 3.69201 1.70794 3.24411C1.70794 2.7962 1.34484 2.43311 0.896937 2.43311C0.449035 2.43311 0.0859375 2.7962 0.0859375 3.24411C0.0859375 3.69201 0.449035 4.05511 0.896937 4.05511Z" fill="#5F38F9"/>
<path d="M10.9047 4.05511C11.3527 4.05511 11.7157 3.69201 11.7157 3.24411C11.7157 2.7962 11.3527 2.43311 10.9047 2.43311C10.4568 2.43311 10.0938 2.7962 10.0938 3.24411C10.0938 3.69201 10.4568 4.05511 10.9047 4.05511Z" fill="#5F38F9"/>
<path d="M5.90084 1.75628C6.34875 1.75628 6.71184 1.39318 6.71184 0.945277C6.71184 0.497374 6.34875 0.134277 5.90084 0.134277C5.45294 0.134277 5.08984 0.497374 5.08984 0.945277C5.08984 1.39318 5.45294 1.75628 5.90084 1.75628Z" fill="#5F38F9"/>
</svg>
