<svg xmlns="http://www.w3.org/2000/svg" xmlns:xlink="http://www.w3.org/1999/xlink" width="205.034" height="194.744" viewBox="0 0 205.034 194.744">
    <defs>
        <linearGradient id="3559ajuova" x1=".091" y1=".427" x2="1.269" y2=".905" gradientUnits="objectBoundingBox">
            <stop offset="0" stop-color="#ff9666"/>
            <stop offset="1" stop-color="#c42d40"/>
        </linearGradient>
        <linearGradient id="wrru4fwpcd" x1=".091" y1=".426" x2="1.269" y2=".904" xlink:href="#3559ajuova"/>
        <linearGradient id="0c6fea77yb" x1=".14" y1=".115" x2=".925" y2=".942" gradientUnits="objectBoundingBox">
            <stop offset="0" stop-color="#ffdd4f"/>
            <stop offset="1" stop-color="#ff8f5c"/>
        </linearGradient>
        <linearGradient id="v6v2a2t7fe" x1=".14" y1=".113" x2=".925" y2=".94" xlink:href="#0c6fea77yb"/>
        <linearGradient id="yzjkw9h35c" x1=".001" y1=".498" x2="1.005" y2=".498" gradientUnits="objectBoundingBox">
            <stop offset="0" stop-color="#5d64c2"/>
            <stop offset="1" stop-color="#251978"/>
        </linearGradient>
        <linearGradient id="c6hrfnv9pf" x1="-.005" y1=".5" x2="1" y2=".5" xlink:href="#yzjkw9h35c"/>
    </defs>
    <g data-name="access_denied_12 [Converted]">
        <path data-name="Path 5422" d="M584.982 133.562a11.942 11.942 0 0 0-13.745 3.076 6.959 6.959 0 0 0-1.073 1.609l-9.4 17.5c-1.44 2.653-5.9 1.75-5.9-1.185V80.389a9.453 9.453 0 0 0-3.246-7.028 11.723 11.723 0 0 0-7.846-2.907c-6.153 0-11.12 4.459-11.12 9.935v53a3.238 3.238 0 0 1-3.415 3.048 3.238 3.238 0 0 1-3.415-3.048V68.535c0-5.475-4.967-9.935-11.12-9.935s-11.12 4.459-11.12 9.935v64.858a3.437 3.437 0 0 1-6.83 0V75.986c0-5.475-4.8-10.161-10.894-10.245-6.237-.113-11.318 4.375-11.318 9.935v57.718a3.437 3.437 0 0 1-6.83 0V89.561c0-5.475-4.8-10.161-10.894-10.245-6.236-.116-11.316 4.375-11.316 9.935V169.011c0 30.961 28.365 57.068 63.024 56.984 26.728-.056 49.533-15.015 58.564-36.07L590.2 146.8a9.155 9.155 0 0 0 1.1-4.29 9.949 9.949 0 0 0-6.318-8.948z" transform="translate(-399.195 -58.6)" style="fill:#e6e6f5"/>
        <g data-name="Group 8893">
            <g data-name="Group 8891">
                <g data-name="Group 8889">
                    <path data-name="Path 5423" d="M341.014 361.174a54.364 54.364 0 0 1-3.387-.875.2.2 0 0 1-.141-.254c.028-.113.113-.2.226-.169 1.129.339 2.258.621 3.359.875a.2.2 0 0 1 .141.254q-.042.169-.169.169zm7.112 1.016a51.284 51.284 0 0 1-3.5-.282.181.181 0 0 1-.169-.226.193.193 0 0 1 .2-.2c1.157.141 2.343.226 3.472.282a.218.218 0 0 1 .2.226c0 .113-.056.2-.141.2zm8.241.367a47.557 47.557 0 0 1-3.5.056.218.218 0 0 1-.2-.226c0-.113.056-.2.169-.2 1.185.028 2.342 0 3.471-.056a.239.239 0 0 1 .226.2c0 .113-.028.2-.113.226zm7.451-.734q-1.693.254-3.471.423a.239.239 0 0 1-.226-.2.18.18 0 0 1 .141-.226 33.742 33.742 0 0 0 3.443-.423c.113-.028.2.056.226.169a.179.179 0 0 1-.113.226zm7.056-1.609a38.53 38.53 0 0 1-3.359.988.227.227 0 0 1-.254-.141c-.028-.113 0-.226.113-.254a41.18 41.18 0 0 0 3.33-.988.215.215 0 0 1 .254.141.184.184 0 0 1-.056.254zm-36.574-1.072c-1.1-.423-2.2-.875-3.274-1.355a.268.268 0 0 1-.113-.282.172.172 0 0 1 .254-.113c1.073.48 2.173.931 3.246 1.327a.25.25 0 0 1 .113.282.179.179 0 0 1-.169.141c-.032.028-.032.028-.057 0zm-6.463-2.907a45.858 45.858 0 0 1-3.1-1.778.271.271 0 0 1-.085-.282.172.172 0 0 1 .254-.085 37.287 37.287 0 0 0 3.1 1.75.219.219 0 0 1 .085.282.208.208 0 0 1-.169.141.1.1 0 0 1-.088-.028zm-6.125-3.754c-1.016-.706-1.976-1.468-2.907-2.23a.25.25 0 0 1-.056-.31.184.184 0 0 1 .254-.056c.9.762 1.891 1.5 2.879 2.2a.25.25 0 0 1 .057.31.191.191 0 0 1-.169.113.087.087 0 0 1-.061-.027zm-5.645-4.713c-.9-.9-1.75-1.835-2.54-2.766a.254.254 0 0 1 0-.31.158.158 0 0 1 .254 0 37.484 37.484 0 0 0 2.512 2.738.257.257 0 0 1 .028.31.155.155 0 0 1-.141.085.214.214 0 0 1-.115-.057zm-4.826-5.842a27.277 27.277 0 0 1-1.891-3.415.2.2 0 0 1 .085-.282.172.172 0 0 1 .254.085 23.324 23.324 0 0 0 1.863 3.359.257.257 0 0 1-.028.31.213.213 0 0 1-.113.056c-.06-.001-.116-.057-.173-.114zm-3.217-7.141a19.7 19.7 0 0 1-.621-4.008c0-.113.085-.226.169-.226a.193.193 0 0 1 .2.2 18.6 18.6 0 0 0 .593 3.895.268.268 0 0 1-.113.282h-.056c-.09.026-.147-.059-.175-.143zm-.226-7.818a.2.2 0 0 1-.141-.254 19.348 19.348 0 0 1 1.1-3.867c.056-.113.141-.169.254-.113a.219.219 0 0 1 .085.282 20.481 20.481 0 0 0-1.073 3.782q-.042.169-.169.169a.039.039 0 0 1-.054.001zm2.766-7.31a.25.25 0 0 1-.056-.31 10.584 10.584 0 0 1 .677-1.016 18.154 18.154 0 0 1 1.609-2.032.158.158 0 0 1 .254 0 .254.254 0 0 1 0 .31c-.564.649-1.1 1.3-1.581 1.976-.226.339-.452.677-.649 1.016a.155.155 0 0 1-.141.085c-.06.027-.088-.001-.116-.029zm4.883-5.588a.264.264 0 0 1 .056-.31 26.3 26.3 0 0 1 2.964-2.089.172.172 0 0 1 .254.085.2.2 0 0 1-.085.282 33.69 33.69 0 0 0-2.935 2.06c-.028.028-.056.028-.113.028a.1.1 0 0 1-.144-.056zm6.04-3.867a.255.255 0 0 1 .085-.282 60.454 60.454 0 0 1 3.218-1.5.185.185 0 0 1 .226.141.268.268 0 0 1-.113.282c-1.129.48-2.2.96-3.217 1.468-.028 0-.056.028-.085.028s-.089-.052-.117-.139zm6.491-2.766a.268.268 0 0 1 .113-.282c1.073-.367 2.173-.762 3.33-1.1a.175.175 0 0 1 .226.141.2.2 0 0 1-.141.254c-1.157.339-2.258.734-3.33 1.1h-.056c-.06.056-.145-.028-.145-.113zm6.661-2.06a.2.2 0 0 1 .141-.254q1.651-.423 3.387-.847c.113-.028.2.057.226.169a.227.227 0 0 1-.141.254q-1.736.423-3.387.847h-.028a.3.3 0 0 1-.201-.169zm6.774-1.609a.227.227 0 0 1 .141-.254c1.1-.226 2.258-.452 3.415-.677.113-.028.2.056.226.169a.227.227 0 0 1-.141.254c-1.157.226-2.314.452-3.415.677h-.028a.242.242 0 0 1-.201-.169zm6.83-1.27a.22.22 0 0 1 .169-.254c1.1-.169 2.258-.367 3.443-.536a.178.178 0 0 1 .2.2.247.247 0 0 1-.169.254c-1.157.169-2.314.339-3.415.536h-.028a.341.341 0 0 1-.203-.197zm6.887-1.044a.247.247 0 0 1 .169-.254c1.129-.141 2.286-.282 3.443-.423a.193.193 0 0 1 .2.2c0 .113-.056.226-.169.226-1.157.141-2.314.282-3.443.423h-.03c-.089.025-.174-.06-.174-.172zm6.858-.819c0-.113.056-.226.169-.226 1.129-.113 2.286-.254 3.443-.367a.193.193 0 0 1 .2.2c0 .113-.056.226-.169.226-1.157.113-2.314.226-3.443.367h-.028c-.06-.002-.147-.087-.175-.2zm6.915-.677c0-.113.056-.226.169-.226 1.129-.113 2.286-.2 3.443-.31a.193.193 0 0 1 .2.2c0 .113-.056.226-.169.226-1.157.085-2.314.2-3.443.31h-.028a.189.189 0 0 1-.175-.2zm6.887-.593c0-.113.085-.226.169-.226l3.443-.254a.193.193 0 0 1 .2.2c0 .113-.085.226-.169.226-1.157.085-2.314.169-3.443.254a.193.193 0 0 1-.204-.2zm6.915-.48c0-.113.085-.226.169-.226 1.157-.085 2.286-.141 3.443-.226a.193.193 0 0 1 .2.2c0 .113-.085.226-.169.226-1.157.056-2.314.141-3.443.226a.193.193 0 0 1-.205-.2zm6.887-.423c0-.113.085-.226.169-.226 1.157-.056 2.314-.141 3.443-.2a.193.193 0 0 1 .2.2c0 .113-.085.226-.169.226-1.157.056-2.314.113-3.443.2a.193.193 0 0 1-.204-.2zm6.915-.367c0-.113.085-.226.169-.226l3.443-.169a.193.193 0 0 1 .2.2c0 .113-.085.226-.169.226l-3.443.169a.193.193 0 0 1-.207-.2zm6.915-.339c0-.113.085-.226.169-.226l3.443-.169a.193.193 0 0 1 .2.2c0 .113-.085.226-.169.226l-3.443.169a.193.193 0 0 1-.205-.2zm6.915-.339c0-.113.085-.226.169-.226l3.443-.169a.193.193 0 0 1 .2.2c0 .113-.085.226-.169.226l-3.443.169c-.12.026-.205-.058-.205-.199zm6.887-.31c0-.113.085-.226.169-.226l3.443-.169c.113-.028.2.085.2.2s-.085.226-.169.226l-3.443.169a.238.238 0 0 1-.205-.2zm6.915-.339c0-.113.085-.226.169-.226l3.443-.169a.193.193 0 0 1 .2.2c0 .113-.085.226-.169.226l-3.443.169c-.121.026-.206-.087-.206-.2zm6.915-.367c0-.113.085-.226.169-.226 1.157-.056 2.314-.141 3.443-.2a.193.193 0 0 1 .2.2c0 .113-.085.226-.169.226-1.157.056-2.286.141-3.443.2-.121.026-.206-.087-.206-.2zm6.915-.4c0-.113.085-.226.169-.226 1.157-.085 2.314-.141 3.443-.226a.193.193 0 0 1 .2.2c0 .113-.085.226-.169.226-1.157.085-2.286.169-3.443.226a.193.193 0 0 1-.206-.195zm6.887-.48c0-.113.085-.226.169-.226 1.157-.085 2.314-.169 3.443-.282a.193.193 0 0 1 .2.2c0 .113-.056.226-.169.226-1.129.085-2.286.2-3.443.282a.238.238 0 0 1-.206-.194zm6.915-.593c0-.113.056-.226.169-.226 1.157-.113 2.314-.226 3.443-.339a.193.193 0 0 1 .2.2c0 .113-.056.226-.169.226-1.129.113-2.286.226-3.443.339h-.028a.189.189 0 0 1-.179-.194zm6.887-.706c0-.113.056-.226.169-.226 1.185-.141 2.343-.282 3.443-.423.113-.028.2.085.2.2s-.056.226-.169.226c-1.1.141-2.258.282-3.443.423h-.028a.189.189 0 0 1-.179-.194zm6.887-.875a.247.247 0 0 1 .169-.254c1.157-.169 2.314-.339 3.415-.536.113-.028.2.056.2.2a.247.247 0 0 1-.169.254c-1.1.169-2.258.367-3.443.536h-.028a.192.192 0 0 1-.151-.194zm6.83-1.1a.227.227 0 0 1 .141-.254c1.157-.226 2.314-.452 3.415-.677.113-.028.2.056.226.169a.227.227 0 0 1-.141.254c-1.1.226-2.258.452-3.415.677h-.028a.206.206 0 0 1-.205-.163zm6.83-1.439a.227.227 0 0 1 .141-.254 87.83 87.83 0 0 0 3.359-.9c.113-.028.2.028.226.169a.2.2 0 0 1-.141.254c-1.073.31-2.2.621-3.387.9h-.028a.182.182 0 0 1-.175-.164zm6.689-1.947a.268.268 0 0 1 .113-.282c1.157-.4 2.258-.819 3.274-1.242a.185.185 0 0 1 .226.141.268.268 0 0 1-.113.282 54.776 54.776 0 0 1-3.3 1.27h-.056a.446.446 0 0 1-.151-.164zm6.492-2.766a.219.219 0 0 1 .085-.282 27.658 27.658 0 0 0 3.02-1.863.172.172 0 0 1 .254.085.258.258 0 0 1-.056.31 28.218 28.218 0 0 1-3.048 1.891c-.028 0-.056.028-.085.028a.254.254 0 0 1-.178-.163zm5.814-4.177a.306.306 0 0 1 0-.31 13.157 13.157 0 0 0 2.145-2.964.151.151 0 0 1 .254-.056.25.25 0 0 1 .056.31 13.165 13.165 0 0 1-2.23 3.048.214.214 0 0 1-.113.056c-.035-.023-.091-.051-.12-.079zm3.556-6.661a.2.2 0 0 1-.141-.254 31.352 31.352 0 0 0 .593-3.923.193.193 0 0 1 .2-.2c.113 0 .169.113.169.226a32.7 32.7 0 0 1-.593 4.008c-.028.085-.085.169-.169.169-.038.007-.066.007-.066-.021zm.452-8.157a31.357 31.357 0 0 0-.593-3.923.2.2 0 0 1 .141-.254c.113-.028.2.028.226.169a28.041 28.041 0 0 1 .593 4.008c0 .113-.056.226-.169.226h-.028a.246.246 0 0 1-.178-.225zm-1.693-7.705a30.189 30.189 0 0 0-1.552-3.556.258.258 0 0 1 .056-.31.172.172 0 0 1 .254.085 36.9 36.9 0 0 1 1.581 3.613.255.255 0 0 1-.085.282c-.028 0-.056.028-.085.028a.179.179 0 0 1-.177-.136zm-3.472-6.887a38.389 38.389 0 0 0-2.2-3.076.306.306 0 0 1 0-.311.158.158 0 0 1 .254 0 46.34 46.34 0 0 1 2.23 3.1.257.257 0 0 1-.028.31.213.213 0 0 1-.113.057.257.257 0 0 1-.151-.074zm-4.6-5.927a55.349 55.349 0 0 0-2.6-2.625.253.253 0 0 1-.028-.31.159.159 0 0 1 .254-.028c.931.847 1.806 1.75 2.625 2.625a.221.221 0 0 1 0 .31c-.028.056-.085.056-.141.056a.07.07 0 0 1-.118-.022zm-5.363-5q-1.4-1.143-2.879-2.2a.25.25 0 0 1-.056-.31.172.172 0 0 1 .254-.085 80.367 80.367 0 0 1 2.907 2.2.25.25 0 0 1 .056.311.155.155 0 0 1-.141.085.221.221 0 0 1-.149.009zm-5.871-4.234a81.095 81.095 0 0 0-3.076-1.835.219.219 0 0 1-.085-.282.209.209 0 0 1 .254-.113 80.315 80.315 0 0 1 3.076 1.835.271.271 0 0 1 .085.282.155.155 0 0 1-.169.113.053.053 0 0 1-.094.01zm-6.209-3.5a123.088 123.088 0 0 0-3.189-1.5.268.268 0 0 1-.113-.282.153.153 0 0 1 .226-.113c1.073.48 2.173.988 3.217 1.524a.219.219 0 0 1 .085.282.179.179 0 0 1-.169.141c-.008-.013-.036-.013-.064-.041zm-6.435-2.851c-1.073-.423-2.173-.818-3.274-1.214a.233.233 0 0 1-.113-.282.185.185 0 0 1 .226-.141c1.1.4 2.23.79 3.3 1.214a.25.25 0 0 1 .113.282.179.179 0 0 1-.169.141zm-6.6-2.286c-1.1-.339-2.23-.649-3.359-.931a.2.2 0 0 1-.141-.254c.028-.113.113-.2.226-.169 1.129.282 2.258.621 3.359.931a.2.2 0 0 1 .141.254c-.028.085-.085.169-.169.169zm-6.745-1.75q-1.693-.381-3.387-.677a.2.2 0 0 1-.141-.254c.028-.113.113-.2.226-.169 1.129.2 2.286.452 3.415.677a.2.2 0 0 1 .141.254q-.042.169-.169.169zm-6.8-1.242c-1.129-.169-2.286-.31-3.415-.452-.113 0-.169-.113-.169-.226a.212.212 0 0 1 .2-.2c1.157.141 2.314.282 3.443.452a.227.227 0 0 1 .169.254.246.246 0 0 1-.226.169zm-6.858-.79a133.287 133.287 0 0 0-3.443-.226c-.113 0-.169-.113-.169-.226s.085-.226.2-.2c1.157.056 2.314.141 3.443.226.113 0 .169.113.169.226a.193.193 0 0 1-.2.2z" transform="translate(-300.072 -177.522)" style="fill:#325899"/>
                </g>
                <g data-name="Group 8890">
                    <path data-name="Path 5424" d="M753.219 224.352a.2.2 0 0 0 .2-.226c0-.113-.085-.226-.169-.226h-1.75a.2.2 0 0 0-.2.226.218.218 0 0 0 .2.226 17.661 17.661 0 0 1 1.722 0z" transform="translate(-618.687 -177.247)" style="fill:#325899"/>
                </g>
            </g>
            <g data-name="Group 8892">
                <path data-name="Path 5425" d="m746.329 218.363-5.729.423 1.722-3.387z" transform="translate(-611.006 -171.146)" style="fill:#244885"/>
                <path data-name="Path 5426" d="m723.251 223.448-7.451-2.54 9.229-.508z" transform="translate(-593.206 -174.734)" style="fill:#3a67b3"/>
                <path data-name="Path 5427" d="M715.8 206.266 727.259 200l-1.637 3.1z" transform="translate(-593.206 -160.092)" style="fill:#3a67b3"/>
                <path data-name="Path 5428" d="m715.8 214.089 9.257-.48 3.472 1.524-2.907-4.234z" transform="translate(-593.206 -167.916)" style="fill:#295399"/>
            </g>
        </g>
        <g data-name="Group 8894" transform="translate(49.24 54.444)">
            <path data-name="Path 5431" d="M591.617 251.5h-31.639a21.489 21.489 0 0 0-21.478 21.478v45.13h10.274v-43.86a12.509 12.509 0 0 1 12.5-12.5h29.07a12.509 12.509 0 0 1 12.5 12.5v43.832h10.273v-45.1a21.513 21.513 0 0 0-21.5-21.48z" transform="translate(-515.187 -251.5)" style="fill:#1f4380"/>
            <path data-name="Path 5432" d="M455.9 430.137v16.483a60.588 60.588 0 0 0 60.6 60.6 60.587 60.587 0 0 0 60.6-60.6v-16.483a17.839 17.839 0 0 0-17.845-17.837h-85.518a17.839 17.839 0 0 0-17.837 17.837z" transform="translate(-455.9 -366.916)" style="fill:#cbcef3"/>
            <circle data-name="Ellipse 1955" cx="25.288" cy="25.288" r="25.288" transform="translate(37.34 64.915)" style="fill:#fff"/>
            <circle data-name="Ellipse 1956" cx="22.015" cy="22.015" r="22.015" transform="rotate(-22.5 213.733 -45.995)" style="fill:#b3b8ee"/>
            <path data-name="Path 5433" d="M666.539 526.283a7.326 7.326 0 1 0-11.12 6.294l-1.327 16.765a1.178 1.178 0 0 0 1.185 1.27h7.874a1.2 1.2 0 0 0 1.185-1.27l-1.327-16.765a7.413 7.413 0 0 0 3.53-6.294z" transform="translate(-596.572 -443.474)" style="fill:#fff"/>
        </g>
        <g data-name="Group 8897">
            <path data-name="Path 5446" d="m807.033 624.84-25.006-43.323a2.039 2.039 0 0 0-3.528 0l-25.006 43.323a2.053 2.053 0 0 0 1.778 3.076h50.012a2.056 2.056 0 0 0 1.75-3.076z" transform="translate(-620.062 -433.2)" style="fill:#cbcef3"/>
            <path data-name="Path 5447" d="m813.289 634.9-21.817-37.763a1.2 1.2 0 0 0-2.089 0L767.567 634.9a1.2 1.2 0 0 0 1.044 1.807h43.606a1.2 1.2 0 0 0 1.072-1.807z" transform="translate(-630.241 -444.702)" style="fill:#fff"/>
            <path data-name="Path 5448" d="m813.361 634.9-21.817-37.763a1.2 1.2 0 0 0-2.089 0l-.113.2 20.97 36.324a1.2 1.2 0 0 1-1.044 1.806H767.5a1.193 1.193 0 0 0 1.214 1.242h43.605a1.2 1.2 0 0 0 1.042-1.809z" transform="translate(-630.312 -444.702)" style="fill:#dde4f0"/>
            <g data-name="Group 8896" transform="translate(156.651 161.694)">
                <path data-name="Path 5449" d="M840.034 652.16a2.182 2.182 0 0 1-2.173-2l-1.383-16.285a2.267 2.267 0 0 1 .564-1.665 2.179 2.179 0 0 1 1.609-.706h2.738a2.179 2.179 0 0 1 1.609.706 2.121 2.121 0 0 1 .565 1.665l-1.383 16.285a2.176 2.176 0 0 1-2.146 2z" transform="translate(-836.47 -631.5)" style="fill:#cbcef3"/>
                <path data-name="Path 5450" d="M843.187 634.1h-2.738a1.461 1.461 0 0 0-1.468 1.609l1.383 16.285a1.472 1.472 0 0 0 2.935 0l1.383-16.285a1.5 1.5 0 0 0-1.495-1.609z" transform="translate(-838.268 -633.366)" style="fill:#cbcef3"/>
                <circle data-name="Ellipse 1957" cx="2.455" cy="2.455" r="2.455" transform="rotate(-13.286 95.12 8.424)" style="fill:#cbcef3"/>
                <path data-name="Path 5451" d="M842.8 711.85a1.75 1.75 0 1 1 1.75 1.75 1.759 1.759 0 0 1-1.75-1.75z" transform="translate(-841.013 -687.916)" style="fill:#cbcef3"/>
            </g>
        </g>
        <g data-name="Group 8902">
            <g data-name="Group 8898">
                <path data-name="Path 5452" d="M409.455 364.178a37.46 37.46 0 0 1-11.628-5.278l-10.5.028-10.5.028a36.824 36.824 0 0 1-11.628 5.334 27.271 27.271 0 0 1 3.048 15.241 26.088 26.088 0 0 1-2.992 9.822 22.6 22.6 0 0 0 6.52 15.636 22.145 22.145 0 0 0 31.3-.085 22.411 22.411 0 0 0 6.435-15.664 26.61 26.61 0 0 1-.057-25.063z" transform="translate(-341.559 -274.144)" style="fill:#cbcef3"/>
            </g>
            <g data-name="Group 8899">
                <path data-name="Path 5453" d="M394.159 415.359a19.4 19.4 0 0 1-13.83-5.7 19.926 19.926 0 0 1-5.729-13.209 28.83 28.83 0 0 0 2.963-10.161 29.332 29.332 0 0 0-2-13.858 43.992 43.992 0 0 0 8.778-4.4l19.471-.031a43.765 43.765 0 0 0 8.806 4.347 28.962 28.962 0 0 0 1.016 24.018 19.935 19.935 0 0 1-5.673 13.209 19.368 19.368 0 0 1-13.8 5.786z" transform="translate(-348.306 -280.676)" style="fill:#fff"/>
            </g>
            <g data-name="Group 8900">
                <path data-name="Path 5454" d="M399.04 418.7a17.549 17.549 0 0 1-12.475-5.137 18.142 18.142 0 0 1-5.165-11.628 28.622 28.622 0 0 0 1.214-22.551 44.091 44.091 0 0 0 7.338-3.754l17.978-.028a43.87 43.87 0 0 0 7.338 3.726 28.824 28.824 0 0 0-1.552 12.729 29.331 29.331 0 0 0 2.851 9.822 18.059 18.059 0 0 1-5.108 11.656 17.583 17.583 0 0 1-12.419 5.165z" transform="translate(-353.187 -286.131)" style="fill:#fff"/>
            </g>
            <g data-name="Group 8901">
                <path data-name="Path 5455" d="M407.454 421.33 403.7 427l9.794 5.729 12.814-13.886-5.729-4.347-7.338 11.826z" transform="translate(-369.193 -314.052)" style="fill:#cbcef3"/>
            </g>
        </g>
        <g data-name="Group 8908">
            <g data-name="Group 8907">
                <g data-name="Group 8906">
                    <g data-name="Group 8905">
                        <g data-name="Group 8904">
                            <g data-name="Group 8903">
                                <path data-name="Path 5456" d="M858.712 309.194a.783.783 0 0 1 .085.508.674.674 0 0 1-.48.508l-2.286.677a.762.762 0 0 1-.677-.169.7.7 0 0 1-.2-.649l.565-2.314a.674.674 0 0 1 .48-.508.761.761 0 0 1 .677.169l1.722 1.665a.22.22 0 0 1 .114.113zm-2.991 1.1.028.028a.112.112 0 0 0 .141.028l2.286-.677c.085-.028.085-.085.113-.113a.307.307 0 0 0-.028-.141l-1.722-1.665a.143.143 0 0 0-.141-.028c-.028 0-.085.028-.113.113l-.564 2.314c-.029.085-.029.113-.001.141z" transform="translate(-693.218 -237.054)" style="fill:url(#3559ajuova)"/>
                            </g>
                        </g>
                    </g>
                </g>
            </g>
        </g>
        <g data-name="Group 8914">
            <g data-name="Group 8913">
                <g data-name="Group 8912">
                    <g data-name="Group 8911">
                        <g data-name="Group 8910">
                            <g data-name="Group 8909">
                                <path data-name="Path 5457" d="M285.012 470.794a.784.784 0 0 1 .085.508.675.675 0 0 1-.48.508l-2.286.677a.761.761 0 0 1-.677-.169.7.7 0 0 1-.2-.649l.564-2.314a.675.675 0 0 1 .48-.508.761.761 0 0 1 .677.169l1.722 1.665a.22.22 0 0 1 .115.113zm-2.992 1.1.028.028a.112.112 0 0 0 .141.028l2.286-.677c.085-.028.085-.085.113-.113a.307.307 0 0 0-.028-.141l-1.722-1.665a.143.143 0 0 0-.141-.028c-.028 0-.085.028-.113.113l-.564 2.314c-.028.085-.028.113 0 .141z" transform="translate(-281.438 -353.044)" style="fill:url(#wrru4fwpcd)"/>
                            </g>
                        </g>
                    </g>
                </g>
            </g>
        </g>
        <g data-name="Group 8915">
            <path data-name="Path 5458" d="m425.081 668.876.847-.847a.5.5 0 0 0-.706-.706l-.847.847-.847-.847a.5.5 0 0 0-.706.706l.847.847-.847.847a.494.494 0 0 0 0 .706.477.477 0 0 0 .677 0l.847-.847.847.847a.477.477 0 0 0 .677 0 .494.494 0 0 0 0-.706z" transform="translate(-382.812 -495.412)" style="fill:url(#0c6fea77yb)"/>
        </g>
        <g data-name="Group 8916">
            <path data-name="Path 5459" d="m955.081 656.375.847-.847a.5.5 0 0 0-.706-.706l-.847.847-.847-.847a.5.5 0 0 0-.706.706l.847.847-.847.847a.494.494 0 0 0 0 .706.477.477 0 0 0 .677 0l.847-.847.847.847a.477.477 0 0 0 .677 0 .494.494 0 0 0 0-.706z" transform="translate(-763.227 -486.44)" style="fill:url(#v6v2a2t7fe)"/>
        </g>
        <g data-name="Group 8918">
            <g data-name="Group 8917">
                <path data-name="Path 5460" d="M415.719 315.438a1.919 1.919 0 1 1 1.919-1.919 1.921 1.921 0 0 1-1.919 1.919zm0-3.246a1.327 1.327 0 1 0 1.327 1.327 1.325 1.325 0 0 0-1.327-1.326z" transform="translate(-376.442 -240.194)" style="fill:url(#yzjkw9h35c)"/>
            </g>
        </g>
        <g data-name="Group 8920">
            <g data-name="Group 8919">
                <path data-name="Path 5461" d="M996.219 499.638a1.919 1.919 0 1 1 1.919-1.919 1.921 1.921 0 0 1-1.919 1.919zm0-3.246a1.326 1.326 0 1 0 1.327 1.326 1.325 1.325 0 0 0-1.327-1.325z" transform="translate(-793.104 -372.406)" style="fill:url(#c6hrfnv9pf)"/>
            </g>
        </g>
    </g>
</svg>
