<svg id="_x3C_Group_x3E__4_" xmlns="http://www.w3.org/2000/svg" width="29.456" height="29.456" viewBox="0 0 29.456 29.456">
  <g id="Group_5061" data-name="Group 5061" transform="translate(10.491 10.49)">
    <path id="Path_2219" data-name="Path 2219" d="M196.192,201.057l-5.035-5.034-2.441,2.441a.862.862,0,0,1-1.428-.337l-4.882-14.645a.862.862,0,0,1,1.091-1.091l14.645,4.882a.862.862,0,0,1,.337,1.428l-2.441,2.441,5.034,5.035a.863.863,0,0,1,0,1.22l-3.661,3.661A.862.862,0,0,1,196.192,201.057Z" transform="translate(-182.362 -182.344)" fill="#4b56c0"/>
  </g>
  <g id="Group_5062" data-name="Group 5062" transform="translate(10.356)">
    <path id="Path_2220" data-name="Path 2220" d="M180.863,6.9A.862.862,0,0,1,180,6.041V.863a.863.863,0,0,1,1.726,0V6.041A.862.862,0,0,1,180.863,6.9Z" transform="translate(-180)" fill="#4b56c0"/>
  </g>
  <g id="Group_5063" data-name="Group 5063" transform="translate(3.033 3.033)">
    <path id="Path_2221" data-name="Path 2221" d="M56.634,57.855l-3.662-3.662a.863.863,0,0,1,1.22-1.22l3.662,3.662a.863.863,0,0,1-1.22,1.22Z" transform="translate(-52.72 -52.72)" fill="#4b56c0"/>
  </g>
  <g id="Group_5064" data-name="Group 5064" transform="translate(3.033 14.017)">
    <path id="Path_2222" data-name="Path 2222" d="M52.973,248.769a.863.863,0,0,1,0-1.22l3.662-3.662a.863.863,0,0,1,1.22,1.22l-3.662,3.662A.863.863,0,0,1,52.973,248.769Z" transform="translate(-52.72 -243.634)" fill="#4b56c0"/>
  </g>
  <g id="Group_5065" data-name="Group 5065" transform="translate(14.016 3.033)">
    <path id="Path_2223" data-name="Path 2223" d="M243.886,57.856a.863.863,0,0,1,0-1.22l3.662-3.662a.863.863,0,0,1,1.22,1.22l-3.662,3.662A.863.863,0,0,1,243.886,57.856Z" transform="translate(-243.633 -52.721)" fill="#4b56c0"/>
  </g>
  <g id="Group_5066" data-name="Group 5066" transform="translate(0 10.356)">
    <path id="Path_2224" data-name="Path 2224" d="M6.041,181.726H.863a.863.863,0,0,1,0-1.726H6.041a.863.863,0,0,1,0,1.726Z" transform="translate(0 -180)" fill="#4b56c0"/>
  </g>
</svg>
