<svg width="16" height="17" viewBox="0 0 16 17" fill="none" xmlns="http://www.w3.org/2000/svg">
<g clip-path="url(#clip0_83_94802)">
<circle cx="8" cy="8.875" r="8" fill="#272727"/>
<path d="M12.2857 9.58929H8.71429V13.1607C8.71429 13.3502 8.63903 13.5318 8.50508 13.6658C8.37112 13.7997 8.18944 13.875 8 13.875C7.81056 13.875 7.62888 13.7997 7.49492 13.6658C7.36097 13.5318 7.28571 13.3502 7.28571 13.1607V9.58929H3.71429C3.52485 9.58929 3.34316 9.51403 3.20921 9.38008C3.07526 9.24612 3 9.06444 3 8.875C3 8.68556 3.07526 8.50388 3.20921 8.36992C3.34316 8.23597 3.52485 8.16071 3.71429 8.16071H7.28571V4.58929C7.28571 4.39985 7.36097 4.21816 7.49492 4.08421C7.62888 3.95025 7.81056 3.875 8 3.875C8.18944 3.875 8.37112 3.95025 8.50508 4.08421C8.63903 4.21816 8.71429 4.39985 8.71429 4.58929V8.16071H12.2857C12.4752 8.16071 12.6568 8.23597 12.7908 8.36992C12.9247 8.50388 13 8.68556 13 8.875C13 9.06444 12.9247 9.24612 12.7908 9.38008C12.6568 9.51403 12.4752 9.58929 12.2857 9.58929Z" fill="#FDFDFD"/>
</g>
<defs>
<clipPath id="clip0_83_94802">
<rect width="16" height="16" fill="white" transform="translate(0 0.875)"/>
</clipPath>
</defs>
</svg>
