<svg xmlns="http://www.w3.org/2000/svg" width="16.002" height="17.832" viewBox="0 0 16.002 17.832">
    <path data-name="Path 4316" d="M28.539 25.77a2.77 2.77 0 1 0-2.77 2.77 2.773 2.773 0 0 0 2.77-2.77zm-2.77-.308a1.228 1.228 0 0 1 .308 2.418v.351h-.615v-.351a1.23 1.23 0 0 1-.923-1.187h.615a.615.615 0 1 0 .615-.615 1.228 1.228 0 0 1-.308-2.418v-.351h.615v.351A1.23 1.23 0 0 1 27 24.846h-.615a.615.615 0 1 0-.615.615z" transform="translate(-17.769 -16.852)" style="fill:#c5c5c5"/>
    <path data-name="Path 4317" d="M38.781 5.411A8.856 8.856 0 0 0 33 3.017V7.33a4.574 4.574 0 0 1 2.731 1.132z" transform="translate(-24.691 -3.018)" style="fill:#c5c5c5"/>
    <path data-name="Path 4318" d="m12.691 9.964-.358-3.4a8 8 0 0 0-4.2 13.263l2.4-2.4a4.618 4.618 0 0 1 2.165-7.467z" transform="translate(-6 -5.474)" style="fill:#c5c5c5"/>
    <path data-name="Path 4319" d="m46.571 18.059-2.624 2.228a4.619 4.619 0 0 1-.656 5.1l2.4 2.4a8 8 0 0 0 .883-9.726z" transform="translate(-31.815 -13.431)" style="fill:#c5c5c5"/>
    <path data-name="Path 4320" d="M21 51.755c.2.083.408.158.615.226v-3.37l-.615.854z" transform="translate(-16.384 -34.581)" style="fill:#c5c5c5"/>
    <path data-name="Path 4321" d="M25 45.55v4.4q.305.076.615.13v-4.439a4.425 4.425 0 0 1-.524-.218z" transform="translate(-19.153 -32.374)" style="fill:#c5c5c5"/>
    <path data-name="Path 4322" d="M17.654 55.318v-1.157l-.6.83c.197.117.397.226.6.327z" transform="translate(-13.654 -38.423)" style="fill:#c5c5c5"/>
    <path data-name="Path 4323" d="M41 51.917q.312-.1.615-.226v-2.31L41 48.52z" transform="translate(-30.229 -34.518)" style="fill:#c5c5c5"/>
    <path data-name="Path 4324" d="M37 45.619v4.439q.31-.054.615-.13v-4.435l-.072-.1a4.505 4.505 0 0 1-.543.226z" transform="translate(-27.46 -32.353)" style="fill:#c5c5c5"/>
    <path data-name="Path 4325" d="M29 51.022q.306.031.615.042v-4.323a4.7 4.7 0 0 1-.615-.079z" transform="translate(-21.922 -33.232)" style="fill:#c5c5c5"/>
    <path data-name="Path 4326" d="M33 51.062q.309-.011.615-.042v-4.36a4.754 4.754 0 0 1-.615.079z" transform="translate(-24.691 -33.231)" style="fill:#c5c5c5"/>
    <path data-name="Path 4327" d="M45 55.291c.2-.1.4-.21.6-.329l-.6-.841z" transform="translate(-32.999 -38.396)" style="fill:#c5c5c5"/>
</svg>
