
<svg xmlns="http://www.w3.org/2000/svg" width="18" height="18" viewBox="0 0 18 18">
    <defs>
        <style>
            .cls-1{fill:rgb(197, 197, 197)}
        </style>
    </defs>
    <g id="Analytics" transform="translate(0.008)">
        <g id="Layer_1" transform="translate(-0.008)">
            <path id="Path_3642" d="M153.424 18a.3.3 0 0 1-.167-.048.5.5 0 0 1-.2-.457q.006-8.5 0-16.994c0-.372.126-.5.494-.5h3.48c.4 0 .529.126.529.523v16.959a.542.542 0 0 1-.167.444.309.309 0 0 1-.2.072z" class="cls-1" transform="translate(-146.32 0)"/>
            <path id="Path_3643" d="M306.815 99.432a.45.45 0 0 1-.451-.4v-.088q.006-6.64 0-13.28c0-.363.124-.49.482-.491h3.534a.476.476 0 0 1 .407.164.428.428 0 0 1 .085.264v13.38a.454.454 0 0 1-.454.454z" class="cls-1" transform="translate(-292.871 -81.434)"/>
            <path id="Path_3644" d="M.419 197.273a.411.411 0 0 1-.4-.278.783.783 0 0 1-.03-.239v-8.723c0-.388.126-.513.518-.513h3.48c.384 0 .5.119.5.506v8.743a.891.891 0 0 1-.015.176.417.417 0 0 1-.41.33z" class="cls-1" transform="translate(0.008 -179.275)"/>
        </g>
    </g>
</svg>
