<svg xmlns="http://www.w3.org/2000/svg" width="30.001" height="30">
    <defs>
        <style>
            .cls-1{fill:#9b9b9b}
        </style>
    </defs>
    <g id="Analytics" transform="translate(-285 -208)">
        <path id="Path_3645" data-name="Path 3645" class="cls-1" d="M0 147.221c.234-.331.234-.331 1.23-.452 0-.106.015-.22.015-.332v-6.3c0-.646.195-.841.837-.841h3.34c.637 0 .832.2.832.847v6.634h2.49v-12.855c0-.691.191-.88.891-.88h3.31c.589 0 .809.22.809.816v12.913h2.491v-10.342c0-.7.18-.882.885-.883h3.281c.644 0 .843.2.843.836v10.391h2.473c.005-.117.017-.239.017-.36v-17.432a3.1 3.1 0 0 1 .008-.352.6.6 0 0 1 .62-.579q1.875-.012 3.75 0a.6.6 0 0 1 .625.574 2.761 2.761 0 0 1 .009.351v17.812c.469.029.984-.1 1.245.435v.349l-.469.469H.469L0 147.573zm25.022-17.915v17.445h2.457v-17.445zm-15 5v12.445h2.457V134.3zm9.959 2.506H17.53v9.941h2.45zm-15.007 9.947v-6.193H2.526v6.193z" transform="translate(285 89.958)"/>
        <path id="Path_3646" data-name="Path 3646" class="cls-1" d="M41.349 0c.166.051.336.094.5.156a2.492 2.492 0 1 1-1.832 4.634.4.4 0 0 0-.542.111q-1.81 1.835-3.644 3.647a.283.283 0 0 0-.078.391 2.494 2.494 0 1 1-4.737.79v-.145L28.7 8.916a.433.433 0 0 1-.057-.012c-.323-.156-.526-.085-.767.22a2.469 2.469 0 0 1-3.38.38l-.67.532c-.977.781-1.953 1.562-2.934 2.334a.271.271 0 0 0-.112.382A2.493 2.493 0 1 1 16 13.816a2.491 2.491 0 0 1 3.584-2.309.363.363 0 0 0 .459-.055c1.209-.973 2.422-1.937 3.575-2.855a10.057 10.057 0 0 1-.078-1.484 2.482 2.482 0 0 1 4.912.014.558.558 0 0 0 .495.574c.8.2 1.594.45 2.393.669a.379.379 0 0 0 .3-.051 2.539 2.539 0 0 1 3.177-.461c.129-.15.266-.329.423-.487q1.705-1.713 3.417-3.418c.107-.107.183-.181.1-.366A2.475 2.475 0 0 1 40.541.046a.619.619 0 0 0 .1-.046zm.891 2.511a1.243 1.243 0 1 0-1.255 1.239 1.243 1.243 0 0 0 1.255-1.239zm-9.986 7.5a1.243 1.243 0 1 0 .353-.886 1.243 1.243 0 0 0-.353.886zm-15 3.725a1.244 1.244 0 1 0 .37-.878 1.243 1.243 0 0 0-.37.878zM27.239 7.5A1.243 1.243 0 1 0 26 8.743 1.229 1.229 0 0 0 27.239 7.5z" transform="translate(270.253 208)"/>
    </g>
</svg>
