<svg xmlns="http://www.w3.org/2000/svg" width="17.078" height="15.859" viewBox="0 0 17.078 15.859">
  <g id="Icon_ionic-md-analytics" data-name="Icon ionic-md-analytics" transform="translate(-2.25 -3.375)">
    <path id="Path_2145" data-name="Path 2145" d="M15.49,12.266,12.167,17.35a1.81,1.81,0,0,1,.412,1.155,1.829,1.829,0,0,1-3.659,0,2,2,0,0,1,.03-.339l-2.2-1.277a1.818,1.818,0,0,1-1.269.511,1.84,1.84,0,0,1-.9-.236L2.25,19.351v2.18a1.631,1.631,0,0,0,1.627,1.627H17.7a1.631,1.631,0,0,0,1.627-1.627v-8.1l-2.233-1.483a1.828,1.828,0,0,1-1.6.32Z" transform="translate(0 -3.925)" fill="#c5c5c5"/>
    <path id="Path_2146" data-name="Path 2146" d="M5.49,9.816a1.83,1.83,0,0,1,1.829,1.829c0,.08-.008.16-.015.236l2.291,1.281a1.813,1.813,0,0,1,1.159-.412,1.914,1.914,0,0,1,.4.042l3.331-5.16a1.81,1.81,0,0,1-.339-1.06,1.829,1.829,0,1,1,3.659,0A1.988,1.988,0,0,1,17.75,7l1.574,1.052V5A1.631,1.631,0,0,0,17.7,3.375H3.877A1.631,1.631,0,0,0,2.25,5v8.739l1.524-1.46A1.829,1.829,0,0,1,5.49,9.816Z" fill="#c5c5c5"/>
  </g>
</svg>
