<svg width="512" height="512" viewBox="0 0 512 512" fill="none" xmlns="http://www.w3.org/2000/svg">
<path fill-rule="evenodd" clip-rule="evenodd" d="M352 458.667H288C288 476.342 302.325 490.667 320 490.667C337.675 490.667 352 476.342 352 458.667Z" fill="#9EAEB8"/>
<path fill-rule="evenodd" clip-rule="evenodd" d="M458.668 458.667H394.668C394.668 476.342 408.993 490.667 426.668 490.667C444.343 490.667 458.668 476.342 458.668 458.667Z" fill="#9EAEB8"/>
<path fill-rule="evenodd" clip-rule="evenodd" d="M325.333 224H288C279.509 224 271.371 227.371 265.376 233.376C259.371 239.371 256 247.509 256 256V416C256 424.491 259.371 432.63 265.376 438.624C271.371 444.63 279.509 448 288 448H458.667C467.157 448 475.296 444.63 481.291 438.624C487.296 432.63 490.667 424.491 490.667 416V256C490.667 247.509 487.296 239.371 481.291 233.376C475.296 227.371 467.157 224 458.667 224H421.333V213.333C421.333 195.659 407.008 181.333 389.333 181.333C379.296 181.333 367.371 181.333 357.333 181.333C339.659 181.333 325.333 195.659 325.333 213.333V224ZM426.667 277.333V394.667C426.667 400.555 431.445 405.333 437.333 405.333C443.221 405.333 448 400.555 448 394.667V277.333C448 271.445 443.221 266.667 437.333 266.667C431.445 266.667 426.667 271.445 426.667 277.333ZM298.667 277.333V394.667C298.667 400.555 303.445 405.333 309.333 405.333C315.221 405.333 320 400.555 320 394.667V277.333C320 271.445 315.221 266.667 309.333 266.667C303.445 266.667 298.667 271.445 298.667 277.333ZM400 213.333V224H346.667V213.333C346.667 207.445 351.445 202.667 357.333 202.667H389.333C395.221 202.667 400 207.445 400 213.333Z" fill="#9EAEB8"/>
<path d="M202.669 128C232.124 128 256.003 104.122 256.003 74.6668C256.003 45.2116 232.124 21.3335 202.669 21.3335C173.214 21.3335 149.336 45.2116 149.336 74.6668C149.336 104.122 173.214 128 202.669 128Z" fill="#9EAEB8"/>
<path fill-rule="evenodd" clip-rule="evenodd" d="M275.969 467.957C266.316 465.717 257.399 460.821 250.284 453.717C240.289 443.712 234.668 430.144 234.668 416V256C234.668 241.856 240.289 228.288 250.284 218.283C260.289 208.288 273.857 202.667 288.001 202.667H305.068C306.732 194.464 310.273 186.955 315.233 180.587C306.839 162.155 288.247 149.333 266.668 149.333H145.676C142.849 149.333 140.129 148.213 138.135 146.208L75.9587 84.0321C63.4681 71.5414 43.1907 71.5414 30.7 84.0321C18.2094 96.5227 18.2094 116.8 30.7 129.291C30.7 129.291 102.935 201.515 124.876 223.467C126.881 225.461 128.001 228.181 128.001 231.008V458.667C128.001 476.341 142.327 490.667 160.001 490.667C177.676 490.667 192.001 476.341 192.001 458.667V373.312C192.001 367.435 196.769 362.667 202.647 362.667H202.689C208.567 362.667 213.335 367.435 213.335 373.312V458.667C213.335 476.341 227.66 490.667 245.335 490.667C259.777 490.667 271.98 481.099 275.969 467.957Z" fill="#9EAEB8"/>
</svg>
