<svg xmlns="http://www.w3.org/2000/svg" width="41.426" height="30" viewBox="0 0 41.426 30"><defs><style>.a,.c{fill:#9b9b9b;}.b{fill:#fff;}.c{stroke:#9b9b9b;stroke-width:0.2px;}</style></defs><g transform="translate(-293.461 -247)"><g transform="translate(305.949 247)"><path class="a" d="M14.1,9.09,24.725,11.2a1.781,1.781,0,0,1,1.435,1.76v12.3a1.806,1.806,0,0,1-1.809,1.809H13.5a.6.6,0,0,0,.6-.6v-.6H24.351a.6.6,0,0,0,.6-.6V12.96a.606.606,0,0,0-.47-.591L14.1,10.32Z" transform="translate(2.777 1.509)"/><path class="a" d="M20.014,14a.6.6,0,0,1,0,1.206H17.6A.6.6,0,1,1,17.6,14Z" transform="translate(3.497 2.576)"/><path class="a" d="M20.014,17a.6.6,0,0,1,0,1.206H17.6A.6.6,0,1,1,17.6,17Z" transform="translate(3.497 3.174)"/><path class="a" d="M20.014,20a.6.6,0,0,1,0,1.206H17.6A.6.6,0,1,1,17.6,20Z" transform="translate(3.497 3.754)"/><path class="a" d="M14.206,26.483a.6.6,0,1,1-1.206,0V9.6a.641.641,0,0,1,.217-.47.634.634,0,0,1,.506-.121l.482.1V26.483Z" transform="translate(2.674 1.491)"/><path class="a" d="M13.72,23v.6a.6.6,0,0,0,.6.6H9.5a.6.6,0,0,0,.6-.6V23Z" transform="translate(1.954 4.371)"/><path class="a" d="M11.014,5a.6.6,0,0,1,0,1.206H8.6A.6.6,0,0,1,8.6,5Z" transform="translate(1.646 0.781)"/><path class="a" d="M11.617,8.6a.6.6,0,0,1-.6.6H8.6A.6.6,0,0,1,8.6,8h2.411A.6.6,0,0,1,11.617,8.6Z" transform="translate(1.646 1.379)"/><path class="a" d="M11.014,11a.6.6,0,0,1,0,1.206H8.6A.6.6,0,0,1,8.6,11Z" transform="translate(1.646 1.977)"/><path class="a" d="M11.014,14a.6.6,0,1,1,0,1.206H8.6A.6.6,0,1,1,8.6,14Z" transform="translate(1.646 2.576)"/><path class="a" d="M6.617,14.6a.6.6,0,0,1-.6.6H3.6A.6.6,0,1,1,3.6,14H6.014A.6.6,0,0,1,6.617,14.6Z" transform="translate(0.617 2.576)"/><path class="a" d="M6.014,5a.6.6,0,1,1,0,1.206H3.6A.6.6,0,0,1,3.6,5Z" transform="translate(0.617 0.781)"/><path class="a" d="M6.014,8a.6.6,0,1,1,0,1.206H3.6A.6.6,0,1,1,3.6,8Z" transform="translate(0.617 1.379)"/><path class="a" d="M6.014,11a.6.6,0,1,1,0,1.206H3.6A.6.6,0,0,1,3.6,11Z" transform="translate(0.617 1.977)"/><path class="a" d="M10.029,18.809a.6.6,0,0,0-.6-.6H5.809a.6.6,0,0,0-.6.6v5.426H4V18.809A1.806,1.806,0,0,1,5.809,17H9.426a1.806,1.806,0,0,1,1.809,1.809v5.426H10.029Z" transform="translate(0.823 3.137)"/><path class="a" d="M5.206,23h6.029v.6a.6.6,0,0,1-.6.6H4.6a.6.6,0,0,1-.6-.6V23Z" transform="translate(0.823 4.371)"/><path class="a" d="M2.11.2l13.251,2A1.8,1.8,0,0,1,16.88,3.983v6.886l-.482-.1a.593.593,0,0,0-.723.588V3.983a.607.607,0,0,0-.506-.6L1.917,1.392a.335.335,0,0,0-.109-.012.57.57,0,0,0-.386.144.573.573,0,0,0-.217.456V26.958a.6.6,0,0,0,.6.6H4.823v.6a.6.6,0,0,0,.6.6H1.809A1.8,1.8,0,0,1,0,26.958V1.979A1.763,1.763,0,0,1,.639.612,1.816,1.816,0,0,1,2.11.2Z" transform="translate(0 -0.181)"/></g><path class="b" d="M8.784-.429C14.112-.429,17.569,3,17.569,9,20.153,11.739,18.6,26.134,18.6,26.134a37.637,37.637,0,0,1-8.957,1.542C4.319,27.677,0,21.5,0,13.881S3.457-.429,8.784-.429Z" transform="translate(294.089 249.323)"/><path class="c" d="M90.343,22.279v2.479a.422.422,0,0,1-.844,0V22.279a3.5,3.5,0,0,0-3.512-3.492,2.594,2.594,0,0,1-2.229-1.245.418.418,0,0,1,.141-.577.423.423,0,0,1,.58.14,1.755,1.755,0,0,0,1.508.842A4.341,4.341,0,0,1,90.343,22.279ZM83.3,19.029l-1.5,1.159-2.559-1.97a2.567,2.567,0,0,0,.967-1.812,5.649,5.649,0,0,0,7.236-5.385c0-.033,0-2.938,0-2.97a.421.421,0,0,0-.421-.393,1.745,1.745,0,0,1-1.1-.2,1.905,1.905,0,0,1-.8-1.526.422.422,0,0,0-.666-.345,13.644,13.644,0,0,1-5.984,2.361.42.42,0,0,0,.058.835,13.951,13.951,0,0,0,2.99-.728,14.5,14.5,0,0,0,2.863-1.407A2.38,2.38,0,0,0,86.6,8.509v2.512a4.8,4.8,0,0,1-9.6,0V8.078a.422.422,0,0,0-.844,0v2.944a5.617,5.617,0,0,0,3.218,5.067V16.2a1.754,1.754,0,0,1-1.763,1.749,4.375,4.375,0,0,0-1.557.285l-.272-.216a5.106,5.106,0,0,1-1.08-6.855,5.774,5.774,0,0,0,.981-3.224V5.665A4.845,4.845,0,0,1,80.531.839h2.532a4.845,4.845,0,0,1,4.853,4.826V7.938a5.744,5.744,0,0,0,.976,3.217,5.1,5.1,0,0,1-.041,5.76.418.418,0,0,0,.108.584.424.424,0,0,0,.587-.107,5.937,5.937,0,0,0,.048-6.7,4.911,4.911,0,0,1-.834-2.751V5.665A5.687,5.687,0,0,0,83.063,0H80.531a5.688,5.688,0,0,0-5.7,5.665V7.938a4.94,4.94,0,0,1-.84,2.759,5.94,5.94,0,0,0,1.23,7.955,4.313,4.313,0,0,0-1.973,3.627v2.479a.422.422,0,0,0,.844,0V22.279a3.5,3.5,0,0,1,3.512-3.492,2.63,2.63,0,0,0,.821-.131l3.11,2.395a.424.424,0,0,0,.517,0l1.763-1.357a.418.418,0,0,0,.075-.589.424.424,0,0,0-.592-.075Z" transform="translate(220.58 250.617)"/></g></svg>