<svg xmlns="http://www.w3.org/2000/svg" width="39" height="39" viewBox="0 0 39 39">
    <g data-name="Group 10302" transform="translate(-334 -305)">
        <circle data-name="Ellipse 2153" cx="19.5" cy="19.5" r="19.5" transform="translate(334 305)" style="fill:#f1eeff"/>
        <path data-name="dollar (1)" d="M12 23A11 11 0 1 0 1 12a11 11 0 0 0 11 11zm1-17a1 1 0 0 0-2 0v.586a3.142 3.142 0 0 0 .064 6.165l1.392.292a1.268 1.268 0 0 1 1.044 1.213 1.293 1.293 0 0 1-1.337 1.244H12a1.486 1.486 0 0 1-1.455-1.059 1 1 0 1 0-1.932.518 3.449 3.449 0 0 0 2.387 2.4V18a1 1 0 0 0 2 0v-.6a3.224 3.224 0 0 0-.132-6.311l-1.392-.292a1.184 1.184 0 0 1-.976-1.136A1.208 1.208 0 0 1 11.751 8.5H12a1.486 1.486 0 0 1 1.455 1.059 1 1 0 1 0 1.932-.518A3.449 3.449 0 0 0 13 6.641z" transform="translate(342 313)" style="fill:#5f38f9;fill-rule:evenodd"/>
    </g>
</svg>
