<svg width="448" height="448" viewBox="0 0 448 448" fill="none" xmlns="http://www.w3.org/2000/svg">
<g clip-path="url(#clip0_3218_223)">
<path d="M14.0401 190.044L142.04 62.044C160.792 43.292 191.16 43.292 209.912 62.044C228.664 80.764 228.664 111.196 209.912 129.916L115.864 223.996L209.912 318.044C228.664 336.796 228.664 367.164 209.912 385.916C200.568 395.324 188.28 399.996 175.992 399.996C163.704 399.996 151.416 395.324 142.04 385.948L14.0401 257.948C-4.67993 239.196 -4.67993 208.796 14.0401 190.044Z" fill="white"/>
<path d="M238.04 190.044L366.04 62.044C384.792 43.292 415.16 43.292 433.912 62.044C452.664 80.764 452.664 111.196 433.912 129.916L339.864 223.996L433.912 318.044C452.664 336.796 452.664 367.164 433.912 385.916C424.568 395.324 412.28 399.996 399.992 399.996C387.704 399.996 375.416 395.324 366.04 385.948L238.04 257.948C219.32 239.196 219.32 208.796 238.04 190.044Z" fill="white"/>
</g>
<defs>
<clipPath id="clip0_3218_223">
<rect width="447.976" height="447.976" fill="white" transform="matrix(-1 0 0 1 447.976 0)"/>
</clipPath>
</defs>
</svg>
