<svg xmlns="http://www.w3.org/2000/svg" width="17.68" height="17.16" viewBox="0 0 17.68 17.16">
    <path data-name="Path 4328" d="M90 352.5h2.08v2.08H90z" transform="translate(-86.88 -340.54)" style="fill:#c5c5c5"/>
    <path data-name="Path 4329" d="M0 127.5v13h17.68v-13zm7.28 2.08h3.64v1.04H7.28zm0 5.72h3.64v1.04H7.28zm-4.312-4.77.672.672 1.712-1.712.735.735-2.447 2.448-1.408-1.408zm3.272 7.89H2.08v-4.16h4.16zm9.36 0H7.28v-1.04h8.32zm0-5.72H7.28v-1.04h8.32z" transform="translate(0 -123.34)" style="fill:#c5c5c5"/>
    <path data-name="Path 4330" d="M0 7.5h2.6v3.12H0z" transform="translate(0 -7.5)" style="fill:#c5c5c5"/>
    <path data-name="Path 4331" d="M105 7.5h1.04v3.12H105z" transform="translate(-101.36 -7.5)" style="fill:#c5c5c5"/>
    <path data-name="Path 4332" d="m176.857 9.06-2.34-1.56H165v3.12h9.517z" transform="translate(-159.28 -7.5)" style="fill:#c5c5c5"/>
</svg>
