<svg xmlns="http://www.w3.org/2000/svg" width="13.309" height="15.971" viewBox="0 0 13.309 15.971">
    <g data-name="bell (2)">
        <path data-name="Path 8472" d="M14.9 11.255a4.457 4.457 0 0 1-1.583-3.411V5.989A4.662 4.662 0 0 0 9.32 1.384V.665a.665.665 0 1 0-1.331 0v.719A4.661 4.661 0 0 0 4 5.989v1.856a4.462 4.462 0 0 1-1.593 3.415 1.164 1.164 0 0 0 .757 2.049h10.98a1.165 1.165 0 0 0 .751-2.054z" style="fill:#434343" transform="translate(-2)"/>
        <path data-name="Path 8473" d="M10.771 23a2.5 2.5 0 0 0 2.445-2h-4.89a2.5 2.5 0 0 0 2.445 2z" transform="translate(-4.116 -7.025)" style="fill:#434343"/>
    </g>
</svg>
