<svg xmlns="http://www.w3.org/2000/svg" width="34" height="25.5" viewBox="0 0 34 25.5">
  <path id="Icon_awesome-concierge-bell" data-name="Icon awesome-concierge-bell" d="M19.125,8.919V7.687h1.063A1.062,1.062,0,0,0,21.25,6.625V5.563A1.062,1.062,0,0,0,20.188,4.5H13.812A1.062,1.062,0,0,0,12.75,5.563V6.625a1.062,1.062,0,0,0,1.062,1.063h1.063V8.919A14.866,14.866,0,0,0,2.125,23.625h29.75A14.866,14.866,0,0,0,19.125,8.919ZM32.938,25.75H1.063A1.062,1.062,0,0,0,0,26.813v2.125A1.062,1.062,0,0,0,1.063,30H32.938A1.062,1.062,0,0,0,34,28.938V26.813A1.062,1.062,0,0,0,32.938,25.75Z" transform="translate(0 -4.5)" fill="#414ce8" opacity="0.2"/>
</svg>
