<svg xmlns="http://www.w3.org/2000/svg" width="14.275" height="14.275" viewBox="0 0 14.275 14.275">
  <g id="Feedback_Pending" data-name="Feedback Pending" transform="translate(-3.375 -3.375)">
    <path id="Path_2333" data-name="Path 2333" d="M18.976,12.729a.831.831,0,0,1,.113-.419,1.155,1.155,0,0,1,.072-.106,5.56,5.56,0,0,0,.947-3.1,5.837,5.837,0,0,0-5.96-5.731A5.919,5.919,0,0,0,8.3,7.935a5.514,5.514,0,0,0-.127,1.174,5.821,5.821,0,0,0,5.868,5.8,7.067,7.067,0,0,0,1.62-.264c.388-.106.772-.247.872-.285a.907.907,0,0,1,.319-.058.892.892,0,0,1,.347.069l1.946.69a.464.464,0,0,0,.134.034.273.273,0,0,0,.275-.275.441.441,0,0,0-.017-.093Z" transform="translate(-2.459)" fill="#c2c2c2"/>
    <path id="Path_2334" data-name="Path 2334" d="M12.657,20.074c-.124.034-.281.072-.453.11a6.333,6.333,0,0,1-1.167.154,5.821,5.821,0,0,1-5.868-5.8,6.488,6.488,0,0,1,.051-.734c.021-.148.045-.3.079-.439s.075-.309.12-.46l-.275.244a5.107,5.107,0,0,0-1.771,3.84A5.05,5.05,0,0,0,4.226,19.8c.079.12.124.213.11.275S3.927,22.2,3.927,22.2a.275.275,0,0,0,.093.264.28.28,0,0,0,.175.062.246.246,0,0,0,.1-.021l1.925-.758a.536.536,0,0,1,.2-.038.542.542,0,0,1,.216.045,5.775,5.775,0,0,0,2.083.412,5.389,5.389,0,0,0,4.121-1.891s.11-.151.237-.329C12.945,19.992,12.8,20.036,12.657,20.074Z" transform="translate(0 -4.878)" fill="#c2c2c2"/>
  </g>
</svg>
