<svg xmlns="http://www.w3.org/2000/svg" width="17.727" height="18.093" viewBox="0 0 17.727 18.093">
    <path data-name="Path 4354" d="M116.1 4.8h-3.8v17.714h3.8zm-.949 16.448h-1.9a.316.316 0 1 1 0-.633h1.9a.316.316 0 0 1 0 .633zm0-1.265h-1.9a.316.316 0 1 1 0-.633h1.9a.316.316 0 0 1 0 .633zm0-12.02h-1.9a.316.316 0 1 1 0-.633h1.9a.316.316 0 0 1 0 .633zm0-1.265h-1.9a.316.316 0 1 1 0-.633h1.9a.316.316 0 0 1 0 .633zm0 0" transform="translate(-107.873 -4.611)" style="fill:#c5c5c5"/>
    <path data-name="Path 4355" d="M.3 22.514h3.8V4.8H.3zm.95-16.448h1.9a.316.316 0 0 1 0 .633h-1.9a.316.316 0 0 1 0-.633zm0 1.265h1.9a.316.316 0 1 1 0 .633h-1.9a.316.316 0 1 1 0-.633zm0 12.02h1.9a.316.316 0 1 1 0 .633h-1.9a.316.316 0 1 1 0-.633zm0 1.265h1.9a.316.316 0 1 1 0 .633h-1.9a.316.316 0 1 1 0-.633zm0 0" transform="translate(-.301 -4.611)" style="fill:#c5c5c5"/>
    <path data-name="Path 4356" d="m239.965.983 4.584 17.11 3.666-.982L243.631 0zm1.02 1.364a.316.316 0 0 1 .224-.388l1.835-.491a.316.316 0 1 1 .161.611l-1.835.491a.316.316 0 0 1-.387-.224zm6.21 13.4a.316.316 0 0 1-.224.388l-1.835.491a.3.3 0 0 1-.082.011.316.316 0 0 1-.082-.622l1.835-.491a.316.316 0 0 1 .393.222zm-2.548-.954 1.835-.491a.316.316 0 0 1 .164.611l-1.834.493a.316.316 0 1 1-.164-.611zm-.89-11.878a.316.316 0 0 1-.224.388l-1.835.491a.316.316 0 0 1-.164-.611l1.833-.491a.316.316 0 0 1 .389.224zm0 0" transform="translate(-230.489)" style="fill:#c5c5c5"/>
</svg>
