<svg xmlns="http://www.w3.org/2000/svg" width="18" height="18" viewBox="0 0 18 18"><defs><style>.a{fill:none;stroke:#c5c5c5;stroke-linecap:round;stroke-linejoin:round;stroke-miterlimit:10;stroke-width:32px;}.b{fill:#c5c5c5;}</style></defs><path class="a"/><path class="a"/><path class="b" d="M8.392,143.314l-8.146-3.43a.177.177,0,0,0-.246.163v9.17a.567.567,0,0,0,.356.526l7.9,3.16a.177.177,0,0,0,.243-.164v-9.262A.177.177,0,0,0,8.392,143.314Z" transform="translate(0 -134.916)"/><path class="b" d="M36.737,11.064l7.808-3.315a.178.178,0,0,0,.006-.324l-7.645-3.6a.558.558,0,0,0-.475,0l-7.645,3.6a.178.178,0,0,0,.006.324L36.6,11.064a.174.174,0,0,0,.136,0Z" transform="translate(-27.669 -3.641)"/><path class="b" d="M272,143.477v9.262a.177.177,0,0,0,.243.164l7.9-3.16a.567.567,0,0,0,.356-.526v-9.17a.177.177,0,0,0-.246-.163l-8.146,3.43A.177.177,0,0,0,272,143.477Z" transform="translate(-262.5 -134.916)"/></svg>