<svg xmlns="http://www.w3.org/2000/svg" width="15.851" height="13.209" viewBox="0 0 15.851 13.209">
    <g data-name="briefcase (1)">
        <g data-name="Group 9715">
            <g data-name="Group 9714">
                <path data-name="Path 7446" d="M14.53 44.647h-3.3v-.66a1.322 1.322 0 0 0-1.321-1.321H5.944a1.322 1.322 0 0 0-1.321 1.321v.66h-3.3A1.322 1.322 0 0 0 0 45.968v1.982a1.322 1.322 0 0 0 1.321 1.32H6.6v-.33a.33.33 0 0 1 .33-.33h1.986a.33.33 0 0 1 .33.33v.33h5.284a1.322 1.322 0 0 0 1.321-1.321v-1.981a1.322 1.322 0 0 0-1.321-1.321zm-4.623 0H5.944v-.66h3.963z" transform="translate(0 -42.666)" style="fill:#434343"/>
                <path data-name="Path 7447" d="M15.667 266.418a.331.331 0 0 0-.346.033 1.3 1.3 0 0 1-.791.272H9.246v.991a.33.33 0 0 1-.33.33H6.935a.33.33 0 0 1-.33-.33v-.991H1.321a1.3 1.3 0 0 1-.791-.272.33.33 0 0 0-.53.263v4.632a1.322 1.322 0 0 0 1.321 1.321H14.53a1.322 1.322 0 0 0 1.321-1.321v-4.632a.33.33 0 0 0-.184-.296z" transform="translate(0 -259.458)" style="fill:#434343"/>
            </g>
        </g>
    </g>
</svg>
