<svg xmlns="http://www.w3.org/2000/svg" width="32.336" height="32.335" viewBox="0 0 32.336 32.335">
    <g data-name="click (2)">
        <path data-name="Path 5321" d="M16.167 0a16.167 16.167 0 0 0 0 32.335 16.612 16.612 0 0 0 2.964-.269l-1.1-3.314a3.659 3.659 0 0 1-.512.418V27.2l-2.506-7.5a3.635 3.635 0 0 1-.189-1.186v2.735a29.719 29.719 0 0 0-3.718.364 28.916 28.916 0 0 1-.472-4.123h4.19v1.024a3.726 3.726 0 0 1 3.7-3.692 3.965 3.965 0 0 1 1.186.189l7.423 2.479h2.439a7.274 7.274 0 0 1-.108.781l2.6.862a16.613 16.613 0 0 0 .269-2.964A16.18 16.18 0 0 0 16.167 0zM14.82 23.941v5.227c-1.159-.781-2.263-2.506-3.045-4.945a27.465 27.465 0 0 1 3.045-.283zM4.85 8.879a20.975 20.975 0 0 0 3.611 1.293 30.642 30.642 0 0 0-.525 4.621H2.762A13.488 13.488 0 0 1 4.85 8.879zm-2.088 8.609h5.173a31.177 31.177 0 0 0 .525 4.675 20.975 20.975 0 0 0-3.61 1.293 13.421 13.421 0 0 1-2.088-5.968zm7.938 10.98a13.441 13.441 0 0 1-4.109-2.843 16.246 16.246 0 0 1 2.519-.849 17.6 17.6 0 0 0 1.59 3.692zM9.107 7.558a16.246 16.246 0 0 1-2.519-.849A13.441 13.441 0 0 1 10.7 3.867a17.6 17.6 0 0 0-1.593 3.691zm5.712 7.235H10.63a28.359 28.359 0 0 1 .472-4.069 29.719 29.719 0 0 0 3.718.364zm0-6.4a27.465 27.465 0 0 1-3.045-.283c.781-2.439 1.886-4.163 3.045-4.945zm2.695-5.227c1.159.781 2.263 2.506 3.045 4.945a27.465 27.465 0 0 1-3.045.283zm0 11.627v-3.705a29.72 29.72 0 0 0 3.718-.364 28.359 28.359 0 0 1 .472 4.069zm4.123-10.926a13.441 13.441 0 0 1 4.109 2.843 16.246 16.246 0 0 1-2.519.849 17.6 17.6 0 0 0-1.59-3.692zM24.4 14.793a30.642 30.642 0 0 0-.525-4.621 20.975 20.975 0 0 0 3.611-1.293 13.488 13.488 0 0 1 2.088 5.915z" style="fill:#c5c5c5"/>
        <path data-name="Path 5322" d="M18.277 27.821h-.023a1.009 1.009 0 0 1-.935-.691l-4.267-12.8a1.01 1.01 0 0 1 1.279-1.279l12.8 4.267a1.01 1.01 0 0 1 .043 1.9l-5.743 2.21-2.211 5.745a1.011 1.011 0 0 1-.943.648z" transform="translate(4.515 4.514)" style="fill:#c5c5c5"/>
    </g>
</svg>
