<svg xmlns="http://www.w3.org/2000/svg" width="16.441" height="16.441" viewBox="0 0 16.441 16.441">
    <g data-name="Group 10205">
        <g data-name="Group 10204">
            <circle data-name="Ellipse 2173" cx="4.484" cy="4.484" r="4.484" transform="translate(3.737)" style="fill:#434343"/>
            <path data-name="Path 8474" d="M14.6 279.018a16.544 16.544 0 0 0-3.178-1.234.372.372 0 0 0-.449.235l-1.532 4.273-.464-2.319.716-2.148a.374.374 0 0 0-.355-.492H7.1a.374.374 0 0 0-.355.492l.716 2.148L7 282.292l-1.532-4.273a.373.373 0 0 0-.449-.235 16.542 16.542 0 0 0-3.178 1.234 3.362 3.362 0 0 0-1.839 3v.547a1.5 1.5 0 0 0 1.495 1.495h13.449a1.5 1.5 0 0 0 1.495-1.495v-.547a3.363 3.363 0 0 0-1.841-3z" transform="translate(0 -267.618)" style="fill:#434343"/>
        </g>
    </g>
</svg>
