<svg xmlns="http://www.w3.org/2000/svg" width="20.156" height="20.156" viewBox="0 0 20.156 20.156"><defs><style>.a{fill:#9eaeb8;}</style></defs><circle class="a" cx="1" cy="1" r="1" transform="translate(15.156 7)"/><path class="a" d="M17.007,1.575H15.983V.787a.787.787,0,0,0-1.575,0v.787H10.826V.787a.787.787,0,0,0-1.575,0v.787H5.708V.787a.787.787,0,1,0-1.575,0v.787H3.149A3.153,3.153,0,0,0,0,4.724V17.007a3.153,3.153,0,0,0,3.149,3.149H9.173a.787.787,0,1,0,0-1.575H3.149a1.577,1.577,0,0,1-1.575-1.575V4.724A1.577,1.577,0,0,1,3.149,3.149h.984v.787a.787.787,0,1,0,1.575,0V3.149H9.251v.787a.787.787,0,0,0,1.575,0V3.149h3.582v.787a.787.787,0,0,0,1.575,0V3.149h1.024a1.577,1.577,0,0,1,1.575,1.575V9.212a.787.787,0,1,0,1.575,0V4.724A3.153,3.153,0,0,0,17.007,1.575Z"/><path class="a" d="M274.764,270a4.764,4.764,0,1,0,4.764,4.764A4.769,4.769,0,0,0,274.764,270Zm0,7.952a3.189,3.189,0,1,1,3.189-3.189A3.192,3.192,0,0,1,274.764,277.952Z" transform="translate(-259.371 -259.371)"/><path class="a" d="M372.929,331.614h-.354v-.827a.787.787,0,0,0-1.575,0V332.4a.787.787,0,0,0,.787.787h1.142a.787.787,0,0,0,0-1.575Z" transform="translate(-356.395 -317.009)"/><circle class="a" cx="1" cy="1" r="1" transform="translate(11.156 7)"/><circle class="a" cx="1" cy="1" r="1" transform="translate(7.156 10)"/><circle class="a" cx="1" cy="1" r="1" transform="translate(3.156 7)"/><circle class="a" cx="1" cy="1" r="1" transform="translate(3.156 10)"/><circle class="a" cx="1" cy="1" r="1" transform="translate(3.156 13)"/><circle class="a" cx="1" cy="1" r="1" transform="translate(7.156 13)"/><circle class="a" cx="1" cy="1" r="1" transform="translate(7.156 7)"/></svg>