<svg width="22" height="22" viewBox="0 0 22 22" fill="none" xmlns="http://www.w3.org/2000/svg">
<path d="M10.3154 15.2188H11.7344V16.6378H10.3154V15.2188Z" fill="#9EAEB8"/>
<path d="M15.9722 15.2188H17.3912V16.6378H15.9722V15.2188Z" fill="#9EAEB8"/>
<path d="M4.65918 9.89355H6.07818V11.3125H4.65918V9.89355Z" fill="#9EAEB8"/>
<path d="M4.65918 15.2188H6.07818V16.6378H4.65918V15.2188Z" fill="#9EAEB8"/>
<path d="M19.3444 1.33052H18.8794V3.28252C18.8794 3.44736 18.8139 3.60544 18.6974 3.72199C18.5808 3.83854 18.4227 3.90402 18.2579 3.90402C18.0931 3.90402 17.935 3.83854 17.8184 3.72199C17.7019 3.60544 17.6364 3.44736 17.6364 3.28252V0.620523C17.6364 0.455691 17.5709 0.29761 17.4544 0.181057C17.3378 0.0645027 17.1797 -0.000976562 17.0149 -0.000976562C16.8501 -0.000976562 16.692 0.0645027 16.5754 0.181057C16.4589 0.29761 16.3934 0.455691 16.3934 0.620523V1.33052H14.8864V3.28252C14.8864 3.44736 14.8209 3.60544 14.7044 3.72199C14.5878 3.83854 14.4297 3.90402 14.2649 3.90402C14.1001 3.90402 13.942 3.83854 13.8254 3.72199C13.7089 3.60544 13.6434 3.44736 13.6434 3.28252V0.620523C13.6434 0.455691 13.5779 0.29761 13.4614 0.181057C13.3448 0.0645027 13.1867 -0.000976562 13.0219 -0.000976562C12.8571 -0.000976562 12.699 0.0645027 12.5824 0.181057C12.4659 0.29761 12.4004 0.455691 12.4004 0.620523V1.33052H10.8934V3.28252C10.8934 3.36414 10.8773 3.44496 10.8461 3.52036C10.8148 3.59577 10.7691 3.66428 10.7114 3.72199C10.6536 3.7797 10.5851 3.82548 10.5097 3.85671C10.4343 3.88795 10.3535 3.90402 10.2719 3.90402C10.1903 3.90402 10.1095 3.88795 10.034 3.85671C9.95864 3.82548 9.89013 3.7797 9.83242 3.72199C9.77471 3.66428 9.72893 3.59577 9.6977 3.52036C9.66646 3.44496 9.65039 3.36414 9.65039 3.28252V0.620523C9.65039 0.455691 9.58491 0.29761 9.46835 0.181057C9.3518 0.0645027 9.19372 -0.000976562 9.02889 -0.000976562C8.86405 -0.000976562 8.70597 0.0645027 8.58942 0.181057C8.47287 0.29761 8.40739 0.455691 8.40739 0.620523V1.33052H6.89939V3.28252C6.89939 3.44736 6.83391 3.60544 6.71735 3.72199C6.6008 3.83854 6.44272 3.90402 6.27789 3.90402C6.11305 3.90402 5.95497 3.83854 5.83842 3.72199C5.72187 3.60544 5.65639 3.44736 5.65639 3.28252V0.620523C5.65639 0.455691 5.59091 0.29761 5.47435 0.181057C5.3578 0.0645027 5.19972 -0.000976562 5.03489 -0.000976562C4.87005 -0.000976562 4.71197 0.0645027 4.59542 0.181057C4.47887 0.29761 4.41339 0.455691 4.41339 0.620523V1.33052H2.70639C2.10061 1.33132 1.51987 1.57231 1.09152 2.00066C0.663176 2.42901 0.42218 3.00975 0.421387 3.61552L0.421387 5.32352H21.6294V3.61552C21.6286 3.00975 21.3876 2.42901 20.9592 2.00066C20.5309 1.57231 19.9502 1.33132 19.3444 1.33052Z" fill="#9EAEB8"/>
<path d="M0.421387 18.9224C0.42218 19.5282 0.663176 20.1089 1.09152 20.5373C1.51987 20.9656 2.10061 21.2066 2.70639 21.2074H19.3444C19.9502 21.2066 20.5309 20.9656 20.9592 20.5373C21.3876 20.1089 21.6286 19.5282 21.6294 18.9224V6.56641H0.421387V18.9224ZM12.9774 17.2584C12.9774 17.34 12.9613 17.4207 12.9301 17.496C12.8989 17.5714 12.8532 17.6398 12.7955 17.6975C12.7378 17.7552 12.6694 17.8009 12.594 17.8321C12.5187 17.8633 12.4379 17.8794 12.3564 17.8794H9.69439C9.52969 17.8794 9.37173 17.814 9.25527 17.6975C9.13881 17.581 9.07339 17.4231 9.07339 17.2584V14.5964C9.07339 14.4317 9.13881 14.2737 9.25527 14.1573C9.37173 14.0408 9.52969 13.9754 9.69439 13.9754H12.3564C12.4379 13.9754 12.5187 13.9915 12.594 14.0227C12.6694 14.0539 12.7378 14.0996 12.7955 14.1573C12.8532 14.215 12.8989 14.2834 12.9301 14.3587C12.9613 14.4341 12.9774 14.5149 12.9774 14.5964V17.2584ZM14.7294 9.2724C14.7294 9.19085 14.7454 9.1101 14.7767 9.03476C14.8079 8.95942 14.8536 8.89095 14.9113 8.83328C14.9689 8.77562 15.0374 8.72988 15.1127 8.69867C15.1881 8.66746 15.2688 8.6514 15.3504 8.6514H18.0124C18.1771 8.6514 18.335 8.71682 18.4515 8.83328C18.568 8.94974 18.6334 9.1077 18.6334 9.2724V11.9334C18.6334 12.0981 18.568 12.2561 18.4515 12.3725C18.335 12.489 18.1771 12.5544 18.0124 12.5544H15.3514C15.2698 12.5544 15.1891 12.5383 15.1137 12.5071C15.0384 12.4759 14.9699 12.4302 14.9123 12.3725C14.8546 12.3148 14.8089 12.2464 14.7777 12.1711C14.7464 12.0957 14.7304 12.0149 14.7304 11.9334L14.7294 9.2724ZM14.7294 14.5964C14.7294 14.5149 14.7454 14.4341 14.7767 14.3587C14.8079 14.2834 14.8536 14.215 14.9113 14.1573C14.9689 14.0996 15.0374 14.0539 15.1127 14.0227C15.1881 13.9915 15.2688 13.9754 15.3504 13.9754H18.0124C18.0939 13.9754 18.1747 13.9915 18.25 14.0227C18.3254 14.0539 18.3938 14.0996 18.4515 14.1573C18.5092 14.215 18.5549 14.2834 18.5861 14.3587C18.6173 14.4341 18.6334 14.5149 18.6334 14.5964V17.2584C18.6334 17.34 18.6173 17.4207 18.5861 17.496C18.5549 17.5714 18.5092 17.6398 18.4515 17.6975C18.3938 17.7552 18.3254 17.8009 18.25 17.8321C18.1747 17.8633 18.0939 17.8794 18.0124 17.8794H15.3514C15.2698 17.8794 15.1891 17.8633 15.1137 17.8321C15.0384 17.8009 14.9699 17.7552 14.9123 17.6975C14.8546 17.6398 14.8089 17.5714 14.7777 17.496C14.7464 17.4207 14.7304 17.34 14.7304 17.2584L14.7294 14.5964ZM9.17339 10.1644C9.23107 10.1066 9.29957 10.0608 9.37499 10.0295C9.4504 9.99823 9.53124 9.98213 9.61289 9.98213C9.69453 9.98213 9.77537 9.99823 9.85079 10.0295C9.9262 10.0608 9.99471 10.1066 10.0524 10.1644L10.5524 10.6644L11.9954 9.22141C12.1119 9.10484 12.27 9.03935 12.4349 9.03935C12.5997 9.03935 12.7578 9.10484 12.8744 9.22141C12.9909 9.33797 13.0564 9.49606 13.0564 9.6609C13.0564 9.82575 12.9909 9.98384 12.8744 10.1004L10.9924 11.9824C10.9347 12.0402 10.8662 12.086 10.7908 12.1173C10.7154 12.1486 10.6345 12.1647 10.5529 12.1647C10.4712 12.1647 10.3904 12.1486 10.315 12.1173C10.2396 12.086 10.1711 12.0402 10.1134 11.9824L9.17239 11.0414C9.05657 10.9247 8.99174 10.7669 8.99211 10.6025C8.99249 10.4381 9.05804 10.2805 9.17439 10.1644H9.17339ZM3.41539 9.2724C3.41539 9.1077 3.48081 8.94974 3.59727 8.83328C3.71373 8.71682 3.87169 8.6514 4.03639 8.6514H6.69939C6.86409 8.6514 7.02204 8.71682 7.1385 8.83328C7.25496 8.94974 7.32039 9.1077 7.32039 9.2724V11.9334C7.32039 12.0981 7.25496 12.2561 7.1385 12.3725C7.02204 12.489 6.86409 12.5544 6.69939 12.5544H4.03739C3.87269 12.5544 3.71473 12.489 3.59827 12.3725C3.48181 12.2561 3.41639 12.0981 3.41639 11.9334L3.41539 9.2724ZM3.41539 14.5964C3.41539 14.4317 3.48081 14.2737 3.59727 14.1573C3.71373 14.0408 3.87169 13.9754 4.03639 13.9754H6.69939C6.86409 13.9754 7.02204 14.0408 7.1385 14.1573C7.25496 14.2737 7.32039 14.4317 7.32039 14.5964V17.2584C7.32039 17.4231 7.25496 17.581 7.1385 17.6975C7.02204 17.814 6.86409 17.8794 6.69939 17.8794H4.03739C3.87269 17.8794 3.71473 17.814 3.59827 17.6975C3.48181 17.581 3.41639 17.4231 3.41639 17.2584L3.41539 14.5964Z" fill="#9EAEB8"/>
<path d="M15.9722 9.89355H17.3912V11.3125H15.9722V9.89355Z" fill="#9EAEB8"/>
</svg>
