<svg width="20" height="20" viewBox="0 0 20 20" fill="none" xmlns="http://www.w3.org/2000/svg">
<path d="M9.09863 14.0098H10.3606V15.2718H9.09863V14.0098Z" fill="white"/>
<path d="M14.1299 14.0098H15.3959V15.2718H14.1339L14.1299 14.0098Z" fill="white"/>
<path d="M4.06934 9.27539H5.33133V10.5374H4.06934V9.27539Z" fill="white"/>
<path d="M4.06934 14.0098H5.33133V15.2718H4.06934V14.0098Z" fill="white"/>
<path d="M17.1278 1.66064H16.7138V3.39664C16.717 3.47117 16.705 3.54557 16.6787 3.61537C16.6523 3.68517 16.6122 3.74891 16.5605 3.80277C16.5089 3.85663 16.4469 3.89949 16.3783 3.92877C16.3097 3.95805 16.2359 3.97315 16.1613 3.97315C16.0867 3.97315 16.0129 3.95805 15.9442 3.92877C15.8756 3.89949 15.8136 3.85663 15.762 3.80277C15.7104 3.74891 15.6702 3.68517 15.6439 3.61537C15.6176 3.54557 15.6056 3.47117 15.6088 3.39664V1.02964C15.612 0.955103 15.6 0.880699 15.5737 0.810902C15.5473 0.741104 15.5072 0.677358 15.4555 0.623497C15.4039 0.569637 15.3419 0.526778 15.2733 0.497498C15.2047 0.468219 15.1309 0.453125 15.0563 0.453125C14.9817 0.453125 14.9079 0.468219 14.8392 0.497498C14.7706 0.526778 14.7086 0.569637 14.657 0.623497C14.6054 0.677358 14.5652 0.741104 14.5389 0.810902C14.5126 0.880699 14.5006 0.955103 14.5038 1.02964V1.66064H13.1638V3.39664C13.167 3.47117 13.155 3.54557 13.1287 3.61537C13.1023 3.68517 13.0622 3.74891 13.0105 3.80277C12.9589 3.85663 12.8969 3.89949 12.8283 3.92877C12.7597 3.95805 12.6859 3.97315 12.6113 3.97315C12.5367 3.97315 12.4629 3.95805 12.3942 3.92877C12.3256 3.89949 12.2636 3.85663 12.212 3.80277C12.1604 3.74891 12.1202 3.68517 12.0939 3.61537C12.0676 3.54557 12.0556 3.47117 12.0588 3.39664V1.02964C12.062 0.955103 12.05 0.880699 12.0237 0.810902C11.9973 0.741104 11.9572 0.677358 11.9055 0.623497C11.8539 0.569637 11.7919 0.526778 11.7233 0.497498C11.6547 0.468219 11.5809 0.453125 11.5063 0.453125C11.4317 0.453125 11.3579 0.468219 11.2892 0.497498C11.2206 0.526778 11.1586 0.569637 11.107 0.623497C11.0554 0.677358 11.0152 0.741104 10.9889 0.810902C10.9626 0.880699 10.9506 0.955103 10.9538 1.02964V1.66064H9.61278V3.39664C9.61595 3.47117 9.60401 3.54557 9.57768 3.61537C9.55134 3.68517 9.51115 3.74891 9.45954 3.80277C9.40792 3.85663 9.34594 3.89949 9.27732 3.92877C9.20871 3.95805 9.13488 3.97315 9.06028 3.97315C8.98568 3.97315 8.91185 3.95805 8.84324 3.92877C8.77462 3.89949 8.71264 3.85663 8.66103 3.80277C8.60941 3.74891 8.56922 3.68517 8.54289 3.61537C8.51655 3.54557 8.50461 3.47117 8.50778 3.39664V1.02964C8.50778 0.882838 8.44947 0.742053 8.34566 0.638252C8.24186 0.534451 8.10108 0.476136 7.95428 0.476136C7.80748 0.476136 7.6667 0.534451 7.5629 0.638252C7.4591 0.742053 7.40078 0.882838 7.40078 1.02964V1.66064H6.06178V3.39664C6.06495 3.47117 6.05301 3.54557 6.02668 3.61537C6.00034 3.68517 5.96015 3.74891 5.90854 3.80277C5.85692 3.85663 5.79494 3.89949 5.72633 3.92877C5.65771 3.95805 5.58388 3.97315 5.50928 3.97315C5.43468 3.97315 5.36085 3.95805 5.29224 3.92877C5.22362 3.89949 5.16164 3.85663 5.11003 3.80277C5.05841 3.74891 5.01822 3.68517 4.99189 3.61537C4.96555 3.54557 4.95361 3.47117 4.95678 3.39664V1.02964C4.95995 0.955103 4.94801 0.880699 4.92168 0.810902C4.89534 0.741104 4.85515 0.677358 4.80354 0.623497C4.75192 0.569637 4.68994 0.526778 4.62133 0.497498C4.55271 0.468219 4.47888 0.453125 4.40428 0.453125C4.32968 0.453125 4.25585 0.468219 4.18724 0.497498C4.11862 0.526778 4.05664 0.569637 4.00503 0.623497C3.95341 0.677358 3.91322 0.741104 3.88689 0.810902C3.86055 0.880699 3.84861 0.955103 3.85178 1.02964V1.66064H2.33278C1.79402 1.66117 1.27748 1.87542 0.896525 2.25638C0.515566 2.63734 0.301311 3.15388 0.300781 3.69264L0.300781 5.21164H19.1598V3.69264C19.1593 3.15388 18.945 2.63734 18.564 2.25638C18.1831 1.87542 17.6665 1.66117 17.1278 1.66064Z" fill="white"/>
<path d="M0.300781 17.3044C0.301311 17.8432 0.515566 18.3597 0.896525 18.7407C1.27748 19.1216 1.79402 19.3359 2.33278 19.3364H17.1328C17.6715 19.3359 18.1881 19.1216 18.569 18.7407C18.95 18.3597 19.1643 17.8432 19.1648 17.3044V6.31641H0.300781V17.3044ZM11.4668 15.8244C11.4668 15.897 11.4525 15.9689 11.4247 16.036C11.3969 16.1031 11.3562 16.1641 11.3048 16.2154C11.2535 16.2668 11.1925 16.3075 11.1254 16.3353C11.0583 16.3631 10.9864 16.3774 10.9138 16.3774H8.54678C8.40012 16.3774 8.25946 16.3191 8.15575 16.2154C8.05204 16.1117 7.99378 15.9711 7.99378 15.8244V13.4574C7.99378 13.3107 8.05204 13.1701 8.15575 13.0664C8.25946 12.9627 8.40012 12.9044 8.54678 12.9044H10.9138C10.9864 12.9044 11.0583 12.9187 11.1254 12.9465C11.1925 12.9743 11.2535 13.015 11.3048 13.0664C11.3562 13.1177 11.3969 13.1787 11.4247 13.2458C11.4525 13.3129 11.4668 13.3848 11.4668 13.4574V15.8244ZM13.0248 8.7244C13.0248 8.65177 13.0391 8.57986 13.0669 8.51277C13.0947 8.44568 13.1354 8.38472 13.1868 8.33337C13.2381 8.28202 13.2991 8.24129 13.3662 8.2135C13.4333 8.18571 13.5052 8.1714 13.5778 8.1714H15.9448C16.0914 8.1714 16.2321 8.22967 16.3358 8.33337C16.4395 8.43708 16.4978 8.57773 16.4978 8.7244V11.0914C16.4978 11.2381 16.4395 11.3787 16.3358 11.4824C16.2321 11.5861 16.0914 11.6444 15.9448 11.6444H13.5768C13.4301 11.6444 13.2895 11.5861 13.1858 11.4824C13.082 11.3787 13.0238 11.2381 13.0238 11.0914L13.0248 8.7244ZM13.0248 13.4594C13.0248 13.3868 13.0391 13.3149 13.0669 13.2478C13.0947 13.1807 13.1354 13.1197 13.1868 13.0684C13.2381 13.017 13.2991 12.9763 13.3662 12.9485C13.4333 12.9207 13.5052 12.9064 13.5778 12.9064H15.9448C16.0914 12.9064 16.2321 12.9647 16.3358 13.0684C16.4395 13.1721 16.4978 13.3127 16.4978 13.4594V15.8264C16.4978 15.9731 16.4395 16.1137 16.3358 16.2174C16.2321 16.3211 16.0914 16.3794 15.9448 16.3794H13.5768C13.4301 16.3794 13.2895 16.3211 13.1858 16.2174C13.082 16.1137 13.0238 15.9731 13.0238 15.8264L13.0248 13.4594ZM8.08478 9.5174C8.18845 9.41401 8.32888 9.35596 8.47528 9.35596C8.62169 9.35596 8.76212 9.41401 8.86578 9.5174L9.31178 9.96339L10.5948 8.6804C10.7 8.58557 10.8377 8.53475 10.9793 8.53844C11.121 8.54213 11.2558 8.60004 11.356 8.70023C11.4561 8.80041 11.5141 8.93522 11.5177 9.07686C11.5214 9.21849 11.4706 9.35613 11.3758 9.4614L9.70078 11.1344C9.64952 11.1857 9.58864 11.2264 9.52164 11.2542C9.45463 11.282 9.38281 11.2962 9.31028 11.2962C9.23775 11.2962 9.16593 11.282 9.09892 11.2542C9.03192 11.2264 8.97105 11.1857 8.91978 11.1344L8.08278 10.2974C8.03147 10.2461 7.99077 10.1853 7.96299 10.1183C7.93522 10.0513 7.92093 9.97944 7.92093 9.90691C7.92093 9.83437 7.93522 9.76255 7.96299 9.69554C7.99077 9.62854 8.03147 9.56767 8.08278 9.5164L8.08478 9.5174ZM2.96478 8.7244C2.96478 8.57773 3.02304 8.43708 3.12675 8.33337C3.23046 8.22967 3.37112 8.1714 3.51778 8.1714H5.88378C6.03045 8.1714 6.1711 8.22967 6.27481 8.33337C6.37852 8.43708 6.43678 8.57773 6.43678 8.7244V11.0914C6.43678 11.2381 6.37852 11.3787 6.27481 11.4824C6.1711 11.5861 6.03045 11.6444 5.88378 11.6444H3.51678C3.37012 11.6444 3.22946 11.5861 3.12575 11.4824C3.02204 11.3787 2.96378 11.2381 2.96378 11.0914L2.96478 8.7244ZM2.96478 13.4594C2.96478 13.3127 3.02304 13.1721 3.12675 13.0684C3.23046 12.9647 3.37112 12.9064 3.51778 12.9064H5.88378C6.03045 12.9064 6.1711 12.9647 6.27481 13.0684C6.37852 13.1721 6.43678 13.3127 6.43678 13.4594V15.8264C6.43678 15.9731 6.37852 16.1137 6.27481 16.2174C6.1711 16.3211 6.03045 16.3794 5.88378 16.3794H3.51678C3.37012 16.3794 3.22946 16.3211 3.12575 16.2174C3.02204 16.1137 2.96378 15.9731 2.96378 15.8264L2.96478 13.4594Z" fill="white"/>
<path d="M14.1299 9.27539H15.3959V10.5374H14.1339L14.1299 9.27539Z" fill="white"/>
</svg>
