<svg xmlns="http://www.w3.org/2000/svg" width="17.601" height="18" viewBox="0 0 17.601 18">
    <defs>
        <style>
            .cls-1{fill:#4b56c0}
        </style>
    </defs>
    <g id="calendar" transform="translate(-5.411)">
        <g id="Group_6955" transform="translate(5.411)">
            <path id="Path_3528" d="M119.278 258.65a.408.408 0 0 0-.409-.408h-1.426a.408.408 0 0 0-.408.408v1.426a.408.408 0 0 0 .408.409h1.426a.408.408 0 0 0 .409-.409v-1.426z" class="cls-1" transform="translate(-112.919 -248.72)"/>
            <path id="Path_3529" d="M215.912 258.65a.408.408 0 0 0-.408-.408h-1.426a.408.408 0 0 0-.408.408v1.426a.408.408 0 0 0 .408.409h1.422a.408.408 0 0 0 .408-.409z" class="cls-1" transform="translate(-205.991 -248.72)"/>
            <path id="Path_3530" d="M312.541 258.65a.408.408 0 0 0-.408-.408h-1.426a.408.408 0 0 0-.409.408v1.426a.408.408 0 0 0 .409.409h1.426a.408.408 0 0 0 .408-.409z" class="cls-1" transform="translate(-299.056 -248.72)"/>
            <path id="Path_3531" d="M119.278 355.283a.408.408 0 0 0-.409-.408h-1.426a.408.408 0 0 0-.408.408v1.425a.408.408 0 0 0 .408.408h1.426a.408.408 0 0 0 .409-.408v-1.425z" class="cls-1" transform="translate(-112.919 -341.789)"/>
            <path id="Path_3532" d="M215.912 355.283a.408.408 0 0 0-.408-.408h-1.426a.408.408 0 0 0-.408.408v1.425a.408.408 0 0 0 .408.408h1.422a.408.408 0 0 0 .408-.408z" class="cls-1" transform="translate(-205.991 -341.789)"/>
            <path id="Path_3533" d="M312.541 355.283a.408.408 0 0 0-.408-.408h-1.426a.408.408 0 0 0-.409.408v1.425a.408.408 0 0 0 .409.408h1.426a.408.408 0 0 0 .408-.408v-1.425z" class="cls-1" transform="translate(-299.056 -341.789)"/>
            <path id="Path_3534" d="M21.445 54.15v2.177a1.778 1.778 0 0 1-1.782 1.773h-1.125a1.787 1.787 0 0 1-1.793-1.777v-2.181h-5.068v2.185A1.787 1.787 0 0 1 9.885 58.1H8.76a1.778 1.778 0 0 1-1.782-1.777V54.15a1.621 1.621 0 0 0-1.567 1.612v12.761a1.622 1.622 0 0 0 1.613 1.623H21.4a1.623 1.623 0 0 0 1.613-1.623V55.762a1.621 1.621 0 0 0-1.568-1.612zm-.522 13.578a.7.7 0 0 1-.7.7H8.167a.7.7 0 0 1-.7-.7v-6.591a.7.7 0 0 1 .7-.7h12.058a.7.7 0 0 1 .7.7v6.591z" class="cls-1" transform="translate(-5.411 -52.146)"/>
            <path id="Path_3535" d="M80.161 4.792h1.112a.611.611 0 0 0 .611-.611V.611A.611.611 0 0 0 81.273 0h-1.112a.611.611 0 0 0-.611.611v3.57a.611.611 0 0 0 .611.611z" class="cls-1" transform="translate(-76.816)"/>
            <path id="Path_3536" d="M345.069 4.792h1.112a.611.611 0 0 0 .611-.611V.611a.611.611 0 0 0-.611-.611h-1.112a.611.611 0 0 0-.611.611v3.57a.611.611 0 0 0 .611.611z" class="cls-1" transform="translate(-331.956)"/>
        </g>
    </g>
</svg>
