<svg xmlns="http://www.w3.org/2000/svg" width="23" height="23" viewBox="0 0 23 23" fill="none">
<g clip-path="url(#clip0_223_43462)">
<path d="M8.29408 7.74542L4.46857 12.5801C4.07429 12.4064 3.64245 12.3079 3.18714 12.3079C1.43163 12.3079 0 13.7395 0 15.495C0 17.2505 1.43163 18.6822 3.18714 18.6822C4.94265 18.6822 6.37429 17.2505 6.37429 15.495C6.37429 14.7769 6.1349 14.1103 5.73122 13.5752L9.55674 8.74052C9.90878 8.92358 10.2937 9.05971 10.6927 9.13481V15.9644C9.32204 16.3211 8.30816 17.5697 8.30816 19.0483C8.30816 20.8085 9.7398 22.2354 11.4953 22.2354C13.2508 22.2354 14.6824 20.8038 14.6824 19.0483C14.6824 17.5697 13.6686 16.3211 12.298 15.9644V9.1395C12.6876 9.0644 13.0537 8.93767 13.3963 8.76399L17.2265 13.6222C16.8416 14.1479 16.6116 14.7956 16.6116 15.4997C16.6116 17.2552 18.0433 18.6869 19.7988 18.6869C21.5543 18.6869 23 17.2552 23 15.495C23 13.7395 21.5684 12.3079 19.8129 12.3079C19.3388 12.3079 18.8882 12.4111 18.4845 12.5989L14.6778 7.77358C15.3302 7.02726 15.7292 6.05563 15.7292 4.99012C15.7292 2.66195 13.8329 0.765625 11.5047 0.765625C9.17653 0.765625 7.2802 2.66195 7.2802 4.99012C7.27551 6.04154 7.66041 7.00379 8.29408 7.74542ZM3.18714 17.0769C2.31878 17.0769 1.61 16.3681 1.61 15.4997C1.61 14.6313 2.31878 13.9226 3.18714 13.9226C4.05551 13.9226 4.76429 14.6313 4.76429 15.4997C4.76429 16.3681 4.0602 17.0769 3.18714 17.0769ZM13.0771 19.0577C13.0771 19.926 12.3684 20.6348 11.5 20.6348C10.6316 20.6348 9.92286 19.926 9.92286 19.0577C9.92286 18.1987 10.6129 17.4993 11.4718 17.4805C11.4812 17.4805 11.4906 17.4805 11.5047 17.4805C11.5141 17.4805 11.5235 17.4805 11.5376 17.4805C12.3871 17.4946 13.0771 18.1987 13.0771 19.0577ZM21.39 15.495C21.39 16.3634 20.6812 17.0722 19.8129 17.0722C18.9445 17.0722 18.2357 16.3634 18.2357 15.495C18.2357 14.6266 18.9445 13.9179 19.8129 13.9179C20.6812 13.9179 21.39 14.6266 21.39 15.495ZM11.5 2.37563C12.941 2.37563 14.1145 3.54909 14.1145 4.99012C14.1145 6.43114 12.941 7.6046 11.5 7.6046C10.059 7.6046 8.88551 6.43114 8.88551 4.99012C8.88551 3.54909 10.059 2.37563 11.5 2.37563Z" fill="#BCBCBD"/>
</g>
<defs>
<clipPath id="clip0_223_43462">
<rect width="23" height="23" fill="white"/>
</clipPath>
</defs>
</svg>