<svg width="20" height="20" viewBox="0 0 20 20" fill="none" xmlns="http://www.w3.org/2000/svg">
<g id="fi_6744993">
<path id="Vector" fill-rule="evenodd" clip-rule="evenodd" d="M7.8975 15.16L9.79539 17.0579C10.0236 17.2861 10.0236 17.6583 9.79539 17.8865L9.01239 18.6696C8.78418 18.8978 8.41195 18.8978 8.18375 18.6696L5.84047 16.3263L7.64285 15.2856C7.72754 15.2431 7.81242 15.2013 7.8975 15.16ZM19.2854 7.96834C19.5312 8.04827 19.6657 8.31237 19.5857 8.55819C19.5058 8.80401 19.2417 8.9385 18.9959 8.85858L17.2913 8.30475C17.0455 8.22483 16.911 7.96073 16.9909 7.71491C17.0709 7.46909 17.335 7.33459 17.5808 7.41456L19.2854 7.96834ZM17.3549 5.461C17.1307 5.59045 16.844 5.51362 16.7146 5.2894C16.5852 5.06522 16.662 4.7785 16.8862 4.64909L18.4258 3.76014C18.65 3.63069 18.9367 3.70752 19.0661 3.9317C19.1956 4.15592 19.1188 4.4426 18.8946 4.57206L17.3549 5.461ZM14.7643 1.52913C14.8179 1.27627 15.0664 1.11483 15.3193 1.1685C15.5722 1.22217 15.7336 1.47069 15.68 1.72358L15.3073 3.4767C15.2536 3.72956 15.0051 3.891 14.7522 3.83733C14.4994 3.78366 14.3379 3.53514 14.3916 3.28229L14.7643 1.52913ZM9.86461 2.06666C9.41684 2.32518 9.26196 2.90315 9.52051 3.35092L14.6589 12.2509C14.9175 12.6987 15.4954 12.8535 15.9432 12.595C16.391 12.3365 16.5458 11.7585 16.2873 11.3108L14.5392 8.28303L14.7677 8.15112C15.5641 7.69131 15.8395 6.66358 15.3797 5.86717C14.9199 5.07081 13.8921 4.79541 13.0957 5.25518L12.8673 5.38709L11.1489 2.41073C10.8904 1.96303 10.3124 1.80815 9.86461 2.06666ZM1.13735 14.09L1.54684 14.7993C2.24305 16.0052 3.79926 16.4222 5.00516 15.726L6.79344 14.6935L3.44278 8.88999L1.65449 9.92245C0.448635 10.6187 0.0316426 12.1749 0.727854 13.3807L1.13735 14.09ZM4.23531 8.39581C6.17531 7.06338 7.66879 5.58127 8.82735 4.02538L13.6986 12.4626C11.7718 12.688 9.74153 13.2403 7.61762 14.2542L4.23531 8.39581Z" fill="#BCBCBD"/>
</g>
</svg>
