<svg xmlns="http://www.w3.org/2000/svg" width="20" height="20" viewBox="0 0 20 20" fill="none">
<path fill-rule="evenodd" clip-rule="evenodd" d="M7.89799 15.16L9.79588 17.0579C10.0241 17.2861 10.0241 17.6583 9.79588 17.8865L9.01287 18.6696C8.78467 18.8978 8.41244 18.8978 8.18424 18.6696L5.84096 16.3263L7.64334 15.2856C7.72803 15.2431 7.81291 15.2013 7.89799 15.16ZM19.2858 7.96834C19.5317 8.04827 19.6662 8.31237 19.5862 8.55819C19.5063 8.80401 19.2422 8.9385 18.9964 8.85858L17.2918 8.30475C17.046 8.22483 16.9115 7.96073 16.9914 7.71491C17.0714 7.46909 17.3355 7.33459 17.5813 7.41456L19.2858 7.96834ZM17.3554 5.461C17.1312 5.59045 16.8445 5.51362 16.7151 5.2894C16.5856 5.06522 16.6625 4.7785 16.8867 4.64909L18.4263 3.76014C18.6505 3.63069 18.9372 3.70752 19.0666 3.9317C19.1961 4.15592 19.1192 4.4426 18.8951 4.57206L17.3554 5.461ZM14.7647 1.52913C14.8184 1.27627 15.0669 1.11483 15.3198 1.1685C15.5727 1.22217 15.7341 1.47069 15.6805 1.72358L15.3078 3.4767C15.2541 3.72956 15.0056 3.891 14.7527 3.83733C14.4999 3.78366 14.3384 3.53514 14.3921 3.28229L14.7647 1.52913ZM9.8651 2.06666C9.41733 2.32518 9.26244 2.90315 9.521 3.35092L14.6594 12.2509C14.918 12.6987 15.4959 12.8535 15.9437 12.595C16.3915 12.3365 16.5463 11.7585 16.2878 11.3108L14.5397 8.28303L14.7682 8.15112C15.5646 7.69131 15.8399 6.66358 15.3802 5.86717C14.9204 5.07081 13.8926 4.79541 13.0962 5.25518L12.8678 5.38709L11.1494 2.41073C10.8908 1.96303 10.3129 1.80815 9.8651 2.06666ZM1.13783 14.09L1.54733 14.7993C2.24354 16.0052 3.79975 16.4222 5.00565 15.726L6.79393 14.6935L3.44326 8.88999L1.65498 9.92245C0.449123 10.6187 0.0321309 12.1749 0.728342 13.3807L1.13783 14.09ZM4.2358 8.39581C6.1758 7.06338 7.66928 5.58127 8.82783 4.02538L13.699 12.4626C11.7723 12.688 9.74201 13.2403 7.61811 14.2542L4.2358 8.39581Z" fill="white"/>
</svg>