<svg width="23" height="23" viewBox="0 0 23 23" fill="none" xmlns="http://www.w3.org/2000/svg">
<g clip-path="url(#clip0_19_49021)">
<path d="M13.6842 19.0242L12.6731 18.3534C12.6073 18.3095 12.5534 18.25 12.5162 18.1801C12.479 18.1103 12.4596 18.0324 12.4599 17.9533V11.9805H10.5432V17.9533C10.5432 18.0321 10.5238 18.1098 10.4866 18.1793C10.4494 18.2489 10.3956 18.3082 10.33 18.3519L9.31894 19.0242C9.25334 19.068 9.19955 19.1273 9.16235 19.1968C9.12516 19.2664 9.1057 19.344 9.10571 19.4229V19.6471C9.10571 19.7742 9.1562 19.8961 9.24606 19.986C9.33592 20.0758 9.4578 20.1263 9.58488 20.1263H13.4182C13.5453 20.1263 13.6672 20.0758 13.757 19.986C13.8469 19.8961 13.8974 19.7742 13.8974 19.6471V19.4243C13.8976 19.3452 13.8783 19.2673 13.8411 19.1975C13.8039 19.1276 13.75 19.0681 13.6842 19.0242Z" fill="#BCBCBD"/>
<path d="M17.7294 9.10547H4.79191C4.52727 9.10547 4.31274 9.32 4.31274 9.58464V10.543C4.31274 10.8076 4.52727 11.0221 4.79191 11.0221H17.7294C17.994 11.0221 18.2086 10.8076 18.2086 10.543V9.58464C18.2086 9.32 17.994 9.10547 17.7294 9.10547Z" fill="#BCBCBD"/>
<path d="M11.9799 4.33837V3.83333H12.4591C12.5862 3.83333 12.7081 3.78285 12.7979 3.69299C12.8878 3.60313 12.9383 3.48125 12.9383 3.35417C12.9383 3.22708 12.8878 3.10521 12.7979 3.01534C12.7081 2.92548 12.5862 2.875 12.4591 2.875H10.5424C10.4153 2.875 10.2935 2.92548 10.2036 3.01534C10.1137 3.10521 10.0633 3.22708 10.0633 3.35417C10.0633 3.48125 10.1137 3.60313 10.2036 3.69299C10.2935 3.78285 10.4153 3.83333 10.5424 3.83333H11.0216V4.33837C10.005 4.44168 9.04797 4.86663 8.28959 5.5514C7.53122 6.23618 7.01111 7.14506 6.80493 8.14583H16.1966C15.9904 7.14506 15.4703 6.23618 14.7119 5.5514C13.9536 4.86663 12.9965 4.44168 11.9799 4.33837ZM10.8778 6.29673C10.2183 6.44394 9.63125 6.81783 9.21897 7.35329C9.14164 7.4542 9.0274 7.52025 8.90137 7.53692C8.77534 7.55359 8.64785 7.51951 8.54694 7.44218C8.44604 7.36485 8.37999 7.2506 8.36332 7.12457C8.34665 6.99854 8.38073 6.87105 8.45806 6.77015C9.00784 6.05597 9.79073 5.55727 10.6704 5.36092C10.7318 5.34729 10.7953 5.34591 10.8573 5.35683C10.9193 5.36776 10.9785 5.39079 11.0316 5.42461C11.0847 5.45842 11.1306 5.50236 11.1667 5.55392C11.2028 5.60548 11.2284 5.66364 11.242 5.72508C11.2556 5.78653 11.257 5.85006 11.2461 5.91204C11.2352 5.97402 11.2121 6.03325 11.1783 6.08633C11.1445 6.13941 11.1006 6.18531 11.049 6.22141C10.9975 6.25751 10.9393 6.28311 10.8778 6.29673Z" fill="#BCBCBD"/>
<path d="M22.7612 7.99332C22.6715 7.89104 22.561 7.80911 22.437 7.753C22.3131 7.69689 22.1786 7.6679 22.0425 7.66797H21.5255C21.3155 7.66907 21.1117 7.73911 20.9454 7.86732C20.7791 7.99554 20.6595 8.17482 20.605 8.37762L19.3654 13.0073H16.4094C16.0914 13.0076 15.7825 13.1138 15.5315 13.309C15.2804 13.5041 15.1014 13.7773 15.0227 14.0854L14.8861 14.6159C14.8496 14.7574 14.8459 14.9055 14.8754 15.0487C14.9049 15.1919 14.9667 15.3264 15.0562 15.442C15.1457 15.5577 15.2604 15.6513 15.3917 15.7157C15.5229 15.7801 15.6671 15.8137 15.8133 15.8138H15.8464L14.9211 19.5312C14.9059 19.5923 14.9029 19.6558 14.9123 19.718C14.9216 19.7803 14.9432 19.8401 14.9757 19.894C15.0081 19.948 15.0509 19.995 15.1016 20.0324C15.1523 20.0698 15.2098 20.0968 15.2709 20.1119C15.3088 20.1216 15.3478 20.1265 15.3869 20.1263C15.4938 20.1263 15.5976 20.0905 15.6818 20.0247C15.766 19.9589 15.8258 19.8668 15.8517 19.7631L16.8325 15.8138H20.2696L21.1445 19.7511C21.1682 19.8574 21.2272 19.9524 21.3121 20.0206C21.3969 20.0888 21.5024 20.1261 21.6112 20.1263C21.6464 20.1262 21.6814 20.1224 21.7157 20.1148C21.7772 20.1012 21.8353 20.0756 21.8869 20.0395C21.9385 20.0034 21.9824 19.9575 22.0162 19.9044C22.05 19.8513 22.0731 19.7921 22.084 19.7301C22.0949 19.6681 22.0935 19.6046 22.0799 19.5432L21.2346 15.7405C21.4931 15.6581 21.723 15.5043 21.8977 15.2969C22.0725 15.0894 22.185 14.8367 22.2222 14.568L22.9927 8.75472C23.0107 8.61864 22.9994 8.48027 22.9595 8.34893C22.9196 8.21759 22.852 8.09633 22.7612 7.99332Z" fill="#BCBCBD"/>
<path d="M7.94459 15.4434C8.03468 15.3278 8.09697 15.1931 8.12663 15.0496C8.15629 14.9061 8.15254 14.7577 8.11565 14.6159L7.97861 14.0859C7.90007 13.7778 7.7212 13.5046 7.4702 13.3094C7.2192 13.1142 6.91036 13.0081 6.59238 13.0078H3.63832L2.39871 8.37761C2.34412 8.17443 2.22417 7.99485 2.05738 7.8666C1.89059 7.73835 1.68623 7.66855 1.47584 7.66797H0.955464C0.819193 7.66841 0.684582 7.69791 0.560616 7.7545C0.436649 7.81109 0.326176 7.89347 0.236569 7.99613C0.146961 8.0988 0.08028 8.2194 0.0409742 8.34988C0.00166838 8.48036 -0.00935807 8.61772 0.00863057 8.7528L0.779131 14.568C0.815843 14.8368 0.927884 15.0897 1.1023 15.2976C1.27672 15.5054 1.5064 15.6596 1.76478 15.7424L0.919527 19.5432C0.891949 19.6673 0.914799 19.7972 0.983049 19.9045C1.0513 20.0117 1.15936 20.0875 1.28345 20.115C1.40755 20.1426 1.53752 20.1198 1.64477 20.0515C1.75202 19.9833 1.82776 19.8752 1.85534 19.7511L2.73126 15.8138H6.16976L7.15253 19.7631C7.17845 19.867 7.23846 19.9593 7.32298 20.0251C7.40749 20.091 7.51163 20.1266 7.61876 20.1263C7.65786 20.1265 7.69683 20.1216 7.73471 20.1119C7.79579 20.0967 7.85327 20.0697 7.90388 20.0323C7.95448 19.9948 7.99723 19.9478 8.02966 19.8939C8.0621 19.84 8.0836 19.7802 8.09293 19.7179C8.10225 19.6557 8.09923 19.5922 8.08403 19.5312L7.15636 15.8138H7.1899C7.33569 15.8142 7.47961 15.7809 7.61049 15.7167C7.74136 15.6525 7.85569 15.559 7.94459 15.4434Z" fill="#BCBCBD"/>
</g>
<defs>
<clipPath id="clip0_19_49021">
<rect width="23" height="23" fill="white"/>
</clipPath>
</defs>
</svg>
