<svg xmlns="http://www.w3.org/2000/svg" width="24.25" height="16.672" viewBox="0 0 24.25 16.672"><defs><style>.a{fill:#959ea7;}</style></defs><g transform="translate(-453 -313)"><path class="a" d="M24.25,83.931V82.652A2.652,2.652,0,0,0,21.6,80H2.652A2.652,2.652,0,0,0,0,82.652v1.279a.237.237,0,0,0,.237.237H24.013A.237.237,0,0,0,24.25,83.931Z" transform="translate(453 233)"/><path class="a" d="M0,200.237v8.1a2.652,2.652,0,0,0,2.652,2.652H21.6a2.652,2.652,0,0,0,2.652-2.652v-8.1a.237.237,0,0,0-.237-.237H.237A.237.237,0,0,0,0,200.237Zm6.063,6.2a.758.758,0,0,1-.758.758H4.547a.758.758,0,0,1-.758-.758v-.758a.758.758,0,0,1,.758-.758H5.3a.758.758,0,0,1,.758.758Z" transform="translate(453 118.684)"/></g></svg>