<svg width="23" height="23" viewBox="0 0 23 23" fill="none" xmlns="http://www.w3.org/2000/svg">
<g clip-path="url(#clip0_19_50271)">
<path d="M13.6827 19.0229L12.6716 18.3521C12.6058 18.3082 12.5519 18.2487 12.5147 18.1789C12.4775 18.109 12.4582 18.0311 12.4584 17.952V11.9792H10.5417V17.952C10.5418 18.0309 10.5223 18.1085 10.4851 18.178C10.4479 18.2476 10.3941 18.3069 10.3285 18.3507L9.31748 19.0229C9.25187 19.0667 9.19808 19.126 9.16089 19.1955C9.12369 19.2651 9.10424 19.3427 9.10425 19.4216V19.6458C9.10425 19.7729 9.15473 19.8948 9.24459 19.9847C9.33445 20.0745 9.45633 20.125 9.58341 20.125H13.4167C13.5438 20.125 13.6657 20.0745 13.7556 19.9847C13.8454 19.8948 13.8959 19.7729 13.8959 19.6458V19.423C13.8962 19.3439 13.8768 19.266 13.8396 19.1962C13.8024 19.1263 13.7485 19.0668 13.6827 19.0229Z" fill="#FDFDFD"/>
<path d="M17.7292 9.10417H4.79167C4.52703 9.10417 4.3125 9.3187 4.3125 9.58334V10.5417C4.3125 10.8063 4.52703 11.0208 4.79167 11.0208H17.7292C17.9938 11.0208 18.2083 10.8063 18.2083 10.5417V9.58334C18.2083 9.3187 17.9938 9.10417 17.7292 9.10417Z" fill="#FDFDFD"/>
<path d="M11.9792 4.33837V3.83333H12.4584C12.5854 3.83333 12.7073 3.78285 12.7972 3.69299C12.887 3.60313 12.9375 3.48125 12.9375 3.35417C12.9375 3.22708 12.887 3.10521 12.7972 3.01534C12.7073 2.92548 12.5854 2.875 12.4584 2.875H10.5417C10.4146 2.875 10.2927 2.92548 10.2029 3.01534C10.113 3.10521 10.0625 3.22708 10.0625 3.35417C10.0625 3.48125 10.113 3.60313 10.2029 3.69299C10.2927 3.78285 10.4146 3.83333 10.5417 3.83333H11.0209V4.33837C10.0043 4.44168 9.04723 4.86663 8.28886 5.5514C7.53049 6.23618 7.01038 7.14506 6.8042 8.14583H16.1959C15.9897 7.14506 15.4696 6.23618 14.7112 5.5514C13.9528 4.86663 12.9958 4.44168 11.9792 4.33837ZM10.8771 6.29673C10.2176 6.44394 9.63052 6.81783 9.21824 7.35329C9.14091 7.4542 9.02666 7.52025 8.90063 7.53692C8.7746 7.55359 8.64711 7.51951 8.54621 7.44218C8.44531 7.36485 8.37925 7.2506 8.36258 7.12457C8.34592 6.99854 8.37999 6.87105 8.45732 6.77015C9.00711 6.05597 9.79 5.55727 10.6696 5.36092C10.7311 5.34729 10.7946 5.34591 10.8566 5.35683C10.9186 5.36776 10.9778 5.39079 11.0309 5.42461C11.084 5.45842 11.1299 5.50236 11.166 5.55392C11.2021 5.60548 11.2277 5.66364 11.2413 5.72508C11.2549 5.78653 11.2563 5.85006 11.2454 5.91204C11.2344 5.97402 11.2114 6.03325 11.1776 6.08633C11.1438 6.13941 11.0998 6.18531 11.0483 6.22141C10.9967 6.25751 10.9386 6.28311 10.8771 6.29673Z" fill="#FDFDFD"/>
<path d="M22.7605 7.99203C22.6708 7.88975 22.5602 7.80781 22.4363 7.7517C22.3123 7.69559 22.1778 7.6666 22.0418 7.66667H21.5247C21.3148 7.66777 21.1109 7.73781 20.9446 7.86603C20.7783 7.99424 20.6588 8.17352 20.6043 8.37632L19.3647 13.006H16.4087C16.0907 13.0063 15.7818 13.1125 15.5307 13.3077C15.2797 13.5028 15.1007 13.776 15.022 14.0842L14.8854 14.6146C14.8489 14.7561 14.8452 14.9042 14.8747 15.0474C14.9041 15.1906 14.966 15.3251 15.0555 15.4407C15.145 15.5564 15.2597 15.65 15.3909 15.7144C15.5222 15.7788 15.6664 15.8124 15.8126 15.8125H15.8457L14.9204 19.5299C14.9052 19.591 14.9022 19.6545 14.9115 19.7167C14.9209 19.779 14.9424 19.8388 14.9749 19.8927C15.0074 19.9467 15.0502 19.9937 15.1009 20.0311C15.1515 20.0685 15.2091 20.0955 15.2702 20.1106C15.3081 20.1203 15.347 20.1252 15.3861 20.125C15.493 20.125 15.5968 20.0892 15.6811 20.0234C15.7653 19.9576 15.8251 19.8655 15.8509 19.7618L16.8318 15.8125H20.2688L21.1438 19.7498C21.1674 19.8561 21.2265 19.9511 21.3113 20.0193C21.3962 20.0875 21.5017 20.1248 21.6105 20.125C21.6456 20.1249 21.6807 20.1211 21.715 20.1135C21.7764 20.0999 21.8346 20.0743 21.8862 20.0382C21.9377 20.0021 21.9817 19.9562 22.0155 19.9031C22.0493 19.85 22.0723 19.7908 22.0833 19.7288C22.0942 19.6668 22.0928 19.6033 22.0791 19.5419L21.2339 15.7392C21.4924 15.6568 21.7223 15.503 21.897 15.2956C22.0718 15.0881 22.1842 14.8354 22.2215 14.5667L22.992 8.75342C23.01 8.61734 22.9987 8.47897 22.9588 8.34763C22.9189 8.2163 22.8512 8.09504 22.7605 7.99203Z" fill="#FDFDFD"/>
<path d="M7.94459 15.4421C8.03468 15.3265 8.09697 15.1918 8.12663 15.0483C8.15629 14.9048 8.15254 14.7564 8.11565 14.6146L7.97861 14.0846C7.90007 13.7765 7.7212 13.5033 7.4702 13.3081C7.2192 13.1129 6.91036 13.0068 6.59238 13.0065H3.63832L2.39871 8.37632C2.34412 8.17313 2.22417 7.99355 2.05738 7.8653C1.89059 7.73705 1.68623 7.66725 1.47584 7.66667H0.955464C0.819193 7.66711 0.684582 7.69661 0.560616 7.7532C0.436649 7.80979 0.326176 7.89217 0.236569 7.99484C0.146961 8.0975 0.08028 8.2181 0.0409742 8.34858C0.00166838 8.47906 -0.00935807 8.61643 0.00863057 8.75151L0.779131 14.5667C0.815843 14.8355 0.927884 15.0884 1.1023 15.2963C1.27672 15.5041 1.5064 15.6583 1.76478 15.7411L0.919527 19.5419C0.891949 19.666 0.914799 19.7959 0.983049 19.9032C1.0513 20.0104 1.15936 20.0862 1.28345 20.1137C1.40755 20.1413 1.53752 20.1185 1.64477 20.0502C1.75202 19.982 1.82776 19.8739 1.85534 19.7498L2.73126 15.8125H6.16976L7.15253 19.7618C7.17845 19.8657 7.23846 19.958 7.32298 20.0238C7.40749 20.0897 7.51163 20.1253 7.61876 20.125C7.65786 20.1252 7.69683 20.1203 7.73471 20.1106C7.79579 20.0954 7.85327 20.0684 7.90388 20.031C7.95448 19.9936 7.99723 19.9465 8.02966 19.8926C8.0621 19.8387 8.0836 19.7789 8.09293 19.7167C8.10225 19.6544 8.09923 19.5909 8.08403 19.5299L7.15636 15.8125H7.1899C7.33569 15.8129 7.47961 15.7796 7.61049 15.7154C7.74136 15.6512 7.85569 15.5577 7.94459 15.4421Z" fill="#FDFDFD"/>
</g>
<defs>
<clipPath id="clip0_19_50271">
<rect width="23" height="23" fill="white"/>
</clipPath>
</defs>
</svg>
