<svg xmlns="http://www.w3.org/2000/svg" width="16.5" height="18" viewBox="0 0 16.5 18"><defs><style>.a{fill:#c5c5c5;}</style></defs><g transform="translate(-1)"><path class="a" d="M19,17.5V13.75a2.253,2.253,0,0,1,2.25-2.25.75.75,0,1,1-.009,1.5.743.743,0,0,0-.741.75V16A1.5,1.5,0,0,1,19,17.5Z" transform="translate(-4.5 -2.875)"/><path class="a" d="M4,17.5V13.75A2.253,2.253,0,0,0,1.75,11.5.75.75,0,1,0,1.759,13a.743.743,0,0,1,.741.75V16A1.5,1.5,0,0,0,4,17.5Z" transform="translate(0 -2.875)"/><path class="a" d="M13.875,23.5H7.5a.75.75,0,0,1,0-1.5h6.375a.75.75,0,0,1,0,1.5Z" transform="translate(-1.437 -5.5)"/><path class="a" d="M11.75,22.438a.75.75,0,0,1-.75-.75V18.5a.75.75,0,1,1,1.5,0v3.188A.75.75,0,0,1,11.75,22.438Z" transform="translate(-2.5 -4.437)"/><path class="a" d="M14.093,9.75H6.5A1.313,1.313,0,0,1,5.208,8.213L6.447,1.088A1.31,1.31,0,0,1,7.74,0h5.113a1.309,1.309,0,0,1,1.293,1.088l1.239,7.125A1.312,1.312,0,0,1,14.093,9.75Z" transform="translate(-1.047)"/><path class="a" d="M15.438,18.125H4.563A.563.563,0,0,1,4,17.563v-1.5A2.064,2.064,0,0,1,6.063,14h7.875A2.064,2.064,0,0,1,16,16.063v1.5A.563.563,0,0,1,15.438,18.125Z" transform="translate(-0.75 -3.5)"/></g></svg>