<svg width="512" height="512" viewBox="0 0 512 512" fill="none" xmlns="http://www.w3.org/2000/svg">
<path d="M281.388 128H144.855C139.308 128 133.975 128.213 128.855 128.853C71.468 133.76 42.668 167.68 42.668 230.187V315.52C42.668 400.853 76.8013 417.707 144.855 417.707H153.388C158.081 417.707 164.268 420.907 167.041 424.533L192.641 458.667C203.948 473.813 222.295 473.813 233.601 458.667L259.201 424.533C262.401 420.267 267.521 417.707 272.855 417.707H281.388C343.895 417.707 377.815 389.12 382.721 331.52C383.361 326.4 383.575 321.067 383.575 315.52V230.187C383.575 162.133 349.441 128 281.388 128ZM138.668 298.667C126.721 298.667 117.335 289.067 117.335 277.333C117.335 265.6 126.935 256 138.668 256C150.401 256 160.001 265.6 160.001 277.333C160.001 289.067 150.401 298.667 138.668 298.667ZM213.121 298.667C201.175 298.667 191.788 289.067 191.788 277.333C191.788 265.6 201.388 256 213.121 256C224.855 256 234.455 265.6 234.455 277.333C234.455 289.067 225.068 298.667 213.121 298.667ZM287.788 298.667C275.841 298.667 266.455 289.067 266.455 277.333C266.455 265.6 276.055 256 287.788 256C299.521 256 309.121 265.6 309.121 277.333C309.121 289.067 299.521 298.667 287.788 298.667Z" fill="#9EAEB8"/>
<path d="M468.912 144.853V230.187C468.912 272.853 455.685 301.867 429.232 317.867C422.832 321.707 415.365 316.587 415.365 309.12L415.579 230.187C415.579 144.853 366.725 95.9998 281.392 95.9998L151.473 96.2132C144.007 96.2132 138.887 88.7465 142.727 82.3465C158.727 55.8932 187.74 42.6665 230.192 42.6665H366.726C434.779 42.6665 468.912 76.7998 468.912 144.853Z" fill="#9EAEB8"/>
</svg>
