<svg xmlns="http://www.w3.org/2000/svg" width="16.977" height="14.88" viewBox="0 0 16.977 14.88">
    <defs>
        <style>
            .cls-1{fill:#c5c5c5}
        </style>
    </defs>
    <g id="chatting" transform="translate(0 -31.622)">
        <path id="Path_3500" d="M11.739 31.622H1.92A1.922 1.922 0 0 0 0 33.542v8.6a.5.5 0 0 0 .786.4L3.521 40.6a1.339 1.339 0 0 1 .781-.25h6.015a1.922 1.922 0 0 0 1.92-1.92v-6.311a.5.5 0 0 0-.498-.497zm-2.416 6.025H3.577a.5.5 0 1 1 0-.995h5.746a.5.5 0 1 1 0 .995zm0-2.321H3.577a.5.5 0 0 1 0-.995h5.746a.5.5 0 1 1 0 .995z" class="cls-1" transform="translate(0 0)"/>
        <path id="Path_3501" d="M155.207 149.882v8.6a.5.5 0 0 1-.786.4l-2.735-1.951a1.339 1.339 0 0 0-.781-.25h-6.015a1.922 1.922 0 0 1-1.92-1.92v-.943h5.576a2.918 2.918 0 0 0 2.915-2.915v-2.951h1.826a1.922 1.922 0 0 1 1.92 1.93z" class="cls-1" transform="translate(-138.229 -112.482)"/>
    </g>
</svg>
