<svg id="checkin" xmlns="http://www.w3.org/2000/svg" width="15.999" height="16" viewBox="0 0 15.999 16">
  <g id="Group_4792" data-name="Group 4792">
    <g id="Group_4791" data-name="Group 4791">
      <path id="Path_2056" data-name="Path 2056" d="M305.3,151.751a.674.674,0,0,0-.145-.217l-2-2a.667.667,0,1,0-.943.943l.862.862h-3.724a.667.667,0,0,0,0,1.333h3.724l-.862.862a.667.667,0,1,0,.943.943l2-2a.66.66,0,0,0,.145-.217A.667.667,0,0,0,305.3,151.751Z" transform="translate(-298.68 -144.672)" fill="#c2c2c2"/>
      <path id="Path_2057" data-name="Path 2057" d="M.681,11.333A.666.666,0,0,1,1.347,12v1.333H4.014V2.667a.667.667,0,0,1,.475-.639L6.8,1.333H1.347V2.667a.667.667,0,1,1-1.333,0v-2A.666.666,0,0,1,.681,0H11.347a.594.594,0,0,1,.069.013.658.658,0,0,1,.283.1c.015.009.033.01.047.021s.007.011.013.015a.66.66,0,0,1,.177.211.545.545,0,0,1,.019.056.632.632,0,0,1,.053.156.415.415,0,0,1,0,.058c0,.013.009.025.009.039V14a.666.666,0,0,1-.536.653L4.811,15.987A.62.62,0,0,1,4.681,16a.667.667,0,0,1-.667-.667v-.667H.681A.666.666,0,0,1,.014,14V12A.666.666,0,0,1,.681,11.333Z" transform="translate(3.985)" fill="#c2c2c2"/>
    </g>
  </g>
</svg>
