<svg xmlns="http://www.w3.org/2000/svg" width="26" height="26" viewBox="0 0 26 26">
    <g data-name="Group 10281" transform="translate(-266 -1186)">
        <rect width="26" height="26" rx="3" transform="translate(266 1186)" style="fill:#5f38f9"/>
        <g data-name="7-Check">
            <path data-name="Path 8683" d="M33.4 43.648a1.38 1.38 0 0 0-1.066 2.25l3.5 4.293a1.252 1.252 0 0 0 1.047.465 1.343 1.343 0 0 0 1.054-.624l7.279-11.723v-.006a.377.377 0 0 0-.095-.443.387.387 0 0 0-.562.039l-.008.009-7.331 8.292a.318.318 0 0 1-.452.024l-2.436-2.217a1.373 1.373 0 0 0-.93-.359z" style="fill:#fff" transform="translate(239.973 1155.837)"/>
        </g>
    </g>
</svg>
