<svg xmlns="http://www.w3.org/2000/svg" width="12.96" height="23.764" viewBox="0 0 12.96 23.764">
  <g id="children" transform="translate(-148.54 -15.636)">
    <path id="Path_2151" data-name="Path 2151" d="M161.047,41.995a1.023,1.023,0,0,0-1.42.279l-2.816,4.194a2.29,2.29,0,0,0-1.027-.242h-1.535a2.292,2.292,0,0,0-1.022.239l-2.815-4.191a1.023,1.023,0,1,0-1.7,1.141l3.25,4.84c-.024.2-.014,13.639-.014,13.639a1.279,1.279,0,0,0,2.558,0V56.138h1.023v5.756a1.279,1.279,0,0,0,2.558,0c0-4.943.006-13.412-.019-13.632l3.255-4.847A1.023,1.023,0,0,0,161.047,41.995Z" transform="translate(0 -23.773)" fill="#fff"/>
    <path id="Path_2152" data-name="Path 2152" d="M194.71,21.738a2.451,2.451,0,0,0,1.336-4.507,2.56,2.56,0,0,1,.46-.242.232.232,0,0,0,.02-.42,2.025,2.025,0,0,0-1.306-.12,2.548,2.548,0,0,1,.293-.433.232.232,0,0,0-.181-.38,2.9,2.9,0,0,0-2.046,1.462,1.57,1.57,0,0,0-.14.3,2.451,2.451,0,0,0,1.563,4.34Z" transform="translate(-39.69)" fill="#fff"/>
  </g>
</svg>
