<svg width="12" height="21" viewBox="0 0 12 21" fill="none" xmlns="http://www.w3.org/2000/svg">
<path d="M10.9552 2.39718C10.8577 2.33168 10.7482 2.28603 10.6331 2.26284C10.518 2.23965 10.3994 2.23937 10.2841 2.26203C10.1689 2.28469 10.0592 2.32984 9.96142 2.3949C9.86363 2.45995 9.77962 2.54364 9.71418 2.64118L7.25318 6.30518C6.97378 6.16553 6.66554 6.09327 6.35318 6.09418H5.01217C4.70234 6.09374 4.39664 6.16529 4.11918 6.30319L1.66018 2.64118C1.52757 2.44439 1.32223 2.30834 1.08931 2.26296C0.856385 2.21757 0.614969 2.26657 0.418178 2.39918C0.221388 2.53179 0.0853425 2.73714 0.0399587 2.97006C-0.00542514 3.20298 0.0435656 3.44439 0.176174 3.64118L3.01619 7.87018C2.99519 8.04718 3.00418 19.7882 3.00418 19.7882C3.01287 20.0788 3.13442 20.3546 3.34304 20.557C3.55167 20.7595 3.83096 20.8728 4.12168 20.8728C4.41241 20.8728 4.69169 20.7595 4.90031 20.557C5.10893 20.3546 5.23048 20.0788 5.23918 19.7882V14.7552H6.13317V19.7842C6.1287 19.9338 6.1543 20.0827 6.20845 20.2222C6.26259 20.3617 6.34419 20.4889 6.44841 20.5963C6.55262 20.7036 6.67731 20.789 6.81512 20.8473C6.95293 20.9056 7.10105 20.9356 7.25068 20.9356C7.40031 20.9356 7.54842 20.9056 7.68623 20.8473C7.82404 20.789 7.94875 20.7036 8.05296 20.5963C8.15717 20.4889 8.23877 20.3617 8.29292 20.2222C8.34707 20.0827 8.37265 19.9338 8.36818 19.7842C8.36818 15.4652 8.37318 8.06519 8.35218 7.87319L11.1962 3.63719C11.3284 3.44073 11.3774 3.19982 11.3322 2.96733C11.287 2.73485 11.1514 2.5298 10.9552 2.39718Z" fill="#001037"/>
<path d="M5.68806 5.46927C6.1499 5.46921 6.59936 5.31988 6.96941 5.04355C7.33945 4.76721 7.61028 4.37868 7.7415 3.93587C7.87272 3.49307 7.85731 3.01971 7.69757 2.58638C7.53783 2.15304 7.24231 1.78295 6.85507 1.53127C6.98089 1.44726 7.11491 1.37623 7.25507 1.31927C7.29164 1.30549 7.32338 1.2813 7.34636 1.24968C7.36933 1.21806 7.38254 1.18041 7.38435 1.14136C7.38616 1.10232 7.37649 1.06361 7.35654 1.03C7.33658 0.996393 7.30721 0.969369 7.27206 0.952269C6.91334 0.793323 6.51197 0.758145 6.13107 0.852268C6.20317 0.71748 6.28895 0.590477 6.38707 0.473269C6.41294 0.443887 6.42961 0.40756 6.43503 0.368791C6.44044 0.330022 6.43436 0.290516 6.41754 0.255169C6.40072 0.219822 6.3739 0.190189 6.34039 0.169942C6.30689 0.149695 6.26818 0.139726 6.22906 0.141269C5.85438 0.206148 5.49915 0.354651 5.18977 0.575737C4.88039 0.796823 4.62483 1.0848 4.44208 1.41827C4.39195 1.50102 4.35072 1.58884 4.31908 1.68027C3.97952 1.96136 3.73495 2.34036 3.61874 2.76558C3.50253 3.19079 3.52034 3.6415 3.66974 4.05622C3.81913 4.47094 4.09283 4.82947 4.45351 5.08289C4.81418 5.33631 5.24427 5.47229 5.68507 5.47227L5.68806 5.46927Z" fill="#001037"/>
</svg>
