<svg id="Layer_2" data-name="Layer 2" xmlns="http://www.w3.org/2000/svg" width="14.703" height="14.7" viewBox="0 0 14.703 14.7">
    <defs>
        <style>
            .cls-1{fill:#c1c1c1}
        </style>
    </defs>
    <g id="Layer_1" data-name="Layer 1">
        <path id="Path_3498" data-name="Path 3498" class="cls-1" d="M7.809 14.7h-.918c-.094-.012-.188-.025-.281-.035a7.238 7.238 0 0 1-3.885-1.616 7.233 7.233 0 0 1-2.61-4.433C.065 8.349.038 8.077 0 7.809v-.918a.8.8 0 0 0 .023-.111A7.078 7.078 0 0 1 1.21 3.324 7.256 7.256 0 0 1 6.1.112c.261-.048.527-.074.791-.112h.919c.25.033.5.058.75.1a7.2 7.2 0 0 1 3.64 1.736 7.24 7.24 0 0 1 2.392 4.249c.048.268.077.536.115.807v.919c-.008.038-.018.073-.024.11-.059.377-.094.76-.18 1.13a7.373 7.373 0 0 1-5.885 5.539c-.27.044-.541.072-.809.11zm6.029-7.35a6.489 6.489 0 1 0-6.493 6.489 6.5 6.5 0 0 0 6.494-6.489z"/>
        <path id="Path_3499" data-name="Path 3499" class="cls-1" d="M180.7 114.968v-1.234a.432.432 0 1 1 .861 0v2.239a.328.328 0 0 0 .086.208q1.156 1.168 2.322 2.326a.468.468 0 0 1 .166.421.428.428 0 0 1-.673.28.949.949 0 0 1-.115-.106l-2.45-2.443a.622.622 0 0 1-.2-.483c.009-.404.003-.806.003-1.208z" transform="translate(-173.781 -108.924)"/>
        <path id="Path_3500" data-name="Path 3500" class="cls-1" d="M181.587 46.62v.43a.43.43 0 1 1-.859-.006q-.006-.421 0-.844a.43.43 0 1 1 .859.006c.002.137 0 .276 0 .414z" transform="translate(-173.807 -44.008)"/>
        <path id="Path_3501" data-name="Path 3501" class="cls-1" d="M46.62 181.563h-.415a.43.43 0 1 1 0-.859h.859a.43.43 0 0 1 0 .859c-.149.004-.297 0-.444 0z" transform="translate(-44.017 -173.782)"/>
        <path id="Path_3502" data-name="Path 3502" class="cls-1" d="M294.4 180.716h.415a.43.43 0 1 1 .006.859q-.436.008-.873 0a.43.43 0 0 1 .008-.859c.15-.003.298 0 .444 0z" transform="translate(-282.299 -173.796)"/>
        <path id="Path_3503" data-name="Path 3503" class="cls-1" d="M180.72 293.933v-.43a.43.43 0 1 1 .859 0q.007.421 0 .844a.43.43 0 1 1-.859 0c-.002-.139 0-.276 0-.414z" transform="translate(-173.801 -281.843)"/>
        <path id="Path_3504" data-name="Path 3504" class="cls-1" d="M277.058 276.63a.421.421 0 0 1-.426.427.428.428 0 0 1-.431-.426.438.438 0 0 1 .43-.431.427.427 0 0 1 .427.43z" transform="translate(-265.627 -265.627)"/>
        <path id="Path_3505" data-name="Path 3505" class="cls-1" d="M85.389 85.811a.421.421 0 0 1 .43-.424.426.426 0 0 1 .428.43.438.438 0 0 1-.434.428.427.427 0 0 1-.424-.434z" transform="translate(-82.12 -82.119)"/>
        <path id="Path_3506" data-name="Path 3506" class="cls-1" d="M276.625 85.377a.423.423 0 0 1 .433.421.433.433 0 0 1-.421.438.443.443 0 0 1-.437-.426.433.433 0 0 1 .425-.433z" transform="translate(-265.627 -82.109)"/>
        <path id="Path_3507" data-name="Path 3507" class="cls-1" d="M85.379 276.608a.432.432 0 0 1 .421-.438.442.442 0 0 1 .438.425.431.431 0 0 1-.425.434.425.425 0 0 1-.435-.421z" transform="translate(-82.11 -265.598)"/>
    </g>
</svg>
