<svg width="24" height="24" viewBox="0 0 24 24" fill="none" xmlns="http://www.w3.org/2000/svg">
<g clip-path="url(#clip0_612_31)">
<path fill-rule="evenodd" clip-rule="evenodd" d="M21.75 5.625C21.75 5.32663 21.8685 5.04048 22.0795 4.8295C22.2905 4.61853 22.5766 4.5 22.875 4.5C23.1734 4.5 23.4595 4.61853 23.6705 4.8295C23.8815 5.04048 24 5.32663 24 5.625V18.375C24 18.6734 23.8815 18.9595 23.6705 19.1705C23.4595 19.3815 23.1734 19.5 22.875 19.5C22.5766 19.5 22.2905 19.3815 22.0795 19.1705C21.8685 18.9595 21.75 18.6734 21.75 18.375V5.625ZM12.2385 6.33C12.0278 6.54094 11.9095 6.82687 11.9095 7.125C11.9095 7.42313 12.0278 7.70906 12.2385 7.92L15.1935 10.875H1.125C0.826631 10.875 0.540483 10.9935 0.329505 11.2045C0.118526 11.4155 0 11.7016 0 12C0 12.2984 0.118526 12.5845 0.329505 12.7955C0.540483 13.0065 0.826631 13.125 1.125 13.125H15.1935L12.2385 16.08C12.128 16.183 12.0393 16.3072 11.9778 16.4452C11.9163 16.5832 11.8833 16.7322 11.8806 16.8832C11.8779 17.0343 11.9057 17.1843 11.9623 17.3244C12.0189 17.4645 12.1031 17.5917 12.2099 17.6986C12.3168 17.8054 12.444 17.8896 12.5841 17.9462C12.7242 18.0028 12.8742 18.0306 13.0253 18.0279C13.1763 18.0252 13.3253 17.9922 13.4633 17.9307C13.6013 17.8692 13.7255 17.7805 13.8285 17.67L18.7035 12.795L19.5 12L18.705 11.205L13.83 6.33C13.7255 6.22546 13.6015 6.14253 13.4649 6.08594C13.3284 6.02936 13.182 6.00024 13.0342 6.00024C12.8865 6.00024 12.7401 6.02936 12.6036 6.08594C12.467 6.14253 12.343 6.22546 12.2385 6.33Z" fill="#5F38F9"/>
</g>
<defs>
<clipPath id="clip0_612_31">
<rect width="24" height="24" fill="white"/>
</clipPath>
</defs>
</svg>
