<svg width="24" height="24" viewBox="0 0 24 24" fill="none" xmlns="http://www.w3.org/2000/svg">
<g clip-path="url(#clip0_612_2)">
<path fill-rule="evenodd" clip-rule="evenodd" d="M2.25 18.375C2.25 18.6734 2.13147 18.9595 1.92049 19.1705C1.70952 19.3815 1.42337 19.5 1.125 19.5C0.826631 19.5 0.540484 19.3815 0.329505 19.1705C0.118527 18.9595 0 18.6734 0 18.375V5.625C0 5.32663 0.118527 5.04048 0.329505 4.82951C0.540484 4.61853 0.826631 4.5 1.125 4.5C1.42337 4.5 1.70952 4.61853 1.92049 4.82951C2.13147 5.04048 2.25 5.32663 2.25 5.625V18.375ZM11.7615 17.67C11.9722 17.4591 12.0905 17.1731 12.0905 16.875C12.0905 16.5769 11.9722 16.2909 11.7615 16.08L8.8065 13.125H22.875C23.1734 13.125 23.4595 13.0065 23.6705 12.7955C23.8815 12.5845 24 12.2984 24 12C24 11.7016 23.8815 11.4155 23.6705 11.2045C23.4595 10.9935 23.1734 10.875 22.875 10.875H8.8065L11.7615 7.92C11.872 7.81701 11.9607 7.69281 12.0222 7.55481C12.0837 7.41681 12.1167 7.26784 12.1194 7.11678C12.1221 6.96573 12.0943 6.81569 12.0377 6.6756C11.9811 6.53552 11.8969 6.40827 11.7901 6.30144C11.6832 6.19461 11.556 6.1104 11.4159 6.05382C11.2758 5.99723 11.1258 5.96945 10.9747 5.97211C10.8237 5.97478 10.6747 6.00784 10.5367 6.06933C10.3987 6.13082 10.2745 6.21947 10.1715 6.33L5.2965 11.205L4.5 12L5.295 12.795L10.17 17.67C10.2745 17.7745 10.3985 17.8575 10.5351 17.9141C10.6716 17.9706 10.818 17.9998 10.9658 17.9998C11.1135 17.9998 11.2599 17.9706 11.3964 17.9141C11.533 17.8575 11.657 17.7745 11.7615 17.67Z" fill="#FDFDFD"/>
</g>
<defs>
<clipPath id="clip0_612_2">
<rect width="24" height="24" fill="white" transform="matrix(-1 0 0 -1 24 24)"/>
</clipPath>
</defs>
</svg>
