<svg width="24" height="16" viewBox="0 0 24 16" fill="none" xmlns="http://www.w3.org/2000/svg">
<path fill-rule="evenodd" clip-rule="evenodd" d="M21.75 1.625C21.75 1.32663 21.8685 1.04048 22.0795 0.829505C22.2905 0.618526 22.5766 0.5 22.875 0.5C23.1734 0.5 23.4595 0.618526 23.6705 0.829505C23.8815 1.04048 24 1.32663 24 1.625V14.375C24 14.6734 23.8815 14.9595 23.6705 15.1705C23.4595 15.3815 23.1734 15.5 22.875 15.5C22.5766 15.5 22.2905 15.3815 22.0795 15.1705C21.8685 14.9595 21.75 14.6734 21.75 14.375V1.625ZM12.2385 2.33C12.0278 2.54094 11.9095 2.82687 11.9095 3.125C11.9095 3.42313 12.0278 3.70906 12.2385 3.92L15.1935 6.875H1.125C0.826631 6.875 0.540483 6.99353 0.329505 7.2045C0.118526 7.41548 0 7.70163 0 8C0 8.29837 0.118526 8.58452 0.329505 8.79549C0.540483 9.00647 0.826631 9.125 1.125 9.125H15.1935L12.2385 12.08C12.128 12.183 12.0393 12.3072 11.9778 12.4452C11.9163 12.5832 11.8833 12.7322 11.8806 12.8832C11.8779 13.0343 11.9057 13.1843 11.9623 13.3244C12.0189 13.4645 12.1031 13.5917 12.2099 13.6986C12.3168 13.8054 12.444 13.8896 12.5841 13.9462C12.7242 14.0028 12.8742 14.0306 13.0253 14.0279C13.1763 14.0252 13.3253 13.9922 13.4633 13.9307C13.6013 13.8692 13.7255 13.7805 13.8285 13.67L18.7035 8.795L19.5 8L18.705 7.205L13.83 2.33C13.7255 2.22546 13.6015 2.14253 13.4649 2.08594C13.3284 2.02936 13.182 2.00024 13.0343 2.00024C12.8865 2.00024 12.7401 2.02936 12.6036 2.08594C12.467 2.14253 12.343 2.22546 12.2385 2.33Z" fill="#FDFDFD"/>
</svg>
