<svg xmlns="http://www.w3.org/2000/svg" id="Description" width="13.291" height="13.291" viewBox="0 0 13.291 13.291">
    <defs>
        <style>
            .cls-1{fill:#c1c1c1}
        </style>
    </defs>
    <path id="Path_3669" d="M9.475 13.291H2.829a.547.547 0 0 0-.085-.024 3.115 3.115 0 0 1-2.668-2.414c-.028-.13-.051-.262-.076-.392V2.829a.6.6 0 0 0 .024-.086A3.1 3.1 0 0 1 2.263.123C2.448.071 2.64.04 2.829 0h7.632a.58.58 0 0 0 .085.024 3.112 3.112 0 0 1 2.667 2.414c.028.13.051.261.076.391v6.646a.641.641 0 0 0-.024.087 2.875 2.875 0 0 1-.8 1.689c-.4.415-.813.824-1.227 1.227a2.8 2.8 0 0 1-1.273.709c-.165.043-.326.069-.49.104zm2.778-4.614V8.57 3.093a1.9 1.9 0 0 0-.038-.373 2.069 2.069 0 0 0-2.055-1.682H3.178a2.075 2.075 0 0 0-2.14 2.136v6.943a2.076 2.076 0 0 0 2.129 2.135h5.51v-1.466a2 2 0 0 1 .223-.951 2.045 2.045 0 0 1 1.886-1.157c.48-.009.964-.001 1.466-.001zm-2.53 3.5a1.817 1.817 0 0 0 .82-.467q.588-.578 1.166-1.165a1.866 1.866 0 0 0 .429-.688c.015-.043.026-.087.042-.143h-1.381a1.044 1.044 0 0 0-1.083 1.092v1.246c-.001.038.003.076.007.125z" class="cls-1"/>
    <path id="Path_3670" d="M92.1 88.423h3.05a.519.519 0 0 1 .054 1.036h-6.123a.52.52 0 1 1-.015-1.038h2.555z" class="cls-1" transform="translate(-85.456 -85.36)"/>
    <path id="Path_3671" d="M92.044 178.013h-3.023a.52.52 0 0 1-.064-1.038h6.111a.522.522 0 0 1 .53.319.516.516 0 0 1-.491.719h-2.568z" class="cls-1" transform="translate(-85.412 -170.848)"/>
    <path id="Path_3672" d="M90.555 265.49h1.491a.521.521 0 1 1 0 1.038h-2.972a.521.521 0 1 1 0-1.038z" class="cls-1" transform="translate(-85.446 -256.301)"/>
</svg>
