<svg xmlns="http://www.w3.org/2000/svg" width="13.787" height="13.685" viewBox="0 0 13.787 13.685">
    <defs>
        <style>
            .cls-1{fill:#c1c1c1;stroke-linecap:round;stroke-linejoin:round}.cls-2,.cls-3{stroke:none}.cls-3{fill:#c1c1c1}
        </style>
    </defs>
    <g id="XMLID_1_" transform="translate(0.1 -0.081)">
        <g id="Path_3241" class="cls-1">
            <path d="M18.595 17.581H13.5v-.1c.13 0 .233-.102.233-.233V16.915h4.862c.129 0 .233-.104.233-.233v-5.775c0-.11-.076-.205-.181-.228l-4.874-.962-.04-.008V9.03l.06.011 4.988.99c.42.09.714.45.714.876v5.775c0 .496-.404.9-.9.9z" class="cls-2" transform="translate(-5.857 -3.865)"/>
            <path d="M13.783 9.09v.577l4.875.963c.13.028.22.147.22.277v5.775c0 .159-.13.283-.283.283h-4.812v.283c0 .159-.124.283-.283.283h5.095c.47 0 .85-.38.85-.849v-5.775c0-.402-.272-.741-.674-.826l-4.988-.991m0-.1c.007 0 .013 0 .02.002l4.987.99c.445.095.755.475.755.925v5.775c0 .523-.426.95-.95.95H13.5c-.055 0-.1-.046-.1-.1 0-.056.045-.1.1-.1.103 0 .183-.081.183-.184v-.283c0-.055.045-.1.1-.1h4.812c.101 0 .183-.082.183-.183v-5.775c0-.086-.06-.161-.142-.18l-4.872-.961c-.047-.01-.08-.05-.08-.099V9.09c0-.03.012-.058.036-.077.018-.015.04-.023.063-.023z" class="cls-3" transform="translate(-5.857 -3.865)"/>
        </g>
        <g id="Path_3242" class="cls-1">
            <path d="M18.415 14.616h-1.132c-.187 0-.333-.146-.333-.333 0-.187.146-.333.333-.333h1.132c.187 0 .333.146.333.333 0 .187-.146.333-.333.333z" class="cls-2" transform="translate(-7.376 -5.996)"/>
            <path d="M17.283 14c-.158 0-.283.125-.283.283 0 .159.125.283.283.283h1.132c.159 0 .283-.124.283-.283 0-.158-.124-.283-.283-.283h-1.132m0-.1h1.132c.215 0 .383.168.383.383s-.168.383-.383.383h-1.132c-.215 0-.383-.168-.383-.383s.168-.383.383-.383z" class="cls-3" transform="translate(-7.376 -5.996)"/>
        </g>
        <g id="Path_3243" class="cls-1">
            <path d="M18.415 17.616h-1.132c-.187 0-.333-.146-.333-.333 0-.187.146-.333.333-.333h1.132c.187 0 .333.146.333.333 0 .187-.146.333-.333.333z" class="cls-2" transform="translate(-7.376 -7.297)"/>
            <path d="M17.283 17c-.158 0-.283.125-.283.283 0 .159.125.283.283.283h1.132c.159 0 .283-.124.283-.283 0-.158-.124-.283-.283-.283h-1.132m0-.1h1.132c.215 0 .383.168.383.383s-.168.383-.383.383h-1.132c-.215 0-.383-.168-.383-.383s.168-.383.383-.383z" class="cls-3" transform="translate(-7.376 -7.297)"/>
        </g>
        <g id="Path_3244" class="cls-1">
            <path d="M18.415 20.616h-1.132c-.187 0-.333-.146-.333-.333 0-.187.146-.333.333-.333h1.132c.187 0 .333.146.333.333 0 .187-.146.333-.333.333z" class="cls-2" transform="translate(-7.376 -8.599)"/>
            <path d="M17.283 20c-.158 0-.283.125-.283.283 0 .159.125.283.283.283h1.132c.159 0 .283-.124.283-.283 0-.158-.124-.283-.283-.283h-1.132m0-.1h1.132c.215 0 .383.168.383.383s-.168.383-.383.383h-1.132c-.215 0-.383-.168-.383-.383s.168-.383.383-.383z" class="cls-3" transform="translate(-7.376 -8.599)"/>
        </g>
        <g id="Path_3245" class="cls-1">
            <path d="M13.283 17.542c-.187 0-.333-.146-.333-.333V9.283c0-.095.043-.19.118-.258.067-.05.14-.075.215-.075.023 0 .045.002.066.007l.227.045.04.008v8.199c0 .187-.146.333-.333.333z" class="cls-2" transform="translate(-5.64 -3.826)"/>
            <path d="M13.283 17.492c.159 0 .283-.124.283-.283V9.051l-.226-.045c-.085-.017-.17.005-.238.056-.062.057-.102.136-.102.221v7.926c0 .159.125.283.283.283m0 .1c-.215 0-.383-.168-.383-.383V9.283c0-.11.05-.217.135-.295l.007-.006c.093-.07.207-.096.317-.074l.227.045c.046.01.08.05.08.098v8.158c0 .215-.168.383-.383.383z" class="cls-3" transform="translate(-5.64 -3.826)"/>
        </g>
        <g id="Path_3246" class="cls-1">
            <path d="M11.765 23.616H9.5v-.1c.13 0 .233-.102.233-.233V22.95H11.532V23.283c0 .13.102.233.233.233v.1z" class="cls-2" transform="translate(-4.122 -9.9)"/>
            <path d="M9.783 23v.283c0 .159-.124.283-.283.283h2.265c-.159 0-.283-.124-.283-.283V23H9.783m0-.1h1.699c.055 0 .1.045.1.1v.283c0 .103.08.183.183.183.055 0 .1.045.1.1 0 .055-.045.1-.1.1H9.5c-.055 0-.1-.045-.1-.1 0-.055.045-.1.1-.1.103 0 .183-.08.183-.183V23c0-.055.045-.1.1-.1z" class="cls-3" transform="translate(-4.122 -9.9)"/>
        </g>
        <g id="Path_3247" class="cls-1">
            <path d="M9.415 5.616H8.283c-.187 0-.333-.146-.333-.333 0-.187.146-.333.333-.333h1.132c.187 0 .333.146.333.333 0 .187-.146.333-.333.333z" class="cls-2" transform="translate(-3.471 -2.091)"/>
            <path d="M8.283 5C8.125 5 8 5.125 8 5.283c0 .159.125.283.283.283h1.132c.159 0 .283-.124.283-.283 0-.158-.124-.283-.283-.283H8.283m0-.1h1.132c.215 0 .383.168.383.383s-.168.383-.383.383H8.283c-.215 0-.383-.168-.383-.383s.168-.383.383-.383z" class="cls-3" transform="translate(-3.471 -2.091)"/>
        </g>
        <g id="Path_3248" class="cls-1">
            <path d="M9.415 8.616H8.283c-.187 0-.333-.146-.333-.333 0-.187.146-.333.333-.333h1.132c.187 0 .333.146.333.333 0 .187-.146.333-.333.333z" class="cls-2" transform="translate(-3.471 -3.393)"/>
            <path d="M8.283 8C8.125 8 8 8.125 8 8.283c0 .159.125.283.283.283h1.132c.159 0 .283-.124.283-.283 0-.158-.124-.283-.283-.283H8.283m0-.1h1.132c.215 0 .383.168.383.383s-.168.383-.383.383H8.283c-.215 0-.383-.168-.383-.383s.168-.383.383-.383z" class="cls-3" transform="translate(-3.471 -3.393)"/>
        </g>
        <g id="Path_3249" class="cls-1">
            <path d="M9.415 11.616H8.283c-.187 0-.333-.146-.333-.333 0-.187.146-.333.333-.333h1.132c.187 0 .333.146.333.333 0 .187-.146.333-.333.333z" class="cls-2" transform="translate(-3.471 -4.694)"/>
            <path d="M8.283 11c-.158 0-.283.125-.283.283 0 .159.125.283.283.283h1.132c.159 0 .283-.124.283-.283 0-.158-.124-.283-.283-.283H8.283m0-.1h1.132c.215 0 .383.168.383.383s-.168.383-.383.383H8.283c-.215 0-.383-.168-.383-.383s.168-.383.383-.383z" class="cls-3" transform="translate(-3.471 -4.694)"/>
        </g>
        <g id="Path_3250" class="cls-1">
            <path d="M9.415 14.616H8.283c-.187 0-.333-.146-.333-.333 0-.187.146-.333.333-.333h1.132c.187 0 .333.146.333.333 0 .187-.146.333-.333.333z" class="cls-2" transform="translate(-3.471 -5.996)"/>
            <path d="M8.283 14c-.158 0-.283.125-.283.283 0 .159.125.283.283.283h1.132c.159 0 .283-.124.283-.283 0-.158-.124-.283-.283-.283H8.283m0-.1h1.132c.215 0 .383.168.383.383s-.168.383-.383.383H8.283c-.215 0-.383-.168-.383-.383s.168-.383.383-.383z" class="cls-3" transform="translate(-3.471 -5.996)"/>
        </g>
        <g id="Path_3251" class="cls-1">
            <path d="M4.415 14.616H3.283c-.187 0-.333-.146-.333-.333 0-.187.146-.333.333-.333h1.132c.187 0 .333.146.333.333 0 .187-.146.333-.333.333z" class="cls-2" transform="translate(-1.302 -5.996)"/>
            <path d="M3.283 14c-.158 0-.283.125-.283.283 0 .159.125.283.283.283h1.132c.159 0 .283-.124.283-.283 0-.158-.124-.283-.283-.283H3.283m0-.1h1.132c.215 0 .383.168.383.383s-.168.383-.383.383H3.283c-.215 0-.383-.168-.383-.383s.168-.383.383-.383z" class="cls-3" transform="translate(-1.302 -5.996)"/>
        </g>
        <g id="Path_3252" class="cls-1">
            <path d="M4.415 5.616H3.283c-.187 0-.333-.146-.333-.333 0-.187.146-.333.333-.333h1.132c.187 0 .333.146.333.333 0 .187-.146.333-.333.333z" class="cls-2" transform="translate(-1.302 -2.091)"/>
            <path d="M3.283 5C3.125 5 3 5.125 3 5.283c0 .159.125.283.283.283h1.132c.159 0 .283-.124.283-.283 0-.158-.124-.283-.283-.283H3.283m0-.1h1.132c.215 0 .383.168.383.383s-.168.383-.383.383H3.283c-.215 0-.383-.168-.383-.383s.168-.383.383-.383z" class="cls-3" transform="translate(-1.302 -2.091)"/>
        </g>
        <g id="Path_3253" class="cls-1">
            <path d="M4.415 8.616H3.283c-.187 0-.333-.146-.333-.333 0-.187.146-.333.333-.333h1.132c.187 0 .333.146.333.333 0 .187-.146.333-.333.333z" class="cls-2" transform="translate(-1.302 -3.393)"/>
            <path d="M3.283 8C3.125 8 3 8.125 3 8.283c0 .159.125.283.283.283h1.132c.159 0 .283-.124.283-.283 0-.158-.124-.283-.283-.283H3.283m0-.1h1.132c.215 0 .383.168.383.383s-.168.383-.383.383H3.283c-.215 0-.383-.168-.383-.383s.168-.383.383-.383z" class="cls-3" transform="translate(-1.302 -3.393)"/>
        </g>
        <g id="Path_3254" class="cls-1">
            <path d="M4.415 11.616H3.283c-.187 0-.333-.146-.333-.333 0-.187.146-.333.333-.333h1.132c.187 0 .333.146.333.333 0 .187-.146.333-.333.333z" class="cls-2" transform="translate(-1.302 -4.694)"/>
            <path d="M3.283 11c-.158 0-.283.125-.283.283 0 .159.125.283.283.283h1.132c.159 0 .283-.124.283-.283 0-.158-.124-.283-.283-.283H3.283m0-.1h1.132c.215 0 .383.168.383.383s-.168.383-.383.383H3.283c-.215 0-.383-.168-.383-.383s.168-.383.383-.383z" class="cls-3" transform="translate(-1.302 -4.694)"/>
        </g>
        <g id="Path_3255" class="cls-1">
            <path d="M7.447 20.447H6.78v-2.598c0-.128-.105-.233-.233-.233H4.849c-.13 0-.233.103-.233.233v2.598H3.95v-2.598c0-.496.403-.899.9-.899h1.698c.495 0 .899.403.899.9v2.597z" class="cls-2" transform="translate(-1.735 -7.297)"/>
            <path d="M4.85 17c-.47 0-.85.38-.85.85v2.547h.566v-2.548c0-.158.125-.283.283-.283h1.699c.153 0 .283.125.283.283v2.548h.566v-2.548c0-.47-.38-.849-.85-.849H4.85m0-.1h1.699c.523 0 .949.426.949.95v2.547c0 .055-.045.1-.1.1H6.83c-.056 0-.1-.045-.1-.1v-2.548c0-.1-.082-.183-.183-.183H4.849c-.102 0-.183.08-.183.183v2.548c0 .055-.045.1-.1.1H4c-.055 0-.1-.045-.1-.1v-2.548c0-.523.426-.949.95-.949z" class="cls-3" transform="translate(-1.735 -7.297)"/>
        </g>
        <g id="Path_3256" class="cls-1">
            <path d="M7.114 23.616h-2.83c-.188 0-.334-.146-.334-.333V22.95h3.497V23.283c0 .187-.146.333-.333.333z" class="cls-2" transform="translate(-1.735 -9.9)"/>
            <path d="M4 23v.283c0 .159.125.283.283.283h2.83c.16 0 .284-.124.284-.283V23H4m0-.1h3.397c.055 0 .1.045.1.1v.283c0 .215-.168.383-.383.383h-2.83c-.216 0-.384-.168-.384-.383V23c0-.055.045-.1.1-.1z" class="cls-3" transform="translate(-1.735 -9.9)"/>
        </g>
        <g id="Path_3257" class="cls-1">
            <path d="M2.548 13.716H.849c-.496 0-.899-.404-.899-.9V1.03c0-.268.116-.517.318-.684C.431.207.638.131.852.131.901.13.95.134 1 .142l6.221.946c.438.072.756.445.756.887v3.31l-.06-.011-.226-.046c-.016-.003-.031-.004-.047-.004-.053 0-.106.018-.151.052-.051.046-.082.113-.082.18h-.1V1.976c0-.117-.083-.215-.196-.234L.893.801H.888L.884.799C.875.796.864.796.85.796.792.796.743.815.701.852.644.899.616.959.616 1.029v11.788c0 .128.105.233.233.233h1.466V13.383c0 .13.102.233.233.233v.1z" class="cls-2" transform="translate(0 0)"/>
            <path d="M.852.18C.651.18.457.25.3.385.108.543 0 .78 0 1.029v11.788c0 .47.38.849.85.849h1.698c-.159 0-.283-.125-.283-.283V13.1H.849c-.153 0-.283-.125-.283-.283V1.029C.566.945.6.871.668.814.719.77.781.746.849.746c.017 0 .034 0 .051.006l6.222.94c.136.022.238.141.238.283v3.482c0-.085.04-.164.102-.221.068-.051.153-.074.238-.057l.226.046v-3.25c0-.419-.3-.77-.713-.838L.99.192C.944.184.898.18.852.18m0-.1c.051 0 .103.004.154.012l6.222.945c.463.076.798.47.798.937v3.25c0 .03-.013.058-.037.077-.023.019-.053.026-.083.02l-.226-.045c-.053-.01-.108.003-.154.036-.042.04-.066.092-.066.144 0 .055-.045.1-.1.1-.055 0-.1-.045-.1-.1V1.975c0-.092-.065-.17-.154-.185L.886.85C.88.85.873.85.868.848h-.02C.805.846.766.86.734.888.688.93.666.973.666 1.03v11.788c0 .1.082.183.183.183h1.416c.055 0 .1.044.1.1v.283c0 .102.08.183.183.183.055 0 .1.045.1.1 0 .055-.045.1-.1.1H.849c-.523 0-.949-.426-.949-.95V1.03C-.1.746.023.483.236.307.407.16.626.08.852.08z" class="cls-3" transform="translate(0 0)"/>
        </g>
    </g>
</svg>
