<svg id="x-mark" xmlns="http://www.w3.org/2000/svg" width="23.108" height="23.108" viewBox="0 0 23.108 23.108">
  <path id="Path_2259" data-name="Path 2259" d="M11.554,23.108A11.554,11.554,0,1,1,23.108,11.554,11.567,11.567,0,0,1,11.554,23.108Zm0-21.457a9.9,9.9,0,1,0,9.9,9.9A9.915,9.915,0,0,0,11.554,1.651Zm0,0" transform="translate(0 0)" fill="#f00d2a"/>
  <path id="Path_2260" data-name="Path 2260" d="M155.365,156.192a.822.822,0,0,1-.584-.242l-8.253-8.253a.825.825,0,0,1,1.167-1.167l8.253,8.253a.825.825,0,0,1-.583,1.409Zm0,0" transform="translate(-139.685 -139.686)" fill="#f00d2a"/>
  <path id="Path_2261" data-name="Path 2261" d="M147.111,156.19a.825.825,0,0,1-.583-1.409l8.253-8.253a.825.825,0,0,1,1.167,1.167l-8.253,8.253A.822.822,0,0,1,147.111,156.19Zm0,0" transform="translate(-139.683 -139.684)" fill="#f00d2a"/>
</svg>
