<svg xmlns="http://www.w3.org/2000/svg" width="14.667" height="16" viewBox="0 0 14.667 16">
  <g id="CSV" transform="translate(-1)">
    <path id="Path_2040" data-name="Path 2040" d="M15.667,17.333h-8A1.669,1.669,0,0,1,6,15.667v-10A1.669,1.669,0,0,1,7.667,4h8a1.669,1.669,0,0,1,1.667,1.667v10A1.669,1.669,0,0,1,15.667,17.333Zm-8-12.667a1,1,0,0,0-1,1v10a1,1,0,0,0,1,1h8a1,1,0,0,0,1-1v-10a1,1,0,0,0-1-1Z" transform="translate(-1.667 -1.333)" fill="#9b9b9b"/>
    <path id="Path_2041" data-name="Path 2041" d="M3.333,14H2.667A1.669,1.669,0,0,1,1,12.333V1.667A1.669,1.669,0,0,1,2.667,0h8a1.669,1.669,0,0,1,1.667,1.667.333.333,0,1,1-.667,0,1,1,0,0,0-1-1h-8a1,1,0,0,0-1,1V12.333a1,1,0,0,0,1,1h.667a.333.333,0,1,1,0,.667Z" fill="#9b9b9b"/>
    <path id="Path_2042" data-name="Path 2042" d="M15.667,16.667H10.333a.333.333,0,0,1,0-.667h5.333a.333.333,0,0,1,0,.667Z" transform="translate(-3 -5.333)" fill="#9b9b9b"/>
    <path id="Path_2043" data-name="Path 2043" d="M15.667,20.667H10.333a.333.333,0,1,1,0-.667h5.333a.333.333,0,1,1,0,.667Z" transform="translate(-3 -6.667)" fill="#9b9b9b"/>
    <path id="Path_2044" data-name="Path 2044" d="M15.667,12.667H10.333a.333.333,0,0,1,0-.667h5.333a.333.333,0,0,1,0,.667Z" transform="translate(-3 -4)" fill="#9b9b9b"/>
    <path id="Path_2045" data-name="Path 2045" d="M15.667,8.667H10.333a.333.333,0,0,1,0-.667h5.333a.333.333,0,0,1,0,.667Z" transform="translate(-3 -2.667)" fill="#9b9b9b"/>
  </g>
</svg>
