<svg xmlns="http://www.w3.org/2000/svg" width="92.2" height="19" viewBox="0 0 92.2 19">
    <g data-name="Group 8747">
        <text transform="translate(18.2 15)" style="font-size:14px;font-family:Roboto-Regular,Roboto;letter-spacing:.06em;fill:#4b56c0"><tspan x="0" y="0">Customise</tspan></text>
        <path data-name="settings (1)" d="m11.9 4.93-.982-.13a4.96 4.96 0 0 0-.3-.721l.609-.785a.78.78 0 0 0-.064-1.039l-.827-.827A.782.782 0 0 0 9.3 1.367l-.784.609a4.942 4.942 0 0 0-.722-.3L7.666.693A.786.786 0 0 0 6.886 0H5.71a.786.786 0 0 0-.78.691l-.13.987a4.884 4.884 0 0 0-.722.3L3.3 1.367a.781.781 0 0 0-1.039.064l-.827.826A.782.782 0 0 0 1.367 3.3l.609.784a4.9 4.9 0 0 0-.3.721l-.983.125A.786.786 0 0 0 0 5.71v1.176a.786.786 0 0 0 .691.78l.987.125a4.96 4.96 0 0 0 .3.721l-.611.788a.78.78 0 0 0 .064 1.039l.827.827a.783.783 0 0 0 1.042.066l.784-.609a4.845 4.845 0 0 0 .721.3l.125.985a.786.786 0 0 0 .78.694h1.176a.786.786 0 0 0 .78-.691l.125-.987a4.96 4.96 0 0 0 .721-.3l.785.609a.78.78 0 0 0 1.039-.064l.827-.827a.782.782 0 0 0 .066-1.042l-.609-.784a4.845 4.845 0 0 0 .3-.721l.985-.125a.786.786 0 0 0 .693-.78V5.71a.785.785 0 0 0-.691-.78zM6.3 8.922A2.624 2.624 0 1 1 8.922 6.3 2.627 2.627 0 0 1 6.3 8.922z" transform="translate(0 3.061)" style="fill:#4b56c0"/>
    </g>
</svg>
