<svg xmlns="http://www.w3.org/2000/svg" width="46.882" height="30" viewBox="0 0 46.882 30"><defs><style>.a{fill:#9b9b9b;}</style></defs><g transform="translate(0 -92.184)"><g transform="translate(13.212 92.184)"><g transform="translate(0 0)"><path class="a" d="M162.6,109.085l-3.991-1.774a.782.782,0,0,1-.464-.714v-1.1a5.816,5.816,0,0,0,2.2-4.556V99.4a1.423,1.423,0,0,0,.734-1.244v-.15a5.831,5.831,0,0,0-5.825-5.825h-1.468a5.831,5.831,0,0,0-5.825,5.825v1.358a1.44,1.44,0,0,0,.548,1.154,1.339,1.339,0,0,0,.186.12v.3a5.816,5.816,0,0,0,2.2,4.556v1.1a.782.782,0,0,1-.464.714l-3.991,1.774a3.626,3.626,0,0,0-2.151,3.31v9.1a.687.687,0,1,0,1.374,0v-9.1a2.246,2.246,0,0,1,.014-.236L147.518,114a1.506,1.506,0,0,1,.444,1.072V121.5a.687.687,0,0,0,1.374,0v-6.428a2.87,2.87,0,0,0-.846-2.043l-2.192-2.192a2.243,2.243,0,0,1,.7-.495l3.923-1.744,2.91,2.91V121.5a.687.687,0,1,0,1.374,0v-9.992l2.91-2.91,3.923,1.744a2.242,2.242,0,0,1,.7.495l-2.192,2.192a2.87,2.87,0,0,0-.846,2.043V121.5a.687.687,0,1,0,1.374,0v-6.428a1.505,1.505,0,0,1,.444-1.072l1.839-1.839a2.243,2.243,0,0,1,.014.236v9.1a.687.687,0,1,0,1.373,0v-9.1A3.626,3.626,0,0,0,162.6,109.085Zm-8.077,1.165-2.553-2.553a2.151,2.151,0,0,0,.3-1.1v-.279a5.82,5.82,0,0,0,4.5,0v.279a2.151,2.151,0,0,0,.3,1.1Zm0-4.854a4.456,4.456,0,0,1-4.451-4.451v-.309a4.06,4.06,0,0,0,1.247-.81.687.687,0,0,0-.932-1.009,2.467,2.467,0,0,1-1.02.609l-.018,0a.14.14,0,0,1-.012-.062V98.009a4.456,4.456,0,0,1,4.451-4.451h1.468a4.456,4.456,0,0,1,4.451,4.451v.15a.044.044,0,0,1-.031.045c-4.112.812-6.175-.719-6.871-1.414a.687.687,0,1,0-.971.971c2.133,2.133,5.244,2.171,7.139,1.943v1.241A4.456,4.456,0,0,1,154.521,105.4Z" transform="translate(-144.292 -92.184)"/></g></g><g transform="translate(0 95.854)"><g transform="translate(0 0)"><path class="a" d="M12.384,141.76v-1.468a5.09,5.09,0,0,0-2.334-4.276,2.889,2.889,0,1,0-5.514,0A5.09,5.09,0,0,0,2.2,140.292v1.468a5.088,5.088,0,0,0,2.2,4.189v1.51a.777.777,0,0,1-.432.7L1.6,149.345A2.873,2.873,0,0,0,0,151.929v5.979a.687.687,0,1,0,1.373,0v-5.682l1.119,1.119a1.506,1.506,0,0,1,.444,1.072v3.492a.687.687,0,1,0,1.373,0v-3.492a2.87,2.87,0,0,0-.846-2.043l-1.557-1.557-.023-.021a1.532,1.532,0,0,1,.328-.222l2.375-1.188a2.188,2.188,0,0,0,.341-.213l1.679,1.679v7.056a.687.687,0,1,0,1.373,0v-7.056l1.679-1.679a2.178,2.178,0,0,0,.341.213l.655.328a.687.687,0,1,0,.614-1.228l-.655-.328a.777.777,0,0,1-.432-.7v-1.51A5.088,5.088,0,0,0,12.384,141.76Zm-5.091-8.122a1.517,1.517,0,0,1,1.515,1.515,1.539,1.539,0,0,1-.024.271,5.09,5.09,0,0,0-2.98,0,1.506,1.506,0,0,1,1.489-1.785Zm0,2.936a3.722,3.722,0,0,1,3.717,3.717v.249a4.311,4.311,0,0,1-4.636-1.395.687.687,0,0,0-1.035-.074A4.493,4.493,0,0,1,3.578,140.2,3.721,3.721,0,0,1,7.293,136.575Zm0,13.022L5.706,148.01a2.175,2.175,0,0,0,.072-.551v-.838a5.1,5.1,0,0,0,3.03,0v.838a2.174,2.174,0,0,0,.072.551Zm0-4.12a3.722,3.722,0,0,1-3.717-3.717v-.142a5.506,5.506,0,0,0,2.207-1.1,6.2,6.2,0,0,0,1.274.927,5.462,5.462,0,0,0,2.625.677A5.753,5.753,0,0,0,11,141.964,3.722,3.722,0,0,1,7.293,145.477Z" transform="translate(0 -132.265)"/></g></g><g transform="translate(33.03 97.322)"><g transform="translate(0 0)"><path class="a" d="M372.981,162.442l-3.843-1.922a.777.777,0,0,1-.432-.7v-.973a4.347,4.347,0,0,0,1.468-3.257v-.782h.047a.687.687,0,0,0,.687-.687v-1.468a4.362,4.362,0,0,0-4.357-4.357h-1.468a4.362,4.362,0,0,0-4.357,4.357v1.468a.687.687,0,0,0,.687.687h.047v.782a4.347,4.347,0,0,0,1.468,3.258v.973a.777.777,0,0,1-.432.7.687.687,0,1,0,.614,1.229,2.188,2.188,0,0,0,.341-.213l1.679,1.679v9.258a.687.687,0,0,0,1.374,0v-9.258l1.679-1.679a2.18,2.18,0,0,0,.341.213l3.719,1.86-1.128,1.128a2.87,2.87,0,0,0-.846,2.043v5.694a.687.687,0,0,0,1.373,0v-5.694a1.505,1.505,0,0,1,.444-1.072l1.068-1.068a1.531,1.531,0,0,1,.05.387v7.447a.687.687,0,1,0,1.373,0v-7.447A2.873,2.873,0,0,0,372.981,162.442ZM362.1,153.295v-.64h0a2.987,2.987,0,0,1,2.983-2.983h1.468a2.987,2.987,0,0,1,2.983,2.983v.763a10.5,10.5,0,0,1-4.8-1.334.687.687,0,0,0-.867.086A4.5,4.5,0,0,1,362.1,153.295Zm3.717,8.665-1.587-1.587a2.174,2.174,0,0,0,.072-.551v-.146a4.353,4.353,0,0,0,3.031,0v.146a2.172,2.172,0,0,0,.072.551Zm0-3.385a2.987,2.987,0,0,1-2.983-2.983v-1.107h0a5.811,5.811,0,0,0,1.612-.984,12.2,12.2,0,0,0,4.355,1.238v.853A2.987,2.987,0,0,1,365.817,158.574Z" transform="translate(-360.726 -148.298)"/></g></g></g></svg>