<svg id="document" xmlns="http://www.w3.org/2000/svg" width="14.604" height="19.5" viewBox="0 0 14.604 19.5">
  <path id="Path_2829" data-name="Path 2829" d="M4.283,3.631V0H4.243a.571.571,0,0,0-.4.167L.167,3.839a.571.571,0,0,0-.167.4v.041H3.631A.653.653,0,0,0,4.283,3.631Zm0,0" transform="translate(0)" fill="#4b56c0"/>
  <path id="Path_2830" data-name="Path 2830" d="M12.81,0H5.426V3.631a1.8,1.8,0,0,1-1.8,1.8H0V17.7a1.8,1.8,0,0,0,1.8,1.8H12.81a1.794,1.794,0,0,0,1.8-1.8V1.8A1.794,1.794,0,0,0,12.81,0ZM4.451,9.958a.571.571,0,0,1,.808,0L6.731,11.43V7.3a.571.571,0,1,1,1.143,0V11.43L9.346,9.958a.571.571,0,1,1,.808.808L7.706,13.214a.571.571,0,0,1-.808,0L4.451,10.766A.571.571,0,0,1,4.451,9.958Zm5.3,5.871h-4.9a.571.571,0,0,1,0-1.143h4.9a.571.571,0,0,1,0,1.143Zm0,0" fill="#4b56c0"/>
</svg>
