<svg xmlns="http://www.w3.org/2000/svg" width="18" height="18" viewBox="0 0 18 18"><defs><style>.a{fill:#c5c5c5;}</style></defs><path class="a" d="M6.937,0H1.312A1.314,1.314,0,0,0,0,1.312V4.687A1.314,1.314,0,0,0,1.312,6H6.937A1.314,1.314,0,0,0,8.25,4.687V1.312A1.314,1.314,0,0,0,6.937,0Zm0,0"/><path class="a" d="M6.937,213.332H1.312A1.314,1.314,0,0,0,0,214.645v7.875a1.314,1.314,0,0,0,1.312,1.312H6.937A1.314,1.314,0,0,0,8.25,222.52v-7.875A1.314,1.314,0,0,0,6.937,213.332Zm0,0" transform="translate(0 -205.832)"/><path class="a" d="M284.27,341.332h-5.625a1.314,1.314,0,0,0-1.313,1.313v3.375a1.314,1.314,0,0,0,1.313,1.312h5.625a1.314,1.314,0,0,0,1.312-1.312v-3.375A1.314,1.314,0,0,0,284.27,341.332Zm0,0" transform="translate(-267.582 -329.332)"/><path class="a" d="M284.27,0h-5.625a1.314,1.314,0,0,0-1.313,1.312V9.187a1.314,1.314,0,0,0,1.313,1.313h5.625a1.314,1.314,0,0,0,1.312-1.313V1.312A1.314,1.314,0,0,0,284.27,0Zm0,0" transform="translate(-267.582)"/></svg>