<svg data-name="Layer 2" xmlns="http://www.w3.org/2000/svg" width="64.292" height="45" viewBox="0 0 64.292 45">
    <g data-name="Layer 1">
        <path data-name="Path 3566" d="M0 4.538A6.064 6.064 0 0 1 1.873 1.29 5.209 5.209 0 0 1 5.2.009C6.016 0 6.832 0 7.647 0h50.918a5.315 5.315 0 0 1 5.515 3.935 6.322 6.322 0 0 1 .2 1.61q.016 16.956 0 33.909A5.324 5.324 0 0 1 58.749 45H5.57A5.315 5.315 0 0 1 .1 40.682a1.1 1.1 0 0 0-.1-.225zM62.153 28.07V5.712a3.24 3.24 0 0 0-3.578-3.578H5.724c-2.311.013-3.578 1.3-3.578 3.631v31.579c.275-.165.469-.272.655-.394L22.64 23.97c.839-.549 1.132-.537 1.905.059q3.494 2.715 6.976 5.434c.424.329.851.653 1.272.977.154-.116.256-.19.358-.268l12.738-10.2c1.127-.894 1.209-.912 2.42-.179l13.175 7.9c.192.123.388.224.669.377zm-16.92 14.783-2.6-2.029L23.96 26.3c-.263-.2-.453-.338-.812-.1q-10.3 6.76-20.631 13.49a.563.563 0 0 0-.283.716 3.234 3.234 0 0 0 3.358 2.453h39.641zM34.562 31.795c.152.132.227.206.309.268q6.781 5.281 13.568 10.554a1.408 1.408 0 0 0 .8.233q4.737.023 9.481.009a3.214 3.214 0 0 0 3.439-3.459c0-2.719-.016-5.438.016-8.157a.984.984 0 0 0-.576-.971q-6.891-4.114-13.756-8.263a.828.828 0 0 0-1.136.07c-2.712 2.2-5.445 4.372-8.171 6.554-1.312 1.031-2.614 2.074-3.974 3.162z" style="fill:#9eaeb8"/>
        <path data-name="Path 3570" d="M150.2 48.786a6.416 6.416 0 1 1 4.561-1.863 6.438 6.438 0 0 1-4.561 1.863zm0-2.152a8.468 8.468 0 1 1 .009 0z" transform="translate(-118.076 -29.47)" style="fill:#9eaeb8"/>
    </g>
</svg>
