<svg xmlns="http://www.w3.org/2000/svg" width="30" height="30" viewBox="0 0 30 30">
  <g id="Group_5082" data-name="Group 5082" transform="translate(-703 -605)">
    <rect id="Rectangle_3444" data-name="Rectangle 3444" width="30" height="30" rx="5" transform="translate(703 605)" fill="#959ea7"/>
    <path id="Icon_material-delete-forever" data-name="Icon material-delete-forever" d="M8.306,17.391A1.616,1.616,0,0,0,9.917,19h6.445a1.616,1.616,0,0,0,1.611-1.611V7.723H8.306Zm1.982-5.736,1.136-1.136,1.716,1.708,1.708-1.708,1.136,1.136-1.708,1.708,1.708,1.708-1.136,1.136L13.14,14.5l-1.708,1.708L10.3,15.07,12,13.362Zm5.672-6.349L15.154,4.5H11.125l-.806.806H7.5V6.917H18.779V5.306Z" transform="translate(704.5 608.5)" fill="#fff"/>
  </g>
</svg>
