<svg xmlns="http://www.w3.org/2000/svg" width="44" height="44" viewBox="0 0 44 44">
    <g data-name="Group 8279" transform="translate(-465 -500)">
        <circle data-name="Ellipse 1968" cx="22" cy="22" r="22" transform="translate(465 500)" style="fill:#fff"/>
        <g data-name="delete (1)">
            <path data-name="Path 4362" d="M222.86 154.7a.462.462 0 0 0-.462.462v8.738a.462.462 0 0 0 .924 0v-8.736a.462.462 0 0 0-.462-.464zm0 0" transform="translate(266.883 364.449)" style="fill:#9eaeb8"/>
            <path data-name="Path 4363" d="M104.86 154.7a.462.462 0 0 0-.462.462v8.738a.462.462 0 0 0 .924 0v-8.736a.462.462 0 0 0-.462-.464zm0 0" transform="translate(379.429 364.449)" style="fill:#9eaeb8"/>
            <path data-name="Path 4364" d="M1.31 5.875v11.388a2.55 2.55 0 0 0 .678 1.759 2.276 2.276 0 0 0 1.652.714h8.746a2.276 2.276 0 0 0 1.652-.714 2.55 2.55 0 0 0 .678-1.759V5.875a1.766 1.766 0 0 0-.455-3.475h-2.366v-.576A1.816 1.816 0 0 0 10.064 0H5.96a1.816 1.816 0 0 0-1.831 1.824V2.4H1.763a1.766 1.766 0 0 0-.453 3.475zm11.075 12.937H3.639a1.464 1.464 0 0 1-1.405-1.549V5.915H13.79v11.348a1.464 1.464 0 0 1-1.405 1.549zM5.054 1.824a.891.891 0 0 1 .906-.9h4.1a.891.891 0 0 1 .906.9V2.4H5.054zm-3.291 1.5h12.5a.832.832 0 1 1 0 1.664h-12.5a.832.832 0 0 1 0-1.664zm0 0" transform="translate(479.004 512.002)" style="fill:#9eaeb8"/>
            <path data-name="Path 4365" d="M163.86 154.7a.462.462 0 0 0-.462.462v8.738a.462.462 0 0 0 .924 0v-8.736a.462.462 0 0 0-.462-.464zm0 0" transform="translate(323.156 364.449)" style="fill:#9eaeb8"/>
        </g>
    </g>
</svg>
