<svg xmlns="http://www.w3.org/2000/svg" width="34.261" height="30.25" viewBox="0 0 34.261 30.25"><defs><style>.a,.b{fill:#9a9a9a;}.a{stroke:#9a9a9a;stroke-width:0.5px;}</style></defs><g transform="translate(-1010.069 -242.75)"><g transform="translate(1.543 3.894)"><path class="a" d="M19.73,18.513a2.426,2.426,0,0,1-.482-.049l-.261-.053a2.395,2.395,0,0,1-1.869-2.833L18.51,8.744l.738.153-1.392,6.834a1.641,1.641,0,0,0,1.28,1.942l.261.053a1.642,1.642,0,0,0,1.944-1.333l1.266-7.419a1.641,1.641,0,0,0-3.225-.609l-.134.532-.738-.153.134-.532A2.395,2.395,0,0,1,23.35,9.1L22.084,16.52a2.4,2.4,0,0,1-2.354,1.993Z" transform="translate(991.714 236.091)"/><path class="a" d="M31.415,37.706c-.592,0-1.523-.138-1.58-.727l-.6-6.275-1.8-2.682-1,3.107L23.935,37.08a1.149,1.149,0,0,1-1.535.6l-.372-.168a1.147,1.147,0,0,1-.589-1.481L23.858,30.1V24.381a.4.4,0,0,1,.006-.069l1.269-7.427a2.935,2.935,0,0,1,2.9-2.449h.014a2.945,2.945,0,0,1,2.9,3.355l-.135.958-.811-.114.135-.958a2.126,2.126,0,0,0-2.1-2.422h-.01a2.119,2.119,0,0,0-2.1,1.768l-1.262,7.394v5.766a.41.41,0,0,1-.03.155l-2.45,6a.328.328,0,0,0,.169.425l.371.168a.33.33,0,0,0,.441-.172l2.48-5.919,1.249-3.878a.41.41,0,0,1,.73-.1l2.335,3.468a.41.41,0,0,1,.068.19l.61,6.378a.33.33,0,0,0,.141.24,1.606,1.606,0,0,0,.622,0c.142-.039.308-.656.31-.8l.058-7.036-2.645-3.978a.41.41,0,0,1-.039-.238l.354-3.479.811.114-.336,3.353,2.63,3.952a.41.41,0,0,1,.041.185l-.059,7.134C32.535,36.974,32.046,37.7,31.415,37.706Z" transform="translate(988.605 230.949)"/><path class="a" d="M38.1,8.231a3.121,3.121,0,1,1,3.121-3.118A3.121,3.121,0,0,1,38.1,8.231ZM38.1,3a2.114,2.114,0,1,0,2.114,2.114A2.114,2.114,0,0,0,38.1,3Z" transform="translate(980.642 237.116)"/><path class="a" d="M44.866,26.3a1.458,1.458,0,0,1-.394-.055l-4.855.021a.458.458,0,0,1-.228-.147l-3.814-4.516a1.551,1.551,0,1,1,2.4-1.96l2.8,3.564,4.6.258a1.466,1.466,0,0,1-.521,2.836ZM40,25.415l4.719-.059a.541.541,0,0,0,.338-1.028l-4.722-.3a.462.462,0,0,1-.2-.146l-2.884-3.665a.627.627,0,1,0-.972.791Z" transform="translate(980.246 228.341)"/></g><g transform="translate(1027.266 249)"><path class="b" d="M179,417.5a1.5,1.5,0,1,1-1.5-1.5A1.5,1.5,0,0,1,179,417.5Zm0,0" transform="translate(-165.302 -395)"/><path class="a" d="M64.408.816h7.082a.408.408,0,1,0,0-.816H64.408a.408.408,0,1,0,0,.816Zm0,0" transform="translate(-60.266 -1)"/><path class="b" d="M19,417.5a1.5,1.5,0,1,1-1.5-1.5A1.5,1.5,0,0,1,19,417.5Zm0,0" transform="translate(-14.466 -395)"/><path class="b" d="M14.206,96H1.225A1.225,1.225,0,0,0,0,97.225v13.064a1.225,1.225,0,0,0,1.225,1.225H14.206a1.225,1.225,0,0,0,1.225-1.225V97.225A1.225,1.225,0,0,0,14.206,96ZM3.449,110.288H1.633V97.225H3.449Zm3.449,0H5.082V97.225H6.9Zm3.449,0H8.532V97.225h1.816Zm3.449,0H11.981V97.225H13.8Zm0,0" transform="translate(0 -91.101)"/><path class="b" d="M240.226,204.678a1.878,1.878,0,0,1-.226-.136v4.435a1.9,1.9,0,0,1,.226-.134,1.061,1.061,0,0,0,.591-.956v-2.257a1.062,1.062,0,0,0-.591-.954Zm0,0" transform="translate(-223.753 -194.105)"/><path class="a" d="M80,32h.816v2.449H80Zm0,0" transform="translate(-75.45 -30.367)"/><path class="a" d="M128,32h.816v2.449H128Zm0,0" transform="translate(-118 -30.367)"/></g></g></svg>