<svg xmlns="http://www.w3.org/2000/svg" width="52.326" height="52.326" viewBox="0 0 52.326 52.326">
    <path d="m38.247 27.261 1.284-1.284 4.531-4.531 4.538-4.535 2.489-2.489a4.23 4.23 0 0 0 0-5.983l-7.2-7.2a4.23 4.23 0 0 0-5.983 0L25.065 14.08 16.35 5.364a11.451 11.451 0 0 0-5.288-3L1.909.047A1.533 1.533 0 0 0 .047 1.909l2.314 9.153a11.45 11.45 0 0 0 3 5.288l8.716 8.715L1.239 37.906a4.23 4.23 0 0 0 0 5.983l7.2 7.2a4.23 4.23 0 0 0 5.983 0l7.019-7.019 5.815-5.815 11.8 11.8a7.768 7.768 0 1 0 10.995-10.99zM5.333 10.31 3.649 3.649l6.661 1.684a8.382 8.382 0 0 1 3.872 2.2l1.208 1.208-6.65 6.65-1.208-1.209a8.384 8.384 0 0 1-2.2-3.872zm5.575 7.248 6.65-6.65 5.342 5.34-6.65 6.65zm.521 31.7a1.157 1.157 0 0 1-.824-.341l-7.2-7.2a1.165 1.165 0 0 1 0-1.647L40.073 3.407a1.165 1.165 0 0 1 1.647 0l7.2 7.2a1.165 1.165 0 0 1 0 1.647l-1.405 1.405-4.678-4.677a1.533 1.533 0 1 0-2.168 2.168l4.676 4.676-2.365 2.365-2.41-2.41a1.533 1.533 0 0 0-2.17 2.168l2.41 2.41-2.365 2.365-4.676-4.676a1.533 1.533 0 1 0-2.169 2.167l4.676 4.676-2.365 2.365-2.41-2.41a1.533 1.533 0 0 0-2.168 2.168l2.41 2.41-2.324 2.324-4.676-4.676a1.533 1.533 0 0 0-2.163 2.168l4.676 4.676-2.365 2.365-2.41-2.41a1.533 1.533 0 0 0-2.168 2.168l2.41 2.41-2.365 2.365-4.676-4.676a1.533 1.533 0 0 0-2.167 2.162l4.676 4.676-2.365 2.365-2.41-2.41a1.533 1.533 0 1 0-2.168 2.169l2.41 2.41-1.405 1.405a1.157 1.157 0 0 1-.823.341zM30.5 35.006l.008-.006.006-.006L35 30.51l1.077-1.077 6.5 6.5-6.65 6.65-6.5-6.5zm17.383 12.877a4.708 4.708 0 0 1-6.65 0l-3.14-3.14 6.65-6.65 3.14 3.14a4.708 4.708 0 0 1 0 6.65z" style="fill:#9eaeb8"/>
</svg>
