<svg width="23" height="19" viewBox="0 0 23 19" fill="none" xmlns="http://www.w3.org/2000/svg">
<path d="M13.6842 17.0242L12.6731 16.3534C12.6073 16.3095 12.5534 16.25 12.5162 16.1801C12.479 16.1103 12.4596 16.0324 12.4599 15.9533V9.98047H10.5432V15.9533C10.5432 16.0321 10.5238 16.1098 10.4866 16.1793C10.4494 16.2489 10.3956 16.3082 10.33 16.3519L9.31894 17.0242C9.25334 17.068 9.19955 17.1273 9.16235 17.1968C9.12516 17.2664 9.1057 17.344 9.10571 17.4229V17.6471C9.10571 17.7742 9.1562 17.8961 9.24606 17.986C9.33592 18.0758 9.4578 18.1263 9.58488 18.1263H13.4182C13.5453 18.1263 13.6672 18.0758 13.757 17.986C13.8469 17.8961 13.8974 17.7742 13.8974 17.6471V17.4243C13.8976 17.3452 13.8783 17.2673 13.8411 17.1975C13.8039 17.1276 13.75 17.0681 13.6842 17.0242Z" fill="#BCBCBD"/>
<path d="M17.7294 7.10547H4.79191C4.52727 7.10547 4.31274 7.32 4.31274 7.58464V8.54297C4.31274 8.80761 4.52727 9.02214 4.79191 9.02214H17.7294C17.994 9.02214 18.2086 8.80761 18.2086 8.54297V7.58464C18.2086 7.32 17.994 7.10547 17.7294 7.10547Z" fill="#BCBCBD"/>
<path d="M11.9799 2.33837V1.83333H12.4591C12.5862 1.83333 12.7081 1.78285 12.7979 1.69299C12.8878 1.60313 12.9383 1.48125 12.9383 1.35417C12.9383 1.22708 12.8878 1.10521 12.7979 1.01534C12.7081 0.925484 12.5862 0.875 12.4591 0.875H10.5424C10.4153 0.875 10.2935 0.925484 10.2036 1.01534C10.1137 1.10521 10.0633 1.22708 10.0633 1.35417C10.0633 1.48125 10.1137 1.60313 10.2036 1.69299C10.2935 1.78285 10.4153 1.83333 10.5424 1.83333H11.0216V2.33837C10.005 2.44168 9.04797 2.86663 8.28959 3.5514C7.53122 4.23618 7.01111 5.14506 6.80493 6.14583H16.1966C15.9904 5.14506 15.4703 4.23618 14.7119 3.5514C13.9536 2.86663 12.9965 2.44168 11.9799 2.33837ZM10.8778 4.29673C10.2183 4.44394 9.63125 4.81783 9.21897 5.35329C9.14164 5.4542 9.0274 5.52025 8.90137 5.53692C8.77534 5.55359 8.64785 5.51951 8.54694 5.44218C8.44604 5.36485 8.37999 5.2506 8.36332 5.12457C8.34665 4.99854 8.38073 4.87105 8.45806 4.77015C9.00784 4.05597 9.79073 3.55727 10.6704 3.36092C10.7318 3.34729 10.7953 3.34591 10.8573 3.35683C10.9193 3.36776 10.9785 3.39079 11.0316 3.42461C11.0847 3.45842 11.1306 3.50236 11.1667 3.55392C11.2028 3.60548 11.2284 3.66364 11.242 3.72508C11.2556 3.78653 11.257 3.85006 11.2461 3.91204C11.2352 3.97402 11.2121 4.03325 11.1783 4.08633C11.1445 4.13941 11.1006 4.18531 11.049 4.22141C10.9975 4.25751 10.9393 4.28311 10.8778 4.29673Z" fill="#BCBCBD"/>
<path d="M22.7612 5.99332C22.6715 5.89104 22.561 5.80911 22.437 5.753C22.3131 5.69689 22.1786 5.6679 22.0425 5.66797H21.5255C21.3155 5.66907 21.1117 5.73911 20.9454 5.86732C20.7791 5.99554 20.6595 6.17482 20.605 6.37762L19.3654 11.0073H16.4094C16.0914 11.0076 15.7825 11.1138 15.5315 11.309C15.2804 11.5041 15.1014 11.7773 15.0227 12.0854L14.8861 12.6159C14.8496 12.7574 14.8459 12.9055 14.8754 13.0487C14.9049 13.1919 14.9667 13.3264 15.0562 13.442C15.1457 13.5577 15.2604 13.6513 15.3917 13.7157C15.5229 13.7801 15.6671 13.8137 15.8133 13.8138H15.8464L14.9211 17.5312C14.9059 17.5923 14.9029 17.6558 14.9123 17.718C14.9216 17.7803 14.9432 17.8401 14.9757 17.894C15.0081 17.948 15.0509 17.995 15.1016 18.0324C15.1523 18.0698 15.2098 18.0968 15.2709 18.1119C15.3088 18.1216 15.3478 18.1265 15.3869 18.1263C15.4938 18.1263 15.5976 18.0905 15.6818 18.0247C15.766 17.9589 15.8258 17.8668 15.8517 17.7631L16.8325 13.8138H20.2696L21.1445 17.7511C21.1682 17.8574 21.2272 17.9524 21.3121 18.0206C21.3969 18.0888 21.5024 18.1261 21.6112 18.1263C21.6464 18.1262 21.6814 18.1224 21.7157 18.1148C21.7772 18.1012 21.8353 18.0756 21.8869 18.0395C21.9385 18.0034 21.9824 17.9575 22.0162 17.9044C22.05 17.8513 22.0731 17.7921 22.084 17.7301C22.0949 17.6681 22.0935 17.6046 22.0799 17.5432L21.2346 13.7405C21.4931 13.6581 21.723 13.5043 21.8977 13.2969C22.0725 13.0894 22.185 12.8367 22.2222 12.568L22.9927 6.75472C23.0107 6.61864 22.9994 6.48027 22.9595 6.34893C22.9196 6.21759 22.852 6.09633 22.7612 5.99332Z" fill="#BCBCBD"/>
<path d="M7.94459 13.4434C8.03468 13.3278 8.09697 13.1931 8.12663 13.0496C8.15629 12.9061 8.15254 12.7577 8.11565 12.6159L7.97861 12.0859C7.90007 11.7778 7.7212 11.5046 7.4702 11.3094C7.2192 11.1142 6.91036 11.0081 6.59238 11.0078H3.63832L2.39871 6.37761C2.34412 6.17443 2.22417 5.99485 2.05738 5.8666C1.89059 5.73835 1.68623 5.66855 1.47584 5.66797H0.955464C0.819193 5.66841 0.684582 5.69791 0.560616 5.7545C0.436649 5.81109 0.326176 5.89347 0.236569 5.99613C0.146961 6.0988 0.08028 6.2194 0.0409742 6.34988C0.00166838 6.48036 -0.00935807 6.61772 0.00863057 6.7528L0.779131 12.568C0.815843 12.8368 0.927884 13.0897 1.1023 13.2976C1.27672 13.5054 1.5064 13.6596 1.76478 13.7424L0.919527 17.5432C0.891949 17.6673 0.914799 17.7972 0.983049 17.9045C1.0513 18.0117 1.15936 18.0875 1.28345 18.115C1.40755 18.1426 1.53752 18.1198 1.64477 18.0515C1.75202 17.9833 1.82776 17.8752 1.85534 17.7511L2.73126 13.8138H6.16976L7.15253 17.7631C7.17845 17.867 7.23846 17.9593 7.32298 18.0251C7.40749 18.091 7.51163 18.1266 7.61876 18.1263C7.65786 18.1265 7.69683 18.1216 7.73471 18.1119C7.79579 18.0967 7.85327 18.0697 7.90388 18.0323C7.95448 17.9948 7.99723 17.9478 8.02966 17.8939C8.0621 17.84 8.0836 17.7802 8.09293 17.7179C8.10225 17.6557 8.09923 17.5922 8.08403 17.5312L7.15636 13.8138H7.1899C7.33569 13.8142 7.47961 13.7809 7.61049 13.7167C7.74136 13.6525 7.85569 13.559 7.94459 13.4434Z" fill="#BCBCBD"/>
</svg>
