<svg xmlns="http://www.w3.org/2000/svg" width="49.084" height="49.084" viewBox="0 0 49.084 49.084">
    <path d="m49.609 11.291-9.816-9.817A1.636 1.636 0 0 0 38.631 1H5.908A4.908 4.908 0 0 0 1 5.908v39.268a4.908 4.908 0 0 0 4.908 4.908h39.268a4.908 4.908 0 0 0 4.908-4.908V12.453a1.636 1.636 0 0 0-.474-1.162zM32.087 4.272v9.817H19V4.272zm-19.634 42.54V35.359a1.636 1.636 0 0 1 1.636-1.636h22.906a1.636 1.636 0 0 1 1.636 1.636v11.453zm34.359-1.636a1.636 1.636 0 0 1-1.636 1.636H41.9V35.359a4.908 4.908 0 0 0-4.908-4.908H14.089a4.908 4.908 0 0 0-4.908 4.908v11.453H5.908a1.636 1.636 0 0 1-1.636-1.636V5.908a1.636 1.636 0 0 1 1.636-1.636h9.817v9.817A3.272 3.272 0 0 0 19 17.361h13.087a3.272 3.272 0 0 0 3.272-3.272V4.272h2.6l8.851 8.851z" transform="translate(-1 -1)" style="fill:#9eaeb8"/>
</svg>
