<svg id="google-docs" xmlns="http://www.w3.org/2000/svg" width="12.64" height="16.594" viewBox="0 0 12.64 16.594">
  <path id="Path_2048" data-name="Path 2048" d="M62.458,16.594h9.723a1.46,1.46,0,0,0,1.458-1.458V4.861h-3.4A1.46,1.46,0,0,1,68.778,3.4V0h-6.32A1.46,1.46,0,0,0,61,1.458V15.135A1.46,1.46,0,0,0,62.458,16.594ZM64.4,6.838h5.834a.486.486,0,0,1,0,.972H64.4a.486.486,0,1,1,0-.972Zm0,2.518h5.834a.486.486,0,0,1,0,.972H64.4a.486.486,0,1,1,0-.972Zm0,2.63h3.889a.486.486,0,1,1,0,.972H64.4a.486.486,0,1,1,0-.972Z" transform="translate(-61)" fill="#c2c2c2"/>
  <path id="Path_2049" data-name="Path 2049" d="M331.368,11.514h2.357L331,8.789v2.357A.368.368,0,0,0,331.368,11.514Z" transform="translate(-321.3 -8.574)" fill="#c2c2c2"/>
</svg>
