<svg xmlns="http://www.w3.org/2000/svg" width="14.667" height="16" viewBox="0 0 14.667 16">
    <path data-name="Path 2040" d="M15.667 17.333h-8A1.669 1.669 0 0 1 6 15.667v-10A1.669 1.669 0 0 1 7.667 4h8a1.669 1.669 0 0 1 1.667 1.667v10a1.669 1.669 0 0 1-1.667 1.666zm-8-12.667a1 1 0 0 0-1 1v10a1 1 0 0 0 1 1h8a1 1 0 0 0 1-1v-10a1 1 0 0 0-1-1z" transform="translate(-2.667 -1.333)" style="fill:#5f38f9"/>
    <path data-name="Path 2041" d="M3.333 14h-.666A1.669 1.669 0 0 1 1 12.333V1.667A1.669 1.669 0 0 1 2.667 0h8a1.669 1.669 0 0 1 1.667 1.667.333.333 0 1 1-.667 0 1 1 0 0 0-1-1h-8a1 1 0 0 0-1 1v10.666a1 1 0 0 0 1 1h.667a.333.333 0 1 1 0 .667z" style="fill:#5f38f9" transform="translate(-1)"/>
    <path data-name="Path 2042" d="M15.667 16.667h-5.334a.333.333 0 0 1 0-.667h5.333a.333.333 0 0 1 0 .667z" transform="translate(-4 -5.333)" style="fill:#5f38f9"/>
    <path data-name="Path 2043" d="M15.667 20.667h-5.334a.333.333 0 1 1 0-.667h5.333a.333.333 0 1 1 0 .667z" transform="translate(-4 -6.667)" style="fill:#5f38f9"/>
    <path data-name="Path 2044" d="M15.667 12.667h-5.334a.333.333 0 0 1 0-.667h5.333a.333.333 0 0 1 0 .667z" transform="translate(-4 -4)" style="fill:#5f38f9"/>
    <path data-name="Path 2045" d="M15.667 8.667h-5.334a.333.333 0 0 1 0-.667h5.333a.333.333 0 0 1 0 .667z" transform="translate(-4 -2.667)" style="fill:#5f38f9"/>
</svg>
