<svg xmlns="http://www.w3.org/2000/svg" width="8.756" height="16.023" viewBox="0 0 8.756 16.023">
    <path d="M85.633 10.982A3.424 3.424 0 0 0 84.142 8a8.927 8.927 0 0 0-2.615-1.1c-1.888-.572-2.435-.874-2.435-1.776 0-1.005 1.307-1.363 2.425-1.363a4.677 4.677 0 0 1 2.334.629l1.154-1.79a6.613 6.613 0 0 0-2.83-.934V0h-2.128v1.786c-1.892.416-3.084 1.653-3.084 3.339A3.2 3.2 0 0 0 78.418 7.9a8.93 8.93 0 0 0 2.493 1.037c1.851.56 2.6.9 2.595 2.03v.008c0 .948-1.256 1.285-2.332 1.285a3.991 3.991 0 0 1-2.749-1.108l-1.546 1.463a5.936 5.936 0 0 0 3.169 1.665v1.741h2.129v-1.7c2.101-.303 3.454-1.569 3.456-3.339z" transform="translate(-76.878)" style="fill:#434343"/>
</svg>
