<svg xmlns="http://www.w3.org/2000/svg" id="Download_2" width="20" height="20" viewBox="0 0 20 20">
    <defs>
        <style>
            .cls-1{fill:#fff}
        </style>
    </defs>
    <path id="Path_3776" d="M2.069 164.928h15.859v-7.9a1.043 1.043 0 0 1 .932-1.083 1.036 1.036 0 0 1 1.14 1.028c.007.778 0 1.557 0 2.334v5.836a1.734 1.734 0 0 1-1.855 1.864H1.855A1.734 1.734 0 0 1 0 165.144v-8.128a1.035 1.035 0 1 1 2.067.008v7.9z" class="cls-1" transform="translate(0 -147.007)"/>
    <path id="Path_3777" d="M92.053 12.351V1.1a1.039 1.039 0 1 1 2.075-.121c.005.086 0 .173 0 .259v11.117c.081-.076.135-.123.186-.173.647-.647 1.29-1.3 1.943-1.939a1.031 1.031 0 0 1 1.736.419 1.011 1.011 0 0 1-.277 1.052q-.692.7-1.39 1.392l-2.4 2.4a1.058 1.058 0 0 1-1.675 0l-3.76-3.761a1.037 1.037 0 1 1 1.435-1.494c.653.642 1.3 1.292 1.943 1.939.05.041.103.088.184.161z" class="cls-1" transform="translate(-83.092 0.001)"/>
</svg>
