<svg xmlns="http://www.w3.org/2000/svg" width="20" height="20" viewBox="0 0 20 20"><defs><style>.a{fill:#959ea7;}</style></defs><path class="a" d="M18.909,1.091A3.7,3.7,0,0,0,16.276,0H3.724A3.728,3.728,0,0,0,0,3.724V16.276A3.728,3.728,0,0,0,3.724,20H16.276A3.728,3.728,0,0,0,20,16.276V3.724A3.7,3.7,0,0,0,18.909,1.091ZM6.479,8.5a.586.586,0,0,1,.829,0L9.414,10.6V4.352a.586.586,0,0,1,1.172,0V10.6L12.692,8.5a.586.586,0,0,1,.829.829l-3.106,3.107a.586.586,0,0,1-.829,0L6.479,9.324A.586.586,0,0,1,6.479,8.5Zm9.169,7.739H4.352a.586.586,0,1,1,0-1.172h11.3a.586.586,0,0,1,0,1.172Z"/></svg>