<svg xmlns="http://www.w3.org/2000/svg" width="44" height="44" viewBox="0 0 44 44">
    <g data-name="Group 8278" transform="translate(-399 -500)">
        <circle data-name="Ellipse 1967" cx="22" cy="22" r="22" transform="translate(399 500)" style="fill:#fff"/>
        <g data-name="Group 8259">
            <path data-name="Path 4366" d="M18.41 2.312 16.689.59a2.02 2.02 0 0 0-2.854 0L1.024 13.4a.567.567 0 0 0-.154.292l-.861 4.65a.557.557 0 0 0 .649.649l4.649-.861a.567.567 0 0 0 .292-.154L18.41 5.166a2.017 2.017 0 0 0 0-2.854zM1.252 17.75l.521-2.813 2.291 2.293zm3.954-.95-3-3L13.161 2.839l3 3zM17.623 4.379l-.674.674-3-3 .674-.674a.905.905 0 0 1 1.279 0L17.623 3.1a.9.9 0 0 1 0 1.279z" transform="translate(411 513)" style="fill:#9eaeb8"/>
        </g>
    </g>
</svg>
