<svg xmlns="http://www.w3.org/2000/svg" width="18.793" height="14.315" viewBox="0 0 18.793 14.315">
    <g>
        <g>
            <path fill="#c1c1c1" d="M17.142 61H1.652A1.655 1.655 0 0 0 0 62.652v11.012a1.654 1.654 0 0 0 1.652 1.652h15.49a1.654 1.654 0 0 0 1.652-1.652V62.652A1.654 1.654 0 0 0 17.142 61zm-.228 1.1l-7.482 7.483L1.885 62.1zM1.1 73.436V62.875l5.3 5.258zm.779.779l5.307-5.307 1.859 1.843a.551.551 0 0 0 .777 0l1.813-1.813 5.278 5.278zm15.812-.779l-5.278-5.278 5.278-5.278z" transform="translate(1) translate(-1 -61)"/>
        </g>
    </g>
</svg>
