<svg width="22" height="22" viewBox="0 0 22 22" fill="none" xmlns="http://www.w3.org/2000/svg">
<path fill-rule="evenodd" clip-rule="evenodd" d="M11 22C8.82441 22 6.69767 21.3549 4.88873 20.1462C3.07979 18.9375 1.66989 17.2195 0.83733 15.2095C0.00476617 13.1995 -0.213071 10.9878 0.211367 8.85401C0.635804 6.72022 1.68345 4.76021 3.22183 3.22183C4.76021 1.68345 6.72022 0.635804 8.85401 0.211367C10.9878 -0.213071 13.1995 0.00476617 15.2095 0.83733C17.2195 1.66989 18.9375 3.07979 20.1462 4.88873C21.3549 6.69767 22 8.82441 22 11C21.9968 13.9164 20.8369 16.7125 18.7747 18.7747C16.7125 20.8369 13.9164 21.9968 11 22ZM16.7 14.864C16.7652 14.864 16.8278 14.8381 16.874 14.792C16.9201 14.7458 16.946 14.6832 16.946 14.618V7.712L11.346 12.156C11.2453 12.236 11.1206 12.2795 10.992 12.2795C10.8634 12.2795 10.7387 12.236 10.638 12.156L5.05 7.712V14.618C5.05 14.6832 5.07592 14.7458 5.12206 14.792C5.16819 14.8381 5.23076 14.864 5.296 14.864H16.7ZM15.842 7.136L11 10.985L6.153 7.136H15.842ZM18.084 7.382V14.619C18.0827 14.9854 17.9363 15.3363 17.677 15.5951C17.4177 15.8539 17.0664 15.9995 16.7 16H5.3C4.93303 15.9997 4.58115 15.8538 4.32166 15.5943C4.06217 15.3349 3.91627 14.983 3.916 14.616V7.382C3.9168 7.01537 4.06293 6.66401 4.32237 6.40495C4.5818 6.14589 4.93337 6.00027 5.3 6H16.7C16.8819 5.99961 17.0621 6.03504 17.2303 6.10428C17.3984 6.17352 17.5513 6.27521 17.6802 6.40354C17.8091 6.53187 17.9115 6.68433 17.9814 6.85222C18.0514 7.0201 18.0876 7.20012 18.088 7.382H18.084Z" fill="#0030B5"/>
</svg>
