<svg xmlns="http://www.w3.org/2000/svg" width="10.824" height="7.43" viewBox="0 0 10.824 7.43"><defs><style>.a{opacity:0.9;}</style></defs><g class="a"><g transform="translate(7.18 1.37)"><path d="M339.392,147.3l3.643,2.3v-4.7Z" transform="translate(-339.392 -144.896)"/></g><g transform="translate(0 1.37)"><path d="M0,144.9v4.7l3.643-2.3Z" transform="translate(0 -144.896)"/></g><g transform="translate(0.02)"><g transform="translate(0 0)"><path d="M11.087,80H1.616a.668.668,0,0,0-.656.575l5.392,3.547,5.392-3.547A.668.668,0,0,0,11.087,80Z" transform="translate(-0.96 -80)"/></g></g><g transform="translate(0.022 4.178)"><path d="M7.557,277.921l-.957.63a.34.34,0,0,1-.372,0l-.957-.63L1.024,280.6a.667.667,0,0,0,.655.57H11.15a.667.667,0,0,0,.655-.57Z" transform="translate(-1.024 -277.92)"/></g></g></svg>