<svg xmlns="http://www.w3.org/2000/svg" width="22" height="22" viewBox="0 0 22 22">
    <path d="M11 22a11 11 0 1 1 11-11 11.012 11.012 0 0 1-11 11zm5.7-7.136a.246.246 0 0 0 .246-.246V7.712l-5.6 4.444a.569.569 0 0 1-.708 0L5.05 7.712v6.906a.246.246 0 0 0 .246.246zm-.858-7.728L11 10.985 6.153 7.136h9.694zm2.242.246v7.237A1.386 1.386 0 0 1 16.7 16H5.3a1.385 1.385 0 0 1-1.384-1.384V7.382A1.385 1.385 0 0 1 5.3 6h11.4a1.385 1.385 0 0 1 1.388 1.382z" style="fill:#0030b5;fill-rule:evenodd;opacity:.4"/>
</svg>
