<svg xmlns="http://www.w3.org/2000/svg" width="36.337" height="36.354" viewBox="0 0 36.337 36.354">
    <g data-name="Group 7088">
        <path data-name="Path 5233" d="M18.654 3.076H8.938c-.387 0-.9-.474 4.74 3.752z" transform="translate(-7.358 -3.061)" style="fill:#c5c5c5"/>
        <path data-name="Path 5234" d="M15.972 14.151c0-6.865.04-6.493-.095-6.841-6.272 4.7-5.853 4.471-6.225 4.471s0 .19-6.225-4.471c-.095.355-.095.016-.095 6.841a1.58 1.58 0 0 0 1.58 1.58h9.479a1.58 1.58 0 0 0 1.58-1.58z" transform="translate(-3.333 -6.235)" style="fill:#c5c5c5"/>
        <path data-name="Path 5235" d="m118.918 19.744 2.18-1.1-2.18-1.09z" transform="translate(-89.691 -13.89)" style="fill:#c5c5c5"/>
        <path data-name="Path 5236" d="M108.11 3.123h-9.479a1.58 1.58 0 0 0-1.58 1.58v6.32a1.58 1.58 0 0 0 1.58 1.58h9.479a1.58 1.58 0 0 0 1.58-1.58V4.7a1.58 1.58 0 0 0-1.58-1.58zm-2.638 6.154c-2.37 1.169-2.37 1.256-2.891 1.256A1.58 1.58 0 0 1 101 8.953c0-1.927-.221-2.923.79-3.523s1.667 0 3.721 1.019a1.58 1.58 0 0 1-.039 2.828z" transform="translate(-73.353 -3.107)" style="fill:#c5c5c5"/>
        <path data-name="Path 5237" d="M117.374 118.744a1.58 1.58 0 1 0-1.58-1.58 1.58 1.58 0 0 0 1.58 1.58z" transform="translate(-87.357 -87.13)" style="fill:#c5c5c5"/>
        <path data-name="Path 5238" d="M108.955 101.579a.735.735 0 0 1-.521-1.256.735.735 0 0 0 0-1.035l-1.193-1.188a.719.719 0 0 0-1.035 0 .735.735 0 0 1-1.256-.521.735.735 0 0 0-.735-.735h-1.69a.735.735 0 0 0-.735.735.735.735 0 0 1-1.256.521.719.719 0 0 0-1.035 0l-1.193 1.193a.727.727 0 0 0 0 1.035.743.743 0 0 1-.521 1.256.735.735 0 0 0-.735.735V104a.735.735 0 0 0 .735.735.735.735 0 0 1 .522 1.265.719.719 0 0 0 0 1.035l1.193 1.193a.719.719 0 0 0 1.035 0 .734.734 0 0 1 1.256.521.735.735 0 0 0 .735.735h1.69a.735.735 0 0 0 .735-.735.735.735 0 0 1 1.256-.521.719.719 0 0 0 1.035 0l1.193-1.193a.719.719 0 0 0 0-1.035.735.735 0 0 1 .521-1.256.735.735 0 0 0 .735-.735v-1.69a.735.735 0 0 0-.735-.735zm-5.585 4.74a3.16 3.16 0 1 1 2.234-.926 3.16 3.16 0 0 1-2.234.926z" transform="translate(-73.353 -73.126)" style="fill:#c5c5c5"/>
        <path data-name="Path 5239" d="m13.078 98.62-2.8 2.789a2.37 2.37 0 0 0 0 3.349l2.236 2.236a2.37 2.37 0 0 0 3.349 0l2.8-2.789z" transform="translate(-8.007 -74.456)" style="fill:#c5c5c5"/>
        <path data-name="Path 5240" d="m41.08 127.331-2.228 2.236 2.228 2.228a1.58 1.58 0 0 0 2.22-2.228z" transform="translate(-29.871 -95.906)" style="fill:#c5c5c5"/>
        <path data-name="Path 5241" d="m27.012 64.277 5.98 5.98 9.858-4.669-11.17-11.17z" transform="translate(-21.025 -41.431)" style="fill:#c5c5c5"/>
        <path data-name="Path 5242" d="M64.312 64.126 68.183 68a3.16 3.16 0 0 0-3.871-3.871z" transform="translate(-48.893 -48.603)" style="fill:#c5c5c5"/>
        <path data-name="Path 5243" d="M82.863 52.339c.434 0 .45-.126 2.236-1.912a.79.79 0 1 0-1.114-1.122L82.31 50.98a.79.79 0 0 0 .553 1.359z" transform="translate(-62.159 -37.44)" style="fill:#c5c5c5"/>
        <path data-name="Path 5244" d="M70.515 43.771V41.4a.79.79 0 1 0-1.58 0v2.37a.79.79 0 1 0 1.58 0z" transform="translate(-52.347 -31.116)" style="fill:#c5c5c5"/>
        <path data-name="Path 5245" d="M90.839 68.726h-2.37a.79.79 0 0 0 0 1.58h2.37a.79.79 0 0 0 0-1.58z" transform="translate(-66.351 -52.121)" style="fill:#c5c5c5"/>
    </g>
</svg>
