<svg xmlns="http://www.w3.org/2000/svg" width="125.968" height="131.227" viewBox="0 0 125.968 131.227">
    <g data-name="Group 8765" style="opacity:.4">
        <g data-name="Group 8763">
            <path data-name="Path 5220" d="M162.694 176.736H72.11c0-21.889 12.782-20.661 12.782-32.931V122.41c0-17.418 8.6-28.9 22.524-32.5a10.037 10.037 0 0 1 19.971 0c13.925 3.59 22.524 15.085 22.524 32.5v21.39c.005 12.274 12.783 11.046 12.783 32.936z" transform="translate(-54.425 -65.7)" style="fill:#e6e6f5"/>
        </g>
        <g data-name="Group 8764">
            <path data-name="Path 5221" d="M162.7 176.73H72.11c0-1.351.051-2.617.14-3.8h79.1c0-22.063-12.782-20.831-12.782-33.2v-21.559c0-17.558-14.366-30.357-28.3-33.973-.152-1.5 5.136-1.715 4.4-2.951a10.045 10.045 0 0 1 12.719 8.65c13.93 3.59 22.524 15.09 22.524 32.5v21.394c.005 12.273 12.789 11.045 12.789 32.939z" transform="translate(-54.425 -65.695)" style="fill:#cbcef3"/>
        </g>
        <path data-name="Path 5222" d="M172.059 307.73s-1.816 17.854-19.6 17.854a17.974 17.974 0 0 1-10.691-3.048c-7.219-5.093-7.38-14.806-7.38-14.806z" transform="translate(-90.336 -196.504)" style="fill:#dfe0f4"/>
        <path data-name="Path 5223" d="M173.42 307.724s-1.816 17.854-19.6 17.854a17.974 17.974 0 0 1-10.691-3.048 8.047 8.047 0 0 1 1.948-.309c.114 0 .224-.013.334-.021 7.528-.5 7.994-11.423.546-12.625-4.975-.8-8.891-1.44-8.967-1.49l-.241-.364h36.67z" transform="translate(-91.697 -196.498)" style="fill:#cbcef3"/>
        <path data-name="Path 5224" d="M149.349 141.615v-21.394c0-17.351-8.256-29.595-22.7-33.774a11.638 11.638 0 0 0-22.825 0c-14.442 4.192-22.7 16.436-22.7 33.774v21.394c0 4.67-2.049 7.1-4.645 10.178-3.624 4.3-8.133 9.649-8.133 22.753a1.6 1.6 0 0 0 1.6 1.6h25.166a20.194 20.194 0 0 0 40.26 0h25.162a1.6 1.6 0 0 0 1.6-1.6c0-13.1-4.509-18.456-8.133-22.753-2.601-3.074-4.652-5.508-4.652-10.178zm-34.109 49.926a17.027 17.027 0 0 1-16.931-15.39h33.846a17.008 17.008 0 0 1-16.915 15.39zm18.6-18.591H71.568c.334-10.763 4.056-15.174 7.359-19.091 2.777-3.294 5.4-6.406 5.4-12.244v-21.394c0-16.165 7.773-27.448 21.326-30.954a1.6 1.6 0 0 0 1.19-1.389 8.437 8.437 0 0 1 16.787 0 1.594 1.594 0 0 0 1.194 1.389c13.553 3.493 21.326 14.776 21.326 30.954v21.394c0 5.839 2.621 8.95 5.4 12.244 3.3 3.916 7.024 8.328 7.359 19.091z" transform="translate(-52.257 -63.515)" style="fill:#a8adf6"/>
        <path data-name="Path 5225" d="M240.184 74.413a1.6 1.6 0 1 0-1.846 2.617 42.914 42.914 0 0 1 16.635 46.628 1.6 1.6 0 0 0 1.109 1.973 1.518 1.518 0 0 0 .432.059 1.6 1.6 0 0 0 1.541-1.169 46.146 46.146 0 0 0-17.871-50.108z" transform="translate(-149.884 -61.803)" style="fill:#a8adf6"/>
        <path data-name="Path 5226" d="M264.872 45.342a1.6 1.6 0 0 0-1.905 2.574 59.045 59.045 0 0 1 22.253 61.315 1.6 1.6 0 0 0 1.177 1.931 1.667 1.667 0 0 0 .377.047 1.6 1.6 0 0 0 1.554-1.224 62.261 62.261 0 0 0-23.456-64.643z" transform="translate(-164.101 -45.028)" style="fill:#a8adf6"/>
        <path data-name="Path 5227" d="M89.769 77.026a1.6 1.6 0 1 0-1.846-2.617 46.137 46.137 0 0 0-17.88 50.108 1.6 1.6 0 0 0 1.541 1.169 1.518 1.518 0 0 0 .432-.059 1.6 1.6 0 0 0 1.109-1.973 42.933 42.933 0 0 1 16.644-46.628z" transform="translate(-52.257 -61.799)" style="fill:#a8adf6"/>
        <path data-name="Path 5228" d="M33.541 95.324a59.245 59.245 0 0 1 23.9-47.407 1.6 1.6 0 0 0-1.905-2.574 62.256 62.256 0 0 0-23.46 64.643 1.6 1.6 0 0 0 1.554 1.224 1.457 1.457 0 0 0 .377-.047 1.6 1.6 0 0 0 1.181-1.931 59.123 59.123 0 0 1-1.647-13.908z" transform="translate(-30.34 -45.028)" style="fill:#a8adf6"/>
    </g>
</svg>
