<svg width="14" height="14" viewBox="0 0 14 14" fill="none" xmlns="http://www.w3.org/2000/svg">
<path d="M7.00016 13.5954C3.31816 13.5954 0.333496 10.6107 0.333496 6.92869C0.333496 3.24736 3.31816 0.262024 7.00016 0.262024C10.6822 0.262024 13.6668 3.24736 13.6668 6.92869C13.6668 10.6107 10.6822 13.5954 7.00016 13.5954ZM7.00016 3.59536C6.82335 3.59536 6.65378 3.66559 6.52876 3.79062C6.40373 3.91564 6.3335 4.08521 6.3335 4.26202V7.59536C6.3335 7.77217 6.40373 7.94174 6.52876 8.06676C6.65378 8.19179 6.82335 8.26202 7.00016 8.26202C7.17697 8.26202 7.34654 8.19179 7.47157 8.06676C7.59659 7.94174 7.66683 7.77217 7.66683 7.59536V4.26202C7.66683 4.08521 7.59659 3.91564 7.47157 3.79062C7.34654 3.66559 7.17697 3.59536 7.00016 3.59536ZM7.00016 10.262C7.17697 10.262 7.34654 10.1918 7.47157 10.0668C7.59659 9.94174 7.66683 9.77217 7.66683 9.59536C7.66683 9.41855 7.59659 9.24898 7.47157 9.12395C7.34654 8.99893 7.17697 8.92869 7.00016 8.92869C6.82335 8.92869 6.65378 8.99893 6.52876 9.12395C6.40373 9.24898 6.3335 9.41855 6.3335 9.59536C6.3335 9.77217 6.40373 9.94174 6.52876 10.0668C6.65378 10.1918 6.82335 10.262 7.00016 10.262Z" fill="#EF1D45"/>
</svg>
