<svg width="24" height="24" viewBox="0 0 24 24" fill="none" xmlns="http://www.w3.org/2000/svg">
<g clip-path="url(#clip0_1524_3331)">
<mask id="mask0_1524_3331" style="mask-type:luminance" maskUnits="userSpaceOnUse" x="0" y="0" width="24" height="24">
<path d="M0 0H24V24H0V0Z" fill="white"/>
</mask>
<g mask="url(#mask0_1524_3331)">
<path d="M2.25 0H21.75C22.9907 0 24 1.00928 24 2.25V11.5122C24 11.9268 23.6642 12.2622 23.25 12.2622C22.8358 12.2622 22.5 11.9268 22.5 11.5122V2.25C22.5 1.83618 22.1635 1.5 21.75 1.5H2.25C1.83655 1.5 1.5 1.83618 1.5 2.25V21.75C1.5 22.1638 1.83655 22.5 2.25 22.5H11.5126C11.9268 22.5 12.2626 22.8355 12.2626 23.25C12.2626 23.6645 11.9268 24 11.5126 24H2.25C1.00928 24 0 22.9907 0 21.75V2.25C0 1.00928 1.00928 0 2.25 0Z" fill="#BABABB"/>
<path d="M15.75 13.5H21.75C22.9907 13.5 24 14.5093 24 15.75V21.75C24 22.9907 22.9907 24 21.75 24H15.75C14.5093 24 13.5 22.9907 13.5 21.75V15.75C13.5 14.5093 14.5093 13.5 15.75 13.5ZM15 21.75C15 22.1638 15.3365 22.5 15.75 22.5H21.75C22.1635 22.5 22.5 22.1638 22.5 21.75V15.75C22.5 15.3362 22.1635 15 21.75 15H15.75C15.3365 15 15 15.3362 15 15.75V21.75Z" fill="#BABABB"/>
<path d="M11.4697 12.5303L6.75 7.81054V9C6.75 9.41455 6.41419 9.75 6 9.75C5.58581 9.75 5.25 9.41455 5.25 9V6C5.25 5.59824 5.59204 5.25 6 5.25H9C9.41419 5.25 9.75 5.58545 9.75 6C9.75 6.41455 9.41419 6.75 9 6.75H7.81055L12.5303 11.4697C12.8232 11.7627 12.8232 12.2373 12.5303 12.5303C12.2471 12.8134 11.762 12.8226 11.4697 12.5303Z" fill="#BABABB"/>
</g>
</g>
<defs>
<clipPath id="clip0_1524_3331">
<rect width="24" height="24" fill="white"/>
</clipPath>
</defs>
</svg>
