<svg xmlns="http://www.w3.org/2000/svg" width="12" height="16" viewBox="0 0 12 16">
  <g id="Export" transform="translate(-68.891)">
    <path id="Path_2038" data-name="Path 2038" d="M80.391,172.228h-1.5v1h1v9h-10v-9h1v-1h-1.5a.5.5,0,0,0-.5.5v10a.5.5,0,0,0,.5.5h11a.5.5,0,0,0,.5-.5v-10A.5.5,0,0,0,80.391,172.228Z" transform="translate(0 -167.228)" fill="#9b9b9b"/>
    <path id="Path_2039" data-name="Path 2039" d="M162.9,1.914V9h1V1.914l2.147,2.147.707-.707L163.4,0l-3.354,3.354.707.707Z" transform="translate(-88.513 0)" fill="#9b9b9b"/>
  </g>
</svg>
