<svg xmlns="http://www.w3.org/2000/svg" width="11.5" height="11.5" viewBox="0 0 11.5 11.5">
  <g id="facilities" transform="translate(0)">
    <g id="Group_5161" data-name="Group 5161" transform="translate(0)">
      <path id="Path_2309" data-name="Path 2309" d="M32.493,161.35h.726a.168.168,0,0,0,.168-.168v-1.407a.168.168,0,0,0-.168-.168h-.726a.168.168,0,0,0-.168.168v1.407A.168.168,0,0,0,32.493,161.35Zm.168-1.407h.389v1.07h-.389Z" transform="translate(-31.599 -156.021)" fill="#c2c2c2"/>
      <path id="Path_2310" data-name="Path 2310" d="M32.325,256.136a.168.168,0,0,0,.168.168h.726a.168.168,0,0,0,.168-.168v-1.407a.168.168,0,0,0-.168-.168h-.726a.168.168,0,0,0-.168.168Zm.337-1.238h.389v1.07h-.389Z" transform="translate(-31.599 -248.843)" fill="#c2c2c2"/>
      <path id="Path_2311" data-name="Path 2311" d="M32.325,403.62a.168.168,0,0,0,.168.168h.726a.168.168,0,0,0,.168-.168v-1.407a.168.168,0,0,0-.168-.168h-.726a.168.168,0,0,0-.168.168Zm.337-1.238h.389v1.07h-.389Z" transform="translate(-31.599 -393.015)" fill="#c2c2c2"/>
      <path id="Path_2312" data-name="Path 2312" d="M11.332,3.571A.168.168,0,0,0,11.5,3.4v-.92a.168.168,0,0,0-.168-.168H9.322V1.063H9.38A.168.168,0,0,0,9.549.895V.168A.168.168,0,0,0,9.38,0H2.12a.168.168,0,0,0-.168.168V.895a.168.168,0,0,0,.168.168h.059V2.314H.168A.168.168,0,0,0,0,2.483V3.4a.168.168,0,1,0,.337,0V2.651H2.178v5.2H2.12a.168.168,0,0,0-.168.168v.726a.168.168,0,0,0,.168.168h.059v2.25H.337V4.19A.168.168,0,0,0,0,4.19v7.141a.168.168,0,0,0,.168.168H11.332a.168.168,0,0,0,.168-.168V4.19a.168.168,0,1,0-.337,0v6.973H9.322V8.913H9.38a.168.168,0,0,0,.168-.168V8.019A.168.168,0,0,0,9.38,7.85H9.322v-5.2h1.841V3.4a.168.168,0,0,0,.168.168ZM9.212,8.187v.389H2.288V8.187Zm-3.63,2.976H5.011V9.64h.571Zm.337,0V9.64h.571v1.524Zm3.066,0H6.826V9.471A.168.168,0,0,0,6.658,9.3H4.842a.168.168,0,0,0-.168.168v1.692H2.515V8.913h6.47ZM2.515,7.85V1.063H7.707a.168.168,0,0,0,0-.337H2.288V.337H9.212V.726H8.494a.168.168,0,1,0,0,.337h.491V7.85Z" transform="translate(0)" fill="#c2c2c2"/>
      <path id="Path_2313" data-name="Path 2313" d="M130.2,64.65h-.726a.168.168,0,0,0-.168.168v1.407a.168.168,0,0,0,.168.168h.726a.168.168,0,0,0,.168-.168V64.818A.168.168,0,0,0,130.2,64.65Zm-.168,1.407h-.389v-1.07h.389Z" transform="translate(-126.397 -63.198)" fill="#c2c2c2"/>
      <path id="Path_2314" data-name="Path 2314" d="M198.887,64.65h-.726a.168.168,0,0,0-.168.168v1.407a.168.168,0,0,0,.168.168h.726a.168.168,0,0,0,.168-.168V64.818A.168.168,0,0,0,198.887,64.65Zm-.168,1.407h-.389v-1.07h.389Z" transform="translate(-193.545 -63.198)" fill="#c2c2c2"/>
      <path id="Path_2315" data-name="Path 2315" d="M267.578,64.65h-.726a.168.168,0,0,0-.168.168v1.407a.168.168,0,0,0,.168.168h.726a.168.168,0,0,0,.168-.168V64.818A.168.168,0,0,0,267.578,64.65Zm-.168,1.407h-.389v-1.07h.389Z" transform="translate(-260.693 -63.198)" fill="#c2c2c2"/>
      <path id="Path_2316" data-name="Path 2316" d="M336.269,64.65h-.726a.168.168,0,0,0-.168.168v1.407a.168.168,0,0,0,.168.168h.726a.168.168,0,0,0,.168-.168V64.818A.168.168,0,0,0,336.269,64.65Zm-.168,1.407h-.389v-1.07h.389Z" transform="translate(-327.841 -63.198)" fill="#c2c2c2"/>
      <path id="Path_2317" data-name="Path 2317" d="M130.2,159.605h-.726a.168.168,0,0,0-.168.168v1.407a.168.168,0,0,0,.168.168h.726a.168.168,0,0,0,.168-.168v-1.407A.168.168,0,0,0,130.2,159.605Zm-.168,1.407h-.389v-1.07h.389Z" transform="translate(-126.397 -156.02)" fill="#c2c2c2"/>
      <path id="Path_2318" data-name="Path 2318" d="M198.887,159.605h-.726a.168.168,0,0,0-.168.168v1.407a.168.168,0,0,0,.168.168h.726a.168.168,0,0,0,.168-.168v-1.407A.168.168,0,0,0,198.887,159.605Zm-.168,1.407h-.389v-1.07h.389Z" transform="translate(-193.545 -156.02)" fill="#c2c2c2"/>
      <path id="Path_2319" data-name="Path 2319" d="M267.578,159.605h-.726a.168.168,0,0,0-.168.168v1.407a.168.168,0,0,0,.168.168h.726a.168.168,0,0,0,.168-.168v-1.407A.168.168,0,0,0,267.578,159.605Zm-.168,1.407h-.389v-1.07h.389Z" transform="translate(-260.693 -156.02)" fill="#c2c2c2"/>
      <path id="Path_2320" data-name="Path 2320" d="M336.269,159.605h-.726a.168.168,0,0,0-.168.168v1.407a.168.168,0,0,0,.168.168h.726a.168.168,0,0,0,.168-.168v-1.407A.168.168,0,0,0,336.269,159.605Zm-.168,1.407h-.389v-1.07h.389Z" transform="translate(-327.841 -156.02)" fill="#c2c2c2"/>
      <path id="Path_2321" data-name="Path 2321" d="M130.2,254.561h-.726a.168.168,0,0,0-.168.168v1.407a.168.168,0,0,0,.168.168h.726a.168.168,0,0,0,.168-.168v-1.407A.168.168,0,0,0,130.2,254.561Zm-.168,1.407h-.389V254.9h.389Z" transform="translate(-126.397 -248.843)" fill="#c2c2c2"/>
      <path id="Path_2322" data-name="Path 2322" d="M198.887,254.561h-.726a.168.168,0,0,0-.168.168v1.407a.168.168,0,0,0,.168.168h.726a.168.168,0,0,0,.168-.168v-1.407A.168.168,0,0,0,198.887,254.561Zm-.168,1.407h-.389V254.9h.389Z" transform="translate(-193.545 -248.843)" fill="#c2c2c2"/>
      <path id="Path_2323" data-name="Path 2323" d="M267.578,254.561h-.726a.168.168,0,0,0-.168.168v1.407a.168.168,0,0,0,.168.168h.726a.168.168,0,0,0,.168-.168v-1.407A.168.168,0,0,0,267.578,254.561Zm-.168,1.407h-.389V254.9h.389Z" transform="translate(-260.693 -248.843)" fill="#c2c2c2"/>
      <path id="Path_2324" data-name="Path 2324" d="M336.269,254.561h-.726a.168.168,0,0,0-.168.168v1.407a.168.168,0,0,0,.168.168h.726a.168.168,0,0,0,.168-.168v-1.407A.168.168,0,0,0,336.269,254.561Zm-.168,1.407h-.389V254.9h.389Z" transform="translate(-327.841 -248.843)" fill="#c2c2c2"/>
      <path id="Path_2325" data-name="Path 2325" d="M129.469,415.638h1.044a.168.168,0,0,0,.168-.168v-1.134a.168.168,0,0,0-.168-.168h-1.044a.168.168,0,0,0-.168.168v1.134A.168.168,0,0,0,129.469,415.638Zm.168-1.134h.707v.8h-.707Z" transform="translate(-126.397 -404.864)" fill="#c2c2c2"/>
      <path id="Path_2326" data-name="Path 2326" d="M321.4,415.638h1.044a.168.168,0,0,0,.168-.168v-1.134a.168.168,0,0,0-.168-.168H321.4a.168.168,0,0,0-.168.168v1.134A.168.168,0,0,0,321.4,415.638Zm.168-1.134h.707v.8h-.707Z" transform="translate(-314.016 -404.864)" fill="#c2c2c2"/>
      <path id="Path_2327" data-name="Path 2327" d="M433.413,159.773a.168.168,0,0,0-.168-.168h-.726a.168.168,0,0,0-.168.168v1.407a.168.168,0,0,0,.168.168h.726a.168.168,0,0,0,.168-.168Zm-.337,1.238h-.389v-1.07h.389Z" transform="translate(-422.639 -156.02)" fill="#c2c2c2"/>
      <path id="Path_2328" data-name="Path 2328" d="M433.413,254.729a.168.168,0,0,0-.168-.168h-.726a.168.168,0,0,0-.168.168v1.407a.168.168,0,0,0,.168.168h.726a.168.168,0,0,0,.168-.168Zm-.337,1.238h-.389V254.9h.389Z" transform="translate(-422.639 -248.843)" fill="#c2c2c2"/>
      <path id="Path_2329" data-name="Path 2329" d="M433.245,402.045h-.726a.168.168,0,0,0-.168.168v1.407a.168.168,0,0,0,.168.168h.726a.168.168,0,0,0,.168-.168v-1.407A.168.168,0,0,0,433.245,402.045Zm-.168,1.407h-.389v-1.07h.389Z" transform="translate(-422.639 -393.015)" fill="#c2c2c2"/>
    </g>
  </g>
</svg>
