<svg xmlns="http://www.w3.org/2000/svg" width="19.359" height="16.854" viewBox="0 0 19.359 16.854">
    <path data-name="Path 3909" d="M100.51 14.222a.449.449 0 0 0-.042.055.563.563 0 0 1-.857.241c-.617-.378-1.234-.756-1.843-1.147a1.746 1.746 0 0 0-1-.285c-.825.011-1.651 0-2.476 0h-.231c.04-.337.071-.66.118-.98a2.582 2.582 0 0 0-2.087-2.968 6.121 6.121 0 0 0-.846-.05h-.258c.083-.4.179-.781.236-1.166a3.36 3.36 0 0 0-.056-1.645 2.4 2.4 0 0 0-1.983-1.7 1.644 1.644 0 0 0-1.726.8c-.622.955-1.233 1.916-1.85 2.874-.037.058-.076.115-.134.2-.008-.074-.017-.118-.017-.162V.64a.57.57 0 0 1 .618-.629c3.389 0 6.779-.016 10.167 0a4.274 4.274 0 0 1 4.231 3.774 1.453 1.453 0 0 0 .035.144zM92.941 3.414h4.5c.075 0 .151 0 .226-.006a.562.562 0 0 0 .1-1.1.981.981 0 0 0-.261-.031H88.38a.981.981 0 0 0-.242.027.555.555 0 0 0-.41.487.537.537 0 0 0 .328.563.993.993 0 0 0 .35.054q2.268.008 4.535.006zm2.309 2.268h2.325a.557.557 0 0 0 .594-.552.566.566 0 0 0-.589-.579q-2.334-.007-4.668 0a.57.57 0 0 0-.561.372.562.562 0 0 0 .555.76c.782.003 1.563-.001 2.344-.001zm0 2.269h2.305a.563.563 0 0 0 .573-.35.569.569 0 0 0-.581-.784h-4.595a.583.583 0 0 0-.584.337.558.558 0 0 0 .536.8c.781.007 1.562 0 2.343 0z" transform="translate(-81.152 -.005)" style="fill:#c5c5c5"/>
    <path data-name="Path 3910" d="M0 183.585a.72.72 0 0 1 .753-.4c.768.016 1.536 0 2.3.005.454 0 .658.206.658.655v6.27c0 .446-.211.651-.662.655-.768.008-1.536.007-2.3.032a.707.707 0 0 1-.749-.411z" transform="translate(0 -173.946)" style="fill:#c5c5c5"/>
    <path data-name="Path 3911" d="M96.053 119.8v-3.025a.5.5 0 0 1 .09-.252c.368-.572.745-1.137 1.115-1.708.394-.607.782-1.218 1.174-1.827a.654.654 0 0 1 .876-.292 1.378 1.378 0 0 1 .895 1.243 5.271 5.271 0 0 1-.449 2.2c-.027.064-.057.127-.084.19a.562.562 0 0 0 .547.838c.472.005.945 0 1.418 0a1.413 1.413 0 0 1 1.452 1.155 3.233 3.233 0 0 1-.023.9c-.116 1.039-.247 2.076-.374 3.113a1.307 1.307 0 0 1-1.372 1.21c-1.115 0-2.23-.013-3.345.006a3.292 3.292 0 0 1-1.63-.388.466.466 0 0 1-.3-.5c.017-.958.007-1.916.007-2.874z" transform="translate(-91.205 -106.957)" style="fill:#c5c5c5"/>
</svg>
