<svg xmlns="http://www.w3.org/2000/svg" width="29.985" height="30" viewBox="0 0 29.985 30"><defs><style>.a{fill:#9b9b9b;}</style></defs><g transform="translate(-2.043 -2.045)"><path class="a" d="M51.592,54.91a.429.429,0,0,1-.306-.129,3.9,3.9,0,0,0-.634-.522.429.429,0,0,1,.472-.715,4.788,4.788,0,0,1,.772.636.429.429,0,0,1-.306.729Z" transform="translate(-27.662 -29.379)"/><path class="a" d="M33.671,60.463H17.409a.429.429,0,0,1-.429-.429V56.5a4.7,4.7,0,0,1,4.7-4.7h7.711a.429.429,0,1,1,0,.858H21.676A3.843,3.843,0,0,0,17.838,56.5v3.109h15.4V56.5a3.774,3.774,0,0,0-.1-.889.429.429,0,1,1,.833-.2,4.643,4.643,0,0,1,.129,1.092v3.54A.429.429,0,0,1,33.671,60.463Z" transform="translate(-8.531 -28.417)"/><path class="a" d="M30.952,36.023a4.494,4.494,0,1,1,4.494-4.494,4.494,4.494,0,0,1-4.494,4.494Zm0-8.131a3.637,3.637,0,1,0,3.637,3.637A3.637,3.637,0,0,0,30.952,27.892Z" transform="translate(-13.945 -14.272)"/><path class="a" d="M34.983,67.6H26.629a.429.429,0,0,1-.429-.429V64.721a.429.429,0,0,1,.858,0V66.74h7.5V64.721a.429.429,0,0,1,.858,0v2.448A.429.429,0,0,1,34.983,67.6Z" transform="translate(-13.797 -35.552)"/><path class="a" d="M58.489,19.081a.429.429,0,0,1-.2-.049l-2.216-1.165-2.215,1.165a.429.429,0,0,1-.623-.452l.423-2.467-1.792-1.749a.429.429,0,0,1,.237-.732l2.477-.36,1.108-2.245a.446.446,0,0,1,.769,0l1.108,2.245,2.477.36a.429.429,0,0,1,.238.732l-1.793,1.747.423,2.467a.429.429,0,0,1-.423.5Zm-2.415-2.128a.425.425,0,0,1,.2.049l1.646.865L57.6,16.036a.429.429,0,0,1,.124-.38l1.332-1.3-1.841-.267a.429.429,0,0,1-.323-.235l-.823-1.668-.823,1.666a.429.429,0,0,1-.323.235l-1.841.267,1.332,1.3a.429.429,0,0,1,.124.38l-.315,1.833L55.874,17a.425.425,0,0,1,.2-.049Z" transform="translate(-28.382 -5.004)"/><path class="a" d="M33.639,10.317a.432.432,0,0,1-.2-.049L31.224,9.1l-2.216,1.165a.429.429,0,0,1-.622-.452l.423-2.468L27.016,5.6a.429.429,0,0,1,.238-.732l2.477-.36,1.106-2.244a.446.446,0,0,1,.769,0L32.716,4.51l2.477.36a.429.429,0,0,1,.238.732L33.639,7.348l.423,2.468a.429.429,0,0,1-.423.5ZM31.224,8.19a.429.429,0,0,1,.2.049l1.645.865-.315-1.833a.429.429,0,0,1,.124-.38l1.332-1.3L32.37,5.328a.429.429,0,0,1-.323-.235l-.823-1.669L30.4,5.091a.429.429,0,0,1-.323.235l-1.841.267,1.332,1.3a.429.429,0,0,1,.124.38L29.38,9.1l1.646-.865A.429.429,0,0,1,31.224,8.19Z" transform="translate(-14.189)"/><path class="a" d="M8.793,19.084a.429.429,0,0,1-.2-.049L6.378,17.87,4.162,19.034a.429.429,0,0,1-.622-.452l.423-2.467L2.17,14.367a.429.429,0,0,1,.238-.729l2.477-.36,1.108-2.245a.446.446,0,0,1,.769,0L7.87,13.278l2.477.36a.429.429,0,0,1,.237.732L8.793,16.117l.423,2.467a.429.429,0,0,1-.423.5ZM6.378,16.957a.425.425,0,0,1,.2.049l1.646.865L7.909,16.04a.429.429,0,0,1,.124-.38l1.332-1.3-1.841-.267A.429.429,0,0,1,7.2,13.86l-.823-1.668L5.555,13.86a.429.429,0,0,1-.323.235l-1.841.267,1.329,1.3a.429.429,0,0,1,.126.38l-.315,1.831,1.646-.865a.425.425,0,0,1,.2-.049Z" transform="translate(0 -5.008)"/></g></svg>