<svg xmlns="http://www.w3.org/2000/svg" width="18" height="18" viewBox="0 0 18 18"><defs><style>.a{fill:#c5c5c5;}</style></defs><g transform="translate(-6.306 -6.306)"><path class="a" d="M-4964.714-4730.694v-4.315h-2.941a2.042,2.042,0,0,1-2.039-2.041v-9.6a2.041,2.041,0,0,1,2.039-2.039h13.92a2.042,2.042,0,0,1,2.041,2.039v9.6a2.043,2.043,0,0,1-2.041,2.041h-7.571l-3.407,4.313Zm1.845-7.491a.985.985,0,0,0,.918.635h3.941a.987.987,0,0,0,.959-.776l.759-3.537a.974.974,0,0,0-.2-.823.977.977,0,0,0-.762-.364h-2.842v-3.076a.652.652,0,0,0-.652-.651.655.655,0,0,0-.558.314l-1.424,2.982a2.133,2.133,0,0,0-.206.909v.155h-2.187v4.232Z" transform="translate(4976 4755)"/></g></svg>