<svg xmlns="http://www.w3.org/2000/svg" width="25.447" height="21.245" viewBox="0 0 25.447 21.245">
    <path d="M24.7 0H.746A.745.745 0 0 0 0 .746V20.5a.745.745 0 0 0 .746.746H24.7a.745.745 0 0 0 .746-.746V.746A.745.745 0 0 0 24.7 0zM9.57 13.125V8.12a.957.957 0 0 1 .533-.852 1.057 1.057 0 0 1 1.049.055l4.266 2.49a.748.748 0 0 1 .063.041.942.942 0 0 1 0 1.536.748.748 0 0 1-.063.041l-4.266 2.49a1.057 1.057 0 0 1-1.049.055.956.956 0 0 1-.533-.852zm7.937-10.336v-1.3h2.5v1.3zm-1.491 0h-2.5v-1.3h2.5zm-3.993 0h-2.5v-1.3h2.5zm-3.993 0h-2.5v-1.3h2.5zm0 15.667v1.3h-2.5v-1.3zm1.491 0h2.5v1.3h-2.5zm3.993 0h2.5v1.3h-2.5zm3.993 0h2.5v1.3h-2.5zm6.45-15.667H21.5v-1.3h2.457zM4.037 1.491v1.3H1.491v-1.3zM1.491 18.456h2.546v1.3H1.491zm20.008 1.3v-1.3h2.457v1.3zm0 0" style="fill:#c5c5c5"/>
</svg>
