<svg xmlns="http://www.w3.org/2000/svg" width="22" height="20.156" viewBox="0 0 22 20.156">
  <g id="Filter_Icon" data-name="Filter Icon" transform="translate(-1061.585 -169)">
    <path id="Path_1951" data-name="Path 1951" d="M85.406,82.181H72.3a2.7,2.7,0,0,0-5.126,0H65.128a.862.862,0,0,0,0,1.724h2.046a2.7,2.7,0,0,0,5.126,0H85.406a.862.862,0,0,0,0-1.724Zm-15.67,1.847a.985.985,0,1,1,.983-.985A.985.985,0,0,1,69.736,84.028Z" transform="translate(997.318 88.666)" fill="#9eaeb8"/>
    <path id="Path_1952" data-name="Path 1952" d="M85.406,210.714H83.36a2.7,2.7,0,0,0-5.126,0H65.128a.862.862,0,0,0,0,1.724H78.235a2.7,2.7,0,0,0,5.126,0h2.046a.862.862,0,0,0,0-1.724ZM80.8,212.561a.985.985,0,1,1,.983-.985A.985.985,0,0,1,80.8,212.561Z" transform="translate(997.318 -32.498)" fill="#9eaeb8"/>
    <path id="Path_1953" data-name="Path 1953" d="M85.406,339.247h-9.42a2.7,2.7,0,0,0-5.126,0H65.128a.862.862,0,0,0,0,1.724h5.733a2.7,2.7,0,0,0,5.126,0h9.42a.862.862,0,0,0,0-1.724Zm-11.983,1.847a.985.985,0,1,1,.983-.985A.985.985,0,0,1,73.423,341.094Z" transform="translate(997.318 -153.662)" fill="#9eaeb8"/>
  </g>
</svg>
