<svg xmlns="http://www.w3.org/2000/svg" width="20.443" height="18.73" viewBox="0 0 20.443 18.73">
  <g id="Group_4957" data-name="Group 4957" transform="translate(-1061.585 -169)">
    <path id="Path_1951" data-name="Path 1951" d="M83.91,82.05H71.731a2.511,2.511,0,0,0-4.763,0h-1.9a.8.8,0,0,0,0,1.6h1.9a2.511,2.511,0,0,0,4.763,0h12.18a.8.8,0,0,0,0-1.6ZM69.349,83.766a.915.915,0,1,1,.913-.915A.915.915,0,0,1,69.349,83.766Z" transform="translate(997.318 88.666)" fill="#fff"/>
    <path id="Path_1952" data-name="Path 1952" d="M83.911,210.583h-1.9a2.51,2.51,0,0,0-4.763,0H65.067a.8.8,0,0,0,0,1.6h12.18a2.511,2.511,0,0,0,4.763,0h1.9a.8.8,0,0,0,0-1.6ZM79.628,212.3a.915.915,0,1,1,.913-.915A.915.915,0,0,1,79.628,212.3Z" transform="translate(997.318 -33.019)" fill="#fff"/>
    <path id="Path_1953" data-name="Path 1953" d="M83.91,339.116H75.157a2.511,2.511,0,0,0-4.763,0H65.067a.8.8,0,0,0,0,1.6h5.327a2.511,2.511,0,0,0,4.763,0h8.753a.8.8,0,0,0,0-1.6Zm-11.135,1.716a.915.915,0,1,1,.913-.915A.915.915,0,0,1,72.776,340.832Z" transform="translate(997.318 -154.704)" fill="#fff"/>
  </g>
</svg>
