<svg xmlns="http://www.w3.org/2000/svg" width="14.803" height="11" viewBox="0 0 14.803 11">
  <g id="food" transform="translate(0 -65.762)">
    <path id="Path_2330" data-name="Path 2330" d="M258.341,248.244l.444.169a.217.217,0,1,0,.155-.405l-.444-.169a.217.217,0,0,0-.155.405Z" transform="translate(-250.736 -176.798)" fill="#c2c2c2"/>
    <path id="Path_2331" data-name="Path 2331" d="M14.012,72.212h-.118a1.449,1.449,0,0,0,.5-.5,1,1,0,0,0-.337-1.294A2.116,2.116,0,0,0,10.59,68.14l-1-1.436a.217.217,0,0,0-.319-.04,2.707,2.707,0,0,0-.652.838,1.418,1.418,0,0,0-.6.221,3.686,3.686,0,0,0-.335-1.25.217.217,0,1,0-.385.2,3.876,3.876,0,0,1,.314,1.471.217.217,0,0,0,.371.152,1.651,1.651,0,0,1,.443-.3,2.7,2.7,0,0,0,.141,1.842l-1.946.871c-.442-.766-.9-1.127-1.365-1.075a.947.947,0,0,0-.322.09c-.349-.557-.486-.991-.365-1.173.045-.068.183-.276.6-.183a1.658,1.658,0,0,1,.458.188.217.217,0,0,0,.328-.229,4.262,4.262,0,0,1-.08-.63c0-.006,0-.012,0-.019A2.057,2.057,0,0,1,6.1,66.463.618.618,0,0,1,6.56,66.2a.737.737,0,0,1,.174,0,.217.217,0,0,0,.055-.43,1.169,1.169,0,0,0-.277,0,1.043,1.043,0,0,0-.764.439,1.947,1.947,0,0,0-.308,1.034,2.116,2.116,0,0,0-2.92,2.931,1.4,1.4,0,0,0,0,.352,2.418,2.418,0,0,0-1.573-.02.942.942,0,0,0-.512.609,1,1,0,0,0,.373,1.1H.791A.792.792,0,0,0,0,73v.047a.792.792,0,0,0,.791.791h.717l1.739,1.695a.738.738,0,0,0-.2.509v.006a.719.719,0,0,0,.741.712h7.234a.719.719,0,0,0,.741-.712v-.006a.738.738,0,0,0-.2-.509l1.739-1.695h.717a.792.792,0,0,0,.791-.791V73a.792.792,0,0,0-.791-.791Zm0-.71a1.914,1.914,0,0,1-1.136.686.216.216,0,0,0-.054.024H8.789A2.7,2.7,0,0,0,9.175,70.1a.571.571,0,0,1,.422-.181c.213.024.257.108.272.136.092.173-.034.524-.109.667a.217.217,0,0,0,.361.237A4.7,4.7,0,0,1,11.4,69.8a.216.216,0,0,0,.047-.021.361.361,0,0,1,.271-.03c.107.046.248.145.235.463a1.43,1.43,0,0,1-.09.417.217.217,0,0,0,.283.283,2.509,2.509,0,0,1,1.613-.163.56.56,0,0,1,.246.752Zm-6.642.554-.194-.433a.217.217,0,0,0-.4.177l.184.412H6.279L6.358,72a.217.217,0,0,0-.405-.155l-.139.363H4.806s-.089-.109-.126-.159l4.079-1.826a2.3,2.3,0,0,1-.477,1.94.217.217,0,0,0-.028.044H7.376a.216.216,0,0,0-.008-.155Zm3.974-2.838A.853.853,0,1,1,12.621,70.3a.218.218,0,0,0-.022.021c-.079.018-.153.038-.221.057a.9.9,0,0,0-.484-1.027.7.7,0,0,0-.472-.018Zm.743-1.264a1.684,1.684,0,0,1,1.683,1.683,1.664,1.664,0,0,1-.121.625,1.928,1.928,0,0,0-.422-.028,1.287,1.287,0,0,0-2.149-1.4l-.234-.335A1.679,1.679,0,0,1,12.085,67.954ZM9.377,67.16l1.645,2.358a3.671,3.671,0,0,0-.523.406c-.059.054-.117.109-.172.163a.709.709,0,0,0-.074-.237.725.725,0,0,0-.607-.365.922.922,0,0,0-.665.212,2.284,2.284,0,0,1,.4-2.537Zm-4.75,2.886a.73.73,0,0,0-.051.189c-.055-.054-.112-.109-.172-.163a2.8,2.8,0,0,0-.8-.549L3.6,69.513a.853.853,0,0,1,.7-1.341H4.32a.968.968,0,0,0-.111.139c-.241.365-.1.933.419,1.734ZM2.615,69.025A1.682,1.682,0,0,1,5.447,67.8c.005.073.012.142.019.206a1.519,1.519,0,0,0-.522-.09,1.287,1.287,0,0,0-1.853,1.559.608.608,0,0,0-.082.028.816.816,0,0,0-.263.177A1.679,1.679,0,0,1,2.615,69.025ZM1.632,72.2c-.625-.261-.886-.584-.776-.958a.517.517,0,0,1,.283-.34,2.516,2.516,0,0,1,1.613.163.217.217,0,0,0,.283-.283,1.429,1.429,0,0,1-.09-.417c-.014-.318.127-.417.235-.463.309-.133,1.128.614,1.6,1.205a.217.217,0,0,0,.361-.237c-.075-.143-.2-.494-.109-.667.015-.028.059-.112.272-.136.261-.03.591.268.918.823l-1.952.873a.217.217,0,0,0-.1.306c.028.049.059.1.091.145h-2.6a.212.212,0,0,0-.031-.016Zm9.693,3.855a.286.286,0,0,1-.307.279H3.784a.286.286,0,0,1-.307-.279v-.006a.308.308,0,0,1,.307-.307h7.234a.308.308,0,0,1,.307.307Zm3.043-3a.358.358,0,0,1-.357.357H4.148a.217.217,0,1,0,0,.434h8.525l-1.5,1.463H3.63l-1.5-1.463H3.281a.217.217,0,1,0,0-.434H.791a.358.358,0,0,1-.357-.357V73a.358.358,0,0,1,.357-.357H14.012a.358.358,0,0,1,.357.357Z" transform="translate(0 0)" fill="#c2c2c2"/>
    <path id="Path_2332" data-name="Path 2332" d="M320.888,166.124h.009l.408-.016a.217.217,0,0,0-.017-.433l-.408.016a.217.217,0,0,0,.008.434Z" transform="translate(-311.4 -97.023)" fill="#c2c2c2"/>
  </g>
</svg>
