<svg width="448" height="448" viewBox="0 0 448 448" fill="none" xmlns="http://www.w3.org/2000/svg">
<g clip-path="url(#clip0_3217_204)">
<path d="M433.936 190.044L305.936 62.044C287.184 43.292 256.816 43.292 238.064 62.044C219.312 80.764 219.312 111.196 238.064 129.916L332.112 223.996L238.064 318.044C219.312 336.796 219.312 367.164 238.064 385.916C247.408 395.324 259.696 399.996 271.984 399.996C284.272 399.996 296.56 395.324 305.936 385.948L433.936 257.948C452.656 239.196 452.656 208.796 433.936 190.044Z" fill="white"/>
<path d="M209.936 190.044L81.936 62.044C63.184 43.292 32.816 43.292 14.064 62.044C-4.688 80.764 -4.688 111.196 14.064 129.916L108.112 223.996L14.064 318.044C-4.688 336.796 -4.688 367.164 14.064 385.916C23.408 395.324 35.696 399.996 47.984 399.996C60.272 399.996 72.56 395.324 81.936 385.948L209.936 257.948C228.656 239.196 228.656 208.796 209.936 190.044Z" fill="white"/>
</g>
<defs>
<clipPath id="clip0_3217_204">
<rect width="447.976" height="447.976" fill="white"/>
</clipPath>
</defs>
</svg>
