<svg xmlns="http://www.w3.org/2000/svg" width="38.956" height="32.057" viewBox="0 0 38.956 32.057">
    <defs>
        <clipPath id="y7v77bml8a">
            <path data-name="Rectangle 5882" style="stroke:#707070;stroke-width:.3px;fill:#fff" d="M0 0h38.956v32.057H0z"/>
        </clipPath>
    </defs>
    <g data-name="Group 7099-1" style="clip-path:url(#y7v77bml8a)">
        <path data-name="Path 5474" d="M19.966 142.309a.784.784 0 0 1-.355.663c-1.159.746-4.9 3.057-7.407 3.5a12.032 12.032 0 0 1-4.841-.22.787.787 0 0 1-.475-1.157c.974-1.684 3.825-5.307 10.878-6.917l1.258-.334a.759.759 0 0 1 .94.756v3.7z" transform="translate(-5.338 -106.42)" style="stroke-width:2px;stroke:#c5c5c5;stroke-miterlimit:10;fill:#e5e5e5"/>
        <path data-name="Path 5475" d="M104.3 144.968a5.689 5.689 0 0 0 .495.353 35.73 35.73 0 0 0 4.867 1.581 10.459 10.459 0 0 0-6.532-9.545c-.634-.282-2.095-1-2.651-.2-.45.647.166 1.884.428 2.48.827 1.879 1.745 4.023 3.393 5.335z" transform="translate(-77.526 -105.621)" style="stroke-width:2px;stroke:#c5c5c5;stroke-miterlimit:10;fill:#e5e5e5"/>
        <path data-name="Path 5476" d="m47.474 171.3-8.276-.184a1.661 1.661 0 0 1-2.19-1.557 30.858 30.858 0 0 0-1.018-9.566 11.186 11.186 0 0 0-1.207-2.9h-1.038s-.785 1.412-1.72 3.3c-1.23 2.487-2.719 5.793-2.993 7.751-.483 3.437-3.118 3.529-3.118 3.529h-7.128l2.009-5.653.623-1.753.116-.329a.655.655 0 0 0 .085-.072c1.2-1.2 6-13.094 6-13.094a21.773 21.773 0 0 0 .739-5.481 71.333 71.333 0 0 0-.219-7.716l-.7-2.934h10.424a23.45 23.45 0 0 1 1.818 4.72c.819 2.935 1.263 11.734 1.263 11.734l6.531 20.205z" transform="translate(-14.603 -103.958)" style="stroke-width:2px;stroke:#c5c5c5;stroke-miterlimit:10;fill:#e5e5e5"/>
        <path data-name="Path 5477" d="m57.761 124.148 1.155 5.332s8.2.062 8.345-2.208-9.5-3.124-9.5-3.124z" transform="translate(-44.683 -95.867)" style="fill:#c5c5c5"/>
        <path data-name="Path 5478" d="m56.067 121.066-2.99 1s-1.531.3 1.992 3.344 1-4.343 1-4.343z" transform="translate(-40.812 -93.489)" style="fill:#c4143e"/>
        <path data-name="Path 5479" d="M52 132.053a4.475 4.475 0 0 1 .945.124 5.191 5.191 0 0 1 .913.3 4.047 4.047 0 0 1 .843.511c.065.053.133.1.193.162l.183.178c.017.015.027.027.038.038l.035.034a.77.77 0 0 0 .071.062 1.066 1.066 0 0 0 .153.1.768.768 0 0 0 .327.088.434.434 0 0 0 .138-.021.38.38 0 0 0 .061-.028l.028-.017a.191.191 0 0 0 .018-.016.563.563 0 0 0 .141-.267 1.068 1.068 0 0 0 .033-.374 1.319 1.319 0 0 0-.279-.716 1.826 1.826 0 0 0-.634-.5.263.263 0 0 1-.115-.344.245.245 0 0 1 .312-.127 2.149 2.149 0 0 1 .855.611 1.814 1.814 0 0 1 .287.479 1.742 1.742 0 0 1 .131.553 1.848 1.848 0 0 1 0 .288 1.474 1.474 0 0 1-.051.289 1.1 1.1 0 0 1-.324.547c-.023.019-.05.038-.075.057s-.046.029-.071.043a.849.849 0 0 1-.153.064.886.886 0 0 1-.319.041 1.15 1.15 0 0 1-.294-.053 1.388 1.388 0 0 1-.264-.112 1.44 1.44 0 0 1-.234-.162 1.012 1.012 0 0 1-.1-.095l-.048-.05-.043-.046-.148-.158c-.048-.053-.106-.1-.159-.148a4.015 4.015 0 0 0-.722-.506 5.9 5.9 0 0 0-.817-.372 6.5 6.5 0 0 0-.868-.253.105.105 0 0 1-.078-.124.1.1 0 0 1 .1-.083z" transform="translate(-40.154 -101.332)" style="fill:#c5c5c5"/>
        <path data-name="Path 5480" d="m90.122 125.271-1.545 2.838s-.591 1.495-2.756-2.7 4.301-.138 4.301-.138z" transform="translate(-65.997 -95.375)" style="fill:#c4143e"/>
        <path data-name="Path 5481" d="M88.391 134.852h-.058c-.488-.033-.9-.484-1.044-1.15a2.392 2.392 0 0 0-1.3-1.46.26.26 0 0 1-.136-.334.245.245 0 0 1 .322-.141 2.853 2.853 0 0 1 1.6 1.822c.1.439.33.734.594.751.236.017.455-.2.589-.58.548-1.543 1.486-1.626 1.526-1.627a.256.256 0 0 1 .033.511c-.023 0-.667.086-1.1 1.293-.206.579-.586.918-1.028.918z" transform="translate(-66.347 -101.73)" style="fill:#c5c5c5"/>
        <path data-name="Path 5482" d="M95.827 137.272c.137-.023.221-.213.188-.426s-.17-.366-.307-.343-.221.213-.188.425.171.367.307.344z" transform="translate(-73.819 -105.401)" style="fill:#c5c5c5"/>
        <path data-name="Path 5483" d="M66.938 138.366a.318.318 0 0 0 .056-.426.3.3 0 0 0-.381-.171.318.318 0 0 0-.056.426.3.3 0 0 0 .381.171z" transform="translate(-51.43 -106.359)" style="fill:#c5c5c5"/>
        <path data-name="Path 5484" d="M136.928 62.163a12.461 12.461 0 0 1 .577 4.451 11.621 11.621 0 0 1-3.027 7.458 5.133 5.133 0 0 0 .67 0c3.089-.229 5.359-3.215 5.072-6.671a6.5 6.5 0 0 0-3.294-5.237z" transform="translate(-104.415 -48.027)" style="fill:#c5c5c5;stroke-width:2px;stroke:#c5c5c5;stroke-miterlimit:10"/>
        <path data-name="Path 5485" d="M43.571 13.449a1.428 1.428 0 0 0 .644-.87 1.987 1.987 0 0 0-1.192-2.406c1.127-.015 1.844-.417 1.132-1.7-1.8-3.262-9.419-1.707-9.419-1.707C24.2 9.328 21.467 15.72 21.467 15.72a1.976 1.976 0 0 1 .178-.176 12.551 12.551 0 0 0-2.7 7.737c0 7.394 6.567 13.387 14.668 13.387s14.668-5.994 14.668-13.387a12.848 12.848 0 0 0-4.713-9.831z" transform="translate(-14.727 -4.986)" style="stroke-width:.5px;stroke:#c5c5c5;stroke-miterlimit:10;fill:#e5e5e5"/>
        <path data-name="Path 5486" d="M71.9 101.561a3.528 3.528 0 0 0 5.405-.548" transform="translate(-55.594 -78.012)" style="stroke-linecap:round;fill:none;stroke:#c5c5c5;stroke-miterlimit:10"/>
        <path data-name="Path 5487" d="M73.326 79.666a4.226 4.226 0 0 1 4.789.32" transform="translate(-56.695 -61.068)" style="stroke-width:.4px;stroke-linecap:round;fill:none;stroke:#c5c5c5;stroke-miterlimit:10"/>
        <path data-name="Path 5488" d="M110.884 31.891a9.12 9.12 0 0 0-4.718-1.6z" transform="translate(-82.041 -23.427)" style="fill:#e5e5e5"/>
        <path data-name="Path 5489" d="M110.884 31.891a9.12 9.12 0 0 0-4.718-1.6" transform="translate(-82.041 -23.427)" style="stroke-linecap:round;fill:none;stroke-width:2px;stroke:#c5c5c5;stroke-miterlimit:10"/>
        <path data-name="Path 5490" d="M10.582 62.165a16.936 16.936 0 0 0-.425 4.45 14.26 14.26 0 0 0 2.176 7.465 2.672 2.672 0 0 1-.485-.005c-2.234-.236-3.872-3.227-3.658-6.681a7.032 7.032 0 0 1 2.392-5.229z" transform="translate(-6.41 -48.03)" style="fill:#c5c5c5;stroke-width:2px;stroke:#c5c5c5;stroke-miterlimit:10"/>
        <path data-name="Path 5491" d="M33.6 57.089a6.83 6.83 0 0 1-1.431 2.711c-.787.98-1.71 1.966-2.938 1.73-1.616-.311-2.822-2.542-2.822-4.386 0-2.5 1.644-4.522 3.672-4.522a3.9 3.9 0 0 1 2.866 1.609 3.278 3.278 0 0 1 .65 2.86z" transform="translate(-18.814 -39.21)" style="opacity:.54;fill:#c5c5c5;stroke-width:2px;stroke:#c5c5c5;stroke-miterlimit:10"/>
        <path data-name="Path 5492" d="M37.308 58.535a8.729 8.729 0 0 1-2.166 3.585c-1.194 1.3-2.593 2.6-4.454 2.29-2.45-.412-4.278-3.365-4.278-5.805a5.787 5.787 0 0 1 5.566-5.986 6.166 6.166 0 0 1 4.344 2.13 3.927 3.927 0 0 1 .986 3.785z" transform="translate(-20.486 -40.664)" style="stroke-width:.4px;fill:none;stroke:#c5c5c5;stroke-miterlimit:10"/>
        <path data-name="Path 5493" d="M92.586 56.99a6.582 6.582 0 0 0 1.466 2.649c.808.958 1.754 1.922 3.013 1.692l.155-.034c1.505-.274 2.739-2.453 2.739-4.254 0-2.442-1.686-4.422-3.766-4.422a4.051 4.051 0 0 0-2.939 1.574 3.092 3.092 0 0 0-.667 2.8z" transform="translate(-69.703 -39.21)" style="opacity:.54;fill:#c5c5c5;stroke-width:2px;stroke:#c5c5c5;stroke-miterlimit:10"/>
        <path data-name="Path 5494" d="M92.631 58.535a8.729 8.729 0 0 0 2.169 3.586c1.194 1.3 2.593 2.6 4.454 2.29 2.45-.412 4.278-3.365 4.278-5.805a5.787 5.787 0 0 0-5.566-5.986 6.166 6.166 0 0 0-4.344 2.13 3.927 3.927 0 0 0-.986 3.785z" transform="translate(-71.488 -40.664)" style="stroke-width:.4px;fill:none;stroke:#c5c5c5;stroke-miterlimit:10"/>
        <path data-name="Path 5495" d="M40.812 74.758a2.071 2.071 0 1 0-2-2.07 2.034 2.034 0 0 0 2 2.07z" transform="translate(-30.062 -54.554)" style="fill:#000c22"/>
        <path data-name="Path 5496" d="M40.68 73.466a.92.92 0 1 0-.886-.92.9.9 0 0 0 .886.92z" transform="translate(-30.816 -55.333)" style="fill:#fff"/>
        <path data-name="Path 5497" d="M111.3 74.758a2.071 2.071 0 1 0-2-2.07 2.034 2.034 0 0 0 2 2.07z" transform="translate(-84.466 -54.554)" style="fill:#000c22"/>
        <path data-name="Path 5498" d="M111.171 73.466a.92.92 0 1 0-.886-.92.9.9 0 0 0 .886.92z" transform="translate(-85.22 -55.333)" style="fill:#fff"/>
        <path data-name="Path 5499" d="M37.381 59.895c.015-.546 1.692-1.1 1.853-.833.149.248-.82 1.484-1.484 1.261-.171-.059-.375-.232-.37-.427z" transform="translate(-28.952 -45.582)" style="fill:#fff"/>
        <path data-name="Path 5500" d="M102.067 59.895c.015-.546 1.692-1.1 1.853-.833.149.248-.82 1.484-1.484 1.261-.171-.059-.375-.232-.37-.427z" transform="translate(-78.876 -45.582)" style="fill:#fff"/>
    </g>
</svg>
