<svg xmlns="http://www.w3.org/2000/svg" width="38.956" height="32.057" viewBox="0 0 38.956 32.057">
    <defs>
        <clipPath id="2ol0l5k8fa">
            <path data-name="Rectangle 5829" transform="translate(.456 .232)" style="stroke-width:.3px;stroke:#4b56c0;fill:#fff" d="M0 0h38.956v32.057H0z"/>
        </clipPath>
    </defs>
    <g data-name="Group 7099-1" transform="translate(-.456 -.232)" style="clip-path:url(#2ol0l5k8fa)">
        <path data-name="Path 5246" d="M19.966 142.309a.784.784 0 0 1-.355.663c-1.159.746-4.9 3.057-7.407 3.5a12.032 12.032 0 0 1-4.841-.22.787.787 0 0 1-.475-1.157c.974-1.684 3.825-5.307 10.878-6.917l1.258-.334a.759.759 0 0 1 .94.756v3.7z" transform="translate(-4.881 -106.188)" style="stroke-width:2px;stroke-miterlimit:10;fill:#e5e5e5;stroke:#4b56c0"/>
        <path data-name="Path 5247" d="M104.3 144.968a5.676 5.676 0 0 0 .495.353 35.733 35.733 0 0 0 4.867 1.581 10.459 10.459 0 0 0-6.532-9.545c-.634-.282-2.095-1-2.651-.2-.45.647.166 1.884.428 2.48.827 1.878 1.745 4.022 3.393 5.335z" transform="translate(-77.07 -105.39)" style="stroke-width:2px;stroke-miterlimit:10;fill:#e5e5e5;stroke:#4b56c0"/>
        <path data-name="Path 5248" d="m47.474 171.3-8.276-.184a1.661 1.661 0 0 1-2.19-1.557 30.856 30.856 0 0 0-1.018-9.566 11.186 11.186 0 0 0-1.207-2.9h-1.038s-.785 1.412-1.72 3.3c-1.23 2.486-2.719 5.793-2.993 7.751-.483 3.437-3.118 3.529-3.118 3.529h-7.128l2.009-5.653.623-1.753.116-.329a.659.659 0 0 0 .085-.072c1.2-1.2 6-13.094 6-13.094a21.772 21.772 0 0 0 .739-5.481 71.328 71.328 0 0 0-.219-7.716l-.7-2.934h10.424a23.449 23.449 0 0 1 1.818 4.72c.819 2.934 1.263 11.734 1.263 11.734l6.531 20.205z" transform="translate(-14.146 -103.727)" style="stroke-width:2px;stroke-miterlimit:10;fill:#e5e5e5;stroke:#4b56c0"/>
        <path data-name="Path 5249" d="m57.761 124.148 1.155 5.331s8.2.062 8.345-2.208-9.5-3.123-9.5-3.123z" transform="translate(-44.226 -95.635)" style="fill:#c5c5c5"/>
        <path data-name="Path 5250" d="m56.067 121.066-2.99 1s-1.531.3 1.992 3.344 1-4.343 1-4.343z" transform="translate(-40.356 -93.257)" style="fill:#c4143e"/>
        <path data-name="Path 5251" d="M52 132.053a4.474 4.474 0 0 1 .945.124 5.187 5.187 0 0 1 .913.3 4.046 4.046 0 0 1 .843.511c.065.053.133.1.193.162l.183.178c.017.015.027.027.038.038l.035.034a.768.768 0 0 0 .071.062 1.066 1.066 0 0 0 .153.1.768.768 0 0 0 .327.088.433.433 0 0 0 .138-.021.381.381 0 0 0 .061-.028l.028-.017a.194.194 0 0 0 .018-.016.563.563 0 0 0 .141-.267 1.068 1.068 0 0 0 .033-.374 1.319 1.319 0 0 0-.279-.716 1.826 1.826 0 0 0-.634-.5.263.263 0 0 1-.115-.344.245.245 0 0 1 .312-.127 2.15 2.15 0 0 1 .855.611 1.814 1.814 0 0 1 .287.479 1.742 1.742 0 0 1 .131.553 1.848 1.848 0 0 1 0 .288 1.474 1.474 0 0 1-.051.289 1.1 1.1 0 0 1-.324.547c-.023.019-.05.038-.075.057s-.046.029-.071.043a.851.851 0 0 1-.153.064.886.886 0 0 1-.319.041 1.15 1.15 0 0 1-.294-.053 1.387 1.387 0 0 1-.264-.112 1.441 1.441 0 0 1-.234-.162 1.012 1.012 0 0 1-.1-.095l-.048-.05-.043-.046-.148-.158c-.048-.053-.106-.1-.159-.148a4.015 4.015 0 0 0-.722-.506 5.906 5.906 0 0 0-.817-.372 6.509 6.509 0 0 0-.868-.253.1.1 0 0 1-.078-.124.1.1 0 0 1 .1-.083z" transform="translate(-39.698 -101.1)" style="fill:#c5c5c5"/>
        <path data-name="Path 5252" d="m90.122 125.271-1.545 2.838s-.591 1.495-2.756-2.7 4.301-.138 4.301-.138z" transform="translate(-65.541 -95.143)" style="fill:#c4143e"/>
        <path data-name="Path 5253" d="M88.391 134.852h-.058c-.488-.033-.9-.484-1.044-1.15a2.392 2.392 0 0 0-1.3-1.46.26.26 0 0 1-.136-.334.245.245 0 0 1 .322-.141 2.853 2.853 0 0 1 1.6 1.822c.1.439.33.733.594.751.236.017.455-.2.589-.58.548-1.543 1.486-1.626 1.526-1.627a.256.256 0 0 1 .033.511c-.023 0-.667.086-1.1 1.293-.206.579-.586.918-1.028.918z" transform="translate(-65.891 -101.499)" style="fill:#c5c5c5"/>
        <path data-name="Path 5254" d="M95.827 137.272c.137-.023.221-.213.188-.426s-.17-.366-.307-.343-.221.213-.188.425.171.367.307.344z" transform="translate(-73.363 -105.169)" style="fill:#c5c5c5"/>
        <path data-name="Path 5255" d="M66.938 138.366a.318.318 0 0 0 .056-.426.3.3 0 0 0-.381-.171.318.318 0 0 0-.056.426.3.3 0 0 0 .381.171z" transform="translate(-50.974 -106.128)" style="fill:#c5c5c5"/>
        <path data-name="Path 5256" d="M136.928 62.163a12.46 12.46 0 0 1 .577 4.451 11.621 11.621 0 0 1-3.027 7.458 5.133 5.133 0 0 0 .67 0c3.089-.229 5.359-3.215 5.072-6.671a6.5 6.5 0 0 0-3.294-5.237z" transform="translate(-103.959 -47.795)" style="fill:#4b56c0;stroke-width:2px;stroke-miterlimit:10;stroke:#4b56c0"/>
        <path data-name="Path 5257" d="M43.571 13.449a1.428 1.428 0 0 0 .644-.87 1.987 1.987 0 0 0-1.192-2.406c1.127-.015 1.844-.417 1.132-1.7-1.8-3.261-9.419-1.707-9.419-1.707C24.2 9.328 21.467 15.72 21.467 15.72a1.975 1.975 0 0 1 .178-.176 12.55 12.55 0 0 0-2.7 7.737c0 7.394 6.567 13.387 14.668 13.387s14.668-5.994 14.668-13.387a12.848 12.848 0 0 0-4.713-9.831z" transform="translate(-14.271 -4.754)" style="fill:#e9eaf8;stroke-width:.5px;stroke-miterlimit:10;stroke:#4b56c0"/>
        <path data-name="Path 5258" d="M71.9 101.561a3.528 3.528 0 0 0 5.405-.548" transform="translate(-55.138 -77.78)" style="stroke-linecap:round;fill:none;stroke-miterlimit:10;stroke:#4b56c0"/>
        <path data-name="Path 5259" d="M73.326 79.666a4.226 4.226 0 0 1 4.789.32" transform="translate(-56.239 -60.836)" style="stroke-width:.4px;stroke-linecap:round;fill:none;stroke-miterlimit:10;stroke:#4b56c0"/>
        <path data-name="Path 5260" d="M110.884 31.891a9.12 9.12 0 0 0-4.718-1.6z" transform="translate(-81.585 -23.195)" style="fill:#e5e5e5"/>
        <path data-name="Path 5261" d="M110.884 31.891a9.12 9.12 0 0 0-4.718-1.6" transform="translate(-81.585 -23.195)" style="stroke-linecap:round;fill:none;stroke-width:2px;stroke-miterlimit:10;stroke:#4b56c0"/>
        <path data-name="Path 5262" d="M10.347 62.165a18.707 18.707 0 0 0-.384 4.45 15.4 15.4 0 0 0 1.963 7.465 2.177 2.177 0 0 1-.437-.005c-2.016-.236-3.494-3.227-3.3-6.681a7.355 7.355 0 0 1 2.158-5.229z" transform="translate(-5.547 -47.798)" style="fill:#c5c5c5;stroke-width:2px;stroke-miterlimit:10;stroke:#4b56c0"/>
        <path data-name="Path 5263" d="M35.168 57.7a7.613 7.613 0 0 1-1.741 3.081c-.959 1.114-2.084 2.236-3.58 1.968-1.969-.354-3.438-2.892-3.438-4.989 0-2.841 2-5.144 4.474-5.144a4.844 4.844 0 0 1 3.492 1.831c.858 1.018 1.513 1.776 1.241 2.887z" transform="translate(-19.205 -39.56)" style="opacity:.54;fill:#4b56c0;stroke-width:2px;stroke-miterlimit:10;stroke:#4b56c0"/>
        <path data-name="Path 5264" d="M37.308 58.535a8.729 8.729 0 0 1-2.166 3.585c-1.194 1.3-2.593 2.6-4.454 2.29-2.45-.412-4.278-3.365-4.278-5.8a5.787 5.787 0 0 1 5.566-5.986 6.166 6.166 0 0 1 4.344 2.13 3.927 3.927 0 0 1 .986 3.785z" transform="translate(-20.03 -40.432)" style="stroke-width:.4px;fill:none;stroke-miterlimit:10;stroke:#4b56c0"/>
        <path data-name="Path 5265" d="M92.6 57.7a7.63 7.63 0 0 0 1.729 3.082c.952 1.115 2.069 2.236 3.554 1.969l.183-.04c1.775-.319 3.231-2.855 3.231-4.95 0-2.842-1.988-5.145-4.442-5.145a4.8 4.8 0 0 0-3.467 1.831A3.561 3.561 0 0 0 92.6 57.7z" transform="translate(-69.834 -39.562)" style="opacity:.54;fill:#4b56c0;stroke-width:2px;stroke-miterlimit:10;stroke:#4b56c0"/>
        <path data-name="Path 5266" d="M92.631 58.535A8.729 8.729 0 0 0 94.8 62.12c1.194 1.3 2.593 2.6 4.454 2.29 2.45-.412 4.278-3.365 4.278-5.8a5.787 5.787 0 0 0-5.566-5.986 6.166 6.166 0 0 0-4.344 2.13 3.927 3.927 0 0 0-.986 3.785z" transform="translate(-71.032 -40.432)" style="stroke-width:.4px;fill:none;stroke-miterlimit:10;stroke:#4b56c0"/>
        <path data-name="Path 5267" d="M40.812 74.758a2.071 2.071 0 1 0-2-2.07 2.034 2.034 0 0 0 2 2.07z" transform="translate(-29.606 -54.322)" style="fill:#000c22"/>
        <path data-name="Path 5268" d="M40.68 73.466a.92.92 0 1 0-.886-.92.9.9 0 0 0 .886.92z" transform="translate(-30.36 -55.101)" style="fill:#fff"/>
        <path data-name="Path 5269" d="M111.3 74.758a2.071 2.071 0 1 0-2-2.07 2.034 2.034 0 0 0 2 2.07z" transform="translate(-84.01 -54.322)" style="fill:#000c22"/>
        <path data-name="Path 5270" d="M111.171 73.466a.92.92 0 1 0-.886-.92.9.9 0 0 0 .886.92z" transform="translate(-84.764 -55.101)" style="fill:#fff"/>
        <path data-name="Path 5271" d="M37.381 59.895c.015-.546 1.692-1.1 1.853-.833.149.248-.82 1.484-1.484 1.261-.171-.059-.375-.232-.37-.427z" transform="translate(-28.496 -45.35)" style="fill:#fff"/>
        <path data-name="Path 5272" d="M102.067 59.895c.015-.546 1.692-1.1 1.853-.833.149.248-.82 1.484-1.484 1.261-.171-.059-.375-.232-.37-.427z" transform="translate(-78.42 -45.35)" style="fill:#fff"/>
    </g>
</svg>
