<svg xmlns="http://www.w3.org/2000/svg" xmlns:xlink="http://www.w3.org/1999/xlink" width="152.826" height="227.387" viewBox="0 0 152.826 227.387">
  <defs>
    <style>
      .cls-1, .cls-7, .cls-9 {
        fill: #fff;
      }

      .cls-2 {
        clip-path: url(#clip-path);
      }

      .cls-3 {
        fill: #00a4f2;
      }

      .cls-4, .cls-5 {
        opacity: 0.2;
      }

      .cls-11, .cls-13, .cls-5 {
        fill: #371a45;
      }

      .cls-6, .cls-7 {
        opacity: 0.6;
      }

      .cls-8 {
        fill: #272727;
      }

      .cls-9 {
        stroke: #343233;
      }

      .cls-15, .cls-22, .cls-9 {
        stroke-miterlimit: 10;
      }

      .cls-10, .cls-11 {
        opacity: 0.35;
      }

      .cls-12 {
        fill: #343233;
      }

      .cls-14 {
        fill: #c4143e;
      }

      .cls-15 {
        fill: #f5ae09;
        stroke: #333;
      }

      .cls-16, .cls-19 {
        fill: #01a4e9;
      }

      .cls-17 {
        fill: #e5e5e5;
      }

      .cls-18, .cls-19, .cls-20 {
        opacity: 0.54;
      }

      .cls-21 {
        fill: #000c22;
      }

      .cls-22 {
        fill: none;
        stroke: #272727;
        stroke-linecap: round;
      }
    </style>
    <clipPath id="clip-path">
      <rect id="Rectangle_5124" data-name="Rectangle 5124" class="cls-1" width="152.826" height="227.387"/>
    </clipPath>
  </defs>
  <g id="Asset_3_1" data-name="Asset 3 1" class="cls-2">
    <path id="Path_4619" data-name="Path 4619" class="cls-3" d="M201.994,412.937c-24.658-28.628-40.161,19.42-70.047,12.9,0,0,14.437-22.4-16.008-46.173-23.546-18.386-29.679-5.8-29.679-5.8-16.713-31.343,10.247-65.482,17.259-67.483s33.274,9.755,33.274,9.755,38.742,9.326,34.543,35.173c-.168,1.026-.342,2.059-.523,3.09,8.685-7.18,15.5-11.344,23.038-9.094,5.205,1.551,32.41,13.015,8.147,67.628Z" transform="translate(-60.246 -228.038)"/>
    <g id="Group_8599" data-name="Group 8599" class="cls-4" transform="translate(23.689 81.491)">
      <path id="Path_4620" data-name="Path 4620" class="cls-5" d="M214.947,383.121c-4.873-16.934-13.982-9.372-18.93-3.437-1.217,1.806-2.284,3.615-3.409,5.157-2.552,4.958-5.407,8.831-8.124,10.949,4.953-4.284,7.211-12.127,8.157-16.789a.626.626,0,0,0-1.148-.464c-1.827,2.794-5.029,6.147-9.39,4.82-2.944-.9-4-4.067-4.223-7.478,1.09-5.766,2.289-10.456,2.289-10.456.181-1.033.357-2.062.523-3.092,1.505-9.265-2.506-16.406-8.275-21.759-10.193-7.961-23.668-11.206-23.668-11.206s-26.26-11.752-33.275-9.752c-6.754,1.926-32.012,33.66-18.932,64,2.444-2.661,10.183-7.43,28.756,7.073q2.078,1.623,3.883,3.235a.163.163,0,0,0,.023.02,59.091,59.091,0,0,1,7.41,7.843,114.648,114.648,0,0,1,8.048-9.392s5.761,34.415,21.4,34.634a12.17,12.17,0,0,0,7.642-2.337c7.923-5.789,9.321-20.336,22.76-20.548a17.119,17.119,0,0,1,5.236.658c3.684-7.578,6.213-15.521,5.5-22.29,0,0,5.608,13.4.8,27.013,3.473,5.465,2.187,13.125,2.187,13.125,4.572-13.837,7.78-29.059,4.766-39.531Z" transform="translate(-92.842 -319.382)"/>
    </g>
    <g id="Group_8600" data-name="Group 8600" class="cls-6" transform="translate(71.698 95.565)">
      <path id="Path_4621" data-name="Path 4621" class="cls-7" d="M281,774.3l.059.013q.065-.161.13-.329C281.072,774.187,281,774.3,281,774.3Z" transform="translate(-281 -672.062)"/>
      <path id="Path_4622" data-name="Path 4622" class="cls-7" d="M381.71,405.146c-.161,1.031-.342,2.059-.523,3.092,1.148-.949,2.263-1.847,3.35-2.682,7.149-5.491,13.143-8.366,19.688-6.415a23.938,23.938,0,0,1,9.484,5.754c6.6,6.438,12.143,21.821,4.414,48.015,10.5-29.465,4.047-43.978-3.067-50.913a23.938,23.938,0,0,0-9.484-5.754c-6.545-1.949-12.538.924-19.688,6.415q-1.63,1.252-3.35,2.682c.181-1.033.357-2.062.523-3.092,1.505-9.265-2.506-16.406-8.275-21.759a56.036,56.036,0,0,0-9.642-5.948c9.642,8.833,18.223,19.95,16.57,30.606Z" transform="translate(-343.671 -374.54)"/>
    </g>
    <path id="Path_4623" data-name="Path 4623" class="cls-8" d="M128.052,423.529a1.093,1.093,0,0,1-.561-.615,1.208,1.208,0,0,1,.125-1.082,26.064,26.064,0,0,0,3.212-13.615c-.3-10.808-6.869-21.522-18.991-30.986-12.36-9.65-19.578-10.459-23.459-9.438a7.178,7.178,0,0,0-4.506,3.189,1.2,1.2,0,0,1-1,.679,1.078,1.078,0,0,1-1.01-.574c-9.114-17.09-5.3-34.094-.49-45.351,5.6-13.112,14.541-22.734,18.486-23.859,7.121-2.028,30.815,8.374,33.933,9.765a75.085,75.085,0,0,1,19.052,8c12.406,7.532,18.014,17.371,16.212,28.447-.01.056-.018.115-.028.171,8.16-6.445,14.569-9.6,21.775-7.453a25.978,25.978,0,0,1,16.016,15.008c5.486,12.875,3.064,31.111-7.2,54.2a1.208,1.208,0,0,1-.875.7,1.068,1.068,0,0,1-1.015-.357c-6.05-7.022-11.8-9.734-18.1-8.532-5.741,1.095-11.426,5.292-17.442,9.737-9.525,7.035-20.323,15.011-33.923,12.043a1.262,1.262,0,0,1-.222-.074Zm-26.875-55.876a64.006,64.006,0,0,1,12.071,7.683c16.072,12.548,19.665,24.8,19.851,32.874a29.426,29.426,0,0,1-2.8,13.375c11.921,1.9,21.425-5.118,30.626-11.916,6.239-4.608,12.133-8.961,18.389-10.153,6.718-1.281,12.783,1.245,18.978,7.935,9.362-21.66,11.53-38.686,6.445-50.627A23.779,23.779,0,0,0,190.1,343.056c-6.922-2.067-13.306,1.687-21.994,8.869a1.112,1.112,0,0,1-1.281.117,1.14,1.14,0,0,1-.523-1.189q.272-1.539.521-3.072c1.659-10.2-3.45-18.988-15.182-26.112A74.029,74.029,0,0,0,133.1,313.9a.948.948,0,0,1-.186-.064c-7.2-3.225-27.09-11.252-32.527-9.7-2.837.809-11.387,9.474-16.937,22.474-4.45,10.423-8.022,25.982-.378,41.723a10.078,10.078,0,0,1,4.833-2.812c3.7-.975,8.139-.255,13.276,2.133Z" transform="translate(-56.852 -224.658)"/>
    <path id="Path_4624" data-name="Path 4624" class="cls-8" d="M419.542,490.191c-.676,4.108-1.47,8.188-2.187,12.255-.357,2.034-.694,4.067-.975,6.093a59.154,59.154,0,0,0-.592,6.034,21.972,21.972,0,0,0,.071,2.911,7.856,7.856,0,0,0,.615,2.536,2.2,2.2,0,0,0,1.424,1.3,3.167,3.167,0,0,0,1.087.084l.3-.033.311-.051a3.817,3.817,0,0,0,.556-.153,4.766,4.766,0,0,0,1.1-.554,8.234,8.234,0,0,0,1.059-.824,16.536,16.536,0,0,0,1.932-2.128,43.459,43.459,0,0,0,3.307-5.065c2.036-3.559,3.853-7.3,5.807-11,.977-1.85,1.98-3.7,3.082-5.511a30.733,30.733,0,0,1,3.822-5.2,10.359,10.359,0,0,1,2.71-2.067,5.739,5.739,0,0,1,1.722-.536,4.974,4.974,0,0,1,.913-.036l.452.051c.14.026.265.056.4.087a10.346,10.346,0,0,1,5.43,3.172,17,17,0,0,1,3.233,5.3,24.017,24.017,0,0,1,1.523,6,.134.134,0,0,1-.11.148.118.118,0,0,1-.135-.089V502.9a28.675,28.675,0,0,0-2.136-5.606,17.052,17.052,0,0,0-3.376-4.674A10.5,10.5,0,0,0,448.642,491a8.358,8.358,0,0,0-2.567-.862c-.11-.018-.227-.043-.332-.054s-.194-.013-.291-.02a3.384,3.384,0,0,0-.579.043,3.954,3.954,0,0,0-1.148.4,8.511,8.511,0,0,0-2.118,1.735,29.021,29.021,0,0,0-3.455,4.891c-1.031,1.761-1.985,3.59-2.919,5.437-1.865,3.7-3.649,7.471-5.705,11.163a46.252,46.252,0,0,1-3.452,5.409,18.257,18.257,0,0,1-2.23,2.475,10.683,10.683,0,0,1-1.373,1.074,7.422,7.422,0,0,1-1.625.822,6.314,6.314,0,0,1-.9.25l-.431.074-.444.051a5.433,5.433,0,0,1-1.873-.151,4.218,4.218,0,0,1-1.763-.957,5.124,5.124,0,0,1-1.143-1.564,10.253,10.253,0,0,1-.86-3.365,24.152,24.152,0,0,1-.092-3.261,88.732,88.732,0,0,1,1.641-12.5l2.327-12.227v-.005a1.193,1.193,0,0,1,1.334-.977,1.12,1.12,0,0,1,.9,1.312Z" transform="translate(-307.864 -363.663)"/>
    <path id="Path_4625" data-name="Path 4625" class="cls-9" d="M164.876,317.43c0,.1,0,.209-.005.314h-29.5c0-.1-.005-.209-.005-.314a14.75,14.75,0,0,1,29.5,0Z" transform="translate(-100.83 -225.45)"/>
    <path id="Path_4626" data-name="Path 4626" class="cls-1" d="M82.319,384.893s-2.347,8.719-6.254,13.707c-1.431,1.829-3.072,3.156-4.884,3.368-8.744,1.031-10.941-4.412-11.173-14.327-.278-11.816,14.648-48.591,14.648-48.591l3.228,1.276,6.79,2.687Z" transform="translate(-44.694 -252.54)"/>
    <g id="Group_8601" data-name="Group 8601" class="cls-10" transform="translate(21.548 107.84)">
      <path id="Path_4627" data-name="Path 4627" class="cls-11" d="M101.793,466.633s-1.549,8.9-4.988,14.217c-8.471,1.707-11.122-3.513-12.242-13.293-1.049-9.168,5.749-34.31,8.782-44.907l7,2.062Z" transform="translate(-84.453 -422.65)"/>
    </g>
    <path id="Path_4628" data-name="Path 4628" class="cls-12" d="M64.326,398.622a8.749,8.749,0,0,1-5.106-2.028c-2.671-2.319-3.883-6.379-4.052-13.574-.281-11.936,14.128-47.573,14.74-49.086l.459-1.133,11.982,4.741-2.409,42.9-.033.125c-.472,1.75-4.815,17.113-12.186,17.983a16.359,16.359,0,0,1-3.4.077ZM71.743,336c-2.493,6.272-14.347,36.683-14.1,46.963.148,6.346,1.135,9.974,3.2,11.768,1.459,1.268,3.618,1.715,6.593,1.363,4.815-.566,8.856-11.658,10.058-16.049l2.3-40.86L71.745,336Z" transform="translate(-41.089 -247.885)"/>
    <path id="Path_4629" data-name="Path 4629" class="cls-1" d="M88.135,565.494s-2.317,30.639,1.564,48.5c0,0-10.41,7.581-3.794,13.429,7.226,6.387,26.092,6.193,29.465-2.046,3.447-8.428-1.761-47.719-1.227-75.546" transform="translate(-62.347 -409.539)"/>
    <path id="Path_4630" data-name="Path 4630" class="cls-12" d="M107.5,728.3A27.584,27.584,0,0,1,95.344,725.7a1.191,1.191,0,0,1-.51-1.449.9.9,0,0,1,1.225-.6c11.916,5.81,26.947-.717,27.1-.783a.9.9,0,0,1,1.207.648,1.18,1.18,0,0,1-.549,1.429,44.391,44.391,0,0,1-16.32,3.363Z" transform="translate(-70.584 -538.371)"/>
    <path id="Path_4631" data-name="Path 4631" class="cls-13" d="M118.842,797.333a15.473,15.473,0,0,0-3.784-1.635,15.841,15.841,0,0,0-3.932-.643,14.8,14.8,0,0,0-3.889.332,14.162,14.162,0,0,0-1.875.521,7.213,7.213,0,0,0-.911.354l-.9.383-.089.038a1.2,1.2,0,0,1-1.59-.883,1.554,1.554,0,0,1,.745-1.878.974.974,0,0,1,.179-.059l1.059-.25a7.911,7.911,0,0,1,1.059-.209,15.881,15.881,0,0,1,2.133-.2,16.088,16.088,0,0,1,4.213.4,17.164,17.164,0,0,1,3.986,1.4,16.823,16.823,0,0,1,3.59,2.327Z" transform="translate(-75.826 -590.804)"/>
    <g id="Group_8602" data-name="Group 8602" class="cls-10" transform="translate(21.435 140.291)">
      <path id="Path_4632" data-name="Path 4632" class="cls-11" d="M84.01,624.289a6.213,6.213,0,0,0,2.046,3.136c7.226,6.381,26.092,6.193,29.463-2.046,3.447-8.428-1.763-47.719-1.227-75.548L88.284,565.494s-.235,3.123-.431,7.956c2.151,2.689,6.346,6.318,14.444,9.6,10.964,4.44,12.551,42.23-.444,44.052-4.534.633-12.773-.327-17.843-2.812Z" transform="translate(-84.01 -549.83)"/>
    </g>
    <path id="Path_4633" data-name="Path 4633" class="cls-12" d="M97.133,629.1c-6.027,0-12.127-1.745-15.567-4.784a7.224,7.224,0,0,1-2.692-5.846c.163-4.287,4.077-7.971,5.817-9.4-3.6-17.988-1.48-46.744-1.385-47.982a1.315,1.315,0,0,1,1.34-1.324,1.411,1.411,0,0,1,1.12,1.584c-.023.3-2.253,30.6,1.528,48.007l.227,1.041-.776.564c-1.462,1.069-5.289,4.529-5.4,7.642a4.239,4.239,0,0,0,1.7,3.373c4.32,3.817,13.924,5.328,20.971,3.3,3.417-.985,5.777-2.692,6.642-4.81,1.84-4.493.936-19.963-.02-36.339-.73-12.518-1.559-26.7-1.329-38.6a1.355,1.355,0,0,1,1.263-1.426,1.374,1.374,0,0,1,1.207,1.493c-.225,11.77.6,25.885,1.324,38.339,1.064,18.223,1.9,32.619-.222,37.809-1.209,2.957-4.072,5.162-8.28,6.374a27.266,27.266,0,0,1-7.468.99Z" transform="translate(-58.745 -405.263)"/>
    <path id="Path_4634" data-name="Path 4634" class="cls-1" d="M277.875,517.495l-8.831.674a1.735,1.735,0,0,0-1.577,1.421c-.513,2.85-1.352,9.494,1.421,11.683a6.831,6.831,0,0,0,8.224-.255c2.444-2.074,2.677-8.591,2.633-11.816A1.735,1.735,0,0,0,277.875,517.495Z" transform="translate(-198.826 -385.451)"/>
    <g id="Group_8603" data-name="Group 8603" class="cls-10" transform="translate(68.11 133.537)">
      <path id="Path_4635" data-name="Path 4635" class="cls-11" d="M267.468,523.965c-.513,2.85-1.352,9.492,1.424,11.681a6.827,6.827,0,0,0,8.224-.255c1.5-1.278,2.169-4.233,2.449-7.07a7.39,7.39,0,0,1-1.8,3.325c-4.445,4.33-7.775-.763-7.775-.763s-.574,1.24-1.033,1.309c-1.921.3-1.531-5.721-1.258-8.831a1.668,1.668,0,0,0-.232.6Z" transform="translate(-266.937 -523.36)"/>
    </g>
    <path id="Path_4636" data-name="Path 4636" class="cls-12" d="M269.445,530.354a7.41,7.41,0,0,1-4.59-1.5c-3.149-2.485-2.5-9.073-1.837-12.778a2.874,2.874,0,0,1,2.613-2.355l8.831-.674a2.878,2.878,0,0,1,3.1,2.83c.061,4.567-.413,10.476-3.034,12.7a7.881,7.881,0,0,1-5.078,1.781Zm5.238-15.039h-.048l-8.831.674a.6.6,0,0,0-.543.487c-.949,5.289-.564,9.346,1.008,10.586a5.665,5.665,0,0,0,6.779-.23c1.472-1.25,2.307-5.335,2.23-10.931a.6.6,0,0,0-.595-.587Z" transform="translate(-195.499 -382.136)"/>
    <path id="Path_4637" data-name="Path 4637" class="cls-13" d="M278.828,530.753c.112,1.12.117,2.174.2,3.217a15.738,15.738,0,0,0,.472,3,5.9,5.9,0,0,0,1.245,2.439,4.055,4.055,0,0,0,2.184,1.217,1.141,1.141,0,0,1-.5,2.228l-.1-.026a6.841,6.841,0,0,1-1.732-.819,5.835,5.835,0,0,1-1.408-1.322,7.8,7.8,0,0,1-1.391-3.327,17.224,17.224,0,0,1-.247-3.345c.005-1.089.084-2.171.069-3.179v-.018a.6.6,0,0,1,1.2-.069Z" transform="translate(-206.737 -394.925)"/>
    <path id="Path_4638" data-name="Path 4638" class="cls-13" d="M256.813,426.275c-.806.077-1.633.186-2.447.311s-1.625.271-2.429.436-1.6.347-2.393.554-1.569.439-2.34.684l-.018.005a1.142,1.142,0,0,1-.691-2.176.978.978,0,0,1,.143-.036c.847-.153,1.692-.3,2.539-.4s1.692-.189,2.539-.25,1.692-.1,2.536-.123,1.684-.023,2.541.008a.491.491,0,0,1,.031.98h-.013Z" transform="translate(-183.007 -316.761)"/>
    <g id="Group_8604" data-name="Group 8604" class="cls-10" transform="translate(69.8 102.334)">
      <path id="Path_4639" data-name="Path 4639" class="cls-11" d="M287.66,403.78a40.364,40.364,0,0,1-14.061,6.887l-.038-9.6S281.569,401.272,287.66,403.78Z" transform="translate(-273.56 -401.07)"/>
    </g>
    <g id="Group_8605" data-name="Group 8605" class="cls-10" transform="translate(49.535 153.546)">
      <path id="Path_4640" data-name="Path 4640" class="cls-11" d="M194.423,601.78q-.153.815-.283,1.6Q194.266,602.594,194.423,601.78Z" transform="translate(-194.14 -601.78)"/>
    </g>
    <path id="Path_4641" data-name="Path 4641" class="cls-1" d="M149.421,396.8c0,.151-.01.3-.013.454a32.841,32.841,0,0,1-1.421,9.206c-.005.015-.013.033-.018.048-.02.064-.043.128-.064.194a24.768,24.768,0,0,1-2.041,4.4,24.486,24.486,0,0,1-11.229,9.979A39.819,39.819,0,0,1,119.04,424.5c-1.016.015-2.072-.015-3.159-.087-4.8-.329-16.376-3.072-20.208-10.232-2.572-4.8-1.975-18.611,1.135-39.582.043-.293.089-.592.13-.893.079-.515.161-1.033.24-1.559.077-.505.153-1.015.235-1.531,1.146-7.31,2.564-15.409,4.236-24.227l37.418,1.972c1.674,4.366,3.136,8.642,4.4,12.788.265.868.518,1.725.765,2.58.454,1.592.883,3.166,1.281,4.71.02.079.043.163.064.247,2.791,10.949,4.034,20.647,3.845,28.115Z" transform="translate(-70.061 -258.008)"/>
    <g id="Group_8606" data-name="Group 8606" class="cls-10" transform="translate(24.001 136.438)">
      <path id="Path_4642" data-name="Path 4642" class="cls-11" d="M147.912,546.99a24.435,24.435,0,0,1-13.276,14.383,39.683,39.683,0,0,1-18.749,3.325c-4.8-.329-16.373-3.072-20.211-10.232-1.192-2.225-1.7-6.386-1.6-12.306.1,3.513.947,7.876,1.771,9.448,4.082,7.769,15.222,6.213,20.027,6.483a47.278,47.278,0,0,0,18.749-2.733c6.2-2.271,10.956-6.381,13.278-11.8a23.565,23.565,0,0,0,1.528-8.828,36.758,36.758,0,0,1-1.523,12.26Z" transform="translate(-94.066 -534.73)"/>
    </g>
    <g id="Group_8607" data-name="Group 8607" class="cls-10" transform="translate(24 129.694)">
      <path id="Path_4643" data-name="Path 4643" class="cls-11" d="M95.093,508.3c-.6,5.473-.949,10.216-1.016,14.174A91.921,91.921,0,0,1,95.093,508.3Z" transform="translate(-94.059 -508.3)"/>
    </g>
    <path id="Path_4644" data-name="Path 4644" class="cls-12" d="M115.066,422.14q-1.359,0-2.779-.094l-.112-.013-5.044-.822c-3.4-.806-9.714-2.781-13.763-6.95a13.818,13.818,0,0,1-2.294-3.1c-3.554-6.631-1.638-29.072,5.851-68.606a1.235,1.235,0,0,1,2.426.462c-7.28,38.413-9.331,60.948-6.1,66.978a11.426,11.426,0,0,0,1.888,2.544c3.6,3.7,9.367,5.506,12.518,6.259l4.856.788a38.294,38.294,0,0,0,18.1-3.225A23.3,23.3,0,0,0,143.23,402.7c3.143-8.948,1.633-30.195-8.828-57.491a1.235,1.235,0,0,1,2.307-.883c9.252,24.14,12.811,47.93,8.854,59.193a25.739,25.739,0,0,1-13.939,15.1,40.831,40.831,0,0,1-16.557,3.526Z" transform="translate(-66.549 -254.405)"/>
    <path id="Path_4645" data-name="Path 4645" class="cls-1" d="M185.958,581.215s-1.7,25.86,2.182,43.912c0,0-10.41,7.662-3.794,13.572,7.226,6.453,26.092,6.259,29.465-2.069,3.447-8.517-1.761-48.224-1.227-76.349Z" transform="translate(-135.67 -417.323)"/>
    <path id="Path_4646" data-name="Path 4646" class="cls-12" d="M182.764,580.179a105.107,105.107,0,0,1,.518,11.007c.054,3.654.051,7.3.13,10.949.11,3.644.337,7.28.7,10.887.388,3.6.9,7.172,1.62,10.665l.217,1.044-.763.579c-.416.317-.883.712-1.306,1.1s-.85.811-1.248,1.243a14.32,14.32,0,0,0-2.057,2.8,5.759,5.759,0,0,0-.786,2.967,3.732,3.732,0,0,0,.365,1.327,5.255,5.255,0,0,0,.855,1.225,11.524,11.524,0,0,0,2.61,1.967,18.5,18.5,0,0,0,3.052,1.342,23.522,23.522,0,0,0,3.23.86,27.846,27.846,0,0,0,3.309.452,28.249,28.249,0,0,0,6.647-.245,17.118,17.118,0,0,0,6.2-2.13,8.36,8.36,0,0,0,2.375-2.118c.14-.219.283-.436.411-.658l.166-.349.084-.173.064-.192a11.208,11.208,0,0,0,.436-1.689,50.557,50.557,0,0,0,.559-7.91c.043-5.425-.209-10.908-.487-16.383s-.62-10.967-.926-16.463-.589-11-.791-16.516c-.092-2.758-.309-5.516-.283-8.285a33.368,33.368,0,0,1,.906-8.29.42.42,0,0,1,.538-.334.481.481,0,0,1,.283.35v.005a42.82,42.82,0,0,1,.888,8.216c.112,2.733.038,5.473.138,8.213.194,5.478.477,10.959.786,16.442s.643,10.974.926,16.478.533,11.02.49,16.6A53.5,53.5,0,0,1,212,633.68a14.2,14.2,0,0,1-.589,2.245l-.1.286-.128.276-.263.549c-.191.347-.406.674-.62.993a10.921,10.921,0,0,1-3.11,2.814,19.227,19.227,0,0,1-7.007,2.434,30.183,30.183,0,0,1-7.142.265,29.48,29.48,0,0,1-3.552-.485,25.56,25.56,0,0,1-3.511-.934,16.472,16.472,0,0,1-6.629-3.952,8.162,8.162,0,0,1-1.34-1.942,7.064,7.064,0,0,1-.686-2.564,7.713,7.713,0,0,1,.283-2.608,10.9,10.9,0,0,1,.883-2.189,17.087,17.087,0,0,1,2.475-3.4c.454-.492.924-.959,1.4-1.4s.959-.852,1.516-1.273l-.549,1.623c-.758-3.654-1.283-7.343-1.681-11.04-.163-1.85-.35-3.7-.459-5.552-.153-1.85-.225-3.7-.334-5.557-.176-3.7-.27-7.415-.148-11.12.059-1.852.138-3.7.339-5.547a40.965,40.965,0,0,1,.89-5.5.417.417,0,0,1,.521-.342.484.484,0,0,1,.3.413v.005Z" transform="translate(-132.068 -416.248)"/>
    <path id="Path_4647" data-name="Path 4647" class="cls-12" d="M205.927,740.65a27.341,27.341,0,0,1-12.153-2.633,1.209,1.209,0,0,1-.51-1.465.893.893,0,0,1,1.225-.61c11.916,5.874,26.947-.725,27.1-.791a.9.9,0,0,1,1.207.656,1.2,1.2,0,0,1-.549,1.442,43.989,43.989,0,0,1-16.32,3.4Z" transform="translate(-143.899 -547.522)"/>
    <path id="Path_4648" data-name="Path 4648" class="cls-14" d="M134.476,328.983l-4.779.689s-2.393.046,2.192,5.4,2.587-6.088,2.587-6.088Z" transform="translate(-96.14 -245.04)"/>
    <path id="Path_4649" data-name="Path 4649" class="cls-8" d="M126.4,342.511a7.159,7.159,0,0,1,1.4.423,8.072,8.072,0,0,1,1.309.679,6.261,6.261,0,0,1,1.151.964c.084.094.176.184.253.286l.232.306.048.066.043.059c.031.038.061.074.092.11a1.383,1.383,0,0,0,.207.184,1.172,1.172,0,0,0,.475.212.61.61,0,0,0,.214.005.7.7,0,0,0,.1-.023l.048-.018.033-.018a.8.8,0,0,0,.278-.352,1.556,1.556,0,0,0,.143-.536,1.924,1.924,0,0,0-.245-1.118,2.755,2.755,0,0,0-.837-.893h-.005a.384.384,0,0,1-.089-.533.379.379,0,0,1,.505-.1,3.293,3.293,0,0,1,1.143,1.115,2.682,2.682,0,0,1,.316.771,2.58,2.58,0,0,1,.064.839,2.385,2.385,0,0,1-.074.421,2.263,2.263,0,0,1-.148.411,1.62,1.62,0,0,1-.628.717c-.041.023-.084.043-.125.064s-.079.031-.12.043a1.388,1.388,0,0,1-.247.056,1.441,1.441,0,0,1-.492-.02,1.759,1.759,0,0,1-.431-.153,2.11,2.11,0,0,1-.373-.232,2.321,2.321,0,0,1-.314-.3c-.046-.054-.092-.11-.133-.166l-.061-.087-.054-.079-.186-.27c-.061-.092-.138-.171-.2-.258a6.306,6.306,0,0,0-.97-.926,9.134,9.134,0,0,0-1.146-.753,10.4,10.4,0,0,0-1.253-.595h-.008a.159.159,0,0,1-.087-.2.152.152,0,0,1,.171-.094Z" transform="translate(-94.014 -254.853)"/>
    <path id="Path_4650" data-name="Path 4650" class="cls-13" d="M217.279,810.446A15.326,15.326,0,0,0,213.5,808.8a15.622,15.622,0,0,0-3.932-.648,14.6,14.6,0,0,0-3.889.337,14.213,14.213,0,0,0-1.875.526,7.255,7.255,0,0,0-.911.36l-.9.388-.089.038a1.2,1.2,0,0,1-1.59-.891,1.575,1.575,0,0,1,.745-1.9.974.974,0,0,1,.179-.059l1.059-.253a8.356,8.356,0,0,1,1.059-.212,15.453,15.453,0,0,1,2.133-.2,15.844,15.844,0,0,1,4.21.4,17.216,17.216,0,0,1,3.985,1.414,16.843,16.843,0,0,1,3.59,2.353Z" transform="translate(-149.146 -600.547)"/>
    <path id="Path_4651" data-name="Path 4651" class="cls-14" d="M250.364,338.554l-2.881,3.873s-1.179,2.082-3.7-4.5,6.586.62,6.586.62Z" transform="translate(-181.248 -249.643)"/>
    <path id="Path_4652" data-name="Path 4652" class="cls-15" d="M140.705,439.331a8.566,8.566,0,1,0-8.565-8.566A8.566,8.566,0,0,0,140.705,439.331Z" transform="translate(-98.424 -314.474)"/>
    <path id="Path_4653" data-name="Path 4653" class="cls-8" d="M245.355,353.183c-.031,0-.059,0-.089,0a1.957,1.957,0,0,1-1.6-1.7,3.608,3.608,0,0,0-2-2.164.38.38,0,1,1,.286-.7,4.3,4.3,0,0,1,2.46,2.7c.148.651.508,1.087.913,1.112.362.026.7-.3.906-.86.842-2.286,2.284-2.409,2.345-2.411a.384.384,0,0,1,.406.355.38.38,0,0,1-.355.4c-.036,0-1.026.128-1.684,1.916a1.786,1.786,0,0,1-1.579,1.36Z" transform="translate(-179.821 -259.639)"/>
    <path id="Path_4654" data-name="Path 4654" class="cls-8" d="M255.52,356.89c.051.314-.079.6-.288.63s-.421-.194-.472-.508" transform="translate(-189.757 -265.828)"/>
    <path id="Path_4655" data-name="Path 4655" class="cls-8" d="M147.442,351.714a.527.527,0,1,0-.585-.253A.459.459,0,0,0,147.442,351.714Z" transform="translate(-109.324 -261.285)"/>
    <path id="Path_4656" data-name="Path 4656" class="cls-16" d="M11.213,138.14a38.582,38.582,0,0,0-1.63,13.072c.385,8.816,3.57,16.623,8.331,21.93a13.289,13.289,0,0,1-1.858-.015C7.5,172.435,1.231,163.648,2.05,153.5c.554-6.859,4.21-12.582,9.16-15.358Z" transform="translate(-1.473 -102.893)"/>
    <path id="Path_4657" data-name="Path 4657" d="M15.6,170.574c-.36,0-.714-.015-1.059-.041C5.725,169.819-.767,160.769.075,150.358c.549-6.769,4.156-12.809,9.418-15.758l1.1-.62-.375,1.212a37.935,37.935,0,0,0-1.61,12.9c.362,8.333,3.353,16.21,8.2,21.614l.7.781-1.046.061c-.293.018-.582.026-.87.026Zm-6.716-34.41a19.112,19.112,0,0,0-7.8,14.276c-.8,9.854,5.279,18.414,13.541,19.083.242.02.485.031.732.036-4.585-5.534-7.4-13.273-7.754-21.425a39.218,39.218,0,0,1,1.283-11.972Z" transform="translate(-0.001 -99.795)"/>
    <path id="Path_4658" data-name="Path 4658" class="cls-1" d="M96.908,22.8a4.221,4.221,0,0,0,1.962-2.554c1.061-3.373-.987-5.685-3.633-7.068,3.434-.046,5.618-1.225,3.452-5.009-5.486-9.586-28.7-5.016-28.7-5.016-32.1,7.542-40.429,26.314-40.429,26.314a6.587,6.587,0,0,1,.538-.518A36.038,36.038,0,0,0,21.88,51.677C21.88,73.4,41.892,91,66.575,91s44.7-17.606,44.7-39.324c0-11.416-5.532-21.693-14.36-28.878Z" transform="translate(-16.297 -1.537)"/>
    <path id="Path_4659" data-name="Path 4659" d="M65.1,89.962c-24.923,0-45.2-17.868-45.2-39.832a36.3,36.3,0,0,1,7.57-22.076l.151-.339c.084-.189,8.8-19.088,40.773-26.6.98-.194,23.655-4.529,29.258,5.254.98,1.71,1.186,3.082.615,4.08a3.7,3.7,0,0,1-2.9,1.569c2.462,1.773,3.355,4.154,2.513,6.83a4.917,4.917,0,0,1-1.6,2.444c8.92,7.5,14.023,17.968,14.023,28.837,0,21.964-20.277,39.832-45.2,39.832Zm-36.26-62.41.179.171a35.453,35.453,0,0,0-8.106,22.41c0,21.4,19.823,38.819,44.187,38.819s44.19-17.414,44.19-38.819c0-10.775-5.167-21.157-14.174-28.485l-.577-.469.648-.365a3.712,3.712,0,0,0,1.725-2.266c1.049-3.337-1.26-5.358-3.383-6.468l-1.776-.929,2-.026c1.952-.026,3.207-.431,3.633-1.176.38-.666.174-1.7-.615-3.075C91.529-2.286,68.838,2.06,68.609,2.106,40.292,8.76,30.565,24.357,28.841,27.552Z" transform="translate(-14.822 0.007)"/>
    <path id="Path_4660" data-name="Path 4660" class="cls-17" d="M273.958,69.576s-7.093-4.868-14.378-4.708Z" transform="translate(-193.347 -48.314)"/>
    <path id="Path_4661" data-name="Path 4661" d="M273.23,69.093a.268.268,0,0,1-.143-.043c-.069-.048-7.111-4.822-14.23-4.664a.253.253,0,0,1-.01-.505c7.272-.145,14.454,4.7,14.526,4.753a.254.254,0,0,1,.066.352.251.251,0,0,1-.209.11Z" transform="translate(-192.617 -47.579)"/>
    <path id="Path_4662" data-name="Path 4662" class="cls-16" d="M343.395,150.35a38.556,38.556,0,0,1,1.6,13.074c-.406,8.816-3.61,16.616-8.384,21.91a13.286,13.286,0,0,0,1.858-.01c8.558-.671,14.847-9.443,14.051-19.593-.538-6.861-4.179-12.592-9.124-15.381Z" transform="translate(-250.723 -111.988)"/>
    <path id="Path_4663" data-name="Path 4663" d="M334.329,182.769c-.3,0-.6-.01-.9-.028l-1.046-.064.7-.778c4.861-5.391,7.871-13.263,8.254-21.594a37.893,37.893,0,0,0-1.577-12.9l-.373-1.212,1.1.623c5.254,2.962,8.849,9.009,9.379,15.781a20.681,20.681,0,0,1-3.613,13.686,14.827,14.827,0,0,1-10.905,6.453q-.5.038-1.026.038Zm6.764-34.392a39.238,39.238,0,0,1,1.255,11.974c-.375,8.15-3.2,15.883-7.805,21.4.247-.005.49-.015.732-.036a13.835,13.835,0,0,0,10.163-6.032,19.654,19.654,0,0,0,3.424-13.018,19.115,19.115,0,0,0-7.769-14.294Z" transform="translate(-247.572 -108.889)"/>
    <g id="Group_8608" data-name="Group 8608" class="cls-18" transform="translate(10.742 33.134)">
      <path id="Path_4664" data-name="Path 4664" class="cls-19" d="M76.314,150.025c-1.725,3.843-4.863,7.029-8.106,9.7-4.133,3.409-8.882,6.792-14.2,5.448-7-1.771-10.941-10.65-9.757-17.611,1.6-9.436,10.229-16.475,19.264-15.725a16.679,16.679,0,0,1,11.737,7.137,10.628,10.628,0,0,1,1.061,11.046Z" transform="translate(-43.547 -131.294)"/>
      <path id="Path_4665" data-name="Path 4665" class="cls-20" d="M54.094,164.5a10.3,10.3,0,0,1-1.694-.283c-7.438-1.883-11.285-11.066-10.084-18.129,1.646-9.691,10.545-16.947,19.836-16.177a17.133,17.133,0,0,1,12.066,7.323,11.16,11.16,0,0,1,1.1,11.52c-1.505,3.353-4.131,6.5-8.262,9.905-3.735,3.08-8.07,6.246-12.962,5.84ZM61.984,130.9c-8.752-.727-17.139,6.124-18.693,15.273-1.13,6.654,2.661,15.378,9.43,17.09,5.134,1.3,9.785-2.074,13.743-5.338,3.993-3.291,6.522-6.31,7.953-9.5a10.121,10.121,0,0,0-1.026-10.571A16.218,16.218,0,0,0,61.986,130.9Z" transform="translate(-42.099 -129.86)"/>
    </g>
    <path id="Path_4666" data-name="Path 4666" d="M54.869,164.992a10.244,10.244,0,0,1-1.648-.276c-7.111-1.8-11.1-10.918-9.92-17.868,1.623-9.555,10.395-16.71,19.55-15.95a16.9,16.9,0,0,1,11.9,7.231,10.928,10.928,0,0,1,1.079,11.283c-1.488,3.312-4.088,6.43-8.185,9.806-3.692,3.044-7.979,6.177-12.778,5.779Zm7.9-33.6c-8.887-.737-17.4,6.216-18.978,15.5-1.148,6.754,2.712,15.608,9.594,17.35,5.241,1.329,9.961-2.087,13.972-5.391,4.029-3.32,6.58-6.371,8.03-9.6l.225.084-.225-.084a10.348,10.348,0,0,0-1.044-10.808,16.449,16.449,0,0,0-11.571-7.045Z" transform="translate(-32.099 -97.458)"/>
    <g id="Group_8609" data-name="Group 8609" class="cls-18" transform="translate(56.032 37.172)">
      <path id="Path_4667" data-name="Path 4667" class="cls-19" d="M220.138,161.8c.388,4.019,2.37,7.632,4.628,10.762,2.878,3.991,6.358,8.058,11.977,7.621,7.4-.574,14.2-8.56,15.388-15.521,1.6-9.436-4.422-17.692-13.459-18.442-4.764-.4-10.017,1.84-13.8,5.016-3.715,3.121-5.1,6.787-4.736,10.563Z" transform="translate(-219.957 -146.048)"/>
      <path id="Path_4668" data-name="Path 4668" class="cls-20" d="M234.716,179.937c-4.756-.4-7.851-4.121-10.408-7.665-2.84-3.937-4.317-7.374-4.649-10.819-.4-4.088,1.214-7.68,4.784-10.678,4.146-3.48,9.471-5.417,13.9-5.047,9.089.755,15.171,9.089,13.559,18.575-1.174,6.9-8.055,15.054-15.511,15.633a10.436,10.436,0,0,1-1.671,0ZM219.9,161.411c.329,3.4,1.794,6.8,4.608,10.706s6.277,8.014,11.877,7.576c7.336-.572,14.11-8.606,15.266-15.409,1.59-9.351-4.4-17.565-13.357-18.31-4.361-.362-9.614,1.549-13.707,4.986-3.5,2.937-5.072,6.453-4.687,10.451Z" transform="translate(-219.601 -145.684)"/>
    </g>
    <path id="Path_4669" data-name="Path 4669" d="M233.563,179.241c-4.889-.406-8.042-4.195-10.642-7.8-2.876-3.988-4.371-7.476-4.71-10.982-.4-4.162,1.3-7.971,4.927-11.018,4.225-3.549,9.66-5.519,14.184-5.144,9.29.771,15.511,9.285,13.862,18.976-1.2,7.065-8.017,15.36-15.881,15.973a11.352,11.352,0,0,1-1.743,0ZM219.2,160.278c.324,3.337,1.768,6.688,4.547,10.54,2.756,3.82,6.149,7.861,11.571,7.44,7.154-.556,13.765-8.415,14.9-15.069,1.554-9.15-4.3-17.185-13.054-17.912-4.264-.355-9.4,1.521-13.419,4.891-3.386,2.845-4.914,6.246-4.542,10.109Z" transform="translate(-162.49 -107.446)"/>
    <path id="Path_4670" data-name="Path 4670" class="cls-21" d="M81.046,220.222a5.7,5.7,0,1,0-8.4.183A5.951,5.951,0,0,0,81.046,220.222Z" transform="translate(-53.012 -156.563)"/>
    <path id="Path_4671" data-name="Path 4671" class="cls-1" d="M80.051,216.435a2.531,2.531,0,1,0-3.732.083A2.645,2.645,0,0,0,80.051,216.435Z" transform="translate(-56.357 -157.892)"/>
    <path id="Path_4672" data-name="Path 4672" class="cls-21" d="M260.81,232.616a5.7,5.7,0,1,0-8.4.183A5.95,5.95,0,0,0,260.81,232.616Z" transform="translate(-186.909 -165.794)"/>
    <path id="Path_4673" data-name="Path 4673" class="cls-1" d="M259.808,228.812a2.531,2.531,0,1,0-3.732.083A2.645,2.645,0,0,0,259.808,228.812Z" transform="translate(-190.249 -167.111)"/>
    <path id="Path_4674" data-name="Path 4674" d="M179.331,208.825a.44.44,0,0,1-.281-.128c-5.657-5.639-13.061-2.159-13.373-2.008a.463.463,0,0,1-.643-.217.529.529,0,0,1,.276-.663c.084-.041,8.341-3.947,14.472,2.161a.493.493,0,0,1-.031.7.531.531,0,0,1-.418.158Z" transform="translate(-122.899 -152.352)"/>
    <path id="Path_4675" data-name="Path 4675" class="cls-1" d="M274.335,199.446c-7.9,13.115-24.5,12.857-24.5,12.857l-5.478-19.029s6.3-3.646,7.869-9.081c2.245-7.78-2.388-22.515-2.388-22.515a5.863,5.863,0,0,1-6.292-.824c-10.989-8.412-2.939-15.251-2.631-15.508l.005-.005c-.2.02-7.815.857-8.548-3.86a2.54,2.54,0,0,1,.092-1.186c1.373-4.327,14.026-6.254,18.869-4.833,20.53,6.019,33.147,47.152,23,63.99Z" transform="translate(-173.054 -100.554)"/>
    <g id="Group_8610" data-name="Group 8610" class="cls-10" transform="translate(59.281 39.735)">
      <path id="Path_4676" data-name="Path 4676" class="cls-11" d="M248.756,157.465a22.411,22.411,0,0,0-7.841,3.312c-.2.02-7.815.857-8.548-3.86a2.54,2.54,0,0,1,.092-1.186c1.556,1.829,4.955,2.2,8.668,1.482,4.9-.944,7.627.253,7.627.253Z" transform="translate(-232.336 -155.73)"/>
    </g>
    <g id="Group_8611" data-name="Group 8611" class="cls-10" transform="translate(64.721 47.538)">
      <path id="Path_4677" data-name="Path 4677" class="cls-11" d="M259.417,199.07c-6.915-5.292-6.292-9.961-4.8-12.76.893,1.472.321,4.539,3.863,6.828,5.879,3.8,12.6-1,13.4.74,1.465,3.182-5.611,8.739-3.628,17.4a79.9,79.9,0,0,0-2.541-11.377,5.863,5.863,0,0,1-6.292-.824Z" transform="translate(-253.654 -186.31)"/>
    </g>
    <g id="Group_8612" data-name="Group 8612" class="cls-10" transform="translate(76.334 76.699)">
      <path id="Path_4678" data-name="Path 4678" class="cls-11" d="M324.117,322.793c-7.9,13.115-24.5,12.857-24.5,12.857a5.462,5.462,0,0,1,3.674-7.433c6.233-1.613,15.5-5.3,20.456-13.523,2.245-3.723,3.373-8.634,3.549-14.095C328.312,309.209,327.429,317.3,324.117,322.793Z" transform="translate(-299.171 -300.6)"/>
    </g>
    <path id="Path_4679" data-name="Path 4679" class="cls-12" d="M246.246,208.293a63.233,63.233,0,0,0,8.03-1.96,34.108,34.108,0,0,0,7.389-3.3,24.291,24.291,0,0,0,6.091-5.159,19.565,19.565,0,0,0,2.256-3.294l.475-.87c.14-.3.263-.612.4-.916s.27-.607.383-.924l.314-.957a32.725,32.725,0,0,0,1.411-8,51.823,51.823,0,0,0-.207-8.247,64.418,64.418,0,0,0-1.411-8.175,65.914,65.914,0,0,0-2.4-7.956,68.248,68.248,0,0,0-3.332-7.6,54.514,54.514,0,0,0-4.358-7.017,37.707,37.707,0,0,0-5.493-6.055A23.667,23.667,0,0,0,249,133.614l-.936-.327a9.31,9.31,0,0,0-.919-.3,11.927,11.927,0,0,0-1.88-.291,25.576,25.576,0,0,0-4.024.046,27.633,27.633,0,0,0-7.859,1.755,11.668,11.668,0,0,0-1.7.86,4.993,4.993,0,0,0-1.291,1.084,1.6,1.6,0,0,0-.4,1.118l.005.143.038.184a2.969,2.969,0,0,0,.1.352,2.391,2.391,0,0,0,.334.615,4.648,4.648,0,0,0,2.886,1.5,12.206,12.206,0,0,0,1.9.217c.324.013.651.013.977.005s.668-.028.944-.056a1.238,1.238,0,0,1,.936,2.171l-.015.013c-.043.036-.143.125-.217.2s-.161.156-.24.24c-.158.163-.311.339-.457.518a8.71,8.71,0,0,0-.788,1.13,6.96,6.96,0,0,0-.908,2.5,7.1,7.1,0,0,0,1.357,5.078,13.683,13.683,0,0,0,1.873,2.2c.344.35.73.668,1.1,1l.584.469.291.235.273.186a4.973,4.973,0,0,0,2.34.911,4.552,4.552,0,0,0,1.235-.031,4.665,4.665,0,0,0,.6-.145q.145-.046.283-.1c.082-.031.2-.087.209-.092l.184-.071a1.21,1.21,0,0,1,1.569.681c.013.031.023.064.033.094a84.61,84.61,0,0,1,2.108,8.68,53.881,53.881,0,0,1,.957,8.948c.023.378-.013.765-.018,1.148s-.013.765-.048,1.153l-.12,1.166a8.276,8.276,0,0,1-.194,1.174c-.089.393-.143.786-.273,1.179a11.074,11.074,0,0,1-.424,1.164,12.223,12.223,0,0,1-1.184,2.118,15.219,15.219,0,0,1-3.238,3.378,14.805,14.805,0,0,1-1.916,1.266,11.621,11.621,0,0,1-2.1.947.42.42,0,0,1-.429-.7l.015-.015a38.322,38.322,0,0,0,5.5-6.313,12.984,12.984,0,0,0,.919-1.732,3.309,3.309,0,0,0,.176-.447l.163-.449a2.975,2.975,0,0,0,.13-.472l.117-.482a15.65,15.65,0,0,0,.339-2c.038-.339.041-.694.061-1.038s.051-.691.036-1.046a48.008,48.008,0,0,0-.9-8.5,81.529,81.529,0,0,0-2.034-8.389l1.783.7-.151.077-.122.059c-.079.033-.158.071-.235.1-.153.061-.306.115-.459.163a7.851,7.851,0,0,1-.931.225,7.01,7.01,0,0,1-1.906.051,7.463,7.463,0,0,1-3.475-1.332l-.375-.26-.322-.258-.643-.518c-.416-.367-.839-.722-1.232-1.12a16.139,16.139,0,0,1-2.2-2.592,10.967,10.967,0,0,1-1.513-3.189,8.543,8.543,0,0,1-.237-3.631,9.386,9.386,0,0,1,1.22-3.386,11.051,11.051,0,0,1,1.01-1.449c.186-.227.38-.449.587-.661.1-.107.207-.212.316-.316s.209-.2.367-.329l.921,2.187c-.429.046-.781.061-1.169.074s-.758.008-1.138-.008a14.527,14.527,0,0,1-2.3-.263,9.3,9.3,0,0,1-2.312-.763,5.7,5.7,0,0,1-2.069-1.687,4.8,4.8,0,0,1-.669-1.238,5.286,5.286,0,0,1-.191-.663l-.069-.334c-.015-.122-.023-.255-.033-.385a3.279,3.279,0,0,1-.01-.388l.043-.39a3.669,3.669,0,0,1,.186-.75,4.954,4.954,0,0,1,.314-.676c.122-.207.263-.393.4-.587a7.424,7.424,0,0,1,1.916-1.643,13.836,13.836,0,0,1,2.069-1.049,25.052,25.052,0,0,1,4.256-1.288,34.167,34.167,0,0,1,4.34-.646,27.827,27.827,0,0,1,4.427-.049,14.236,14.236,0,0,1,2.294.357,10.8,10.8,0,0,1,1.095.352l1.061.373a26.082,26.082,0,0,1,7.5,4.679,40.065,40.065,0,0,1,5.858,6.453,56.892,56.892,0,0,1,4.562,7.346,70.526,70.526,0,0,1,3.46,7.889,68.6,68.6,0,0,1,2.48,8.239,67.139,67.139,0,0,1,1.465,8.489,54.081,54.081,0,0,1,.217,8.652,35.111,35.111,0,0,1-1.526,8.614l-.347,1.054c-.125.35-.283.686-.424,1.031s-.286.686-.439,1.026l-.526,1a21.984,21.984,0,0,1-2.475,3.7,25.089,25.089,0,0,1-6.672,5.83,28.31,28.31,0,0,1-8.142,3.289,27.5,27.5,0,0,1-4.312.648,20.094,20.094,0,0,1-4.355-.138.415.415,0,0,1-.01-.819l.023-.005Z" transform="translate(-169.465 -96.957)"/>
    <path id="Path_4680" data-name="Path 4680" class="cls-13" d="M302.39,221.816a5.588,5.588,0,0,1-.436.85,8.792,8.792,0,0,1-.505.74,11.649,11.649,0,0,1-1.186,1.317,14.651,14.651,0,0,1-1.352,1.133c-.235.176-.48.334-.722.505l-.745.464a1.243,1.243,0,0,1-1.314-2.11,1.382,1.382,0,0,1,.2-.1l.048-.018.709-.273c.23-.1.467-.2.694-.311a12.4,12.4,0,0,0,1.324-.735,9.947,9.947,0,0,0,1.2-.906,7.293,7.293,0,0,0,.528-.523,5.089,5.089,0,0,0,.429-.533l.056-.082a.613.613,0,0,1,1.072.582Z" transform="translate(-220.134 -164.588)"/>
    <path id="Path_4681" data-name="Path 4681" class="cls-13" d="M324.575,310.319c-7.315,0-14.625-3.651-15.092-3.891a.937.937,0,1,1,.85-1.671c.166.084,16.544,8.259,23.734-.122a.937.937,0,0,1,1.424,1.22C332.6,309.219,328.586,310.319,324.575,310.319Z" transform="translate(-230.135 -226.662)"/>
    <path id="Path_4682" data-name="Path 4682" class="cls-13" d="M268.592,159.52a15.988,15.988,0,0,0-4.361,1.755,19.667,19.667,0,0,0-3.639,2.934,1.238,1.238,0,0,1-1.743-1.758,1.079,1.079,0,0,1,.117-.1,21.746,21.746,0,0,1,4.417-2.722,17.535,17.535,0,0,1,4.975-1.322h0a.618.618,0,0,1,.232,1.212Z" transform="translate(-192.531 -117.909)"/>
    <path id="Path_4683" data-name="Path 4683" class="cls-22" d="M169.1,299.39l12.3.615" transform="translate(-125.954 -223)"/>
  </g>
</svg>
