<svg xmlns="http://www.w3.org/2000/svg" width="217.976" height="265.899" viewBox="0 0 217.976 265.899">
    <defs>
        <clipPath id="y9mw766k2a">
            <path data-name="Rectangle 5120" style="fill:#fff" d="M0 0h206.392v222.578H0z"/>
        </clipPath>
    </defs>
    <g data-name="Group 8593">
        <g data-name="freddie hi" transform="translate(11.584 43.322)" style="clip-path:url(#y9mw766k2a)">
            <path data-name="Path 4475" d="M76.9 385.482c42.473 0 76.9-3.437 76.9-7.676s-34.431-7.676-76.9-7.676S0 373.567 0 377.806s34.431 7.676 76.9 7.676z" transform="translate(0 -162.904)" style="fill:#4659b9;opacity:.49"/>
            <path data-name="Path 4476" d="M240.207 226.089c-39.3-16.869-32.221 37.45-66.295 44.706 0 0 4.16-28.621-38.8-38.066-33.221-7.306-33.512 7.871-33.512 7.871-32.389-23.168-20.917-69.055-14.624-74.228s39.135-5.627 39.135-5.627S170.7 152.2 178.8 179.53c.319 1.086.638 2.178.946 3.275 5.532-11.03 10.582-18.235 19.467-19.472 6.136-.851 39.813-2.027 40.994 62.756z" transform="translate(-35.103 -70.192)" style="fill:#00a4f2"/>
            <g data-name="Group 8587" style="opacity:.2">
                <path data-name="Path 4477" d="M229.069 186.757c-13.2-14.417-18.985-2.822-21.253 5.274-.392 2.329-.621 4.6-1.047 6.629-.252 6.041-1.344 11.153-3.135 14.478 3.063-6.478 1.624-15.217.358-20.234a.72.72 0 0 0-1.411.067c-.543 3.583-2.245 8.342-7.4 9.031-3.477.465-6.1-2.172-7.973-5.42a191.12 191.12 0 0 1-2.665-11.326q-.462-1.646-.946-3.281c-2.9-9.8-10.492-14.982-19.041-17.6-14.383-3.163-29.892-.2-29.892-.2s-32.842.453-39.135 5.627c-6.063 4.983-16.931 47.724 11.214 71.563 1.249-3.734 6.965-11.959 33.167-6.192q2.931.647 5.576 1.405a.079.079 0 0 1 .034.011 69.575 69.575 0 0 1 11.444 4.322A118.733 118.733 0 0 1 160.775 228s22.525 31.2 38.825 24.268a13.639 13.639 0 0 0 6.786-5.795c5.414-9.316-.14-24.248 13.666-30.6a20.32 20.32 0 0 1 5.739-1.747c.168-9.132-1.041-18.1-5.044-24.422 0 0 12.256 10.61 13.834 26.185 6.226 3.785 8.583 11.9 8.583 11.9-1.926-15.693-5.94-32.12-14.1-41.039z" transform="translate(-38.869 -71.703)" style="fill:#371a45;opacity:.2"/>
            </g>
            <g data-name="Group 8588" style="opacity:.6">
                <path data-name="Path 4478" d="m247.93 357.988.067-.017c-.006-.123-.017-.252-.022-.381a6.673 6.673 0 0 1-.045.398z" transform="translate(-109.121 -157.385)" style="opacity:.6;fill:#fff"/>
                <path data-name="Path 4479" d="M231.595 183.787c.33 1.086.638 2.178.946 3.281.733-1.461 1.45-2.85 2.178-4.165 4.753-8.667 9.579-14.232 17.289-15.307a28.617 28.617 0 0 1 12.586 1.321c9.932 3.309 23.072 15.9 27.686 45.182-3.314-33.766-16.987-45.081-27.686-48.647a28.7 28.7 0 0 0-12.586-1.321c-7.715 1.075-12.536 6.64-17.289 15.307a136.879 136.879 0 0 0-2.178 4.165q-.462-1.646-.946-3.281c-2.9-9.8-10.492-14.982-19.041-17.6a67.3 67.3 0 0 0-12.843-1.439c14.232 4.277 28.464 11.276 31.885 22.507z" transform="translate(-87.898 -70.984)" style="opacity:.6;fill:#fff"/>
            </g>
            <path data-name="Path 4480" d="M172.91 271.073a1.29 1.29 0 0 1-.879-.347 1.272 1.272 0 0 1-.392-1.12 27.028 27.028 0 0 0-3.23-14.853c-5.515-10.486-17.468-18.017-34.572-21.779-17.44-3.835-25.3-1.333-28.822 1.45a7.639 7.639 0 0 0-3.13 5.2 1.283 1.283 0 0 1-2.027 1.025c-17.658-12.631-21.9-31.1-22.339-44.353-.515-15.453 4.109-29 7.648-31.907 6.394-5.252 35.927-5.856 39.824-5.912a90.183 90.183 0 0 1 23.571-.851c16.466 1.736 27.008 8.84 30.479 20.553a1.682 1.682 0 0 0 .056.179c5.347-10.067 10.453-16.1 18.952-17.283a30.76 30.76 0 0 1 23.806 7.43c11.875 10.15 18.151 29.181 18.649 56.57a1.278 1.278 0 0 1-1.786 1.2c-9.641-4.137-16.9-4.171-22.837-.112-5.414 3.7-9.277 10.425-13.37 17.546-6.472 11.27-13.812 24.047-29.315 27.35a1.458 1.458 0 0 1-.269.028zm-54.716-42.64a76.855 76.855 0 0 1 16.2 2.032c22.675 4.988 32.293 15.391 36.375 23.24a30.567 30.567 0 0 1 3.544 14.428c13.252-3.583 19.713-14.825 25.967-25.715 4.238-7.385 8.241-14.355 14.148-18.386 6.338-4.333 13.834-4.625 23.464-.879-.739-25.569-6.69-43.3-17.7-52.712A28.144 28.144 0 0 0 198.4 163.6c-8.163 1.137-12.961 7.743-18.5 18.773a1.275 1.275 0 0 1-1.271.7 1.288 1.288 0 0 1-1.114-.929q-.462-1.638-.941-3.258c-3.2-10.789-12.715-17.087-28.285-18.728a88.709 88.709 0 0 0-22.932.84 1.014 1.014 0 0 1-.224.022c-9.008.123-33.458 1.327-38.34 5.336-2.547 2.094-7.222 14.518-6.713 29.836.409 12.278 4.2 29.209 19.7 41.184a10.846 10.846 0 0 1 3.65-4.972c3.359-2.648 8.3-3.975 14.769-3.975z" transform="translate(-34.101 -69.188)" style="fill:#272727"/>
            <path data-name="Path 4481" d="M258.6 189.234c1.277 4.35 2.419 8.723 3.639 13.045.61 2.161 1.237 4.317 1.926 6.433a63.851 63.851 0 0 0 2.29 6.2 23.213 23.213 0 0 0 1.472 2.827 8.649 8.649 0 0 0 1.859 2.211 2.594 2.594 0 0 0 2.1.621 3.7 3.7 0 0 0 1.165-.414l.3-.174.3-.2a4.97 4.97 0 0 0 .5-.4 5.362 5.362 0 0 0 .868-1.047 8.882 8.882 0 0 0 .7-1.293 17.275 17.275 0 0 0 .974-2.973 45.407 45.407 0 0 0 .985-6.489c.392-4.429.47-8.936.717-13.465.118-2.267.269-4.541.538-6.825a31.779 31.779 0 0 1 1.456-6.858 11.042 11.042 0 0 1 1.808-3.27 6.405 6.405 0 0 1 1.523-1.316 5.7 5.7 0 0 1 .929-.453l.493-.157c.157-.039.3-.067.454-.1a12.43 12.43 0 0 1 7.15.633 19.463 19.463 0 0 1 5.9 3.729 26.466 26.466 0 0 1 4.462 5.2.143.143 0 0 1-.23.168 31.372 31.372 0 0 0-4.91-4.541 19.808 19.808 0 0 0-5.744-3.051 12.642 12.642 0 0 0-3.1-.56 10.066 10.066 0 0 0-3.068.325c-.123.034-.252.062-.37.1-.1.039-.207.078-.308.112a3.549 3.549 0 0 0-.577.308 4.4 4.4 0 0 0-1 .918 8.982 8.982 0 0 0-1.355 2.676 29.939 29.939 0 0 0-1.221 6.388c-.218 2.2-.325 4.434-.4 6.679-.151 4.49-.179 9.014-.532 13.583a47.456 47.456 0 0 1-.969 6.892 18.923 18.923 0 0 1-1.114 3.454 11.161 11.161 0 0 1-.9 1.685 8.136 8.136 0 0 1-1.288 1.551 7.085 7.085 0 0 1-.812.661l-.409.269-.437.252a6.482 6.482 0 0 1-2.01.711 5.018 5.018 0 0 1-2.284-.134 5.91 5.91 0 0 1-1.937-1.013 11.161 11.161 0 0 1-2.508-2.917 26.79 26.79 0 0 1-1.668-3.163 93.1 93.1 0 0 1-4.322-13.039l-3.477-13.079a1.285 1.285 0 0 1 2.475-.694z" transform="translate(-112.717 -76.969)" style="fill:#272727"/>
            <path data-name="Path 4482" d="M76.165 189.789a2.526 2.526 0 0 1-1.2 2.156c-3.908 2.424-16.539 9.938-24.982 11.388a42.046 42.046 0 0 1-16.326-.717 2.533 2.533 0 0 1-1.6-3.762c3.286-5.476 12.9-17.255 36.689-22.49l4.244-1.086a2.539 2.539 0 0 1 3.169 2.458v12.043z" transform="translate(-13.951 -77.109)" style="stroke-miterlimit:10;stroke:#000;fill:#e5e5e5"/>
            <path data-name="Path 4483" d="M27.94 192.26a16.729 16.729 0 0 0 .5-8.2C26.947 175.959 23.144 159 17.374 159c-3.943 0-6.649 3.508-8.337 6.872-1.34 2.675-1.391 8.246-.1 11.1 4.293 9.443 13.945 27.871 19 15.292z" transform="translate(-3.521 -69.98)" style="stroke-miterlimit:10;stroke:#000;fill:#e5e5e5"/>
            <path data-name="Path 4484" d="M173.715 200.43a19.132 19.132 0 0 0 1.668 1.148c1.243.761 16.393 5.593 16.415 5.14 0 0 1-21.118-22.031-31.034-2.139-.918-7.066-3.264-8.941-.666-1.517 2.105.56 6.125 1.444 8.062 2.788 6.108 5.884 13.079 11.444 17.345z" transform="translate(-70.547 -76.508)" style="stroke-miterlimit:10;stroke:#000;fill:#e5e5e5"/>
            <path data-name="Path 4485" d="m144.952 290.189-27.91-.6c-7.262 1.193-7.385-5.061-7.385-5.061.442-14.417-1.444-24.562-3.432-31.1-1.988-6.506-4.07-9.439-4.07-9.439h-3.5S96 248.58 92.85 254.7c-4.149 8.085-9.171 18.834-10.095 25.2-1.629 11.175-10.514 11.472-10.514 11.472H48.2L54.974 273l2.1-5.7.392-1.069a2.23 2.23 0 0 0 .286-.235c4.037-3.914 20.239-42.573 20.239-42.573 1.562-4.636 2.245-11.214 2.491-17.821a223.613 223.613 0 0 0-.739-25.088l-2.374-9.54h35.171a74.742 74.742 0 0 1 6.131 15.346c2.76 9.54 4.261 38.15 4.261 38.15l22.025 65.712z" transform="translate(-21.214 -75.248)" style="stroke-miterlimit:10;stroke:#000;fill:#e5e5e5"/>
            <path data-name="Path 4486" d="M199.885 368.9a1.282 1.282 0 0 1-1.232 1.321h-34.622a1.27 1.27 0 0 1-1.221-1.31v-.011c0-8.835 8.3-16.007 18.543-16.007s18.537 7.166 18.537 16.007z" transform="translate(-71.657 -155.316)" style="stroke-miterlimit:10;stroke:#000;fill:#e5e5e5"/>
            <path data-name="Path 4487" d="m101.78 157.07 3.9 17.334s27.652.2 28.145-7.178-32.045-10.156-32.045-10.156z" transform="translate(-44.796 -69.131)" style="fill:#9abfeb"/>
            <path data-name="Path 4488" d="M106.086 152.99 96 156.237s-5.162.974 6.718 10.873 3.365-14.12 3.365-14.12z" transform="translate(-41.762 -67.335)" style="fill:#c4143e"/>
            <path data-name="Path 4489" d="M94.066 169.141a15.607 15.607 0 0 1 3.186.4 17.932 17.932 0 0 1 3.079.991 13.736 13.736 0 0 1 2.844 1.663c.218.174.448.336.649.526l.616.577c.056.05.09.09.129.123l.118.112a2.7 2.7 0 0 0 .241.2 3.6 3.6 0 0 0 .515.325 2.668 2.668 0 0 0 1.1.286 1.5 1.5 0 0 0 .465-.067 1.363 1.363 0 0 0 .207-.09l.1-.056a.614.614 0 0 0 .062-.05 1.811 1.811 0 0 0 .476-.868 3.356 3.356 0 0 0 .112-1.215 4.2 4.2 0 0 0-.941-2.329 6.128 6.128 0 0 0-2.139-1.624h-.011a.837.837 0 0 1 .666-1.534 7.253 7.253 0 0 1 2.883 1.988 5.863 5.863 0 0 1 .969 1.556 5.5 5.5 0 0 1 .442 1.8 5.794 5.794 0 0 1 0 .935 4.629 4.629 0 0 1-.174.941 3.554 3.554 0 0 1-1.092 1.78c-.078.062-.168.123-.252.185s-.157.1-.241.14a2.913 2.913 0 0 1-.515.207 3.086 3.086 0 0 1-1.075.134 3.986 3.986 0 0 1-.991-.174 4.719 4.719 0 0 1-.89-.364 4.842 4.842 0 0 1-.789-.526c-.123-.1-.235-.2-.347-.308l-.162-.162-.146-.151-.5-.515c-.162-.174-.358-.319-.537-.481a13.568 13.568 0 0 0-2.435-1.646 20.22 20.22 0 0 0-2.755-1.209 22.543 22.543 0 0 0-2.933-.822h-.017a.342.342 0 0 1-.263-.4.335.335 0 0 1 .336-.269z" transform="translate(-41.247 -73.263)" style="fill:#272727"/>
            <path data-name="Path 4490" d="m155.751 161.959-5.212 9.227s-1.993 4.86-9.294-8.773 14.506-.454 14.506-.454z" transform="translate(-61.507 -68.763)" style="fill:#c4143e"/>
            <path data-name="Path 4491" d="M149 177.25c-.067 0-.129 0-.2-.006-1.646-.106-3.029-1.573-3.522-3.74-.733-3.208-4.361-4.731-4.4-4.748a.834.834 0 0 1 .627-1.545c.185.073 4.468 1.853 5.4 5.923.325 1.428 1.114 2.385 2 2.441.8.056 1.534-.655 1.988-1.887 1.848-5.016 5.011-5.285 5.145-5.291a.842.842 0 0 1 .89.778.833.833 0 0 1-.778.885c-.078.006-2.251.28-3.7 4.2-.694 1.881-1.976 2.984-3.466 2.984z" transform="translate(-61.781 -73.567)" style="fill:#272727"/>
            <path data-name="Path 4492" d="M154.738 175.957c.461-.074.745-.693.634-1.383s-.574-1.189-1.036-1.115-.745.693-.634 1.383.576 1.19 1.036 1.115z" transform="translate(-67.638 -76.341)" style="fill:#272727"/>
            <path data-name="Path 4493" d="M115.264 177.125a1.157 1.157 0 1 0-1.284-.555 1.009 1.009 0 0 0 1.284.555z" transform="translate(-50.086 -77.065)" style="fill:#272727"/>
            <path data-name="Path 4494" d="M214.763 74.926a42.8 42.8 0 0 1 1.77 14.474c-.448 9.759-4 18.392-9.283 24.248a14.817 14.817 0 0 0 2.055-.011c9.473-.745 16.432-10.453 15.553-21.689-.593-7.592-4.625-13.935-10.1-17.026z" transform="translate(-91.216 -32.974)" style="fill:#01a4e9;stroke-miterlimit:10;stroke:#000"/>
            <path data-name="Path 4495" d="M131.466 23.953a4.668 4.668 0 0 0 2.172-2.827c1.176-3.734-1.092-6.293-4.02-7.821 3.8-.05 6.22-1.355 3.818-5.543-6.075-10.6-31.767-5.548-31.767-5.548-35.523 8.341-44.75 29.124-44.75 29.124a6.565 6.565 0 0 1 .6-.571 39.891 39.891 0 0 0-9.1 25.155c0 24.041 22.149 43.525 49.47 43.525s49.47-19.489 49.47-43.525c0-12.636-6.119-24.013-15.895-31.963z" transform="translate(-21.311 -.444)" style="stroke-miterlimit:10;stroke:#000;fill:#e5e5e5"/>
            <path data-name="Path 4496" d="M121.22 128.19s9.316 8.661 18.229-1.78" transform="translate(-53.352 -55.636)" style="stroke-linecap:round;fill:none;stroke-miterlimit:10;stroke:#000"/>
            <path data-name="Path 4497" d="M123.18 99.3s8.258-5.078 16.152 1.041" transform="translate(-54.215 -42.832)" style="stroke-linecap:round;fill:none;stroke-miterlimit:10;stroke:#000"/>
            <path data-name="Path 4498" d="M184.242 37.889s-7.849-5.392-15.912-5.212z" transform="translate(-74.087 -14.38)" style="fill:#e5e5e5"/>
            <path data-name="Path 4499" d="M184.242 37.889s-7.849-5.392-15.912-5.212" transform="translate(-74.087 -14.38)" style="stroke-linecap:round;fill:none;stroke-miterlimit:10;stroke:#000"/>
            <path data-name="Path 4500" d="M43.827 74.93a42.78 42.78 0 0 0-1.8 14.467c.426 9.759 3.953 18.4 9.221 24.271a14.822 14.822 0 0 1-2.055-.017c-9.467-.767-16.41-10.492-15.5-21.723C34.3 84.336 38.346 78 43.827 74.93z" transform="translate(-14.792 -32.979)" style="fill:#01a4e9;stroke-miterlimit:10;stroke:#000"/>
            <path data-name="Path 4501" d="M95.436 81.512c-1.215 4.479-4.149 8.353-7.306 11.657-4.025 4.216-8.745 8.46-15.021 7.446-8.265-1.339-14.429-10.94-14.429-18.874 0-10.75 8.4-19.461 18.773-19.461 5.464 0 10.985 3 14.652 6.926 3.6 3.852 4.468 8.1 3.326 12.306z" transform="translate(-25.827 -27.411)" style="opacity:.54;fill:#01a4e9;stroke-miterlimit:10;stroke:#000"/>
            <path data-name="Path 4502" d="M95.436 81.512c-1.215 4.479-4.149 8.353-7.306 11.657-4.025 4.216-8.745 8.46-15.021 7.446-8.265-1.339-14.429-10.94-14.429-18.874 0-10.75 8.4-19.461 18.773-19.461 5.464 0 10.985 3 14.652 6.926 3.6 3.852 4.468 8.1 3.326 12.306z" transform="translate(-25.827 -27.411)" style="fill:none;stroke-miterlimit:10;stroke:#000"/>
            <path data-name="Path 4503" d="M149.994 81.512c1.215 4.479 4.149 8.353 7.306 11.657 4.025 4.216 8.745 8.46 15.021 7.446 8.264-1.338 14.428-10.94 14.428-18.873 0-10.75-8.4-19.461-18.773-19.461-5.464 0-10.985 3-14.652 6.926-3.6 3.852-4.468 8.1-3.326 12.306z" transform="translate(-65.811 -27.411)" style="opacity:.54;fill:#01a4e9;stroke-miterlimit:10;stroke:#000"/>
            <path data-name="Path 4504" d="M149.994 81.512c1.215 4.479 4.149 8.353 7.306 11.657 4.025 4.216 8.745 8.46 15.021 7.446 8.264-1.338 14.428-10.94 14.428-18.873 0-10.75-8.4-19.461-18.773-19.461-5.464 0-10.985 3-14.652 6.926-3.6 3.852-4.468 8.1-3.326 12.306z" transform="translate(-65.811 -27.411)" style="fill:none;stroke-miterlimit:10;stroke:#000"/>
            <path data-name="Path 4505" d="M82.47 99.589a6.73 6.73 0 1 0-6.73-6.73 6.73 6.73 0 0 0 6.73 6.73z" transform="translate(-33.335 -37.908)" style="fill:#000c22"/>
            <path data-name="Path 4506" d="M80.07 93.449a2.99 2.99 0 1 0-2.99-2.99 2.99 2.99 0 0 0 2.99 2.99z" transform="translate(-33.925 -38.498)" style="fill:#fff"/>
            <path data-name="Path 4507" d="M179.38 99.589a6.73 6.73 0 1 0-6.73-6.73 6.73 6.73 0 0 0 6.73 6.73z" transform="translate(-75.988 -37.908)" style="fill:#000c22"/>
            <path data-name="Path 4508" d="M176.98 93.449a2.99 2.99 0 1 0-2.99-2.99 2.99 2.99 0 0 0 2.99 2.99z" transform="translate(-76.578 -38.498)" style="fill:#fff"/>
            <path data-name="Path 4509" d="M192.3 253.128s-9.014-10.985-7.01-28c1.478-12.547 11.3-9.316 16.354-6.752a6.724 6.724 0 0 1 3.6 4.888c1.036 6.17 2.643 20.01-1.786 28.6a6.752 6.752 0 0 1-11.164 1.271z" transform="translate(-81.423 -95.067)" style="stroke-miterlimit:10;stroke:#000;fill:#e5e5e5"/>
            <path data-name="Path 4510" d="M117.05 243.462s-22.339 3.824-28.94 8.768c-6.467 4.865-25.11 27.523-22.412 43a22.368 22.368 0 0 0-3.706-.314c-.426 0-.851.017-1.271.045l-1.058-.246-.823-.179s1.125-2.06 2.923-5.6c.213-.425.442-.862.677-1.327 4.037-3.975 20.239-43.239 20.239-43.239 1.562-4.714 2.245-11.393 2.491-18.106a81.867 81.867 0 0 0 1.13-8.674l1.814 29.623s20.911-6.8 28.94-3.757z" transform="translate(-25.897 -95.767)" style="fill:#9abfeb"/>
            <path data-name="Path 4511" d="M68.42 371.711a1.282 1.282 0 0 1-1.232 1.321H32.561a1.269 1.269 0 0 1-1.221-1.3v-.017a14.622 14.622 0 0 1 .1-1.652c.84-7.049 6.976-12.743 14.932-14.047a18.484 18.484 0 0 1 2.245-.258c.426-.034.851-.045 1.271-.045a22.317 22.317 0 0 1 3.706.314c8.465 1.484 14.825 7.945 14.825 15.693z" transform="translate(-13.794 -156.557)" style="stroke-miterlimit:10;stroke:#000;fill:#e5e5e5"/>
            <path data-name="Path 4512" d="M189.16 163h10.7" transform="translate(-83.254 -71.741)" style="stroke-linecap:round;fill:none;stroke-miterlimit:10;stroke:#000"/>
            <path data-name="Path 4513" d="m107.245 207.574-.8-12.754a40.8 40.8 0 0 1 .8 12.754z" transform="translate(-46.851 -85.745)" style="fill:#9abfeb"/>
            <path data-name="Path 4514" d="M41.985 373.016h-9.6a6.466 6.466 0 0 1-.873-2.435c.84-6.523 6.976-11.8 14.932-13-2.643 3.4-9.428 12.972-4.457 15.436z" transform="translate(-13.868 -157.38)" style="fill:#9abfeb"/>
            <path data-name="Path 4515" d="m127.707 295.98 4.149 2.441s-3.494 6.769-7.015 12.687l2.872-15.128z" transform="translate(-54.945 -130.269)" style="fill:#9abfeb"/>
            <path data-name="Path 4516" d="m149.722 296.106.885 16.544-1.976-4.932c-1.988-6.506-4.07-9.439-4.07-9.439l5.162-2.178z" transform="translate(-63.625 -130.321)" style="fill:#9abfeb"/>
            <path data-name="Path 4517" d="M73.765 73.653c.05-1.775 5.705-3.578 6.248-2.71.5.806-2.766 4.826-5.005 4.1-.577-.19-1.265-.756-1.249-1.388z" transform="translate(-32.464 -31.125)" style="fill:#fff"/>
            <path data-name="Path 4518" d="M162.7 73.653c.05-1.775 5.705-3.578 6.248-2.71.5.806-2.766 4.826-5.005 4.1-.577-.19-1.265-.756-1.249-1.388z" transform="translate(-71.604 -31.125)" style="fill:#fff"/>
            <path data-name="Path 4519" d="M134.426 205.943a7.726 7.726 0 1 0-7.726-7.726 7.726 7.726 0 0 0 7.726 7.726z" transform="translate(-55.764 -83.84)" style="fill:#f5ae09;stroke-miterlimit:10;stroke:#000"/>
            <path data-name="Path 4520" d="M4 159.7a8.561 8.561 0 0 0 5.876 8.41 7.767 7.767 0 0 0 2.43.487l9.66.43a8.2 8.2 0 0 0 6.871-3.192 13.253 13.253 0 0 0 2.852-11.154c-1.354-5.954-13.24-4.969-20.438-3.792a8.762 8.762 0 0 0-7.246 8.811z" transform="translate(-1.761 -66.019)" style="stroke-miterlimit:10;stroke:#000;fill:#e5e5e5"/>
            <path data-name="Path 4521" d="M5 160.13c.052 3.046 1.327 6.264 5.759 7.915a7.88 7.88 0 0 0 2.381.458l9.466.4a8.169 8.169 0 0 0 6.734-3 12.124 12.124 0 0 0 2.8-10.5c-1.327-5.6-12.975-4.677-20.029-3.569a8.342 8.342 0 0 0-7.1 8.293z" transform="translate(-2.201 -66.459)" style="fill:#e5e5e5"/>
            <path data-name="Path 4522" d="M193 282.992a5.287 5.287 0 0 0 3.643 5.194 4.808 4.808 0 0 0 1.507.3l5.989.266a5.092 5.092 0 0 0 4.26-1.971 8.164 8.164 0 0 0 1.769-6.89c-.84-3.677-8.209-3.069-12.672-2.342a5.417 5.417 0 0 0-4.496 5.443z" transform="translate(-84.944 -121.915)" style="stroke-miterlimit:10;stroke:#000;fill:#e5e5e5"/>
            <rect data-name="Rectangle 5115" width="4.759" height="9.798" rx="2.379" transform="rotate(-8.067 565.25 20.518)" style="stroke:#000;fill:#e5e5e5"/>
            <rect data-name="Rectangle 5116" width="4.759" height="12.037" rx="2.379" transform="translate(9.378 74.883)" style="stroke:#000;fill:#e5e5e5"/>
            <rect data-name="Rectangle 5117" width="4.759" height="15.397" rx="2.379" transform="translate(14.977 72.084)" style="stroke:#000;fill:#e5e5e5"/>
            <rect data-name="Rectangle 5118" width="4.759" height="13.157" rx="2.379" transform="translate(20.575 74.323)" style="stroke:#000;fill:#e5e5e5"/>
            <rect data-name="Rectangle 5119" width="4.759" height="7.99" rx="2.379" transform="rotate(46.3 -80.212 77.94)" style="stroke:#000;fill:#e5e5e5"/>
            <path data-name="Path 4523" d="m42.574 201.914-.488.279a1.972 1.972 0 0 1-1.545.177 1.972 1.972 0 0 0-2.482 1.42l-1.921 7.861a2.2 2.2 0 0 0 2.135 2.719 3.8 3.8 0 0 0 2.809-1.243l5.558-6.114a3.3 3.3 0 0 0-4.065-5.1z" transform="translate(-15.877 -88.678)" style="fill:#e5e5e5"/>
            <path data-name="Path 4524" d="m187.9 219.219-1.4-1.96.56-4.759 11.2.56 3.359 2.8.56 1.96-10.358 2.24z" transform="translate(-82.084 -93.527)" style="fill:#e5e5e5"/>
        </g>
        <g data-name="communication (1)">
            <g data-name="Group 8108">
                <path data-name="Path 4377" d="M1.191 26.489A1.192 1.192 0 0 1 0 25.3V6.334A6.342 6.342 0 0 1 6.334 0h18.428A6.341 6.341 0 0 1 31.1 6.334v9.035a6.342 6.342 0 0 1-6.338 6.331H6.47l-4.436 4.44a1.191 1.191 0 0 1-.843.349z" transform="rotate(-25.97 72.636 5.354)" style="fill:#4ab8f7"/>
            </g>
            <path data-name="Path 4378" d="M9.214 0H0v21.7h9.214a6.342 6.342 0 0 0 6.334-6.334V6.334A6.341 6.341 0 0 0 9.214 0z" transform="rotate(-25.97 64.86 -28.351)" style="fill:#4a7aff"/>
            <path data-name="Path 4379" d="M24.762 0H6.334A6.342 6.342 0 0 0 0 6.335v9.035a6.341 6.341 0 0 0 6.334 6.33h18.291l4.436 4.437A1.191 1.191 0 0 0 31.1 25.3V6.334A6.341 6.341 0 0 0 24.762 0z" transform="rotate(-25.97 47.101 -10.608)" style="fill:#f2f6fc"/>
            <path data-name="Path 4380" d="M9.214 0H0v21.7h9.078l4.437 4.437a1.191 1.191 0 0 0 2.034-.842V6.334A6.341 6.341 0 0 0 9.214 0z" transform="rotate(-25.97 39.325 -44.313)" style="fill:#e9edf5"/>
            <g data-name="Group 8110">
                <g data-name="Group 8109">
                    <path data-name="Path 4381" d="M1.192 2.383a1.2 1.2 0 0 0 1.192-1.192A1.212 1.212 0 0 0 1.192 0 1.2 1.2 0 0 0 0 1.191a1.212 1.212 0 0 0 1.192 1.192z" style="fill:#636978" transform="rotate(-25.97 64.26 -30.953)"/>
                </g>
            </g>
            <g data-name="Group 8112">
                <g data-name="Group 8111">
                    <path data-name="Path 4382" d="M1.192 2.383a1.2 1.2 0 0 0 1.192-1.192A1.212 1.212 0 0 0 1.192 0 1.2 1.2 0 0 0 0 1.191a1.212 1.212 0 0 0 1.192 1.192z" style="fill:#636978" transform="rotate(-25.97 60.67 -46.516)"/>
                </g>
            </g>
            <g data-name="Group 8114">
                <g data-name="Group 8113">
                    <path data-name="Path 4383" d="M1.192 2.383a1.2 1.2 0 0 0 1.192-1.192A1.212 1.212 0 0 0 1.192 0 1.2 1.2 0 0 0 0 1.191a1.212 1.212 0 0 0 1.192 1.192z" style="fill:#414952" transform="rotate(-25.97 57.08 -62.076)"/>
                </g>
            </g>
            <path data-name="Path 4384" d="M1.191 1.191A1.212 1.212 0 0 0 0 0v2.383a1.2 1.2 0 0 0 1.191-1.192z" transform="rotate(-25.97 60.074 -49.1)" style="fill:#414952"/>
        </g>
        <g data-name="communication (1)">
            <g data-name="Group 8108">
                <path data-name="Path 4377" d="M1.191 26.489A1.192 1.192 0 0 1 0 25.3V6.334A6.341 6.341 0 0 1 6.334 0h18.428A6.342 6.342 0 0 1 31.1 6.334v9.035a6.341 6.341 0 0 1-6.338 6.331H6.47l-4.436 4.44a1.191 1.191 0 0 1-.843.349z" transform="rotate(37 9.636 263.453)" style="fill:#4ab8f7"/>
            </g>
            <path data-name="Path 4378" d="M9.214 0H0v21.7h9.214a6.341 6.341 0 0 0 6.334-6.334V6.334A6.342 6.342 0 0 0 9.214 0z" transform="rotate(37 1.862 286.69)" style="fill:#4a7aff"/>
            <path data-name="Path 4379" d="M24.762 0H6.334A6.341 6.341 0 0 0 0 6.334v9.035A6.342 6.342 0 0 0 6.334 21.7h18.292l4.437 4.437A1.191 1.191 0 0 0 31.1 25.3V6.335A6.341 6.341 0 0 0 24.762 0z" transform="rotate(37 19.154 282.542)" style="fill:#f2f6fc"/>
            <path data-name="Path 4380" d="M9.214 0H0v21.7h9.078l4.437 4.437a1.191 1.191 0 0 0 2.034-.842V6.334A6.341 6.341 0 0 0 9.214 0z" transform="rotate(37 11.38 305.78)" style="fill:#e9edf5"/>
            <g data-name="Group 8110">
                <g data-name="Group 8109">
                    <path data-name="Path 4381" d="M1.192 2.383a1.2 1.2 0 0 0 1.192-1.192A1.212 1.212 0 0 0 1.192 0 1.2 1.2 0 0 0 0 1.191a1.212 1.212 0 0 0 1.192 1.192z" transform="rotate(37 1.262 288.483)" style="fill:#636978"/>
                </g>
            </g>
            <g data-name="Group 8112">
                <g data-name="Group 8111">
                    <path data-name="Path 4382" d="M1.192 2.383a1.2 1.2 0 0 0 1.192-1.192A1.212 1.212 0 0 0 1.192 0 1.2 1.2 0 0 0 0 1.191a1.212 1.212 0 0 0 1.192 1.192z" transform="rotate(37 -2.328 299.212)" style="fill:#636978"/>
                </g>
            </g>
            <g data-name="Group 8114">
                <g data-name="Group 8113">
                    <path data-name="Path 4383" d="M1.192 2.383a1.2 1.2 0 0 0 1.192-1.192A1.212 1.212 0 0 0 1.192 0 1.2 1.2 0 0 0 0 1.191a1.212 1.212 0 0 0 1.192 1.192z" transform="rotate(37 -5.917 309.94)" style="fill:#414952"/>
                </g>
            </g>
            <path data-name="Path 4384" d="M1.191 1.191A1.212 1.212 0 0 0 0 0v2.383a1.2 1.2 0 0 0 1.191-1.192z" transform="rotate(37 -2.924 300.994)" style="fill:#414952"/>
        </g>
        <g data-name="communication (1)">
            <g data-name="Group 8108">
                <path data-name="Path 4377" d="M.578 12.85A.578.578 0 0 1 0 12.272v-9.2A3.076 3.076 0 0 1 3.073 0h8.939a3.076 3.076 0 0 1 3.073 3.073v4.383a3.076 3.076 0 0 1-3.073 3.073H3.139L.987 12.681a.578.578 0 0 1-.409.169z" transform="rotate(30 60.886 239.919)" style="fill:#4ab8f7"/>
            </g>
            <path data-name="Path 4378" d="M4.47 0H0v10.529h4.47a3.076 3.076 0 0 0 3.073-3.073V3.073A3.076 3.076 0 0 0 4.47 0z" transform="rotate(30 57.115 253.994)" style="fill:#4a7aff"/>
            <path data-name="Path 4379" d="M12.012 0H3.073A3.076 3.076 0 0 0 0 3.073v4.383a3.076 3.076 0 0 0 3.073 3.073h8.873l2.154 2.152a.578.578 0 0 0 .987-.409v-9.2A3.076 3.076 0 0 0 12.012 0z" transform="rotate(30 67.229 250.904)" style="fill:#f2f6fc"/>
            <path data-name="Path 4380" d="M4.47 0H0v10.529h4.4l2.152 2.152a.578.578 0 0 0 .987-.409v-9.2A3.076 3.076 0 0 0 4.47 0z" transform="rotate(30 63.457 264.98)" style="fill:#e9edf5"/>
            <g data-name="Group 8110">
                <g data-name="Group 8109">
                    <path data-name="Path 4381" d="M.578 1.156a.584.584 0 0 0 .578-.578A.588.588 0 0 0 .578 0 .584.584 0 0 0 0 .578a.588.588 0 0 0 .578.578z" transform="rotate(30 56.824 255.08)" style="fill:#636978"/>
                </g>
            </g>
            <g data-name="Group 8112">
                <g data-name="Group 8111">
                    <path data-name="Path 4382" d="M.578 1.156a.584.584 0 0 0 .578-.578A.588.588 0 0 0 .578 0 .584.584 0 0 0 0 .578a.588.588 0 0 0 .578.578z" style="fill:#636978" transform="rotate(30 55.083 261.578)"/>
                </g>
            </g>
            <g data-name="Group 8114">
                <g data-name="Group 8113">
                    <path data-name="Path 4383" d="M.578 1.156a.584.584 0 0 0 .578-.578A.588.588 0 0 0 .578 0 .584.584 0 0 0 0 .578a.588.588 0 0 0 .578.578z" style="fill:#414952" transform="rotate(30 53.342 268.075)"/>
                </g>
            </g>
            <path data-name="Path 4384" d="M.578.578A.588.588 0 0 0 0 0v1.156A.584.584 0 0 0 .578.578z" transform="rotate(30 54.793 262.658)" style="fill:#414952"/>
        </g>
        <g data-name="communication (1)">
            <g data-name="Group 8108">
                <path data-name="Path 4377" d="M.429 9.54A.429.429 0 0 1 0 9.111v-6.83A2.284 2.284 0 0 1 2.281 0h6.637A2.284 2.284 0 0 1 11.2 2.281v3.254a2.284 2.284 0 0 1-2.282 2.281H2.33l-1.6 1.6a.429.429 0 0 1-.3.126z" transform="rotate(-53.98 105.169 52.617)" style="fill:#4ab8f7"/>
            </g>
            <path data-name="Path 4378" d="M3.318 0H0v7.816h3.318A2.284 2.284 0 0 0 5.6 5.535V2.281A2.284 2.284 0 0 0 3.318 0z" transform="rotate(-53.98 102.368 47.12)" style="fill:#4a7aff"/>
            <path data-name="Path 4379" d="M8.918 0H2.281A2.284 2.284 0 0 0 0 2.281v3.254a2.284 2.284 0 0 0 2.281 2.281h6.588l1.6 1.6a.429.429 0 0 0 .732-.3V2.281A2.284 2.284 0 0 0 8.918 0z" transform="rotate(-53.98 100.062 50.957)" style="fill:#f2f6fc"/>
            <path data-name="Path 4380" d="M3.318 0H0v7.816h3.269l1.6 1.6a.429.429 0 0 0 .733-.3V2.281A2.284 2.284 0 0 0 3.318 0z" transform="rotate(-53.98 97.26 45.46)" style="fill:#e9edf5"/>
            <g data-name="Group 8110">
                <g data-name="Group 8109">
                    <path data-name="Path 4381" d="M.429.858a.434.434 0 0 0 .43-.429A.437.437 0 0 0 .429 0 .434.434 0 0 0 0 .429a.437.437 0 0 0 .429.429z" style="fill:#636978" transform="rotate(-53.98 102.152 46.696)"/>
                </g>
            </g>
            <g data-name="Group 8112">
                <g data-name="Group 8111">
                    <path data-name="Path 4382" d="M.429.858a.434.434 0 0 0 .43-.429A.437.437 0 0 0 .429 0 .434.434 0 0 0 0 .429a.437.437 0 0 0 .429.429z" style="fill:#636978" transform="rotate(-53.98 100.86 44.159)"/>
                </g>
            </g>
            <g data-name="Group 8114">
                <g data-name="Group 8113">
                    <path data-name="Path 4383" d="M.429.858a.434.434 0 0 0 .43-.429A.436.436 0 0 0 .429 0 .434.434 0 0 0 0 .429a.437.437 0 0 0 .429.429z" style="fill:#414952" transform="rotate(-53.98 99.566 41.622)"/>
                </g>
            </g>
            <path data-name="Path 4384" d="M.429.429A.437.437 0 0 0 0 0v.858A.434.434 0 0 0 .429.429z" transform="rotate(-53.98 100.644 43.737)" style="fill:#414952"/>
        </g>
    </g>
</svg>
