<svg xmlns="http://www.w3.org/2000/svg" width="30.367" height="30" viewBox="0 0 30.367 30"><defs><style>.a{fill:#9b9b9b;}</style></defs><g transform="translate(0 -0.107)"><path class="a" d="M156.8,10.071v2.6a1.982,1.982,0,0,0-1.5,1.949v.8l-2.049,2.049a1.438,1.438,0,0,0-.45,1.049v3.3a1.685,1.685,0,0,0,.25.849l1.749,2.6v.85h-1v4h1v-1h3.5v-1h-3.5v-1h6.5v3h1v-4h-1v-.8l.55-.55a1.438,1.438,0,0,0,.45-1.049v-1.4l.7-.7a1.468,1.468,0,0,0,.1-2l-3.8-4.7v-.3a2.025,2.025,0,0,0-1.5-1.949v-2.6a4.976,4.976,0,0,0,4.447-5.446A5.058,5.058,0,0,0,156.8.128a4.967,4.967,0,0,0-4.447,5.5A4.908,4.908,0,0,0,156.8,10.071Zm5.5,10.842-.5.5-.749-.749,1-.749.25.3A.483.483,0,0,1,162.3,20.913Zm-2.748-1.749,1.2-.9.7.85-1.1.8Zm.55-1.649-.8.6v-1.6Zm-1.8-2.9v4.7l3,3v1.4a.454.454,0,0,1-.15.35l-.85.849v1.2h-4.5V24.96l-1.9-2.848a.711.711,0,0,1-.1-.3v-3.3a.454.454,0,0,1,.15-.35l1.349-1.349v1.9a.454.454,0,0,1-.15.35l-.7.7.7.7.7-.7a1.438,1.438,0,0,0,.45-1.049v-4.1a1,1,0,0,1,2,0Zm-1-13.491a4,4,0,1,1-4,4A4.009,4.009,0,0,1,157.3,1.127Zm0,0" transform="translate(-142.81 0)"/><path class="a" d="M381.4,94.533l.7-.7-1.149-1.149,1.149-1.149-.7-.7-1.149,1.149L379.1,90.836l-.7.7,1.149,1.149L378.4,93.834l.7.7,1.149-1.149Zm0,0" transform="translate(-354.765 -85.062)"/><path class="a" d="M264,448.438h1v1h-1Zm0,0" transform="translate(-247.511 -420.329)"/><path class="a" d="M349.5,69.419v-.8a1.455,1.455,0,0,0-1-1.4V64.572a3.979,3.979,0,1,0-1,0V67.22a1.455,1.455,0,0,0-1,1.4v.749l-1.949,1.649a1.327,1.327,0,0,0-.55,1.1v2.3a1.857,1.857,0,0,0,.35,1l1.649,1.9v.8h-1v5h1v-2h4v-1h-4v-1h5v4h1v-5h-1v-.749l.85-.55a1.563,1.563,0,0,0,.649-1.249v-.9l.3-.849a1.476,1.476,0,0,0-.35-1.549Zm2.348,4.147-.1.3-.949-.65.35-.749.55.55A.564.564,0,0,1,351.845,73.566ZM350.4,71.717l-.45.9-.45-.25V70.818ZM345,60.625a3,3,0,1,1,3,3A3.007,3.007,0,0,1,345,60.625Zm6.5,14.94a.617.617,0,0,1-.2.4l-1.3.9v1.249h-3v-1.2l-1.9-2.148a.422.422,0,0,1-.1-.35v-2.3a.455.455,0,0,1,.2-.4l1.3-1.1v1.549a.454.454,0,0,1-.15.35l-.7.7.7.7.7-.7a1.438,1.438,0,0,0,.45-1.049V68.62a.5.5,0,1,1,1,0v4.247l3,2Zm0,0" transform="translate(-322.515 -53.003)"/><path class="a" d="M191.6,43.535l-.7-.7-3.148,3.148-.649-.649-.7.7,1.349,1.349Zm0,0" transform="translate(-174.757 -40.06)"/><path class="a" d="M37.4,94.533l.7-.7-1.149-1.149L38.1,91.535l-.7-.7-1.149,1.149L35.1,90.836l-.7.7,1.149,1.149L34.4,93.834l.7.7,1.149-1.149Zm0,0" transform="translate(-32.25 -85.062)"/><path class="a" d="M2,77.328v.8H1v5H2v-2H6v-1H2v-1H7v4h1v-5H7v-.749l.85-.55a1.563,1.563,0,0,0,.649-1.249v-.9l.3-.849a1.476,1.476,0,0,0-.35-1.549L5.5,69.433v-.8a1.455,1.455,0,0,0-1-1.4V64.586a3.979,3.979,0,0,0-1-7.895A3.925,3.925,0,0,0,.05,61.139,3.977,3.977,0,0,0,3.5,64.586v2.648a1.455,1.455,0,0,0-1,1.4v.749L.55,71.032a1.327,1.327,0,0,0-.55,1.1v2.3a1.857,1.857,0,0,0,.35,1ZM7.845,73.58l-.1.3L6.8,73.23l.35-.749.55.55A.564.564,0,0,1,7.845,73.58ZM6.4,71.731l-.45.9-.45-.25V70.832ZM1,60.639a3,3,0,1,1,3,3A3.007,3.007,0,0,1,1,60.639ZM1,72.131a.455.455,0,0,1,.2-.4l1.3-1.049v1.549a.454.454,0,0,1-.15.35l-.7.7.7.7.7-.7a1.438,1.438,0,0,0,.45-1.049v-3.6a.472.472,0,0,1,.5-.5.472.472,0,0,1,.5.5v4.247l3,2v.7a.617.617,0,0,1-.2.4l-1.3.9v1.249H3v-1.2L1.1,74.779a.722.722,0,0,1-.1-.35Zm0,0" transform="translate(0 -53.017)"/></g></svg>