<svg xmlns="http://www.w3.org/2000/svg" width="15.234" height="20" viewBox="0 0 15.234 20"><defs><style>.a{fill:#959ea7;}</style></defs><path class="a" d="M62.758,20H74.477a1.76,1.76,0,0,0,1.758-1.758V5.859h-4.1A1.76,1.76,0,0,1,70.375,4.1V0H62.758A1.76,1.76,0,0,0,61,1.758V18.242A1.76,1.76,0,0,0,62.758,20ZM65.1,8.242h7.031a.586.586,0,0,1,0,1.172H65.1a.586.586,0,1,1,0-1.172Zm0,3.035h7.031a.586.586,0,0,1,0,1.172H65.1a.586.586,0,1,1,0-1.172Zm0,3.17h4.688a.586.586,0,1,1,0,1.172H65.1a.586.586,0,1,1,0-1.172Z" transform="translate(-61)"/><path class="a" d="M331.443,12.073h2.841L331,8.789V11.63A.443.443,0,0,0,331.443,12.073Z" transform="translate(-319.309 -8.529)"/></svg>