<svg xmlns="http://www.w3.org/2000/svg" width="41.319" height="30" viewBox="0 0 41.319 30">
    <g data-name="Group 4712">
        <path data-name="Path 1955" d="m14.1 9.09 10.625 2.11a1.781 1.781 0 0 1 1.435 1.76v12.3a1.806 1.806 0 0 1-1.809 1.809H13.5a.6.6 0 0 0 .6-.6v-.6h10.251a.6.6 0 0 0 .6-.6V12.96a.606.606 0 0 0-.47-.591L14.1 10.32z" transform="translate(15.159 1.509)" style="fill:#9b9b9b"/>
        <path data-name="Path 1956" d="M20.014 14a.6.6 0 0 1 0 1.206H17.6a.6.6 0 1 1 0-1.206z" transform="translate(15.879 2.576)" style="fill:#9b9b9b"/>
        <path data-name="Path 1957" d="M20.014 17a.6.6 0 0 1 0 1.206H17.6a.6.6 0 1 1 0-1.206z" transform="translate(15.879 3.174)" style="fill:#9b9b9b"/>
        <path data-name="Path 1958" d="M20.014 20a.6.6 0 0 1 0 1.206H17.6a.6.6 0 1 1 0-1.206z" transform="translate(15.879 3.754)" style="fill:#9b9b9b"/>
        <path data-name="Path 1959" d="M14.206 26.483a.6.6 0 1 1-1.206 0V9.6a.641.641 0 0 1 .217-.47.634.634 0 0 1 .506-.121l.482.1v17.374z" transform="translate(15.056 1.491)" style="fill:#9b9b9b"/>
        <path data-name="Path 1960" d="M13.72 23v.6a.6.6 0 0 0 .6.6H9.5a.6.6 0 0 0 .6-.6V23z" transform="translate(14.336 4.371)" style="fill:#9b9b9b"/>
        <path data-name="Path 1961" d="M11.014 5a.6.6 0 0 1 0 1.206H8.6A.6.6 0 0 1 8.6 5z" transform="translate(14.028 .781)" style="fill:#9b9b9b"/>
        <path data-name="Path 1962" d="M11.617 8.6a.6.6 0 0 1-.6.6H8.6a.6.6 0 0 1 0-1.2h2.411a.6.6 0 0 1 .606.6z" transform="translate(14.028 1.379)" style="fill:#9b9b9b"/>
        <path data-name="Path 1963" d="M11.014 11a.6.6 0 0 1 0 1.206H8.6A.6.6 0 0 1 8.6 11z" transform="translate(14.028 1.977)" style="fill:#9b9b9b"/>
        <path data-name="Path 1964" d="M11.014 14a.6.6 0 1 1 0 1.206H8.6A.6.6 0 1 1 8.6 14z" transform="translate(14.028 2.576)" style="fill:#9b9b9b"/>
        <path data-name="Path 1965" d="M6.617 14.6a.6.6 0 0 1-.6.6H3.6a.6.6 0 1 1 0-1.2h2.414a.6.6 0 0 1 .603.6z" transform="translate(12.999 2.576)" style="fill:#9b9b9b"/>
        <path data-name="Path 1966" d="M6.014 5a.6.6 0 1 1 0 1.206H3.6A.6.6 0 0 1 3.6 5z" transform="translate(12.999 .781)" style="fill:#9b9b9b"/>
        <path data-name="Path 1967" d="M6.014 8a.6.6 0 1 1 0 1.206H3.6A.6.6 0 1 1 3.6 8z" transform="translate(12.999 1.379)" style="fill:#9b9b9b"/>
        <path data-name="Path 1968" d="M6.014 11a.6.6 0 1 1 0 1.206H3.6A.6.6 0 0 1 3.6 11z" transform="translate(12.999 1.977)" style="fill:#9b9b9b"/>
        <path data-name="Path 1969" d="M10.029 18.809a.6.6 0 0 0-.6-.6h-3.62a.6.6 0 0 0-.6.6v5.426H4v-5.426A1.806 1.806 0 0 1 5.809 17h3.617a1.806 1.806 0 0 1 1.809 1.809v5.426h-1.206z" transform="translate(13.205 3.137)" style="fill:#9b9b9b"/>
        <path data-name="Path 1970" d="M5.206 23h6.029v.6a.6.6 0 0 1-.6.6H4.6a.6.6 0 0 1-.6-.6V23z" transform="translate(13.205 4.371)" style="fill:#9b9b9b"/>
        <path data-name="Path 1971" d="m2.11.2 13.251 2a1.8 1.8 0 0 1 1.519 1.783v6.886l-.482-.1a.593.593 0 0 0-.723.588V3.983a.607.607 0 0 0-.506-.6L1.917 1.392a.335.335 0 0 0-.109-.012.57.57 0 0 0-.386.144.573.573 0 0 0-.217.456v24.978a.6.6 0 0 0 .6.6h3.018v.6a.6.6 0 0 0 .6.6H1.809A1.8 1.8 0 0 1 0 26.958V1.979A1.763 1.763 0 0 1 .639.612 1.816 1.816 0 0 1 2.11.2z" transform="translate(12.382 -.181)" style="fill:#9b9b9b"/>
        <path data-name="Path 1972" d="M8.784-.429C14.112-.429 17.569 3 17.569 9c2.584 2.739 1.031 17.134 1.031 17.134a37.637 37.637 0 0 1-8.957 1.542C4.319 27.677 0 21.5 0 13.881S3.457-.429 8.784-.429z" transform="translate(.522 2.323)" style="fill:#fff"/>
        <path d="M90.343 22.279v2.479a.422.422 0 0 1-.844 0v-2.479a3.5 3.5 0 0 0-3.512-3.492 2.594 2.594 0 0 1-2.229-1.245.418.418 0 0 1 .141-.577.423.423 0 0 1 .58.14 1.755 1.755 0 0 0 1.508.842 4.341 4.341 0 0 1 4.356 4.332zm-7.043-3.25-1.5 1.159-2.559-1.97a2.567 2.567 0 0 0 .967-1.812 5.649 5.649 0 0 0 7.236-5.385v-2.97a.421.421 0 0 0-.421-.393 1.745 1.745 0 0 1-1.1-.2 1.905 1.905 0 0 1-.8-1.526.422.422 0 0 0-.666-.345 13.644 13.644 0 0 1-5.984 2.361.42.42 0 0 0 .058.835 13.951 13.951 0 0 0 2.99-.728 14.5 14.5 0 0 0 2.863-1.407A2.38 2.38 0 0 0 86.6 8.509v2.512a4.8 4.8 0 0 1-9.6 0V8.078a.422.422 0 0 0-.844 0v2.944a5.617 5.617 0 0 0 3.218 5.067v.111a1.754 1.754 0 0 1-1.763 1.749 4.375 4.375 0 0 0-1.557.285l-.272-.216a5.106 5.106 0 0 1-1.08-6.855 5.774 5.774 0 0 0 .981-3.224V5.665A4.845 4.845 0 0 1 80.531.839h2.532a4.845 4.845 0 0 1 4.853 4.826v2.273a5.744 5.744 0 0 0 .976 3.217 5.1 5.1 0 0 1-.041 5.76.418.418 0 0 0 .108.584.424.424 0 0 0 .587-.107 5.937 5.937 0 0 0 .048-6.7 4.911 4.911 0 0 1-.834-2.751V5.665A5.687 5.687 0 0 0 83.063 0h-2.532a5.688 5.688 0 0 0-5.7 5.665v2.273a4.94 4.94 0 0 1-.84 2.759 5.94 5.94 0 0 0 1.23 7.955 4.313 4.313 0 0 0-1.973 3.627v2.479a.422.422 0 0 0 .844 0v-2.479a3.5 3.5 0 0 1 3.512-3.492 2.63 2.63 0 0 0 .821-.131l3.11 2.395a.424.424 0 0 0 .517 0l1.763-1.357a.418.418 0 0 0 .075-.589.424.424 0 0 0-.592-.075z" transform="translate(-72.987 3.617)" style="fill:#9b9b9b"/>
    </g>
</svg>
