<svg xmlns="http://www.w3.org/2000/svg" width="23.845" height="29.994" viewBox="0 0 23.845 29.994"><defs><style>.a{fill:#9b9b9b;}</style></defs><g transform="translate(15.782 14.703)"><path class="a" d="M127.835,4.054h-1.125V.9h.537V0h-4.36V.9h.537V4.054H122.3a1.266,1.266,0,0,0-1.264,1.264V13.39a1.266,1.266,0,0,0,1.264,1.264h.528v.637h.9v-.637h2.688v.637h.9v-.637h.528A1.266,1.266,0,0,0,129.1,13.39V5.318a1.266,1.266,0,0,0-1.264-1.264ZM124.322.9h1.493V4.054h-1.493ZM128.2,13.39a.369.369,0,0,1-.368.368H122.3a.369.369,0,0,1-.368-.368V5.318a.369.369,0,0,1,.368-.368h5.534a.369.369,0,0,1,.368.368V13.39Z" transform="translate(-121.037)"/><path class="a" d="M241.044,204.419h.9v6.5h-.9Z" transform="translate(-237.461 -198.315)"/><path class="a" d="M181.04,204.419h.9v6.5h-.9Z" transform="translate(-179.248 -198.315)"/><path class="a" d="M301.048,204.419h.9v6.5h-.9Z" transform="translate(-295.673 -198.315)"/></g><path class="a" d="M114.387,133.153l-4.027-3.824a3.129,3.129,0,0,0-2.542-1.309h-4.925a3.149,3.149,0,0,0-2.572,1.353l-3.966,6.732a2,2,0,0,0,.732,2.949,2.024,2.024,0,0,0,2.567-.7L100.9,136.1l-1.157,6.176a.624.624,0,0,0,.614.741h1.875v5.624a1.867,1.867,0,0,0,3.124,1.387,1.867,1.867,0,0,0,3.124-1.387v-5.624h1.875a.621.621,0,0,0,.616-.739l-1.16-6.185-.5-2.261,1.781,1.583a2,2,0,0,0,3.578-.664A1.962,1.962,0,0,0,114.387,133.153Zm-9.657,15.488a.625.625,0,0,1-1.25,0v-5.624h1.25Zm2.5,0a.625.625,0,1,1-1.25,0v-5.624h1.25v5.624Zm6.228-14.193a.738.738,0,0,1-.392.49.747.747,0,0,1-.914-.184l-3.124-2.663a.625.625,0,0,0-1.161.417l1.736,9.258h-8.492l1.733-9.257a.625.625,0,0,0-1.161-.417L98.593,137.7a.754.754,0,0,1-.949.24.736.736,0,0,1-.392-.49.785.785,0,0,1,.147-.662l3.965-6.732a1.883,1.883,0,0,1,1.526-.785h4.925a1.866,1.866,0,0,1,1.5.739l4.027,3.824A.741.741,0,0,1,113.457,134.448Z" transform="translate(-95.982 -120.521)"/><path class="a" d="M205.758,6.249a3.124,3.124,0,1,0-3.124-3.124A3.129,3.129,0,0,0,205.758,6.249Zm0-5a1.875,1.875,0,1,1-1.875,1.875A1.877,1.877,0,0,1,205.758,1.25Z" transform="translate(-196.386)"/></svg>