<svg xmlns="http://www.w3.org/2000/svg" width="33.2" height="43.319" viewBox="0 0 33.2 43.319">
    <path data-name="Path 3878" d="M2.632 43.333a1.08 1.08 0 0 1-.49-1.043c.015-.76 0-1.522.005-2.283 0-.649.118-.814.718-1.041V25.334a3.171 3.171 0 0 0-.329-.038H.929c-.69-.014-.937-.262-.937-.957v-9.765a4.64 4.64 0 0 1 .055-.8 4.36 4.36 0 0 1 4.385-3.648c.422-.009.845 0 1.327 0 0-.344.017-.664-.009-.979a.491.491 0 0 0-.205-.281 2.883 2.883 0 0 1-1.224-2.429c0-1.142-.008-2.284 0-3.426a2.9 2.9 0 0 1 3-2.989c.435-.005.873-.005 1.309 0a2.854 2.854 0 0 1 2.893 2.86 92.56 92.56 0 0 1 0 3.763 2.483 2.483 0 0 1-.995 2.017.988.988 0 0 0-.443 1.028c.017.122.014.248.023.433.437 0 .854-.005 1.271 0a4.356 4.356 0 0 1 4.4 3.517 5.733 5.733 0 0 1 .082 1.093q.01 4.738 0 9.474c0 .883-.206 1.085-1.109 1.085q-.825 0-1.649.01c-.026 0-.052.02-.106.042v13.628c.624.133.731.6.712 1.175a33.723 33.723 0 0 0 0 2.157 1.046 1.046 0 0 1-.508 1.032zM4.344 17.37v6.452h7.163v-6.454l-.658-.03v-1.43H14.4c0-.577.027-1.109 0-1.638a2.745 2.745 0 0 0-2.622-2.655 221.668 221.668 0 0 0-7.736 0 2.6 2.6 0 0 0-2.194 1.38 5.361 5.361 0 0 0-.4 2.924h3.56v1.413zm.013 7.938v13.679h2.86v-9.341h1.446v9.341H11.5V25.308zm4.992-21.5a2.336 2.336 0 0 1-1.718.543c-.613-.019-1.228 0-1.862 0 0 .8-.028 1.547.007 2.289A1.406 1.406 0 0 0 7.17 7.957c.505.024 1.015.025 1.52 0a1.413 1.413 0 0 0 1.389-1.415q.024-1.034 0-2.068a.569.569 0 0 0-.207-.352 3.629 3.629 0 0 0-.524-.316zM1.47 17.377v6.447h1.386v-6.447zm12.92 6.454v-6.454h-1.377v6.455zM7.184 40.483H3.617v1.385h3.567zm5.07 0H8.673v1.373h3.581zM5.78 2.9c.728 0 1.431.01 2.134 0a.707.707 0 0 0 .723-.677.716.716 0 0 0-.7-.748 5.335 5.335 0 0 0-.76 0A1.423 1.423 0 0 0 5.78 2.9zm2.842 7.2v-.661h-1.4v.661z" transform="translate(.008 -.017)" style="fill:#9b9b9b"/>
    <path data-name="Path 3879" d="M218.157 210.166v-1.441h-.549a2.193 2.193 0 0 1-2.319-2.346c-.007-1.917 0-3.834 0-5.752 0-3.172.04-6.344-.015-9.515a2.316 2.316 0 0 1 2.585-2.6c.083.008.166 0 .293 0 .009-.153.023-.287.023-.421 0-.789-.014-1.579.005-2.368a2.161 2.161 0 0 1 2.228-2.261 66.249 66.249 0 0 1 3.51 0 2.148 2.148 0 0 1 2.2 2.282c.007.873 0 1.748.005 2.622a1.142 1.142 0 0 0 .033.146h.64A2.13 2.13 0 0 1 229 190.7q.021 7.909 0 15.817a2.139 2.139 0 0 1-2.228 2.208h-.657v1.441h-1.44v-1.41H219.6v1.412zm9.4-11.592v-7.652c0-.723-.24-.971-.957-.971h-8.878c-.738 0-.995.253-.995.995v15.346c0 .738.256.995.995.995h8.836c.77 0 1-.235 1-1.015q0-3.85-.005-7.7zm-2.89-10.078c0-.982.013-1.923-.005-2.864-.008-.463-.3-.723-.807-.732q-1.709-.023-3.419 0a.741.741 0 0 0-.814.819c-.018.436 0 .873 0 1.308v1.473z" transform="translate(-195.807 -166.85)" style="fill:#9b9b9b"/>
</svg>
