<svg xmlns="http://www.w3.org/2000/svg" width="24" height="30" viewBox="0 0 24 30"><defs><style>.a{fill:#9b9b9b;}</style></defs><g transform="translate(-51.828)"><g transform="translate(51.828)"><g transform="translate(0)"><path class="a" d="M75.362,18.743a.465.465,0,0,0,.466-.464V16.792a2.556,2.556,0,0,0-1.372-2.261V2.006a.465.465,0,0,0-.466-.464H72.822V.464A.465.465,0,0,0,72.357,0H57.439a.464.464,0,1,0,0,.928H71.891V14.237h-7.96a1.622,1.622,0,0,1-1.518-1.032L62,12.157a2.548,2.548,0,0,0-2.385-1.621H54.647V.928h1.24a.464.464,0,1,0,0-.928H54.181a.465.465,0,0,0-.466.464V10.627a2.56,2.56,0,0,0-1.888,2.464V27.639A2.367,2.367,0,0,0,54.2,30H73.46a2.367,2.367,0,0,0,2.368-2.361V19.827a.466.466,0,0,0-.931,0v7.813a1.436,1.436,0,0,1-1.436,1.432H54.2a1.436,1.436,0,0,1-1.436-1.432V13.091a1.631,1.631,0,0,1,1.631-1.626h5.224A1.622,1.622,0,0,1,61.133,12.5l.413,1.049a2.548,2.548,0,0,0,2.385,1.621h9.334A1.631,1.631,0,0,1,74.9,16.792v1.488A.465.465,0,0,0,75.362,18.743ZM73.525,14.25a2.586,2.586,0,0,0-.26-.013h-.443V2.47h.7Z" transform="translate(-51.828)"/></g></g><g transform="translate(56.319 2.551)"><g transform="translate(0)"><path class="a" d="M132.184,47.883a2.488,2.488,0,1,0-2.894,0,2.486,2.486,0,0,0-1.041,2.022.466.466,0,0,0,.932,0,1.556,1.556,0,0,1,3.111,0,.466.466,0,1,0,.932,0A2.485,2.485,0,0,0,132.184,47.883Zm-1.447-.466a1.556,1.556,0,1,1,1.556-1.556A1.557,1.557,0,0,1,130.737,47.416Z" transform="translate(-128.249 -43.373)"/></g></g><g transform="translate(68.489 3.129)"><g transform="translate(0)"><path class="a" d="M336.783,53.194h-.99a.466.466,0,0,0,0,.932h.99a.466.466,0,0,0,0-.932Z" transform="translate(-335.327 -53.194)"/></g></g><g transform="translate(63.013 3.129)"><g transform="translate(0)"><path class="a" d="M246.557,53.194H242.63a.466.466,0,0,0,0,.932h3.926a.466.466,0,0,0,0-.932Z" transform="translate(-242.164 -53.194)"/></g></g><g transform="translate(63.011 12.207)"><g transform="translate(0)"><path class="a" d="M249.1,208.351H242.63a.466.466,0,1,0,0,.932H249.1a.466.466,0,1,0,0-.932Z" transform="translate(-242.164 -208.351)"/></g></g><g transform="translate(66.16 9.934)"><path class="a" d="M299.5,169.562h-3.32a.466.466,0,0,0,0,.932h3.32a.466.466,0,0,0,0-.932Z" transform="translate(-295.713 -169.562)"/></g><g transform="translate(63.014 9.934)"><g transform="translate(0)"><path class="a" d="M244.226,169.562h-1.6a.466.466,0,1,0,0,.932h1.6a.466.466,0,0,0,0-.932Z" transform="translate(-242.164 -169.562)"/></g></g><g transform="translate(63.011 5.389)"><g transform="translate(0)"><path class="a" d="M249.1,91.982H242.63a.466.466,0,0,0,0,.932H249.1a.466.466,0,0,0,0-.932Z" transform="translate(-242.164 -91.982)"/></g></g><g transform="translate(63.011 7.662)"><g transform="translate(0)"><path class="a" d="M249.1,130.773H242.63a.466.466,0,1,0,0,.932H249.1a.466.466,0,1,0,0-.932Z" transform="translate(-242.164 -130.773)"/></g></g></g></svg>