<svg xmlns="http://www.w3.org/2000/svg" width="15.187" height="18" viewBox="0 0 15.187 18"><defs><style>.a{fill:#c5c5c5;}</style></defs><g transform="translate(-36.884)"><g transform="translate(36.884)"><path class="a" d="M52.059,244.7c-.461-3.119-1.575-6.2-4.023-7.7a5.769,5.769,0,0,1-7.116,0c-2.444,1.491-3.558,4.576-4.023,7.7a1.111,1.111,0,0,0,1.1,1.266H50.957A1.111,1.111,0,0,0,52.059,244.7Z" transform="translate(-36.884 -227.962)"/><g transform="translate(3.093)"><path class="a" d="M122.5,0A4.5,4.5,0,1,0,127,4.5,4.5,4.5,0,0,0,122.5,0Zm0,3.032A1.465,1.465,0,0,0,121.036,4.5a.671.671,0,0,1-1.342,0A2.809,2.809,0,0,1,122.5,1.689a.671.671,0,1,1,0,1.342Z" transform="translate(-118)"/></g></g></g></svg>