<svg xmlns="http://www.w3.org/2000/svg" width="23.638" height="30.02" viewBox="0 0 23.638 30.02"><defs><style>.a{fill:#9b9b9b;}</style></defs><g transform="translate(-54)"><path class="a" d="M59.909,29.429a.591.591,0,1,1-.591-.591A.592.592,0,0,1,59.909,29.429ZM77.638.591V24.938a.59.59,0,0,1-.172.418l-4.491,4.491a.591.591,0,0,1-.418.173H61.978a.591.591,0,0,1,0-1.182h9.987v-3.9a.591.591,0,0,1,.591-.591h3.9V1.182H55.182V28.838h1.477a.591.591,0,1,1,0,1.182H54.591A.591.591,0,0,1,54,29.429V.591A.591.591,0,0,1,54.591,0H77.047A.591.591,0,0,1,77.638.591ZM75.62,25.529H73.147V28Zm-6.847-15.6H64.046a.591.591,0,0,0,0,1.182h4.728a.591.591,0,1,0,0-1.182Zm-4.728,3.546h3.546a.591.591,0,1,0,0-1.182H64.046a.591.591,0,0,0,0,1.182Zm0,4.728H66.41a.591.591,0,0,0,0-1.182H64.046a.591.591,0,0,0,0,1.182Zm5.319,1.773a.591.591,0,0,0-.591-.591H64.046a.591.591,0,0,0,0,1.182h4.728A.591.591,0,0,0,69.365,19.974ZM57.846,10.323a1.773,1.773,0,1,1,2.945,0,2.956,2.956,0,0,1,1.482,2.56.591.591,0,0,1-.591.591H56.955a.591.591,0,0,1-.591-.591A2.956,2.956,0,0,1,57.846,10.323Zm.882-.986a.591.591,0,1,0,.591-.591A.592.592,0,0,0,58.728,9.337Zm-1.081,2.955H60.99a1.773,1.773,0,0,0-3.343,0Zm-1.283,7.682a2.956,2.956,0,0,1,1.482-2.56,1.773,1.773,0,1,1,2.945,0,2.956,2.956,0,0,1,1.482,2.56.591.591,0,0,1-.591.591H56.955A.591.591,0,0,1,56.364,19.974Zm2.364-3.546a.591.591,0,1,0,.591-.591A.592.592,0,0,0,58.728,16.428Zm-1.081,2.955H60.99a1.773,1.773,0,0,0-3.343,0Zm-1.283,7.682a2.956,2.956,0,0,1,1.482-2.56,1.773,1.773,0,1,1,2.945,0,2.956,2.956,0,0,1,1.482,2.56.591.591,0,0,1-.591.591H56.955A.591.591,0,0,1,56.364,27.065Zm2.364-3.546a.591.591,0,1,0,.591-.591A.592.592,0,0,0,58.728,23.52Zm-1.081,2.955H60.99a1.773,1.773,0,0,0-3.343,0Zm6.4,0a.591.591,0,0,0,0,1.182H66.41a.591.591,0,0,0,0-1.182ZM68.183,24.7a.591.591,0,0,0-.591-.591H64.046a.591.591,0,0,0,0,1.182h3.546A.591.591,0,0,0,68.183,24.7ZM71.728,2.955V5.319a.591.591,0,0,1-.591.591H60.5a.591.591,0,0,1-.591-.591V2.955a.591.591,0,0,1,.591-.591H71.137A.591.591,0,0,1,71.728,2.955Zm-1.182.591H61.091V4.728h9.455Zm3.719,12.74-1.808,1.808-.9-.9a.591.591,0,0,0-.836.836l1.319,1.319a.593.593,0,0,0,.836,0L75.1,17.121a.591.591,0,1,0-.836-.836ZM75.1,9.194a.591.591,0,0,0-.836,0L72.457,11l-.9-.9a.591.591,0,0,0-.836.836l1.319,1.319a.593.593,0,0,0,.836,0L75.1,10.03A.591.591,0,0,0,75.1,9.194Z"/></g></svg>