<svg xmlns="http://www.w3.org/2000/svg" width="30" height="30" viewBox="0 0 30 30"><defs><style>.a{fill:#9b9b9b;}</style></defs><g transform="translate(12.5)"><path class="a" d="M12.5,5A2.5,2.5,0,1,1,15,2.5,2.507,2.507,0,0,1,12.5,5Zm0-3.75A1.181,1.181,0,0,0,11.25,2.5,1.181,1.181,0,0,0,12.5,3.75,1.181,1.181,0,0,0,13.75,2.5,1.181,1.181,0,0,0,12.5,1.25Z" transform="translate(-10)"/></g><g transform="translate(14.375 3.75)"><path class="a" d="M12.125,8a.59.59,0,0,1-.625-.625V3.625a.625.625,0,0,1,1.25,0v3.75A.59.59,0,0,1,12.125,8Z" transform="translate(-11.5 -3)"/></g><g transform="translate(21.375 3.625)"><path class="a" d="M19.6,7.9a2.468,2.468,0,0,1-1.75-.75,2.417,2.417,0,0,1,0-3.5,2.417,2.417,0,0,1,3.5,0,2.417,2.417,0,0,1,0,3.5A2.468,2.468,0,0,1,19.6,7.9Zm0-3.75a1.135,1.135,0,0,0-.875.375,1.237,1.237,0,1,0,1.75,0A1.35,1.35,0,0,0,19.6,4.15Z" transform="translate(-17.1 -2.9)"/></g><g transform="translate(19.188 6.938)"><path class="a" d="M16.038,9.363a.752.752,0,0,1-.5-.125.6.6,0,0,1,0-.875l2.625-2.625a.619.619,0,0,1,.875.875L16.413,9.238A.459.459,0,0,1,16.038,9.363Z" transform="translate(-15.35 -5.55)"/></g><g transform="translate(25 12.5)"><path class="a" d="M22.5,15A2.5,2.5,0,1,1,25,12.5,2.507,2.507,0,0,1,22.5,15Zm0-3.75a1.181,1.181,0,0,0-1.25,1.25,1.25,1.25,0,0,0,2.5,0A1.181,1.181,0,0,0,22.5,11.25Z" transform="translate(-20 -10)"/></g><g transform="translate(21.25 14.375)"><path class="a" d="M21.375,12.75h-3.75a.625.625,0,0,1,0-1.25h3.75a.625.625,0,0,1,0,1.25Z" transform="translate(-17 -11.5)"/></g><g transform="translate(21.375 21.375)"><path class="a" d="M19.6,22.1a2.468,2.468,0,0,1-1.75-.75,2.475,2.475,0,1,1,3.5,0A2.468,2.468,0,0,1,19.6,22.1Zm-.875-1.625a1.237,1.237,0,1,0,0-1.75A1.208,1.208,0,0,0,18.725,20.475Z" transform="translate(-17.1 -17.1)"/></g><g transform="translate(19.188 19.313)"><path class="a" d="M18.663,19.263a.752.752,0,0,1-.5-.125l-2.625-2.625a.619.619,0,0,1,.875-.875l2.625,2.625a.6.6,0,0,1,0,.875c0,.125-.25.125-.375.125Z" transform="translate(-15.35 -15.45)"/></g><g transform="translate(12.5 25)"><path class="a" d="M12.5,25A2.5,2.5,0,1,1,15,22.5,2.507,2.507,0,0,1,12.5,25Zm0-3.75a1.25,1.25,0,0,0,0,2.5,1.25,1.25,0,0,0,0-2.5Z" transform="translate(-10 -20)"/></g><g transform="translate(14.375 21.25)"><path class="a" d="M12.125,22a.59.59,0,0,1-.625-.625v-3.75a.625.625,0,0,1,1.25,0v3.75A.59.59,0,0,1,12.125,22Z" transform="translate(-11.5 -17)"/></g><g transform="translate(3.625 21.375)"><path class="a" d="M5.4,22.1a2.468,2.468,0,0,1-1.75-.75,2.417,2.417,0,0,1,0-3.5,2.417,2.417,0,0,1,3.5,0,2.417,2.417,0,0,1,0,3.5A2.27,2.27,0,0,1,5.4,22.1Zm-.875-3.375a1.237,1.237,0,0,0,1.75,1.75,1.237,1.237,0,0,0-1.75-1.75Z" transform="translate(-2.9 -17.1)"/></g><g transform="translate(6.813 19.312)"><path class="a" d="M6.137,19.263a.752.752,0,0,1-.5-.125.6.6,0,0,1,0-.875l2.625-2.625a.619.619,0,0,1,.875.875L6.512,19.138A.459.459,0,0,1,6.137,19.263Z" transform="translate(-5.45 -15.45)"/></g><g transform="translate(0 12.5)"><path class="a" d="M2.5,15A2.5,2.5,0,1,1,5,12.5,2.507,2.507,0,0,1,2.5,15Zm0-3.75A1.181,1.181,0,0,0,1.25,12.5,1.181,1.181,0,0,0,2.5,13.75,1.181,1.181,0,0,0,3.75,12.5,1.181,1.181,0,0,0,2.5,11.25Z" transform="translate(0 -10)"/></g><g transform="translate(3.75 14.375)"><path class="a" d="M7.375,12.75H3.625a.625.625,0,0,1,0-1.25h3.75a.625.625,0,0,1,0,1.25Z" transform="translate(-3 -11.5)"/></g><g transform="translate(3.625 3.625)"><path class="a" d="M5.4,7.9a2.468,2.468,0,0,1-1.75-.75,2.417,2.417,0,0,1,0-3.5,2.417,2.417,0,0,1,3.5,0,2.417,2.417,0,0,1,0,3.5A2.27,2.27,0,0,1,5.4,7.9Zm0-3.75a1.35,1.35,0,0,0-.875.375,1.237,1.237,0,0,0,1.75,1.75,1.208,1.208,0,0,0,0-1.75A1.135,1.135,0,0,0,5.4,4.15Z" transform="translate(-2.9 -2.9)"/></g><g transform="translate(6.813 6.813)"><path class="a" d="M8.762,9.387a.752.752,0,0,1-.5-.125L5.638,6.512a.619.619,0,0,1,.875-.875L9.137,8.262a.6.6,0,0,1,0,.875c0,.25-.25.25-.375.25Z" transform="translate(-5.45 -5.45)"/></g><g transform="translate(13.125 10)"><path class="a" d="M12.375,11.75A1.875,1.875,0,1,1,14.25,9.875,1.922,1.922,0,0,1,12.375,11.75Zm0-2.5A.625.625,0,1,0,13,9.875.59.59,0,0,0,12.375,9.25Z" transform="translate(-10.5 -8)"/></g><g transform="translate(11.25 15)"><path class="a" d="M15.875,15.75a.59.59,0,0,1-.625-.625V14.5A1.181,1.181,0,0,0,14,13.25H11.5a1.181,1.181,0,0,0-1.25,1.25v.625a.625.625,0,0,1-1.25,0V14.5A2.507,2.507,0,0,1,11.5,12H14a2.507,2.507,0,0,1,2.5,2.5v.625A.59.59,0,0,1,15.875,15.75Z" transform="translate(-9 -12)"/></g></svg>