<svg xmlns="http://www.w3.org/2000/svg" width="27" height="27" viewBox="0 0 27 27"><defs><style>.a{fill:#1ab99f;}</style></defs><path class="a" d="M13.5,0A13.5,13.5,0,1,0,27,13.5,13.5,13.5,0,0,0,13.5,0Zm0,25.313A11.813,11.813,0,1,1,25.313,13.5,11.812,11.812,0,0,1,13.5,25.313Z"/><g transform="translate(7.83 7.83)"><g transform="translate(0 0)"><circle class="a" cx="1.5" cy="1.5" r="1.5" transform="translate(0 0.17)"/></g></g><g transform="translate(15.661 7.83)"><g transform="translate(0 0)"><circle class="a" cx="1.5" cy="1.5" r="1.5" transform="translate(1 0.17)"/></g></g><g transform="translate(5.766 13.402)"><path class="a" d="M125.749,256a6.015,6.015,0,1,1-12.031,0H112a7.734,7.734,0,1,0,15.468,0Z" transform="translate(-112 -256)"/></g></svg>