<svg xmlns="http://www.w3.org/2000/svg" width="242.094" height="249.796" viewBox="0 0 242.094 249.796">
    <defs>
        <clipPath id="prq3he48na">
            <path data-name="Rectangle 5121" transform="translate(0 -.09)" style="fill:#fff" d="M0 0h134.465v191.192H0z"/>
        </clipPath>
    </defs>
    <g data-name="Group 8626">
        <path data-name="Path 4450" d="M43.434 0H10.057A10.057 10.057 0 0 0 0 10.057v21.891A10.057 10.057 0 0 0 10.057 42h4.79a.413.413 0 0 1 .413.413v10.8a1.409 1.409 0 0 0 2.436.966l11.33-12.047a.412.412 0 0 1 .3-.13h14.108A10.057 10.057 0 0 0 53.49 31.948V10.057A10.057 10.057 0 0 0 43.434 0z" transform="rotate(29 94.57 365.677)" style="fill:#ec5569"/>
        <path data-name="Path 4451" d="M19.49 36.933a.418.418 0 0 0-.4-.434h-4.636c-5.377 0-9.736-4.741-9.736-10.59V2.856A11.476 11.476 0 0 1 5.076 0 10.053 10.053 0 0 0 0 8.739V30.63a10.057 10.057 0 0 0 10.057 10.057h4.79a.413.413 0 0 1 .413.413v10.8a1.409 1.409 0 0 0 2.436.966l1.795-1.908V36.933z" transform="rotate(29 92.022 365.018)" style="fill:#e63950"/>
        <path data-name="Path 4452" d="M24.515 1.915a6.538 6.538 0 0 0-9.247 0l-1.442 1.442a.881.881 0 0 1-1.245 0l-1.419-1.419a6.538 6.538 0 0 0-9.247 0 6.538 6.538 0 0 0 0 9.247l10.667 10.666a.881.881 0 0 0 1.245 0l10.688-10.69a6.538 6.538 0 0 0 0-9.246z" transform="rotate(29 66.274 386.267)" style="fill:#ec5569"/>
        <path data-name="Path 4453" d="M24.515 1.915a6.538 6.538 0 0 0-9.247 0l-1.442 1.442a.881.881 0 0 1-1.245 0l-1.419-1.419a6.538 6.538 0 0 0-9.247 0 6.538 6.538 0 0 0 0 9.247l10.667 10.666a.881.881 0 0 0 1.245 0l10.688-10.69a6.538 6.538 0 0 0 0-9.246z" transform="rotate(29 66.274 386.267)" style="fill:#fff5f5"/>
        <path data-name="Path 4454" d="M5.335 11.16a6.538 6.538 0 0 1 0-9.247A6.505 6.505 0 0 1 8.248.227a6.534 6.534 0 0 0-6.333 1.686 6.538 6.538 0 0 0 0 9.247l10.667 10.667a.881.881 0 0 0 1.245 0l1.087-1.087z" transform="rotate(29 66.227 386.255)" style="fill:#dce6eb"/>
        <g data-name="love">
            <path data-name="Path 4450" d="M8.38 0h27.812a8.32 8.32 0 0 1 8.38 8.258v17.974a8.319 8.319 0 0 1-8.38 8.257H32.2a.341.341 0 0 0-.344.339v8.866a1.177 1.177 0 0 1-2.03.793l-9.44-9.887a.346.346 0 0 0-.251-.107H8.38A8.32 8.32 0 0 1 0 26.232V8.257A8.32 8.32 0 0 1 8.38 0z" transform="rotate(-24 159.779 33.962)" style="fill:#ec5569"/>
            <path data-name="Path 4451" d="M0 30.325a.343.343 0 0 1 .328-.357h3.808c4.415 0 7.994-3.893 7.994-8.7V2.345A9.422 9.422 0 0 0 11.835 0 8.255 8.255 0 0 1 16 7.175V25.15a8.258 8.258 0 0 1-8.257 8.257h-3.93a.339.339 0 0 0-.339.339v8.866a1.157 1.157 0 0 1-2 .793L0 41.838V30.325z" transform="rotate(-24 148.04 -33.782)" style="fill:#e63950"/>
            <path data-name="Path 4452" d="M1.572 1.572a5.369 5.369 0 0 1 7.592 0l1.184 1.184a.723.723 0 0 0 1.023 0l1.165-1.165a5.369 5.369 0 0 1 7.592 0 5.369 5.369 0 0 1 0 7.592l-8.758 8.758a.723.723 0 0 1-1.023 0L1.572 9.165a5.368 5.368 0 0 1 0-7.593z" transform="rotate(-24 175.57 2.489)" style="fill:#ec5569"/>
            <path data-name="Path 4453" d="M1.572 1.572a5.369 5.369 0 0 1 7.592 0l1.184 1.184a.723.723 0 0 0 1.023 0l1.165-1.165a5.369 5.369 0 0 1 7.592 0 5.369 5.369 0 0 1 0 7.592l-8.758 8.758a.723.723 0 0 1-1.023 0L1.572 9.165a5.368 5.368 0 0 1 0-7.593z" transform="rotate(-24 175.57 2.489)" style="fill:#fff5f5"/>
            <path data-name="Path 4454" d="M7.865 9.163a5.369 5.369 0 0 0 0-7.592A5.341 5.341 0 0 0 5.473.186a5.365 5.365 0 0 1 5.2 1.385 5.369 5.369 0 0 1 0 7.592l-8.758 8.758a.723.723 0 0 1-1.023 0L0 17.029z" transform="rotate(-24 170.841 -19.99)" style="fill:#dce6eb"/>
        </g>
        <g data-name="love">
            <path data-name="Path 4450" d="M4.864 0h16.144a4.829 4.829 0 0 1 4.864 4.793v10.434a4.829 4.829 0 0 1-4.864 4.793h-2.317a.2.2 0 0 0-.2.2v5.147a.683.683 0 0 1-1.178.46l-5.48-5.742a.2.2 0 0 0-.145-.062H4.864A4.829 4.829 0 0 1 0 15.227V4.793A4.829 4.829 0 0 1 4.864 0z" transform="rotate(-46 206.4 56.664)" style="fill:#ec5569"/>
            <path data-name="Path 4451" d="M0 17.6a.2.2 0 0 1 .19-.2H2.4a4.857 4.857 0 0 0 4.64-5.047V1.361A5.469 5.469 0 0 0 6.87 0a4.792 4.792 0 0 1 2.419 4.165V14.6A4.793 4.793 0 0 1 4.5 19.392H2.213a.2.2 0 0 0-.2.2v5.147a.672.672 0 0 1-1.161.46L0 24.286V17.6z" transform="rotate(-46 198.849 36.816)" style="fill:#e63950"/>
            <path data-name="Path 4452" d="M.913.913a3.116 3.116 0 0 1 4.407 0l.687.687a.42.42 0 0 0 .594 0l.676-.676a3.116 3.116 0 0 1 4.407 0 3.116 3.116 0 0 1 0 4.407L6.6 10.415a.42.42 0 0 1-.594 0L.913 5.32a3.116 3.116 0 0 1 0-4.407z" transform="rotate(-46 209.334 46.19)" style="fill:#ec5569"/>
            <path data-name="Path 4453" d="M.913.913a3.116 3.116 0 0 1 4.407 0l.687.687a.42.42 0 0 0 .594 0l.676-.676a3.116 3.116 0 0 1 4.407 0 3.116 3.116 0 0 1 0 4.407L6.6 10.415a.42.42 0 0 1-.594 0L.913 5.32a3.116 3.116 0 0 1 0-4.407z" transform="rotate(-46 209.334 46.19)" style="fill:#fff5f5"/>
            <path data-name="Path 4454" d="M4.566 5.319a3.116 3.116 0 0 0 0-4.407 3.1 3.1 0 0 0-1.388-.8 3.114 3.114 0 0 1 3.022.8 3.116 3.116 0 0 1 0 4.407L1.112 10.4a.42.42 0 0 1-.594 0L0 9.885z" transform="rotate(-46 206.576 39.653)" style="fill:#dce6eb"/>
        </g>
        <g>
            <g data-name="Group 8582">
                <path data-name="Path 4455" d="M15.156 12.521a.7.7 0 0 1 .195-.39l4.207-4.1a.682.682 0 0 0-.378-1.164l-5.814-.845a.682.682 0 0 1-.514-.373L10.252.38a.682.682 0 0 0-1.223 0l-2.6 5.269a.682.682 0 0 1-.514.373l-1.966.286L.584 6.9a.682.682 0 0 0-.377 1.161L4.3 12.076a.681.681 0 0 1 .2.606l-.96 5.107a.683.683 0 0 0 .99.72l4.8-2.287a.68.68 0 0 1 .635 0l4.856 2.647a.682.682 0 0 0 .99-.72l-.341-3.575-.315-1.838a.7.7 0 0 1 0-.215z" transform="rotate(-22 102.63 -290.352)" style="fill:#ffd064"/>
                <path data-name="Path 4456" d="m15.641 12.938-5.2-2.735a.68.68 0 0 0-.635 0l-5.2 2.735a.683.683 0 0 1-.99-.72l.994-5.79a.681.681 0 0 0-.2-.606L.207 1.723A.682.682 0 0 1 .584.559L4.433 0a11.658 11.658 0 0 0 11.155 8.273c.123 0 .245 0 .366-.006l.677 3.951a.682.682 0 0 1-.99.72z" transform="rotate(-22 119.095 -292.26)" style="fill:#ffc250"/>
            </g>
            <g data-name="Group 8583">
                <path data-name="Path 4457" d="M15.156 12.521a.7.7 0 0 1 .195-.39l4.207-4.1a.682.682 0 0 0-.378-1.164l-5.814-.845a.682.682 0 0 1-.514-.373L10.252.38a.682.682 0 0 0-1.223 0l-2.6 5.269a.682.682 0 0 1-.513.373l-1.966.286L.584 6.9a.682.682 0 0 0-.377 1.161L4.3 12.076a.681.681 0 0 1 .2.606l-.96 5.107a.683.683 0 0 0 .99.72l4.8-2.287a.68.68 0 0 1 .635 0l4.856 2.647a.682.682 0 0 0 .99-.72l-.34-3.575-.315-1.838a.712.712 0 0 1 0-.215z" transform="rotate(-22 133.597 -131.04)" style="fill:#ffd064"/>
                <path data-name="Path 4458" d="m15.641 12.938-5.2-2.735a.68.68 0 0 0-.635 0l-5.2 2.735a.683.683 0 0 1-.99-.72l.994-5.79a.681.681 0 0 0-.2-.606L.207 1.723A.682.682 0 0 1 .584.559L4.433 0a11.659 11.659 0 0 0 11.155 8.273c.123 0 .245 0 .366-.006l.677 3.951a.682.682 0 0 1-.99.72z" transform="rotate(-22 150.062 -132.95)" style="fill:#ffc250"/>
            </g>
            <path data-name="Path 4471" d="M22.677 19.494a1.068 1.068 0 0 1 .314-.661l6.531-6.366a1.059 1.059 0 0 0-.587-1.806L19.91 9.348a1.059 1.059 0 0 1-.8-.579L15.076.59a1.059 1.059 0 0 0-1.9 0L9.14 8.769a1.062 1.062 0 0 1-.8.579l-2.919.424-4.513 1.539a1.058 1.058 0 0 0-.587 1.805l6.2 5.831a1.061 1.061 0 0 1 .305.939l-2.078 8.028a1.06 1.06 0 0 0 1.537 1.117l7.341-4.563a1.052 1.052 0 0 1 .986 0l7.241 4.073a1.059 1.059 0 0 0 1.537-1.117l-.212-4.788-.491-2.86a1.055 1.055 0 0 1-.01-.282z" transform="rotate(-22 92.893 -193.84)" style="fill:#ffd064"/>
            <path data-name="Path 4472" d="m24.283 20.1-8.073-4.241a1.052 1.052 0 0 0-.986 0L7.152 20.1a1.06 1.06 0 0 1-1.537-1.117L7.157 10a1.061 1.061 0 0 0-.306-.939L.321 2.693A1.058 1.058 0 0 1 .908.887L7.015 0a16.267 16.267 0 0 0 15.926 12.966 16.2 16.2 0 0 0 1.828-.1l1.051 6.123a1.059 1.059 0 0 1-1.537 1.111z" transform="rotate(-22 118.828 -194.634)" style="fill:#ffc250"/>
        </g>
        <g data-name="rating">
            <g data-name="Group 8582">
                <path data-name="Path 4455" d="M11.021 9.105a.51.51 0 0 1 .141-.283l3.06-2.982a.5.5 0 0 0-.275-.846l-4.228-.615a.5.5 0 0 1-.374-.271L7.455.277a.5.5 0 0 0-.89 0l-1.89 3.831a.5.5 0 0 1-.374.271l-1.43.208-2.446.429a.5.5 0 0 0-.274.846l2.978 2.92a.5.5 0 0 1 .143.44l-.7 3.714a.5.5 0 0 0 .72.523L6.785 11.8a.494.494 0 0 1 .462 0l3.531 1.925a.5.5 0 0 0 .72-.523l-.248-2.6-.229-1.337a.51.51 0 0 1 0-.156z" transform="rotate(102 61.224 158.655)" style="fill:#ffd064"/>
                <path data-name="Path 4456" d="M11.374 9.409 7.593 7.42a.494.494 0 0 0-.462 0L3.349 9.409a.5.5 0 0 1-.72-.523l.723-4.211a.5.5 0 0 0-.143-.44L.151 1.253A.5.5 0 0 1 .425.407L3.223 0a8.478 8.478 0 0 0 8.112 6.016h.266l.493 2.873a.5.5 0 0 1-.72.52z" transform="rotate(102 59.543 156.22)" style="fill:#ffc250"/>
            </g>
            <g data-name="Group 8583">
                <path data-name="Path 4457" d="M11.021 9.105a.511.511 0 0 1 .141-.283l3.06-2.982a.5.5 0 0 0-.275-.846l-4.228-.615a.5.5 0 0 1-.374-.271L7.455.277a.5.5 0 0 0-.89 0l-1.89 3.831a.5.5 0 0 1-.373.271l-1.43.208-2.447.429a.5.5 0 0 0-.274.846l2.978 2.92a.5.5 0 0 1 .143.44l-.7 3.714a.5.5 0 0 0 .72.523L6.785 11.8a.494.494 0 0 1 .462 0l3.531 1.925a.5.5 0 0 0 .72-.523l-.248-2.6-.229-1.337a.518.518 0 0 1 0-.156z" transform="rotate(102 83.743 140.42)" style="fill:#ffd064"/>
                <path data-name="Path 4458" d="M11.374 9.409 7.593 7.42a.5.5 0 0 0-.462 0L3.349 9.409a.5.5 0 0 1-.72-.523l.723-4.211a.5.5 0 0 0-.143-.44L.151 1.253A.5.5 0 0 1 .425.407L3.223 0a8.478 8.478 0 0 0 8.112 6.016h.266l.493 2.873a.5.5 0 0 1-.72.52z" transform="rotate(102 82.062 137.984)" style="fill:#ffc250"/>
            </g>
            <path data-name="Path 4471" d="M16.491 14.176a.777.777 0 0 1 .229-.481l4.749-4.629a.77.77 0 0 0-.427-1.314L14.478 6.8a.77.77 0 0 1-.58-.421L10.963.429a.77.77 0 0 0-1.381 0L6.647 6.377a.772.772 0 0 1-.579.421l-2.123.309L.661 8.225a.77.77 0 0 0-.427 1.313l4.511 4.241a.771.771 0 0 1 .222.683L3.453 20.3a.771.771 0 0 0 1.118.812l5.338-3.318a.765.765 0 0 1 .717 0l5.265 2.962a.77.77 0 0 0 1.118-.812l-.154-3.482-.357-2.08a.77.77 0 0 1-.007-.206z" transform="rotate(102 77.255 152.1)" style="fill:#ffd064"/>
            <path data-name="Path 4472" d="m17.658 14.619-5.87-3.086a.765.765 0 0 0-.717 0L5.2 14.619a.771.771 0 0 1-1.118-.812L5.2 7.27a.772.772 0 0 0-.222-.683L.234 1.958A.77.77 0 0 1 .661.645L5.1 0a11.829 11.829 0 0 0 11.582 9.429 11.779 11.779 0 0 0 1.329-.075l.764 4.453a.77.77 0 0 1-1.117.812z" transform="rotate(102 74.956 148.079)" style="fill:#ffc250"/>
        </g>
        <g data-name="heda hi" transform="translate(58.963 58.694)" style="clip-path:url(#prq3he48na)">
            <path data-name="Path 4525" d="M239.636 104.47a49.556 49.556 0 0 1 2.056 16.785c-.521 11.315-4.633 21.33-10.768 28.126a17.214 17.214 0 0 0 2.382-.013c10.989-.858 19.069-12.122 18.048-25.154-.69-8.805-5.368-16.16-11.718-19.744z" transform="translate(-117.465 -53.165)" style="stroke-miterlimit:10;stroke:#000;fill:#01a4e9"/>
            <path data-name="Path 4526" d="m89.316 214.707-14.307 30.37a18.337 18.337 0 0 0 16.6 26.149h28.611a18.34 18.34 0 0 0 16.6-26.149l-14.31-30.37a18.348 18.348 0 0 0-33.194 0z" transform="translate(-37.254 -103.886)" style="fill:#ffd7e7;stroke-miterlimit:10;stroke:#000"/>
            <path data-name="Path 4527" d="M117.264 33.391a5.418 5.418 0 0 0 2.518-3.278c1.36-4.331-1.269-7.3-4.665-9.072 4.411-.059 7.215-1.574 4.43-6.432C112.508 2.306 82.69 8.166 82.69 8.166c-41.215 9.683-51.918 33.783-51.918 33.783a8.459 8.459 0 0 1 .69-.663 46.267 46.267 0 0 0-10.553 29.173c0 27.879 25.7 50.477 57.4 50.477s57.4-22.6 57.4-50.477c0-14.651-7.1-27.846-18.445-37.068z" transform="translate(-10.636 -3.469)" style="fill:#ffd7e7;stroke-miterlimit:10;stroke:#000"/>
            <path data-name="Path 4528" d="M117.164 174.577s10.813 10.041 21.151-2.062" transform="translate(-59.598 -87.778)" style="stroke-linecap:round;fill:none;stroke-miterlimit:10;stroke:#000"/>
            <path data-name="Path 4529" d="M116.295 330.357a11.561 11.561 0 0 0-22.492 5.36l2.235 9.369a11.561 11.561 0 0 0 22.492-5.36z" transform="translate(-47.553 -163.551)" style="fill:#e5e5e5;stroke-miterlimit:10;stroke:#000"/>
            <path data-name="Path 4530" d="M163.1 335.37a11.561 11.561 0 0 0-22.627-4.758l-1.983 9.425a11.561 11.561 0 0 0 22.627 4.758z" transform="translate(-70.319 -163.528)" style="fill:#e5e5e5;stroke-miterlimit:10;stroke:#000"/>
            <path data-name="Path 4531" d="M119.746 136.349s9.577-5.891 18.744 1.21" transform="translate(-60.911 -68.214)" style="stroke-linecap:round;fill:none;stroke-miterlimit:10;stroke:#000"/>
            <path data-name="Path 4532" d="M197.9 54.691s-9.1-6.25-18.46-6.041z" transform="translate(-91.276 -24.768)" style="fill:#e5e5e5"/>
            <path data-name="Path 4533" d="M197.9 54.691s-9.1-6.25-18.46-6.041" transform="translate(-91.276 -24.768)" style="stroke-linecap:round;fill:none;stroke-miterlimit:10;stroke:#000"/>
            <path data-name="Path 4534" d="M13.177 104.47a49.517 49.517 0 0 0-2.095 16.778c.494 11.316 4.587 21.337 10.7 28.152a17.136 17.136 0 0 1-2.381-.019C8.414 148.49.36 137.207 1.414 124.181c.709-8.805 5.407-16.147 11.763-19.711z" transform="translate(-.672 -53.165)" style="stroke-miterlimit:10;stroke:#000;fill:#01a4e9"/>
            <path data-name="Path 4535" d="M77.123 110.046c-1.406 5.2-4.815 9.683-8.477 13.52-4.665 4.884-10.143 9.813-17.423 8.63-9.59-1.548-16.74-12.688-16.74-21.883 0-12.466 9.753-22.573 21.782-22.573 6.343 0 12.739 3.479 17 8.031 4.177 4.468 5.179 9.391 3.858 14.275z" transform="translate(-17.54 -44.655)" style="opacity:.54;stroke-miterlimit:10;stroke:#000;fill:#01a4e9"/>
            <path data-name="Path 4536" d="M77.123 110.046c-1.406 5.2-4.815 9.683-8.477 13.52-4.665 4.884-10.143 9.813-17.423 8.63-9.59-1.548-16.74-12.688-16.74-21.883 0-12.466 9.753-22.573 21.782-22.573 6.343 0 12.739 3.479 17 8.031 4.177 4.468 5.179 9.391 3.858 14.275z" transform="translate(-17.54 -44.655)" style="fill:none;stroke-miterlimit:10;stroke:#000"/>
            <path data-name="Path 4537" d="M155.133 110.046c1.406 5.2 4.815 9.683 8.478 13.52 4.665 4.884 10.143 9.813 17.423 8.63 9.59-1.548 16.74-12.688 16.74-21.883 0-12.466-9.752-22.573-21.782-22.573-6.344 0-12.739 3.479-17 8.031-4.177 4.468-5.179 9.391-3.858 14.275z" transform="translate(-78.634 -44.655)" style="opacity:.54;stroke-miterlimit:10;stroke:#000;fill:#01a4e9"/>
            <path data-name="Path 4538" d="M155.133 110.046c1.406 5.2 4.815 9.683 8.478 13.52 4.665 4.884 10.143 9.813 17.423 8.63 9.59-1.548 16.74-12.688 16.74-21.883 0-12.466-9.752-22.573-21.782-22.573-6.344 0-12.739 3.479-17 8.031-4.177 4.468-5.179 9.391-3.858 14.275z" transform="translate(-78.634 -44.655)" style="fill:none;stroke-miterlimit:10;stroke:#000"/>
            <path data-name="Path 4539" d="M131.54 261.235c-6.434 4.247-15.276 6.867-25.029 6.867s-18.594-2.621-25.029-6.867l-5.921 12.571a18.269 18.269 0 0 0 8.881 24.373 11.46 11.46 0 0 0-.345 6.5l2.238 9.365a11.552 11.552 0 0 0 21.119 3.316 11.5 11.5 0 0 0 7.508 5.339 11.534 11.534 0 0 0 13.7-8.922l1.984-9.423a11.45 11.45 0 0 0-.67-6.874 18.287 18.287 0 0 0 7.495-23.678l-5.921-12.571z" transform="translate(-37.54 -132.907)" style="stroke-miterlimit:10;stroke:#000;fill:#01a4e9"/>
            <path data-name="Path 4540" d="M98 251s25.707 28.168 52.081 35.376" transform="translate(-49.85 -127.701)" style="stroke:#231f20;stroke-linecap:round;fill:none;stroke-miterlimit:10"/>
            <path data-name="Path 4541" d="M96 249s26.192 28.95 53.063 36.358" transform="translate(-48.833 -126.684)" style="stroke:#f2ae1d;stroke-linecap:round;fill:none;stroke-miterlimit:10"/>
            <path data-name="Path 4542" d="M194.782 322.691a8.942 8.942 0 1 0-8.946-8.942 8.944 8.944 0 0 0 8.946 8.942z" transform="translate(-94.53 -155.071)" style="fill:#f5ae09;stroke-miterlimit:10;stroke:#000"/>
            <path data-name="Path 4543" d="M54.5 101.631c.078-2.517 8.087-5.072 8.861-3.843.716 1.138-3.923 6.841-7.092 5.808-.816-.268-1.792-1.074-1.769-1.965z" transform="translate(-27.724 -49.604)" style="fill:#fff"/>
            <path data-name="Path 4544" d="M170.819 102.955c.078-2.517 8.087-5.072 8.861-3.843.716 1.138-3.923 6.841-7.092 5.807-.819-.267-1.795-1.074-1.769-1.964z" transform="translate(-86.891 -50.277)" style="fill:#fff"/>
            <g data-name="Group 8589" style="opacity:.51">
                <path data-name="Path 4545" d="M35.978 117.838a5.9 5.9 0 0 0 .82 1.366 14.324 14.324 0 0 1-.82-1.366z" transform="translate(-18.301 -59.965)" style="fill:#0a0a0a;opacity:.51"/>
                <path data-name="Path 4546" d="M48.492 124.643a10.093 10.093 0 0 0-.943 2.679c-5.185-.657-8.451-4.552-9.889-6.717 2.726 3.453 9.069 3.966 10.832 4.038z" transform="translate(-19.156 -61.372)" style="fill:#0a0a0a;opacity:.51"/>
                <path data-name="Path 4547" d="M35.931 117.737c-.013-.032-.032-.058-.045-.1a.746.746 0 0 1 .045.1z" transform="translate(-18.253 -59.864)" style="fill:#0a0a0a;opacity:.51"/>
                <path data-name="Path 4548" d="M49.816 118.791a2.876 2.876 0 0 0 .436.722 7.727 7.727 0 0 1-.436-.722z" transform="translate(-25.339 -60.449)" style="fill:#0a0a0a;opacity:.51"/>
                <path data-name="Path 4549" d="M49.789 118.737a.355.355 0 0 1-.026-.052.292.292 0 0 0 .026.052z" transform="translate(-25.312 -60.396)" style="fill:#0a0a0a;opacity:.51"/>
                <path data-name="Path 4550" d="M56.519 122.42a10.125 10.125 0 0 0-.989 1.346 7.876 7.876 0 0 1-4.827-3.492c1.483 1.873 4.971 2.12 5.816 2.153z" transform="translate(-25.791 -61.204)" style="fill:#0a0a0a;opacity:.51"/>
            </g>
            <g data-name="Group 8590" style="opacity:.51">
                <path data-name="Path 4551" d="M68.308 136.925a10.477 10.477 0 1 0-10.481-10.477 10.479 10.479 0 0 0 10.481 10.477z" transform="translate(-29.415 -59.016)" style="fill:#000c22;opacity:.51"/>
                <path data-name="Path 4552" d="M63.969 132.339a4.656 4.656 0 1 0-4.658-4.656 4.657 4.657 0 0 0 4.658 4.656z" transform="translate(-30.17 -62.605)" style="opacity:.51;fill:#fff"/>
            </g>
            <g data-name="Group 8591" style="opacity:.51">
                <path data-name="Path 4553" d="M178.982 136.366A10.567 10.567 0 1 0 168.41 125.8a10.57 10.57 0 0 0 10.572 10.566z" transform="translate(-85.665 -58.639)" style="fill:#000c22;opacity:.51"/>
                <path data-name="Path 4554" d="M179.622 126.805a4.7 4.7 0 1 0-4.7-4.7 4.7 4.7 0 0 0 4.7 4.7z" transform="translate(-88.979 -59.75)" style="opacity:.51;fill:#fff"/>
            </g>
            <g data-name="Group 8592" style="opacity:.51">
                <path data-name="Path 4555" d="M230.178 112.2a5.726 5.726 0 0 1-.644 1.47 15.984 15.984 0 0 0 .644-1.47z" transform="translate(-116.758 -57.097)" style="fill:#0a0a0a;opacity:.51"/>
                <path data-name="Path 4556" d="M208.532 120.627a10.272 10.272 0 0 1 1.3 2.556c5.1-1.327 7.866-5.645 9.024-8.005-2.277 3.8-8.555 5.144-10.319 5.443z" transform="translate(-106.074 -58.612)" style="fill:#0a0a0a;opacity:.51"/>
                <path data-name="Path 4557" d="M230.845 112.092a1.087 1.087 0 0 1 .039-.1l-.039.1z" transform="translate(-117.424 -56.989)" style="fill:#0a0a0a;opacity:.51"/>
                <path data-name="Path 4558" d="M216.756 114.953a3 3 0 0 1-.345.78c.189-.383.299-.669.345-.78z" transform="translate(-110.082 -58.497)" style="fill:#0a0a0a;opacity:.51"/>
                <path data-name="Path 4559" d="M217.113 114.9a.516.516 0 0 1 .02-.052l-.02.052z" transform="translate(-110.439 -58.443)" style="fill:#0a0a0a;opacity:.51"/>
                <path data-name="Path 4560" d="M205.142 119.435a10.363 10.363 0 0 1 1.165 1.216 7.919 7.919 0 0 0 4.372-4.123c-1.243 2.072-4.704 2.764-5.537 2.907z" transform="translate(-104.35 -59.298)" style="fill:#0a0a0a;opacity:.51"/>
            </g>
            <path data-name="Path 4561" d="M157.07 28.929a15.751 15.751 0 0 1-11.262-1.99 33.074 33.074 0 0 1-18.191 7.7c-4.8.507-6.09-.54-6.1-5.313a67.5 67.5 0 0 1 4.893-25.414c1.7-4.234 3.318-4.812 7.385-2.757a32.621 32.621 0 0 1 14.2 13.7 15.321 15.321 0 0 1 11.2 2.029c.813-.637 1.744-1.463 2.772-2.14 5.14-3.408 10.683-5.71 16.942-5.794 3.012-.045 3.962.774 4.268 3.765.631 6.224-.273 12.356-1.666 18.391a68.745 68.745 0 0 1-3.155 9.969c-1.112 2.783-2.44 3.232-5.218 2.12a32.477 32.477 0 0 1-16.077-14.255z" transform="translate(-61.814 -.027)" style="fill:#fd4585"/>
            <path data-name="Path 4562" d="m200.372 34.622-.182-1.262c8.068-1.164 14.163-6.289 14.652-2.913s-6.4 3.011-14.47 4.175z" transform="translate(-101.831 -14.935)" style="fill:#070707;opacity:.15"/>
            <path data-name="Path 4563" d="m200.567 45.7.215-.689c2.96.923 6.135-.592 5.556 1.262s-2.811.358-5.778-.566z" transform="translate(-102.02 -22.922)" style="fill:#070707;opacity:.15"/>
            <path data-name="Path 4564" d="m161.965 44.849-.182.514c-2.928-1.04-5.96-.2-5.465-1.58s2.726.026 5.654 1.067z" transform="translate(-79.487 -22.001)" style="fill:#070707;opacity:.15"/>
            <path data-name="Path 4565" d="m152.775 51.889-.306-1.236c-7.911 1.964-15.491-.481-14.671 2.829s7.065.371 14.977-1.593z" transform="translate(-70.063 -25.79)" style="fill:#070707;opacity:.15"/>
            <path data-name="Path 4566" d="M182.647 213.222s12.254-9.1 9.249-21.2c0 0-4-6.329.023-8.014s4.425 1.7 4.425 1.7 11.085-5.728 13.858-.126-.968 14.579-7.3 18.614-18.854 11.787-18.854 11.787l-1.4-2.764z" transform="translate(-92.905 -93.173)" style="fill:#ffd7e7;stroke-miterlimit:10;stroke:#000"/>
            <path data-name="Path 4567" d="M86.7 244.15s-6.033 14.021 2.635 22.98c0 0 6.635 3.468 4 6.943s-4.679.752-4.679.752-6.716 10.516-11.925 7.061-6.476-13.1-3.022-19.766 10.949-19.62 10.949-19.62l2.457 1.474z" transform="translate(-36.508 -123.377)" style="fill:#ffd7e7;stroke-miterlimit:10;stroke:#000"/>
            <path data-name="Path 4568" d="M217.452 207.123s-2.346-4.739-6.376-5.3z" transform="translate(-107.368 -102.684)" style="fill:#ffd7e7"/>
            <path data-name="Path 4569" d="M217.452 207.123s-2.346-4.739-6.376-5.3" transform="translate(-107.368 -102.684)" style="fill:none;stroke-miterlimit:10;stroke:#000"/>
        </g>
    </g>
</svg>
