<svg xmlns="http://www.w3.org/2000/svg" width="46.198" height="31.621" viewBox="0 0 46.198 31.621">
    <defs>
        <clipPath id="dwjvk11sua">
            <path data-name="Rectangle 5885" transform="translate(-2.952 .059)" style="stroke-width:.5px;stroke:#4b56c0;fill:#4b56c0" d="M0 0h46.198v31.621H0z"/>
        </clipPath>
    </defs>
    <g data-name="Group 7099" transform="translate(2.952 -.059)" style="clip-path:url(#dwjvk11sua)">
        <path data-name="Path 5565" d="M125.727 55.808a16.064 16.064 0 0 1 .434 4.412 13.669 13.669 0 0 1-2.27 7.393 2.877 2.877 0 0 0 .5 0c2.317-.226 4.021-3.186 3.806-6.612a6.862 6.862 0 0 0-2.471-5.19z" transform="translate(-90.357 -42.259)" style="stroke-width:2px;stroke-miterlimit:10;fill:#5d67c6;stroke:#4b56c0"/>
        <path data-name="Path 5566" d="m43.572 111.774-3.779 7.982a4.821 4.821 0 0 0 4.384 6.873h7.558a4.822 4.822 0 0 0 4.384-6.873l-3.779-7.982a4.857 4.857 0 0 0-8.768 0z" transform="translate(-27.459 -82.583)" style="fill:#e5e5e5;stroke-width:2px;stroke-miterlimit:10;stroke:#4b56c0"/>
        <path data-name="Path 5567" d="M36.715 10.663a1.426 1.426 0 0 0 .665-.863 1.953 1.953 0 0 0-1.232-2.384c1.165-.015 1.906-.414 1.17-1.69-1.859-3.234-9.735-1.694-9.735-1.694-10.887 2.545-13.714 8.88-13.714 8.88a2.23 2.23 0 0 1 .182-.174 12.124 12.124 0 0 0-2.787 7.668c0 7.328 6.788 13.267 15.161 13.267s15.161-5.94 15.161-13.267a12.545 12.545 0 0 0-4.872-9.743z" transform="translate(-6.188 -2.734)" style="fill:#e9eaf8;stroke-miterlimit:10;stroke-width:.5px;stroke:#4b56c0"/>
        <path data-name="Path 5568" d="M62.882 92.657a3.747 3.747 0 0 0 5.587-.542" transform="translate(-45.315 -69.779)" style="stroke-linecap:round;fill:none;stroke-miterlimit:10;stroke-width:.5px;stroke:#4b56c0"/>
        <path data-name="Path 5569" d="M64.267 72.2a4.52 4.52 0 0 1 4.951.318" transform="translate(-46.366 -54.224)" style="stroke-linecap:round;fill:none;stroke-miterlimit:10;stroke-width:.5px;stroke:#4b56c0"/>
        <path data-name="Path 5570" d="M101.155 27.6a9.676 9.676 0 0 0-4.877-1.588z" transform="translate(-70.629 -19.673)" style="fill:#e5e5e5"/>
        <path data-name="Path 5571" d="M101.155 27.6a9.676 9.676 0 0 0-4.877-1.588" transform="translate(-70.629 -19.673)" style="stroke:#c5c5c5;stroke-linecap:round;fill:none;stroke-width:2px;stroke-miterlimit:10"/>
        <path data-name="Path 5572" d="M3.25 55.808a16.086 16.086 0 0 0-.441 4.41 13.717 13.717 0 0 0 2.251 7.4 2.864 2.864 0 0 1-.5-.005c-2.311-.234-4-3.2-3.783-6.623a6.855 6.855 0 0 1 2.473-5.182z" transform="translate(1.775 -42.258)" style="stroke-width:2px;stroke-miterlimit:10;stroke:#4b56c0;fill:#4b56c0"/>
        <path data-name="Path 5573" d="M27.84 51.773a7.19 7.19 0 0 1-1.849 2.969c-1.017 1.072-2.212 2.155-3.8 1.895-2.092-.34-3.651-2.786-3.651-4.805a4.857 4.857 0 0 1 4.751-4.957A5.325 5.325 0 0 1 27 48.639a3.186 3.186 0 0 1 .841 3.134z" transform="translate(-10.63 -34.519)" style="opacity:.54;stroke-width:2px;stroke-miterlimit:10;stroke:#4b56c0;fill:#4b56c0"/>
        <path data-name="Path 5574" d="M29.8 52.738a8.592 8.592 0 0 1-2.239 3.554c-1.232 1.284-2.679 2.579-4.6 2.268-2.533-.407-4.422-3.335-4.422-5.752a5.845 5.845 0 0 1 5.754-5.933 6.48 6.48 0 0 1 4.491 2.111 3.783 3.783 0 0 1 1.016 3.752z" transform="translate(-11.705 -35.487)" style="fill:none;stroke-miterlimit:10;stroke-width:.5px;stroke:#4b56c0"/>
        <path data-name="Path 5575" d="M83.071 51.773a7.181 7.181 0 0 0 1.867 2.969c1.027 1.072 2.233 2.155 3.837 1.895 2.112-.34 3.686-2.786 3.686-4.805a4.878 4.878 0 0 0-4.8-4.957 5.4 5.4 0 0 0-3.743 1.764 3.165 3.165 0 0 0-.85 3.134z" transform="translate(-59.555 -34.519)" style="opacity:.54;stroke-width:2px;stroke-miterlimit:10;stroke:#4b56c0;fill:#4b56c0"/>
        <path data-name="Path 5576" d="M83.095 52.738a8.592 8.592 0 0 0 2.239 3.554c1.232 1.284 2.679 2.579 4.6 2.268 2.533-.407 4.422-3.335 4.422-5.752a5.845 5.845 0 0 0-5.756-5.933 6.479 6.479 0 0 0-4.49 2.111 3.783 3.783 0 0 0-1.019 3.752z" transform="translate(-60.527 -35.487)" style="fill:none;stroke-miterlimit:10;stroke-width:.5px;stroke:#4b56c0"/>
        <path data-name="Path 5577" d="M48.807 130.483s7.213 8.129 14.613 10.209" transform="translate(-34.646 -98.861)" style="stroke:#231f20;stroke-linecap:round;fill:none;stroke-width:2px;stroke-miterlimit:10"/>
        <path data-name="Path 5578" d="M48.806 130.233s7.213 8.129 14.613 10.209" transform="translate(-34.646 -98.672)" style="stroke-linecap:round;fill:none;stroke-width:2px;stroke-miterlimit:10;stroke:#4b56c0"/>
        <path data-name="Path 5579" d="M29.276 53.164c.021-.661 2.136-1.333 2.341-1.01.189.3-1.036 1.8-1.873 1.526-.217-.07-.474-.28-.468-.516z" transform="translate(-19.842 -39.425)" style="fill:#fff"/>
        <path data-name="Path 5580" d="M91.656 53.865c.021-.661 2.136-1.333 2.341-1.01.189.3-1.036 1.8-1.873 1.526-.217-.07-.475-.281-.468-.516z" transform="translate(-67.126 -39.956)" style="fill:#fff"/>
        <g data-name="Group 9001" style="opacity:.51">
            <path data-name="Path 5581" d="M19.344 62.934a1.55 1.55 0 0 0 .217.359 3.767 3.767 0 0 1-.217-.359z" transform="translate(-12.315 -47.659)" style="fill:#c5c5c5;opacity:.51"/>
            <path data-name="Path 5582" d="M23.11 65.472a2.645 2.645 0 0 0-.249.7 3.849 3.849 0 0 1-2.612-1.766 4.237 4.237 0 0 0 2.861 1.066z" transform="translate(-13 -48.779)" style="fill:#c5c5c5;opacity:.51"/>
            <path data-name="Path 5583" d="M19.307 62.854c0-.008-.008-.015-.012-.025a.191.191 0 0 1 .012.025z" transform="translate(-12.277 -47.58)" style="fill:#c5c5c5;opacity:.51"/>
            <path data-name="Path 5584" d="M26.767 63.446a.759.759 0 0 0 .115.19 2.057 2.057 0 0 1-.115-.19z" transform="translate(-17.941 -48.048)" style="fill:#c5c5c5;opacity:.51"/>
            <path data-name="Path 5585" d="M26.746 63.4a.1.1 0 0 1-.007-.014.079.079 0 0 0 .007.014z" transform="translate(-17.919 -48.004)" style="fill:#c5c5c5;opacity:.51"/>
            <path data-name="Path 5586" d="M28.778 64.8a2.652 2.652 0 0 0-.261.354 2.08 2.08 0 0 1-1.275-.918 2.285 2.285 0 0 0 1.536.566z" transform="translate(-18.301 -48.645)" style="fill:#c5c5c5;opacity:.51"/>
        </g>
        <g data-name="Group 9002" style="opacity:.51">
            <path data-name="Path 5587" d="M33.828 67.445a2.754 2.754 0 1 0-2.769-2.754 2.761 2.761 0 0 0 2.769 2.754z" transform="translate(-21.194 -46.905)" style="fill:#000c22;opacity:.51"/>
            <path data-name="Path 5588" d="M33.083 68.151a1.224 1.224 0 1 0-1.23-1.224 1.227 1.227 0 0 0 1.23 1.224z" transform="translate(-21.796 -49.759)" style="opacity:.51;fill:#fff"/>
        </g>
        <g data-name="Group 9003" style="opacity:.51">
            <path data-name="Path 5589" d="M93.155 67.1a2.778 2.778 0 1 0-2.793-2.778 2.785 2.785 0 0 0 2.793 2.778z" transform="translate(-66.145 -46.61)" style="fill:#000c22;opacity:.51"/>
            <path data-name="Path 5590" d="M95.1 65.181a1.234 1.234 0 1 0-1.241-1.234 1.237 1.237 0 0 0 1.241 1.234z" transform="translate(-68.794 -47.491)" style="opacity:.51;fill:#fff"/>
        </g>
        <g data-name="Group 9004" style="opacity:.51">
            <path data-name="Path 5591" d="M123.315 59.923a1.5 1.5 0 0 1-.17.386 4.117 4.117 0 0 0 .17-.386z" transform="translate(-90.995 -45.377)" style="fill:#c5c5c5;opacity:.51"/>
            <path data-name="Path 5592" d="M111.881 62.944a2.7 2.7 0 0 1 .342.672 3.872 3.872 0 0 0 2.383-2.1 4.268 4.268 0 0 1-2.725 1.431z" transform="translate(-82.457 -46.581)" style="fill:#c5c5c5;opacity:.51"/>
            <path data-name="Path 5593" d="M123.847 59.838a.276.276 0 0 1 .01-.027l-.01.027z" transform="translate(-91.527 -45.292)" style="fill:#c5c5c5;opacity:.51"/>
            <path data-name="Path 5594" d="M116.2 61.392a.788.788 0 0 1-.091.205c.047-.097.076-.176.091-.205z" transform="translate(-85.659 -46.49)" style="fill:#c5c5c5;opacity:.51"/>
            <path data-name="Path 5595" d="M116.482 61.347s0-.011.005-.014z" transform="translate(-85.944 -46.446)" style="fill:#c5c5c5;opacity:.51"/>
            <path data-name="Path 5596" d="M110.062 63a2.692 2.692 0 0 1 .308.32 2.088 2.088 0 0 0 1.155-1.084 2.306 2.306 0 0 1-1.463.764z" transform="translate(-81.078 -47.128)" style="fill:#c5c5c5;opacity:.51"/>
        </g>
        <path data-name="Path 5597" d="M74.608 7.661a4.178 4.178 0 0 1-2.975-.523 8.759 8.759 0 0 1-4.805 2.024c-1.268.133-1.609-.142-1.61-1.4a17.662 17.662 0 0 1 1.292-6.68c.448-1.11.876-1.262 1.95-.722a8.6 8.6 0 0 1 3.75 3.6 4.064 4.064 0 0 1 2.959.533c.215-.168.461-.385.732-.562a8.252 8.252 0 0 1 4.475-1.523c.8-.012 1.047.2 1.127.99a14.728 14.728 0 0 1-.44 4.834 18 18 0 0 1-.833 2.62c-.294.732-.644.85-1.378.557a8.566 8.566 0 0 1-4.246-3.747z" transform="translate(-47.086)" style="stroke:#4b56c0;fill:#4b56c0"/>
        <path data-name="Path 5598" d="m107.455 17.092-.048-.332c2.131-.306 3.741-1.653 3.87-.766s-1.691.791-3.822 1.1z" transform="translate(-79.065 -11.853)" style="fill:#070707;opacity:.15"/>
        <path data-name="Path 5599" d="m107.608 24.259.057-.181c.782.243 1.62-.156 1.468.332s-.742.094-1.526-.149z" transform="translate(-79.216 -18.207)" style="fill:#070707;opacity:.15"/>
        <path data-name="Path 5600" d="m85.357 23.542-.048.135c-.773-.273-1.574-.051-1.444-.415s.72.007 1.493.28z" transform="translate(-61.21 -17.473)" style="fill:#070707;opacity:.15"/>
        <path data-name="Path 5601" d="m77.884 27.4-.084-.32c-2.09.516-4.092-.126-3.875.744s1.869.097 3.959-.424z" transform="translate(-53.676 -20.482)" style="fill:#070707;opacity:.15"/>
    </g>
</svg>
