<svg xmlns="http://www.w3.org/2000/svg" xmlns:xlink="http://www.w3.org/1999/xlink" width="95.873" height="159.681" viewBox="0 0 95.873 159.681">
  <defs>
    <style>
      .cls-1, .cls-21 {
        fill: #fff;
      }

      .cls-2 {
        clip-path: url(#clip-path);
      }

      .cls-3 {
        fill: #237db1;
      }

      .cls-4 {
        fill: #333;
      }

      .cls-5, .cls-8 {
        fill: #ffd7e7;
      }

      .cls-6, .cls-7 {
        fill: none;
        stroke-linecap: round;
      }

      .cls-6 {
        stroke: #231f20;
      }

      .cls-6, .cls-7, .cls-8, .cls-9 {
        stroke-miterlimit: 10;
      }

      .cls-7 {
        stroke: #f2ae1d;
      }

      .cls-8, .cls-9 {
        stroke: #333;
      }

      .cls-9 {
        fill: #f5ae09;
      }

      .cls-10, .cls-16 {
        fill: #01a4e9;
      }

      .cls-11 {
        fill: #e5e5e5;
      }

      .cls-12 {
        fill: #fd4585;
      }

      .cls-13 {
        fill: #070707;
        opacity: 0.15;
      }

      .cls-14 {
        fill: #b5c8e8;
      }

      .cls-15, .cls-16, .cls-17 {
        opacity: 0.54;
      }

      .cls-18, .cls-19, .cls-20, .cls-21 {
        opacity: 0.51;
      }

      .cls-19 {
        fill: #0a0a0a;
      }

      .cls-20 {
        fill: #000c22;
      }
    </style>
    <clipPath id="clip-path">
      <rect id="Rectangle_5123" data-name="Rectangle 5123" class="cls-1" width="95.873" height="159.681"/>
    </clipPath>
  </defs>
  <g id="Asset_2_1" data-name="Asset 2 1" class="cls-2">
    <path id="Path_4570" data-name="Path 4570" class="cls-3" d="M213.79,522.91h-5.1a7.939,7.939,0,0,0-7.939,7.939v13.234a7.939,7.939,0,0,0,7.939,7.939h5.1a7.939,7.939,0,0,0,7.939-7.939V530.849A7.939,7.939,0,0,0,213.79,522.91Z" transform="translate(-150.962 -393.224)"/>
    <path id="Path_4571" data-name="Path 4571" class="cls-4" d="M211.113,550.235h-5.1a8.831,8.831,0,0,1-8.822-8.819V528.179a8.829,8.829,0,0,1,8.822-8.819h5.1a8.829,8.829,0,0,1,8.819,8.819v13.236a8.828,8.828,0,0,1-8.819,8.819Zm-5.1-29.111a7.065,7.065,0,0,0-7.058,7.056v13.236a7.064,7.064,0,0,0,7.058,7.056h5.1a7.063,7.063,0,0,0,7.056-7.056V528.179a7.063,7.063,0,0,0-7.056-7.056Z" transform="translate(-148.285 -390.554)"/>
    <path id="Path_4572" data-name="Path 4572" class="cls-4" d="M138.662,353.139a19.9,19.9,0,0,1-7.492,11.793c-6.609,5-15.416,5.915-23.539,5.079-.3-.03-.588-.06-.873-.1-.3.04-.588.069-.883.1-8.135.836-16.929-.082-23.548-5.079a19.951,19.951,0,0,1-7.492-11.793,26.724,26.724,0,0,1-.588-6.944c.578-13.99,6.872-26.981,19.357-34.662a46.6,46.6,0,0,1,8.207-4,44.219,44.219,0,0,1,4.318-1.431c.052-.02.283-.069.61-.141h.02c.325.069.556.122.61.141q2.191.606,4.318,1.421a47.882,47.882,0,0,1,8.207,4.01c12.482,7.681,18.789,20.672,19.357,34.662a26.724,26.724,0,0,1-.588,6.944Z" transform="translate(-55.815 -230.079)"/>
    <path id="Path_4573" data-name="Path 4573" class="cls-5" d="M140.4,353.139a20.026,20.026,0,0,1-7.185,11.793c-6.339,5-14.786,5.915-22.576,5.079-.283-.03-.565-.06-.836-.1-.283.04-.565.069-.846.1-7.8.836-16.237-.082-22.586-5.079a20.063,20.063,0,0,1-7.185-11.793,27.847,27.847,0,0,1-.565-6.944c.553-13.99,6.592-26.981,18.566-34.662a43.988,43.988,0,0,1,7.872-4A41.074,41.074,0,0,1,109.2,306.1c.05-.02.273-.069.585-.141h.02c.312.069.533.122.585.141q2.1.606,4.142,1.421a45.3,45.3,0,0,1,7.872,4.01c11.974,7.681,18.02,20.672,18.566,34.662a27.73,27.73,0,0,1-.565,6.944Z" transform="translate(-59.105 -230.079)"/>
    <path id="Path_4574" data-name="Path 4574" class="cls-3" d="M140.931,467.17H78.613c0,.079-.012.156-.015.236a27.729,27.729,0,0,0,.565,6.944,20.075,20.075,0,0,0,7.185,11.793c6.349,5,14.786,5.915,22.586,5.079.283-.03.565-.06.846-.1.273.04.553.069.836.1,7.79.836,16.237-.082,22.576-5.079a20.014,20.014,0,0,0,7.185-11.793,27.845,27.845,0,0,0,.565-6.944c0-.079-.012-.156-.015-.236Z" transform="translate(-59.088 -351.308)"/>
    <path id="Path_4575" data-name="Path 4575" class="cls-4" d="M112.859,489.7a46.575,46.575,0,0,1-4.995-.275c-.268-.03-.511-.055-.744-.087-.233.032-.469.057-.7.082-9.566,1.029-17.6-.794-23.273-5.258a20.827,20.827,0,0,1-7.5-12.3,28.641,28.641,0,0,1-.583-7.163l.052-1,.846-.082h63.156l.057,1.086a28.672,28.672,0,0,1-.583,7.165,20.79,20.79,0,0,1-7.5,12.3c-5.5,4.338-12.336,5.538-18.221,5.538ZM76.8,465.381a26.565,26.565,0,0,0,.561,6.111,19.108,19.108,0,0,0,6.87,11.289c6.7,5.273,15.63,5.573,21.944,4.893.3-.032.558-.06.816-.1l.129-.017.126.02c.248.037.508.064.766.094,6.349.68,15.28.382,21.969-4.891a19.074,19.074,0,0,0,6.87-11.287,26.513,26.513,0,0,0,.563-6.113H76.8Z" transform="translate(-56.424 -348.638)"/>
    <path id="Path_4576" data-name="Path 4576" class="cls-3" d="M137.52,522.91h-5.1a7.939,7.939,0,0,0-7.939,7.939v13.234a7.939,7.939,0,0,0,7.939,7.939h5.1a7.939,7.939,0,0,0,7.939-7.939V530.849A7.939,7.939,0,0,0,137.52,522.91Z" transform="translate(-93.608 -393.224)"/>
    <path id="Path_4577" data-name="Path 4577" class="cls-4" d="M138.721,553.634v11.56a7.128,7.128,0,0,1-7.185,7.056h-5.2a7.13,7.13,0,0,1-7.185-7.056V550.98h-1.8v14.213a8.91,8.91,0,0,0,8.98,8.819h5.2a8.91,8.91,0,0,0,8.98-8.819V553.368l-1.8.265Z" transform="translate(-88.254 -414.332)"/>
    <path id="Path_4578" data-name="Path 4578" class="cls-4" d="M99.645,389.043c-3.693.94-9.134-3.256-10.277-4.186-7.019-5.692-11.681-16.212-11.877-26.8-.139-7.438,2.014-13.487,6.061-17.026,1.2-1.052,5.431-4.382,9.365-3.12,3.988,1.28,4.625,5.905,7.681,28.122q.432,3.14.935,6.771l.05.36c1.265,9.117,1.9,13.693-.885,15.436a3.685,3.685,0,0,1-1.054.446ZM83.986,341.522l.434.5c-3.75,3.281-5.741,8.966-5.61,16.009C79,368.089,83.577,378.458,90.2,383.833c2.354,1.91,7.428,5.131,9.8,3.646,2.063-1.292,1.391-6.128.28-14.139l-.05-.36q-.506-3.635-.935-6.771c-2.892-21.024-3.579-26.019-6.778-27.045-3.276-1.052-7.024,1.92-8.1,2.857l-.434-.5Z" transform="translate(-58.268 -253.891)"/>
    <path id="Path_4579" data-name="Path 4579" class="cls-6" d="M122.25,349.45s23.98,32.04,50.765,28.625" transform="translate(-91.931 -262.783)"/>
    <path id="Path_4580" data-name="Path 4580" class="cls-7" d="M122.25,349.45s23.98,32.04,50.765,28.625" transform="translate(-91.931 -262.783)"/>
    <path id="Path_4581" data-name="Path 4581" class="cls-8" d="M85.976,343.529c-10.072,8.812-6.466,32.876,5.8,42.824.565.459,7.239,5.774,10.565,3.693,2.458-1.54,1.761-6.3.531-15.148-3.847-27.708-4.226-33.089-8.164-34.354-3.886-1.247-8.172,2.5-8.73,2.988Z" transform="translate(-60.26 -255.895)"/>
    <path id="Path_4582" data-name="Path 4582" class="cls-9" d="M299.354,450.428a7.614,7.614,0,1,0-7.614-7.614A7.614,7.614,0,0,0,299.354,450.428Z" transform="translate(-219.386 -327.266)"/>
    <path id="Path_4583" data-name="Path 4583" class="cls-10" d="M329.9,123.52a36.606,36.606,0,0,1,1.518,12.415c-.384,8.37-3.428,15.778-7.961,20.805a12.694,12.694,0,0,0,1.763-.01c8.125-.637,14.1-8.968,13.343-18.606-.511-6.515-3.968-11.957-8.663-14.605Z" transform="translate(-243.239 -92.886)"/>
    <path id="Path_4584" data-name="Path 4584" d="M321.18,154.164c-.28,0-.568-.01-.856-.027l-.995-.062.667-.742c4.618-5.119,7.473-12.594,7.837-20.505a35.967,35.967,0,0,0-1.5-12.254l-.355-1.153,1.052.593c4.99,2.815,8.4,8.556,8.906,14.987.776,9.888-5.409,18.467-13.787,19.124q-.476.037-.975.037Zm6.423-32.658a37.167,37.167,0,0,1,1.19,11.369,34.587,34.587,0,0,1-7.411,20.327c.233,0,.464-.015.692-.032,7.847-.615,13.636-8.73,12.9-18.09a18.154,18.154,0,0,0-7.376-13.574Z" transform="translate(-240.133 -89.803)"/>
    <path id="Path_4585" data-name="Path 4585" class="cls-5" d="M96.436,19.967a4.007,4.007,0,0,0,1.513-2.659c.558-3.311-1.669-5.221-4.338-6.175,3.224-.489,5.126-1.885,2.594-5.161-6.409-8.3-27.651-.98-27.651-.98-29.21,11.272-34.6,30.014-34.6,30.014a6.7,6.7,0,0,1,.439-.558A34.229,34.229,0,0,0,29.617,56.9c2.827,20.429,23.94,34.386,47.159,31.172S116.527,65.692,113.7,45.261c-1.486-10.739-8.026-19.687-17.266-25.294Z" transform="translate(-22.036 -1.512)"/>
    <path id="Path_4586" data-name="Path 4586" d="M75.39,87.03c-23.444,3.244-44.843-10.925-47.7-31.584a34.474,34.474,0,0,1,4.248-21.753l.1-.337c.055-.188,5.8-19.1,34.892-30.332.9-.31,21.661-7.339,28.206,1.136,1.143,1.481,1.518,2.745,1.111,3.757a3.527,3.527,0,0,1-2.525,1.855c2.547,1.347,3.7,3.472,3.251,6.1a4.674,4.674,0,0,1-1.185,2.507c9.367,5.89,15.528,15.076,16.944,25.3,2.86,20.659-13.889,40.106-37.333,43.35ZM33.159,33.043l.188.136A33.666,33.666,0,0,0,28.64,55.315c2.785,20.133,23.7,33.933,46.618,30.763s39.3-22.132,36.512-42.266c-1.4-10.134-7.614-19.228-17.041-24.95l-.605-.367.565-.427a3.513,3.513,0,0,0,1.327-2.356c.553-3.274-1.882-4.876-4.025-5.642L90.2,9.428l1.885-.285c1.833-.278,2.961-.823,3.264-1.58.27-.675-.06-1.622-.98-2.812-6.126-7.934-26.9-.89-27.115-.818C41.484,13.875,34.364,29.817,33.159,33.043Z" transform="translate(-20.58 0.004)"/>
    <path id="Path_4587" data-name="Path 4587" d="M205.453,260.727a9.166,9.166,0,0,0-5.265,3.209.531.531,0,1,0,.843.645,8.142,8.142,0,0,1,4.965-2.86,7.717,7.717,0,0,1,5.8,2.1.53.53,0,1,0,.677-.816,8.7,8.7,0,0,0-6.607-2.336c-.141.015-.278.035-.414.06Z" transform="translate(-150.457 -195.987)"/>
    <path id="Path_4588" data-name="Path 4588" class="cls-11" d="M271.6,75.831s-6.736-4.623-13.653-4.472Z" transform="translate(-193.976 -53.659)"/>
    <path id="Path_4589" data-name="Path 4589" d="M270.873,75.344a.233.233,0,0,1-.136-.042c-.067-.045-6.761-4.578-13.512-4.429a.246.246,0,0,1-.246-.236.239.239,0,0,1,.236-.246c6.912-.139,13.725,4.467,13.794,4.514a.241.241,0,0,1-.136.439Z" transform="translate(-193.247 -52.931)"/>
    <path id="Path_4590" data-name="Path 4590" class="cls-10" d="M11.34,152.71A38.7,38.7,0,0,0,9.316,165.4c.045,8.618,2.783,16.354,7.108,21.711a12.365,12.365,0,0,1-1.761-.084c-8.09-.992-13.722-9.8-12.574-19.675.776-6.674,4.452-12.12,9.251-14.642Z" transform="translate(-1.46 -114.837)"/>
    <path id="Path_4591" data-name="Path 4591" d="M14.152,184.557c-.342-.012-.677-.04-1-.079a14.056,14.056,0,0,1-10.1-6.728,20.659,20.659,0,0,1-2.894-13.5c.766-6.585,4.41-12.343,9.509-15.024l1.074-.565-.4,1.171a37.9,37.9,0,0,0-1.994,12.527c.042,8.145,2.592,15.942,7,21.4l.637.789-1,.022c-.278,0-.553,0-.823-.007ZM9.03,150.731c-4.253,2.741-7.249,7.849-7.921,13.638a19.643,19.643,0,0,0,2.748,12.837,13.106,13.106,0,0,0,9.407,6.29c.228.027.459.05.692.062-4.149-5.57-6.535-13.229-6.577-21.195A39.364,39.364,0,0,1,9.03,150.731Z" transform="translate(0 -111.791)"/>
    <path id="Path_4592" data-name="Path 4592" class="cls-12" d="M185.67,19.964a11.65,11.65,0,0,1-8.45-.315,24.412,24.412,0,0,1-12.542,7.485c-3.467.861-4.514.223-5-3.276a49.974,49.974,0,0,1,1.007-19.122c.816-3.274,1.944-3.864,5.129-2.77a24.134,24.134,0,0,1,11.788,8.6,11.358,11.358,0,0,1,8.415.35c.533-.548,1.128-1.247,1.81-1.848A23.027,23.027,0,0,1,199.648,3.1c2.2-.337,2.981.169,3.507,2.326a41.77,41.77,0,0,1,.647,13.645,50.621,50.621,0,0,1-1.3,7.626c-.533,2.155-1.458,2.616-3.609,2.081a24.035,24.035,0,0,1-13.221-8.817Z" transform="translate(-119.707 -1.1)"/>
    <path id="Path_4593" data-name="Path 4593" class="cls-13" d="M271.12,31.587l-.26-.905c5.789-1.672,9.737-6.044,10.436-3.621s-4.385,2.855-10.176,4.526Z" transform="translate(-203.684 -19.811)"/>
    <path id="Path_4594" data-name="Path 4594" class="cls-13" d="M273.182,54.168l.087-.528c2.264.374,4.434-1.057,4.2.36s-2.024.546-4.288.169Z" transform="translate(-205.429 -40.126)"/>
    <path id="Path_4595" data-name="Path 4595" class="cls-13" d="M212.828,61.156l-.082.4c-2.247-.464-4.385.459-4.164-.605s2-.258,4.248.208Z" transform="translate(-156.84 -45.437)"/>
    <path id="Path_4596" data-name="Path 4596" class="cls-13" d="M194.694,70.243l-.35-.873c-5.593,2.242-11.4,1.22-10.459,3.561s5.213-.446,10.808-2.686Z" transform="translate(-138.205 -52.166)"/>
    <path id="Path_4597" data-name="Path 4597" d="M193.184,193.649a.48.48,0,0,1-.3-.074c-6.84-4.39-13.075.129-13.338.322a.48.48,0,1,1-.573-.771c.069-.052,7.019-5.116,14.432-.362a.481.481,0,0,1-.218.883Z" transform="translate(-134.438 -143.427)"/>
    <path id="Path_4598" data-name="Path 4598" class="cls-14" d="M86.826,147.774c-.694,3.919-2.909,7.453-5.355,10.521-3.115,3.909-6.825,7.9-12.264,7.507-7.162-.511-13.164-8.249-13.769-15.024-.821-9.184,5.7-17.274,14.558-18.065,4.672-.417,9.613,1.724,13.05,4.8a10.678,10.678,0,0,1,3.782,10.263Z" transform="translate(-41.637 -99.76)"/>
    <path id="Path_4599" data-name="Path 4599" d="M69.406,164.816a10.433,10.433,0,0,1-1.7.012c-7.611-.543-13.6-8.584-14.216-15.461-.843-9.434,5.883-17.772,14.992-18.586,4.437-.4,9.578,1.488,13.412,4.918a11.222,11.222,0,0,1,3.936,10.707c-.605,3.42-2.339,6.83-5.451,10.736-2.815,3.532-6.185,7.247-10.979,7.676Zm-.833-33.077c-8.581.766-14.918,8.638-14.122,17.542.58,6.478,6.4,14.092,13.326,14.588,5.248.372,8.871-3.586,11.855-7.329,3.008-3.775,4.68-7.048,5.255-10.3a10.179,10.179,0,0,0-3.628-9.821c-3.643-3.259-8.5-5.049-12.686-4.677Z" transform="translate(-40.173 -98.307)"/>
    <g id="Group_8594" data-name="Group 8594" class="cls-15" transform="translate(56.813 28.912)">
      <path id="Path_4600" data-name="Path 4600" class="cls-16" d="M230.314,134.926c1.379,3.735,4.184,6.82,7.135,9.4,3.76,3.294,8.117,6.56,13.4,5.213,6.959-1.773,11.493-10.454,10.888-17.229-.821-9.184-8.67-15.989-17.529-15.2-4.672.417-9.154,3.4-11.991,7.036a10.678,10.678,0,0,0-1.9,10.771Z" transform="translate(-229.479 -116.937)"/>
      <path id="Path_4601" data-name="Path 4601" class="cls-17" d="M248.87,149.575c-4.663.417-8.566-2.592-11.907-5.516-3.71-3.249-5.987-6.255-7.167-9.452a10.747,10.747,0,0,1,1.92-10.888c3.108-3.981,7.735-6.694,12.076-7.081,8.913-.8,16.835,6.069,17.661,15.3.6,6.719-3.966,15.57-10.977,17.356a10.16,10.16,0,0,1-1.6.275Zm-5.057-32.7c-4.278.382-8.839,3.06-11.907,6.989a10.517,10.517,0,0,0-1.882,10.657c1.166,3.16,3.423,6.133,7.1,9.355s8.023,6.53,13.293,5.188c6.9-1.758,11.389-10.478,10.8-17.1-.813-9.1-8.618-15.873-17.4-15.086Z" transform="translate(-229.076 -116.577)"/>
    </g>
    <path id="Path_4602" data-name="Path 4602" d="M247.839,148.843c-4.794.429-8.77-2.629-12.167-5.6-3.757-3.291-6.066-6.342-7.269-9.6a11.218,11.218,0,0,1,1.974-11.235c3.167-4.055,7.892-6.823,12.329-7.22,9.112-.813,17.209,6.2,18.053,15.632.615,6.877-3.854,15.853-11.247,17.738A10.779,10.779,0,0,1,247.839,148.843Zm-5.047-32.7c-4.181.374-8.648,3-11.656,6.852a10.179,10.179,0,0,0-1.83,10.31c1.146,3.1,3.368,6.027,7,9.209,3.6,3.155,7.877,6.409,12.966,5.109,6.726-1.714,11.106-10.24,10.528-16.718-.8-8.906-8.425-15.528-17.008-14.759Z" transform="translate(-171.209 -86.57)"/>
    <g id="Group_8595" data-name="Group 8595" class="cls-18" transform="translate(20.076 44.379)">
      <path id="Path_4603" data-name="Path 4603" class="cls-19" d="M81.08,179.37a3.444,3.444,0,0,0,.548.749A9.268,9.268,0,0,1,81.08,179.37Z" transform="translate(-81.048 -179.263)"/>
      <path id="Path_4604" data-name="Path 4604" class="cls-19" d="M89.788,184.173a5.917,5.917,0,0,0-.409,1.6,8.49,8.49,0,0,1-6.089-3.388C85.051,184.253,88.759,184.22,89.788,184.173Z" transform="translate(-82.71 -181.534)"/>
      <path id="Path_4605" data-name="Path 4605" class="cls-19" d="M80.982,179.212c-.01-.02-.025-.035-.032-.052Z" transform="translate(-80.95 -179.105)"/>
      <path id="Path_4606" data-name="Path 4606" class="cls-19" d="M97.09,179.06a1.8,1.8,0,0,0,.29.4C97.226,179.266,97.127,179.117,97.09,179.06Z" transform="translate(-93.087 -179.03)"/>
      <path id="Path_4607" data-name="Path 4607" class="cls-19" d="M97.037,178.97a.185.185,0,0,1-.017-.03A.213.213,0,0,1,97.037,178.97Z" transform="translate(-93.034 -178.94)"/>
      <path id="Path_4608" data-name="Path 4608" class="cls-19" d="M101.754,181.607a6.175,6.175,0,0,0-.5.831,4.573,4.573,0,0,1-2.981-1.778c.96,1.012,3,.972,3.487.947Z" transform="translate(-93.974 -180.233)"/>
    </g>
    <g id="Group_8596" data-name="Group 8596" class="cls-18" transform="translate(26.812 42.829)">
      <path id="Path_4609" data-name="Path 4609" class="cls-20" d="M114.216,184.9a6.106,6.106,0,1,0-6.106-6.106A6.106,6.106,0,0,0,114.216,184.9Z" transform="translate(-108.11 -172.69)"/>
      <path id="Path_4610" data-name="Path 4610" class="cls-21" d="M137.413,187.366a2.713,2.713,0,1,0-2.713-2.713A2.713,2.713,0,0,0,137.413,187.366Z" transform="translate(-128.105 -179.646)"/>
    </g>
    <g id="Group_8597" data-name="Group 8597" class="cls-18" transform="translate(72.054 39.21)">
      <path id="Path_4611" data-name="Path 4611" class="cls-20" d="M296.681,170.4a6.151,6.151,0,1,0-6.151-6.151A6.151,6.151,0,0,0,296.681,170.4Z" transform="translate(-290.53 -158.1)"/>
      <path id="Path_4612" data-name="Path 4612" class="cls-21" d="M317.753,169.436a2.733,2.733,0,1,0-2.733-2.733A2.733,2.733,0,0,0,317.753,169.436Z" transform="translate(-308.946 -162.514)"/>
    </g>
    <g id="Group_8598" data-name="Group 8598" class="cls-18" transform="translate(82.173 37.271)">
      <path id="Path_4613" data-name="Path 4613" class="cls-19" d="M358.868,150.52a3.5,3.5,0,0,1-.3.888A8.58,8.58,0,0,0,358.868,150.52Z" transform="translate(-351.814 -150.46)"/>
      <path id="Path_4614" data-name="Path 4614" class="cls-19" d="M335.61,157.78a5.869,5.869,0,0,1,.88,1.416,8.549,8.549,0,0,0,4.814-5.107c-1.123,2.324-4.692,3.423-5.694,3.69Z" transform="translate(-334.548 -153.145)"/>
      <path id="Path_4615" data-name="Path 4615" class="cls-19" d="M359.77,150.34a.518.518,0,0,0,.015-.06S359.78,150.3,359.77,150.34Z" transform="translate(-352.717 -150.28)"/>
      <path id="Path_4616" data-name="Path 4616" class="cls-19" d="M343.819,155.1a1.819,1.819,0,0,1-.159.471C343.749,155.341,343.8,155.167,343.819,155.1Z" transform="translate(-340.602 -153.905)"/>
      <path id="Path_4617" data-name="Path 4617" class="cls-19" d="M344.3,155a.156.156,0,0,0,.007-.032S344.3,154.982,344.3,155Z" transform="translate(-341.083 -153.807)"/>
      <path id="Path_4618" data-name="Path 4618" class="cls-19" d="M331.33,158.962a6.067,6.067,0,0,1,.737.645,4.614,4.614,0,0,0,2.321-2.617c-.613,1.265-2.582,1.845-3.058,1.972Z" transform="translate(-331.33 -155.326)"/>
    </g>
  </g>
</svg>
