<svg xmlns="http://www.w3.org/2000/svg" width="25" height="30" viewBox="0 0 25 30"><defs><style>.a{fill:#eee;}</style></defs><g transform="translate(-40)"><path class="a" d="M24.5,3H17V.5a.5.5,0,0,0-.5-.5H.5A.5.5,0,0,0,0,.5v29a.5.5,0,0,0,.5.5h16a.5.5,0,0,0,.5-.5V24h5.5a2.5,2.5,0,0,0,0-5H17V14h7.5a.5.5,0,0,0,.5-.5V3.5A.5.5,0,0,0,24.5,3ZM8,6H24V7H8ZM24,5H8V4H24ZM16,29H1V1H16V3H7.5a.5.5,0,0,0-.5.5v10a.5.5,0,0,0,.5.5H16v5H13.4c0-.008-.01-.015-.014-.023a5.467,5.467,0,0,0-.35-.581c-.019-.027-.036-.054-.055-.082a5.474,5.474,0,0,0-.413-.51c-.024-.026-.05-.053-.073-.079a5.477,5.477,0,0,0-.47-.442l-.084-.069a5.452,5.452,0,0,0-.525-.374l-.09-.055a5.512,5.512,0,0,0-.576-.3l-.087-.037a5.484,5.484,0,0,0-.627-.227l-.074-.02a5.443,5.443,0,0,0-.678-.144.386.386,0,0,1-.047-.005,5.5,5.5,0,1,0,0,10.9.385.385,0,0,0,.047,0A5.457,5.457,0,0,0,9.96,26.8c.025-.007.05-.012.073-.02a5.486,5.486,0,0,0,.627-.227l.087-.037a5.514,5.514,0,0,0,.576-.3l.09-.054a5.538,5.538,0,0,0,.525-.374l.084-.069a5.482,5.482,0,0,0,.47-.442c.025-.026.05-.052.073-.079a5.48,5.48,0,0,0,.413-.51c.019-.026.036-.054.055-.082a5.467,5.467,0,0,0,.35-.581c0-.008.01-.015.014-.023H16ZM8.5,19a2.493,2.493,0,0,0-2.21,1.357l-.025.046a2.423,2.423,0,0,0-.123.3c-.022.062-.043.125-.059.19s-.033.156-.045.237c-.008.05-.023.094-.028.144s0,.071,0,.108S6,21.46,6,21.5c0,.055.013.107.017.162,0,.077.011.152.023.228a2.457,2.457,0,0,0,.064.284c.019.068.038.136.063.2a2.483,2.483,0,0,0,.118.26c.034.066.067.132.106.195a2.417,2.417,0,0,0,.161.218c.037.046.064.1.1.141.013.014.031.025.044.04a2.561,2.561,0,0,0,.208.184,1.95,1.95,0,0,0,.168.139,2.5,2.5,0,0,0,.288.164c.05.025.093.056.143.078a2.5,2.5,0,0,0,.409.132c.023.005.045.016.07.021A2.511,2.511,0,0,0,8.5,24h3.73a3.826,3.826,0,0,1-.236.323c-.027.033-.05.071-.078.1a4.487,4.487,0,0,1-.422.429c-.04.036-.084.067-.126.1a4.389,4.389,0,0,1-.35.266c-.06.041-.122.076-.184.114-.11.068-.223.131-.339.189-.069.034-.138.066-.208.1-.117.05-.237.1-.358.136-.072.024-.143.05-.216.069-.133.037-.268.066-.4.091-.064.012-.128.028-.194.037a4.5,4.5,0,1,1,0-8.909c.065.009.129.025.193.037.136.025.272.053.405.091.073.02.144.045.215.069.122.041.241.086.358.137.07.031.14.063.208.1.116.057.229.121.339.189.062.037.124.073.184.114.121.083.237.173.35.267.042.035.086.065.125.1a4.493,4.493,0,0,1,.422.429c.028.033.05.07.079.1.083.1.161.211.236.323H8.5ZM24,21.5A1.5,1.5,0,0,1,22.5,23H8.5a1.5,1.5,0,0,1-.308-.032c-.014,0-.027-.01-.042-.013a1.521,1.521,0,0,1-.245-.079c-.03-.012-.055-.031-.083-.045a1.5,1.5,0,0,1-.176-.1c-.034-.024-.064-.053-.1-.08a1.467,1.467,0,0,1-.129-.114c-.032-.034-.06-.071-.089-.108a1.089,1.089,0,0,1-.167-.262c-.021-.042-.042-.085-.06-.13a1.521,1.521,0,0,1-.047-.15c-.012-.048-.024-.095-.032-.144a1.518,1.518,0,0,1-.015-.152,1.554,1.554,0,0,1,0-.158,1.469,1.469,0,0,1,.015-.153,1.422,1.422,0,0,1,.028-.143c.009-.036.021-.071.032-.1A1.6,1.6,0,0,1,8.6,20H22.5A1.5,1.5,0,0,1,24,21.5ZM24,13H8V8H24Zm0,0" transform="translate(40)"/></g></svg>