<svg xmlns="http://www.w3.org/2000/svg" width="39.866" height="31.893" viewBox="0 0 39.866 31.893">
  <path id="Icon_awesome-luggage-cart" data-name="Icon awesome-luggage-cart" d="M13.953,19.933h1.993V5.98H13.953A1.994,1.994,0,0,0,11.96,7.973V17.94A1.994,1.994,0,0,0,13.953,19.933ZM35.88,17.94V7.973A1.994,1.994,0,0,0,33.886,5.98H31.893V19.933h1.993A1.994,1.994,0,0,0,35.88,17.94Zm2.99,5.98H7.973V1a1,1,0,0,0-1-1H1A1,1,0,0,0,0,1V2.99a1,1,0,0,0,1,1h2.99V26.91a1,1,0,0,0,1,1H10.15a2.959,2.959,0,0,0-.183,1,2.99,2.99,0,0,0,5.98,0,2.959,2.959,0,0,0-.183-1H28.089a2.959,2.959,0,0,0-.183,1,2.99,2.99,0,0,0,5.98,0,2.958,2.958,0,0,0-.183-1H38.87a1,1,0,0,0,1-1V24.916A1,1,0,0,0,38.87,23.92ZM29.9,5.98V2.99A2.99,2.99,0,0,0,26.91,0H20.93a2.99,2.99,0,0,0-2.99,2.99V19.933H29.9Zm-2.99,0H20.93V2.99h5.98Z" fill="#f59c00" opacity="0.2"/>
</svg>
