<svg data-name="Group 11176" xmlns="http://www.w3.org/2000/svg" width="50" height="51" viewBox="0 0 50 51">
    <ellipse data-name="Ellipse 2153" cx="25" cy="25.5" rx="25" ry="25.5" style="opacity:.11;fill:#ff9f40"/>
    <g transform="translate(11.789 12.011)">
        <path data-name="Path 8938" d="M27.324 16.014a.963.963 0 0 1-.963-.963 11.876 11.876 0 0 0-20.274-8.4A12.1 12.1 0 0 0 4.98 7.928a.963.963 0 1 1-1.54-1.155A14.425 14.425 0 0 1 4.723 5.3a13.8 13.8 0 0 1 23.563 9.755.963.963 0 0 1-.962.959z" transform="translate(-.683 -1.251)" style="fill:#ff9f40"/>
        <path data-name="Path 8939" d="M15.052 26.015a13.8 13.8 0 0 1-13.8-13.8.963.963 0 0 1 1.926 0 11.878 11.878 0 0 0 21.379 7.124.964.964 0 0 1 1.543 1.154 14.235 14.235 0 0 1-1.284 1.478 13.717 13.717 0 0 1-9.76 4.044z" transform="translate(-1.25 1.587)" style="fill:#ff9f40"/>
        <path data-name="Path 8940" d="M21.5 22.464a.963.963 0 0 1-.963-.963v-2.668h-2.668a.963.963 0 0 1 0-1.926H21.5a.963.963 0 0 1 .963.963v3.63a.963.963 0 0 1-.963.964z" transform="translate(3.194 3.193)" style="fill:#ff9f40"/>
        <path data-name="Path 8941" d="M7.359 8.322H3.728a.963.963 0 0 1-.963-.963V3.728a.963.963 0 0 1 1.926 0V6.4h2.668a.963.963 0 0 1 0 1.926z" transform="translate(-.82 -.822)" style="fill:#ff9f40"/>
        <path data-name="Path 8942" d="m20.154 13.366 1.808-3.013-8.8-5.284-1.816 3.012a4.762 4.762 0 0 0 .089 4.237.257.257 0 0 1-.2.334 4.759 4.759 0 0 0-3.78 1.917l-1.809 3.014 8.806 5.284 1.809-3.013a4.766 4.766 0 0 0-.087-4.237.257.257 0 0 1 .2-.334 4.762 4.762 0 0 0 3.78-1.918z" transform="translate(-.002 -.168)" style="fill:#ff9f40"/>
        <rect data-name="Rectangle 6481" width="12.839" height="2.568" rx="1" transform="rotate(30.954 1.438 24.72)" style="fill:#ff9f40"/>
        <rect data-name="Rectangle 6482" width="12.839" height="2.568" rx="1" transform="rotate(30.954 -26.373 17.027)" style="fill:#ff9f40"/>
    </g>
</svg>
