<svg xmlns="http://www.w3.org/2000/svg" width="30" height="30" viewBox="0 0 30 30"><defs><style>.a{fill:#9b9b9b;}</style></defs><g transform="translate(18.325 2.335)"><path class="a" d="M316.32,40a4.316,4.316,0,0,0-2.977,7.445.576.576,0,0,0,.069.066,4.311,4.311,0,0,0,5.816,0,.58.58,0,0,0,.069-.066A4.317,4.317,0,0,0,316.32,40Zm0,7.472a3.134,3.134,0,0,1-1.81-.574,2.148,2.148,0,0,1,3.621,0A3.133,3.133,0,0,1,316.32,47.472Zm-.6-3.334v-.3a.6.6,0,1,1,1.2,0v.3a.6.6,0,1,1-1.2,0Zm3.239,1.9a3.287,3.287,0,0,0-1.148-.954,1.757,1.757,0,0,0,.279-.951v-.3a1.768,1.768,0,1,0-3.536,0v.3a1.757,1.757,0,0,0,.279.951,3.286,3.286,0,0,0-1.148.954,3.152,3.152,0,1,1,5.276,0Z" transform="translate(-312 -40)"/></g><path class="a" d="M29.375,22.706a2.265,2.265,0,0,0-2.888-.263l-.02.014-3.285,2.47a.586.586,0,1,0,.7.937L27.161,23.4a1.093,1.093,0,0,1,1.385.133.963.963,0,0,1-.075,1.429l-3,2.428a6.465,6.465,0,0,1-4.057,1.437H12.744A6.445,6.445,0,0,1,9.406,27.9l-2.36-1.429V19.051h4.519a2.328,2.328,0,0,1,1.656.686l3.117,3.132A2.328,2.328,0,0,0,18,23.555h2.3a.878.878,0,1,1,0,1.755H15.879a2.081,2.081,0,0,1-1.138-.337l-1.88-1.223-.007,0a.586.586,0,0,0-.641.981L14.1,25.955a3.25,3.25,0,0,0,1.777.527h4.415a2.05,2.05,0,1,0,0-4.1H18.032L22.9,19.57h5.924A1.173,1.173,0,0,0,30,18.4V1.172A1.173,1.173,0,0,0,28.828,0H16.406a1.173,1.173,0,0,0-1.172,1.172V18.4a1.173,1.173,0,0,0,1.172,1.172H20.56l-3.716,2.145h0L14.05,18.909a3.493,3.493,0,0,0-2.486-1.03H7.046V16.846a1.173,1.173,0,0,0-1.172-1.172H.586A.586.586,0,0,0,0,16.26V29.414A.586.586,0,0,0,.586,30H5.874a1.173,1.173,0,0,0,1.172-1.172v-.991L8.8,28.9A7.616,7.616,0,0,0,12.744,30h8.672a7.641,7.641,0,0,0,4.794-1.7l3-2.428a2.135,2.135,0,0,0,.166-3.168ZM16.406,18.4V1.172H28.828V18.4H16.406ZM5.874,28.828h-4.7V16.846h4.7v9.923c0,.015,0,.03,0,.044v2.016Z"/><g transform="translate(7.067 2.648)"><path class="a" d="M127.117,45.656a.584.584,0,0,0-.8-.214l-5.255,3.034a1.169,1.169,0,0,0-.427,1.595l5.1,8.834a.584.584,0,0,0,1.011-.584l-5.1-8.834,5.255-3.034A.584.584,0,0,0,127.117,45.656Z" transform="translate(-120.481 -45.364)"/></g><g transform="translate(18.909 12.424)"><path class="a" d="M329.355,212h-6.771a.584.584,0,1,0,0,1.167h6.771a.584.584,0,1,0,0-1.167Z" transform="translate(-322 -212)"/></g><g transform="translate(25.68 15.002)"><path class="a" d="M439,256.171a.583.583,0,1,0,.171.413A.588.588,0,0,0,439,256.171Z" transform="translate(-438 -256)"/></g><g transform="translate(18.883 15.002)"><path class="a" d="M326.92,256h-4.337a.584.584,0,0,0,0,1.167h4.337a.584.584,0,0,0,0-1.167Z" transform="translate(-322 -256)"/></g><g transform="translate(2.926 21.605)"><path class="a" d="M50.709,368.547a.584.584,0,0,0-.584.584v2.284a.584.584,0,1,0,1.167,0v-2.284A.584.584,0,0,0,50.709,368.547Z" transform="translate(-50.125 -368.547)"/></g><g transform="translate(2.926 25.919)"><path class="a" d="M51.126,442.261a.585.585,0,1,0,.17.413A.59.59,0,0,0,51.126,442.261Z" transform="translate(-50.13 -442.09)"/></g></svg>