<svg xmlns="http://www.w3.org/2000/svg" width="42.819" height="24.887" viewBox="0 0 42.819 24.887"><defs><style>.a{fill:#9a9a9a;stroke:#fff;stroke-width:0.5px;}</style></defs><path class="a" d="M49.637,250.194H47.589v-8.839a.817.817,0,0,0-.683-.9h-2.73a.939.939,0,0,0,0-1.806H42.811v-1.806h2.73a.623.623,0,0,0,.506-.3,1.1,1.1,0,0,0,.173-.7l-.683-6.032a.79.79,0,0,0-.679-.813H39.4a.79.79,0,0,0-.679.813l-.683,6.032a1.1,1.1,0,0,0,.173.7.623.623,0,0,0,.506.3h2.73v1.806H40.081a.939.939,0,0,0,0,1.806H38.033a.817.817,0,0,0-.683.9v8.839H35.985v-6.323a.816.816,0,0,0,.683-.9v-.9a3.946,3.946,0,0,0-1.365-3.126v-7.712c0-1.994-1.223-3.61-2.73-3.613H14.826c-1.507,0-2.728,1.619-2.73,3.613v7.712a3.946,3.946,0,0,0-1.365,3.126v.9a.816.816,0,0,0,.683.9v6.323H8.683a.939.939,0,0,0,0,1.806H49.637a.939.939,0,0,0,0-1.806ZM13.461,231.226a1.635,1.635,0,0,1,1.365-1.806H32.573a1.635,1.635,0,0,1,1.365,1.806v7.226H31.09a3.456,3.456,0,0,0-.258-2.468,1.955,1.955,0,0,0-1.672-1.145h-2.73a1.955,1.955,0,0,0-1.672,1.145,3.456,3.456,0,0,0-.258,2.468H22.9a3.456,3.456,0,0,0-.258-2.468,1.955,1.955,0,0,0-1.672-1.145h-2.73a1.955,1.955,0,0,0-1.672,1.145,3.456,3.456,0,0,0-.258,2.468H13.461Zm16.382,6.323a.818.818,0,0,1-.683.9h-2.73a.939.939,0,0,1,0-1.806h2.73A.818.818,0,0,1,29.842,237.548Zm-8.191,0a.818.818,0,0,1-.683.9h-2.73a.939.939,0,0,1,0-1.806h2.73A.818.818,0,0,1,21.651,237.548ZM34.62,250.194H12.778v-.9H34.62Zm0-2.71H12.778v-3.613H34.62ZM12.1,242.065a1.635,1.635,0,0,1,1.365-1.806H33.938a1.635,1.635,0,0,1,1.365,1.806Zm27.375-7.032.546-4.226h4.225l.546,4.226Zm6.754,15.161H38.716v-4.323h7.508Zm0-6.129H38.716v-1.806h7.508Z" transform="translate(-7.75 -227.363)"/></svg>