<svg xmlns="http://www.w3.org/2000/svg" width="15.771" height="17.519" viewBox="0 0 15.771 17.519">
    <path d="M18.745 5.43a.877.877 0 0 0-.564-.741L11.286 2.1a.879.879 0 0 0-.25-.08.857.857 0 0 0-.563.085L3.591 4.689a.876.876 0 0 0-.564.741c-.009.1-.824 10.179 7.366 13.951l.027.017a.867.867 0 0 0 .453.127h.072a.9.9 0 0 0 .409-.129c8.217-3.762 7.4-13.86 7.392-13.963zm-3.721 3.31-3.75 3.92a.876.876 0 0 1-.623.27h-.01a.876.876 0 0 1-.619-.257l-1.753-1.751a.876.876 0 0 1 1.239-1.239l1.119 1.117 3.13-3.274a.876.876 0 0 1 1.267 1.214z" transform="translate(-3 -2.006)" style="fill:#434343"/>
</svg>
