<svg xmlns="http://www.w3.org/2000/svg" width="15.481" height="15.508" viewBox="0 0 15.481 15.508">
    <path data-name="Path 8477" d="M182.951 2.525A8.533 8.533 0 0 0 181.514.02q-.276-.02-.556-.02t-.558.02a8.526 8.526 0 0 0-1.437 2.505q-.188.488-.338 1.009h4.66q-.146-.52-.334-1.009zm0 0" transform="translate(-173.218)" style="fill:#434343"/>
    <path data-name="Path 8478" d="M160.348 273.856h5.116A15.64 15.64 0 0 0 165.8 271h-5.788a15.637 15.637 0 0 0 .336 2.856zm0 0" transform="translate(-155.165 -262.791)" style="fill:#434343"/>
    <path data-name="Path 8479" d="M165.464 146.684h-5.116a15.639 15.639 0 0 0-.336 2.857h5.788a15.639 15.639 0 0 0-.336-2.857zm0 0" transform="translate(-155.165 -142.241)" style="fill:#434343"/>
    <path data-name="Path 8480" d="M178.966 396.326a8.533 8.533 0 0 0 1.437 2.505q.276.02.556.02t.556-.02a8.528 8.528 0 0 0 1.436-2.505q.188-.488.338-1.009h-4.66q.149.52.337 1.009zm0 0" transform="translate(-173.218 -383.342)" style="fill:#434343"/>
    <path data-name="Path 8481" d="M370.594 146.661a16.651 16.651 0 0 1 .318 2.857h3.938a7.7 7.7 0 0 0-.725-2.858h-3.531zm0 0" transform="translate(-359.368 -142.218)" style="fill:#434343"/>
    <path data-name="Path 8482" d="M4.256 273.856A16.638 16.638 0 0 1 3.938 271H0a7.7 7.7 0 0 0 .725 2.858h3.531zm0 0" transform="translate(0 -262.791)" style="fill:#434343"/>
    <path data-name="Path 8483" d="M317.626 395.316a11.45 11.45 0 0 1-1.435 3.316 7.7 7.7 0 0 0 3.646-2.053 7.825 7.825 0 0 0 1.025-1.263zm0 0" transform="translate(-306.614 -383.342)" style="fill:#434343"/>
    <path data-name="Path 8484" d="M43.94 10.516A11.451 11.451 0 0 1 45.374 7.2a7.706 7.706 0 0 0-3.646 2.053 7.829 7.829 0 0 0-1.028 1.263zm0 0" transform="translate(-39.47 -6.982)" style="fill:#434343"/>
    <path data-name="Path 8485" d="M43.939 395.316H40.7a7.827 7.827 0 0 0 1.025 1.263 7.705 7.705 0 0 0 3.646 2.053 11.455 11.455 0 0 1-1.435-3.316zm0 0" transform="translate(-39.47 -383.342)" style="fill:#434343"/>
    <path data-name="Path 8486" d="M317.626 10.516h3.236a7.824 7.824 0 0 0-1.025-1.263 7.706 7.706 0 0 0-3.645-2.053 11.449 11.449 0 0 1 1.435 3.316zm0 0" transform="translate(-306.614 -6.981)" style="fill:#434343"/>
    <path data-name="Path 8487" d="M370.912 271a16.638 16.638 0 0 1-.318 2.857h3.531a7.7 7.7 0 0 0 .725-2.857zm0 0" transform="translate(-359.369 -262.791)" style="fill:#434343"/>
    <path data-name="Path 8488" d="M3.938 149.518a16.638 16.638 0 0 1 .318-2.857H.725A7.7 7.7 0 0 0 0 149.518zm0 0" transform="translate(0 -142.218)" style="fill:#434343"/>
</svg>
