<svg xmlns="http://www.w3.org/2000/svg" width="38" height="38" viewBox="0 0 38 38">
    <g data-name="Group 10305">
        <g data-name="Group 10304" transform="translate(-963 -306)">
            <circle data-name="Ellipse 2153" cx="19" cy="19" r="19" transform="translate(963 306)" style="opacity:.22;fill:#ff6384"/>
        </g>
        <path data-name="Path 5824" d="M8.8 13.6a.6.6 0 0 0-.6-.6h-3v2.4a.8.8 0 0 1-1.6 0V13h-3a.6.6 0 0 0-.6.6v7.6a.6.6 0 0 0 .6.6h7.6a.6.6 0 0 0 .6-.6z" transform="translate(10 6.399)" style="fill:#ff6384"/>
        <path data-name="Path 5825" d="M21.8 13.6a.6.6 0 0 0-.6-.6h-3v2.4a.8.8 0 0 1-1.6 0V13h-3a.6.6 0 0 0-.6.6v7.6a.6.6 0 0 0 .6.6h7.6a.6.6 0 0 0 .6-.6z" transform="translate(7.399 6.399)" style="fill:#ff6384"/>
        <path data-name="Path 5826" d="M15.3.6a.6.6 0 0 0-.6-.6h-3v2.4a.8.8 0 0 1-1.6 0V0h-3a.6.6 0 0 0-.6.6v7.6a.6.6 0 0 0 .6.6h7.6a.6.6 0 0 0 .6-.6z" transform="translate(8.699 9)" style="fill:#ff6384"/>
    </g>
</svg>
