<svg xmlns="http://www.w3.org/2000/svg" width="11.422" height="14.61" viewBox="0 0 11.422 14.61">
    <defs>
        <style>
            .cls-1{fill:#c1c1c1}
        </style>
    </defs>
    <g id="invoice" transform="translate(-0.414)">
        <path id="Path_3258" d="M11.472 0H.778a.364.364 0 0 0-.364.364v13.883a.364.364 0 0 0 .61.267l1.265-1.167a.362.362 0 0 1 .489 0l.829.74a1.09 1.09 0 0 0 1.457 0l.817-.737a.363.363 0 0 1 .487 0l.817.737a1.089 1.089 0 0 0 1.457 0l.829-.74a.362.362 0 0 1 .489 0l1.265 1.167a.364.364 0 0 0 .61-.267V.364A.364.364 0 0 0 11.472 0zm-.364 13.417l-.655-.6a1.087 1.087 0 0 0-1.465-.017l-.829.74a.363.363 0 0 1-.486 0l-.818-.74a1.088 1.088 0 0 0-1.461 0l-.817.737a.363.363 0 0 1-.486 0l-.829-.74a1.087 1.087 0 0 0-1.466.012l-.655.6V.727h9.967v12.69zm0 0" class="cls-1"/>
        <path id="Path_3259" d="M80.992 136.508h4.667a.364.364 0 0 0 0-.727h-4.667a.364.364 0 1 0 0 .727zm0 0" class="cls-1" transform="translate(-77.298 -130.844)"/>
        <path id="Path_3260" d="M80.992 206.028h4.667a.364.364 0 0 0 0-.727h-4.667a.364.364 0 1 0 0 .727zm0 0" class="cls-1" transform="translate(-77.298 -197.836)"/>
    </g>
</svg>
