<svg id="Layer_2" data-name="Layer 2" xmlns="http://www.w3.org/2000/svg" width="15.49" height="19.5" viewBox="0 0 15.49 19.5">
  <g id="Layer_1" data-name="Layer 1">
    <path id="Path_3738" data-name="Path 3738" d="M10.382,0c.115.108.238.21.348.324q2.254,2.359,4.506,4.72a.851.851,0,0,1,.254.63q-.007,5.571,0,11.142a2.576,2.576,0,0,1-2.035,2.621,2.781,2.781,0,0,1-.6.06q-5.1.005-10.209,0A2.572,2.572,0,0,1,0,16.854V2.621A2.577,2.577,0,0,1,1.942.041.466.466,0,0,0,2.023,0ZM9.728.922C9.651.917,9.6.91,9.542.91H2.654A1.624,1.624,0,0,0,.949,2.63q0,7.1,0,14.193a1.632,1.632,0,0,0,1.736,1.728H12.8a1.638,1.638,0,0,0,1.743-1.745V5.951H11.9a2.059,2.059,0,0,1-2.17-2.165c0-.884,0-1.768,0-2.652ZM13.877,5l-3.2-3.354c-.007.1-.012.153-.012.2,0,.649,0,1.3,0,1.946A1.126,1.126,0,0,0,11.9,5.008c.591,0,1.183,0,1.774,0C13.729,5.008,13.783,5,13.877,5Z" fill="#fff7f7"/>
    <path id="Path_3739" data-name="Path 3739" d="M121.564,174.353l.925-.988c.345-.367.683-.736,1.03-1.1a.466.466,0,0,1,.574-.088.456.456,0,0,1,.208.542.6.6,0,0,1-.137.224q-1.335,1.44-2.678,2.875a.482.482,0,0,1-.8-.017q-1.327-1.421-2.65-2.849a.474.474,0,1,1,.688-.64c.579.616,1.153,1.237,1.729,1.856l.169.177v-4.979a.992.992,0,0,1,.051-.353.45.45,0,0,1,.514-.273.467.467,0,0,1,.377.463c0,.5,0,1,0,1.507v3.643Z" transform="translate(-113.353 -162.266)" fill="#fff7f7"/>
    <path id="Path_3740" data-name="Path 3740" d="M92.782,399.492c1.272,0,2.544,0,3.816,0a.755.755,0,0,1,.386.121.393.393,0,0,1,.16.439.457.457,0,0,1-.337.354,1.029,1.029,0,0,1-.264.025h-7.5a.87.87,0,0,1-.333-.056.453.453,0,0,1-.259-.52.487.487,0,0,1,.5-.366Q90.864,399.491,92.782,399.492Z" transform="translate(-85.053 -384.192)" fill="#fff7f7"/>
  </g>
</svg>
