<svg xmlns="http://www.w3.org/2000/svg" width="31.498" height="36.21" viewBox="0 0 31.498 36.21">
    <path data-name="Path 5464" d="M171.392 392.251h2.163v.182a3.888 3.888 0 1 0 7.777 0v-.182h2.163v-4.728h-12.1z" transform="translate(-161.624 -360.113)" style="fill:#c5c5c5"/>
    <path data-name="Path 5465" d="m115.364 87.9-2.884-1.855v-3.198h2.12v2.036l1.823 1.172 1.823-1.172v-2.036h2.122v3.194l-2.883 1.859v3.69h5.144a3.721 3.721 0 0 1 1.043-1.68 10.7 10.7 0 0 0-7.248-18.562h-.077a10.7 10.7 0 0 0-7.2 18.538 3.831 3.831 0 0 1 1.063 1.7h5.148V87.9z" transform="translate(-100.606 -66.298)" style="fill:#c5c5c5"/>
    <g data-name="Group 8948">
        <path data-name="Path 5466" d="M240.963 0h2.122v2.867h-2.122z" transform="translate(-226.275)" style="fill:#c5c5c5"/>
    </g>
    <g data-name="Group 8949">
        <path data-name="Path 5467" d="M0 0h2.122v2.874H0z" transform="rotate(-30 8.392 -11.663)" style="fill:#c5c5c5"/>
    </g>
    <g data-name="Group 8950">
        <path data-name="Path 5468" d="M0 0h2.122v2.874H0z" transform="rotate(-60 8.4 3.025)" style="fill:#c5c5c5"/>
    </g>
    <g data-name="Group 8951">
        <path data-name="Path 5469" d="M33.3 207.561h2.874v2.122H33.3z" transform="translate(-33.298 -192.88)" style="fill:#c5c5c5"/>
    </g>
    <g data-name="Group 8952">
        <path data-name="Path 5470" d="M437.991 207.561h2.874v2.122h-2.874z" transform="translate(-409.367 -192.88)" style="fill:#c5c5c5"/>
    </g>
    <g data-name="Group 8953">
        <path data-name="Path 5471" d="M0 0h2.874v2.122H0z" transform="rotate(-30 28.832 -45.009)" style="fill:#c5c5c5"/>
    </g>
    <g data-name="Group 8954">
        <path data-name="Path 5472" d="M0 0h2.874v2.122H0z" transform="rotate(-60 14.152 -16.388)" style="fill:#c5c5c5"/>
    </g>
</svg>
