<svg xmlns="http://www.w3.org/2000/svg" width="8.403" height="4.583" viewBox="0 0 8.403 4.583">
  <path id="Line_Graph" data-name="Line Graph" d="M9.9,9.764a.766.766,0,0,1-.764.764.649.649,0,0,1-.195-.027l-1.36,1.356a.675.675,0,0,1,.027.2.764.764,0,0,1-1.528,0,.675.675,0,0,1,.027-.2l-.974-.974a.751.751,0,0,1-.4,0L3,12.625a.649.649,0,0,1,.027.195.764.764,0,1,1-.764-.764.649.649,0,0,1,.195.027L4.2,10.344a.675.675,0,0,1-.027-.2.764.764,0,0,1,1.528,0,.675.675,0,0,1-.027.2l.974.974a.751.751,0,0,1,.4,0L8.4,9.959a.649.649,0,0,1-.027-.195.764.764,0,0,1,1.528,0Z" transform="translate(-1.5 -9)"/>
</svg>
