<svg xmlns="http://www.w3.org/2000/svg" width="20" height="18.004" viewBox="0 0 20 18.004">
    <g data-name="Group 5360">
        <path data-name="Path 2456" d="M18 25.55a1.995 1.995 0 0 0-1.438 3.383l-3.653 7.31a1.641 1.641 0 0 0-.242-.023 2 2 0 0 0-.754.148L9.08 33.176a2 2 0 1 0-3.743-.961 1.985 1.985 0 0 0 .492 1.3l-3.473 6.073A1.829 1.829 0 0 0 2 39.552a2.028 2.028 0 1 0 1.508.7l3.47-6.072a1.881 1.881 0 0 0 1.106-.113l2.836 3.192a2 2 0 1 0 3.184-.422l3.653-7.31a1.642 1.642 0 0 0 .243.023 2 2 0 0 0 0-4z" transform="translate(0 -25.55)" style="fill:#dfdfdf"/>
    </g>
</svg>
