<svg width="17" height="21" viewBox="0 0 17 21" fill="none" xmlns="http://www.w3.org/2000/svg">
<path d="M15.3266 3.75H14.8016V5.25C14.8016 6.21475 13.977 7 12.9641 7H4.03906C3.02607 7 2.20156 6.21475 2.20156 5.25V3.75H1.67656C0.80795 3.75 0.101562 4.42275 0.101562 5.25V19.5C0.101562 20.3272 0.80795 21 1.67656 21H15.3266C16.1952 21 16.9016 20.3272 16.9016 19.5V5.25C16.9016 4.42275 16.1952 3.75 15.3266 3.75ZM5.08906 17.5C5.08906 17.7763 4.85413 18 4.56406 18H3.51406C3.224 18 2.98906 17.7763 2.98906 17.5V16.5C2.98906 16.2237 3.224 16 3.51406 16H4.56406C4.85413 16 5.08906 16.2237 5.08906 16.5V17.5ZM5.08906 14C5.08906 14.2762 4.85413 14.5 4.56406 14.5H3.51406C3.224 14.5 2.98906 14.2762 2.98906 14V13C2.98906 12.7238 3.224 12.5 3.51406 12.5H4.56406C4.85413 12.5 5.08906 12.7238 5.08906 13V14ZM5.08906 10.5C5.08906 10.7762 4.85413 11 4.56406 11H3.51406C3.224 11 2.98906 10.7762 2.98906 10.5V9.5C2.98906 9.22375 3.224 9 3.51406 9H4.56406C4.85413 9 5.08906 9.22375 5.08906 9.5V10.5ZM13.4891 17.5H7.18906C6.89926 17.5 6.66406 17.276 6.66406 17C6.66406 16.724 6.89926 16.5 7.18906 16.5H13.4891C13.7789 16.5 14.0141 16.724 14.0141 17C14.0141 17.276 13.7789 17.5 13.4891 17.5ZM13.4891 14H7.18906C6.89926 14 6.66406 13.776 6.66406 13.5C6.66406 13.224 6.89926 13 7.18906 13H13.4891C13.7789 13 14.0141 13.224 14.0141 13.5C14.0141 13.776 13.7789 14 13.4891 14ZM13.4891 10.5H7.18906C6.89926 10.5 6.66406 10.276 6.66406 10C6.66406 9.724 6.89926 9.5 7.18906 9.5H13.4891C13.7789 9.5 14.0141 9.724 14.0141 10C14.0141 10.276 13.7789 10.5 13.4891 10.5ZM12.9641 6H4.03906C3.60489 6 3.25156 5.6635 3.25156 5.25V3.25C3.25156 2.8365 3.60489 2.5 4.03906 2.5H5.62587C5.75896 1.10025 6.9977 0 8.50156 0C10.0054 0 11.2442 1.10025 11.3772 2.5H12.9641C13.3982 2.5 13.7516 2.8365 13.7516 3.25V5.25C13.7516 5.6635 13.3982 6 12.9641 6Z" fill="#FDFDFD"/>
</svg>
