<svg xmlns="http://www.w3.org/2000/svg" width="16.49" height="19.24" viewBox="0 0 16.49 19.24">
  <path id="Icon_material-live-help" data-name="Icon material-live-help" d="M19.158,3H6.332A1.832,1.832,0,0,0,4.5,4.832V17.659a1.832,1.832,0,0,0,1.832,1.832H10l2.748,2.749,2.748-2.749h3.664a1.838,1.838,0,0,0,1.832-1.832V4.832A1.838,1.838,0,0,0,19.158,3Zm-5.5,14.659H11.829V15.827h1.832Zm1.9-7.1-.825.843a3.119,3.119,0,0,0-1.072,2.593H11.829v-.458A3.688,3.688,0,0,1,12.9,10.943l1.136-1.154A1.791,1.791,0,0,0,14.577,8.5a1.832,1.832,0,1,0-3.664,0H9.081a3.664,3.664,0,1,1,7.329,0,2.915,2.915,0,0,1-.852,2.061Z" transform="translate(-4.5 -3)" fill="#fff"/>
</svg>
