<svg xmlns="http://www.w3.org/2000/svg" width="20.644" height="18.576" viewBox="0 0 20.644 18.576"><defs><style>.a{fill:#6d7580;}.b{fill:#fff;}</style></defs><g transform="translate(-470.678 -668.212)"><path class="a" d="M6,0a6,6,0,0,1,6,6c0,3.314-6,11-6,11S0,9.314,0,6A6,6,0,0,1,6,0Z" transform="matrix(0.469, 0.883, -0.883, 0.469, 485.688, 668.212)"/><path class="b" d="M3,0l.75,2.231L6,2.292,4.214,3.731,4.854,6,3,4.658,1.146,6l.641-2.269L0,2.292l2.25-.06Z" transform="matrix(0.469, 0.883, -0.883, 0.469, 484.448, 672.269)"/></g></svg>