<svg xmlns="http://www.w3.org/2000/svg" width="12.202" height="16.27" viewBox="0 0 12.202 16.27">
    <path d="M75.631 6.384v-1.3a5.084 5.084 0 1 0-10.169 0v1.3a2.027 2.027 0 0 0-1.017 1.751v6.1a2.036 2.036 0 0 0 2.034 2.034h8.135a2.036 2.036 0 0 0 2.034-2.034v-6.1a2.027 2.027 0 0 0-1.017-1.751zm-5.084-4.35a3.054 3.054 0 0 1 3.053 3.05V6.1h-6.1V5.084a3.054 3.054 0 0 1 3.051-3.051zm1.017 9.773v1.413h-2.035v-1.413a1.525 1.525 0 1 1 2.034 0z" transform="translate(-64.445)" style="fill:#434343"/>
</svg>
