<svg xmlns="http://www.w3.org/2000/svg" width="12.06" height="17.869" viewBox="0 0 12.06 17.869">
    <path d="M84.994 12.457a2.4 2.4 0 0 1-1.912-.01.074.074 0 0 1 .044-.141 4.6 4.6 0 0 0 1.825.01.074.074 0 0 1 .043.142zm4.561-9.49A4 4 0 0 0 87.131 1.2a.3.3 0 0 0-.061-.5c-2.01-.967-4.742-1.071-6.445.571a5.455 5.455 0 0 0-1.476 3.979v1.6a.167.167 0 0 0 .334-.011V5.408a2.683 2.683 0 0 1 2.68-2.68h3.8a2.683 2.683 0 0 1 2.68 2.68v1.428a.167.167 0 0 0 .334.011V4.762a1.945 1.945 0 0 1 .563-1.373.3.3 0 0 0 .084-.173.318.318 0 0 0-.067-.249zm.537 12.846v1.759a.3.3 0 0 1-.3.3H78.33a.3.3 0 0 1-.3-.3v-1.76a3.072 3.072 0 0 1 3.073-3.073 1.238 1.238 0 0 0 .681-.2.3.3 0 0 1 .349.022 3.007 3.007 0 0 0 3.838-.009.3.3 0 0 1 .352-.021 1.236 1.236 0 0 0 .693.21 3.072 3.072 0 0 1 3.076 3.071zm-2.717.829a.3.3 0 0 0-.3-.3h-.893a.3.3 0 0 0 0 .6h.893a.3.3 0 0 0 .3-.302zM85.96 3.324h-3.8a2.087 2.087 0 0 0-2.084 2.084v2.461a3.983 3.983 0 0 0 7.965-.015V5.408a2.087 2.087 0 0 0-2.081-2.084z" transform="translate(-78.032)" style="fill:#c5c5c5"/>
</svg>
