<svg xmlns="http://www.w3.org/2000/svg" width="33.997" height="33.996" viewBox="0 0 33.997 33.996">
  <g id="process" transform="translate(0 -69.005)">
    <path id="Path_2213" data-name="Path 2213" d="M201.532,268.726a1.81,1.81,0,1,0-1.81,1.81A1.812,1.812,0,0,0,201.532,268.726Z" transform="translate(-182.724 -182.723)" fill="#4b56c0"/>
    <path id="Path_2214" data-name="Path 2214" d="M140.986,203.3a6.689,6.689,0,0,0-4.933,11.21,5.96,5.96,0,0,1,1.87-1.777,4.112,4.112,0,1,1,6.124,0c.17.1.337.214.5.335a6.025,6.025,0,0,1,1.371,1.442,6.689,6.689,0,0,0-4.93-11.213Z" transform="translate(-123.988 -123.986)" fill="#4b56c0"/>
    <path id="Path_2215" data-name="Path 2215" d="M184.158,345.135a3.648,3.648,0,0,0-3.1,1.735,6.681,6.681,0,0,0,6.206,0A3.688,3.688,0,0,0,184.158,345.135Z" transform="translate(-167.16 -254.939)" fill="#4b56c0"/>
    <path id="Path_2216" data-name="Path 2216" d="M31.354,82.57a2.13,2.13,0,0,1-1.5-1.363c-.113-.3-.238-.6-.373-.9a2.13,2.13,0,0,1,.1-2.028,3.552,3.552,0,0,0-4.856-4.856,2.13,2.13,0,0,1-2.028.1c-.294-.134-.6-.26-.9-.373a2.13,2.13,0,0,1-1.363-1.5,3.552,3.552,0,0,0-6.867,0,2.13,2.13,0,0,1-1.363,1.5c-.3.113-.6.238-.9.373a2.129,2.129,0,0,1-2.028-.1,3.552,3.552,0,0,0-4.3,5.583l.139.139a13.536,13.536,0,0,0-1.371,3.305H3.552a3.552,3.552,0,0,0-.91,6.986,2.13,2.13,0,0,1,1.5,1.363c.113.3.238.6.373.9a2.13,2.13,0,0,1-.1,2.028,3.552,3.552,0,0,0,4.856,4.856,2.13,2.13,0,0,1,2.028-.1c.294.134.6.26.9.373a2.13,2.13,0,0,1,1.363,1.5,3.552,3.552,0,0,0,6.867,0,2.13,2.13,0,0,1,1.363-1.5c.3-.113.606-.239.9-.373a2.13,2.13,0,0,1,2.028.1,3.552,3.552,0,0,0,4.856-4.856,2.13,2.13,0,0,1-.1-2.028c.134-.294.26-.6.373-.9a2.13,2.13,0,0,1,1.5-1.363,3.552,3.552,0,0,0,0-6.867ZM22.511,93.105a1.144,1.144,0,0,1-.584.418h0a9.017,9.017,0,1,1,.585-.419Z" fill="#4b56c0"/>
  </g>
</svg>
