<svg xmlns="http://www.w3.org/2000/svg" width="21.841" height="21.84" viewBox="0 0 21.841 21.84">
    <g style="opacity:.4">
        <path data-name="Path 5352" d="M10.92 0a10.92 10.92 0 1 0 10.92 10.92A10.921 10.921 0 0 0 10.92 0zm0 3.265a3.612 3.612 0 1 1-3.611 3.613 3.612 3.612 0 0 1 3.611-3.612zm0 15.72a8.014 8.014 0 0 1-5.22-1.924 1.539 1.539 0 0 1-.54-1.17 3.643 3.643 0 0 1 3.66-3.642h4.2a3.637 3.637 0 0 1 3.655 3.642 1.535 1.535 0 0 1-.54 1.169 8.012 8.012 0 0 1-5.217 1.926z" transform="translate(0 -.001)" style="fill:#818181"/>
    </g>
</svg>
