<svg data-name="Mark Read" xmlns="http://www.w3.org/2000/svg" width="20.551" height="25.961">
    <path data-name="Path 3927" d="M10.054 0h.456a1.227 1.227 0 0 1 .853 1.376c-.022.342 0 .687 0 1.043h2.966c0-.357.018-.7 0-1.043A1.222 1.222 0 0 1 15.176 0h.456a1.2 1.2 0 0 1 .868 1.342c-.022.358 0 .719 0 1.093h1.149a2.962 2.962 0 0 1 2.8 2.23 3.063 3.063 0 0 1 .1.725q.008 8.807 0 17.612a2.962 2.962 0 0 1-2.1 2.824c-.16.049-.322.09-.483.135H2.6a.489.489 0 0 0-.091-.039A2.956 2.956 0 0 1 0 22.884V5.519a2.968 2.968 0 0 1 3.1-3.085h.952V1.09a1.022 1.022 0 0 1 .42-.856A3.38 3.38 0 0 1 4.881 0h.507a3.26 3.26 0 0 1 .39.218 1.047 1.047 0 0 1 .435.9v1.3h2.982c0-.37.018-.725 0-1.077A1.19 1.19 0 0 1 10.054 0zm.759 12.981H5.465a1.085 1.085 0 1 0 0 2.167c.955.008 1.909 0 2.863 0h7.755a1.158 1.158 0 0 0 .918-.345 1.081 1.081 0 0 0-.8-1.821h-5.4zm0 6.49h5.4a1.064 1.064 0 0 0 1.061-.811 1.028 1.028 0 0 0-.5-1.189 1.637 1.637 0 0 0-.7-.163c-2-.012-4-.007-6.006-.007H5.524a1.183 1.183 0 0 0-.879.319 1.081 1.081 0 0 0 .791 1.848h5.372zM8.113 8.66c-.879 0-1.758-.018-2.637.011a1.491 1.491 0 0 0-.744.241 1.01 1.01 0 0 0-.345 1.179 1.07 1.07 0 0 0 1.053.721q2.673.006 5.346 0a1.249 1.249 0 0 0 .325-.039 1.071 1.071 0 0 0 .775-1.183 1.049 1.049 0 0 0-1.037-.926c-.915-.01-1.828-.004-2.736-.004z" style="fill:#4b56c0"/>
</svg>
