<svg xmlns="http://www.w3.org/2000/svg" width="24.173" height="22.725" viewBox="0 0 24.173 22.725">
    <g data-name="Group 8625">
        <g data-name="Group 8624">
            <g data-name="Group 8623">
                <path data-name="Path 4467" d="M668.46 189.4a.36.36 0 1 1-.36.36.361.361 0 0 1 .36-.36z" transform="translate(-657.696 -187.255)" style="fill:#c5c5c5"/>
                <circle data-name="Ellipse 1983" cx=".36" cy=".36" r=".36" transform="translate(8.317 2.145)" style="fill:#c5c5c5"/>
                <circle data-name="Ellipse 1984" cx=".36" cy=".36" r=".36" transform="translate(6.228 2.145)" style="fill:#c5c5c5"/>
                <path data-name="Path 4468" d="M324.987 53.759v3.694a.66.66 0 0 1-.659.659h-3.294a.2.2 0 0 0-.172.1l-.957 1.656-.955-1.656a.2.2 0 0 0-.172-.1h-.719a.66.66 0 0 1-.659-.659v-3.694a.66.66 0 0 1 .659-.659h6.268a.658.658 0 0 1 .66.659zm-.949 1.846a.759.759 0 1 0-.759.759.759.759 0 0 0 .759-.759zm-2.088 0a.759.759 0 1 0-.759.759.759.759 0 0 0 .759-.759zm-2.087 0a.759.759 0 1 0-.759.759.759.759 0 0 0 .759-.759z" transform="translate(-312.516 -53.1)" style="fill:#c5c5c5"/>
                <path data-name="Path 4469" d="M1351.823 280.9v4.511l-2.723-2z" transform="translate(-1327.979 -277.315)" style="fill:#c5c5c5"/>
                <path data-name="Path 4470" d="m1042.523 283.409-2.723 2V280.9z" transform="translate(-1023.546 -277.315)" style="fill:#c5c5c5"/>
                <path data-name="Path 4471" d="m1066.567 264.8-2.852 2.628-.011.009-.622.573-.622-.573-2.86-2.637z" transform="translate(-1043.035 -261.468)" style="fill:#c5c5c5"/>
                <path data-name="Path 4472" d="m1069.863 457.7 2.613 1.922h-6.776l2.613-1.922.639.589a.2.2 0 0 0 .272 0z" transform="translate(-1049.039 -451.332)" style="fill:#c5c5c5"/>
                <path data-name="Path 4473" d="M708.737 752.638a1.2 1.2 0 0 1-.516 1.626 1.165 1.165 0 0 1-.264.1l-1.056-2.074a1.233 1.233 0 0 1 .275-.176 1.2 1.2 0 0 1 1.561.524z" transform="translate(-695.886 -741)" style="fill:#c5c5c5"/>
                <path data-name="Path 4474" d="M0 0h1.5v2.46H0z" transform="rotate(-27 34.534 8.291)" style="fill:#c5c5c5"/>
                <path data-name="Path 4475" d="m93.365 877.6 1.906 3.739-.888.452-2.083 1.064-.888.452-.3-.6-1.3-2.543-.3-.595z" transform="translate(-88.202 -864.624)" style="fill:#c5c5c5"/>
                <path data-name="Path 4476" d="M293.483 1176.023a.743.743 0 0 1-.324 1l-.412.211a.742.742 0 0 1-1-.324l-1.948-3.823 1.734-.884z" transform="translate(-285.35 -1154.588)" style="fill:#c5c5c5"/>
                <path data-name="Path 4477" d="m362.489 625.542 1.026 2.013-5.362.892-1.953-3.834 3.875-3.813 2.413 4.734a.012.012 0 0 0 .001.008z" transform="translate(-350.705 -611.865)" style="fill:#c5c5c5"/>
                <path data-name="Path 4478" d="M1062.328 1102.659v.312h-1.528v-4.171h1.528v3.859z" transform="translate(-1044.216 -1082.343)" style="fill:#c5c5c5"/>
                <path data-name="Path 4479" d="M1188.408 917.855a.356.356 0 0 1 0 .711h-1.2a.2.2 0 0 0 0 .4h1.064a.356.356 0 1 1 0 .711h-1.209a.2.2 0 0 0 0 .4h.94a.356.356 0 0 1 0 .711h-2.285a5.719 5.719 0 0 1-.856-.047 3.538 3.538 0 0 1-.785-.161 2.045 2.045 0 0 1-.313-.164.823.823 0 0 0-.573-.187h-.093v-3.207a3.475 3.475 0 0 0 1.777-1.3 4.349 4.349 0 0 0 .244-.37 2.76 2.76 0 0 0 .3-.842 2.476 2.476 0 0 0 .022-.478.416.416 0 0 1 .036-.247.305.305 0 0 1 .346-.11.536.536 0 0 1 .261.2.226.226 0 0 0 .014.019 1.75 1.75 0 0 1 0 1.369 3.632 3.632 0 0 1-.209.461l-.12.241a1.388 1.388 0 0 0-.129.59.2.2 0 0 0 .2.2h2.343a.356.356 0 1 1 0 .711h-.91a.2.2 0 0 0 0 .4h1.128z" transform="translate(-1164.591 -900.111)" style="fill:#c5c5c5"/>
                <g data-name="Group 8622">
                    <path data-name="Path 4480" d="M936.033 895.4a.293.293 0 0 0-.173-.148l-1.16-.376a.3.3 0 0 0-.184.567l1.16.376a.3.3 0 0 0 .357-.419z" transform="translate(-919.722 -881.607)" style="fill:#c5c5c5"/>
                    <path data-name="Path 4481" d="m918.931 682.83 1.086-.554a.3.3 0 0 0-.271-.53l-1.086.554a.3.3 0 0 0 .271.53z" transform="translate(-904.161 -671.816)" style="fill:#c5c5c5"/>
                    <path data-name="Path 4482" d="M781.767 529.192a.3.3 0 0 0-.376.192l-.376 1.16a.3.3 0 0 0 .567.184l.376-1.16a.3.3 0 0 0-.191-.376z" transform="translate(-768.818 -521.687)" style="fill:#c5c5c5"/>
                </g>
            </g>
        </g>
    </g>
</svg>
