<svg id="Mark_Unread" data-name="Mark Unread" xmlns="http://www.w3.org/2000/svg" width="20.556" height="25.962">
    <defs>
        <style>
            .cls-1{fill:#4b56c0}
        </style>
    </defs>
    <path id="Path_3928" data-name="Path 3928" class="cls-1" d="M10.37 0h.406a1 1 0 0 1 .6 1.082c-.022.351 0 .7 0 1.059h3.245c0-.394.018-.767 0-1.136A.91.91 0 0 1 15.239 0h.406a1 1 0 0 1 .6 1.085c-.022.35 0 .7 0 1.086.5 0 .976-.011 1.446 0A2.935 2.935 0 0 1 20.458 4.4a3.3 3.3 0 0 1 .1.774q.008 8.884 0 17.771a2.969 2.969 0 0 1-2.1 2.88c-.16.049-.322.09-.483.135H2.612a5.753 5.753 0 0 1-.812-.26 2.908 2.908 0 0 1-1.786-2.813V8.013C.014 7.042 0 6.07.018 5.1a2.88 2.88 0 0 1 1.495-2.54 2.821 2.821 0 0 1 1.525-.392c.428.005.855 0 1.3 0 0-.4.02-.762 0-1.122A.95.95 0 0 1 4.943 0h.406a.955.955 0 0 1 .613 1.043c-.023.366 0 .735 0 1.108h3.79c0-.393.018-.771 0-1.149A.911.911 0 0 1 10.37 0zM4.335 3.793H3.086a1.337 1.337 0 0 0-1.447 1.455V22.89a1.767 1.767 0 0 0 .04.427A1.358 1.358 0 0 0 3.1 24.339h14.3a1.378 1.378 0 0 0 1.542-1.549V5.071a1.243 1.243 0 0 0-.9-1.19 14.2 14.2 0 0 0-1.79-.119v.781a.836.836 0 0 1-.83.87.822.822 0 0 1-.8-.873v-.731h-3.248c0 .26.005.5 0 .744a.834.834 0 0 1-.817.858.824.824 0 0 1-.808-.86v-.744H5.958v.767a.812.812 0 1 1-1.623.01c-.005-.251 0-.503 0-.791z" transform="translate(-.009)"/>
    <path id="Path_3929" data-name="Path 3929" class="cls-1" d="M70.506 209.545h-5.55a.9.9 0 0 1-.676-.22.806.806 0 0 1 .359-1.375 1.42 1.42 0 0 1 .326-.032h11.1a.827.827 0 0 1 .891 1.082.791.791 0 0 1-.773.541c-.608.007-1.217 0-1.825 0z" transform="translate(-59.689 -193.861)"/>
    <path id="Path_3930" data-name="Path 3930" class="cls-1" d="M70.451 272h5.5a1.392 1.392 0 0 1 .473.068.8.8 0 0 1 .491.808.8.8 0 0 1-.616.719 1.46 1.46 0 0 1-.326.033h-11.1c-.662 0-1.082-.494-.9-1.055a.783.783 0 0 1 .78-.569c.566-.007 1.132 0 1.7 0z" transform="translate(-59.607 -253.611)"/>
    <path id="Path_3931" data-name="Path 3931" class="cls-1" d="M67.778 143.963h2.889a.816.816 0 1 1 0 1.623h-5.775a.816.816 0 1 1 0-1.625z" transform="translate(-59.673 -134.227)"/>
</svg>
