<svg xmlns="http://www.w3.org/2000/svg" width="11.943" height="11.943" viewBox="0 0 11.943 11.943">
  <path id="Icon_metro-cross" data-name="Icon metro-cross" d="M14.405,11.523h0L10.782,7.9,14.4,4.276h0a.374.374,0,0,0,0-.528L12.693,2.037a.374.374,0,0,0-.528,0h0L8.542,5.66,4.919,2.037h0a.374.374,0,0,0-.528,0L2.68,3.749a.374.374,0,0,0,0,.528h0L6.3,7.9,2.68,11.523h0a.374.374,0,0,0,0,.528l1.712,1.712a.374.374,0,0,0,.528,0h0l3.623-3.623,3.623,3.623h0a.374.374,0,0,0,.528,0L14.4,12.051a.374.374,0,0,0,0-.528Z" transform="translate(-2.571 -1.928)" fill="#010204" opacity="0.55"/>
</svg>
