<svg xmlns="http://www.w3.org/2000/svg" width="18.499" height="20.967" viewBox="0 0 18.499 20.967">
    <g data-name="Group 8230">
        <g data-name="Group 8229">
            <path data-name="Path 4345" d="m226.438 12.638-8.178-8.179a1.229 1.229 0 1 0-1.738 1.741l8.179 8.178a1.228 1.228 0 0 0 1.737-1.737z" transform="translate(-208.545 -3.932)" style="fill:#c5c5c5"/>
        </g>
    </g>
    <g data-name="Group 8232">
        <g data-name="Group 8231">
            <path data-name="Path 4346" d="m140.468 82.9-.062.309a13.205 13.205 0 0 1-2.912 5.9l4.449 4.449a13.161 13.161 0 0 1 5.87-2.941l.309-.062z" transform="translate(-133.098 -79.51)" style="fill:#c5c5c5"/>
        </g>
    </g>
    <g data-name="Group 8234">
        <g data-name="Group 8233">
            <path data-name="Path 4347" d="m33.717 256.989-3.041 3.04a1.843 1.843 0 0 0 0 2.606l1.737 1.737a1.843 1.843 0 0 0 2.606 0l3.04-3.04zm.434 4.778a.614.614 0 0 1-.869-.869l.869-.869a.614.614 0 0 1 .869.869z" transform="translate(-30.136 -246.465)" style="fill:#c5c5c5"/>
        </g>
    </g>
    <g data-name="Group 8236">
        <g data-name="Group 8235">
            <path data-name="Path 4348" d="m195.681 350.138.836-.836a1.841 1.841 0 0 0 0-2.606l-.621-.621a11.627 11.627 0 0 0-.989.748l.741.742a.613.613 0 0 1 0 .868l-.849.849-1.248-1.209-1.737 1.737 2.787 2.7a1.229 1.229 0 0 0 1.737-1.739z" transform="translate(-185.192 -331.903)" style="fill:#c5c5c5"/>
        </g>
    </g>
    <g data-name="Group 8238">
        <g data-name="Group 8237">
            <path data-name="Path 4349" d="M332.478 0a.614.614 0 0 0-.614.614v1.229a.614.614 0 0 0 1.229 0V.614a.614.614 0 0 0-.615-.614z" transform="translate(-319.508)" style="fill:#c5c5c5"/>
        </g>
    </g>
    <g data-name="Group 8240">
        <g data-name="Group 8239">
            <path data-name="Path 4350" d="M423.707 120h-1.229a.614.614 0 0 0 0 1.229h1.229a.614.614 0 1 0 0-1.229z" transform="translate(-405.822 -115.086)" style="fill:#c5c5c5"/>
        </g>
    </g>
    <g data-name="Group 8242">
        <g data-name="Group 8241">
            <path data-name="Path 4351" d="M394.141 30.18a.614.614 0 0 0-.869 0l-1.229 1.229a.614.614 0 0 0 .869.869l1.229-1.229a.614.614 0 0 0 0-.869z" transform="translate(-377.051 -28.771)" style="fill:#c5c5c5"/>
        </g>
    </g>
</svg>
