<svg xmlns="http://www.w3.org/2000/svg" width="19.346" height="19.346" viewBox="0 0 19.346 19.346">
    <path d="M13.673 4a9.673 9.673 0 1 0 4.837 18.051l-1.21-2.094a7.256 7.256 0 1 1 3.627-6.285v1.053a1.251 1.251 0 0 1-1.209 1.365 1.211 1.211 0 0 1-1.209-1.209v-4.835h-1.671a4.832 4.832 0 1 0 .117 7.158 3.6 3.6 0 0 0 2.764 1.306 3.668 3.668 0 0 0 3.627-3.783v-1.054A9.684 9.684 0 0 0 13.673 4zm0 12.091a2.418 2.418 0 1 1 2.418-2.418 2.421 2.421 0 0 1-2.418 2.418z" transform="translate(-4 -4)" style="fill:#c5c5c5"/>
</svg>
