<svg width="24" height="24" viewBox="0 0 24 24" fill="none" xmlns="http://www.w3.org/2000/svg">
<g clip-path="url(#clip0_68_89893)">
<path d="M11.7649 5.64706H13.1767C13.1767 4.72748 12.85 4.23746 12.5875 3.84377C12.3755 3.52574 12.2355 3.31572 12.2355 2.82353C12.2355 2.33134 12.3755 2.12132 12.5875 1.80329C12.85 1.4096 13.1767 0.919624 13.1767 0H11.7649C11.7649 0.492141 11.6248 0.702212 11.4129 1.02024C11.1504 1.41393 10.8237 1.90391 10.8237 2.82353C10.8237 3.74315 11.1504 4.23313 11.4129 4.62682C11.6248 4.94485 11.7649 5.15487 11.7649 5.64706Z" fill="#A6A5B6"/>
<path d="M16.2351 8.47061H17.6469C17.6469 7.55098 17.3203 7.06101 17.0577 6.66731C16.8457 6.34934 16.7057 6.13927 16.7057 5.64708C16.7057 5.15489 16.8458 4.94487 17.0577 4.62684C17.3203 4.23315 17.6469 3.74312 17.6469 2.82355H16.2351C16.2351 3.31574 16.0951 3.52576 15.8831 3.84378C15.6206 4.23748 15.2939 4.7275 15.2939 5.64708C15.2939 6.56665 15.6206 7.05668 15.8831 7.45037C16.0951 7.7684 16.2351 7.97847 16.2351 8.47061Z" fill="#A6A5B6"/>
<path d="M6.35303 8.47061H7.76479C7.76479 7.97847 7.90489 7.7684 8.11684 7.45037C8.37933 7.05668 8.70597 6.5667 8.70597 5.64708C8.70597 4.72745 8.37933 4.23748 8.11684 3.84378C7.90489 3.52576 7.76479 3.31574 7.76479 2.82355H6.35303C6.35303 3.74312 6.67966 4.23315 6.9422 4.62684C7.15416 4.94482 7.2942 5.15489 7.2942 5.64708C7.2942 6.13927 7.15411 6.34929 6.9422 6.66731C6.67966 7.06101 6.35303 7.55098 6.35303 8.47061Z" fill="#A6A5B6"/>
<path d="M0 19.7647V21.1765H1.68136L3.09313 24H20.9068L22.3186 21.1765H24V19.7647C20.7039 19.7647 3.31365 19.7647 0 19.7647Z" fill="#A6A5B6"/>
<path d="M14.1176 10.8163V10.5882C14.1176 9.42056 13.1677 8.47058 12 8.47058C10.8301 8.47058 9.88234 9.41811 9.88234 10.5882V10.8163C6.14935 11.6332 3.17989 14.5583 2.34766 18.3529H21.6524C20.8205 14.5602 17.8524 11.6336 14.1176 10.8163Z" fill="#A6A5B6"/>
</g>
<defs>
<clipPath id="clip0_68_89893">
<rect width="24" height="24" fill="white"/>
</clipPath>
</defs>
</svg>
