<svg xmlns="http://www.w3.org/2000/svg" width="31.781" height="29.253">
    <defs>
        <style>
            .cls-1{fill:#9b9b9b;stroke:#9b9b9b;stroke-width:.5px}
        </style>
    </defs>
    <g id="Messages" transform="translate(.208 .251)">
        <path id="Path_3698" data-name="Path 3698" class="cls-1" d="M31.323 14.56a2.994 2.994 0 0 1-.678 1.59 3.057 3.057 0 0 1-2.436 1.112h-.548V22.4a.529.529 0 0 1-.32.568.542.542 0 0 1-.653-.183l-.1-.111-2.281-2.514-.274-.287a.8.8 0 0 0-.046.163 3.159 3.159 0 0 1-3.263 2.95h-8.166a.731.731 0 0 0-.6.274c-1.527 1.7-3.068 3.381-4.569 5.071a2.278 2.278 0 0 1-.281.281.5.5 0 0 1-.835-.326 1.893 1.893 0 0 1 0-.333v-4.969H3.258c-1.558.087-3.222-1.34-3.212-2.53 0-.046-.011-12.082 0-12.12a3.1 3.1 0 0 1 3.166-2.553H7.3V3.262a3.068 3.068 0 0 1 .307-1.449A3.081 3.081 0 0 1 10.548 0L28.06.038a3.479 3.479 0 0 1 .366 0 3.359 3.359 0 0 1 2.246 1.038 2.95 2.95 0 0 1 .652 1.612c-.017.443-.007 11.364-.001 11.872zM7.3 26.876l.274-.294q1.958-2.121 3.864-4.255a1 1 0 0 1 .822-.365h8.485a2.056 2.056 0 0 0 2.226-2.2V9.025a2.056 2.056 0 0 0-2.226-2.206h-4.63c-4.229 0-8.485.046-12.688 0a2.213 2.213 0 0 0-2.4 2.4c.039 3.518 0 7.036 0 10.554a2.069 2.069 0 0 0 2.232 2.2h3.334c.561 0 .731.163.731.724v4.184zM8.388 5.762h12.4a3.152 3.152 0 0 1 3.263 3.263v8.929a.738.738 0 0 0 .2.548c.724.777 1.436 1.566 2.147 2.35.065.072.124.157.235.3v-4.184c0-.568.176-.744.757-.744h.666a2.062 2.062 0 0 0 2.2-2.2V3.287a3.146 3.146 0 0 0-.065-.679 2.108 2.108 0 0 0-2.131-1.532H10.62a1.5 1.5 0 0 0-.241 0A1.958 1.958 0 0 0 8.42 2.733c-.098.967-.032 1.978-.032 3.029z" transform="translate(0 .004)"/>
        <path id="Path_3699" data-name="Path 3699" class="cls-1" d="M14.529 22.655H8a1.86 1.86 0 0 1-.424-.033.463.463 0 0 1-.379-.483.47.47 0 0 1 .372-.5 1.612 1.612 0 0 1 .4 0h13.054c.529 0 .783.17.783.522s-.248.522-.777.522z" transform="translate(-2.506 -7.51)"/>
        <path id="Path_3700" data-name="Path 3700" class="cls-1" d="M14.528 26.41h6.527c.529 0 .777.163.777.516s-.268.522-.79.522H7.988a1.5 1.5 0 0 1-.418-.048.463.463 0 0 1-.352-.509.47.47 0 0 1 .4-.47 2.037 2.037 0 0 1 .4 0z" transform="translate(-2.511 -9.17)"/>
        <path id="Path_3701" data-name="Path 3701" class="cls-1" d="M11.1 17.854H7.838a.581.581 0 0 1-.568-.254.5.5 0 0 1 .274-.7 1.136 1.136 0 0 1 .392-.052h6.527a.555.555 0 0 1 .594.529.535.535 0 0 1-.607.509z" transform="translate(-2.511 -5.849)"/>
    </g>
</svg>
