<svg xmlns="http://www.w3.org/2000/svg" width="16.507" height="16.998" viewBox="0 0 16.507 16.998">
    <g>
        <path fill="#c5c5c5" d="M.637 17l1.006-5.221A6.8 6.8 0 0 1 0 7.366C0 3.3 3.7 0 8.25 0s8.257 3.3 8.257 7.366-3.7 7.366-8.257 7.366a9.2 9.2 0 0 1-2.4-.313L.64 17zM11.2 6.078a1.009 1.009 0 1 0 1.007 1.012A1.013 1.013 0 0 0 11.2 6.078zm-2.842 0A1.009 1.009 0 1 0 9.373 7.09a1.013 1.013 0 0 0-1.014-1.012zm-2.834 0A1.009 1.009 0 1 0 6.532 7.09a1.014 1.014 0 0 0-1.007-1.012z" transform="translate(-15.275 -8.246) translate(15.275 8.246)"/>
    </g>
</svg>
