<svg xmlns="http://www.w3.org/2000/svg" width="20" height="20" viewBox="0 0 20 20">
    <g data-name="Group 5424">
        <path data-name="Path 2509" d="m16.546 6.6 3.024-.84a.586.586 0 1 0-.314-1.129L15.5 5.672l-4.915 1.364V.59a.586.586 0 1 0-1.172 0v6.772L4.2 8.81.429 9.857a.586.586 0 1 0 .314 1.129l2.351-.653-3.011 5.018a.586.586 0 0 0-.083.3 4.351 4.351 0 0 0 8.7 0 .586.586 0 0 0-.084-.3L5.25 9.734 14.39 7.2l-3.01 5.017a.586.586 0 0 0-.084.3 4.351 4.351 0 0 0 8.7 0 .585.585 0 0 0-.083-.3zm-9.464 8.47H1.621l2.731-4.552zm5.835-3.138 2.731-4.552 2.731 4.552z" transform="translate(0 -.004)" style="fill:#dfdfdf"/>
    </g>
</svg>
