<svg xmlns="http://www.w3.org/2000/svg" width="32.926" height="30" viewBox="0 0 32.926 30"><defs><style>.a{fill:#9b9b9b;}</style></defs><g transform="translate(0 -22.751)"><path class="a" d="M28.1,27.573A16.463,16.463,0,0,0,0,39.214v6.154l.01-.008a7.8,7.8,0,1,0,14.638-4.118h3.628a7.8,7.8,0,1,0,14.649,3.744h0V39.214A16.356,16.356,0,0,0,28.1,27.573ZM7.8,50.829a5.874,5.874,0,1,1,5.874-5.874A5.88,5.88,0,0,1,7.8,50.829Zm8.725-13.207a2.433,2.433,0,0,1,2.316,1.7H14.205a2.432,2.432,0,0,1,2.316-1.7Zm8.61,13.207A5.874,5.874,0,1,1,31,44.955a5.88,5.88,0,0,1-5.874,5.874Zm0-13.669a7.754,7.754,0,0,0-4.509,1.44,4.366,4.366,0,0,0-3.14-2.791V32.6H15.56v3.208A4.366,4.366,0,0,0,12.4,38.666,7.782,7.782,0,0,0,1.929,39.827v-.613a14.514,14.514,0,0,1,1.082-5.522l2.339.887.682-1.8-2.168-.823a14.691,14.691,0,0,1,5.772-5.583l.962,2.316,1.775-.737-.983-2.367a14.642,14.642,0,0,1,10.248.037l-.968,2.33,1.775.737.941-2.265a14.687,14.687,0,0,1,5.7,5.567l-2.074.787.682,1.8,2.239-.849A14.517,14.517,0,0,1,31,39.214v.613A7.78,7.78,0,0,0,25.13,37.159Z" transform="translate(0 0)"/><path class="a" d="M73.813,379.325a1.338,1.338,0,0,1-1.336-1.336H70.555a3.258,3.258,0,0,0,6.517,0H75.15A1.338,1.338,0,0,1,73.813,379.325Z" transform="translate(-66.018 -332.393)"/><path class="a" d="M70.756,325.382h1.838V327.3H70.756Z" transform="translate(-66.206 -283.169)"/><path class="a" d="M143.01,325.382h1.838V327.3H143.01Z" transform="translate(-133.813 -283.169)"/><path class="a" d="M343.365,368.026a3.262,3.262,0,0,0-3.258,3.258h1.922a1.336,1.336,0,1,1,2.672,0h1.922A3.262,3.262,0,0,0,343.365,368.026Z" transform="translate(-318.235 -323.071)"/><path class="a" d="M340.309,321.4h1.838v1.922h-1.838Z" transform="translate(-318.424 -279.439)"/><path class="a" d="M412.562,321.4H414.4v1.922h-1.838Z" transform="translate(-386.031 -279.439)"/></g></svg>