<svg xmlns="http://www.w3.org/2000/svg" width="299.998" height="300" viewBox="0 0 299.998 300">
  <g id="link" transform="translate(-0.001)">
    <g id="Group_6137" data-name="Group 6137">
      <g id="Group_6136" data-name="Group 6136">
        <path id="Path_2797" data-name="Path 2797" d="M150,0A150,150,0,1,0,300,150,150,150,0,0,0,150,0Zm75.367,123.3-36.686,36.686a21.066,21.066,0,0,1-29.79,0l-1.437-1.437-3.906,3.906,1.434,1.434a21.091,21.091,0,0,1,0,29.793L118.3,230.372a21.07,21.07,0,0,1-29.8,0L74.634,216.5a21.09,21.09,0,0,1,0-29.79l36.689-36.684a21.071,21.071,0,0,1,29.8,0l1.432,1.432,3.906-3.906-1.432-1.432a21.092,21.092,0,0,1-.005-29.79l36.689-36.686a21.068,21.068,0,0,1,29.8,0L225.37,93.514A21.091,21.091,0,0,1,225.363,123.3Z" fill="#c2c2c2"/>
        <path id="Path_2798" data-name="Path 2798" d="M142.539,173.459l-7.093,7.093-11-11,7.093-7.093-1.432-1.432a5.506,5.506,0,0,0-7.783,0L85.636,197.709a5.511,5.511,0,0,0,0,7.783l13.87,13.873a5.638,5.638,0,0,0,7.786,0l36.681-36.686a5.513,5.513,0,0,0,0-7.789Z" fill="#c2c2c2"/>
        <path id="Path_2799" data-name="Path 2799" d="M200.493,90.643a5.508,5.508,0,0,0-7.792,0L156.015,127.33a5.517,5.517,0,0,0,0,7.786l1.434,1.432,10.88-10.883,11,11-10.88,10.883,1.434,1.434a5.638,5.638,0,0,0,7.786,0L214.358,112.3a5.515,5.515,0,0,0,0-7.786Z" fill="#c2c2c2"/>
      </g>
    </g>
  </g>
</svg>
