<svg width="36" height="36" viewBox="0 0 36 36" fill="none" xmlns="http://www.w3.org/2000/svg">
<path d="M29.7797 23.1543C27.8689 21.2434 25.5751 19.8552 23.0718 19.0586C26.1373 17.2961 28.206 13.9875 28.206 10.2049C28.2061 4.57798 23.6282 0 18.0012 0C12.3742 0 7.79626 4.57798 7.79626 10.2049C7.79626 13.9876 9.86506 17.2961 12.9305 19.0586C10.4273 19.8551 8.13348 21.2434 6.22252 23.1543C3.07639 26.3005 1.34375 30.4835 1.34375 34.9328C1.34375 35.5222 1.82159 36 2.41095 36H33.5912C34.1805 36 34.6584 35.5222 34.6584 34.9328C34.6585 30.4834 32.9259 26.3005 29.7797 23.1543ZM9.93066 10.2049C9.93066 5.75487 13.5511 2.13441 18.0012 2.13441C22.4513 2.13441 26.0717 5.75487 26.0717 10.2049C26.0717 14.655 22.4513 18.2755 18.0012 18.2755C13.5511 18.2755 9.93066 14.655 9.93066 10.2049ZM3.51704 33.8656C4.06498 26.3538 10.352 20.4099 18.0012 20.4099C25.6504 20.4099 31.9374 26.3538 32.4854 33.8656H3.51704Z" fill="#C0C0C0"/>
<path d="M18.0017 13.6846C17.4435 13.6846 16.9087 14.1754 16.9345 14.7518C16.9604 15.33 17.4034 15.819 18.0017 15.819C18.5599 15.819 19.0947 15.3281 19.0689 14.7518C19.043 14.1736 18.6 13.6846 18.0017 13.6846Z" fill="#C0C0C0"/>
<path d="M18.0004 4.59082C16.1736 4.59082 14.6875 6.07702 14.6875 7.9038C14.6875 8.49316 15.1653 8.97101 15.7547 8.97101C16.3441 8.97101 16.8219 8.49316 16.8219 7.9038C16.8219 7.25398 17.3506 6.72523 18.0004 6.72523C18.6502 6.72523 19.1789 7.25391 19.1789 7.9038C19.1789 8.5537 18.6502 9.08238 18.0004 9.08238C17.4111 9.08238 16.9332 9.56023 16.9332 10.1496V11.7641C16.9332 12.3535 17.4111 12.8313 18.0004 12.8313C18.5898 12.8313 19.0676 12.3535 19.0676 11.7641V11.0404C20.3725 10.5953 21.3133 9.3573 21.3133 7.9038C21.3134 6.07702 19.8272 4.59082 18.0004 4.59082Z" fill="#C0C0C0"/>
</svg>
