<svg width="36" height="36" viewBox="0 0 36 36" fill="none" xmlns="http://www.w3.org/2000/svg">
<g clip-path="url(#clip0_216_23947)">
<path d="M35.742 21.4573L33.4683 18.8362C35.1071 16.786 36 14.2512 36 11.6016C36 5.20446 30.7956 0 24.3985 0C18.0013 0 12.7969 5.20446 12.7969 11.6016C12.7969 12.0291 12.8209 12.4511 12.8662 12.8668C12.4468 12.8212 12.0246 12.7969 11.6016 12.7969C5.20448 12.7969 1.80641e-05 18.0013 1.80641e-05 24.3984C1.80641e-05 27.0481 0.892916 29.5828 2.53176 31.633L0.257995 34.2542C-0.0126382 34.5663 -0.076271 35.0075 0.0952212 35.3832C0.266713 35.7589 0.64169 36 1.05471 36H11.6016C17.9987 36 23.2031 30.7955 23.2031 24.3984C23.2031 23.9754 23.1788 23.5532 23.1332 23.1339C23.5489 23.1791 23.9709 23.2031 24.3985 23.2031H34.9453C35.3583 23.2031 35.7334 22.962 35.9048 22.5863C36.0763 22.2106 36.0127 21.7694 35.742 21.4573ZM11.6016 33.8906H3.36581L4.7246 32.3243C5.07953 31.9151 5.06681 31.3035 4.69514 30.9095C3.02774 29.1415 2.10939 26.8291 2.10939 24.3984C2.10939 19.1644 6.36759 14.9062 11.6016 14.9062C12.1805 14.9062 12.7577 14.959 13.3243 15.0629C14.4576 18.6811 17.3189 21.5424 20.9371 22.6757C21.041 23.2424 21.0938 23.8195 21.0938 24.3984C21.0938 29.6325 16.8356 33.8906 11.6016 33.8906ZM24.3985 21.0938C19.1645 21.0938 14.9063 16.8356 14.9063 11.6016C14.9063 6.36757 19.1645 2.10938 24.3985 2.10938C29.6324 2.10938 33.8906 6.36757 33.8906 11.6016C33.8906 14.0323 32.9723 16.3446 31.3049 18.1126C30.9332 18.5067 30.9205 19.1182 31.2754 19.5274L32.6342 21.0938H24.3985Z" fill="#C0C0C0"/>
<path d="M24.3984 18.7734C24.9809 18.7734 25.4531 18.3012 25.4531 17.7188C25.4531 17.1363 24.9809 16.6641 24.3984 16.6641C23.8159 16.6641 23.3438 17.1363 23.3438 17.7188C23.3438 18.3012 23.8159 18.7734 24.3984 18.7734Z" fill="#C0C0C0"/>
<path d="M24.4808 4.36024C22.4341 4.31826 20.6734 5.81613 20.3905 7.84274C20.3646 8.02809 20.3516 8.21744 20.3516 8.40574C20.3516 8.9882 20.8238 9.46042 21.4062 9.46042C21.9887 9.46042 22.4609 8.9882 22.4609 8.40574C22.4609 8.31461 22.4672 8.2232 22.4796 8.13426C22.613 7.17829 23.4343 6.46877 24.3987 6.46877C24.4119 6.46877 24.425 6.46891 24.4383 6.46919C25.448 6.48951 26.2798 7.29424 26.3321 8.30125C26.36 8.83907 26.1719 9.34954 25.8025 9.73865C25.4327 10.1281 24.9338 10.3426 24.3978 10.3426C23.8154 10.3426 23.3431 10.8149 23.3431 11.3973V14.5256C23.3431 15.1081 23.8154 15.5803 24.3978 15.5803C24.9803 15.5803 25.4525 15.1081 25.4525 14.5256V12.3108C26.1635 12.1177 26.8183 11.7323 27.3321 11.191C28.1039 10.3782 28.4968 9.31312 28.4386 8.19192C28.3293 6.08585 26.5908 4.40277 24.4808 4.36024Z" fill="#C0C0C0"/>
<path d="M15.1172 21.2344H8.08594C7.50347 21.2344 7.03125 21.7066 7.03125 22.2891C7.03125 22.8715 7.50347 23.3438 8.08594 23.3438H15.1172C15.6997 23.3438 16.1719 22.8715 16.1719 22.2891C16.1719 21.7066 15.6997 21.2344 15.1172 21.2344Z" fill="#C0C0C0"/>
<path d="M15.1172 25.4531H8.08594C7.50347 25.4531 7.03125 25.9253 7.03125 26.5078C7.03125 27.0903 7.50347 27.5625 8.08594 27.5625H15.1172C15.6997 27.5625 16.1719 27.0903 16.1719 26.5078C16.1719 25.9253 15.6997 25.4531 15.1172 25.4531Z" fill="#C0C0C0"/>
</g>
<defs>
<clipPath id="clip0_216_23947">
<rect width="36" height="36" fill="white"/>
</clipPath>
</defs>
</svg>
