<svg width="153" height="153" viewBox="0 0 153 153" fill="none" xmlns="http://www.w3.org/2000/svg">
<g opacity="0.45">
<path d="M143.438 109.969H136.266V100.406C136.284 92.0357 134.524 83.7567 131.102 76.1175C133.386 74.1992 135.246 71.827 136.564 69.1514C137.883 66.4758 138.63 63.5554 138.76 60.5755C138.889 57.5956 138.397 54.6214 137.316 51.8416C136.235 49.0618 134.587 46.5372 132.478 44.4281C130.369 42.319 127.844 40.6715 125.065 39.5901C122.285 38.5088 119.311 38.0172 116.331 38.1466C113.351 38.276 110.43 39.0236 107.755 40.3419C105.079 41.6602 102.707 43.5204 100.789 45.8044C95.9416 43.6459 90.8285 42.1425 85.5844 41.3339L87.4969 29.8589C87.6683 28.8239 87.6106 27.7639 87.3278 26.7536C87.045 25.7433 86.544 24.8074 85.8601 24.0118C85.1762 23.2162 84.3261 22.5803 83.3698 22.149C82.4134 21.7177 81.374 21.5015 80.325 21.5156H72.5794C71.5304 21.5015 70.491 21.7177 69.5346 22.149C68.5783 22.5803 67.7282 23.2162 67.0443 24.0118C66.3604 24.8074 65.8594 25.7433 65.5766 26.7536C65.2938 27.7639 65.2361 28.8239 65.4075 29.8589L67.32 41.3339C53.2266 43.5247 40.3813 50.6832 31.1044 61.5165C21.8275 72.3499 16.7306 86.1436 16.7344 100.406V109.969H9.5625C8.92847 109.969 8.32041 110.221 7.87208 110.669C7.42375 111.117 7.17188 111.725 7.17188 112.359V118.336C7.17107 118.742 7.27381 119.142 7.4704 119.498C7.66699 119.853 7.95095 120.153 8.29547 120.368L17.858 126.345C18.2384 126.58 18.6774 126.705 19.125 126.703H133.875C134.323 126.705 134.762 126.58 135.142 126.345L144.705 120.368C145.049 120.153 145.333 119.853 145.53 119.498C145.726 119.142 145.829 118.742 145.828 118.336V112.359C145.828 111.725 145.576 111.117 145.128 110.669C144.68 110.221 144.072 109.969 143.438 109.969ZM117.141 43.0313C120.45 43.0313 123.686 44.0127 126.438 45.8515C129.19 47.6903 131.335 50.3039 132.601 53.3617C133.868 56.4195 134.199 59.7842 133.553 63.0304C132.908 66.2765 131.314 69.2583 128.974 71.5986C126.633 73.939 123.651 75.5328 120.405 76.1785C117.159 76.8242 113.794 76.4928 110.737 75.2262C107.679 73.9596 105.065 71.8147 103.227 69.0628C101.388 66.3108 100.406 63.0754 100.406 59.7656C100.406 55.3274 102.169 51.0709 105.308 47.9326C108.446 44.7943 112.702 43.0313 117.141 43.0313ZM70.2127 29.07C70.1568 28.7256 70.177 28.3731 70.2719 28.0374C70.3667 27.7016 70.534 27.3906 70.7618 27.1264C70.9896 26.8621 71.2725 26.6509 71.5906 26.5076C71.9088 26.3643 72.2544 26.2924 72.6033 26.2969H80.4445C80.7934 26.2924 81.1391 26.3643 81.4572 26.5076C81.7753 26.6509 82.0582 26.8621 82.286 27.1264C82.5139 27.3906 82.6811 27.7016 82.7759 28.0374C82.8708 28.3731 82.891 28.7256 82.8352 29.07L80.8749 40.808C77.9942 40.5928 75.1015 40.5928 72.2208 40.808L70.2127 29.07ZM21.5156 100.406C21.518 91.3218 23.7712 82.3794 28.0739 74.3784C32.3766 66.3775 38.5947 59.5673 46.1724 54.5565C53.75 49.5458 62.4512 46.4907 71.498 45.6642C80.5448 44.8378 89.6555 46.2658 98.0156 49.8206C88.4531 68.3719 108.487 88.4531 127.086 78.8906C129.993 85.691 131.489 93.0106 131.484 100.406V109.969H21.5156V100.406ZM141.047 117.141L133.182 121.922H19.8183L11.9531 117.141V114.75H141.047V117.141Z" fill="#5F38F9"/>
<path d="M114.75 69.3281H119.531V62.1562H126.703V57.375H119.531V50.2031H114.75V57.375H107.578V62.1562H114.75V69.3281Z" fill="#5F38F9"/>
<path d="M50.2031 57.7097C44.0668 61.4934 38.8173 66.5543 34.8117 72.5482C30.8062 78.5421 28.1385 85.3284 26.9902 92.4455C26.8938 93.0697 27.0484 93.7068 27.4201 94.2174C27.7919 94.728 28.3507 95.0708 28.9744 95.1708H29.3569C29.9299 95.1782 30.4865 94.9794 30.9253 94.6109C31.3641 94.2423 31.6559 93.7283 31.7475 93.1627C32.7738 86.7436 35.1659 80.6197 38.7622 75.2046C42.3585 69.7895 47.0753 65.2094 52.5938 61.7737C52.9183 61.6497 53.212 61.4563 53.4542 61.2072C53.6964 60.958 53.8814 60.6591 53.9963 60.3311C54.1112 60.0032 54.1532 59.6541 54.1195 59.3083C54.0857 58.9624 53.9769 58.6281 53.8007 58.3286C53.6245 58.0291 53.3852 57.7716 53.0993 57.574C52.8134 57.3765 52.4879 57.2436 52.1455 57.1847C51.803 57.1258 51.4518 57.1422 51.1164 57.2329C50.7809 57.3236 50.4693 57.4863 50.2031 57.7097Z" fill="#5F38F9"/>
</g>
</svg>
