<svg xmlns="http://www.w3.org/2000/svg" width="191.821" height="167" viewBox="0 0 191.821 167">
    <g data-name="25540 [Converted]" style="opacity:.7">
        <g data-name="Group 7864">
            <g data-name="Group 7855">
                <g data-name="Group 7851">
                    <path data-name="Path 3954" d="M254.4 399.081a42.132 42.132 0 0 0 2.629-7.387 66.245 66.245 0 1 1 19.793 7.967 42.014 42.014 0 0 1-35.653 15.557 41.707 41.707 0 0 0 13.231-16.137z" transform="translate(-225 -268.48)" style="fill:#dddffb"/>
                </g>
                <g data-name="Group 7853">
                    <g data-name="Group 7852">
                        <path data-name="Path 3955" d="M255.515 360.734a58.632 58.632 0 0 1 105.11-35.744 58.637 58.637 0 1 0-97.325 64.965 58.349 58.349 0 0 1-7.785-29.221z" transform="translate(-243.686 -287.844)" style="fill:#f1f2ff"/>
                    </g>
                </g>
                <g data-name="Group 7854">
                    <path data-name="Path 3956" d="M384.4 357.8c0-.043 0-.083-.006-.123a66.247 66.247 0 0 0-31.568-54.187 66.3 66.3 0 0 1-90.536 92.21 66.671 66.671 0 0 0 21.246 20.832c-.017.023-.031.049-.049.071.063.037.12.077.183.114a41.982 41.982 0 0 1-15.857 23.527 42.014 42.014 0 0 0 35.653-15.557c.034.009.066.014.1.02 0-.014-.006-.026-.009-.04A66.346 66.346 0 0 0 384.4 357.8z" transform="translate(-251.646 -293.496)" style="fill:#c1c6fa"/>
                </g>
            </g>
            <g data-name="Group 7860">
                <g data-name="Group 7856">
                    <path data-name="Path 3957" d="M535.2 469.691a42.128 42.128 0 0 1-2.629-7.387 66.244 66.244 0 1 0-19.793 7.967 42.014 42.014 0 0 0 35.653 15.557 41.706 41.706 0 0 1-13.231-16.137z" transform="translate(-372.769 -318.934)" style="fill:#e7e8fd"/>
                </g>
                <g data-name="Group 7857">
                    <path data-name="Path 3958" d="M561.834 494.729a42.171 42.171 0 0 1-2.62-7.347 66.3 66.3 0 0 0 .408-113.252 66.3 66.3 0 0 1-90.542 92.208 66.361 66.361 0 0 0 70.343 28.99 42.014 42.014 0 0 0 35.638 15.54 41.756 41.756 0 0 1-13.227-16.139z" transform="translate(-399.407 -343.972)" style="fill:#c1c6fa"/>
                </g>
                <g data-name="Group 7859">
                    <g data-name="Group 7858">
                        <path data-name="Path 3959" d="M462.3 431.384a58.632 58.632 0 0 1 105.115-35.744 58.637 58.637 0 1 0-97.321 64.96 58.35 58.35 0 0 1-7.794-29.216z" transform="translate(-391.447 -338.327)" style="fill:#f1f2ff"/>
                    </g>
                </g>
            </g>
            <g data-name="Group 7861" transform="translate(94.755 81.844)">
                <circle data-name="Ellipse 1519" cx="6.234" cy="6.234" r="6.234" style="fill:#fff"/>
            </g>
            <g data-name="Group 7862" transform="translate(119.192 81.844)">
                <circle data-name="Ellipse 1520" cx="6.234" cy="6.234" r="6.234" style="fill:#fff"/>
            </g>
            <g data-name="Group 7863" transform="translate(143.03 81.844)">
                <circle data-name="Ellipse 1521" cx="6.234" cy="6.234" r="6.234" style="fill:#fff"/>
            </g>
        </g>
    </g>
</svg>
