<svg xmlns="http://www.w3.org/2000/svg" width="192.817" height="170.359" viewBox="0 0 192.817 170.359">
    <g data-name="5964" style="opacity:.4">
        <g data-name="Group 7895">
            <g data-name="Group 7894">
                <g data-name="Group 7881">
                    <path data-name="Path 3991" d="m1060.19 726.224 88.483-52.972a15.427 15.427 0 0 1 15.85 0l88.484 52.972v86.337l-192.815-9.667v-76.67z" transform="translate(-1060.19 -671.06)" style="fill:#c1c6fa"/>
                    <path data-name="Rectangle 5051" transform="translate(16.597 16.91)" style="fill:#fafafa" d="M0 0h159.622v137.945H0z"/>
                    <g data-name="Group 7876" transform="translate(20.973 20.785)">
                        <circle data-name="Ellipse 1522" cx="1.641" cy="1.641" r="1.641" transform="rotate(-22.5 3.157 .628)" style="fill:#c1c6fa"/>
                        <path data-name="Path 3992" d="M2143.35 809.981a1.641 1.641 0 1 1 1.641 1.641 1.641 1.641 0 0 1-1.641-1.641z" transform="translate(-1996.356 -807.837)" style="fill:#c1c6fa"/>
                        <g data-name="Group 7873">
                            <path data-name="Rectangle 5052" style="fill:#c1c6fa" d="M0 0h146.497v.357H0z" transform="translate(2.138 1.966)"/>
                        </g>
                        <g data-name="Group 7874">
                            <path data-name="Rectangle 5053" style="fill:#c1c6fa" d="M0 0h.357v146.497H0z" transform="translate(1.959 1.491)"/>
                        </g>
                        <g data-name="Group 7875">
                            <path data-name="Rectangle 5054" style="fill:#c1c6fa" d="M0 0h.357v146.497H0z" transform="translate(148.514 1.491)"/>
                        </g>
                    </g>
                    <g data-name="Group 7877">
                        <path data-name="Path 3993" d="M1253.007 1025.26v115.433H1060.19V1025.26l96.408 57.717z" transform="translate(-1060.19 -970.334)" style="fill:#e0e2fe"/>
                        <path data-name="Path 3994" d="m1060.19 1410.49 88.314-63.315a13.889 13.889 0 0 1 16.186 0l88.314 63.315z" transform="translate(-1060.19 -1240.131)" style="fill:#c1c6fa"/>
                    </g>
                    <path data-name="Path 3995" d="M1546.215 886.6h-58.2a1.541 1.541 0 0 1-1.537-1.537 1.541 1.541 0 0 1 1.537-1.537h58.2a1.541 1.541 0 0 1 1.537 1.537 1.541 1.541 0 0 1-1.537 1.537z" transform="translate(-1420.375 -850.582)" style="fill:#c1c6fa"/>
                    <path data-name="Path 3996" d="M1479.518 926.354h-88.181a1.541 1.541 0 0 1-1.537-1.537 1.541 1.541 0 0 1 1.537-1.537h88.181a1.542 1.542 0 0 1 1.537 1.537 1.541 1.541 0 0 1-1.537 1.537z" transform="translate(-1338.687 -884.168)" style="fill:#c1c6fa"/>
                    <g data-name="Group 7880">
                        <path data-name="Path 3997" d="M1540.933 1054.294h-63.8a1.116 1.116 0 0 1-1.112-1.112 1.116 1.116 0 0 1 1.112-1.112h63.8a1.116 1.116 0 0 1 1.112 1.112 1.116 1.116 0 0 1-1.112 1.112z" transform="translate(-1411.537 -992.986)" style="fill:#c1c6fa"/>
                        <g data-name="Group 7878">
                            <path data-name="Path 3998" d="M1420.422 1091.734h-17.99a1.116 1.116 0 0 1-1.112-1.112 1.116 1.116 0 0 1 1.112-1.112h17.99a1.116 1.116 0 0 1 1.112 1.112 1.116 1.116 0 0 1-1.112 1.112z" transform="translate(-1348.421 -1024.62)" style="fill:#c1c6fa"/>
                            <path data-name="Path 3999" d="M1574.977 1091.734h-21.735a1.116 1.116 0 0 1-1.112-1.112 1.116 1.116 0 0 1 1.112-1.112h21.733a1.116 1.116 0 0 1 1.112 1.112 1.114 1.114 0 0 1-1.11 1.112z" transform="translate(-1475.845 -1024.62)" style="fill:#c1c6fa"/>
                            <path data-name="Path 4000" d="M1758.534 1091.734h-37.572a1.116 1.116 0 0 1-1.112-1.112 1.116 1.116 0 0 1 1.112-1.112h37.572a1.116 1.116 0 0 1 1.112 1.112 1.116 1.116 0 0 1-1.112 1.112z" transform="translate(-1617.556 -1024.62)" style="fill:#c1c6fa"/>
                        </g>
                        <g data-name="Group 7879">
                            <path data-name="Path 4001" d="M1503.909 1135.264h-34.947a1.116 1.116 0 0 1-1.112-1.112 1.116 1.116 0 0 1 1.112-1.112h34.947a1.116 1.116 0 0 1 1.112 1.112 1.115 1.115 0 0 1-1.112 1.112z" transform="translate(-1404.634 -1061.4)" style="fill:#c1c6fa"/>
                            <path data-name="Path 4002" d="M1746.747 1135.264h-27.525a1.116 1.116 0 0 1-1.112-1.112 1.116 1.116 0 0 1 1.112-1.112h27.525a1.116 1.116 0 0 1 1.112 1.112 1.115 1.115 0 0 1-1.112 1.112z" transform="translate(-1616.086 -1061.4)" style="fill:#c1c6fa"/>
                        </g>
                    </g>
                </g>
            </g>
        </g>
    </g>
</svg>
