<svg xmlns="http://www.w3.org/2000/svg" width="27.542" height="30">
    <defs>
        <style>
            .cls-1{fill:#9b9b9b}
        </style>
    </defs>
    <g id="Notifications" transform="translate(-286.229 -1174)">
        <path id="Path_3688" data-name="Path 3688" class="cls-1" d="M34.172 30c-.217-.049-.438-.087-.652-.148a4.637 4.637 0 0 1-3.374-3.367c-.059-.2-.133-.238-.316-.237q-2.709.009-5.419 0a2.167 2.167 0 0 1-2.218-2.018 2.074 2.074 0 0 1 .749-1.824A8.621 8.621 0 0 0 25 19.808a8.48 8.48 0 0 0 .924-3.949c0-1.338-.059-2.681.047-4.011A8.508 8.508 0 0 1 30.546 4.8a8.47 8.47 0 0 1 3.2-1v-.351c0-.762.021-1.523-.007-2.285A1.071 1.071 0 0 1 34.465 0h.469a1.18 1.18 0 0 1 .7 1.253c-.028.837-.007 1.676-.007 2.51.513.117 1.011.2 1.495.339a8.654 8.654 0 0 1 6.252 7.576c.112 1.4.054 2.809.059 4.214a8.287 8.287 0 0 0 1.909 5.4 16.425 16.425 0 0 0 1.158 1.195 2.153 2.153 0 0 1 .477 2.477 2.107 2.107 0 0 1-2 1.283c-1.787.013-3.574 0-5.36 0h-.337c-.03.112-.054.215-.087.315a4.65 4.65 0 0 1-3.809 3.38 1.167 1.167 0 0 0-.159.055zm.486-5.625h10.164c.193 0 .42 0 .448-.22a.6.6 0 0 0-.2-.434 10.251 10.251 0 0 1-3.516-7.962c0-1.064.016-2.129-.006-3.193a7.682 7.682 0 0 0-.149-1.481 6.86 6.86 0 0 0-13.552.823c-.078 1.314-.047 2.637-.045 3.952a10.042 10.042 0 0 1-2.028 6.229c-.455.6-1.031 1.113-1.537 1.682a.49.49 0 0 0-.135.393c.04.1.234.151.364.206a.573.573 0 0 0 .2 0zm-2.584 1.89a2.739 2.739 0 0 0 2.777 1.855 2.676 2.676 0 0 0 2.42-1.855z" transform="translate(265.346 1174)"/>
        <path id="Path_3689" data-name="Path 3689" class="cls-1" d="M372.512 34.435c0 .192.007.378 0 .563a.916.916 0 0 1-.845.888.891.891 0 0 1-.991-.754c-.064-.487-.052-.993-.1-1.487a13.2 13.2 0 0 0-3.482-7.787c-.1-.108-.2-.212-.3-.318a.966.966 0 0 1-.059-1.427.954.954 0 0 1 1.4.117 15.229 15.229 0 0 1 4.378 10.205z" transform="translate(-58.745 1151.541)"/>
        <path id="Path_3690" data-name="Path 3690" class="cls-1" d="M0 34.572a15.454 15.454 0 0 1 4.444-10.308.942.942 0 1 1 1.349 1.3 13.336 13.336 0 0 0-3.486 6.227 13.765 13.765 0 0 0-.388 3.189.948.948 0 0 1-.7.93.9.9 0 0 1-1.039-.463 4.254 4.254 0 0 1-.18-.875z" transform="translate(286.229 1151.5)"/>
    </g>
</svg>
