<svg xmlns="http://www.w3.org/2000/svg" width="14.266" height="18" viewBox="0 0 14.266 18"><defs><style>.a{fill:#c5c5c5;}</style></defs><g transform="translate(-53.013)"><path class="a" d="M184.9,465.044a2.719,2.719,0,0,0,4.977,0Z" transform="translate(-127.246 -448.668)"/><path class="a" d="M198.365,1.72a6.116,6.116,0,0,1,2.088.366v-.08A2.007,2.007,0,0,0,198.448,0h-.166a2.007,2.007,0,0,0-2.005,2.005v.079A6.128,6.128,0,0,1,198.365,1.72Z" transform="translate(-138.219)"/><path class="a" d="M66.738,91.38H53.556a.537.537,0,0,1-.53-.412.512.512,0,0,1,.282-.583,2.8,2.8,0,0,0,.851-1.157,13.371,13.371,0,0,0,.887-5.291,5.1,5.1,0,0,1,10.2-.02q0,.01,0,.02a13.371,13.371,0,0,0,.887,5.291,2.8,2.8,0,0,0,.851,1.157.512.512,0,0,1,.282.583A.537.537,0,0,1,66.738,91.38Zm.254-.992h0Z" transform="translate(0 -76.06)"/></g></svg>