<svg xmlns="http://www.w3.org/2000/svg" width="17.431" height="15.971" viewBox="0 0 17.431 15.971">
    <g data-name="Group 4843">
        <path data-name="Path 1951" d="M81.016 81.8H70.631a2.141 2.141 0 0 0-4.061 0h-1.621a.683.683 0 0 0 0 1.366h1.621a2.141 2.141 0 0 0 4.061 0h10.386a.683.683 0 0 0 0-1.366zM68.6 83.261a.78.78 0 1 1 .779-.78.78.78 0 0 1-.779.78z" transform="translate(-64.267 -80.334)" style="fill:#fff"/>
        <path data-name="Path 1952" d="M81.017 210.33H79.4a2.141 2.141 0 0 0-4.061 0h-10.39a.683.683 0 0 0 0 1.366h10.385a2.141 2.141 0 0 0 4.061 0h1.621a.683.683 0 0 0 0-1.366zm-3.652 1.463a.78.78 0 1 1 .779-.78.78.78 0 0 1-.779.781z" transform="translate(-64.267 -203.028)" style="fill:#fff"/>
        <path data-name="Path 1953" d="M81.016 338.863h-7.463a2.141 2.141 0 0 0-4.061 0h-4.543a.683.683 0 0 0 0 1.366h4.542a2.141 2.141 0 0 0 4.061 0h7.464a.683.683 0 0 0 0-1.366zm-9.494 1.463a.78.78 0 1 1 .779-.78.78.78 0 0 1-.779.781z" transform="translate(-64.267 -325.722)" style="fill:#fff"/>
    </g>
</svg>
