<svg xmlns="http://www.w3.org/2000/svg" width="18.333" height="22" viewBox="0 0 18.333 22">
    <path data-name="Path 5204" d="M19.764 15.5a6.14 6.14 0 0 1-2.181-4.7V8.25a6.422 6.422 0 0 0-5.5-6.343v-.99a.917.917 0 1 0-1.833 0v.99a6.421 6.421 0 0 0-5.5 6.343v2.556a6.147 6.147 0 0 1-2.189 4.705A1.6 1.6 0 0 0 3.6 18.333h15.129a1.6 1.6 0 0 0 1.035-2.83z" style="fill:#9eaeb8" transform="translate(-2)"/>
    <path data-name="Path 5205" d="M11.694 23.75A3.443 3.443 0 0 0 15.062 21H8.326a3.443 3.443 0 0 0 3.368 2.75z" transform="translate(-2.527 -1.75)" style="fill:#9eaeb8"/>
</svg>
