<svg xmlns="http://www.w3.org/2000/svg" width="42" height="30" viewBox="0 0 42 30"><defs><style>.a{fill:#9b9b9b;}</style></defs><g transform="translate(0 -74.142)"><path class="a" d="M.892,86.284H4.138v.756a.619.619,0,1,0,1.237,0v-.756H7.029v4.369H5.375v-.727a.619.619,0,0,0-1.237,0v.727H4A3.738,3.738,0,0,0,.264,94.387V98.34A3.738,3.738,0,0,0,4,102.074h.141v1.043a1.027,1.027,0,0,0,1.026,1.026H7.241a1.027,1.027,0,0,0,1.026-1.026v-1.044a3.737,3.737,0,0,0,3.709-3.733V92.633A1.982,1.982,0,0,0,10,90.654H8.267v-4.37h3.246a.893.893,0,0,0,.892-.892V75.035a.893.893,0,0,0-.892-.892H.892A.893.893,0,0,0,0,75.035V85.392a.893.893,0,0,0,.892.892Zm6.137,16.622H5.375v-.832H7.029ZM9.79,91.891H10a.743.743,0,0,1,.742.742V95a.743.743,0,0,1-.742.742H9.79a1.888,1.888,0,0,0-.377-1.927,1.89,1.89,0,0,0,.377-1.927ZM9.9,97.727a1.893,1.893,0,0,0-.113-.745H10a1.969,1.969,0,0,0,.742-.144v1.5a2.5,2.5,0,0,1-1.184,2.122,1.9,1.9,0,0,0-.331-1.38A1.869,1.869,0,0,0,9.9,97.727ZM8.669,92.545a.655.655,0,0,1-.654.654h-3.6a.619.619,0,1,0,0,1.237h3.6a.654.654,0,0,1,0,1.309h-3.6a.619.619,0,1,0,0,1.237h3.6a.654.654,0,0,1,.653.687.681.681,0,0,1-.689.622H4.417a.619.619,0,1,0,0,1.237h3.27a.654.654,0,0,1,.65.687.681.681,0,0,1-.689.622H4a2.5,2.5,0,0,1-2.5-2.5V94.387a2.5,2.5,0,0,1,2.5-2.5H8.016a.655.655,0,0,1,.654.654ZM1.237,75.38h9.93v9.667H1.237Z" transform="translate(0 -0.001)"/><path class="a" d="M232.568,103.806a2.121,2.121,0,1,0,.884,4.049v1.077a.884.884,0,0,1-1.768,0,.619.619,0,0,0-1.237,0,2.121,2.121,0,0,0,4.243,0v-3.005A2.124,2.124,0,0,0,232.568,103.806Zm0,3.005a.884.884,0,1,1,.884-.884A.885.885,0,0,1,232.568,106.811Z" transform="translate(-211.555 -27.217)"/><path class="a" d="M413.537,111.053a2.12,2.12,0,0,0,1.5-3.624,2.121,2.121,0,1,0-2.992,0,2.12,2.12,0,0,0,1.5,3.624Zm0-6.01a.884.884,0,1,1-.884.884.885.885,0,0,1,.884-.884Zm0,3.005a.884.884,0,1,1-.884.884A.885.885,0,0,1,413.537,108.048Z" transform="translate(-377.712 -27.216)"/><path class="a" d="M53.1,103.806H50.1a.619.619,0,1,0,0,1.237H52.31L51,110.285a.619.619,0,0,0,1.2.3l1.5-6.011a.618.618,0,0,0-.6-.769Z" transform="translate(-45.397 -27.217)"/><path class="a" d="M192.321,86.284a.893.893,0,0,0,.892-.892V75.035a.893.893,0,0,0-.892-.892H181.7a.893.893,0,0,0-.892.892V85.392a.893.893,0,0,0,.892.892h3.246v4.37h-.141a3.738,3.738,0,0,0-3.734,3.734v.43a.619.619,0,1,0,1.237,0v-.43a2.5,2.5,0,0,1,2.5-2.5h4.017a.654.654,0,1,1,0,1.308h-3.6a.619.619,0,0,0,0,1.237h3.6a.654.654,0,1,1,0,1.309h-3.6a.619.619,0,0,0,0,1.237h3.6a.654.654,0,0,1,.653.687.68.68,0,0,1-.689.622h-3.562a.619.619,0,0,0,0,1.237h3.267a.654.654,0,0,1,.654.687.68.68,0,0,1-.689.622h-3.65a2.5,2.5,0,0,1-2.5-2.5V97.7a.619.619,0,1,0-1.237,0v.636a3.738,3.738,0,0,0,3.734,3.733h.141v1.043a1.027,1.027,0,0,0,1.026,1.026h2.077a1.027,1.027,0,0,0,1.026-1.026v-1.043a3.737,3.737,0,0,0,3.709-3.733V92.633a1.982,1.982,0,0,0-1.979-1.979h-1.73v-4.37Zm-4.483,16.622h-1.654v-.832h1.654Zm2.76-11.015h.206a.743.743,0,0,1,.742.742V95a.743.743,0,0,1-.742.742H190.6a1.888,1.888,0,0,0-.377-1.927,1.89,1.89,0,0,0,.377-1.927Zm.115,5.836a1.894,1.894,0,0,0-.113-.745h.205a1.968,1.968,0,0,0,.742-.144v1.5a2.5,2.5,0,0,1-1.184,2.122,1.9,1.9,0,0,0-.331-1.38A1.87,1.87,0,0,0,190.712,97.727Zm-2.875-7.074h-1.654v-4.37h1.654Zm-5.792-5.607V75.38h9.93v9.667h-9.93Z" transform="translate(-166.01 -0.001)"/><path class="a" d="M373.121,74.142H362.5a.893.893,0,0,0-.892.892v4.389a.619.619,0,1,0,1.237,0V75.379h9.93v9.667h-9.93V82.31a.619.619,0,0,0-1.237,0v3.081a.893.893,0,0,0,.892.892h3.246v4.369h-.141a3.738,3.738,0,0,0-3.734,3.734v3.953a3.738,3.738,0,0,0,3.734,3.733h.141v1.043a1.027,1.027,0,0,0,1.026,1.026h2.077a1.027,1.027,0,0,0,1.026-1.026v-1.043a3.737,3.737,0,0,0,3.709-3.733V92.632a1.982,1.982,0,0,0-1.979-1.979h-1.73v-4.37h3.246a.893.893,0,0,0,.892-.892V75.034A.893.893,0,0,0,373.121,74.142Zm-6.137,12.141h1.654v4.369h-1.654Zm1.654,16.622h-1.654v-.832h1.654ZM371.4,91.89h.206a.743.743,0,0,1,.742.742V95a.743.743,0,0,1-.742.742H371.4a1.889,1.889,0,0,0-.377-1.927,1.89,1.89,0,0,0,.377-1.927Zm.115,5.836a1.894,1.894,0,0,0-.113-.745h.205a1.968,1.968,0,0,0,.742-.144v1.5a2.5,2.5,0,0,1-1.184,2.122,1.9,1.9,0,0,0,.019-.19,1.876,1.876,0,0,0-.35-1.19,1.87,1.87,0,0,0,.68-1.356Zm-1.235-5.182a.655.655,0,0,1-.654.654h-3.6a.619.619,0,0,0,0,1.237h3.6a.654.654,0,1,1,0,1.308h-3.6a.619.619,0,1,0,0,1.237h3.6a.654.654,0,0,1,.653.687.681.681,0,0,1-.689.622h-3.562a.619.619,0,1,0,0,1.237H369.3a.654.654,0,0,1,.647.687.681.681,0,0,1-.689.622h-3.65a2.5,2.5,0,0,1-2.5-2.5V94.386a2.5,2.5,0,0,1,2.5-2.5h4.018A.655.655,0,0,1,370.277,92.544Z" transform="translate(-332.013)"/></g></svg>