<svg xmlns="http://www.w3.org/2000/svg" width="29.964" height="30" viewBox="0 0 29.964 30"><defs><style>.a{fill:#9b9b9b;}</style></defs><path class="a" d="M209.909,2.2a.5.5,0,0,0-.4-.34L208,1.643,207.325.277a.5.5,0,0,0-.9,0l-.675,1.366-1.507.219a.5.5,0,0,0-.277.851l1.091,1.064-.257,1.5a.5.5,0,0,0,.724.526l1.348-.709,1.348.709a.5.5,0,0,0,.725-.526l-.257-1.5,1.091-1.064a.5.5,0,0,0,.126-.512Zm-2.1,1.044a.5.5,0,0,0-.143.442l.131.762-.687-.36a.5.5,0,0,0-.465,0l-.686.36.131-.762a.5.5,0,0,0-.143-.442l-.554-.54.769-.111a.5.5,0,0,0,.376-.273l.343-.694.342.694a.5.5,0,0,0,.376.273l.766.111Zm0,0" transform="translate(-191.878 0.001)"/><path class="a" d="M80.331,30.646l-1.507-.219-.675-1.366a.52.52,0,0,0-.9,0l-.674,1.366-1.507.219a.5.5,0,0,0-.277.852l1.091,1.064-.257,1.5a.5.5,0,0,0,.725.526L77.7,33.88l1.348.709a.5.5,0,0,0,.724-.526l-.257-1.5L80.609,31.5a.5.5,0,0,0-.277-.852Zm-1.7,1.384a.5.5,0,0,0-.143.442l.131.762-.685-.36a.5.5,0,0,0-.465,0l-.685.36.131-.762a.5.5,0,0,0-.143-.442l-.555-.541.766-.111a.5.5,0,0,0,.376-.274l.343-.694.343.694a.5.5,0,0,0,.376.273l.767.111Zm0,0" transform="translate(-70.271 -27.117)"/><path class="a" d="M338.428,30.635a.5.5,0,0,0-.4-.34l-1.507-.219-.674-1.366a.5.5,0,0,0-.9,0l-.675,1.366-1.507.219a.5.5,0,0,0-.278.854l1.09,1.064-.257,1.5a.5.5,0,0,0,.724.526l1.348-.709,1.348.709a.5.5,0,0,0,.724-.526l-.257-1.5,1.091-1.064A.5.5,0,0,0,338.428,30.635Zm-2.1,1.044a.5.5,0,0,0-.143.442l.131.762-.685-.36a.5.5,0,0,0-.465,0l-.686.36.131-.762a.5.5,0,0,0-.143-.442l-.555-.541.767-.111a.5.5,0,0,0,.376-.273l.343-.694.342.694a.5.5,0,0,0,.376.274l.766.111Zm0,0" transform="translate(-312.863 -26.766)"/><path class="a" d="M412.7,122.2l-1.508-.219-.675-1.366a.519.519,0,0,0-.9,0l-.674,1.366-1.508.219a.5.5,0,0,0-.277.852l1.091,1.063-.257,1.5a.5.5,0,0,0,.724.526l1.348-.709,1.348.709a.5.5,0,0,0,.724-.526l-.257-1.5,1.092-1.063a.5.5,0,0,0-.277-.852Zm-1.7,1.383a.5.5,0,0,0-.143.442l.131.763-.685-.36a.5.5,0,0,0-.465,0l-.685.36.131-.763a.5.5,0,0,0-.143-.442l-.555-.54.766-.111a.5.5,0,0,0,.376-.274l.342-.694.343.694a.5.5,0,0,0,.376.274l.767.111Zm0,0" transform="translate(-383.17 -113.303)"/><path class="a" d="M3.5,120.258a.5.5,0,0,0-.9,0l-.675,1.366-1.508.219a.5.5,0,0,0-.278.852l1.091,1.063-.257,1.5a.5.5,0,0,0,.724.526l1.348-.709,1.348.709a.5.5,0,0,0,.725-.526l-.257-1.5,1.09-1.063a.5.5,0,0,0-.276-.852l-1.508-.219Zm.482,2.967a.5.5,0,0,0-.144.442l.131.763-.685-.36a.5.5,0,0,0-.465,0l-.686.36.131-.763a.5.5,0,0,0-.143-.442l-.555-.54.767-.109a.5.5,0,0,0,.376-.274l.342-.694.343.694a.5.5,0,0,0,.376.274l.766.111Zm0,0" transform="translate(0.001 -112.949)"/><path class="a" d="M66.2,148.178H65.169v-1a.5.5,0,0,0-.5-.5H60.175a.5.5,0,0,0-.5.5v10.986a.5.5,0,0,0,.5.5h4.494a.5.5,0,0,0,.5-.5v-1H66.46l.852.852a.5.5,0,0,0,.353.146h7.269a1.991,1.991,0,0,0,1.72,1h3.5a.5.5,0,0,0,.5-.5V150.1a1.993,1.993,0,0,0-.5-3.924H74.057q.154-.332.336-.649a9.609,9.609,0,0,0,1.262-4.762v-.076a3.5,3.5,0,0,0-3.49-3.49,1.506,1.506,0,0,0-1.5,1.5v1.386a4.525,4.525,0,0,1-1.334,3.22l-1.534,1.534a5.506,5.506,0,0,0-1.593,3.331Zm-2.031,9.488h-3.5v-9.987h3.5Zm2-1.5h-1v-6.991h1Zm10.986-8.989h3a1,1,0,0,1,0,2h-3a1,1,0,0,1,0-2Zm-.5,3h3v2h-3a1,1,0,1,1,0-2Zm0,3h3v2h-3a1,1,0,1,1,0-2Zm0,3h3v2h-3a1,1,0,1,1,0-2Zm-1.221-8.989a1.948,1.948,0,0,0,.2,2.285,1.976,1.976,0,0,0-.291,3.208,1.971,1.971,0,0,0,0,3,1.984,1.984,0,0,0-.69,1.5H67.872l-.706-.706v-3.289h2.539a3.488,3.488,0,0,0,3.2-2.09.486.486,0,0,0,.035-.117l.443-2.613a8.587,8.587,0,0,1,.294-1.173Zm-5.4-3.16a5.514,5.514,0,0,0,1.626-3.926v-1.386a.506.506,0,0,1,.5-.5,2.5,2.5,0,0,1,2.491,2.491v.076a8.609,8.609,0,0,1-1.133,4.262,9.572,9.572,0,0,0-1.128,3.151l-.436,2.551a2.489,2.489,0,0,1-2.254,1.439H67.166v-3.4a4.524,4.524,0,0,1,1.334-3.22Zm0,0" transform="translate(-56.179 -129.164)"/></svg>