<svg xmlns="http://www.w3.org/2000/svg" width="35.151" height="30" viewBox="0 0 35.151 30"><defs><style>.a{fill:#9b9b9b;}</style></defs><g transform="translate(14.646)"><path class="a" d="M12.929,5.858a2.929,2.929,0,1,1,2.929-2.929A2.938,2.938,0,0,1,12.929,5.858Zm0-4.394a1.384,1.384,0,0,0-1.465,1.465,1.384,1.384,0,0,0,1.465,1.465,1.384,1.384,0,0,0,1.465-1.465A1.384,1.384,0,0,0,12.929,1.465Z" transform="translate(-10)"/></g><g transform="translate(16.843 4.394)"><path class="a" d="M12.232,8.858a.692.692,0,0,1-.732-.732V3.732a.732.732,0,1,1,1.465,0V8.126A.692.692,0,0,1,12.232,8.858Z" transform="translate(-11.5 -3)"/></g><g transform="translate(25.045 4.247)"><path class="a" d="M20.029,8.758a2.892,2.892,0,0,1-2.05-.879,2.832,2.832,0,0,1,0-4.1,2.832,2.832,0,0,1,4.1,0,2.832,2.832,0,0,1,0,4.1A2.892,2.892,0,0,1,20.029,8.758Zm0-4.394A1.33,1.33,0,0,0,19,4.8a1.45,1.45,0,1,0,2.05,0,1.582,1.582,0,0,0-1.025-.439Z" transform="translate(-17.1 -2.9)"/></g><g transform="translate(22.482 8.129)"><path class="a" d="M16.156,10.017a.881.881,0,0,1-.586-.146.708.708,0,0,1,0-1.025L18.645,5.77a.725.725,0,1,1,1.025,1.025L16.595,9.871A.538.538,0,0,1,16.156,10.017Z" transform="translate(-15.35 -5.55)"/></g><g transform="translate(29.292 14.646)"><path class="a" d="M22.929,15.858a2.929,2.929,0,1,1,2.929-2.929A2.938,2.938,0,0,1,22.929,15.858Zm0-4.394a1.384,1.384,0,0,0-1.465,1.465,1.465,1.465,0,1,0,2.929,0A1.384,1.384,0,0,0,22.929,11.465Z" transform="translate(-20 -10)"/></g><g transform="translate(24.898 16.843)"><path class="a" d="M22.126,12.965H17.732a.732.732,0,0,1,0-1.465h4.394a.732.732,0,1,1,0,1.465Z" transform="translate(-17 -11.5)"/></g><g transform="translate(0 14.646)"><path class="a" d="M2.929,15.858a2.929,2.929,0,1,1,2.929-2.929A2.938,2.938,0,0,1,2.929,15.858Zm0-4.394a1.384,1.384,0,0,0-1.465,1.465,1.384,1.384,0,0,0,1.465,1.465,1.384,1.384,0,0,0,1.465-1.465A1.384,1.384,0,0,0,2.929,11.465Z" transform="translate(0 -10)"/></g><g transform="translate(4.394 16.843)"><path class="a" d="M8.126,12.965H3.732a.732.732,0,1,1,0-1.465H8.126a.732.732,0,0,1,0,1.465Z" transform="translate(-3 -11.5)"/></g><g transform="translate(4.247 4.247)"><path class="a" d="M5.829,8.758a2.892,2.892,0,0,1-2.05-.879,2.832,2.832,0,0,1,0-4.1,2.832,2.832,0,0,1,4.1,0,2.832,2.832,0,0,1,0,4.1A2.659,2.659,0,0,1,5.829,8.758Zm0-4.394A1.582,1.582,0,0,0,4.8,4.8a1.45,1.45,0,0,0,2.05,2.05,1.416,1.416,0,0,0,0-2.05,1.33,1.33,0,0,0-1.025-.439Z" transform="translate(-2.9 -2.9)"/></g><g transform="translate(7.982 7.982)"><path class="a" d="M9.331,10.064a.881.881,0,0,1-.586-.146L5.67,6.695A.725.725,0,0,1,6.695,5.67L9.771,8.745a.708.708,0,0,1,0,1.025c0,.293-.293.293-.439.293Z" transform="translate(-5.45 -5.45)"/></g><g transform="translate(13.398 15.991)"><g transform="translate(0 0)"><path class="a" d="M125.6,113.681a1.681,1.681,0,0,0-3.362,0v3.979A2.806,2.806,0,0,0,120,120.406v2.428l1.681,2.241v.934H122.8V124.7l-1.681-2.241v-2.055a1.684,1.684,0,0,1,1.121-1.585v2.706h1.121v-7.845a.56.56,0,0,1,1.121,0v3.779l1.6.479.322-1.074-.8-.239Z" transform="translate(-120 -112)"/><path class="a" d="M361.215,278.512l-.322,1.074.787.236v3.319L360,285.382v1.307h1.121v-.934l1.681-2.241v-4.526Z" transform="translate(-351.594 -272.68)"/><rect class="a" width="1.121" height="1.121" transform="translate(7.152 6.26) rotate(-73.292)"/></g></g></svg>