<svg xmlns="http://www.w3.org/2000/svg" width="38" height="38" viewBox="0 0 38 38">
    <g data-name="Group 10301" transform="translate(-649 -306)">
        <circle data-name="Ellipse 2153" cx="19" cy="19" r="19" transform="translate(649 306)" style="fill:#2fc58d;opacity:.29"/>
        <path data-name="Path 8689" d="M12.415 9.32a3.738 3.738 0 0 1 1.74 2.777 3.016 3.016 0 1 0-1.74-2.777zm-1.977 6.18a3.017 3.017 0 1 0-3.018-3.02 3.017 3.017 0 0 0 3.018 3.02zm1.28.206h-2.56a3.868 3.868 0 0 0-3.863 3.864v3.13l.008.049.216.068a17.585 17.585 0 0 0 5.253.847 10.784 10.784 0 0 0 4.587-.861l.2-.1h.022v-3.136a3.867 3.867 0 0 0-3.863-3.867zm4.992-3.115h-2.54a3.718 3.718 0 0 1-1.148 2.59 4.591 4.591 0 0 1 3.278 4.39v.965a10.4 10.4 0 0 0 4.049-.851l.2-.1h.022v-3.134a3.868 3.868 0 0 0-3.861-3.863zm-11.566-.208a3 3 0 0 0 1.6-.466 3.734 3.734 0 0 1 1.4-2.382c0-.056.008-.112.008-.169a3.017 3.017 0 1 0-3.017 3.017zm2.71 2.8A3.721 3.721 0 0 1 6.707 12.6c-.094-.007-.187-.014-.283-.014H3.863A3.868 3.868 0 0 0 0 16.451v3.132l.008.048.216.068a18.113 18.113 0 0 0 4.351.818v-.946a4.591 4.591 0 0 1 3.279-4.393z" style="fill:#30c68e" transform="translate(658 309.652)"/>
    </g>
</svg>
