<svg id="Group_6807" data-name="Group 6807" xmlns="http://www.w3.org/2000/svg" width="64.56" height="46.451" viewBox="0 0 64.56 46.451">
  <defs>
    <style>
      .cls-1 {
        fill: #39d89d;
      }

      .cls-2 {
        fill: #fff;
      }

      .cls-3 {
        fill: #f2f2f2;
      }

      .cls-4 {
        fill: #3f3d56;
      }

      .cls-5 {
        fill: #6c63ff;
      }

      .cls-6 {
        fill: #f0db53;
      }

      .cls-7 {
        opacity: 0.2;
      }

      .cls-8 {
        fill: #2f2e41;
      }

      .cls-9 {
        fill: #eb368a;
      }
    </style>
  </defs>
  <path id="Path_3869" data-name="Path 3869" class="cls-1" d="M286.111,338.15c-.137.085-.271.172-.4.261a34.262,34.262,0,0,0-2.39,11.16q-.031.664-.031,1.326a33.266,33.266,0,0,0,1.429,9.768q.076.25.155.5c.038.119.076.239.118.356l.132.179.009.01c.018.024.035.048.051.071l.228.3-.064,0-.16.01h0l.162-.006c.02,0,.041,0,.061,0l.055,0a17.511,17.511,0,0,0,6.757-1.119c2.194-.987,4.055-3.12,3.961-5.523a4.315,4.315,0,0,0-.142-.931c-.034-.127-.074-.252-.117-.377a4.541,4.541,0,0,0-7.791-1.426c.629-2.471,3.328-3.732,5.759-4.5s5.17-1.568,6.413-3.794a4.907,4.907,0,0,0,.258-4.016c-.014-.04-.028-.081-.044-.121a6.626,6.626,0,0,0-3.2-3.627c-2.78-1.377-6.159-.891-9.008.338A16.423,16.423,0,0,0,286.111,338.15Z" transform="translate(-236.307 -324.235)"/>
  <path id="Path_3870" data-name="Path 3870" class="cls-2" d="M339.884,515.219A10.224,10.224,0,0,0,334,517.782a10.463,10.463,0,0,0-2.975,4.667c-.032.1-.062.205-.089.308-.055-.105-.109-.213-.162-.319-.034-.068-.069-.138-.1-.206.038.119.076.238.118.356l.132.179.009.01c.018.024.035.048.051.071l.228.3-.064,0-.16.01h0l.162-.006c.02,0,.041,0,.061,0,.007-.031.015-.062.023-.093a9.879,9.879,0,0,1,10.606-7.483c-.034-.127-.074-.252-.117-.377A10.585,10.585,0,0,0,339.884,515.219Z" transform="translate(-282.112 -485.306)"/>
  <path id="Path_3871" data-name="Path 3871" class="cls-2" d="M289.834,383.946a11.249,11.249,0,0,0-2.3,2.32,9.334,9.334,0,0,0-.88,1.495c-.117.243-.223.494-.319.747q-.031.664-.031,1.326a9.646,9.646,0,0,1,.3-.986c.061-.177.128-.351.2-.523a10.535,10.535,0,0,1,3.965-4.6,24.411,24.411,0,0,1,6-2.854,27.683,27.683,0,0,1,6.632-1.324.2.2,0,0,0,.182-.205.171.171,0,0,0-.044-.121.142.142,0,0,0-.122-.039c-.278.021-.556.043-.834.072a28.015,28.015,0,0,0-6.764,1.561A22.541,22.541,0,0,0,289.834,383.946Z" transform="translate(-239.322 -363.173)"/>
  <ellipse id="Ellipse_1271" data-name="Ellipse 1271" class="cls-3" cx="0.772" cy="0.772" rx="0.772" ry="0.772" transform="translate(61.189 8.584)"/>
  <rect id="Rectangle_4550" data-name="Rectangle 4550" class="cls-2" width="35.061" height="29.863" transform="translate(14.512 16.486)"/>
  <path id="Path_3872" data-name="Path 3872" class="cls-4" d="M429.331,412.945H464.6V382.878H429.331Zm35.061-.2H429.535V383.082h34.857Z" transform="translate(-414.921 -366.494)"/>
  <rect id="Rectangle_4551" data-name="Rectangle 4551" class="cls-5" width="8.765" height="24.053" transform="translate(27.66 22.296)"/>
  <rect id="Rectangle_4552" data-name="Rectangle 4552" class="cls-6" width="8.765" height="24.053" transform="translate(27.66 22.296)"/>
  <path id="Path_3873" data-name="Path 3873" class="cls-7" d="M183,183.255V188.1l-34.959,2.238.1-5.978Z" transform="translate(-133.534 -164.578)"/>
  <rect id="Rectangle_4553" data-name="Rectangle 4553" class="cls-2" width="39.137" height="8.561" transform="translate(12.474 13.734)"/>
  <path id="Path_3874" data-name="Path 3874" class="cls-4" d="M409.331,364.643h39.341v-8.765H409.331Zm39.137-.2H409.535v-8.357h38.934Z" transform="translate(-396.96 -342.246)"/>
  <rect id="Rectangle_4554" data-name="Rectangle 4554" class="cls-6" width="8.765" height="9.275" transform="translate(27.66 12.919)"/>
  <path id="Path_3875" data-name="Path 3875" class="cls-6" d="M504.161,238.92c-2.314,3.43-.134,8.946-.134,8.946s5.931-.044,8.245-3.474.134-8.946.134-8.946S506.475,235.491,504.161,238.92Z" transform="translate(-471.181 -234.088)"/>
  <path id="Path_3876" data-name="Path 3876" class="cls-6" d="M602.273,238.92c2.314,3.43.134,8.946.134,8.946s-5.931-.044-8.245-3.474-.134-8.946-.134-8.946S599.959,235.491,602.273,238.92Z" transform="translate(-570.354 -234.088)"/>
  <ellipse id="Ellipse_1272" data-name="Ellipse 1272" class="cls-4" cx="0.917" cy="0.917" rx="0.917" ry="0.917" transform="translate(37.24 5.581)"/>
  <ellipse id="Ellipse_1273" data-name="Ellipse 1273" class="cls-4" cx="0.917" cy="0.917" rx="0.917" ry="0.917" transform="translate(31.736 14.855)"/>
  <ellipse id="Ellipse_1274" data-name="Ellipse 1274" class="cls-4" cx="0.917" cy="0.917" rx="0.917" ry="0.917" transform="translate(31.736 34.934)"/>
  <ellipse id="Ellipse_1275" data-name="Ellipse 1275" class="cls-4" cx="0.612" cy="0.612" rx="0.612" ry="0.612" transform="translate(35.1 9.25)"/>
  <ellipse id="Ellipse_1276" data-name="Ellipse 1276" class="cls-4" cx="0.612" cy="0.612" rx="0.612" ry="0.612" transform="translate(25.927 4.052)"/>
  <ellipse id="Ellipse_1277" data-name="Ellipse 1277" class="cls-4" cx="0.612" cy="0.612" rx="0.612" ry="0.612" transform="translate(29.902 18.423)"/>
  <ellipse id="Ellipse_1278" data-name="Ellipse 1278" class="cls-4" cx="0.612" cy="0.612" rx="0.612" ry="0.612" transform="translate(33.571 26.372)"/>
  <ellipse id="Ellipse_1279" data-name="Ellipse 1279" class="cls-4" cx="0.612" cy="0.612" rx="0.612" ry="0.612" transform="translate(30.411 29.124)"/>
  <ellipse id="Ellipse_1280" data-name="Ellipse 1280" class="cls-4" cx="0.612" cy="0.612" rx="0.612" ry="0.612" transform="translate(31.125 40.641)"/>
  <rect id="Rectangle_4555" data-name="Rectangle 4555" class="cls-2" width="18.655" height="15.889" transform="translate(1.139 30.507)"/>
  <path id="Path_3877" data-name="Path 3877" class="cls-4" d="M721.973,536.911h18.764v-16H721.973Zm18.655-.109H722.081V521.021h18.547Z" transform="translate(-720.888 -490.46)"/>
  <rect id="Rectangle_4556" data-name="Rectangle 4556" class="cls-5" width="4.664" height="12.798" transform="translate(8.135 33.598)"/>
  <rect id="Rectangle_4557" data-name="Rectangle 4557" class="cls-6" width="4.664" height="12.798" transform="translate(8.135 33.598)"/>
  <path id="Path_3878" data-name="Path 3878" class="cls-7" d="M458.353,310.763v2.578l-18.6,1.191.055-3.181Z" transform="translate(-438.613 -279.09)"/>
  <rect id="Rectangle_4558" data-name="Rectangle 4558" class="cls-2" width="20.824" height="4.555" transform="translate(0.054 29.043)"/>
  <path id="Path_3879" data-name="Path 3879" class="cls-4" d="M711.331,511.211h20.933v-4.664H711.331Zm20.824-.109H711.44v-4.447h20.716Z" transform="translate(-711.331 -477.558)"/>
  <rect id="Rectangle_4559" data-name="Rectangle 4559" class="cls-6" width="4.664" height="4.935" transform="translate(8.135 28.609)"/>
  <path id="Path_3880" data-name="Path 3880" class="cls-6" d="M761.789,444.316c-1.231,1.825-.071,4.76-.071,4.76s3.156-.024,4.387-1.849.071-4.76.071-4.76S763.021,442.491,761.789,444.316Z" transform="translate(-750.823 -420.01)"/>
  <path id="Path_3881" data-name="Path 3881" class="cls-6" d="M813.992,444.316c1.231,1.825.071,4.76.071,4.76s-3.156-.024-4.387-1.849-.071-4.76-.071-4.76S812.761,442.491,813.992,444.316Z" transform="translate(-803.591 -420.01)"/>
  <ellipse id="Ellipse_1281" data-name="Ellipse 1281" class="cls-4" cx="0.488" cy="0.488" rx="0.488" ry="0.488" transform="translate(13.232 24.704)"/>
  <ellipse id="Ellipse_1282" data-name="Ellipse 1282" class="cls-4" cx="0.488" cy="0.488" rx="0.488" ry="0.488" transform="translate(10.304 29.639)"/>
  <ellipse id="Ellipse_1283" data-name="Ellipse 1283" class="cls-4" cx="0.488" cy="0.488" rx="0.488" ry="0.488" transform="translate(10.304 40.323)"/>
  <ellipse id="Ellipse_1284" data-name="Ellipse 1284" class="cls-4" cx="0.325" cy="0.325" rx="0.325" ry="0.325" transform="translate(12.093 26.657)"/>
  <ellipse id="Ellipse_1285" data-name="Ellipse 1285" class="cls-4" cx="0.325" cy="0.325" rx="0.325" ry="0.325" transform="translate(7.213 23.891)"/>
  <ellipse id="Ellipse_1286" data-name="Ellipse 1286" class="cls-4" cx="0.325" cy="0.325" rx="0.325" ry="0.325" transform="translate(9.328 31.537)"/>
  <ellipse id="Ellipse_1287" data-name="Ellipse 1287" class="cls-4" cx="0.325" cy="0.325" rx="0.325" ry="0.325" transform="translate(11.28 35.767)"/>
  <ellipse id="Ellipse_1288" data-name="Ellipse 1288" class="cls-4" cx="0.325" cy="0.325" rx="0.325" ry="0.325" transform="translate(9.599 37.232)"/>
  <ellipse id="Ellipse_1289" data-name="Ellipse 1289" class="cls-4" cx="0.325" cy="0.325" rx="0.325" ry="0.325" transform="translate(9.978 43.36)"/>
  <ellipse id="Ellipse_1290" data-name="Ellipse 1290" class="cls-8" cx="0.689" cy="2.195" rx="0.689" ry="2.195" transform="translate(33.533 39.698) rotate(-115.374)"/>
  <ellipse id="Ellipse_1291" data-name="Ellipse 1291" class="cls-8" cx="0.689" cy="2.195" rx="0.689" ry="2.195" transform="translate(24.728 43.06) rotate(-140.062)"/>
  <ellipse id="Ellipse_1292" data-name="Ellipse 1292" class="cls-8" cx="4.389" cy="4.389" rx="4.389" ry="4.389" transform="translate(25.888 35.783)"/>
  <rect id="Rectangle_4560" data-name="Rectangle 4560" class="cls-8" width="1.333" height="2.389" transform="translate(28.419 43.617)"/>
  <rect id="Rectangle_4561" data-name="Rectangle 4561" class="cls-8" width="1.333" height="2.389" transform="translate(31.086 43.617)"/>
  <ellipse id="Ellipse_1293" data-name="Ellipse 1293" class="cls-8" cx="1.111" cy="0.417" rx="1.111" ry="0.417" transform="translate(28.419 45.617)"/>
  <ellipse id="Ellipse_1294" data-name="Ellipse 1294" class="cls-8" cx="1.111" cy="0.417" rx="1.111" ry="0.417" transform="translate(31.086 45.562)"/>
  <path id="Path_3882" data-name="Path 3882" class="cls-9" d="M611.9,542.921a3.266,3.266,0,0,0-6.309,1.567c.392,1.578,1.692,1.584,3.435,1.151S612.3,544.5,611.9,542.921Z" transform="translate(-580.249 -508.267)"/>
  <ellipse id="Ellipse_1295" data-name="Ellipse 1295" class="cls-2" cx="1.463" cy="1.463" rx="1.463" ry="1.463" transform="translate(29.47 37.783)"/>
  <ellipse id="Ellipse_1296" data-name="Ellipse 1296" class="cls-4" cx="0.488" cy="0.488" rx="0.488" ry="0.488" transform="translate(31.047 38.234)"/>
  <path id="Path_3883" data-name="Path 3883" class="cls-2" d="M603.256,632.621a.976.976,0,1,0,1.92.349h0v0c.1-.53-.314-.718-.844-.814S603.352,632.091,603.256,632.621Z" transform="translate(-573.24 -590.326)"/>
  <ellipse id="Ellipse_1297" data-name="Ellipse 1297" class="cls-8" cx="2.195" cy="0.689" rx="2.195" ry="0.689" transform="translate(23.432 7.952) rotate(-157.558)"/>
  <ellipse id="Ellipse_1298" data-name="Ellipse 1298" class="cls-8" cx="0.689" cy="2.195" rx="0.689" ry="2.195" transform="translate(11.172 10.586) rotate(-140.062)"/>
  <ellipse id="Ellipse_1299" data-name="Ellipse 1299" class="cls-8" cx="4.389" cy="4.389" rx="4.389" ry="4.389" transform="translate(12.332 3.309)"/>
  <rect id="Rectangle_4562" data-name="Rectangle 4562" class="cls-8" width="1.333" height="2.389" transform="translate(14.864 11.143)"/>
  <rect id="Rectangle_4563" data-name="Rectangle 4563" class="cls-8" width="1.333" height="2.389" transform="translate(17.531 11.143)"/>
  <ellipse id="Ellipse_1300" data-name="Ellipse 1300" class="cls-8" cx="1.111" cy="0.417" rx="1.111" ry="0.417" transform="translate(14.864 13.144)"/>
  <ellipse id="Ellipse_1301" data-name="Ellipse 1301" class="cls-8" cx="1.111" cy="0.417" rx="1.111" ry="0.417" transform="translate(17.531 13.088)"/>
  <path id="Path_3884" data-name="Path 3884" class="cls-9" d="M744.9,224.3a3.266,3.266,0,0,0-6.309,1.567c.392,1.578,1.692,1.584,3.435,1.151S745.3,225.882,744.9,224.3Z" transform="translate(-726.805 -222.122)"/>
  <ellipse id="Ellipse_1302" data-name="Ellipse 1302" class="cls-2" cx="1.463" cy="1.463" rx="1.463" ry="1.463" transform="translate(15.915 5.309)"/>
  <ellipse id="Ellipse_1303" data-name="Ellipse 1303" class="cls-4" cx="0.488" cy="0.488" rx="0.488" ry="0.488" transform="translate(17.492 6.473)"/>
  <path id="Path_3885" data-name="Path 3885" class="cls-2" d="M736.256,314a.976.976,0,0,0,1.92.349h0v0c.1-.53-.314-.718-.844-.814S736.352,313.472,736.256,314Z" transform="translate(-719.796 -304.181)"/>
  <ellipse id="Ellipse_1304" data-name="Ellipse 1304" class="cls-8" cx="4.389" cy="4.389" rx="4.389" ry="4.389" transform="translate(49.888 35.783)"/>
  <rect id="Rectangle_4564" data-name="Rectangle 4564" class="cls-8" width="1.333" height="2.389" transform="translate(54.944 43.617)"/>
  <rect id="Rectangle_4565" data-name="Rectangle 4565" class="cls-8" width="1.333" height="2.389" transform="translate(52.277 43.617)"/>
  <ellipse id="Ellipse_1305" data-name="Ellipse 1305" class="cls-8" cx="1.111" cy="0.417" rx="1.111" ry="0.417" transform="translate(54.055 45.617)"/>
  <ellipse id="Ellipse_1306" data-name="Ellipse 1306" class="cls-8" cx="1.111" cy="0.417" rx="1.111" ry="0.417" transform="translate(51.388 45.562)"/>
  <path id="Path_3886" data-name="Path 3886" class="cls-9" d="M348.165,543.894a3.266,3.266,0,0,0-6.345-1.417c-.354,1.587.807,2.173,2.559,2.564S347.81,545.481,348.165,543.894Z" transform="translate(-289.629 -507.804)"/>
  <ellipse id="Ellipse_1307" data-name="Ellipse 1307" class="cls-8" cx="2.435" cy="0.764" rx="2.435" ry="0.764" transform="matrix(-0.707, -0.707, 0.707, -0.707, 51.269, 39.976)"/>
  <ellipse id="Ellipse_1308" data-name="Ellipse 1308" class="cls-8" cx="0.764" cy="2.435" rx="0.764" ry="2.435" transform="matrix(-0.707, -0.707, 0.707, -0.707, 58.356, 40.283)"/>
  <ellipse id="Ellipse_1309" data-name="Ellipse 1309" class="cls-2" cx="1.5" cy="1.5" rx="1.5" ry="1.5" transform="translate(52.962 38.05)"/>
  <ellipse id="Ellipse_1310" data-name="Ellipse 1310" class="cls-4" cx="0.5" cy="0.5" rx="0.5" ry="0.5" transform="translate(53.962 39.05)"/>
  <path id="Path_3887" data-name="Path 3887" class="cls-2" d="M375.082,632.912a.976.976,0,0,0,1.92.349h0v0c.1-.53-.314-.718-.844-.814S375.178,632.382,375.082,632.912Z" transform="translate(-321.811 -590.587)"/>
</svg>
