<svg data-name="Booking Type(1)" xmlns="http://www.w3.org/2000/svg" width="19.359" height="18.187" viewBox="0 0 19.359 18.187">
    <path data-name="Path 2306" d="M15.378 2.095H3.981a3.981 3.981 0 0 0-.024 7.962h1.788v-3.12A2.536 2.536 0 0 1 8.278 4.4h.006a2.537 2.537 0 0 1 2.528 2.533v3.119h4.566a3.981 3.981 0 0 0 0-7.962zM16.5 5.52l-2.264 2.269a.567.567 0 0 1-.8 0L12.3 6.655a.567.567 0 1 1 .8-.8l.733.733 1.867-1.87a.567.567 0 1 1 .8.8z" transform="translate(0 -2.095)" style="fill:#c5c5c5"/>
    <path data-name="Path 2307" d="m21.766 20.517-3.651-.379V15.8a1.4 1.4 0 1 0-2.8 0v7.256H15.3l-1.381-1.153a1.346 1.346 0 1 0-1.719 2.068L15 26.31h8.255v-4.1a1.7 1.7 0 0 0-1.489-1.693z" transform="translate(-8.437 -10.959)" style="fill:#c5c5c5"/>
    <path data-name="Path 2308" d="M24.588 62.148a.567.567 0 0 0 .567.567h6.806a.567.567 0 0 0 .567-.567v-1.134h-7.94z" transform="translate(-17.708 -44.528)" style="fill:#c5c5c5"/>
</svg>
