<svg xmlns="http://www.w3.org/2000/svg" width="21.748" height="23.346" viewBox="0 0 21.748 23.346">
    <g data-name="Group 8705">
        <path data-name="Path 5176" d="M176.842 0a3.01 3.01 0 1 0 3 3.01 3.009 3.009 0 0 0-3-3.01z" transform="translate(-165.968)" style="fill:#002046"/>
        <path data-name="Path 5177" d="M121.069 134.91a5.806 5.806 0 0 0-2.993 5.113v2.044a.294.294 0 0 0 .3.33h10.968a.3.3 0 0 0 .306-.33v-2.044a5.81 5.81 0 0 0-3-5.113 5 5 0 0 1-5.582 0z" transform="translate(-112.985 -128.18)" style="fill:#002046"/>
    </g>
    <path data-name="Path 5178" d="m163.336 331.709-2.293 1.211.438-2.566-1.855-1.817 2.564-.374 1.146-2.335 1.146 2.335 2.564.374-1.855 1.817.438 2.566z" transform="translate(-152.462 -309.574)" style="fill:#002046"/>
    <path data-name="Path 5179" d="m19.207 290.831 1.97 1.041-.376-2.2 1.594-1.561-2.2-.322-.985-2.006-.985 2.006-2.2.322 1.594 1.561-.376 2.2z" transform="translate(-16.02 -271.523)" style="fill:#002046"/>
    <path data-name="Path 5180" d="m327.371 290.831 1.97 1.041-.376-2.2 1.594-1.561-2.2-.322-.985-2.006-.985 2.006-2.2.322 1.594 1.561-.376 2.2z" transform="translate(-308.811 -271.523)" style="fill:#002046"/>
</svg>
