<svg id="credit-card" xmlns="http://www.w3.org/2000/svg" width="18.303" height="12.583" viewBox="0 0 18.303 12.583">
  <path id="Path_2050" data-name="Path 2050" d="M18.3,82.967V82a2,2,0,0,0-2-2H2a2,2,0,0,0-2,2v.965a.179.179,0,0,0,.179.179H18.124A.179.179,0,0,0,18.3,82.967Z" transform="translate(0 -80)" fill="#c2c2c2"/>
  <path id="Path_2051" data-name="Path 2051" d="M0,200.179v6.113a2,2,0,0,0,2,2H16.3a2,2,0,0,0,2-2v-6.113a.179.179,0,0,0-.179-.179H.179A.179.179,0,0,0,0,200.179Zm4.576,4.683a.572.572,0,0,1-.572.572H3.432a.572.572,0,0,1-.572-.572v-.572a.572.572,0,0,1,.572-.572H4a.572.572,0,0,1,.572.572Z" transform="translate(0 -195.71)" fill="#c2c2c2"/>
</svg>
