<svg id="Layer_1" data-name="Layer 1" xmlns="http://www.w3.org/2000/svg" width="19.699" height="24.193">
    <defs>
        <style>
            .cls-1{fill:#4b56c0}
        </style>
    </defs>
    <path id="Path_3924" data-name="Path 3924" class="cls-1" d="M17.415 24.189H3.479a.976.976 0 0 0-.126-.046 2.446 2.446 0 0 1-1.948-1.7 5.717 5.717 0 0 1-.15-1.278c-.019-.231 0-.465 0-.691a3.765 3.765 0 0 1-.461-.035 1.049 1.049 0 0 1-.828-1.133V14.89c0-.606-.011-1.213.011-1.818a1 1 0 0 1 .987-.972c.09-.005.181 0 .285 0V2.687A2.571 2.571 0 0 1 3.937 0h9.38a.5.5 0 0 1 .39.165q2.873 2.873 5.757 5.734a.6.6 0 0 1 .192.474q-.008 7.511 0 15.02c0 .118 0 .236-.008.354a2.523 2.523 0 0 1-.99 1.906 3.153 3.153 0 0 1-1.243.536zm-14.594-3.73v.979A1.04 1.04 0 0 0 4 22.615h12.9a1.035 1.035 0 0 0 1.18-1.191l-.039-14.432v-.278h-.3c-1.063 0-2.127.018-3.189-.014a1.7 1.7 0 0 1-1.577-1.56c-.036-1.093-.021-2.188-.03-3.282 0-.09-.009-.182-.014-.283-.085 0-.148-.009-.209-.009l-8.765.01a1.025 1.025 0 0 0-1.138 1.142v9.377H15a1.078 1.078 0 0 1 1.225 1.235c0 1.968-.013 3.937.007 5.906a1.141 1.141 0 0 1-1.242 1.233c-3.953-.019-7.906-.009-11.859-.009zm3.647-6.191v4.305a17.37 17.37 0 0 0 1.737-.009 2.08 2.08 0 0 0 2.095-2.216 1.909 1.909 0 0 0-1.686-2.093 7.028 7.028 0 0 0-2.145.013zm-2.8 4.294v-1.507a9.907 9.907 0 0 0 1.012-.111A1.336 1.336 0 0 0 5.8 15.59a1.242 1.242 0 0 0-.967-1.309 5.621 5.621 0 0 0-2.144-.011v4.292zm7.288-.009h.988V16.8h1.543V16h-1.526v-1h1.649v-.778h-2.648z" transform="translate(.043 .004)"/>
    <path id="Path_3925" data-name="Path 3925" class="cls-1" d="M119.18 240.5v-2.745a1.43 1.43 0 0 1 1.517.409 1.82 1.82 0 0 1 .014 1.825 1.427 1.427 0 0 1-1.531.511z" transform="translate(-111.675 -222.709)"/>
    <path id="Path_3926" data-name="Path 3926" class="cls-1" d="M59.06 238.823v-1.238a.97.97 0 0 1 1.016.185.657.657 0 0 1 .035.74c-.253.384-.643.351-1.051.313z" transform="translate(-55.342 -222.583)"/>
</svg>
