<svg width="12" height="12" viewBox="0 0 12 12" fill="none" xmlns="http://www.w3.org/2000/svg">
<g clip-path="url(#clip0_418_1172)">
<path fill-rule="evenodd" clip-rule="evenodd" d="M5.20503 6.79498C6.20778 7.82991 6.98444 8.35028 7.53502 8.35608L8.77266 7.43203C8.91513 7.3244 9.09122 7.27091 9.26949 7.28112C9.44775 7.29133 9.61658 7.36457 9.74583 7.48776C10.6651 8.35401 11.3373 8.98749 11.7626 9.38819C11.9081 9.52581 11.9933 9.71536 11.9997 9.91554C12.0061 10.1157 11.9331 10.3103 11.7967 10.4569L10.5491 11.7932C10.5207 11.8243 10.4841 11.8467 10.4435 11.8578C8.44522 12.4248 6.13985 11.2964 3.52735 8.47265C0.703552 5.86015 -0.424815 3.55482 0.142247 1.55665C0.153271 1.51602 0.175664 1.47938 0.206794 1.45104L1.54304 0.203412C1.68966 0.0669696 1.88426 -0.00600469 2.08444 0.000387122C2.28462 0.00677894 2.47417 0.0920189 2.61179 0.237537C3.01252 0.662741 3.646 1.33498 4.51222 2.25426C4.63539 2.3835 4.70862 2.55232 4.71884 2.73056C4.72905 2.90881 4.67558 3.08488 4.56797 3.22734C4.35191 3.5167 4.0439 3.9292 3.64395 4.46484C3.64973 5.01553 4.17009 5.79224 5.20503 6.79498Z" fill="#2196F3"/>
</g>
<defs>
<clipPath id="clip0_418_1172">
<rect width="12" height="12" fill="white"/>
</clipPath>
</defs>
</svg>
