<svg xmlns="http://www.w3.org/2000/svg" width="27.315" height="21.245" viewBox="0 0 27.315 21.245">
    <path data-name="Path 4451" d="M25.581 61.2H1.734A1.734 1.734 0 0 0 0 62.935v17.777a1.734 1.734 0 0 0 1.734 1.734h23.847a1.734 1.734 0 0 0 1.734-1.734V62.935a1.734 1.734 0 0 0-1.734-1.735zm0 1.734v12.614l-3.418-3.107a1.3 1.3 0 0 0-1.795.043l-3.459 3.459-6.82-8.143a1.3 1.3 0 0 0-1.983-.013l-6.371 7.4V62.935zm-7.371 4.554a2.385 2.385 0 1 1 2.385 2.385 2.384 2.384 0 0 1-2.385-2.385z" style="fill:#4b56c0" transform="translate(0 -61.201)"/>
</svg>
