<svg width="18" height="16" viewBox="0 0 18 16" fill="none" xmlns="http://www.w3.org/2000/svg">
<path d="M7.24148 6.68403C7.79633 7.03191 8.1854 7.62061 8.25623 8.30395C8.48252 8.40967 8.73366 8.47047 8.99993 8.47047C9.972 8.47047 10.7599 7.68261 10.7599 6.71068C10.7599 5.73861 9.972 4.95074 8.99993 4.95074C8.03714 4.95104 7.25616 5.72484 7.24148 6.68403ZM6.08851 10.2875C7.06058 10.2875 7.84845 9.49945 7.84845 8.52753C7.84845 7.55561 7.06043 6.76774 6.08851 6.76774C5.11659 6.76774 4.32827 7.55576 4.32827 8.52768C4.32827 9.4996 5.11659 10.2875 6.08851 10.2875ZM6.83504 10.4074H5.34167C4.09914 10.4074 3.08828 11.4184 3.08828 12.661V14.4872L3.09292 14.5159L3.21872 14.5552C4.40449 14.9257 5.43467 15.0493 6.28259 15.0493C7.93875 15.0493 8.89869 14.5771 8.95784 14.547L9.0754 14.4875H9.08798V12.661C9.08843 11.4184 8.07757 10.4074 6.83504 10.4074ZM9.74676 8.59058H8.26492C8.2489 9.18347 7.99581 9.71735 7.59551 10.1013C8.69996 10.4297 9.50805 11.4539 9.50805 12.6637V13.2264C10.9712 13.1728 11.8143 12.7582 11.8699 12.7303L11.9874 12.6707H12V10.8438C12 9.60144 10.9891 8.59058 9.74676 8.59058ZM3.00037 8.47077C3.34467 8.47077 3.66499 8.37029 3.93635 8.19912C4.02261 7.63648 4.32422 7.14483 4.75507 6.80997C4.75687 6.77703 4.76002 6.74438 4.76002 6.71113C4.76002 5.73906 3.972 4.95119 3.00037 4.95119C2.02815 4.95119 1.24043 5.73906 1.24043 6.71113C1.24043 7.68276 2.02815 8.47077 3.00037 8.47077ZM4.58091 10.1013C4.18255 9.7193 3.93036 9.18826 3.91194 8.59897C3.85698 8.59492 3.80262 8.59058 3.74661 8.59058H2.25339C1.01086 8.59058 0 9.60144 0 10.8438V12.6704L0.00464246 12.6986L0.130438 12.7382C1.08169 13.0352 1.93066 13.1721 2.66806 13.2152V12.6637C2.66836 11.4539 3.47615 10.43 4.58091 10.1013Z" fill="#272727"/>
<circle cx="13" cy="4.99762" r="4.75" fill="#272727" stroke="#FDFDFD" stroke-width="0.5"/>
<path d="M11.8748 6.22922C12.2304 5.93292 12.5137 5.68662 12.7248 5.49033C12.9359 5.29033 13.1119 5.08292 13.2526 4.86811C13.3933 4.65329 13.4637 4.44218 13.4637 4.23477C13.4637 4.04588 13.4193 3.89774 13.3304 3.79033C13.2415 3.68292 13.1045 3.62922 12.9193 3.62922C12.7341 3.62922 12.5915 3.69218 12.4915 3.81811C12.3915 3.94033 12.3396 4.10885 12.3359 4.32366H11.5804C11.5952 3.87922 11.7267 3.54218 11.9748 3.31255C12.2267 3.08292 12.5452 2.96811 12.9304 2.96811C13.3526 2.96811 13.6767 3.08107 13.9026 3.30699C14.1285 3.52922 14.2415 3.82366 14.2415 4.19033C14.2415 4.47922 14.1637 4.75514 14.0082 5.01811C13.8526 5.28107 13.6748 5.5107 13.4748 5.70699C13.2748 5.89959 13.0137 6.13292 12.6915 6.40699H14.3304V7.05144H11.5859V6.47366L11.8748 6.22922Z" fill="#FDFDFD"/>
</svg>
