<svg xmlns="http://www.w3.org/2000/svg" width="19.414" height="19.414" viewBox="0 0 19.414 19.414">
    <path data-name="Path 3907" d="M19.414 72.3v1.138H0V72.3h1.959V58.286c0-.13.017-.195.174-.22 2.016-.329 4.032-.669 6.049-1.009.313-.051.628-.1.964-.157v15.384h1.142v-12.7h7.173V72.3zM6.375 70.674v1.615h1.117v-2.748H3.609v2.748h1.126v-1.615zM7.53 58.442H6.34v1.109h1.19zm0 9.442v-1.112H6.342v1.112zm5.542 0v-1.112h-1.186v1.112zm0 1.657h-1.184v1.112h1.187zm1.583 1.11h1.186v-1.107h-1.183zm-9.9-9.436H3.574v1.11h1.185zm1.581 1.108h1.189v-1.108H6.341zm5.544-1.112v1.119h1.184v-1.12zm2.776 0v1.112h1.184v-1.109zm-9.889 2.784H3.57v1.123c.374 0 .738 0 1.1-.005.032 0 .09-.067.091-.1.007-.331 0-.664 0-1.012zm2.762 1.115v-1.117H6.345v1.119zM13.074 64h-1.188v1.11h1.188zm2.771 0h-1.184v1.11h1.186zm-12.28 3.879h1.192v-1.107H3.565zm12.28-1.106h-1.184v1.108h1.185z" transform="translate(0 -54.023)" style="fill:#c5c5c5"/>
    <path data-name="Path 3908" d="M70.4 0c0 .618.012 1.236.008 1.853 0 .042-.086.111-.141.121-.813.143-1.627.278-2.442.414-.6.1-1.193.2-1.823.3V0z" transform="translate(-62.663)" style="fill:#c5c5c5"/>
</svg>
