<svg width="20" height="17" viewBox="0 0 20 17" fill="none" xmlns="http://www.w3.org/2000/svg">
<path d="M5.6844 9.24613C5.74397 9.17799 5.78264 9.09414 5.7958 9.0046C5.80895 8.91505 5.79603 8.82362 5.75858 8.74123C5.72113 8.65884 5.66074 8.58898 5.58463 8.54002C5.50851 8.49105 5.4199 8.46505 5.3294 8.46513H4.1184C4.1104 8.34513 4.1064 8.22413 4.1064 8.10313C4.10503 7.03454 4.41675 5.98895 5.00303 5.09555C5.58932 4.20215 6.42449 3.50009 7.40536 3.07608C8.38623 2.65207 9.46983 2.52471 10.5223 2.70972C11.5747 2.89474 12.5499 3.38402 13.3274 4.11713L15.0344 2.11713C13.8748 1.05818 12.4322 0.35944 10.8824 0.106059C9.33257 -0.147322 7.74253 0.0556058 6.30605 0.690108C4.86957 1.32461 3.64868 2.36329 2.7922 3.67953C1.93572 4.99578 1.48063 6.53276 1.4824 8.10313C1.4824 8.22413 1.4824 8.34513 1.4904 8.46513H0.471401C0.380898 8.46505 0.292289 8.49105 0.216176 8.54002C0.140063 8.58898 0.079668 8.65884 0.0422177 8.74123C0.00476734 8.82362 -0.00815275 8.91505 0.0050032 9.0046C0.0181592 9.09414 0.056834 9.17799 0.116401 9.24613L2.4164 11.8851L2.8994 12.4391L4.6344 10.4491L5.6844 9.24613Z" fill="#5F38F9"/>
<path d="M19.0385 7.70572L17.3225 5.73672L16.2545 4.51172L14.7295 6.26073L13.4705 7.70473C13.411 7.77286 13.3723 7.85672 13.3591 7.94626C13.346 8.0358 13.3589 8.12723 13.3963 8.20963C13.4338 8.29202 13.4942 8.36186 13.5703 8.41083C13.6464 8.45979 13.735 8.48579 13.8255 8.48572H15.0345C14.9657 9.47414 14.6296 10.4253 14.0621 11.2375C13.4946 12.0497 12.7171 12.6925 11.8127 13.0971C10.9083 13.5017 9.9109 13.653 8.92716 13.5347C7.94343 13.4165 7.01031 13.0331 6.22753 12.4257L4.51953 14.4257C5.68473 15.3577 7.08483 15.9494 8.56521 16.1357C10.0456 16.3219 11.5486 16.0954 12.9084 15.4811C14.2681 14.8669 15.4316 13.8887 16.2704 12.6548C17.1092 11.4208 17.5906 9.97908 17.6615 8.48872H18.6825C18.7735 8.48934 18.8627 8.46358 18.9393 8.4146C19.016 8.36561 19.0768 8.29549 19.1145 8.21268C19.1521 8.12987 19.165 8.03793 19.1515 7.94797C19.138 7.85801 19.0988 7.77386 19.0385 7.70572Z" fill="#5F38F9"/>
</svg>
