<svg xmlns="http://www.w3.org/2000/svg" width="18" height="18" viewBox="0 0 18 18">
    <path data-name="Path 5181" d="M12.8 18.591A5.8 5.8 0 1 0 7 12.8a5.8 5.8 0 0 0 5.8 5.8zm-.644-7.727a.644.644 0 1 1 1.288 0v1.661l1.174 1.175a.647.647 0 1 1-.914.914l-1.365-1.365a.671.671 0 0 1-.187-.457z" transform="translate(-3.812 -3.78)" style="fill:#c5c5c5"/>
    <path data-name="Path 5182" d="M11.033 2a.644.644 0 0 0 0 1.288A7.76 7.76 0 1 1 5.68 5.461l-.044.333a.644.644 0 1 0 1.277.167l.251-1.916a.671.671 0 0 0-.555-.722l-1.916-.25a.644.644 0 1 0-.167 1.277l.4.053A9 9 0 1 0 11.033 2z" transform="translate(-2.049 -2)" style="fill:#c5c5c5"/>
</svg>
