<svg xmlns="http://www.w3.org/2000/svg" width="39" height="38" viewBox="0 0 39 38">
    <g data-name="Group 10303" transform="translate(-1275 -304)">
        <ellipse data-name="Ellipse 2153" cx="19.5" cy="19" rx="19.5" ry="19" transform="translate(1275 304)" style="fill:#ffcd56;opacity:.15"/>
        <path data-name="Path 8686" d="M23.442 20.888a6.574 6.574 0 0 0-7.25-.435c-3.165 1.746-5.474 5.883-5.463 8.79 0 3.82 3.918 6.929 8.736 6.929s8.735-3.109 8.735-6.929c0-2.694-1.935-6.4-4.76-8.354zm-6.108 8.432a.411.411 0 0 1 .821 0c0 .567.7 1.051 1.536 1.051s1.536-.485 1.536-1.051-.7-1.051-1.536-1.051a2.163 2.163 0 0 1-2.356-1.869 2.062 2.062 0 0 1 1.947-1.844V23.7a.411.411 0 0 1 .821 0v.85a2.062 2.062 0 0 1 1.947 1.85.411.411 0 0 1-.821 0c-.076-1.385-3-1.386-3.072 0 0 .571.7 1.051 1.536 1.051a2.16 2.16 0 0 1 2.358 1.873 2.062 2.062 0 0 1-1.951 1.841v.85a.411.411 0 0 1-.821 0v-.85a2.062 2.062 0 0 1-1.944-1.844z" transform="translate(1275.034 298.828)" style="fill:#ffc333"/>
        <path data-name="Path 8687" d="M28.544 14.118a3.557 3.557 0 0 0-4.584 2.046 7.208 7.208 0 0 1 6.6 0 3.5 3.5 0 0 0-2.021-2.045z" transform="translate(1267.238 302.189)" style="fill:#ffc333"/>
        <path data-name="Path 8688" d="M23.93 8a4.327 4.327 0 0 1 4.9 0l1.273-1.98a1.181 1.181 0 0 0 .074-1.138 1.222 1.222 0 0 0-.961-.7 22.281 22.281 0 0 0-5.681 0 1.208 1.208 0 0 0-.883 1.836L23.93 8z" transform="translate(1268.118 307.997)" style="fill:#ffc333"/>
    </g>
</svg>
