<svg width="16" height="17" viewBox="0 0 16 17" fill="none" xmlns="http://www.w3.org/2000/svg">
<g clip-path="url(#clip0_83_94798)">
<circle cx="8" cy="8.875" r="8" fill="#272727"/>
<path d="M11.4286 10.275H4.57143C4.41988 10.275 4.27453 10.2013 4.16737 10.07C4.0602 9.9387 4 9.76065 4 9.575C4 9.38935 4.0602 9.2113 4.16737 9.08003C4.27453 8.94875 4.41988 8.875 4.57143 8.875H11.4286C11.5801 8.875 11.7255 8.94875 11.8326 9.08003C11.9398 9.2113 12 9.38935 12 9.575C12 9.76065 11.9398 9.9387 11.8326 10.07C11.7255 10.2013 11.5801 10.275 11.4286 10.275Z" fill="#FDFDFD"/>
</g>
<defs>
<clipPath id="clip0_83_94798">
<rect width="16" height="16" fill="white" transform="translate(0 0.875)"/>
</clipPath>
</defs>
</svg>
