<svg xmlns="http://www.w3.org/2000/svg" width="12.246" height="12.611" viewBox="0 0 12.246 12.611"><defs><style>.a{fill:#959ea7;opacity:0.8;}</style></defs><g transform="translate(-15.275 -8.245)"><path class="a" d="M-5753.63-20225.928v0l.746-3.873a5.048,5.048,0,0,1-1.219-3.271c0-3.014,2.746-5.465,6.121-5.465s6.125,2.451,6.125,5.465-2.748,5.465-6.125,5.465a6.847,6.847,0,0,1-1.778-.232l-3.868,1.912Zm7.837-8.1a.752.752,0,0,0-.751.752.749.749,0,0,0,.751.746.747.747,0,0,0,.747-.746A.749.749,0,0,0-5745.793-20234.029Zm-2.108,0a.752.752,0,0,0-.751.752.749.749,0,0,0,.751.746.749.749,0,0,0,.752-.746A.752.752,0,0,0-5747.9-20234.029Zm-2.1,0a.752.752,0,0,0-.752.752.749.749,0,0,0,.752.746.747.747,0,0,0,.747-.746A.749.749,0,0,0-5750-20234.029Z" transform="translate(5769.378 20246.783)"/></g></svg>