<svg xmlns="http://www.w3.org/2000/svg" width="19.2" height="19.823" viewBox="0 0 19.2 19.823">
    <defs>
        <style>
            .cls-1{fill:#9eaeb8}
        </style>
    </defs>
    <g id="Group_7345" transform="translate(-31.319 -5)">
        <path id="Path_3226" d="M206.369 0h-1.538a8.831 8.831 0 0 0 0 17.662h1.538a8.848 8.848 0 0 0 2.241-.287l2.272 2.27a.608.608 0 0 0 1.037-.43V15.7a8.915 8.915 0 0 0 2.321-2.862 8.736 8.736 0 0 0 .96-4.007A8.841 8.841 0 0 0 206.369 0zm4.577 14.919a.608.608 0 0 0-.242.485v2.345l-1.487-1.486a.607.607 0 0 0-.608-.151 7.618 7.618 0 0 1-2.24.335h-1.538a7.616 7.616 0 0 1 0-15.232h1.538a7.616 7.616 0 0 1 4.577 13.7z" class="cls-1" transform="translate(-164.681 5)"/>
        <path id="Path_3227" d="M319.6 72.454a2.578 2.578 0 0 0-2.385-2.385 2.552 2.552 0 0 0-1.936.685 2.582 2.582 0 0 0-.817 1.881.608.608 0 0 0 1.215 0 1.357 1.357 0 0 1 1.455-1.354 1.357 1.357 0 0 1 .2 2.678 1.15 1.15 0 0 0-.906 1.127v1.46a.608.608 0 1 0 1.215 0v-1.41a2.559 2.559 0 0 0 1.959-2.682z" class="cls-1" transform="translate(-275.945 -60.806)"/>
        <path id="Path_3228" d="M347.837 206.508a.608.608 0 1 0 .178.43.612.612 0 0 0-.178-.43z" class="cls-1" transform="translate(-306.318 -188.794)"/>
    </g>
</svg>
