<svg xmlns="http://www.w3.org/2000/svg" width="16.962" height="16.962" viewBox="0 0 16.962 16.962">
    <defs>
        <style>
            .cls-1{fill:#c5c5c5}
        </style>
    </defs>
    <g id="request_2_" data-name="request (2)">
        <path id="Path_3485" data-name="Path 3485" class="cls-1" d="M201.282 0h-6.387a2.093 2.093 0 0 0-2.095 2.093v9.581a.5.5 0 0 0 .8.4l2-1.5h5.689a2.093 2.093 0 0 0 2.094-2.094V2.093A2.093 2.093 0 0 0 201.282 0zm-3.194 8.18a.5.5 0 1 1 .5-.5.5.5 0 0 1-.5.499zm.5-2.2v.1a.5.5 0 0 1-.994 0v-.527a.5.5 0 0 1 .5-.5.834.834 0 1 0-.834-.834.5.5 0 1 1-.994 0 1.828 1.828 0 1 1 2.324 1.76zm0 0" transform="translate(-186.413)"/>
        <path id="Path_3486" data-name="Path 3486" class="cls-1" d="M29.124 243.337a2.349 2.349 0 1 1-2.349-2.349 2.349 2.349 0 0 1 2.349 2.349zm0 0" transform="translate(-23.616 -233.004)"/>
        <path id="Path_3487" data-name="Path 3487" class="cls-1" d="M3.158 382.8A3.158 3.158 0 0 0 0 385.963v.625a.5.5 0 0 0 .5.5h5.32a.5.5 0 0 0 .5-.5v-.625a3.158 3.158 0 0 0-3.162-3.163zm0 0" transform="translate(0 -370.123)"/>
    </g>
</svg>
