<svg xmlns="http://www.w3.org/2000/svg" width="16.8" height="19.6" viewBox="0 0 16.8 19.6">
  <path id="Request" d="M19.433,3H6.367A1.866,1.866,0,0,0,4.5,4.867V17.933A1.866,1.866,0,0,0,6.367,19.8H10.1l2.8,2.8,2.8-2.8h3.733A1.872,1.872,0,0,0,21.3,17.933V4.867A1.872,1.872,0,0,0,19.433,3Zm-5.6,14.933H11.967V16.067h1.867ZM15.765,10.7l-.84.859A3.177,3.177,0,0,0,13.833,14.2H11.967v-.467a3.757,3.757,0,0,1,1.092-2.641l1.157-1.176A1.825,1.825,0,0,0,14.767,8.6a1.867,1.867,0,1,0-3.733,0H9.167a3.733,3.733,0,0,1,7.467,0A2.97,2.97,0,0,1,15.765,10.7Z" transform="translate(-4.5 -3)" fill="#c5c5c5"/>
</svg>
