<svg xmlns="http://www.w3.org/2000/svg" width="26.208" height="28.5" viewBox="0 0 26.208 28.5">
  <g id="chair" transform="translate(-0.5 0.5)">
    <path id="Path_1923" data-name="Path 1923" d="M19,20.667V14.938A3.442,3.442,0,0,1,22.438,11.5a1.146,1.146,0,1,1-.014,2.292,1.135,1.135,0,0,0-1.132,1.146v3.438A2.291,2.291,0,0,1,19,20.667Z" transform="translate(2.625 1.677)" fill="none" stroke="#9b9b9b" stroke-width="1"/>
    <path id="Path_1924" data-name="Path 1924" d="M5.583,20.667V14.938A3.442,3.442,0,0,0,2.146,11.5a1.146,1.146,0,1,0,.014,2.292,1.135,1.135,0,0,1,1.132,1.146v3.438A2.291,2.291,0,0,0,5.583,20.667Z" transform="translate(0 1.677)" fill="none" stroke="#9b9b9b" stroke-width="1"/>
    <path id="Path_1925" data-name="Path 1925" d="M17.635,24.292H7.9A1.146,1.146,0,0,1,7.9,22h9.74a1.146,1.146,0,0,1,0,2.292Z" transform="translate(0.839 3.208)" fill="none" stroke="#9b9b9b" stroke-width="1"/>
    <path id="Path_1926" data-name="Path 1926" d="M12.146,24.911A1.146,1.146,0,0,1,11,23.766V18.9a1.146,1.146,0,1,1,2.292,0v4.87A1.146,1.146,0,0,1,12.146,24.911Z" transform="translate(1.458 2.589)" fill="none" stroke="#9b9b9b" stroke-width="1"/>
    <path id="Path_1927" data-name="Path 1927" d="M18.792,14.9H7.194a2.006,2.006,0,0,1-1.975-2.349L7.112,1.661A2,2,0,0,1,9.087,0H16.9a2,2,0,0,1,1.975,1.663l1.893,10.885A2,2,0,0,1,18.792,14.9Z" transform="translate(0.611 0)" fill="none" stroke="#9b9b9b" stroke-width="1"/>
    <path id="Path_1928" data-name="Path 1928" d="M21.474,20.3H4.859A.86.86,0,0,1,4,19.443V17.151A3.154,3.154,0,0,1,7.151,14H19.182a3.154,3.154,0,0,1,3.151,3.151v2.292A.86.86,0,0,1,21.474,20.3Z" transform="translate(0.438 2.042)" fill="none" stroke="#9b9b9b" stroke-width="1"/>
  </g>
</svg>
