<svg width="22" height="18" viewBox="0 0 22 18" fill="none" xmlns="http://www.w3.org/2000/svg">
<g opacity="0.24">
<path d="M19.0766 7.70958C18.599 7.49999 18.0831 7.39204 17.5616 7.39258H3.93055C2.92626 7.39285 1.96318 7.79192 1.25303 8.50206C0.54289 9.2122 0.14382 10.1753 0.143555 11.1796V16.4796C0.143555 16.6805 0.223362 16.8732 0.365421 17.0152C0.50748 17.1573 0.700153 17.2371 0.901054 17.2371C1.10196 17.2371 1.29463 17.1573 1.43669 17.0152C1.57875 16.8732 1.65855 16.6805 1.65855 16.4796V16.1006C1.6596 16.0004 1.69986 15.9046 1.77071 15.8337C1.84157 15.7629 1.93736 15.7226 2.03756 15.7216H19.4546C19.5547 15.7226 19.6505 15.7629 19.7214 15.8337C19.7922 15.9046 19.8325 16.0004 19.8336 16.1006V16.4796C19.8336 16.6805 19.9134 16.8732 20.0554 17.0152C20.1975 17.1573 20.3902 17.2371 20.5911 17.2371C20.792 17.2371 20.9846 17.1573 21.1267 17.0152C21.2687 16.8732 21.3486 16.6805 21.3486 16.4796V11.1796C21.3479 10.443 21.1327 9.72255 20.7292 9.10631C20.3257 8.49007 19.7514 8.00472 19.0766 7.70958Z" fill="black"/>
<path d="M16.426 0.576172H5.06702C4.36393 0.576172 3.68963 0.855472 3.19248 1.35263C2.69532 1.84979 2.41602 2.52408 2.41602 3.22717V6.63517C2.41593 6.66457 2.4227 6.69359 2.43578 6.71991C2.44887 6.74623 2.46792 6.76913 2.49142 6.7868C2.51491 6.80447 2.5422 6.81642 2.57112 6.82169C2.60004 6.82696 2.6298 6.82541 2.65801 6.81717C3.0715 6.69614 3.50018 6.63486 3.93102 6.63517H4.13101C4.1777 6.63546 4.22285 6.61845 4.25775 6.58743C4.29265 6.55641 4.31483 6.51357 4.32002 6.46717C4.36124 6.09772 4.53685 5.75633 4.81344 5.50795C5.09003 5.25957 5.44828 5.12156 5.82002 5.12017H8.47102C8.84346 5.1203 9.20281 5.25763 9.48042 5.50591C9.75804 5.7542 9.93447 6.09605 9.97601 6.46617C9.9812 6.51257 10.0034 6.55541 10.0383 6.58643C10.0732 6.61745 10.1183 6.63446 10.165 6.63417H11.323C11.3697 6.63446 11.4149 6.61745 11.4498 6.58643C11.4847 6.55541 11.5068 6.51257 11.512 6.46617C11.5532 6.09672 11.7289 5.75533 12.0054 5.50695C12.282 5.25857 12.6403 5.12056 13.012 5.11917H15.663C16.0355 5.1193 16.3948 5.25663 16.6724 5.50491C16.95 5.7532 17.1265 6.09505 17.168 6.46517C17.1732 6.51157 17.1954 6.55441 17.2303 6.58543C17.2652 6.61645 17.3103 6.63346 17.357 6.63317H17.557C17.9879 6.63287 18.4165 6.69416 18.83 6.81517C18.8582 6.82341 18.888 6.82497 18.9169 6.81969C18.9458 6.81442 18.9731 6.80247 18.9966 6.78481C19.0201 6.76714 19.0392 6.74423 19.0522 6.7179C19.0653 6.69158 19.0721 6.66257 19.072 6.63317V3.22717C19.072 2.52495 18.7934 1.85142 18.2973 1.3544C17.8012 0.857385 17.1282 0.577496 16.426 0.576172Z" fill="black"/>
</g>
</svg>
