<svg width="22" height="17" viewBox="0 0 22 17" fill="none" xmlns="http://www.w3.org/2000/svg">
<path d="M18.933 7.13341C18.4554 6.92382 17.9395 6.81586 17.418 6.81641H3.787C2.78271 6.81667 1.81962 7.21575 1.10948 7.92589C0.399335 8.63603 0.00026509 9.59912 0 10.6034V15.9034C0 16.1043 0.0798078 16.297 0.221867 16.439C0.363925 16.5811 0.556598 16.6609 0.7575 16.6609C0.958401 16.6609 1.15107 16.5811 1.29313 16.439C1.43519 16.297 1.515 16.1043 1.515 15.9034V15.5244C1.51604 15.4242 1.55631 15.3284 1.62716 15.2576C1.69801 15.1867 1.79381 15.1464 1.894 15.1454H19.311C19.4112 15.1464 19.507 15.1867 19.5778 15.2576C19.6487 15.3284 19.689 15.4242 19.69 15.5244V15.9034C19.69 16.1043 19.7698 16.297 19.9119 16.439C20.0539 16.5811 20.2466 16.6609 20.4475 16.6609C20.6484 16.6609 20.8411 16.5811 20.9831 16.439C21.1252 16.297 21.205 16.1043 21.205 15.9034V10.6034C21.2043 9.86683 20.9891 9.14638 20.5856 8.53014C20.1821 7.9139 19.6079 7.42855 18.933 7.13341Z" fill="white"/>
<path d="M16.2825 0H4.92346C4.22037 0 3.54608 0.2793 3.04892 0.776459C2.55176 1.27362 2.27246 1.94791 2.27246 2.651V6.059C2.27237 6.0884 2.27914 6.11741 2.29223 6.14374C2.30532 6.17006 2.32437 6.19296 2.34786 6.21063C2.37136 6.2283 2.39865 6.24025 2.42757 6.24552C2.45649 6.25079 2.48624 6.24924 2.51446 6.241C2.92795 6.11997 3.35662 6.05868 3.78746 6.059H3.98746C4.03415 6.05929 4.0793 6.04228 4.1142 6.01126C4.1491 5.98024 4.17127 5.9374 4.17646 5.891C4.21768 5.52155 4.3933 5.18015 4.66988 4.93178C4.94647 4.6834 5.30472 4.54539 5.67646 4.544H8.32746C8.69991 4.54413 9.05925 4.68145 9.33687 4.92974C9.61448 5.17803 9.79091 5.51988 9.83246 5.89C9.83765 5.9364 9.85983 5.97924 9.89473 6.01026C9.92963 6.04128 9.97477 6.05829 10.0215 6.058H11.1795C11.2262 6.05829 11.2713 6.04128 11.3062 6.01026C11.3411 5.97924 11.3633 5.9364 11.3685 5.89C11.4097 5.52055 11.5853 5.17915 11.8619 4.93078C12.1385 4.6824 12.4967 4.54439 12.8685 4.543H15.5195C15.8919 4.54313 16.2513 4.68046 16.5289 4.92874C16.8065 5.17703 16.9829 5.51888 17.0245 5.889C17.0296 5.9354 17.0518 5.97824 17.0867 6.00926C17.1216 6.04028 17.1668 6.05729 17.2135 6.057H17.4135C17.8443 6.0567 18.273 6.11799 18.6865 6.239C18.7147 6.24724 18.7444 6.24879 18.7734 6.24352C18.8023 6.23825 18.8296 6.2263 18.8531 6.20863C18.8766 6.19096 18.8956 6.16805 18.9087 6.14173C18.9218 6.11541 18.9285 6.0864 18.9285 6.057V2.651C18.9285 1.94878 18.6498 1.27524 18.1538 0.778229C17.6577 0.281213 16.9847 0.00132445 16.2825 0Z" fill="white"/>
</svg>
