<svg xmlns="http://www.w3.org/2000/svg" width="39" height="39" viewBox="0 0 39 39">
    <g data-name="Group 11175" transform="translate(-336 -283)">
        <circle data-name="Ellipse 2153" cx="19.5" cy="19.5" r="19.5" transform="translate(336 283)" style="opacity:.15;fill:#4bc0c0"/>
        <path data-name="Path 8943" d="m20.84 27.43.508-1.248a.425.425 0 0 1 .293-.255 5.8 5.8 0 0 0 1.612-.669.425.425 0 0 1 .387-.027l1.22.521a6 6 0 0 0 .89-.867l-.522-1.243a.425.425 0 0 1 .027-.387 5.825 5.825 0 0 0 .67-1.613.425.425 0 0 1 .255-.293l1.233-.492a5.384 5.384 0 0 0 .015-1.243l-1.248-.508a.425.425 0 0 1-.255-.293 5.826 5.826 0 0 0-.669-1.613.425.425 0 0 1-.027-.387l.519-1.221a6.007 6.007 0 0 0-.867-.89l-1.242.522a.425.425 0 0 1-.387-.027 5.8 5.8 0 0 0-1.612-.668.425.425 0 0 1-.293-.255l-.492-1.233a5.734 5.734 0 0 0-1.242-.015l-.508 1.248a.425.425 0 0 1-.293.255 5.8 5.8 0 0 0-1.612.671.425.425 0 0 1-.387.027l-1.222-.521a6.027 6.027 0 0 0-.89.867l.522 1.243a.425.425 0 0 1-.027.387 5.826 5.826 0 0 0-.668 1.613.425.425 0 0 1-.255.293l-1.233.491a5.384 5.384 0 0 0-.015 1.243l1.248.508a.425.425 0 0 1 .255.293 5.826 5.826 0 0 0 .669 1.613.425.425 0 0 1 .027.387l-.519 1.221a6.032 6.032 0 0 0 .867.89l1.242-.523a.427.427 0 0 1 .387.027 5.8 5.8 0 0 0 1.612.668.425.425 0 0 1 .293.255l.492 1.233a5.735 5.735 0 0 0 1.242.015zm-1.557-4.809a.425.425 0 0 1-.308.159h-.024a.422.422 0 0 1-.3-.125l-.85-.85a.425.425 0 1 1 .6-.6l.514.515 3.1-3.881a.425.425 0 0 1 .664.532z" transform="translate(335.274 282.269)" style="fill:#4bc0c0"/>
        <path data-name="Path 8944" d="M45.687 31a.425.425 0 0 0-.425.394 11.041 11.041 0 0 1-6.67 9.346.425.425 0 0 1-.546-.193l-.158-.3a.051.051 0 0 0-.045-.028l-.514 1.671a.058.058 0 0 0 .034.065l1.642.525c.054-.031.043-.052.037-.063l-.19-.359a.425.425 0 0 1 .2-.586 11.891 11.891 0 0 0 7.062-10.01.431.431 0 0 0-.432-.46z" transform="translate(321.289 271.924)" style="fill:#4bc0c0"/>
        <path data-name="Path 8945" d="M2.43 13.485a.425.425 0 0 0 .425-.394 11.041 11.041 0 0 1 6.67-9.346.425.425 0 0 1 .546.193l.158.3a.051.051 0 0 0 .045.028l.514-1.666a.058.058 0 0 0-.034-.065l-1.642-.528c-.054.031-.043.052-.037.063l.189.359a.425.425 0 0 1-.2.586A11.891 11.891 0 0 0 2 13.025a.431.431 0 0 0 .432.46z" transform="translate(341.596 288.588)" style="fill:#4bc0c0"/>
        <path data-name="Path 8946" d="m3.938 38.044.3-.158a.043.043 0 0 0 .028-.045L2.6 37.327a.057.057 0 0 0-.065.034L2.007 39c.032.054.052.043.063.037l.359-.189a.425.425 0 0 1 .2-.048.419.419 0 0 1 .14.024.425.425 0 0 1 .249.229 11.891 11.891 0 0 0 10.01 7.062.411.411 0 0 0 .319-.115.425.425 0 0 0-.255-.74 11.041 11.041 0 0 1-9.347-6.67.425.425 0 0 1 .193-.546z" transform="translate(341.59 268.288)" style="fill:#4bc0c0"/>
        <path data-name="Path 8947" d="M31.135 2.113a.425.425 0 0 0 .255.74 11.041 11.041 0 0 1 9.347 6.671.425.425 0 0 1-.193.546l-.3.158a.043.043 0 0 0-.028.045l1.671.514a.057.057 0 0 0 .065-.034l.525-1.642c-.032-.054-.052-.043-.063-.037l-.359.19a.425.425 0 0 1-.586-.2A11.891 11.891 0 0 0 31.456 2a.421.421 0 0 0-.321.113z" transform="translate(324.929 288.594)" style="fill:#4bc0c0"/>
    </g>
</svg>
