<svg xmlns="http://www.w3.org/2000/svg" width="172" height="117.564" viewBox="0 0 172 117.564">
  <g id="object" transform="translate(-46.455 -72.001)">
    <g id="Group_5080" data-name="Group 5080" transform="translate(46.455 72.001)">
      <path id="Path_2225" data-name="Path 2225" d="M86.021,592.359c-3.485.069-6.97.121-10.453.134-6.208.023-14.346-1.123-18.98,3.243a4.321,4.321,0,0,0,2.136,7.359,20.956,20.956,0,0,1,3.157.57c.983.374,1.761,1.394,1.216,2.172a2.543,2.543,0,0,1-1.33.779c-3.253,1.058-6.859,1.192-10.1,2.285-7.691,2.6-6.363,7.816.629,9.5,6.287,1.515,13.279,1.305,19.762,1.408,37.938.6,75.977,1.313,113.7-.71,8.136-.437,16.226-.987,24.327-1.5,3.708-.235,8.348-.847,8.363-2.22.01-.956-2.437-1.669-4.85-2.042-4.225-.654-9.741-1.222-8.942-3.359.291-.78,1.667-1.5,3.577-1.861,1.475-.282,3.173-.357,4.772-.527a8.861,8.861,0,0,0,3.912-1.038c1.811-1.5-2.75-2.389-5.96-2.526-3.845-.164-6.98-1.216-5.655-2.8.923-1.106,3.929-1.855,4.843-2.962a1.163,1.163,0,0,0,.123-1.381c-2.441-4.561-15.191-4.17-19.943-4.511-8.791-.631-17.621-.752-26.439-.809-20-.128-40.009.086-60.008.419C97.932,592.075,91.977,592.241,86.021,592.359Z" transform="translate(-46.455 -502.874)" fill="#272525" opacity="0.04"/>
      <g id="Group_5079" data-name="Group 5079" transform="translate(24.182)">
        <g id="Group_5071" data-name="Group 5071" transform="translate(0 22.885)">
          <g id="Group_5067" data-name="Group 5067" transform="translate(1.655 38.57)">
            <path id="Path_2226" data-name="Path 2226" d="M198.32,682.1l1.48,1.425,2.624,1.878-.055-1.2-1.2-1.652-2.624-1.878Z" transform="translate(-198.244 -638.267)" fill="#3b455a"/>
            <path id="Path_2227" data-name="Path 2227" d="M200.31,432.255l-.688,4.329,2.79,19.675-4.539,19.25,2.737,1.015,10.31-22.611.892-7.039-.395-14.709Z" transform="translate(-197.874 -432.164)" fill="#305399"/>
          </g>
          <g id="Group_5068" data-name="Group 5068" transform="translate(11.237 37.767)">
            <path id="Path_2228" data-name="Path 2228" d="M265.4,428.181l1.735,18.34-1.5,23.956-2.66.221L259.486,449l-5.452-21.538Z" transform="translate(-254.034 -427.459)" fill="#305399"/>
            <path id="Path_2229" data-name="Path 2229" d="M307.487,679.281l1.289,1.2,1.319-1.557-1.557-1.319-2.876.239Z" transform="translate(-296.852 -634.922)" fill="#3b455a"/>
          </g>
          <g id="Group_5069" data-name="Group 5069">
            <path id="Path_2230" data-name="Path 2230" d="M218.537,261.647l-2.335.881a12.449,12.449,0,0,1-.76-1.837c-.726.089-1.6.117-2.03-.477a2.06,2.06,0,0,1-.268-.633l-.813-2.739a2.517,2.517,0,0,1-.154-.969,2.113,2.113,0,0,1,.971-1.374,5.142,5.142,0,0,1,4.181-.938,2.25,2.25,0,0,1,1.042.519,3.055,3.055,0,0,1,.7,1.644l.338,1.641a2.091,2.091,0,0,1-.2,1.842c-.23.252-.582.386-.759.678C218.137,260.4,218.534,261.045,218.537,261.647Z" transform="translate(-208.076 -245.362)" fill="#eac5b0"/>
            <path id="Path_2231" data-name="Path 2231" d="M202,210.3a6.067,6.067,0,0,1,.121-.811,11.857,11.857,0,0,0,.409-1.724,1.537,1.537,0,0,0-.7-1.517,1.832,1.832,0,0,0-1.123-.071,7.088,7.088,0,0,0-3.371,1.593c-.909.78-1.623,1.68-2.865,1.807a3.936,3.936,0,0,0-2.65,1.5c-.916.948-2.364,1.782-3.094,2.841a3.318,3.318,0,0,0-.521,1.508,5,5,0,0,0,2.333,4.742,7.116,7.116,0,0,0,1.132.533,5.355,5.355,0,0,0,2.61.555c-.3-.655-1.9-2.4-1.666-3.176.371-1.23,2.3-1.819,3.377-2.1,1.177-.3,2.5-.018,3.637-.38a4.444,4.444,0,0,0,2.055-1.827C202.243,212.892,201.914,211.294,202,210.3Z" transform="translate(-188.177 -206.12)" fill="#3b455a"/>
          </g>
          <path id="Path_2232" data-name="Path 2232" d="M190.405,340.02c.159,1.674.475,3.917,1.126,3.924a.585.585,0,0,0,.328-.141c1.038-.735,1.723-1.68,2.747-2.392a12.68,12.68,0,0,1,3.6-1.605,36.39,36.39,0,0,1,5.774-1.288c2.122-.286,6.31-.353,6.31-.353a23.463,23.463,0,0,0,3.365-1.4,44.851,44.851,0,0,0,5.569-2.835c.558-.364,2.089-1.427,1.413-2.147-.512-.545-2.06-.769-2.78-1.056a13.241,13.241,0,0,1-5.951-4.382,37.936,37.936,0,0,1-4.686-9.81c-.21-.611-.4-1.228-.591-1.846-.106-.351-.264-1.708-.553-1.9-2.926-1.972-3.942-3.881-7.1-3.006-7.21,2-6.652,2.262-7.868,6.053a40.486,40.486,0,0,0-1,7.1c-.084,1.92-.148,7.054-.146,8.975,0,2.143.083,4.287.3,6.418C190.29,338.558,190.33,339.225,190.405,340.02Z" transform="translate(-189.663 -291.908)" fill="#d7e8f4"/>
          <g id="Group_5070" data-name="Group 5070" transform="translate(2.648 13.603)">
            <path id="Path_2233" data-name="Path 2233" d="M219.185,285.844l4,4.979-12.536,5.269-1.6-2.474Z" transform="translate(-208.135 -285.844)" fill="#587bc9"/>
            <path id="Path_2234" data-name="Path 2234" d="M207.144,301.459l3.133.322,5.356,2.6,5.058,20.647-8.6.63-1.905-18.047-4.991-1.707-1.5-1.147Z" transform="translate(-203.696 -298.795)" fill="#587bc9"/>
          </g>
        </g>
        <g id="Group_5073" data-name="Group 5073" transform="translate(14.384)">
          <g id="Group_5072" data-name="Group 5072">
            <path id="Path_2235" data-name="Path 2235" d="M353.384,88.385A19.575,19.575,0,0,0,329.5,84.351c-.014.008-.029.012-.044.019a9.245,9.245,0,0,0-4.173,7.212.524.524,0,1,1-1.047-.055,10.279,10.279,0,0,1,4.3-7.832c-5.214-9.045-15.7-13.84-25.239-10.765-9.39,3.026-15.333,12.6-14.833,22.952a12.635,12.635,0,0,1,2.561.3,16.925,16.925,0,0,1,8.76,5.379c.475.523-.274,1.275-.748.754a17.915,17.915,0,0,0-2.593-2.356,13.59,13.59,0,0,0-11.827-2.4,17.453,17.453,0,0,0-9.98,8.436A19.136,19.136,0,0,0,273.4,120.7a18.367,18.367,0,0,0,9.491,10.891,20.26,20.26,0,0,0,12.724,1.37c2.826-.551,5.638-1.174,8.449-1.8,8.033-1.785,16.048-3.652,24.059-5.53q5.28-1.238,10.557-2.487c2.89-.684,5.989-1.16,8.7-2.419a20.439,20.439,0,0,0,10.4-24.883A20.767,20.767,0,0,0,353.384,88.385Z" transform="translate(-272.477 -72.001)" fill="rgba(75,86,192,0.85)"/>
          </g>
          <path id="Path_2236" data-name="Path 2236" d="M416.088,209.975q-.086-.255-.177-.508c.907,5.05-.382,10.186-4.439,13.588a47.361,47.361,0,0,1-13.806,8.449c-13.127,4.8-27.422,8.488-40.982,11.9-4.327,1.093-8.454,1.812-13.8,2.751-.044.008-.065.064-.1.1a22.008,22.008,0,0,0,9.594,1.091q.775-.1,1.55-.252c2.826-.551,5.638-1.174,8.449-1.8,7.884-1.752,15.751-3.583,23.614-5.426l2.958-.7q5.463-1.3,10.923-2.61c1.064-.255,2.154-.487,3.244-.736a19.369,19.369,0,0,0,2.574-.962A20.439,20.439,0,0,0,416.088,209.975Z" transform="translate(-330.788 -186.011)" opacity="0.1"/>
        </g>
        <g id="Group_5074" data-name="Group 5074" transform="translate(114.316 62.607)">
          <path id="Path_2237" data-name="Path 2237" d="M898.792,675.9l.135,1.344-2.444,1.674-1.424-1.179,1.154-1.509,2.444-1.673Z" transform="translate(-888.76 -634.349)" fill="#3b455a"/>
          <path id="Path_2238" data-name="Path 2238" d="M868.155,439.378l.41,4.082-3.676,14.021,3.378,22.54-2.5.86-6.578-22.009-1.041-6.4.051-13.55Z" transform="translate(-858.144 -438.92)" fill="#587bc9"/>
        </g>
        <g id="Group_5075" data-name="Group 5075" transform="translate(105.073 64.175)">
          <path id="Path_2239" data-name="Path 2239" d="M803.971,451.528,809.2,489.3l2.393,0,.454-24.206,4.372-16.985Z" transform="translate(-803.971 -448.107)" fill="#587bc9"/>
          <path id="Path_2240" data-name="Path 2240" d="M829.679,688.438v.667l-.883,1.354-3-1.358,1.3-1.355,2.588,0Z" transform="translate(-822.072 -646.856)" fill="#3b455a"/>
        </g>
        <path id="Path_2241" data-name="Path 2241" d="M789.515,302.065c1.806-1.492,6.156-.629,8.446-.627a116.414,116.414,0,0,0,2.51,14.955c.97,4.246,2.822,8.387,3.644,12.628a14.919,14.919,0,0,0,5.353,9.095c.47.4,1.011.928.871,1.532a1.534,1.534,0,0,1-.71.834c-3.046,2.085-6.96,2.3-10.651,2.357q-4.2.067-8.409-.013c-3.651-.069-7.713-.5-10.824-2.618a.8.8,0,0,1-.421-.543.9.9,0,0,1,.243-.546c2.178-3,1.93-7.972,2.358-11.49a100.593,100.593,0,0,1,1.918-11.835,50.323,50.323,0,0,1,2.429-7.385c.76-1.823,1.668-4.808,3.094-6.21Q789.438,302.129,789.515,302.065Z" transform="translate(-678.456 -262.082)" fill="#d7e8f4"/>
        <g id="Group_5077" data-name="Group 5077" transform="translate(79.602 18.477)">
          <path id="Path_2242" data-name="Path 2242" d="M707.369,185.438a9.538,9.538,0,0,0-4.41-3.9,12.49,12.49,0,0,0-3.816-.809l-3.669-.377a10.383,10.383,0,0,0-4.685.516,9.389,9.389,0,0,0-4.624,3.759,9.573,9.573,0,0,0-1.432,4.191l-1.995,19.393,2.916.3,2-19.489A6.073,6.073,0,0,1,688.2,187a7.149,7.149,0,0,1,1.279-1.867,6.274,6.274,0,0,1,1.981-1.371,6.4,6.4,0,0,1,2.392-.568c.04,0,.166-.007.482,0,.132,0,.274.015.446.033l5.137.528a6.13,6.13,0,0,1,2.048.547,7.148,7.148,0,0,1,1.867,1.279,6.271,6.271,0,0,1,1.371,1.981,6.4,6.4,0,0,1,.568,2.392c0,.04.007.166,0,.482,0,.132-.015.272-.033.441l-2.005,19.494,2.916.3,2-19.489A9.311,9.311,0,0,0,707.369,185.438Z" transform="translate(-677.953 -180.288)" fill="#305399"/>
          <g id="Group_5076" data-name="Group 5076" transform="translate(0 20.295)">
            <path id="Path_2243" data-name="Path 2243" d="M656.9,299.228l-2.175,21.145a5.206,5.206,0,0,0,4.646,5.711l19.466,2a5.206,5.206,0,0,0,5.711-4.646l2.175-21.145Zm14.512,15.186-.524,5.091c-.039.378-.511.639-1.055.583l-.02,0c-.544-.056-.953-.408-.914-.786l.524-5.091a3.94,3.94,0,1,1,1.989.2Z" transform="translate(-654.695 -299.228)" fill="#305399"/>
          </g>
          <path id="Path_2244" data-name="Path 2244" d="M677.014,396.64h0a5.238,5.238,0,0,0,.865.165l19.465,2a5.206,5.206,0,0,0,5.711-4.646l.988-9.607C700.775,399.5,677.122,396.637,677.014,396.64Z" transform="translate(-673.206 -349.7)" opacity="0.1"/>
        </g>
        <path id="Path_2245" data-name="Path 2245" d="M339.751,285.82l.81-2.16,1.126-.843.375.282-.376.844,1.6-1.312.75.751-.941,2.438-1.962,1.271Z" transform="translate(-313.888 -246.691)" fill="#eac5b0"/>
        <path id="Path_2246" data-name="Path 2246" d="M198.328,302.88l15.608,3.618,6.646-8.293,2.717,2.475-6.853,10.951-18.373-.716-1.355-4.328Z" transform="translate(-195.26 -259.608)" fill="#d7e8f4"/>
        <path id="Path_2247" data-name="Path 2247" d="M798.092,312.706l-11.257,7.744-6.918-4.333-1.485,2.223,8.151,7.177,11.254-5.551Z" transform="translate(-677.717 -271.634)" fill="#f7f7f7"/>
        <g id="Group_5078" data-name="Group 5078" transform="translate(111.704 29.627)">
          <path id="Path_2248" data-name="Path 2248" d="M852.1,254.677c-1.471.213-2.645.819-2.983,2.267a3.361,3.361,0,0,1,1.4-5.308,3.892,3.892,0,0,1,1.58,2.482Z" transform="translate(-847.394 -250.612)" fill="#3b455a"/>
          <path id="Path_2249" data-name="Path 2249" d="M851.151,266.69a3.786,3.786,0,0,1-1.966-2.836,7.585,7.585,0,0,1,.4-3.532c1.217-3.791,5.984-2.518,6.985.8C857.445,264.011,854.3,268.175,851.151,266.69Z" transform="translate(-848.042 -255.891)" fill="#eac5b0"/>
          <path id="Path_2250" data-name="Path 2250" d="M847.24,282.929c-.688-.524-.607-1.553-.784-2.4s-1.243-1.689-1.806-1.033a3.362,3.362,0,0,1-1.818-3.171,9.875,9.875,0,0,1,1.017-3.715c1.112-2.641,2.153-5.326,3.34-7.933a31.618,31.618,0,0,0,2.024-7.8,6.748,6.748,0,0,0-.635-3.893,21.235,21.235,0,0,0-2.105-3.4,3.158,3.158,0,0,1-.7-1.49,2.06,2.06,0,0,1,.716-1.628,2.887,2.887,0,0,1,2.373-.816,6.463,6.463,0,0,1,5.914,5.764c.44,2.744-.272,5.522-.786,8.253-.773,4.107-.518,9,1.486,12.709a13.626,13.626,0,0,1,1.92,4.75c.2,1.708-.551,3.669-2.165,4.264a9.675,9.675,0,0,0-1.914.6,1.117,1.117,0,0,0-.3,1.669c-.852,1.132-1.521.147-2.377-.2C849.6,283.048,848.12,283.6,847.24,282.929Z" transform="translate(-842.832 -245.633)" fill="#3b455a"/>
        </g>
        <path id="Path_2251" data-name="Path 2251" d="M768.781,326.569l-.531-1.365-2.472-.5-.372.988,1.729,1.485,1.027.315Z" transform="translate(-666.913 -281.588)" fill="#eac5b0"/>
      </g>
    </g>
  </g>
</svg>
