<svg xmlns="http://www.w3.org/2000/svg" width="27" height="27" viewBox="0 0 27 27"><defs><style>.a{fill:#ef1d45;}</style></defs><path class="a" d="M13.5,0A13.5,13.5,0,1,0,27,13.5,13.5,13.5,0,0,0,13.5,0Zm0,25.313A11.813,11.813,0,1,1,25.313,13.5,11.812,11.812,0,0,1,13.5,25.313Z"/><path class="a" d="M1.473,0A1.473,1.473,0,1,1,0,1.473,1.473,1.473,0,0,1,1.473,0Z" transform="translate(7.608 7.855)"/><circle class="a" cx="1.5" cy="1.5" r="1.5" transform="translate(16.749 8)"/><path class="a" d="M119.594,240A7.594,7.594,0,0,0,112,247.594h1.688a5.906,5.906,0,1,1,11.813,0h1.688A7.594,7.594,0,0,0,119.594,240Z" transform="translate(-106.094 -227.344)"/></svg>