<svg xmlns="http://www.w3.org/2000/svg" width="16.84" height="17.24" viewBox="0 0 16.84 17.24">
  <path id="Icon_ionic-ios-search" data-name="Icon ionic-ios-search" d="M21.142,20.485l-4.684-4.839a6.956,6.956,0,0,0,1.469-4.286,6.791,6.791,0,0,0-6.714-6.867A6.8,6.8,0,0,0,4.5,11.365a6.791,6.791,0,0,0,6.714,6.867A6.6,6.6,0,0,0,15.446,16.7L20.1,21.5a.71.71,0,0,0,.522.229.7.7,0,0,0,.5-.2A.755.755,0,0,0,21.142,20.485Zm-9.928-3.73a5.178,5.178,0,0,1-3.728-1.58,5.475,5.475,0,0,1,0-7.621,5.187,5.187,0,0,1,7.455,0,5.475,5.475,0,0,1,0,7.621A5.178,5.178,0,0,1,11.214,16.755Z" transform="translate(-4.5 -4.493)" fill="#fff"/>
</svg>
