<svg xmlns="http://www.w3.org/2000/svg" width="18.441" height="18.441" viewBox="0 0 18.441 18.441">
  <g id="Search" transform="translate(0 0)">
    <rect id="Rectangle_176" data-name="Rectangle 176" width="18.163" height="18.441" transform="translate(0 0)" fill="none"/>
    <path id="Path_99" data-name="Path 99" d="M18.163,16.817,14.394,12.99a8.021,8.021,0,0,0,1.6-4.871,8.133,8.133,0,0,0-2.328-5.755,7.98,7.98,0,0,0-11.338,0A8.133,8.133,0,0,0,0,8.119a8.133,8.133,0,0,0,2.328,5.755A7.887,7.887,0,0,0,8,16.238a7.745,7.745,0,0,0,4.8-1.624l3.769,3.827ZM2.285,8.119A5.788,5.788,0,0,1,3.941,4,5.612,5.612,0,0,1,8,2.32,5.612,5.612,0,0,1,12.052,4a5.788,5.788,0,0,1,1.656,4.117,5.788,5.788,0,0,1-1.656,4.117A5.612,5.612,0,0,1,8,13.918a5.612,5.612,0,0,1-4.055-1.682A5.788,5.788,0,0,1,2.285,8.119Z" transform="translate(0.278 0)" fill="#9eaeb8"/>
  </g>
</svg>
