<svg xmlns="http://www.w3.org/2000/svg" width="28" height="24" viewBox="0 0 28 24">
    <defs>
        <style>
            .cls-3{fill:#fff}
        </style>
    </defs>
    <g id="send" transform="translate(0 -35.111)">
        <path id="Path_3513" fill="#6d76ce" d="M28 47.111a2.644 2.644 0 0 1-1.667 2.481L3.741 58.9a2.7 2.7 0 0 1-2.806-.45 2.66 2.66 0 0 1-.85-2.694l2.015-7.83.209-.815L2.1 46.3.085 38.463a2.66 2.66 0 0 1 .85-2.694 2.705 2.705 0 0 1 2.806-.45l22.591 9.312A2.644 2.644 0 0 1 28 47.111z" transform="translate(0)"/>
        <path id="Path_3514" fill="#4b56c0" d="M2.1 256.82l-2.015 7.868a2.7 2.7 0 0 0 3.656 3.159l22.591-9.354A2.656 2.656 0 0 0 28 256H2.3z" transform="translate(0 -208.944)"/>
        <path id="Path_3515" d="M48.973 241.819a.819.819 0 0 1-.819.819h-9.823l.208-.819-.208-.819h9.824a.819.819 0 0 1 .818.819z" class="cls-3" transform="translate(-36.239 -194.707)"/>
        <path id="Path_3516" d="M38.331 256.82h9.824a.819.819 0 0 0 .819-.819H38.539z" class="cls-3" transform="translate(-36.239 -208.892)"/>
    </g>
</svg>
