<svg width="22" height="22" viewBox="0 0 22 22" fill="none" xmlns="http://www.w3.org/2000/svg">
<path d="M20.9433 12.9L18.9983 11.379C19.0276 11.1134 19.043 10.8463 19.0443 10.579C19.0434 10.3117 19.0281 10.0447 18.9983 9.77904L20.9443 8.25804C21.1207 8.11582 21.2407 7.91547 21.2829 7.69285C21.325 7.47023 21.2865 7.23989 21.1743 7.04304L19.1523 3.54304C19.0425 3.34353 18.8638 3.19085 18.6495 3.11356C18.4353 3.03626 18.2003 3.03963 17.9883 3.12304L15.6883 4.04404C15.2573 3.73142 14.7956 3.46338 14.3103 3.24404L13.9623 0.81104C13.9319 0.585214 13.8202 0.378242 13.648 0.228936C13.4759 0.0796291 13.2552 -0.00175656 13.0273 4.01545e-05H8.97235C8.74636 -0.00205441 8.52729 0.0778575 8.35573 0.224962C8.18417 0.372066 8.07176 0.576384 8.03935 0.80004L7.68835 3.24704C7.2049 3.468 6.74435 3.73596 6.31335 4.04704L4.01335 3.12304C3.8022 3.0439 3.56987 3.04195 3.35743 3.11752C3.14498 3.1931 2.96608 3.34133 2.85235 3.53604L0.828346 7.03904C0.713165 7.23604 0.672912 7.46798 0.714978 7.69228C0.757045 7.91657 0.878607 8.11816 1.05735 8.26004L3.00235 9.78004C2.94097 10.3116 2.94097 10.8485 3.00235 11.38L1.05635 12.9C0.880139 13.0424 0.760339 13.2428 0.718382 13.4654C0.676425 13.688 0.715051 13.9183 0.827347 14.115L2.84935 17.615C2.95917 17.8161 3.13892 17.9699 3.35456 18.0473C3.57019 18.1247 3.80672 18.1204 4.01935 18.035L6.31435 17.114C6.74537 17.4262 7.20669 17.6942 7.69135 17.914L8.04035 20.347C8.0701 20.5731 8.18146 20.7806 8.35347 20.9303C8.52549 21.08 8.7463 21.1617 8.97435 21.16H13.0283C13.2544 21.1622 13.4737 21.0823 13.6454 20.9352C13.8171 20.7881 13.9297 20.5838 13.9623 20.36L14.3123 17.918C14.7957 17.6969 15.2562 17.4289 15.6873 17.118L17.9873 18.042C18.0976 18.0851 18.215 18.1072 18.3333 18.107C18.4995 18.1073 18.6627 18.0632 18.806 17.9791C18.9493 17.8951 19.0675 17.7742 19.1483 17.629L21.1803 14.1C21.2881 13.904 21.3234 13.6764 21.2801 13.4569C21.2367 13.2375 21.1175 13.0404 20.9433 12.9ZM11.0003 14.1C10.303 14.1 9.62125 13.8932 9.04141 13.5058C8.46156 13.1184 8.00962 12.5677 7.74275 11.9234C7.47587 11.2791 7.40605 10.5701 7.5421 9.88615C7.67815 9.20217 8.01397 8.5739 8.50709 8.08078C9.00021 7.58766 9.62848 7.25184 10.3125 7.11579C10.9964 6.97974 11.7054 7.04957 12.3497 7.31644C12.994 7.58332 13.5447 8.03525 13.9321 8.6151C14.3195 9.19495 14.5263 9.87666 14.5263 10.574C14.5253 11.5089 14.1535 12.4051 13.4924 13.0661C12.8314 13.7272 11.9352 14.099 11.0003 14.1Z" fill="#9EAEB8"/>
</svg>
