<svg xmlns="http://www.w3.org/2000/svg" width="59.872" height="113.8" viewBox="0 0 59.872 113.8">
  <defs>
    <style>
      .cls-1 {
        fill: #bdbdbd;
      }
    </style>
  </defs>
  <path id="Path_4988" data-name="Path 4988" class="cls-1" d="M1793.94,912.76a6.109,6.109,0,1,0-12.07,1.89c.88,5.69,1.99,23.51-4.16,30.68a8.236,8.236,0,0,1-4.96,2.85l.56-33.94a8.832,8.832,0,1,0-17.66.08l1.6,64.41a8.22,8.22,0,0,1-5.17-2.88c-6.15-7.17-5.03-24.99-4.16-30.68a6.109,6.109,0,1,0-12.07-1.89c-.44,2.8-3.97,27.76,6.94,40.5a20.657,20.657,0,0,0,14.76,7.25l.69,28.04h13.33l.97-58.58a20.619,20.619,0,0,0,14.45-7.23C1797.91,940.52,1794.38,915.57,1793.94,912.76Z" transform="translate(-1734.959 -905.27)"/>
</svg>
