<svg xmlns="http://www.w3.org/2000/svg" xmlns:xlink="http://www.w3.org/1999/xlink" width="21" height="21" viewBox="0 0 21 21"><defs><style>.a{fill:url(#a);}</style><linearGradient id="a" x1="0.5" x2="0.5" y2="1" gradientUnits="objectBoundingBox"><stop offset="0" stop-color="silver"/><stop offset="1" stop-color="silver"/></linearGradient></defs><path class="a" d="M9.177,5.363,6.342.637A1.312,1.312,0,0,0,5.216,0H.658A.656.656,0,0,0,.12,1.033l4.564,6.52A8.489,8.489,0,0,1,9.177,5.363ZM20.343,0H15.784a1.312,1.312,0,0,0-1.125.637L11.823,5.363a8.491,8.491,0,0,1,4.494,2.189L20.88,1.033A.656.656,0,0,0,20.343,0ZM10.5,6.563a7.219,7.219,0,1,0,7.219,7.219A7.219,7.219,0,0,0,10.5,6.563Zm3.795,6.45-1.556,1.516.368,2.142a.471.471,0,0,1-.683.5L10.5,16.155,8.576,17.166a.471.471,0,0,1-.683-.5l.368-2.142L6.706,13.013a.471.471,0,0,1,.26-.8l2.15-.313.961-1.949a.472.472,0,0,1,.845,0l.961,1.949,2.15.313a.471.471,0,0,1,.26.8Z" transform="translate(0)"/></svg>