<svg xmlns="http://www.w3.org/2000/svg" width="20" height="20" viewBox="0 0 20 20">
    <path fill="#c9c9c9" d="M10 20A10 10 0 0 1 2.929 2.929a10 10 0 0 1 14.142 14.142A9.935 9.935 0 0 1 10 20zm0-18.438A8.437 8.437 0 1 0 18.437 10 8.447 8.447 0 0 0 10 1.562zm3.662 10.164a.781.781 0 0 0-1.079.24 3.438 3.438 0 0 1-2.622 1.513 3.438 3.438 0 0 1-2.622-1.513.781.781 0 0 0-1.318.839 5.023 5.023 0 0 0 3.94 2.237A5.023 5.023 0 0 0 13.9 12.8a.781.781 0 0 0-.24-1.079zm-7.1-5.281a.977.977 0 1 1-.977.977.977.977 0 0 1 .977-.977zm5.859.977a.977.977 0 1 0 .977-.977.977.977 0 0 0-.976.977z"/>
</svg>
