<svg xmlns="http://www.w3.org/2000/svg" width="30.867" height="24.197" viewBox="0 0 30.867 24.197"><defs><style>.a{fill:#9b9b9b;stroke:#fff;stroke-width:0.5px;}</style></defs><g transform="translate(0.25 -55.983)"><path class="a" d="M199.407,425.767H193.69a.89.89,0,0,0,0,1.779h5.718a.89.89,0,1,0,0-1.779Z" transform="translate(-181.365 -347.617)"/><path class="a" d="M148.209,203.183a2.795,2.795,0,0,0-3.747-3.747l-4.191-4.191a.89.89,0,0,0-1.258,1.258L143.2,200.7a2.795,2.795,0,0,0,3.747,3.746l.986.986a.89.89,0,1,0,1.258-1.258Zm-2.5-.229a1.015,1.015,0,1,1,1.015-1.015A1.016,1.016,0,0,1,145.707,202.954Z" transform="translate(-130.523 -130.523)"/><path class="a" d="M15.184,56.233A15.184,15.184,0,0,0,2.035,79.009a.89.89,0,0,0,1.214.325L5.725,77.9a.89.89,0,1,0-.89-1.541l-1.68.97A13.4,13.4,0,0,1,1.81,72.306H3.748a.89.89,0,1,0,0-1.779H1.81A13.3,13.3,0,0,1,3.158,65.5l1.678.969a.89.89,0,0,0,.89-1.541L4.05,63.961a13.515,13.515,0,0,1,3.679-3.679L8.7,61.958a.89.89,0,1,0,1.541-.89l-.969-1.678a13.308,13.308,0,0,1,5.026-1.348v1.939a.89.89,0,1,0,1.779,0V58.043A13.309,13.309,0,0,1,21.1,59.391l-.969,1.678a.89.89,0,1,0,1.541.89l.967-1.676a13.513,13.513,0,0,1,3.679,3.679l-1.676.967a.89.89,0,1,0,.89,1.541l1.678-.969a13.3,13.3,0,0,1,1.348,5.026H26.619a.89.89,0,1,0,0,1.779h1.938a13.4,13.4,0,0,1-1.345,5.028l-1.68-.97a.89.89,0,0,0-.89,1.541l2.476,1.43a.89.89,0,0,0,1.214-.325A15.184,15.184,0,0,0,15.184,56.233Z"/></g></svg>