<svg xmlns="http://www.w3.org/2000/svg" width="16" height="37.862" viewBox="0 0 16 37.862">
  <g id="standing-up-man-" transform="translate(-15.459)">
    <g id="Group_4959" data-name="Group 4959" transform="translate(15.459 0)">
      <circle id="Ellipse_721" data-name="Ellipse 721" cx="3.187" cy="3.187" r="3.187" transform="translate(4.752)" fill="#fff"/>
      <path id="Path_2154" data-name="Path 2154" d="M24.508,11.115a5.8,5.8,0,0,0-2.437.03c-5.3.621-7.019,6.754-6.533,11.43.211,2.022,3.4,2.043,3.185,0a12.138,12.138,0,0,1,.8-6.1v6.664c0,.078.008.152.011.228,0,.036-.011.066-.011.1,0,5.288-.009,10.575-.228,15.859-.1,2.349,3.545,2.34,3.642,0,.171-4.142.214-8.285.224-12.429a4.214,4.214,0,0,0,.518,0c.011,4.144.052,8.288.222,12.428.1,2.34,3.739,2.349,3.642,0-.218-5.284-.226-10.571-.226-15.859a2,2,0,0,0-.055-.457c0-2.3-.093-4.594-.066-6.889,1.085,1.836,1.184,4.637,1,6.452-.214,2.041,2.974,2.021,3.185,0C31.877,17.8,30.074,11.509,24.508,11.115Z" transform="translate(-15.459 -3.222)" fill="#fff"/>
    </g>
  </g>
</svg>
