<svg width="13" height="29" viewBox="0 0 13 29" fill="none" xmlns="http://www.w3.org/2000/svg">
<path d="M6.02938 4.84C7.3659 4.84 8.44938 3.75653 8.44938 2.42C8.44938 1.08347 7.3659 0 6.02938 0C4.69285 0 3.60938 1.08347 3.60938 2.42C3.60938 3.75653 4.69285 4.84 6.02938 4.84Z" fill="#001037"/>
<path d="M6.87161 5.99389C6.25994 5.87039 5.62902 5.87823 5.02061 6.01689C0.997611 6.48789 -0.30939 11.1449 0.0596104 14.6959C0.21961 16.2309 2.63961 16.2469 2.47761 14.6959C2.27955 13.1241 2.48999 11.5277 3.08861 10.0609V15.1219C3.08861 15.1819 3.09461 15.2369 3.09761 15.2949C3.09761 15.3219 3.08961 15.3449 3.08961 15.3729C3.08961 19.3889 3.08261 23.4029 2.91661 27.4159C2.84261 29.1999 5.60861 29.1929 5.68161 27.4159C5.81161 24.2709 5.84461 21.1239 5.85161 17.9769C5.98249 17.9849 6.11373 17.9849 6.24461 17.9769C6.25261 21.1239 6.28461 24.2709 6.41361 27.4149C6.48761 29.1919 9.25261 29.1989 9.17861 27.4149C9.01261 23.4019 9.00661 19.3879 9.00661 15.3719C9.00604 15.255 8.99194 15.1385 8.96461 15.0249C8.96461 13.2809 8.89461 11.5359 8.91461 9.79388C9.6325 11.3206 9.89498 13.0218 9.67061 14.6939C9.50861 16.2439 11.9286 16.2289 12.0886 14.6939C12.4686 11.0699 11.0986 6.29189 6.87161 5.99389Z" fill="#001037"/>
</svg>
