<svg width="11" height="24" viewBox="0 0 11 24" fill="none" xmlns="http://www.w3.org/2000/svg">
<path d="M5.03676 4.04024C6.15326 4.04024 7.05837 3.1358 7.05837 2.02012C7.05837 0.904438 6.15326 0 5.03676 0C3.92025 0 3.01514 0.904438 3.01514 2.02012C3.01514 3.1358 3.92025 4.04024 5.03676 4.04024Z" fill="#A6A5B6"/>
<path d="M5.7404 5.00304C5.22943 4.89996 4.70237 4.9065 4.19412 5.02224C0.833384 5.41542 -0.258458 9.30289 0.0497973 12.2671C0.183458 13.5485 2.20508 13.5618 2.06975 12.2671C1.90429 10.955 2.08008 9.62245 2.58016 8.39801V12.6227C2.58016 12.6728 2.58517 12.7187 2.58768 12.7671C2.58768 12.7897 2.581 12.8089 2.581 12.8323C2.581 16.1847 2.57515 19.5354 2.43648 22.8853C2.37466 24.3745 4.68532 24.3686 4.7463 22.8853C4.8549 20.26 4.88247 17.633 4.88831 15.006C4.99765 15.0127 5.10729 15.0127 5.21662 15.006C5.2233 17.633 5.25003 20.26 5.3578 22.8844C5.41962 24.3678 7.72944 24.3737 7.66762 22.8844C7.52895 19.5345 7.52394 16.1838 7.52394 12.8314C7.52346 12.7338 7.51168 12.6366 7.48885 12.5418C7.48885 11.0859 7.43037 9.62928 7.44708 8.17513C8.04679 9.44954 8.26607 10.8697 8.07863 12.2655C7.9433 13.5593 9.96492 13.5468 10.0986 12.2655C10.416 9.24029 9.27155 5.2518 5.7404 5.00304Z" fill="#A6A5B6"/>
</svg>
