<svg xmlns="http://www.w3.org/2000/svg" width="19.038" height="26.394" viewBox="0 0 19.038 26.394">
  <g id="woman_1_" data-name="woman (1)" transform="translate(-71.352)">
    <g id="Group_4750" data-name="Group 4750" transform="translate(71.352)">
      <g id="Group_4749" data-name="Group 4749">
        <path id="Path_2011" data-name="Path 2011" d="M88.882,18.931a4.648,4.648,0,0,0-1.513-.967l-2.38-.992a.411.411,0,0,0-.058-.019l-1.647-.415v-1.4l.072-.037a.414.414,0,0,0,.166.066,11.067,11.067,0,0,1,2.751.778.415.415,0,0,0,.532-.172.409.409,0,0,0,.047-.05A10.344,10.344,0,0,0,88.934,9.4a10.048,10.048,0,0,0-3-7.337h0A7.323,7.323,0,0,0,80.926,0c-4.415,0-8.007,4.216-8.007,9.4a10.306,10.306,0,0,0,2.164,6.428l.009.01.008.009a.426.426,0,0,0,.034.033l.006.006a.413.413,0,0,0,.15.081h0a.417.417,0,0,0,.053.011h0a.419.419,0,0,0,.058,0h.013l.042,0,.024,0a.408.408,0,0,0,.049-.012l.024-.009.02-.008a11.109,11.109,0,0,1,2.787-.783.415.415,0,0,0,.145-.052l.049.025v1.4l-1.746.418a.415.415,0,0,0-.063.021l-2.38.992a4.65,4.65,0,0,0-1.513.967,4.911,4.911,0,0,0-1.507,3.7v3.35a.417.417,0,0,0,.417.417h5.012a.417.417,0,1,0,0-.833H75.4V22.475a.417.417,0,1,0-.833,0V25.56H72.185V22.628a3.964,3.964,0,0,1,2.469-3.88l.028-.01,1.982-.826.269.959h0l1.874,6.689h-.825a.417.417,0,1,0,0,.833H89.973a.417.417,0,0,0,.417-.418V22.628A4.911,4.911,0,0,0,88.882,18.931Zm-13.34-3.874A9.531,9.531,0,0,1,73.753,9.4c0-4.723,3.218-8.566,7.174-8.566a6.407,6.407,0,0,1,4.436,1.835A9.213,9.213,0,0,1,88.1,9.4a9.546,9.546,0,0,1-1.79,5.658,11.733,11.733,0,0,0-2.032-.6,4.341,4.341,0,0,0,1.38-2.622A1.98,1.98,0,0,0,85.7,7.895a.417.417,0,0,0-.333-.4,6.942,6.942,0,0,1-4.1-2.286.417.417,0,0,0-.638-.049A10.263,10.263,0,0,1,76.466,7.5a.417.417,0,0,0-.312.4,1.98,1.98,0,0,0,.04,3.943,4.341,4.341,0,0,0,1.38,2.622A11.737,11.737,0,0,0,75.543,15.057ZM85.7,10.992V8.737a1.145,1.145,0,0,1,0,2.255ZM76.154,8.737v2.255a1.145,1.145,0,0,1,0-2.255Zm.833,2.511V8.214A11.09,11.09,0,0,0,80.9,6.056a8,8,0,0,0,3.968,2.18v3.012a3.517,3.517,0,0,1-3.513,3.513H80.5A3.517,3.517,0,0,1,76.987,11.248Zm.47,6.406,1.618-.387a.417.417,0,0,0,.32-.405v-1.41a4.338,4.338,0,0,0,1.1.143h.853a4.339,4.339,0,0,0,1.1-.141v1.408a.417.417,0,0,0,.315.4l1.624.409-.228.814a6.158,6.158,0,0,1-4.554.759,6.44,6.44,0,0,1-1.913-.751Zm4.723,7.906H79.672L78,19.594a7.472,7.472,0,0,0,1.391.46,6.988,6.988,0,0,0,4.463-.468Zm7.376,0H87.174V22.475a.417.417,0,1,0-.833,0V25.56H83.046l2.131-7.607,1.882.784.026.01a3.964,3.964,0,0,1,2.471,3.88V25.56Z" transform="translate(-71.352)"/>
        <path id="Path_2012" data-name="Path 2012" d="M247.923,189.518h.71a.417.417,0,0,0,0-.833h-.293v-.938a.417.417,0,1,0-.833,0V189.1A.417.417,0,0,0,247.923,189.518Z" transform="translate(-238.425 -177.673)"/>
      </g>
    </g>
  </g>
</svg>
