<svg xmlns="http://www.w3.org/2000/svg" width="17.438" height="26.395" viewBox="0 0 17.438 26.395">
  <g id="child" transform="translate(-105.87)">
    <g id="Group_4751" data-name="Group 4751" transform="translate(105.87)">
      <path id="Path_2013" data-name="Path 2013" d="M87.329,23.513h.018a.387.387,0,0,0,.386-.368,3.8,3.8,0,0,1,2.859-3.487l1.173-.293a5.786,5.786,0,0,0,.933,2.3,1.418,1.418,0,0,0,1.021.612,1.43,1.43,0,0,0,1.137-.382l.818-.773.818.773a1.427,1.427,0,0,0,2.158-.23,5.786,5.786,0,0,0,.933-2.3l1.173.293a3.8,3.8,0,0,1,2.859,3.487.387.387,0,0,0,.386.368h.018a.387.387,0,0,0,.368-.4,4.553,4.553,0,0,0-3.444-4.2l-1.557-.389L98.145,17.9V16.71a5.61,5.61,0,0,0,3.111-4.636h.564a1.221,1.221,0,0,0,1.22-1.22V9.4a1.221,1.221,0,0,0-.729-1.116V6.636A6.636,6.636,0,0,0,95.675,0h-.023A6.609,6.609,0,0,0,90.71,2.262a.387.387,0,1,0,.582.51,5.835,5.835,0,0,1,4.362-2h.021a5.863,5.863,0,0,1,5.863,5.863v1.54h-.655a.387.387,0,0,0-.387.387v1.685l-1-1.723a.387.387,0,0,0-.72.166l-.007.1a2.613,2.613,0,0,1-.915-1.219.386.386,0,0,0-.744,0c-.018.062-.408,1.318-2.436,1.694a1.163,1.163,0,0,0,.232-.473.387.387,0,0,0-.548-.424,8.3,8.3,0,0,1-2.748.795.387.387,0,0,0-.341.2l-.418.78V8.563a.387.387,0,0,0-.387-.387h-.655V6.7a5.916,5.916,0,0,1,.555-2.515.387.387,0,1,0-.7-.326A6.684,6.684,0,0,0,89.039,6.7V8.28A1.221,1.221,0,0,0,88.31,9.4v1.458a1.221,1.221,0,0,0,1.22,1.22H90.1A5.682,5.682,0,0,0,93.205,16.7V17.9l-1.243.614-1.557.389a4.553,4.553,0,0,0-3.444,4.2.387.387,0,0,0,.368.4Zm10.683-2.281a.638.638,0,0,1-.465.278.657.657,0,0,1-.522-.176l-.527-.5a2.476,2.476,0,0,0,1.634-2.077l.709.35A4.982,4.982,0,0,1,98.012,21.232Zm3.257-12.283h.551a.447.447,0,0,1,.447.447v1.458a.447.447,0,0,1-.447.447h-.551Zm-12.186,1.9V9.4a.447.447,0,0,1,.447-.447h.551V11.3H89.53A.447.447,0,0,1,89.083,10.854Zm1.773.925.992-1.849a5.991,5.991,0,0,0,1.206-.236.387.387,0,0,0,.381.453c2.4,0,3.528-.933,4.037-1.628A3.616,3.616,0,0,0,98.945,9.8a.387.387,0,0,0,.361-.014l.02-.012,1.169,2.019a4.821,4.821,0,0,1-4.82,4.719h-.037a4.865,4.865,0,0,1-4.782-4.729Zm4.776,5.5a5.843,5.843,0,0,0,1.739-.261v1.489a1.7,1.7,0,1,1-3.393,0V17.015A5.491,5.491,0,0,0,95.633,17.282Zm-2.415,1.479a2.476,2.476,0,0,0,1.634,2.077l-.527.5a.657.657,0,0,1-.522.176.638.638,0,0,1-.465-.278,4.981,4.981,0,0,1-.829-2.121Z" transform="translate(-86.956)"/>
      <path id="Path_2014" data-name="Path 2014" d="M103.922,459.516a.387.387,0,0,0-.387.387v.69h-2.82V459a.387.387,0,0,0-.387-.387h-2.5a.387.387,0,0,0-.387.387v1.592h-9.8v-.69a.387.387,0,0,0-.773,0v1.077a.387.387,0,0,0,.387.387h16.665a.387.387,0,0,0,.387-.387V459.9A.387.387,0,0,0,103.922,459.516Zm-5.707-.129h1.726v1.206H98.215Z" transform="translate(-86.87 -434.971)"/>
    </g>
  </g>
</svg>
