<svg xmlns="http://www.w3.org/2000/svg" width="11.337" height="18" viewBox="0 0 11.337 18"><defs><style>.a{fill:#c5c5c5;}</style></defs><g transform="translate(-5.147)"><path class="a" d="M197.31,232.945a.472.472,0,1,0,0-.945h-4.834a.472.472,0,1,0,0,.945Zm0,0" transform="translate(-184.078 -218.302)"/><path class="a" d="M132.755,16.87a1.424,1.424,0,0,1,1.153-.318A1.457,1.457,0,0,1,135.089,18v-.051h3.779a.472.472,0,0,0,.472-.472v-17A.472.472,0,0,0,138.868,0H128.476A.472.472,0,0,0,128,.472v17a.472.472,0,0,0,.472.472h3.779A1.414,1.414,0,0,1,132.755,16.87Zm3.751-8.84H133.2V7.085h3.307Zm-3.834-2.362V3.779h2V5.668Zm3.307-1.889h1.945V5.668h-1.945Zm-4.251-2.362h6.779v.945h-6.779Zm-1.889,0h.945v.945h-.945Zm1,5.668h1.417V8.03h-1.417Zm0,2.889h5.668v.945h-5.668Zm.528-4.306h-1.945V3.779h1.945Zm-1.528,8.5a1.417,1.417,0,0,1,1.417-1.417h4.834a1.417,1.417,0,1,1,0,2.834h-4.834A1.417,1.417,0,0,1,129.838,14.171Zm0,0" transform="translate(-122.857)"/></g></svg>