<svg width="126" height="150" viewBox="0 0 126 150" fill="none" xmlns="http://www.w3.org/2000/svg">
<path d="M7.52984 140.168C6.36184 140.168 5.30584 139.968 4.36184 139.568C3.43384 139.168 2.69784 138.592 2.15384 137.84C1.60984 137.088 1.32984 136.2 1.31384 135.176H4.91384C4.96184 135.864 5.20184 136.408 5.63384 136.808C6.08184 137.208 6.68984 137.408 7.45784 137.408C8.24184 137.408 8.85784 137.224 9.30584 136.856C9.75384 136.472 9.97784 135.976 9.97784 135.368C9.97784 134.872 9.82584 134.464 9.52184 134.144C9.21784 133.824 8.83384 133.576 8.36984 133.4C7.92184 133.208 7.29784 133 6.49784 132.776C5.40984 132.456 4.52184 132.144 3.83384 131.84C3.16184 131.52 2.57784 131.048 2.08184 130.424C1.60184 129.784 1.36184 128.936 1.36184 127.88C1.36184 126.888 1.60984 126.024 2.10584 125.288C2.60184 124.552 3.29784 123.992 4.19384 123.608C5.08984 123.208 6.11384 123.008 7.26584 123.008C8.99384 123.008 10.3938 123.432 11.4658 124.28C12.5538 125.112 13.1538 126.28 13.2658 127.784H9.56984C9.53784 127.208 9.28984 126.736 8.82584 126.368C8.37784 125.984 7.77784 125.792 7.02584 125.792C6.36984 125.792 5.84184 125.96 5.44184 126.296C5.05784 126.632 4.86584 127.12 4.86584 127.76C4.86584 128.208 5.00984 128.584 5.29784 128.888C5.60184 129.176 5.96984 129.416 6.40184 129.608C6.84984 129.784 7.47384 129.992 8.27384 130.232C9.36184 130.552 10.2498 130.872 10.9378 131.192C11.6258 131.512 12.2178 131.992 12.7138 132.632C13.2098 133.272 13.4578 134.112 13.4578 135.152C13.4578 136.048 13.2258 136.88 12.7618 137.648C12.2978 138.416 11.6178 139.032 10.7218 139.496C9.82584 139.944 8.76184 140.168 7.52984 140.168ZM28.9228 126.704V140H25.5388V138.32C25.1068 138.896 24.5388 139.352 23.8348 139.688C23.1468 140.008 22.3948 140.168 21.5788 140.168C20.5388 140.168 19.6188 139.952 18.8188 139.52C18.0188 139.072 17.3868 138.424 16.9228 137.576C16.4748 136.712 16.2508 135.688 16.2508 134.504V126.704H19.6108V134.024C19.6108 135.08 19.8748 135.896 20.4028 136.472C20.9308 137.032 21.6508 137.312 22.5628 137.312C23.4908 137.312 24.2188 137.032 24.7468 136.472C25.2748 135.896 25.5388 135.08 25.5388 134.024V126.704H28.9228ZM31.374 133.352C31.374 131.976 31.654 130.776 32.214 129.752C32.774 128.712 33.55 127.912 34.542 127.352C35.534 126.776 36.67 126.488 37.95 126.488C39.598 126.488 40.958 126.904 42.03 127.736C43.118 128.552 43.846 129.704 44.214 131.192H40.59C40.398 130.616 40.07 130.168 39.606 129.848C39.158 129.512 38.598 129.344 37.926 129.344C36.966 129.344 36.206 129.696 35.646 130.4C35.086 131.088 34.806 132.072 34.806 133.352C34.806 134.616 35.086 135.6 35.646 136.304C36.206 136.992 36.966 137.336 37.926 137.336C39.286 137.336 40.174 136.728 40.59 135.512H44.214C43.846 136.952 43.118 138.096 42.03 138.944C40.942 139.792 39.582 140.216 37.95 140.216C36.67 140.216 35.534 139.936 34.542 139.376C33.55 138.8 32.774 138 32.214 136.976C31.654 135.936 31.374 134.728 31.374 133.352ZM45.8115 133.352C45.8115 131.976 46.0915 130.776 46.6515 129.752C47.2115 128.712 47.9875 127.912 48.9795 127.352C49.9715 126.776 51.1075 126.488 52.3875 126.488C54.0355 126.488 55.3955 126.904 56.4675 127.736C57.5555 128.552 58.2835 129.704 58.6515 131.192H55.0275C54.8355 130.616 54.5075 130.168 54.0435 129.848C53.5955 129.512 53.0355 129.344 52.3635 129.344C51.4035 129.344 50.6435 129.696 50.0835 130.4C49.5235 131.088 49.2435 132.072 49.2435 133.352C49.2435 134.616 49.5235 135.6 50.0835 136.304C50.6435 136.992 51.4035 137.336 52.3635 137.336C53.7235 137.336 54.6115 136.728 55.0275 135.512H58.6515C58.2835 136.952 57.5555 138.096 56.4675 138.944C55.3795 139.792 54.0195 140.216 52.3875 140.216C51.1075 140.216 49.9715 139.936 48.9795 139.376C47.9875 138.8 47.2115 138 46.6515 136.976C46.0915 135.936 45.8115 134.728 45.8115 133.352ZM73.473 133.064C73.473 133.544 73.441 133.976 73.377 134.36H63.657C63.737 135.32 64.073 136.072 64.665 136.616C65.257 137.16 65.985 137.432 66.849 137.432C68.097 137.432 68.985 136.896 69.513 135.824H73.137C72.753 137.104 72.017 138.16 70.929 138.992C69.841 139.808 68.505 140.216 66.921 140.216C65.641 140.216 64.489 139.936 63.465 139.376C62.457 138.8 61.665 137.992 61.089 136.952C60.529 135.912 60.249 134.712 60.249 133.352C60.249 131.976 60.529 130.768 61.089 129.728C61.649 128.688 62.433 127.888 63.441 127.328C64.449 126.768 65.609 126.488 66.921 126.488C68.185 126.488 69.313 126.76 70.305 127.304C71.313 127.848 72.089 128.624 72.633 129.632C73.193 130.624 73.473 131.768 73.473 133.064ZM69.993 132.104C69.977 131.24 69.665 130.552 69.057 130.04C68.449 129.512 67.705 129.248 66.825 129.248C65.993 129.248 65.289 129.504 64.713 130.016C64.153 130.512 63.809 131.208 63.681 132.104H69.993ZM81.0135 140.216C79.9255 140.216 78.9495 140.024 78.0855 139.64C77.2215 139.24 76.5335 138.704 76.0215 138.032C75.5255 137.36 75.2535 136.616 75.2055 135.8H78.5895C78.6535 136.312 78.9015 136.736 79.3335 137.072C79.7815 137.408 80.3335 137.576 80.9895 137.576C81.6295 137.576 82.1255 137.448 82.4775 137.192C82.8455 136.936 83.0295 136.608 83.0295 136.208C83.0295 135.776 82.8055 135.456 82.3575 135.248C81.9255 135.024 81.2295 134.784 80.2695 134.528C79.2775 134.288 78.4615 134.04 77.8215 133.784C77.1975 133.528 76.6535 133.136 76.1895 132.608C75.7415 132.08 75.5175 131.368 75.5175 130.472C75.5175 129.736 75.7255 129.064 76.1415 128.456C76.5735 127.848 77.1815 127.368 77.9655 127.016C78.7655 126.664 79.7015 126.488 80.7735 126.488C82.3575 126.488 83.6215 126.888 84.5655 127.688C85.5095 128.472 86.0295 129.536 86.1255 130.88H82.9095C82.8615 130.352 82.6375 129.936 82.2375 129.632C81.8535 129.312 81.3335 129.152 80.6775 129.152C80.0695 129.152 79.5975 129.264 79.2615 129.488C78.9415 129.712 78.7815 130.024 78.7815 130.424C78.7815 130.872 79.0055 131.216 79.4535 131.456C79.9015 131.68 80.5975 131.912 81.5415 132.152C82.5015 132.392 83.2935 132.64 83.9175 132.896C84.5415 133.152 85.0775 133.552 85.5255 134.096C85.9895 134.624 86.2295 135.328 86.2455 136.208C86.2455 136.976 86.0295 137.664 85.5975 138.272C85.1815 138.88 84.5735 139.36 83.7735 139.712C82.9895 140.048 82.0695 140.216 81.0135 140.216ZM94.0917 140.216C93.0037 140.216 92.0277 140.024 91.1637 139.64C90.2997 139.24 89.6117 138.704 89.0997 138.032C88.6037 137.36 88.3317 136.616 88.2837 135.8H91.6677C91.7317 136.312 91.9797 136.736 92.4117 137.072C92.8597 137.408 93.4117 137.576 94.0677 137.576C94.7077 137.576 95.2037 137.448 95.5557 137.192C95.9237 136.936 96.1077 136.608 96.1077 136.208C96.1077 135.776 95.8837 135.456 95.4357 135.248C95.0037 135.024 94.3077 134.784 93.3477 134.528C92.3557 134.288 91.5397 134.04 90.8997 133.784C90.2757 133.528 89.7317 133.136 89.2677 132.608C88.8197 132.08 88.5957 131.368 88.5957 130.472C88.5957 129.736 88.8037 129.064 89.2197 128.456C89.6517 127.848 90.2597 127.368 91.0437 127.016C91.8437 126.664 92.7797 126.488 93.8517 126.488C95.4357 126.488 96.6997 126.888 97.6437 127.688C98.5877 128.472 99.1077 129.536 99.2037 130.88H95.9877C95.9397 130.352 95.7157 129.936 95.3157 129.632C94.9317 129.312 94.4117 129.152 93.7557 129.152C93.1477 129.152 92.6757 129.264 92.3397 129.488C92.0197 129.712 91.8597 130.024 91.8597 130.424C91.8597 130.872 92.0837 131.216 92.5317 131.456C92.9797 131.68 93.6757 131.912 94.6197 132.152C95.5797 132.392 96.3717 132.64 96.9957 132.896C97.6197 133.152 98.1557 133.552 98.6037 134.096C99.0677 134.624 99.3077 135.328 99.3237 136.208C99.3237 136.976 99.1077 137.664 98.6757 138.272C98.2597 138.88 97.6517 139.36 96.8517 139.712C96.0677 140.048 95.1477 140.216 94.0917 140.216ZM106.426 122.96L106.042 134.552H103.21L102.802 122.96H106.426ZM104.698 140.168C104.09 140.168 103.586 139.984 103.186 139.616C102.802 139.232 102.61 138.76 102.61 138.2C102.61 137.64 102.802 137.176 103.186 136.808C103.586 136.424 104.09 136.232 104.698 136.232C105.29 136.232 105.778 136.424 106.162 136.808C106.546 137.176 106.738 137.64 106.738 138.2C106.738 138.76 106.546 139.232 106.162 139.616C105.778 139.984 105.29 140.168 104.698 140.168Z" fill="#52B33F"/>
<path d="M54.7817 86.0214C77.5577 86.0214 96.0214 67.5577 96.0214 44.7817C96.0214 22.0056 77.5577 3.54199 54.7817 3.54199C32.0056 3.54199 13.542 22.0056 13.542 44.7817C13.542 67.5577 32.0056 86.0214 54.7817 86.0214Z" fill="#80C783"/>
<path fill-rule="evenodd" clip-rule="evenodd" d="M38.3295 41.8804C36.8107 40.866 34.782 41.0966 33.5257 42.4241C32.2713 43.7498 32.1532 45.7898 33.2501 47.2504L44.5001 62.2504C45.1788 63.1541 46.2288 63.7053 47.3594 63.7485C48.4882 63.7897 49.5776 63.321 50.322 62.4697L76.572 32.4697C77.8676 30.9903 77.7982 28.761 76.4144 27.3622C75.0307 25.9635 72.8032 25.8735 71.3088 27.1522L47.217 47.8035L38.3295 41.8804Z" fill="#FAFAFA"/>
<g clip-path="url(#clip0_385_2)">
<path d="M108.665 29.4188C108.394 29.3625 107.121 29.5817 105.908 28.928C105.666 28.7974 105.364 28.8881 105.234 29.1302C105.103 29.3724 105.194 29.6744 105.436 29.8051C105.539 29.8607 105.643 29.9113 105.746 29.9573C104.73 30.4037 103.909 31.2095 103.429 32.4005C102.974 31.2863 102.194 30.4392 101.111 29.956C102.216 29.4631 102.984 28.6012 103.429 27.5117C103.525 27.7471 103.612 27.9106 103.615 27.9173C103.74 28.1623 104.04 28.2595 104.285 28.1345C104.53 28.0095 104.628 27.7095 104.503 27.4644C104.501 27.4577 103.898 26.3571 103.969 24.8923C104.01 24.6177 103.818 24.3447 103.524 24.2908C103.257 24.2382 102.961 24.4076 102.892 24.7076C102.857 24.863 103.114 27.553 101.162 28.801C99.8915 29.6117 98.4487 29.3597 98.1799 29.4207C97.6117 29.5501 97.6121 30.3621 98.1799 30.4914C98.4454 30.5512 99.9164 30.2999 101.188 31.1274C103.075 32.3574 102.867 34.9758 102.88 35.0931C102.88 35.7073 103.757 35.8456 103.951 35.2463C104.017 35.0423 103.741 32.4453 105.605 31.169C106.833 30.3275 108.355 30.5304 108.62 30.5006C109.226 30.4325 109.28 29.5488 108.665 29.4188Z" fill="#80C783"/>
<path d="M125.466 19.7003C124.556 19.5991 118.065 20.5109 115.228 14.5546C113.736 11.4215 114.119 8.58126 114.037 8.22492C113.964 7.90458 113.661 7.71267 113.372 7.74965C113.042 7.78704 112.823 8.0605 112.823 8.33582V9.62835C112.597 14.0717 110.575 17.8542 106.329 19.1856C103.877 19.9548 101.748 19.6226 101.351 19.7095C100.714 19.8541 100.709 20.7695 101.358 20.9137C101.914 21.031 106.094 20.3536 109.341 23.0499C109.553 23.2256 109.867 23.1965 110.042 22.985C110.218 22.7733 110.189 22.4593 109.978 22.2835C108.864 21.3583 107.528 20.6971 106 20.3131C110.023 19.2999 112.492 16.4286 113.437 12.4067C114.374 16.404 116.822 19.3007 120.888 20.3088C116.863 21.316 114.36 24.1849 113.431 28.1958C113.085 26.7257 112.508 25.3186 111.641 24.0898C111.482 23.8651 111.172 23.8115 110.947 23.97C110.722 24.1287 110.668 24.4395 110.827 24.6643C111.133 25.0974 111.408 25.5693 111.645 26.067C113.052 29.0232 112.803 32.0307 112.824 32.3208C112.876 33.0619 114.086 33.0992 114.048 32.1829C113.979 30.5312 114.107 24.9361 118.627 22.281C121.676 20.4912 125.069 21.014 125.522 20.9122C126.204 20.7572 126.13 19.7748 125.466 19.7003Z" fill="#80C783"/>
<path d="M102.911 11.5066C102.574 11.4367 99.9147 11.9074 98.7269 9.51098C98.1685 8.38672 98.2072 7.13669 98.2149 6.97997C98.2549 6.7087 98.0665 6.43291 97.7692 6.37866C97.5038 6.32613 97.2065 6.49454 97.1378 6.79635C97.1023 6.95108 97.3598 9.641 95.4079 10.889C94.1816 11.6713 92.7504 11.4692 92.4807 11.4993C91.8746 11.5682 91.8256 12.4427 92.4254 12.5793C92.7151 12.6446 94.155 12.3833 95.4332 13.2154C96.7954 14.1028 97.0785 15.7327 97.1253 16.6339C97.1318 17.149 97.109 17.2089 97.1495 17.3344C97.2239 17.5647 97.4343 17.7194 97.673 17.7194C97.947 17.7195 98.169 17.5169 98.2129 17.2686C98.2434 17.0984 98.1104 15.8032 98.7413 14.5496C98.8649 14.3038 98.766 14.0044 98.5203 13.8807C98.2745 13.7569 97.9751 13.856 97.8514 14.1017C97.7884 14.2269 97.7299 14.3567 97.6759 14.4906C97.2211 13.3757 96.4411 12.5279 95.3572 12.0441C96.4616 11.551 97.2299 10.6893 97.6751 9.59976C98.1199 10.6973 98.8821 11.5553 99.9912 12.0458C99.8825 12.0938 99.7738 12.1468 99.6659 12.2051C99.4238 12.336 99.3338 12.6382 99.4648 12.8802C99.5957 13.1222 99.8978 13.2122 100.14 13.0814C101.316 12.4453 102.6 12.6183 102.865 12.5888C103.475 12.5189 103.521 11.6356 102.911 11.5066Z" fill="#80C783"/>
</g>
<defs>
<clipPath id="clip0_385_2">
<rect width="34" height="34" fill="white" transform="translate(92 4)"/>
</clipPath>
</defs>
</svg>
