<svg xmlns="http://www.w3.org/2000/svg" width="27.463" height="27.464" viewBox="0 0 27.463 27.464">
  <g id="surveyor" transform="translate(0.25 0.25)">
    <path id="Path_2446" data-name="Path 2446" d="M251.955,0H242.37A2.373,2.373,0,0,0,240,2.37V8.742a2.373,2.373,0,0,0,2.37,2.37h.843v2.37a.79.79,0,0,0,1.349.559l2.928-2.928h4.465a2.373,2.373,0,0,0,2.37-2.37V2.37A2.373,2.373,0,0,0,251.955,0Zm.79,8.742a.791.791,0,0,1-.79.79h-4.792a.79.79,0,0,0-.559.231l-1.811,1.811V10.322a.79.79,0,0,0-.79-.79H242.37a.791.791,0,0,1-.79-.79V2.37a.791.791,0,0,1,.79-.79h9.585a.791.791,0,0,1,.79.79Z" transform="translate(-227.361)" fill="#9b9b9b" stroke="#fff" stroke-width="0.5"/>
    <path id="Path_2447" data-name="Path 2447" d="M327.286,76.231l-1.811,1.811-.626-.626a.79.79,0,0,0-1.117,1.117l1.185,1.185a.79.79,0,0,0,1.117,0l2.37-2.37a.79.79,0,1,0-1.117-1.117Z" transform="translate(-306.463 -71.997)" fill="#9b9b9b" stroke="#fff" stroke-width="0.5"/>
    <path id="Path_2448" data-name="Path 2448" d="M1.58,251.32v3.162a.79.79,0,0,0,.79.79h9.479a.79.79,0,0,0,.749-.54l.874-2.621a2.368,2.368,0,0,0,1.41-4.239l.878-2.676a.79.79,0,0,0-.751-1.036H14.14a3.956,3.956,0,0,0-3.87-3.16H3.95A3.954,3.954,0,0,0,0,244.95v3.212a3.946,3.946,0,0,0,1.58,3.158Zm1.58.713a3.953,3.953,0,0,0,.79.079H5.483l-.524,1.58H3.16Zm3.464,1.659c.013-.04,2.609-7.87,2.636-7.952h4.659l-.535,1.633H11.849a.79.79,0,0,0-.79.79v3.16a.789.789,0,0,0,.748.788l-.527,1.582Zm6.805-3.16h-.79v-1.58h.79a.79.79,0,0,1,0,1.58ZM1.58,244.95a2.373,2.373,0,0,1,2.37-2.37h6.32a2.374,2.374,0,0,1,2.234,1.58H8.69a.79.79,0,0,0-.75.541l-.885,2.671H4.74V244.95a.79.79,0,1,0-1.58,0v3.212a.79.79,0,0,0,.79.79H6.531l-.524,1.58H3.95a2.373,2.373,0,0,1-2.37-2.37Z" transform="translate(0 -228.308)" fill="#9b9b9b" stroke="#fff" stroke-width="0.5"/>
    <path id="Path_2449" data-name="Path 2449" d="M67.9,94.95a3.95,3.95,0,1,0-3.95,3.95A3.954,3.954,0,0,0,67.9,94.95Zm-3.95,2.37a2.37,2.37,0,1,1,2.37-2.37A2.373,2.373,0,0,1,63.95,97.32Z" transform="translate(-56.84 -86.208)" fill="#9b9b9b" stroke="#fff" stroke-width="0.5"/>
  </g>
</svg>
