<svg width="20" height="20" viewBox="0 0 20 20" fill="none" xmlns="http://www.w3.org/2000/svg">
<path d="M16.5 3.57143H16V5C16 5.91881 15.2148 6.66667 14.25 6.66667H5.75C4.78525 6.66667 4 5.91881 4 5V3.57143H3.5C2.67275 3.57143 2 4.21214 2 5V18.5714C2 19.3593 2.67275 20 3.5 20H16.5C17.3272 20 18 19.3593 18 18.5714V5C18 4.21214 17.3272 3.57143 16.5 3.57143ZM6.75 16.6667C6.75 16.9298 6.52625 17.1429 6.25 17.1429H5.25C4.97375 17.1429 4.75 16.9298 4.75 16.6667V15.7143C4.75 15.4512 4.97375 15.2381 5.25 15.2381H6.25C6.52625 15.2381 6.75 15.4512 6.75 15.7143V16.6667ZM6.75 13.3333C6.75 13.5964 6.52625 13.8095 6.25 13.8095H5.25C4.97375 13.8095 4.75 13.5964 4.75 13.3333V12.381C4.75 12.1179 4.97375 11.9048 5.25 11.9048H6.25C6.52625 11.9048 6.75 12.1179 6.75 12.381V13.3333ZM6.75 10C6.75 10.2631 6.52625 10.4762 6.25 10.4762H5.25C4.97375 10.4762 4.75 10.2631 4.75 10V9.04762C4.75 8.78452 4.97375 8.57143 5.25 8.57143H6.25C6.52625 8.57143 6.75 8.78452 6.75 9.04762V10ZM14.75 16.6667H8.75C8.474 16.6667 8.25 16.4533 8.25 16.1905C8.25 15.9276 8.474 15.7143 8.75 15.7143H14.75C15.026 15.7143 15.25 15.9276 15.25 16.1905C15.25 16.4533 15.026 16.6667 14.75 16.6667ZM14.75 13.3333H8.75C8.474 13.3333 8.25 13.12 8.25 12.8571C8.25 12.5943 8.474 12.381 8.75 12.381H14.75C15.026 12.381 15.25 12.5943 15.25 12.8571C15.25 13.12 15.026 13.3333 14.75 13.3333ZM14.75 10H8.75C8.474 10 8.25 9.78667 8.25 9.52381C8.25 9.26095 8.474 9.04762 8.75 9.04762H14.75C15.026 9.04762 15.25 9.26095 15.25 9.52381C15.25 9.78667 15.026 10 14.75 10ZM14.25 5.71429H5.75C5.3365 5.71429 5 5.39381 5 5V3.09524C5 2.70143 5.3365 2.38095 5.75 2.38095H7.26125C7.388 1.04786 8.56775 0 10 0C11.4323 0 12.612 1.04786 12.7388 2.38095H14.25C14.6635 2.38095 15 2.70143 15 3.09524V5C15 5.39381 14.6635 5.71429 14.25 5.71429Z" fill="#BCBCBD"/>
</svg>
