<svg xmlns="http://www.w3.org/2000/svg" width="17.633" height="24.121" viewBox="0 0 17.633 24.121">
    <path data-name="Path 4483" d="M76.05 250.393a2.106 2.106 0 0 1-1.5-.621l-3.744-3.743-1.745 1.745a.707.707 0 0 0 0 1l6.488 6.488a.707.707 0 0 0 1 0l9.732-9.732a.706.706 0 0 0 0-1l-1.745-1.745-6.987 6.987a2.106 2.106 0 0 1-1.499.621z" transform="translate(-68.856 -231.348)" style="fill:#dfdfdf"/>
    <path data-name="Path 4484" d="M79.794.206a.707.707 0 0 0-1 0l-9.731 9.732a.707.707 0 0 0 0 1l6.488 6.488a.707.707 0 0 0 1 0l9.732-9.732a.707.707 0 0 0 0-1z" transform="translate(-68.856)" style="fill:#dfdfdf"/>
</svg>
