<svg xmlns="http://www.w3.org/2000/svg" width="248.258" height="191.515" viewBox="0 0 248.258 191.515">
    <g data-name="3926908">
        <g data-name="Group 9772">
            <path data-name="Rectangle 6075" transform="translate(0 162.582)" style="fill:#ebebeb" d="M0 0h248.258v.124H0z"/>
            <path data-name="Rectangle 6076" transform="translate(210.475 170.574)" style="fill:#ebebeb" d="M0 0h12.908v.124H0z"/>
            <path data-name="Rectangle 6077" transform="translate(154.416 171.922)" style="fill:#ebebeb" d="M0 0h22.357v.124H0z"/>
            <path data-name="Rectangle 6078" transform="translate(179.794 165.963)" style="fill:#ebebeb" d="M0 0h30.184v.124H0z"/>
            <path data-name="Rectangle 6079" transform="translate(26.047 166.797)" style="fill:#ebebeb" d="M0 0h9.55v.124H0z"/>
            <path data-name="Rectangle 6080" transform="translate(40.018 166.797)" style="fill:#ebebeb" d="M0 0h27.453v.124H0z"/>
            <path data-name="Rectangle 6081" transform="translate(84.242 168.894)" style="fill:#ebebeb" d="M0 0h36.974v.124H0z"/>
            <path data-name="Path 7511" d="M136.918 195.39H41.041a2.838 2.838 0 0 1-2.834-2.834V57.786a2.838 2.838 0 0 1 2.834-2.834h95.877a2.837 2.837 0 0 1 2.834 2.834v134.77a2.837 2.837 0 0 1-2.834 2.834zM41.041 55.077a2.713 2.713 0 0 0-2.71 2.71v134.77a2.713 2.713 0 0 0 2.71 2.71h95.877a2.713 2.713 0 0 0 2.709-2.71V57.786a2.713 2.713 0 0 0-2.709-2.71H41.041z" transform="translate(-19.237 -54.952)" style="fill:#ebebeb"/>
            <path data-name="Path 7512" d="M353.215 195.39h-95.876a2.837 2.837 0 0 1-2.834-2.834V57.786a2.837 2.837 0 0 1 2.834-2.834h95.876a2.837 2.837 0 0 1 2.834 2.834v134.77a2.837 2.837 0 0 1-2.834 2.834zM257.339 55.077a2.713 2.713 0 0 0-2.709 2.71v134.77a2.713 2.713 0 0 0 2.709 2.71h95.876a2.713 2.713 0 0 0 2.71-2.71V57.786a2.713 2.713 0 0 0-2.71-2.71h-95.876z" transform="translate(-128.139 -54.952)" style="fill:#ebebeb"/>
        </g>
        <g data-name="Group 9774">
            <path data-name="Path 7513" d="m422.983 253.413-2.969-5.369 10.476-121.831a20.26 20.26 0 0 1 3.09 12.759z" transform="translate(-211.471 -90.831)" style="fill:#bfbfbf"/>
            <path data-name="Path 7514" d="M65.131 247.033h176.2l11.1-119.833a2.742 2.742 0 0 0-2.73-2.994H79a2.741 2.741 0 0 0-2.73 2.489z" transform="translate(-32.793 -89.82)" style="fill:#f0f0f0"/>
            <path data-name="Path 7515" d="m242.2 245.261 10.545-113.4a1.985 1.985 0 0 0-1.977-2.158H84a1.984 1.984 0 0 0-1.977 1.811l-10.545 113.4a1.985 1.985 0 0 0 1.977 2.158h166.769a1.985 1.985 0 0 0 1.976-1.811z" transform="translate(-35.986 -92.586)" style="fill:#fafafa"/>
            <path data-name="Path 7516" d="M260.9 129.7H94.133a1.986 1.986 0 0 0-1.979 1.811l-.561 6.044h170.75l.53-5.7a1.983 1.983 0 0 0-1.973-2.155z" transform="translate(-46.116 -92.587)" style="fill:#bfbfbf"/>
            <g data-name="Group 9773">
                <path data-name="Path 7517" d="M109.217 135.72a2.079 2.079 0 0 1-2.03 1.864 1.679 1.679 0 0 1-1.7-1.864 2.079 2.079 0 0 1 2.03-1.864 1.679 1.679 0 0 1 1.7 1.864z" transform="translate(-53.108 -94.679)" style="fill:#ebebeb"/>
                <path data-name="Path 7518" d="M125.01 135.72a2.078 2.078 0 0 1-2.029 1.864 1.679 1.679 0 0 1-1.7-1.864 2.079 2.079 0 0 1 2.03-1.864 1.678 1.678 0 0 1 1.699 1.864z" transform="translate(-61.06 -94.679)" style="fill:#f0f0f0"/>
                <path data-name="Path 7519" d="M140.8 135.72a2.078 2.078 0 0 1-2.029 1.864 1.679 1.679 0 0 1-1.7-1.864 2.078 2.078 0 0 1 2.029-1.864 1.679 1.679 0 0 1 1.7 1.864z" transform="translate(-69.011 -94.679)" style="fill:#fff"/>
            </g>
            <path data-name="Path 7520" d="M389.505 371.584h15.148l2.969 5.369h-16.24z" transform="translate(-196.11 -214.371)" style="fill:#e0e0e0"/>
            <path data-name="Path 7521" d="M212.493 371.584H37.931l1.878 5.369H214.37z" transform="translate(-19.098 -214.371)" style="fill:#f5f5f5"/>
            <path data-name="Path 7522" d="M191.011 371.584h-56.986l.211 1.207a2.787 2.787 0 0 0 2.746 2.308h51.328a2.787 2.787 0 0 0 2.746-3.266z" transform="translate(-67.48 -214.371)" style="fill:#e0e0e0"/>
        </g>
        <ellipse cx="96.269" cy="5.622" rx="96.269" ry="5.622" style="fill:#d9d9d9" transform="translate(27.86 173.762)"/>
        <g>
            <g data-name="Group 9780" style="opacity:.6">
                <g data-name="Group 9775" transform="rotate(-22.5 312.822 -90.21)">
                    <ellipse data-name="Ellipse 2147" cx="66.685" cy="10.312" rx="66.685" ry="10.312" style="fill:#407bff"/>
                    <ellipse data-name="Ellipse 2148" cx="66.685" cy="10.312" rx="66.685" ry="10.312" style="opacity:.2"/>
                </g>
                <g data-name="Group 9777" transform="translate(44.633 23.541)">
                    <path data-name="Path 7523" d="M291.426 153.25a60.904 60.904 0 0 0-2.271-.622l.122-.481c.764.193 1.534.4 2.289.627z" transform="translate(-190.218 -127.429)" style="fill:#407bff"/>
                    <path data-name="Path 7524" d="M270.534 149.964A61.322 61.322 0 0 0 259 148.872v-.5a61.851 61.851 0 0 1 11.624 1.1z" transform="translate(-175.037 -125.529)" style="fill:#407bff"/>
                    <path data-name="Path 7525" d="M259.1 389.46v-.5a60.281 60.281 0 0 0 23.179-4.631l.19.459a60.771 60.771 0 0 1-23.369 4.672z" transform="translate(-175.084 -244.33)" style="fill:#407bff"/>
                    <circle data-name="Ellipse 2149" cx="59.389" cy="59.389" r="59.389" transform="rotate(-45 101.382 41.994)" style="fill:#cfaaff"/>
                    <g data-name="Group 9776" style="opacity:.2">
                        <path data-name="Path 7526" d="m278.437 182.9 9.35 2.942a59.356 59.356 0 0 0-46.894-33.211l-2.844 7.589-7.9 2.551s-8.815 8.133-8.776 8.655-.148 8.66-.148 8.66l-6.077 7.892-5.213 3.412-.029 7.713 3.1 7.5 4.66-.855 4.061-4.907-.657-3.312 9.585-5.405 7.365 3.936 10.459-4.15 6.755 4.189-8.754 8.28-13.733 3.539-9.812 4.064-9.609 8.371 2.339 10.408 7.654 5.068 15.009.77 8.625 9.146 5.429 9.575 3.242 4.151 5.251-2.892 5.328-13.314 3.656-17.04-1.972-9.889-4.136 2.923-2.977-6.318-5.935-6.112-2.016-4 12.984 6.268 13.653-2.07 4.732-10.2-4.922-7.99-7.935 2.029-5.717.041-1.89-3.694 6.966-.919z" transform="translate(-150.319 -127.673)" style="fill:#fff"/>
                        <path data-name="Path 7527" d="m180.918 355.972-3-8.97-14.026-8.34-4.624-1.159a59.445 59.445 0 0 0 47.586 26.6l-.4-.977s-15.521-5.034-16.042-5-9.494-2.154-9.494-2.154z" transform="translate(-124.825 -220.753)" style="fill:#fff"/>
                        <path data-name="Path 7528" d="m145.775 222.794.57-16.359 9.942-6.268 6.718-16.218-4.283-.714a59.4 59.4 0 0 0-16.186 62.8l9.595-6.172z" transform="translate(-114.823 -143.081)" style="fill:#fff"/>
                    </g>
                </g>
                <path data-name="Path 7529" d="M256.179 220.579c-8.838 7.31-28.811 18.087-52.894 28.063-23.67 9.8-45.076 16.252-56.651 17.5.293.824.609 1.639.947 2.456a59.143 59.143 0 0 0 12.436 18.839c12.15-2.13 31.359-8.185 52.346-16.878 21.363-8.849 39.486-18.328 49.481-25.456a59.1 59.1 0 0 0-4.528-21.959 52.76 52.76 0 0 0-1.137-2.565z" transform="translate(-73.828 -138.342)" style="opacity:.2"/>
                <g data-name="Group 9778">
                    <path data-name="Path 7530" d="m248.64 198.615 9.079 21.918c2.179 5.262-23.636 20.953-57.66 35.046s-63.378 21.254-65.557 15.992l-9.079-21.918c2.179 5.262 31.529-1.9 65.557-15.992s59.84-29.784 57.66-35.046z" transform="translate(-63.148 -127.283)" style="fill:#407bff"/>
                    <path data-name="Path 7531" d="m248.64 198.615 9.079 21.918c2.179 5.262-23.636 20.953-57.66 35.046s-63.378 21.254-65.557 15.992l-9.079-21.918c2.179 5.262 31.529-1.9 65.557-15.992s59.84-29.784 57.66-35.046z" transform="translate(-63.148 -127.283)" style="fill:#8831fa"/>
                </g>
                <g data-name="Group 9779">
                    <path data-name="Path 7532" d="M184.092 298.709q2.355-.743 4.7-1.51 2.529 3.359 5.04 6.717-.454-4.04-.888-8.1 2.329-.786 4.646-1.6 2.872 3.217 5.717 6.436-.8-3.944-1.591-7.9 2.307-.829 4.6-1.686 1.132 7.2 2.318 14.361-2.351.851-4.713 1.676-3.214-3.629-6.46-7.256.482 4.574.988 9.127-2.374.794-4.759 1.563-4.767-5.919-9.598-11.828z" transform="translate(-92.687 -173.833)" style="fill:#fff"/>
                    <path data-name="Path 7533" d="M238.061 278.476q2.3-.882 4.586-1.792 2.386 3.36 4.755 6.724-.361-4.166-.7-8.354 2.271-.927 4.531-1.877 2.718 3.2 5.411 6.393-.7-4.049-1.386-8.108 2.249-.97 4.487-1.965.956 7.4 1.964 14.756-2.29 1-4.592 1.969-3.041-3.6-6.115-7.206.378 4.718.782 9.415-2.315.941-4.639 1.856-4.515-5.911-9.084-11.811z" transform="translate(-119.86 -162.971)" style="fill:#fff"/>
                    <path data-name="Path 7534" d="M290.7 254.993q2.24-1.023 4.469-2.072 2.242 3.363 4.465 6.723-.269-4.292-.518-8.6 2.211-1.066 4.415-2.155 2.563 3.17 5.1 6.341-.6-4.149-1.18-8.3 2.19-1.11 4.368-2.244.778 7.587 1.608 15.138-2.229 1.143-4.47 2.26-2.867-3.578-5.765-7.148.274 4.857.572 9.694-2.252 1.09-4.518 2.147-4.246-5.899-8.546-11.784z" transform="translate(-146.361 -150.476)" style="fill:#fff"/>
                </g>
            </g>
        </g>
    </g>
</svg>
