<svg width="21" height="21" viewBox="0 0 21 21" fill="none" xmlns="http://www.w3.org/2000/svg">
<path d="M17.3266 3.75H16.8016V5.25C16.8016 6.21475 15.977 7 14.9641 7H6.03906C5.02607 7 4.20156 6.21475 4.20156 5.25V3.75H3.67656C2.80795 3.75 2.10156 4.42275 2.10156 5.25V19.5C2.10156 20.3272 2.80795 21 3.67656 21H17.3266C18.1952 21 18.9016 20.3272 18.9016 19.5V5.25C18.9016 4.42275 18.1952 3.75 17.3266 3.75ZM7.08906 17.5C7.08906 17.7763 6.85413 18 6.56406 18H5.51406C5.224 18 4.98906 17.7763 4.98906 17.5V16.5C4.98906 16.2237 5.224 16 5.51406 16H6.56406C6.85413 16 7.08906 16.2237 7.08906 16.5V17.5ZM7.08906 14C7.08906 14.2762 6.85413 14.5 6.56406 14.5H5.51406C5.224 14.5 4.98906 14.2762 4.98906 14V13C4.98906 12.7238 5.224 12.5 5.51406 12.5H6.56406C6.85413 12.5 7.08906 12.7238 7.08906 13V14ZM7.08906 10.5C7.08906 10.7762 6.85413 11 6.56406 11H5.51406C5.224 11 4.98906 10.7762 4.98906 10.5V9.5C4.98906 9.22375 5.224 9 5.51406 9H6.56406C6.85413 9 7.08906 9.22375 7.08906 9.5V10.5ZM15.4891 17.5H9.18906C8.89926 17.5 8.66406 17.276 8.66406 17C8.66406 16.724 8.89926 16.5 9.18906 16.5H15.4891C15.7789 16.5 16.0141 16.724 16.0141 17C16.0141 17.276 15.7789 17.5 15.4891 17.5ZM15.4891 14H9.18906C8.89926 14 8.66406 13.776 8.66406 13.5C8.66406 13.224 8.89926 13 9.18906 13H15.4891C15.7789 13 16.0141 13.224 16.0141 13.5C16.0141 13.776 15.7789 14 15.4891 14ZM15.4891 10.5H9.18906C8.89926 10.5 8.66406 10.276 8.66406 10C8.66406 9.724 8.89926 9.5 9.18906 9.5H15.4891C15.7789 9.5 16.0141 9.724 16.0141 10C16.0141 10.276 15.7789 10.5 15.4891 10.5ZM14.9641 6H6.03906C5.60489 6 5.25156 5.6635 5.25156 5.25V3.25C5.25156 2.8365 5.60489 2.5 6.03906 2.5H7.62587C7.75896 1.10025 8.9977 0 10.5016 0C12.0054 0 13.2442 1.10025 13.3772 2.5H14.9641C15.3982 2.5 15.7516 2.8365 15.7516 3.25V5.25C15.7516 5.6635 15.3982 6 14.9641 6Z" fill="#FDFDFD"/>
</svg>
