<svg xmlns="http://www.w3.org/2000/svg" width="17.358" height="17.359" viewBox="0 0 17.358 17.359">
    <path data-name="Path 4485" d="M177.777 142.223h5.3v3.377h-5.3zm0 0" transform="translate(-171.75 -137.402)" style="fill:#dfdfdf"/>
    <path data-name="Path 4486" d="M362.668 142.223h5.063v3.377h-5.063zm0 0" transform="translate(-350.372 -137.402)" style="fill:#dfdfdf"/>
    <path data-name="Path 4487" d="M177.777 398.223h5.3v3.857h-5.3zm0 0" transform="translate(-171.75 -384.722)" style="fill:#dfdfdf"/>
    <path data-name="Path 4488" d="M0 142.223h5.063v3.377H0zm0 0" transform="translate(0 -137.402)" style="fill:#dfdfdf"/>
    <path data-name="Path 4489" d="M177.777 270.223h5.3v3.377h-5.3zm0 0" transform="translate(-171.75 -261.062)" style="fill:#dfdfdf"/>
    <path data-name="Path 4490" d="M17.359 3.857V2.41A2.413 2.413 0 0 0 14.948 0H2.411A2.413 2.413 0 0 0 0 2.41v1.447zm0 0" style="fill:#dfdfdf"/>
    <path data-name="Path 4491" d="M5.063 398.223H0v1.447a2.413 2.413 0 0 0 2.411 2.411h2.652zm0 0" transform="translate(0 -384.722)" style="fill:#dfdfdf"/>
    <path data-name="Path 4492" d="M0 270.223h5.063v3.377H0zm0 0" transform="translate(0 -261.062)" style="fill:#dfdfdf"/>
    <path data-name="Path 4493" d="M362.668 398.223v3.857h2.652a2.413 2.413 0 0 0 2.411-2.411v-1.447zm0 0" transform="translate(-350.372 -384.722)" style="fill:#dfdfdf"/>
    <path data-name="Path 4494" d="M362.668 270.223h5.063v3.377h-5.063zm0 0" transform="translate(-350.372 -261.062)" style="fill:#dfdfdf"/>
</svg>
