<svg xmlns="http://www.w3.org/2000/svg" width="15.933" height="18.177" viewBox="0 0 15.933 18.177">
    <path d="M40.943 6.963a5.607 5.607 0 1 0 5.607 5.607 5.614 5.614 0 0 0-5.607-5.607zm-1.2 3.382a.779.779 0 1 1-.779.779.78.78 0 0 1 .774-.779zm2.41 4.45a.779.779 0 1 1 .779-.779.78.78 0 0 1-.784.784zm.656-3.256-2.892 2.892a.586.586 0 0 1-.829-.829l2.892-2.892a.586.586 0 0 1 .829.829zM39.367 0h-3.812a.587.587 0 0 0-.514.868l1.12 2.044a1.685 1.685 0 0 0-.608 2.277 5.949 5.949 0 0 0-3.924 4.5l-.959 5a2.932 2.932 0 0 0 2.879 3.484h2.442a.49.49 0 0 0 .34-.843 6.636 6.636 0 0 1 3.009-11.2.49.49 0 0 0 .029-.944 1.685 1.685 0 0 0-.608-2.277l1.12-2.041A.587.587 0 0 0 39.367 0zM37.9 4.874h-.88a.515.515 0 0 1-.487-.679.508.508 0 0 1 .487-.347h.88a.508.508 0 0 1 .487.347.515.515 0 0 1-.487.679z" transform="translate(-30.616)" style="fill:#434343"/>
</svg>
