<svg xmlns="http://www.w3.org/2000/svg" width="17.553" height="17.553" viewBox="0 0 17.553 17.553">
    <path data-name="Path 4357" d="M0 4.114h17.553V0H0zm6.171-2.571H7.2v1.028H6.171zm-2.057 0h1.028v1.028H4.114zm-2.057 0h1.028v1.028H2.057z" style="fill:#c5c5c5"/>
    <path data-name="Path 4358" d="M361 225h2.057v7.268H361z" transform="translate(-348.624 -217.286)" style="fill:#c5c5c5"/>
    <path data-name="Path 4359" d="M90 407h6.205v1.028H90z" transform="translate(-86.915 -393.047)" style="fill:#c5c5c5"/>
    <path data-name="Path 4360" d="M90 225h6.205v3.154H90z" transform="translate(-86.915 -217.286)" style="fill:#c5c5c5"/>
    <path data-name="Path 4361" d="M0 162.41h17.553V150H0zm11.348-10.868h4.114v9.325h-4.114zm-9.291 0h8.262v5.211H2.057zm0 6.239h8.262v3.085H2.057z" transform="translate(0 -144.858)" style="fill:#c5c5c5"/>
</svg>
