<svg xmlns="http://www.w3.org/2000/svg" width="24.311" height="30" viewBox="0 0 24.311 30"><defs><style>.a{fill:#9b9b9b;}</style></defs><g transform="translate(-0.5 0)"><path class="a" d="M45,249.109H59.8a.443.443,0,1,0,0-.887H57.858V236.767a.443.443,0,0,0-.887,0v11.455H54.515v-7.108a.443.443,0,1,0-.887,0v7.108H51.171v-9.054a.444.444,0,0,0-.887,0v9.054H47.827v-4.633a.443.443,0,1,0-.887,0v4.633H45a.443.443,0,1,0,0,.887Zm0,0" transform="translate(-41.478 -222.477)"/><path class="a" d="M54.07,49.355H45a.443.443,0,1,0,0,.887H54.07a.443.443,0,1,0,0-.887Zm0,0" transform="translate(-41.476 -46.464)"/><path class="a" d="M177.578,99.785H176.2a.443.443,0,0,0,0,.887h1.382a.443.443,0,1,0,0-.887Zm0,0" transform="translate(-164.985 -93.939)"/><path class="a" d="M45,100.672h5.913a.443.443,0,0,0,0-.887H45a.443.443,0,1,0,0,.887Zm0,0" transform="translate(-41.477 -93.939)"/><path class="a" d="M22.86,9.021H21.344V5.758a.444.444,0,0,0-.13-.314l-5.3-5.3A.442.442,0,0,0,15.587,0H1.739A1.241,1.241,0,0,0,.5,1.239V22.368a.443.443,0,1,0,.887,0V1.239A.353.353,0,0,1,1.739.887h13.4V4.808A1.4,1.4,0,0,0,16.537,6.2h3.919V9.021H8.651c-.158,0-3.116,1.3-3.175,1.34a.754.754,0,0,0,.087,1.272C8.735,13,8.52,12.923,8.649,12.923H20.457V28.761a.353.353,0,0,1-.352.352H1.739a.353.353,0,0,1-.352-.352V24.142a.443.443,0,1,0-.887,0v4.618A1.241,1.241,0,0,0,1.739,30H20.1a1.241,1.241,0,0,0,1.239-1.239V12.923H22.86a1.951,1.951,0,1,0,0-3.9ZM16.537,5.315a.508.508,0,0,1-.507-.507V1.515l3.8,3.8Zm-8.33,6.492L6.27,10.972l1.937-.835Zm14.652.229H9.094v-.621H23.826a1.066,1.066,0,0,1-.966.621ZM9.094,10.528V9.908H22.86a1.065,1.065,0,0,1,.966.621Zm0,0"/></g></svg>