<svg id="check_1_" data-name="check(1)" xmlns="http://www.w3.org/2000/svg" width="23.266" height="23.266" viewBox="0 0 23.266 23.266">
  <g id="Group_5084" data-name="Group 5084">
    <g id="Group_5083" data-name="Group 5083">
      <path id="Path_2255" data-name="Path 2255" d="M11.633,0A11.633,11.633,0,1,0,23.266,11.633,11.633,11.633,0,0,0,11.633,0Zm0,21.6A9.971,9.971,0,1,1,21.6,11.633,9.971,9.971,0,0,1,11.633,21.6Z" fill="#53b33e"/>
    </g>
  </g>
  <g id="Group_5086" data-name="Group 5086" transform="translate(4.975 6.658)">
    <g id="Group_5085" data-name="Group 5085">
      <path id="Path_2256" data-name="Path 2256" d="M115.231,136.976a.831.831,0,0,0-1.154,0h0l-7.722,7.722-2.736-2.736a.831.831,0,1,0-1.2,1.154l.02.02,3.324,3.324a.831.831,0,0,0,1.175,0l8.309-8.309A.831.831,0,0,0,115.231,136.976Z" transform="translate(-102.19 -136.743)" fill="#53b33e"/>
    </g>
  </g>
</svg>
