<svg xmlns="http://www.w3.org/2000/svg" width="12.91" height="16.962" viewBox="0 0 12.91 16.962">
    <path fill="#4b56c0" d="M63.015.436a.71.71 0 0 0-.773.117l-1.113.985a.079.079 0 0 1-.106 0L59.51.184a.721.721 0 0 0-.962 0l-1.513 1.353a.08.08 0 0 1-.107 0L55.415.184a.721.721 0 0 0-.962 0l-1.514 1.354a.08.08 0 0 1-.107 0L51.718.553a.716.716 0 0 0-1.192.541v14.774a.717.717 0 0 0 1.194.541l1.113-.985a.079.079 0 0 1 .106 0l1.514 1.354a.721.721 0 0 0 .962 0l1.513-1.353a.08.08 0 0 1 .107 0l1.513 1.353a.721.721 0 0 0 .962 0l1.514-1.354a.08.08 0 0 1 .107 0l1.114.985a.716.716 0 0 0 1.192-.541V1.094a.71.71 0 0 0-.422-.658zm-9.834 5.319h3.993a.321.321 0 1 1 0 .642h-3.993a.321.321 0 1 1 0-.642zm7.6 5.453h-7.6a.321.321 0 1 1 0-.642h7.6a.321.321 0 1 1 0 .642zm0-2.406h-7.6a.321.321 0 1 1 0-.642h7.6a.321.321 0 1 1 0 .642z" transform="translate(-50.526 0)"/>
</svg>
