<svg data-name="Group 11177" xmlns="http://www.w3.org/2000/svg" width="50" height="50" viewBox="0 0 50 50">
    <circle data-name="Ellipse 2153" cx="25" cy="25" r="25" style="opacity:.2;fill:#ff6384"/>
    <g transform="translate(10.834 11.297)">
        <path data-name="Path 8948" d="M4.284 19.7a1.284 1.284 0 0 0 1.284-1.284v-5.132a1.284 1.284 0 0 0-2.568 0v5.136a1.284 1.284 0 0 0 1.284 1.28z" transform="translate(-1.031 2.17)" style="fill:#ff6384"/>
        <circle data-name="Ellipse 2210" cx="1.926" cy="1.926" r="1.926" transform="translate(1.327 24.441)" style="fill:#ff6384"/>
        <path data-name="Path 8949" d="M16.159 1.01a14.123 14.123 0 0 0-14.636 9.9 1.284 1.284 0 0 0 1.284 1.656H6a2.568 2.568 0 0 1 2.568 2.568v11.747a1.284 1.284 0 0 0 .732 1.168A14.139 14.139 0 1 0 16.159 1.01zm3.967 15.407H14.99a1.284 1.284 0 0 1-1.284-1.284V7.43a1.284 1.284 0 1 1 2.568 0v6.419h3.852a1.284 1.284 0 1 1 0 2.568z" transform="translate(-1.467 -.963)" style="fill:#ff6384"/>
    </g>
</svg>
