<svg xmlns="http://www.w3.org/2000/svg" width="12.039" height="13.718" viewBox="0 0 12.039 13.718">
    <path data-name="Path 5217" d="M779.9 690.578a.641.641 0 0 0-.392-.945v-1.671a.162.162 0 0 0-.324 0v1.671a.642.642 0 1 0 .486 1.175l1.549 1.549a.162.162 0 0 0 .229-.23zm-.871-.324a.317.317 0 0 1 .288-.316h.06a.318.318 0 1 1-.347.316z" transform="translate(-773.322 -682.401)" style="fill:#ce0c0c"/>
    <path data-name="Path 5218" d="M192.494 92.066a.161.161 0 0 0 .229 0l.518-.518a.161.161 0 0 0 0-.229L191.8 89.88a.162.162 0 0 0-.114-.048.159.159 0 0 0-.114.048l-.518.518a.163.163 0 0 0 0 .23l.35.35-.374.374a5.84 5.84 0 0 0-3.144-1.332v-.763h.865a.162.162 0 0 0 .162-.162v-.933a.162.162 0 0 0-.162-.162h-2.965a.162.162 0 0 0-.162.162v.932a.162.162 0 0 0 .162.162h.865v.763a5.84 5.84 0 0 0-3.144 1.332l-.374-.374.35-.35a.163.163 0 0 0 0-.23l-.518-.518a.163.163 0 0 0-.23 0l-1.435 1.439a.163.163 0 0 0 0 .23l.518.518a.161.161 0 0 0 .229 0l.35-.35.374.374a5.868 5.868 0 1 0 9 0l.374-.374zm-.8-1.843 1.21 1.21-.29.29-.349-.349-.509-.509-.349-.349zm-5.74-1.9h2.642v.608h-2.643v-.608zm1.026.932h.589v.738c-.1 0-.2-.007-.294-.007s-.2 0-.294.007zm-5.044 2.466-.29-.29 1.209-1.209.29.29-.349.349-.509.509zm.693-.235.28-.28.36.36c-.048.045-.1.091-.142.138s-.093.095-.138.142zm10.187 4.366a5.541 5.541 0 1 1-5.541-5.542 5.547 5.547 0 0 1 5.536 5.543zm-1.256-4.006c-.045-.048-.091-.1-.138-.142s-.095-.093-.142-.138l.36-.36.28.28z" transform="translate(-181.25 -88)" style="fill:#ce0c0c"/>
    <path data-name="Path 5219" d="M317.346 421.382a4.859 4.859 0 1 0 1.543 7.907 4.859 4.859 0 0 0-1.543-7.907zm2.638 4.312h-.547a.162.162 0 1 0 0 .324h.547a4.511 4.511 0 0 1-1.213 2.924l-.385-.385a.162.162 0 0 0-.23.23l.385.385a4.511 4.511 0 0 1-2.924 1.213v-.547a.162.162 0 0 0-.324 0v.547a4.511 4.511 0 0 1-2.924-1.213l.385-.385a.162.162 0 1 0-.23-.23l-.385.385a4.511 4.511 0 0 1-1.213-2.924h.547a.162.162 0 1 0 0-.324h-.547a4.511 4.511 0 0 1 1.213-2.924l.385.385a.162.162 0 0 0 .229-.23l-.385-.385a4.511 4.511 0 0 1 2.924-1.213v.547a.162.162 0 1 0 .324 0v-.547a4.511 4.511 0 0 1 2.924 1.213l-.385.385a.162.162 0 1 0 .229.23l.385-.385a4.507 4.507 0 0 1 1.215 2.923z" transform="translate(-309.436 -418.003)" style="fill:#ce0c0c"/>
</svg>
