<svg data-name="clock (1)" xmlns="http://www.w3.org/2000/svg" width="26.233" height="26.233" viewBox="0 0 26.233 26.233">
    <g data-name="Group 8608">
        <g data-name="Group 8607">
            <path data-name="Path 4464" d="m241.859 128.126-3.658-2.743V119.8a1.016 1.016 0 0 0-2.032 0v6.1a1.014 1.014 0 0 0 .406.813l4.064 3.048a1.016 1.016 0 0 0 1.219-1.626z" transform="translate(-224.069 -112.693)" style="fill:#9eaeb8"/>
        </g>
    </g>
    <g data-name="Group 8610">
        <g data-name="Group 8609">
            <path data-name="Path 4465" d="M13.117 0a13.117 13.117 0 1 0 13.116 13.117A13.131 13.131 0 0 0 13.117 0zm0 24.2A11.085 11.085 0 1 1 24.2 13.117 11.1 11.1 0 0 1 13.117 24.2z" style="fill:#9eaeb8"/>
        </g>
    </g>
</svg>
