<svg xmlns="http://www.w3.org/2000/svg" width="15.951" height="20.941" viewBox="0 0 15.951 20.941">
    <path data-name="Path 4352" d="M76.413 30.54a1.825 1.825 0 0 0-1.3-.54H74.3v.818a1.637 1.637 0 0 1-1.634 1.636h-7.357a1.637 1.637 0 0 1-1.634-1.636V30h-.818a1.842 1.842 0 0 0-1.838 1.838L61 47.871a1.839 1.839 0 0 0 1.838 1.843h12.257a1.842 1.842 0 0 0 1.838-1.838l.018-16.033a1.829 1.829 0 0 0-.538-1.303zm-7.229 5.6h4.354a.614.614 0 0 1 0 1.227h-4.354a.614.614 0 0 1 0-1.227zm0 4.09h4.354a.614.614 0 0 1 0 1.227h-4.354a.614.614 0 0 1 0-1.227zm0 4.09h4.371a.614.614 0 0 1 0 1.227h-4.371a.614.614 0 0 1 0-1.227zm-5.221-8.156a.612.612 0 0 1 .867 0l.333.334 1.413-1.415a.613.613 0 0 1 .867.868L65.6 37.794a.612.612 0 0 1-.867 0l-.767-.767a.614.614 0 0 1-.004-.868zm0 4.4a.612.612 0 0 1 .867 0l.333.334 1.413-1.415a.613.613 0 0 1 .867.868L65.6 42.2a.612.612 0 0 1-.867 0l-.767-.767a.614.614 0 0 1-.004-.871zm0 4.09a.612.612 0 0 1 .867 0l.333.334 1.413-1.415a.613.613 0 0 1 .867.868L65.6 46.287a.612.612 0 0 1-.867 0l-.767-.767a.614.614 0 0 1-.004-.868z" transform="translate(-61 -28.773)" style="fill:#002046"/>
    <path data-name="Path 4353" d="M156.361 2.045a.409.409 0 0 0 .409.409h7.354a.409.409 0 0 0 .409-.409V.409a.409.409 0 0 0-.41-.409h-7.353a.409.409 0 0 0-.409.409z" transform="translate(-152.461)" style="fill:#002046"/>
</svg>
