<svg xmlns="http://www.w3.org/2000/svg" width="39" height="39" viewBox="0 0 39 39">
    <g data-name="Group 11178" transform="translate(-1282 -283)">
        <circle data-name="Ellipse 2153" cx="19.5" cy="19.5" r="19.5" transform="translate(1282 283)" style="opacity:.16;fill:#36a2eb"/>
        <path d="M14.237 2H7.011C3.871 2 2 3.871 2 7.011v7.227c0 3.139 1.871 5.011 5.011 5.011h7.227c3.139 0 5.011-1.871 5.011-5.011V7.011C19.248 3.871 17.377 2 14.237 2zM8.873 13.125l-1.94 1.94a.64.64 0 0 1-.457.19.626.626 0 0 1-.457-.19l-.647-.647a.635.635 0 0 1 0-.914.651.651 0 0 1 .914 0l.19.19 1.483-1.483a.646.646 0 0 1 .914.914zm0-6.037-1.94 1.94a.64.64 0 0 1-.457.19.626.626 0 0 1-.457-.19l-.647-.647a.635.635 0 0 1 0-.914.651.651 0 0 1 .914 0l.19.19 1.483-1.483a.646.646 0 0 1 .914.914zm6.546 7.52h-4.528a.647.647 0 1 1 0-1.294h4.528a.647.647 0 1 1 0 1.294zm0-6.037h-4.528a.647.647 0 1 1 0-1.294h4.528a.647.647 0 1 1 0 1.294z" transform="translate(1291 292)" style="fill:#36a2eb"/>
    </g>
</svg>
