<svg xmlns="http://www.w3.org/2000/svg" width="39" height="39" viewBox="0 0 39 39">
    <g data-name="Group 11213" transform="translate(-282 -283)">
        <circle data-name="Ellipse 2153" cx="19.5" cy="19.5" r="19.5" transform="translate(282 283)" style="opacity:.2;fill:#5f38f9"/>
        <path d="M14.571 2.718v.839A1.469 1.469 0 0 1 13.1 5.024H8.072A1.469 1.469 0 0 1 6.6 3.556v-.838A1.469 1.469 0 0 1 8.072 1.25H13.1a1.469 1.469 0 0 1 1.471 1.468zm3.354 2.516v11.74a2.308 2.308 0 0 1-2.306 2.306H5.556a2.308 2.308 0 0 1-2.306-2.307V5.233a2.3 2.3 0 0 1 2.1-2.285v.608a2.729 2.729 0 0 0 2.722 2.725H13.1a2.729 2.729 0 0 0 2.725-2.725v-.608a2.3 2.3 0 0 1 2.1 2.285zm-3.354 10.9a.629.629 0 0 0-.629-.629H7.233a.629.629 0 1 0 0 1.258h6.709a.629.629 0 0 0 .629-.628zm0-3.354a.629.629 0 0 0-.629-.629H7.233a.629.629 0 1 0 0 1.258h6.709a.629.629 0 0 0 .629-.629zm0-3.354a.629.629 0 0 0-.629-.629H7.233a.629.629 0 0 0 0 1.258h6.709a.629.629 0 0 0 .629-.629z" transform="translate(290.75 291.75)" style="fill:#5f38f9"/>
    </g>
</svg>
