<svg xmlns="http://www.w3.org/2000/svg" id="user_1_" width="14.7" height="15.775" viewBox="0 0 14.7 15.775">
    <defs>
        <style>
            .cls-1{fill:#c1c1c1}
        </style>
    </defs>
    <g id="Group_171" transform="translate(0 8.885)">
        <g id="Group_170">
            <path id="Path_1498" d="M24.79 288.389c-4.74 0-7.35 2.242-7.35 6.314a.576.576 0 0 0 .576.576h13.548a.576.576 0 0 0 .576-.576c0-4.072-2.61-6.314-7.35-6.314zm-6.178 5.738c.226-3.044 2.3-4.587 6.178-4.587s5.951 1.542 6.178 4.587z" class="cls-1" transform="translate(-17.44 -288.389)"/>
        </g>
    </g>
    <g id="Group_173" transform="translate(3.531)">
        <g id="Group_172">
            <path id="Path_1499" d="M135.868 0a3.773 3.773 0 0 0-3.819 3.9 3.832 3.832 0 1 0 7.638 0 3.773 3.773 0 0 0-3.819-3.9zm0 6.889A2.848 2.848 0 0 1 133.2 3.9a2.618 2.618 0 0 1 2.668-2.744 2.647 2.647 0 0 1 2.667 2.744 2.848 2.848 0 0 1-2.667 2.989z" class="cls-1" transform="translate(-132.049)"/>
        </g>
    </g>
</svg>
