<svg xmlns="http://www.w3.org/2000/svg" width="37.236" height="24" viewBox="0 0 37.236 24">
  <g id="vision_1_" data-name="vision(1)" transform="translate(0 -90.998)">
    <g id="Group_5058" data-name="Group 5058" transform="translate(0 90.998)">
      <g id="Group_5057" data-name="Group 5057">
        <path id="Path_2217" data-name="Path 2217" d="M37.032,102.363C36.7,101.9,28.776,91,18.692,91S.537,101.9.205,102.363a1.088,1.088,0,0,0,0,1.27C.537,104.1,8.607,115,18.692,115s18.008-10.9,18.34-11.365A1.088,1.088,0,0,0,37.032,102.363Zm-18.34,8.271a7.638,7.638,0,1,1,0-15.273,7.636,7.636,0,0,1,0,15.273Z" transform="translate(0 -90.998)" fill="#4b56c0"/>
      </g>
    </g>
    <g id="Group_5060" data-name="Group 5060" transform="translate(15.274 99.725)">
      <g id="Group_5059" data-name="Group 5059" transform="translate(0 0)">
        <path id="Path_2218" data-name="Path 2218" d="M213.424,211a3.276,3.276,0,1,0,0,6.545,3.273,3.273,0,0,0,0-6.545Z" transform="translate(-210.006 -210.999)" fill="#4b56c0"/>
      </g>
    </g>
  </g>
</svg>
