<svg xmlns="http://www.w3.org/2000/svg" width="44" height="44" viewBox="0 0 44 44">
    <g data-name="Group 8280" transform="translate(-333 -500)">
        <circle data-name="Ellipse 1972" cx="22" cy="22" r="22" transform="translate(333 500)" style="fill:#fff"/>
        <g data-name="Group 8271">
            <path data-name="Path 4368" d="M.5 7a.5.5 0 0 1-.5-.5v-2A2.5 2.5 0 0 1 2.5 2h2a.5.5 0 0 1 0 1h-2A1.5 1.5 0 0 0 1 4.5v2a.5.5 0 0 1-.5.5z" style="fill:#9eaeb8" transform="translate(343 510)"/>
        </g>
        <g data-name="Group 8272">
            <path data-name="Path 4369" d="M23.5 7a.5.5 0 0 1-.5-.5v-2A1.5 1.5 0 0 0 21.5 3h-2a.5.5 0 0 1 0-1h2A2.5 2.5 0 0 1 24 4.5v2a.5.5 0 0 1-.5.5z" style="fill:#9eaeb8" transform="translate(343 510)"/>
        </g>
        <g data-name="Group 8273">
            <path data-name="Path 4370" d="M4.5 22h-2A2.5 2.5 0 0 1 0 19.5v-2a.5.5 0 0 1 1 0v2A1.5 1.5 0 0 0 2.5 21h2a.5.5 0 0 1 0 1z" style="fill:#9eaeb8" transform="translate(343 510)"/>
        </g>
        <g data-name="Group 8274">
            <path data-name="Path 4371" d="M21.5 22h-2a.5.5 0 0 1 0-1h2a1.5 1.5 0 0 0 1.5-1.5v-2a.5.5 0 0 1 1 0v2a2.5 2.5 0 0 1-2.5 2.5z" style="fill:#9eaeb8" transform="translate(343 510)"/>
        </g>
        <g data-name="Group 8275">
            <path data-name="Path 4372" d="M12 18a8.026 8.026 0 0 1-7.985-5.881.48.48 0 0 1 0-.238A8.026 8.026 0 0 1 12 6a8.026 8.026 0 0 1 7.985 5.881.48.48 0 0 1 0 .238A8.026 8.026 0 0 1 12 18zm-6.984-6A7.049 7.049 0 0 0 12 17a7.049 7.049 0 0 0 6.984-5A7.048 7.048 0 0 0 12 7a7.048 7.048 0 0 0-6.984 5z" style="fill:#9eaeb8" transform="translate(343 510)"/>
        </g>
        <g data-name="Group 8276">
            <path data-name="Path 4373" d="M12 15a3 3 0 1 1 3-3 3 3 0 0 1-3 3zm0-5a2 2 0 1 0 2 2 2 2 0 0 0-2-2z" style="fill:#9eaeb8" transform="translate(343 510)"/>
        </g>
    </g>
</svg>
