<svg xmlns="http://www.w3.org/2000/svg" width="40.724" height="30" viewBox="0 0 40.724 30"><defs><style>.a{fill:#9b9b9b;}</style></defs><g transform="translate(0 -67.415)"><path class="a" d="M65.589,174.073a.591.591,0,1,0-.59-.591v0A.589.589,0,0,0,65.589,174.073Z" transform="translate(-59.885 -97.083)"/><path class="a" d="M40.472,70.358a.805.805,0,0,0-.639-.2,2.074,2.074,0,0,1-2.347-2.008v-.008a.774.774,0,0,0-.274-.588.746.746,0,0,0-.612-.128L24.079,69.7a.6.6,0,1,0,.212,1.174l12.06-2.181a3.234,3.234,0,0,0,3.18,2.678v5.17A2.669,2.669,0,0,1,37.486,74.1v-.009a.735.735,0,0,0-.78-.755H10.665l13.627-2.453a.6.6,0,0,0-.212-1.174L3.949,73.337a.721.721,0,0,0-.71.76A2.666,2.666,0,0,1,.793,76.6.818.818,0,0,0,0,77.483V93.266a.818.818,0,0,0,.792.886,2.666,2.666,0,0,1,2.447,2.5.731.731,0,0,0,.778.764H17.608a.6.6,0,1,0,0-1.193H4.391A3.868,3.868,0,0,0,1.193,93V77.751a3.868,3.868,0,0,0,3.2-3.224H36.333a3.864,3.864,0,0,0,3.2,3.224V93a3.863,3.863,0,0,0-3.2,3.225H17.021a.6.6,0,1,0,0,1.193H36.705a.735.735,0,0,0,.78-.755v-.009a2.662,2.662,0,0,1,2.444-2.5.82.82,0,0,0,.8-.886V71.01a.856.856,0,0,0-.252-.651Z" transform="translate(0 0)"/><path class="a" d="M65,399.1a.59.59,0,1,0,1.18,0v0a.59.59,0,0,0-1.18,0Z" transform="translate(-59.885 -304.715)"/><path class="a" d="M432.563,398.5a.591.591,0,1,0,.59.591v0A.589.589,0,0,0,432.563,398.5Z" transform="translate(-397.545 -304.715)"/><path class="a" d="M433.153,173.482a.59.59,0,0,0-1.18,0v0a.59.59,0,1,0,1.18,0Z" transform="translate(-397.545 -97.083)"/><path class="a" d="M248.486,252.5v5.318a.59.59,0,0,0,1.18,0V252.5a.59.59,0,0,0-1.18,0Z" transform="translate(-228.715 -169.776)"/><path class="a" d="M171.221,252.325l-1.284,3.9-1.347-3.914a.59.59,0,1,0-1.116.384l1.8,5.24a.709.709,0,0,0,.669.474h.007a.71.71,0,0,0,.667-.487l1.722-5.223a.59.59,0,1,0-1.121-.369Z" transform="translate(-154.103 -169.774)"/><path class="a" d="M286.663,251.911a.6.6,0,0,0-.59.59v5.318a.59.59,0,0,0,1.18,0V256.1l.877,0a2.091,2.091,0,1,0,0-4.182h-1.467ZM289.057,254a.931.931,0,0,1-.926.91l-.872,0c0-.325,0-.7,0-.913,0-.177,0-.572,0-.912h.876A.931.931,0,0,1,289.057,254Z" transform="translate(-263.29 -169.776)"/><path class="a" d="M65.087,221.569H94.5a.59.59,0,1,0,0-1.18H65.087a.59.59,0,1,0,0,1.18Z" transform="translate(-59.414 -140.801)"/><path class="a" d="M95.094,351.612a.594.594,0,0,0-.6-.59H65.087a.59.59,0,1,0,0,1.18H94.5A.594.594,0,0,0,95.094,351.612Z" transform="translate(-59.414 -261.039)"/><path class="a" d="M378.081,257.926a.727.727,0,0,0-.51-.469l-1.19-.365-.713-1.028a.7.7,0,0,0-1.2,0l-.713,1.028-1.191.365a.7.7,0,0,0-.371,1.143l.752,1-.025,1.261a.7.7,0,0,0,.977.705l1.172-.411,1.176.411a.861.861,0,0,0,.283.051.681.681,0,0,0,.4-.127.727.727,0,0,0,.288-.631l-.023-1.259.751-1A.724.724,0,0,0,378.081,257.926Zm-1.956,1.13a.59.59,0,0,0-.118.365l.015.821-.762-.267a.59.59,0,0,0-.39,0l-.761.267.016-.82a.59.59,0,0,0-.118-.366l-.493-.657.779-.239a.589.589,0,0,0,.312-.228l.462-.666.462.666a.59.59,0,0,0,.312.228l.779.239Z" transform="translate(-342.308 -173.287)"/><path class="a" d="M62.7,258.6l.752,1-.025,1.261a.7.7,0,0,0,.974.706l1.175-.411,1.176.411a.862.862,0,0,0,.283.051.682.682,0,0,0,.4-.127.727.727,0,0,0,.288-.631L67.7,259.6l.748-1a.7.7,0,0,0-.369-1.146l-1.191-.365-.711-1.028h0a.7.7,0,0,0-1.207,0l-.711,1.028-1.2.366A.7.7,0,0,0,62.7,258.6Zm2.1-.44a.59.59,0,0,0,.312-.228l.46-.665.46.665a.59.59,0,0,0,.313.228l.78.239-.493.658a.591.591,0,0,0-.118.364l.015.821-.762-.267a.591.591,0,0,0-.39,0l-.761.266.016-.82a.59.59,0,0,0-.118-.366l-.494-.658Z" transform="translate(-57.611 -173.286)"/></g></svg>