<svg xmlns="http://www.w3.org/2000/svg" width="18" height="18" viewBox="0 0 18 18"><defs><style>.a{fill:#c5c5c5;}</style></defs><g transform="translate(0 0)"><path class="a" d="M97.035,91.243a5.792,5.792,0,1,0,5.792,5.792A5.8,5.8,0,0,0,97.035,91.243Zm-3.954,6.32a.527.527,0,1,1,.527-.527A.528.528,0,0,1,93.081,97.563Zm1.158,2.8a.527.527,0,1,1,.527-.527A.528.528,0,0,1,94.239,100.359Zm0-5.592a.527.527,0,1,1,.527-.527A.528.528,0,0,1,94.239,94.767Zm1.666,3.925a.527.527,0,1,1,.527-.527A.528.528,0,0,1,95.906,98.692Zm0-2.259a.527.527,0,1,1,.527-.527A.528.528,0,0,1,95.906,96.433Zm1.13,5.084a.527.527,0,1,1,.527-.527A.528.528,0,0,1,97.035,101.517Zm0-7.908a.527.527,0,1,1,.527-.527A.528.528,0,0,1,97.035,93.609Zm1.13,5.084a.527.527,0,1,1,.527-.527A.528.528,0,0,1,98.165,98.692Zm0-2.259a.527.527,0,1,1,.527-.527A.528.528,0,0,1,98.165,96.433Zm1.666,3.926a.527.527,0,1,1,.527-.527A.528.528,0,0,1,99.831,100.359Zm0-5.592a.527.527,0,1,1,.527-.527A.528.528,0,0,1,99.831,94.767Zm1.158,2.8a.527.527,0,1,1,.527-.527A.528.528,0,0,1,100.989,97.563Z" transform="translate(-88.035 -88.035)"/><path class="a" d="M162.438,1.334l.046-.012.327,1.22a6.784,6.784,0,0,1,1.019-.273l-.327-1.22.046-.012a.527.527,0,0,0-.273-1.019l-1.11.3a.527.527,0,0,0,.273,1.019Z" transform="translate(-156.087 0)"/><path class="a" d="M57.022,57.833l.033-.033.9.9a6.906,6.906,0,0,1,.746-.746l-.9-.9.033-.033a.527.527,0,0,0-.746-.746l-.812.812a.527.527,0,0,0,.746.746Z" transform="translate(-54.148 -54.148)"/><path class="a" d="M.391,163.915a.527.527,0,0,0,.646-.373l.012-.046,1.22.327a6.788,6.788,0,0,1,.273-1.019l-1.221-.327.012-.046a.527.527,0,0,0-1.019-.273l-.3,1.11a.527.527,0,0,0,.373.646Z" transform="translate(0 -156.081)"/><path class="a" d="M1.322,290.113l1.22-.327a6.783,6.783,0,0,1-.273-1.019l-1.22.327-.012-.046a.527.527,0,0,0-1.019.273l.3,1.11a.527.527,0,1,0,1.019-.273Z" transform="translate(0 -278.51)"/><path class="a" d="M57.949,382.631l-.9.9-.033-.033a.527.527,0,1,0-.746.746l.812.812a.527.527,0,0,0,.746-.746l-.033-.033.9-.9A6.909,6.909,0,0,1,57.949,382.631Z" transform="translate(-54.146 -369.179)"/><path class="a" d="M163.547,441.185l-.046-.012.327-1.22a6.784,6.784,0,0,1-1.019-.273l-.327,1.22-.046-.012a.527.527,0,1,0-.273,1.019l1.11.3a.527.527,0,1,0,.273-1.019Z" transform="translate(-156.086 -424.222)"/><path class="a" d="M290.152,440.887l-.046.012-.327-1.22a6.784,6.784,0,0,1-1.019.273l.327,1.22-.046.012a.527.527,0,1,0,.273,1.019l1.11-.3a.527.527,0,0,0-.273-1.019Z" transform="translate(-278.503 -424.222)"/><path class="a" d="M384.3,383.493l-.033.033-.9-.9a6.908,6.908,0,0,1-.746.746l.9.9-.033.033a.527.527,0,0,0,.746.746l.812-.812a.527.527,0,1,0-.746-.746Z" transform="translate(-369.178 -369.179)"/><path class="a" d="M441.832,288.675a.527.527,0,0,0-.646.373l-.012.046-1.22-.327a6.784,6.784,0,0,1-.273,1.019l1.22.327-.012.046a.527.527,0,0,0,1.019.273l.3-1.11A.527.527,0,0,0,441.832,288.675Z" transform="translate(-424.222 -278.509)"/><path class="a" d="M440.9,162.479l-1.221.327a6.787,6.787,0,0,1,.273,1.019l1.22-.327.012.046a.527.527,0,0,0,1.019-.273l-.3-1.11a.527.527,0,0,0-1.019.273Z" transform="translate(-424.22 -156.082)"/><path class="a" d="M383.378,58.7l.9-.9.033.033a.527.527,0,0,0,.746-.746l-.812-.812a.527.527,0,1,0-.746.746l.033.033-.9.9A6.91,6.91,0,0,1,383.378,58.7Z" transform="translate(-369.18 -54.148)"/><path class="a" d="M289.042,1.038l.046.012-.327,1.22a6.784,6.784,0,0,1,1.019.273l.327-1.22.046.012a.527.527,0,0,0,.273-1.019l-1.11-.3a.527.527,0,1,0-.273,1.019Z" transform="translate(-278.503 -0.001)"/></g></svg>