<svg xmlns="http://www.w3.org/2000/svg" width="56.235" height="62.168" viewBox="0 0 56.235 62.168">
    <path data-name="Path 4314" d="M75.76 8.085h-.738a5.314 5.314 0 0 0-8.953-5.724l-3.83 5.724h-32.9a4.911 4.911 0 0 0-4.9 4.9v31.364a4.911 4.911 0 0 0 4.9 4.9h19.048L46.948 55.3h-3.107a3.676 3.676 0 0 0-3.672 3.672v.767h-3.83a1.214 1.214 0 0 0 0 2.428h32.418a1.214 1.214 0 1 0 0-2.428h-3.83v-.767a3.676 3.676 0 0 0-3.672-3.672h-3.107l-1.44-6.046H75.76a4.911 4.911 0 0 0 4.9-4.9V12.99a4.911 4.911 0 0 0-4.905-4.9zM58.363 29.43c-1.9 1.329-5.455-.477-8.851 1.335-.829-4.3-.306-8.354 4.007-9.247a7.729 7.729 0 0 1 1.669-.159l4.392 3.259c.637 1.854.4 3.681-1.217 4.812zm1.224-13.015 3.437 2.55-2.643 3.223-3.112-2.309zm8.5-12.7a2.886 2.886 0 1 1 4.63 3.435l-8.152 9.939-3.627-2.691zM62.5 58.973v.767H42.6v-.767a1.245 1.245 0 0 1 1.244-1.244h17.41a1.245 1.245 0 0 1 1.246 1.244zM55.651 55.3h-6.207l1.44-6.046h3.328zm22.586-10.951a2.479 2.479 0 0 1-2.477 2.477H29.335a2.479 2.479 0 0 1-2.477-2.477v-5.686h3.47a1.214 1.214 0 1 0 0-2.428h-3.47V12.99a2.479 2.479 0 0 1 2.477-2.477h31.279l-5.632 8.416a8.3 8.3 0 0 0-6.31 2.666c-2.116 2.47-2.488 6.352-1.105 11.537a1.215 1.215 0 0 0 2.012.565c3.14-3 7.05.272 10.551-2.562a6.359 6.359 0 0 0 1.837-7.053L73.1 10.513h2.66a2.479 2.479 0 0 1 2.477 2.477v23.245h-38.2a1.214 1.214 0 1 0 0 2.428h38.2z" transform="translate(-24.43)" style="fill:#9eaeb8"/>
    <path data-name="Path 4315" d="M104.011 298.447a1.214 1.214 0 1 0 1.428.953 1.213 1.213 0 0 0-1.428-.953z" transform="translate(-93.491 -262.189)" style="fill:#9eaeb8"/>
</svg>
