<svg xmlns="http://www.w3.org/2000/svg" width="22" height="22" viewBox="0 0 22 22">
    <g data-name="whatsapp (1)" style="opacity:.67">
        <path data-name="Path 5349" d="M11 0a11 11 0 1 0 11 11A11 11 0 0 0 11 0zm.233 17.4a6.581 6.581 0 0 1-3.146-.8l-3.49.915.934-3.411a6.584 6.584 0 1 1 5.7 3.3zm0 0" style="fill:#2fb500;opacity:.55"/>
        <path data-name="Path 5350" d="M139.545 124.469a5.473 5.473 0 0 0-4.638 8.381l.13.207-.553 2.019 2.071-.543.2.118a5.463 5.463 0 0 0 2.785.763 5.472 5.472 0 0 0 0-10.945zm3.219 7.822a1.7 1.7 0 0 1-1.11.782 2.258 2.258 0 0 1-1.036-.065 9.5 9.5 0 0 1-.938-.346 7.332 7.332 0 0 1-2.81-2.483 3.2 3.2 0 0 1-.672-1.7 1.844 1.844 0 0 1 .576-1.372.6.6 0 0 1 .439-.206c.11 0 .219 0 .315.006s.237-.038.37.282.466 1.139.507 1.221a.3.3 0 0 1 .014.288 4.688 4.688 0 0 1-.411.562c-.073.09-.168.171-.072.336a4.958 4.958 0 0 0 .915 1.139 4.5 4.5 0 0 0 1.323.816c.164.082.26.068.356-.041s.411-.48.521-.645.219-.137.37-.082.96.453 1.124.535.274.124.315.192a1.372 1.372 0 0 1-.1.782zm0 0" transform="translate(-128.31 -119.121)" style="fill:#2fb500;opacity:.55"/>
    </g>
</svg>
