<svg xmlns="http://www.w3.org/2000/svg" width="13.485" height="13.485" viewBox="0 0 13.485 13.485">
    <defs>
        <style>
            .cls-1{fill:#c1c1c1}
        </style>
    </defs>
    <g id="whatsapp" transform="translate(0)">
        <path id="Path_3187" d="M11.505 1.98A6.737 6.737 0 0 0 .782 9.89L.012 13a.4.4 0 0 0 .479.479L3.6 12.7a6.736 6.736 0 0 0 7.905-10.72zM6.743 12.7a5.929 5.929 0 0 1-2.9-.756.4.4 0 0 0-.289-.039l-2.618.649.649-2.618a.4.4 0 0 0-.039-.289 5.951 5.951 0 1 1 5.2 3.053zm0 0" class="cls-1"/>
        <path id="Path_3188" d="M115.223 110.312a3.4 3.4 0 0 0-.883-.687 1.1 1.1 0 0 0-1.337.194c-.166.166-.394.493-.526.654a4.453 4.453 0 0 1-2.18-2.18c.16-.131.488-.36.654-.526a1.1 1.1 0 0 0 .194-1.337 3.4 3.4 0 0 0-.687-.883 1.376 1.376 0 0 0-2.065.125c-.53.53-1 1.514-.243 3.186a8.526 8.526 0 0 0 1.533 2.226 8.521 8.521 0 0 0 2.226 1.533 2.7 2.7 0 0 0 3.186-.242 1.375 1.375 0 0 0 .125-2.065zm-.684 1.506c-.515.515-1.288.542-2.3.082a6.675 6.675 0 0 1-3.369-3.369c-.46-1.012-.433-1.786.082-2.3.3-.3.646-.434.942-.131l.006.006c.7.7.652.944.493 1.1-.14.14-.556.422-.69.557-.315.315-.256.8.174 1.449a6.792 6.792 0 0 0 .756.921 6.8 6.8 0 0 0 .921.756c.647.43 1.135.489 1.449.174.134-.134.416-.549.557-.69.107-.107.212-.148.435-.04a2.87 2.87 0 0 1 .668.534l.006.006c.3.3.169.642-.131.942zm0 0" class="cls-1" transform="translate(-104.915 -102.37)"/>
    </g>
</svg>
