<svg xmlns="http://www.w3.org/2000/svg" width="18.2" height="18.2" viewBox="0 0 18.2 18.2">
    <path fill="#4caf50" d="M9.1 0a9.094 9.094 0 0 0-7.368 14.434L.6 17.814 4.1 16.7A9.1 9.1 0 1 0 9.1 0z"/>
    <path fill="#fafafa" d="M117.848 125.776a2.568 2.568 0 0 1-1.786 1.284c-.475.1-1.1.182-3.187-.685a11.4 11.4 0 0 1-4.531-4 5.2 5.2 0 0 1-1.081-2.745 2.905 2.905 0 0 1 .93-2.215 1.322 1.322 0 0 1 .93-.326c.113 0 .214.006.3.01.267.011.4.027.578.449.22.529.754 1.835.818 1.969a.542.542 0 0 1 .039.493 1.572 1.572 0 0 1-.295.417c-.134.155-.262.273-.4.439-.123.144-.262.3-.107.566a8.078 8.078 0 0 0 1.476 1.835 6.69 6.69 0 0 0 2.134 1.316.575.575 0 0 0 .642-.1 11.009 11.009 0 0 0 .711-.942.508.508 0 0 1 .653-.2c.246.085 1.546.728 1.813.861s.444.2.508.311a2.266 2.266 0 0 1-.145 1.263z" transform="translate(-103.451 -112.926)"/>
</svg>
