<svg width="22" height="22" viewBox="0 0 22 22" fill="none" xmlns="http://www.w3.org/2000/svg">
<path opacity="0.55" d="M11 0C8.82441 0 6.69767 0.645139 4.88873 1.85383C3.07979 3.06253 1.66989 4.78049 0.83733 6.79048C0.00476617 8.80047 -0.213071 11.0122 0.211367 13.146C0.635804 15.2798 1.68345 17.2398 3.22183 18.7782C4.76021 20.3166 6.72022 21.3642 8.85401 21.7886C10.9878 22.2131 13.1995 21.9952 15.2095 21.1627C17.2195 20.3301 18.9375 18.9202 20.1462 17.1113C21.3549 15.3023 22 13.1756 22 11C22 8.08262 20.8411 5.28473 18.7782 3.22183C16.7153 1.15893 13.9174 0 11 0ZM11.233 17.4C10.134 17.4002 9.05242 17.1252 8.087 16.6L4.597 17.515L5.531 14.104C4.80814 12.8479 4.51992 11.3884 4.71102 9.9518C4.90213 8.51521 5.56189 7.1818 6.58799 6.15836C7.6141 5.13492 8.94921 4.47863 10.3863 4.29126C11.8234 4.10389 13.2821 4.39591 14.5364 5.12204C15.7906 5.84816 16.7702 6.96782 17.3232 8.30738C17.8763 9.64695 17.9719 11.1316 17.5953 12.531C17.2187 13.9305 16.3909 15.1666 15.2402 16.0476C14.0895 16.9287 12.6803 17.4054 11.231 17.404L11.233 17.4Z" fill="#2FB500"/>
<path opacity="0.55" d="M11.2352 5.34766C10.2574 5.34739 9.29737 5.60909 8.45496 6.10555C7.61255 6.60201 6.91854 7.31509 6.44509 8.17064C5.97163 9.02619 5.73604 9.99296 5.76279 10.9704C5.78955 11.9479 6.07767 12.9003 6.59722 13.7287L6.72722 13.9357L6.17421 15.9547L8.24521 15.4117L8.44523 15.5297C9.28832 16.0292 10.2502 16.2927 11.2302 16.2927C12.6816 16.2927 14.0736 15.7161 15.0999 14.6898C16.1262 13.6635 16.7027 12.2715 16.7027 10.8202C16.7027 9.36875 16.1262 7.97681 15.0999 6.95052C14.0736 5.92422 12.6816 5.34766 11.2302 5.34766H11.2352ZM14.4542 13.1697C14.3329 13.3693 14.1717 13.5417 13.9807 13.6763C13.7897 13.8108 13.573 13.9046 13.3442 13.9517C12.9985 14.0107 12.6438 13.9885 12.3082 13.8867C11.9897 13.7879 11.6766 13.6724 11.3702 13.5407C10.2342 12.9706 9.26582 12.1149 8.56022 11.0577C8.17568 10.5684 7.94216 9.97761 7.88822 9.35766C7.88365 9.1015 7.93251 8.8472 8.03168 8.61098C8.13086 8.37475 8.27817 8.16179 8.46422 7.98566C8.51903 7.92266 8.58638 7.8718 8.66198 7.83633C8.73757 7.80085 8.81974 7.78155 8.90322 7.77966C9.01322 7.77966 9.12222 7.77965 9.21822 7.78565C9.31422 7.79165 9.45522 7.74766 9.58822 8.06766C9.72122 8.38766 10.0542 9.20666 10.0952 9.28866C10.1216 9.33162 10.1366 9.38052 10.1391 9.43085C10.1415 9.48119 10.1313 9.53134 10.1092 9.57665C9.98635 9.77391 9.84896 9.96176 9.69822 10.1386C9.62522 10.2286 9.53023 10.3096 9.62623 10.4746C9.87331 10.8974 10.1816 11.2813 10.5412 11.6137C10.9315 11.9603 11.3792 12.2365 11.8642 12.4296C12.0282 12.5116 12.1242 12.4976 12.2202 12.3886C12.3162 12.2796 12.6312 11.9087 12.7412 11.7437C12.8512 11.5787 12.9602 11.6067 13.1112 11.6617C13.2622 11.7167 14.0712 12.1146 14.2352 12.1966C14.3992 12.2786 14.5092 12.3206 14.5502 12.3886C14.5941 12.6535 14.5593 12.9254 14.4502 13.1707L14.4542 13.1697Z" fill="#2FB500"/>
</svg>
