<?xml version="1.0" encoding="utf-8"?>
<!-- Generator: Adobe Illustrator 16.0.0, SVG Export Plug-In . SVG Version: 6.00 Build 0)  -->
<!DOCTYPE svg PUBLIC "-//W3C//DTD SVG 1.1//EN" "http://www.w3.org/Graphics/SVG/1.1/DTD/svg11.dtd">
<svg version="1.1" id="Capa_1" xmlns="http://www.w3.org/2000/svg" xmlns:xlink="http://www.w3.org/1999/xlink" x="0px" y="0px"
	 width="512px" height="512px" viewBox="0 0 512 512" enable-background="new 0 0 512 512" xml:space="preserve">
<g>
	<path d="M466.144,447.914C495.456,415.602,512,373.809,512,331c0-73.034-48.543-138.788-121.821-166.519
		C381.16,72.391,297.523,0,196,0C86.084,0,0,83.604,0,181c0,42.916,16.16,83.531,45.827,115.941L4.799,335.004
		c-4.523,4.196-6.016,10.732-3.762,16.477C3.29,357.223,8.831,361,15,361h108.705c15.29,84.316,94.638,151,192.295,151h181
		c6.17,0,11.71-3.777,13.963-9.52c2.254-5.743,0.762-12.28-3.762-16.477L466.144,447.914z M77.584,286.337
		C46.9,258.068,30,220.659,30,181c0-83.262,74.467-151,166-151c90.98,0,165,67.738,165,151c0,82.71-74.02,150-165,150
		c-5.277,0-142.653,0-142.775,0l24.397-22.634C84.03,302.422,84.019,292.266,77.584,286.337z M316,482
		c-78.448,0-146.228-51.956-161.685-121H196c104.091,0,185.736-74.141,194.234-164.018C445.854,222.326,482,274.089,482,331
		c0,39.721-17.344,78.479-47.584,106.337c-3.076,2.834-4.829,6.823-4.837,11.006c-0.007,4.184,1.731,8.179,4.799,11.023L458.776,482
		H316z"/>
</g>
</svg>
