<?xml version="1.0" encoding="utf-8"?>
<!-- Generator: Adobe Illustrator 16.0.0, SVG Export Plug-In . SVG Version: 6.00 Build 0)  -->
<!DOCTYPE svg PUBLIC "-//W3C//DTD SVG 1.1//EN" "http://www.w3.org/Graphics/SVG/1.1/DTD/svg11.dtd">
<svg version="1.1" id="Layer_1" xmlns="http://www.w3.org/2000/svg" xmlns:xlink="http://www.w3.org/1999/xlink" x="0px" y="0px"
	 width="512px" height="512px" viewBox="0 0 512 512" enable-background="new 0 0 512 512" xml:space="preserve">
<g>
	<path fill="#B2B2B2" d="M383.445,245.249c-0.065-0.179-0.106-0.359-0.185-0.531c-0.044-0.1-0.057-0.2-0.101-0.3 M383.26,240H24
		c-4.419,0-8,3.582-8,8v216c0.018,17.666,14.334,31.982,32,32l0,0h336.077c22.067-0.027,39.933-17.938,39.905-40.005
		c-0.003-2.608-0.262-5.21-0.771-7.769l-39.359-201.758 M384,464V330.794l23.516,120.518c2.612,12.972-5.785,25.604-18.757,28.217
		c-1.541,0.311-3.109,0.469-4.682,0.472h-4.527C382.432,475.158,383.968,469.635,384,464z M32,256h336v208
		c-0.012,8.832-7.169,15.988-16,16H48c-8.832-0.012-15.988-7.168-16-16V256z"/>
	<path fill="#B2B2B2" d="M74.344,418.344l-16,16c-3.123,3.124-3.123,8.188,0,11.313l16,16l11.312-11.313L75.312,440l10.344-10.344
		L74.344,418.344z"/>
	<path fill="#B2B2B2" d="M114.344,418.344l-16,16c-3.123,3.124-3.123,8.188,0,11.313l16,16l11.312-11.313L115.312,440l10.344-10.344
		L114.344,418.344z"/>
	<path fill="#B2B2B2" d="M154.344,418.344l-16,16c-3.123,3.124-3.123,8.188,0,11.313l16,16l11.312-11.313L155.312,440l10.344-10.344
		L154.344,418.344z"/>
	<path fill="#B2B2B2" d="M194.344,461.656l11.312-11.313L195.312,440l10.344-10.344l-11.312-11.313l-16,16
		c-3.123,3.124-3.123,8.188,0,11.313L194.344,461.656z"/>
	<path fill="#B2B2B2" d="M234.344,418.344l-16,16c-3.123,3.124-3.123,8.188,0,11.313l16,16l11.312-11.313L235.312,440l10.344-10.344
		L234.344,418.344z"/>
	<path fill="#B2B2B2" d="M274.344,418.344l-16,16c-3.123,3.124-3.123,8.188,0,11.313l16,16l11.312-11.313L275.312,440l10.344-10.344
		L274.344,418.344z"/>
	<path fill="#B2B2B2" d="M298.344,445.656l16,16l11.312-11.313L315.312,440l10.344-10.344l-11.312-11.313l-16,16
		C295.221,437.468,295.221,442.532,298.344,445.656z"/>
	<path fill="#B2B2B2" d="M56,408h96c4.418,0,8-3.582,8-8V288c0-4.418-3.582-8-8-8H56c-4.419,0-8,3.582-8,8v112
		C48,404.418,51.581,408,56,408z M64.805,392c2.855-14.016,12.991-25.434,26.57-29.93c4.195-1.396,6.464-5.93,5.067-10.125
		c-0.477-1.432-1.348-2.699-2.513-3.656c-6.867-5.562-7.925-15.637-2.363-22.504s15.637-7.925,22.503-2.363
		c6.867,5.562,7.926,15.637,2.364,22.504c-0.703,0.867-1.495,1.66-2.364,2.363c-3.415,2.808-3.908,7.853-1.101,11.269
		c0.958,1.165,2.225,2.036,3.656,2.513c13.58,4.494,23.719,15.912,26.575,29.93H64.805z M64,296h80v64.857
		c-3.569-3.662-7.626-6.816-12.056-9.373C134.604,346.756,136,341.424,136,336c0-17.674-14.327-32-32-32c-17.674,0-32,14.326-32,32
		c-0.001,5.424,1.396,10.756,4.055,15.484c-4.429,2.557-8.485,5.711-12.055,9.373V296z"/>
	<path fill="#B2B2B2" d="M176,288h64v16h-64V288z"/>
	<path fill="#B2B2B2" d="M176,352h64v16h-64V352z"/>
	<path fill="#B2B2B2" d="M176,320h48v16h-48V320z"/>
	<path fill="#B2B2B2" d="M240,320h64v16h-64V320z"/>
	<path fill="#B2B2B2" d="M176,384h32v16h-32V384z"/>
	<path fill="#B2B2B2" d="M224,384h32v16h-32V384z"/>
	<path fill="#B2B2B2" d="M272,384h32v16h-32V384z"/>
	<path fill="#B2B2B2" d="M328,272h16v16h-16V272z"/>
	<path fill="#B2B2B2" d="M328,304h16v16h-16V304z"/>
	<path fill="#B2B2B2" d="M328,336h16v16h-16V336z"/>
	<path fill="#B2B2B2" d="M328,368h16v16h-16V368z"/>
	<path fill="#B2B2B2" d="M328,400h16v16h-16V400z"/>
</g>
</svg>
