<?xml version="1.0" encoding="utf-8"?>
<!-- Generator: Adobe Illustrator 16.0.0, SVG Export Plug-In . SVG Version: 6.00 Build 0)  -->
<!DOCTYPE svg PUBLIC "-//W3C//DTD SVG 1.1//EN" "http://www.w3.org/Graphics/SVG/1.1/DTD/svg11.dtd">
<svg version="1.1" id="Capa_1" xmlns="http://www.w3.org/2000/svg" xmlns:xlink="http://www.w3.org/1999/xlink" x="0px" y="0px"
	 width="612px" height="792px" viewBox="0 0 612 792" enable-background="new 0 0 612 792" xml:space="preserve">
<g>
	<g>
		<path fill="#B2B2B2" d="M335.613,159.097c-11.845,0-22.367,5.35-29.612,13.642c-7.246-8.292-17.768-13.642-29.613-13.642H0
			v473.807h276.387c11.846,0,22.367-5.351,29.613-13.642c7.245,8.291,17.768,13.642,29.612,13.642H612V159.097H335.613z
			 M296.129,593.419c0,10.888-8.854,19.742-19.742,19.742H19.741V178.839h256.646c10.888,0,19.742,8.854,19.742,19.742V593.419z
			 M592.258,613.161H335.613c-10.888,0-19.742-8.854-19.742-19.742V198.581c0-10.888,8.854-19.742,19.742-19.742h256.646V613.161z"
			/>
	</g>
</g>
<g>
	<g>
		<path fill="#B2B2B2" d="M157.936,198.581c-65.316,0-118.452,53.135-118.452,118.452s53.136,118.451,118.452,118.451
			c65.315,0,118.451-53.135,118.451-118.451S223.251,198.581,157.936,198.581z M256.142,307.161H226.46
			c-1.304-13.365-5.123-26.03-10.296-37.697c9.575-2.605,17.561-5.409,23.493-7.729C248.63,274.952,254.474,290.45,256.142,307.161z
			 M225.966,245.695c-5.34,1.875-11.806,3.889-19.159,5.745c-6.781-11.292-14.333-21.163-21.213-29.1
			C200.934,226.832,214.703,234.945,225.966,245.695z M109.193,307.161c1.411-11.707,5.271-22.891,10.246-33.235
			c11.707,2.142,24.688,3.623,38.497,3.623c13.819,0,26.819-1.48,38.526-3.623c4.965,10.335,8.805,21.519,10.216,33.235H109.193z
			 M206.678,326.903c-1.411,11.707-5.271,22.891-10.246,33.235c-11.707-2.142-24.687-3.623-38.496-3.623
			c-13.819,0-26.819,1.48-38.526,3.623c-4.966-10.335-8.806-21.519-10.217-33.235H206.678z M157.946,221.866
			c6.83,6.614,18.034,18.498,28.112,33.739c-8.814,1.333-18.251,2.201-28.122,2.201c-9.852,0-19.278-0.869-28.073-2.191
			C139.931,240.384,151.124,228.49,157.946,221.866z M130.267,222.34c-6.87,7.937-14.421,17.808-21.202,29.1
			c-7.354-1.855-13.819-3.869-19.17-5.745C101.167,234.945,114.938,226.832,130.267,222.34z M76.214,261.735
			c5.932,2.319,13.918,5.123,23.492,7.729c-5.172,11.667-8.992,24.332-10.295,37.697H59.729
			C61.398,290.45,67.241,274.952,76.214,261.735z M59.729,326.903h29.683c1.303,13.365,5.123,26.03,10.295,37.697
			c-9.574,2.606-17.561,5.409-23.492,7.729C67.241,359.112,61.398,343.615,59.729,326.903z M89.905,388.37
			c5.341-1.875,11.806-3.889,19.16-5.745c6.781,11.292,14.332,21.163,21.212,29.1C114.938,407.233,101.167,399.119,89.905,388.37z
			 M157.926,412.198c-6.831-6.614-18.035-18.498-28.113-33.739c8.815-1.333,18.252-2.202,28.123-2.202
			c9.851,0,19.277,0.869,28.072,2.191C175.94,393.68,164.746,405.574,157.926,412.198z M185.604,411.725
			c6.87-7.937,14.422-17.808,21.203-29.1c7.354,1.855,13.819,3.869,19.169,5.745C214.703,399.119,200.934,407.233,185.604,411.725z
			 M239.657,372.33c-5.933-2.32-13.918-5.123-23.493-7.729c5.173-11.667,8.992-24.332,10.295-37.697h29.683
			C254.474,343.615,248.63,359.112,239.657,372.33z"/>
	</g>
</g>
<g>
	<g>
		<path fill="#B2B2B2" d="M39.484,474.968v98.71h236.903v-98.71H39.484z M256.645,553.936H59.226V494.71h197.419V553.936z"/>
	</g>
</g>
<g>
	<g>
		<rect x="148.065" y="514.451" fill="#B2B2B2" width="19.742" height="19.742"/>
	</g>
</g>
<g>
	<g>
		<rect x="98.709" y="514.451" fill="#B2B2B2" width="19.742" height="19.742"/>
	</g>
</g>
<g>
	<g>
		<rect x="197.419" y="514.451" fill="#B2B2B2" width="19.742" height="19.742"/>
	</g>
</g>
<g>
	<g>
		<path fill="#B2B2B2" d="M566.169,439.688c-2.112-14.806-10.849-27.569-23.257-35.13V287.419c0-48.99-39.858-88.839-88.838-88.839
			c-48.98,0-88.839,39.849-88.839,88.839v117.139c-12.418,7.561-21.144,20.324-23.256,35.13l-7.877,55.021h239.923L566.169,439.688z
			 M384.967,287.419c0-38.092,30.995-69.097,69.098-69.097c38.102,0,69.097,31.004,69.097,69.097v109.587l-29.613-8.45v-7.758
			c12.082-10.848,19.742-26.533,19.742-44.024v-49.355h-19.742v9.871H414.58v-9.871h-19.742v49.355
			c0,17.481,7.66,33.166,19.742,44.024v7.769l-29.613,8.449V287.419z M454.065,376.258c-21.775,0-39.484-17.708-39.484-39.483
			v-19.742h78.968v19.742C493.548,358.55,475.84,376.258,454.065,376.258z M356.865,474.968l4.64-32.485
			c1.648-11.549,9.97-21.084,21.184-24.283l51.635-14.756v-10.898c6.188,2.202,12.813,3.455,19.742,3.455
			c6.929,0,13.553-1.264,19.741-3.455v10.898l51.636,14.756c11.213,3.199,19.534,12.734,21.183,24.283l4.64,32.485H356.865z"/>
	</g>
</g>
<g>
	<g>
		<rect x="345.484" y="514.451" fill="#B2B2B2" width="217.161" height="19.742"/>
	</g>
</g>
<g>
	<g>
		<rect x="463.935" y="553.936" fill="#B2B2B2" width="98.71" height="19.742"/>
	</g>
</g>
<g>
	<g>
		<rect x="345.484" y="553.936" fill="#B2B2B2" width="98.71" height="19.742"/>
	</g>
</g>
</svg>
