<svg xmlns="http://www.w3.org/2000/svg" width="35.094" height="30" viewBox="0 0 35.094 30"><defs><style>.a{fill:#eee;}</style></defs><g transform="translate(-1 -10)"><path class="a" d="M15.717,10v9.623H9.491a1.7,1.7,0,0,0-1.7,1.7V21.9a3.93,3.93,0,0,0-2.5,1.119H4.4V21.887H1V34.34H4.4V33.208h.9a3.931,3.931,0,0,0,2.6,1.124,1.7,1.7,0,0,0,1.6,1.141h6.226V40H36.094V10ZM9.491,20.755H23.642v1.132H19.113v5.66h4.528v1.132H8.925v-3.4h3.962a2.266,2.266,0,0,0,2.264-2.264,1.133,1.133,0,0,0-1.132-1.132H8.925v-.566A.567.567,0,0,1,9.491,20.755ZM21.377,35.472h2.264V36.6H21.377Zm2.264-3.4H8.925V29.811H23.642Zm0-5.66h-3.4v-3.4h3.4Zm0-6.792H21.377V18.491h2.264ZM3.264,33.208H2.132V23.019H3.264Zm2.5-1.132H4.4V24.151H5.763l.3-.3a2.816,2.816,0,0,1,2-.829h5.952a1.133,1.133,0,0,1-1.132,1.132H8.124l-.3.3a2.814,2.814,0,0,1-2,.829H5.528v1.132H5.82a3.938,3.938,0,0,0,1.973-.529v7.3a2.8,2.8,0,0,1-1.727-.8Zm3.162,1.7v-.566H23.642V34.34H9.491A.566.566,0,0,1,8.925,33.774Zm7.925,1.7h3.4v2.264h4.528V17.358H20.245v2.264h-3.4V11.132H31.566V38.868H16.849Zm18.113,3.4H32.7V11.132h2.264Z" transform="translate(0 0)"/></g></svg>