<svg xmlns="http://www.w3.org/2000/svg" width="50" height="50" viewBox="0 0 50 50"><defs><style>.a{opacity:0.2;}.b{fill:#fff;stroke:#fff;stroke-width:0.5px;}</style></defs><g class="a" transform="translate(-450)"><circle cx="25" cy="25" r="25" transform="translate(450)"/><g transform="translate(461 11)"><path class="b" d="M25.985,0H2.362A2.365,2.365,0,0,0,0,2.362V25.985a2.365,2.365,0,0,0,2.362,2.362H25.985a2.365,2.365,0,0,0,2.362-2.362V2.362A2.365,2.365,0,0,0,25.985,0ZM27.4,25.985A1.417,1.417,0,0,1,25.985,27.4H2.362A1.417,1.417,0,0,1,.945,25.985V6.724H27.4v19.26Zm0-20.205H.945V2.362A1.417,1.417,0,0,1,2.362.945H25.985A1.417,1.417,0,0,1,27.4,2.362V5.78Z"/><path class="b" d="M43.612,34.133h-.472a.472.472,0,0,0,0,.945h.472a.472.472,0,0,0,0-.945Z" transform="translate(-40.305 -31.243)"/><path class="b" d="M85.985,34.151a.433.433,0,0,0-.359,0,.546.546,0,0,0-.156.1.479.479,0,0,0,0,.671.546.546,0,0,0,.156.1.445.445,0,0,0,.359,0,.546.546,0,0,0,.156-.1.479.479,0,0,0,0-.671A.546.546,0,0,0,85.985,34.151Z" transform="translate(-80.609 -31.223)"/><path class="b" d="M120.119,34.12a.472.472,0,0,0-.517.1.546.546,0,0,0-.1.156.445.445,0,0,0,0,.359.546.546,0,0,0,.1.156.479.479,0,0,0,.671,0,.546.546,0,0,0,.1-.156.4.4,0,0,0,.038-.18A.472.472,0,0,0,120.119,34.12Z" transform="translate(-112.852 -31.196)"/><path class="b" d="M178.67,34.133H162.606a.472.472,0,0,0,0,.945H178.67a.472.472,0,0,0,0-.945Z" transform="translate(-153.157 -31.243)"/><path class="b" d="M87.478,132.744a.362.362,0,0,0,.058.044,7.854,7.854,0,0,0,11.445,0,.369.369,0,0,0,.055-.039.385.385,0,0,0,.034-.058,7.841,7.841,0,0,0,0-10.63h0a.386.386,0,0,0-.034-.058.354.354,0,0,0-.059-.044,7.854,7.854,0,0,0-11.439,0,.351.351,0,0,0-.059.044.387.387,0,0,0-.034.058,7.841,7.841,0,0,0,0,10.63A.381.381,0,0,0,87.478,132.744Zm7.929,1.391a7.249,7.249,0,0,0,1.343-2.485h0a7.222,7.222,0,0,1,1.394.858A7.1,7.1,0,0,1,95.408,134.135Zm3.281-2.2a8,8,0,0,0-1.714-1.051,14.062,14.062,0,0,0,.413-3.116h2.949A7.061,7.061,0,0,1,98.689,131.933Zm1.647-4.956H97.388a14.068,14.068,0,0,0-.413-3.116,8,8,0,0,0,1.714-1.05A7.061,7.061,0,0,1,100.336,126.977Zm-2.192-4.742a7.22,7.22,0,0,1-1.394.858,7.249,7.249,0,0,0-1.343-2.486A7.1,7.1,0,0,1,98.145,122.235Zm-4.494-1.909c.967.253,1.822,1.416,2.361,3.061a8.375,8.375,0,0,1-2.361.449Zm0,4.3a9.122,9.122,0,0,0,2.578-.473,13.355,13.355,0,0,1,.37,2.824H93.651Zm0,3.14H96.6a13.354,13.354,0,0,1-.37,2.823,9.121,9.121,0,0,0-2.578-.473Zm0,3.14a8.376,8.376,0,0,1,2.361.45c-.539,1.646-1.394,2.808-2.361,3.061Zm-5.283,1.6a7.222,7.222,0,0,1,1.394-.855h0a7.249,7.249,0,0,0,1.343,2.485A7.1,7.1,0,0,1,88.368,132.505Zm4.494,1.911c-.967-.253-1.822-1.416-2.361-3.061a8.375,8.375,0,0,1,2.361-.449Zm0-4.3a9.123,9.123,0,0,0-2.578.473,13.355,13.355,0,0,1-.37-2.824h2.949Zm0-3.14H89.913a13.354,13.354,0,0,1,.37-2.823,9.121,9.121,0,0,0,2.578.473Zm0-6.651v3.511a8.376,8.376,0,0,1-2.361-.45C91.04,121.742,91.895,120.579,92.862,120.326Zm-1.757.279a7.249,7.249,0,0,0-1.343,2.487h0a7.219,7.219,0,0,1-1.394-.858A7.1,7.1,0,0,1,91.1,120.605Zm-3.281,2.2a8,8,0,0,0,1.714,1.051,14.062,14.062,0,0,0-.413,3.116H86.176A7.061,7.061,0,0,1,87.823,122.809Zm1.3,4.956a14.067,14.067,0,0,0,.413,3.116,8,8,0,0,0-1.714,1.05,7.061,7.061,0,0,1-1.647-4.167h2.949Z" transform="translate(-79.082 -111.308)"/></g></g></svg>