<svg xmlns="http://www.w3.org/2000/svg" width="50" height="50" viewBox="0 0 50 50"><defs><style>.a{fill:#3868da;}.b{fill:#fff;}</style></defs><g transform="translate(-159)"><circle class="a" cx="25" cy="25" r="25" transform="translate(159)"/><path class="b" d="M23.79,72.851V62.412A2.916,2.916,0,0,0,20.877,59.5H2.913A2.916,2.916,0,0,0,0,62.412V72.851a2.916,2.916,0,0,0,2.913,2.913H5.528l.056,2.63a.972.972,0,0,0,1.555.755l4.49-3.385h9.248A2.917,2.917,0,0,0,23.79,72.851ZM11.3,73.822a.971.971,0,0,0-.585.2L7.485,76.456l-.036-1.684a.971.971,0,0,0-.971-.95H2.913a.972.972,0,0,1-.971-.971V62.412a.972.972,0,0,1,.971-.971H20.877a.972.972,0,0,1,.971.971V72.851a.972.972,0,0,1-.971.971H11.3Zm18.8-5.341v8.011a2.916,2.916,0,0,1-2.913,2.913H24.57l-.052,2.028a.971.971,0,0,1-.971.946c-.388,0-.172.067-5.029-2.974H14.08a.971.971,0,1,1,0-1.942c5.15,0,4.91-.055,5.233.148l3.307,2.071.032-1.272a.971.971,0,0,1,.971-.946h3.566a.972.972,0,0,0,.971-.971V68.481a.972.972,0,0,0-.971-.971.971.971,0,1,1,0-1.942A2.916,2.916,0,0,1,30.1,68.481Zm-12.138-2.61a.971.971,0,0,1-.971.971H6.8a.971.971,0,0,1,0-1.942h10.2A.971.971,0,0,1,17.964,65.871ZM16.2,70.12a.971.971,0,0,1-.971.971H8.557a.971.971,0,1,1,0-1.942h6.676A.971.971,0,0,1,16.2,70.12Z" transform="translate(169.333 -46.006)"/></g></svg>