<svg xmlns="http://www.w3.org/2000/svg" width="413.226" height="243.283" viewBox="0 0 413.226 243.283"><defs><style>.a{fill:#e5e5e5;}.b{fill:#fff;}.c{fill:#5c23d0;}.d{fill:#ffe9d8;}.e{fill:#f87917;}.f{fill:#3f3d56;}.g{fill:#d6107a;}.h{fill:#ffb7b7;}.i{fill:#1e95e4;}.j{fill:#2f2e41;}.k{fill:#f9d132;}.l{fill:#cbcbcb;}</style></defs><g transform="translate(-46.601 49.635)"><rect class="a" width="371.653" height="176.356" transform="translate(88.174 -39.446)"/><rect class="b" width="350.398" height="147.139" transform="translate(99.243 -24.323)"/><rect class="c" width="371.653" height="15.789" transform="translate(88.015 -49.635)"/><ellipse class="b" cx="2.926" cy="2.926" rx="2.926" ry="2.926" transform="translate(96.823 -44.696)"/><ellipse class="b" cx="2.926" cy="2.926" rx="2.926" ry="2.926" transform="translate(107.93 -44.696)"/><ellipse class="b" cx="2.926" cy="2.926" rx="2.926" ry="2.926" transform="translate(119.037 -44.696)"/><path class="d" d="M716.268,265.9a55.608,55.608,0,0,1-3.5,19.5,54.085,54.085,0,0,1-3.873,8.258,55.865,55.865,0,0,1-96.939,0q-.743-1.288-1.408-2.613A55.852,55.852,0,1,1,716.268,265.9Z" transform="translate(-451.623 -218.698)"/><ellipse class="e" cx="10.677" cy="10.677" rx="10.677" ry="10.677" transform="translate(201.024 35.28)"/><path class="b" d="M613.595,312.575c4.7-5.084,10.993-13.155,16.891-7.323,2.96,2.751,7.593,9.568,12.027,5.111l34.629-34.629a6.875,6.875,0,0,1,9.832.176l28.841,31.02a54.112,54.112,0,0,1-3.873,8.259H615Z" transform="translate(-454.676 -240.226)"/><path class="c" d="M944.814,277.887a1.443,1.443,0,0,0,0,2.886h15.14a1.443,1.443,0,0,0,0-2.886Z" transform="translate(-566.124 -241.624)"/><path class="a" d="M841.784,245.878a1.443,1.443,0,1,0,0,2.886H925.8a1.443,1.443,0,1,0,0-2.886Z" transform="translate(-531.305 -230.806)"/><path class="a" d="M841.784,261.883a1.443,1.443,0,1,0,0,2.886H925.8a1.443,1.443,0,1,0,0-2.886Z" transform="translate(-531.305 -236.215)"/><path class="c" d="M944.814,380.583a1.443,1.443,0,0,0,0,2.886h15.14a1.443,1.443,0,1,0,0-2.886Z" transform="translate(-566.124 -276.33)"/><path class="a" d="M841.784,348.574a1.443,1.443,0,0,0,0,2.886H925.8a1.443,1.443,0,1,0,0-2.886Z" transform="translate(-531.305 -265.512)"/><path class="a" d="M841.784,364.579a1.443,1.443,0,1,0,0,2.886H925.8a1.443,1.443,0,0,0,0-2.886Z" transform="translate(-531.305 -270.921)"/><path class="a" d="M910.544,218.6h-4.55l-3.905-5.6h-1.652l1.961,5.6h-4.451l-1.827-1.827h-1.546l.771,3.38-.771,2.955h1.546l1.827-1.827.029-.048h4.474l-2.013,5.744h1.652l3.921-5.619.046-.124h4.487a1.316,1.316,0,1,0,0-2.632Z" transform="translate(-549.632 -219.697)"/><path class="a" d="M907.961,325.9h-7.188a2.431,2.431,0,0,1-2.428-2.428v-6.54a1.975,1.975,0,0,1,1.454-1.916,17.76,17.76,0,0,1,9.119.006,1.978,1.978,0,0,1,1.472,1.922v6.527a2.431,2.431,0,0,1-2.428,2.428Z" transform="translate(-550.907 -253.97)"/><rect class="b" width="9.283" height="3.481" transform="translate(348.819 63.196)"/><ellipse class="b" cx="1.16" cy="1.16" rx="1.16" ry="1.16" transform="translate(348.819 67.838)"/><ellipse class="b" cx="1.16" cy="1.16" rx="1.16" ry="1.16" transform="translate(355.781 67.838)"/><path class="a" d="M910.089,335.629h-11.2l2.649-2.207h5.9ZM900.628,335h7.719l-1.135-.946h-5.448Z" transform="translate(-551.091 -260.392)"/><path class="a" d="M910.034,331.746H897.672a.662.662,0,0,1,0-1.324h12.362a.662.662,0,1,1,0,1.324Z" transform="translate(-550.455 -259.378)"/><path class="f" d="M193.182,705.6c-4.53-1.251-6.463,5.628-1.945,6.919C195.768,713.775,197.7,706.9,193.182,705.6Z" transform="translate(-121.768 -528.396)"/><path class="f" d="M263.433,730.369c-4.53-1.251-6.463,5.628-1.945,6.919C266.019,738.539,267.952,731.66,263.433,730.369Z" transform="translate(-166.901 -544.307)"/><path class="f" d="M276.124,522.666l-.07-.02-11.668,31.679-1.538-.432L274.6,521.987h0a2.158,2.158,0,0,1,1.8-2.018,7.77,7.77,0,0,1,8.2,4.257l-.023.034-11.93,32.388-1.538-.432,11.578-31.435C279.167,521.295,276.124,522.666,276.124,522.666Z" transform="translate(-169.427 -409.157)"/><path class="g" d="M216.818,648.62c-6.878-.1-15.383-3.821-21.182-6.608a7.228,7.228,0,0,1-3.831-8.486l7.516-26.739a9.083,9.083,0,0,1,4.511-5.565,8.7,8.7,0,0,1,6.94-.536c.268.121,7.57,2.164,12.4,3.516,2.842.8,4.9,1.37,5.033,1.417.114.038,5.222,1.793,4.315,7.964-.7,4.74-5.951,22.2-8.178,29.493a7.817,7.817,0,0,1-7.411,5.545Z" transform="translate(-123.608 -460.776)"/><path class="f" d="M69.784,496.286l9.744-32.98,22.913,6.475.137-.484-23.392-6.611-.07.238L69.3,496.144Z" transform="translate(2.077 -319.461)"/><path class="h" d="M302.478,506.136a3.267,3.267,0,0,0-2.03-4.58l-.628-11.593-4.85,3.589,1.34,10.459a3.285,3.285,0,0,0,6.168,2.125Z" transform="translate(-190.065 -389.95)"/><path class="h" d="M419.987,511.78a3.267,3.267,0,0,1,1.3-4.838l-1.167-11.551,5.345,2.8.288,10.54a3.285,3.285,0,0,1-5.767,3.051Z" transform="translate(-270.005 -393.437)"/><path class="h" d="M209.374,565.247h3.818l1.817-14.729h-5.636Z" transform="translate(-87.915 -375.889)"/><path class="i" d="M338.545,736.367h7.521a4.793,4.793,0,0,1,4.793,4.792v.156H338.545Z" transform="translate(-218.061 -548.257)"/><path class="h" d="M263.319,559.419l3.734.8,4.863-14.022-5.511-1.181Z" transform="translate(-122.574 -372.356)"/><path class="i" d="M391.417,729.46l7.353,1.576h0a4.793,4.793,0,0,1,3.682,5.69l-.033.152-12.04-2.58Z" transform="translate(-251.364 -543.82)"/><path class="j" d="M318.722,504.094a50.96,50.96,0,0,0-.084,26.755l4.05,17.008,1.005,37.635,8.2-2.632,3.341-57.4,15.389,26.12-8.1,31.283,9.314.3L361.9,549.332l-8.843-31.57-1.62-7.694Z" transform="translate(-204.149 -399.029)"/><path class="k" d="M354.668,377.643l-8.157-4.649-14.111-.816-9.788,5.139,3.978,27.29s-7.587,10.888-4.821,18.143c3.414,8.954,33.267,13.625,32.683,4.887-.921-13.79-2.344-12.839-3.388-19.6-1.145-7.42,6.867-16.934,6.867-16.934Z" transform="translate(-206.892 -314.276)"/><path class="k" d="M304.412,387l-.909-3.941s-3.879.5-6.567,8.011-7.467,23.336-7.467,23.336l.25,5.75s-1.842,2.128-.571,3.1-2.3,2.289-.489,3.671a5.182,5.182,0,0,1,1.892,5.3l5.547-1.713-.408-9.054,2.2-7.137,5.873-17.863Z" transform="translate(-185.674 -321.266)"/><path class="k" d="M406.283,388.976l1.236-3.822s2.275-.931,3.955,4.316S413.951,408,413.951,408l3.263,15.828s1.219,2.016.571,2.594,2.847,1.39.816,2.461.175-.231-.584,2.21a3.138,3.138,0,0,0,.013,2.445l-6.281-1.264-1.713-8.113-3.885-15.085Z" transform="translate(-261.495 -322.572)"/><ellipse class="j" cx="10.832" cy="10.832" rx="10.832" ry="10.832" transform="translate(121.761 32.805)"/><path class="j" d="M321.089,302.14a22.713,22.713,0,0,0-8.264-5.344,11.627,11.627,0,0,0-6.26-.777,5.966,5.966,0,0,0-4.646,3.914,7.387,7.387,0,0,0,.755,5.057c.739,1.577,1.726,3.04,2.324,4.676a10.672,10.672,0,0,1-10.739,14.311c2.052.275,3.943,1.239,5.949,1.753s4.373.478,5.863-.958c1.577-1.52,1.609-3.992,1.532-6.181l-.34-9.763a12.4,12.4,0,0,1,.491-4.921,4.226,4.226,0,0,1,3.681-2.891,6.039,6.039,0,0,1,3.382,1.525,6.909,6.909,0,0,0,3.331,1.666c1.254.112,2.685-.816,2.591-2.071Z" transform="translate(-189.609 -265.244)"/><ellipse class="h" cx="7.974" cy="7.974" rx="7.974" ry="7.974" transform="translate(122.861 50.791) rotate(-61.337)"/><path class="j" d="M372.99,325.979H361.476l-.118-1.653-.59,1.653h-1.773l-.234-3.276-1.17,3.276h-3.43v-.162a8.613,8.613,0,0,1,8.6-8.6h1.623a8.613,8.613,0,0,1,8.6,8.6Z" transform="translate(-228.093 -278.963)"/><path class="j" d="M350.2,334.044l-4.2-4.209-.709-9.318h9.281l-.23.229C351.136,323.94,347.685,328.625,350.2,334.044Z" transform="translate(-222.389 -281.086)"/><path class="l" d="M268.471,750.574H132.253a.358.358,0,1,1,0-.715H268.471a.358.358,0,1,1,0,.715Z" transform="translate(-85.294 -556.926)"/></g></svg>