<svg xmlns="http://www.w3.org/2000/svg" xmlns:xlink="http://www.w3.org/1999/xlink" preserveAspectRatio="xMidYMid" width="38" height="39" viewBox="0 0 38 39">
  <defs>
    <style>
      .cls-1 {
        fill: #393939;
        fill-rule: evenodd;
      }
    </style>
  </defs>
  <path d="M34.472,34.117 C40.173,27.445 38.563,17.003 30.942,12.499 C29.375,5.355 23.114,-0.000 15.649,-0.000 C2.178,-0.000 -4.981,16.351 3.904,26.588 L0.000,31.992 L11.969,31.992 C14.468,36.327 19.021,39.000 23.970,39.000 L38.000,39.000 L34.472,34.117 ZM6.151,25.691 C-2.291,17.074 3.762,2.285 15.649,2.285 C23.056,2.285 29.082,8.436 29.082,15.996 C29.082,23.556 23.056,29.707 15.649,29.707 L4.433,29.707 L6.832,26.386 L6.151,25.691 ZM23.970,36.715 C20.278,36.715 16.850,34.941 14.661,31.992 L15.649,31.992 C24.407,31.992 31.572,24.596 31.313,15.523 C36.675,19.940 37.163,28.186 32.228,33.223 L31.547,33.918 L33.568,36.715 L23.970,36.715 Z" class="cls-1"/>
</svg>
